<?xml version="1.0" encoding="UTF-8" standalone="no"?>
<!DOCTYPE svg PUBLIC "-//W3C//DTD SVG 1.1//EN" "http://www.w3.org/Graphics/SVG/1.1/DTD/svg11.dtd">
<!-- Created with Vectornator (http://vectornator.io/) -->
<svg height="100%" stroke-miterlimit="10" style="fill-rule:nonzero;clip-rule:evenodd;stroke-linecap:round;stroke-linejoin:round;" version="1.1" viewBox="0 0 7680 4320" width="100%" xml:space="preserve" xmlns="http://www.w3.org/2000/svg" xmlns:xlink="http://www.w3.org/1999/xlink">
<defs/>
<g id="Ebene-1">
<g opacity="1">
<path d="M2326.42 645.279C2326.42 895.882 2325.44 1146.49 2326.42 1397.09C2326.45 1404.19 2370.22 1388.56 2372.3 1388.21C2398.2 1383.89 2433.4 1388.12 2455.18 1386.73C2501.63 1383.77 2559.34 1382.32 2607.61 1374.89C2657.89 1367.16 2701.43 1372 2751.17 1377.85C2800.62 1383.67 2840.53 1387.29 2876.96 1423.73C2899.17 1445.94 2916.14 1483.39 2942.08 1500.69C2948.67 1494.09 2974.86 1493.83 2985 1491.81C2990.93 1490.62 3000.62 1483.38 3004.24 1482.93C3017.94 1481.21 3031.87 1483.26 3045.68 1482.93C3059.06 1482.6 3075.53 1482.22 3088.6 1478.49C3092.3 1477.43 3093.69 1471.81 3097.47 1471.09C3106.68 1469.33 3116.5 1473.36 3125.59 1471.09C3171.25 1459.67 3226.32 1459.84 3273.59 1462.21C3277.14 1462.38 3278.93 1467.78 3282.47 1468.13C3298.68 1469.7 3315.41 1466.07 3331.31 1469.61C3348.59 1473.45 3364.21 1480.98 3380.14 1485.89C3391.9 1489.5 3405.09 1488.12 3417.14 1493.29C3425.44 1496.84 3419.34 1499.1 3430.46 1500.69C3437.58 1501.7 3455.2 1520.88 3463.02 1516.96C3472.78 1512.08 3469.03 1495.22 3468.94 1488.85C3468.54 1459.74 3467.46 1430.64 3467.46 1401.53C3467.46 1386.77 3473 1369.63 3474.86 1355.65C3477.23 1337.9 3491.98 1318.65 3497.06 1300.89C3508.01 1262.58 3530.59 1219.51 3553.3 1185.46C3563.72 1169.82 3590.91 1146.85 3594.74 1127.74C3596.59 1118.49 3586.18 1111.27 3584.38 1104.06C3580.01 1086.58 3570.3 1062.29 3569.58 1044.86C3568.25 1013.05 3576.4 988.816 3579.94 960.507C3580.78 953.776 3596.17 929.975 3596.22 929.428C3597.69 911.702 3586.6 888.727 3599.18 876.15C3625.18 902.154 3646.61 933.943 3673.17 960.507C3701.32 988.656 3743.74 997.156 3773.81 1019.7C3781.9 1025.77 3796.66 1037.46 3806.37 1037.46C3847.55 1037.46 3890.46 1038.1 3933.64 1033.02C3976.2 1028.02 4014.48 1026.19 4059.44 1024.14C4093.62 1022.59 4130.28 1024.06 4164.51 1022.66C4219.27 1020.43 4273.78 1028.79 4328.79 1031.54C4348.16 1032.51 4368.68 1031.3 4386.5 1038.94C4391.95 1041.28 4442.23 1000.62 4445.7 997.505C4491.35 956.665 4534.52 913.851 4568.54 862.83C4590.85 885.145 4583.64 939.528 4586.3 967.906C4593.22 1041.7 4585.97 1095.61 4541.9 1154.38C4614.82 1227.3 4653.87 1292.31 4661.77 1391.17C4662.03 1394.32 4667.57 1395.41 4667.69 1398.57C4668.62 1423.22 4667.28 1447.9 4667.69 1472.57C4668.6 1526.63 4666.8 1578.15 4664.73 1633.88C4664.42 1642.24 4655.11 1637.57 4664.73 1647.2C4708.65 1625.24 4753.64 1608.1 4800.89 1593.92C4818.27 1588.71 4844.29 1589.24 4861.57 1580.6C4865.93 1578.42 4867.45 1572.2 4871.93 1570.24C4878.27 1567.47 4885.93 1570.44 4892.65 1568.76C4933.54 1558.54 4974.94 1559.19 5016.96 1556.92C5062.31 1554.47 5106.84 1559.88 5151.64 1559.88C5217.11 1559.88 5286.73 1555.44 5354.39 1555.44C5355.13 1100.36 5355.13 1100.36 5355.87 645.279C3841.15 645.279 3841.15 645.279 2326.42 645.279Z" fill="#ed7ba3" fill-rule="nonzero" opacity="1" stroke="none"/>
<path d="M4266.63 3054.63C4257.53 3063.72 4267.66 3091.67 4268.11 3103.46C4268.93 3125.16 4269.59 3146.87 4269.59 3168.58C4269.59 3202.99 4232.84 3278.59 4201.51 3215.94C4196.77 3206.45 4190.24 3158.81 4188.19 3158.22C4174.9 3154.42 4160.42 3158.84 4146.75 3156.74C4135.26 3154.97 4119.22 3149.19 4105.32 3147.86C4079.27 3145.38 4052.49 3150.24 4026.88 3144.9C4020.7 3143.61 4012.77 3129.31 4007.64 3124.18C3992.3 3108.84 3973.66 3100.57 3960.28 3087.18C3952.85 3094.61 3950.84 3121.44 3946.96 3133.06C3935.75 3166.69 3924.75 3201.16 3908.48 3233.7C3902.96 3244.74 3891.35 3276.33 3874.44 3270.7C3852.75 3263.46 3867.77 3201.86 3858.17 3192.26C3844.36 3206.07 3832.22 3271.52 3815.25 3261.82C3792.8 3248.99 3799.03 3212.75 3804.89 3192.26C3805.87 3188.82 3810.31 3169.24 3798.97 3173.02C3783.38 3178.22 3776.32 3204.21 3759.01 3208.54C3743.94 3212.31 3744.6 3204.3 3732.37 3198.18C3730.4 3197.19 3728.66 3201.14 3726.45 3201.14C3693.63 3201.14 3660.64 3199.95 3627.29 3201.14C3538.63 3204.31 3450.75 3223.13 3362.38 3227.78C3316.47 3230.2 3268.68 3237.97 3223.27 3245.54C3209.83 3247.78 3193.06 3247.32 3181.83 3252.94C3165.36 3261.18 3141.53 3257.49 3124.11 3263.3C3103.32 3270.23 3076.08 3282.01 3054.56 3286.98C3036.58 3291.12 3012.8 3287.93 2995.36 3295.86C2984.74 3300.68 2990.52 3309.98 2990.92 3318.06C2991.81 3335.8 2992.4 3353.57 2992.4 3371.33C2992.4 3385.68 2983.28 3400.7 2993.88 3411.29C3000.82 3406.66 3004.74 3391.61 3014.6 3390.57C3061.92 3385.59 3056.04 3435.19 3056.04 3470.49C3056.04 3509.56 3032.68 3584.28 2993.88 3603.68C2991.85 3604.7 2980.82 3609.56 2979.08 3609.6C2944.07 3610.56 2909.03 3610.08 2874 3609.6C2806.04 3608.69 2739.58 3557.34 2723.05 3491.21C2717.32 3468.28 2703.06 3427.58 2721.57 3405.37C2729.02 3396.43 2735.26 3403.52 2742.29 3396.49C2740.81 3395.01 2740.81 3395.01 2739.33 3393.53C2740.81 3391.31 2740.81 3391.31 2742.29 3389.09C2734.25 3381.05 2729.72 3379.58 2720.09 3371.33C2717.53 3369.14 2715.28 3373.74 2714.17 3374.29C2704.02 3379.37 2691.7 3374.56 2683.09 3383.17C2688.31 3388.39 2686.59 3385.74 2689.01 3390.57C2674.39 3405.19 2599.17 3404.55 2575.06 3406.85C2532.43 3410.91 2488.32 3413.25 2446.3 3421.65C2407.67 3429.38 2367.65 3440.89 2327.9 3440.89C2327.16 3557.81 2327.16 3557.81 2326.42 3674.72C3841.15 3674.72 3841.15 3674.72 5355.87 3674.72C5355.87 3437.93 5355.87 3437.93 5355.87 3201.14C5347.39 3200.64 5311.83 3201.5 5304.07 3193.74C5292.99 3201.13 5276.84 3192.13 5264.11 3189.3C5230.5 3181.83 5194.42 3173.74 5163.47 3168.58C5142.73 3165.12 5111.37 3157.77 5090.96 3165.62C5083.33 3168.55 5073.97 3173.97 5065.8 3174.5C5020.43 3177.43 4973.24 3183.25 4928.16 3192.26C4918.44 3194.2 4925.35 3211.94 4925.2 3221.86C4924.84 3246.03 4923.72 3270.2 4923.72 3294.38C4923.72 3316.58 4927.1 3339.03 4923.72 3360.97C4922.91 3366.3 4914.23 3379.9 4920.76 3383.17C4927.66 3386.62 4942.61 3347.85 4945.92 3343.21C4967.89 3312.46 5000.44 3254.45 5039.16 3248.5C5068.29 3244.02 5087.38 3270.65 5074.68 3300.3C5065.02 3322.82 5063.43 3352.11 5053.96 3375.77C5040.39 3409.7 5023.09 3439 5006.6 3471.97C5030.16 3495.53 5070.39 3476.67 5092.44 3513.41C5105.63 3535.39 5058.01 3552.26 5045.08 3554.85C5000.62 3563.74 4902.08 3580.56 4873.41 3551.89C4876.61 3545.48 4875.59 3549.77 4867.49 3540.05C4879.42 3528.11 4899.95 3546.06 4911.88 3534.13C4910.9 3533.14 4910.32 3531.21 4908.92 3531.17C4881.32 3530.21 4853.66 3532.12 4826.05 3531.17C4813.68 3530.74 4801.38 3529.19 4789.05 3528.21C4696.19 3520.78 4636.43 3441.99 4596.66 3362.45C4579.66 3328.46 4558.81 3280.43 4590.74 3248.5C4569.9 3222.45 4507.67 3222.39 4478.26 3205.58C4474.49 3203.42 4469.08 3198.61 4464.94 3198.18C4450.19 3196.63 4435.02 3192 4420.54 3195.22C4418.5 3195.67 4416.51 3197.61 4416.1 3199.66C4412.48 3217.77 4416.89 3242.65 4390.94 3245.54C4385.8 3246.11 4379.39 3248.06 4374.67 3244.06C4334.56 3210.12 4319.3 3148.12 4297.71 3104.94C4290.8 3091.12 4281.93 3062.28 4266.63 3054.63Z" fill="#fcac6e" fill-rule="nonzero" opacity="1" stroke="none"/>
<path d="M3486.7 2029.03C3497.22 2018.51 3486.57 2012.87 3498.54 2000.91C3508.68 2007.67 3507.83 2019.47 3510.38 2030.51C3514.17 2046.93 3515.16 2054.4 3516.3 2074.9C3516.91 2085.86 3526.95 2100.36 3523.7 2113.38C3518.76 2133.15 3508.05 2147.21 3519.26 2169.62C3527.66 2186.42 3526.43 2202.75 3531.1 2221.42C3531.77 2224.12 3535.98 2224.75 3537.02 2227.34C3549.82 2259.34 3551.47 2297 3559.22 2327.97C3569.49 2369.07 3598.06 2404.74 3609.53 2444.89C3631.19 2520.67 3668.99 2588.01 3687.97 2663.92C3695.41 2693.65 3695.37 2744.43 3674.65 2773.44C3663.92 2788.46 3644.52 2789.04 3636.17 2801.56C3635.63 2802.38 3635.67 2803.67 3636.17 2804.52C3679.06 2876 3795.95 2943.31 3874.44 2974.71C3896.82 2983.66 3923.57 2988.69 3945.48 2996.91C3959.83 3002.29 3981.86 3000.62 3997.28 3002.83C4017.16 3005.67 4112.23 3015.15 4131.95 2995.43C4124.56 2988.03 4127.19 2986.22 4121.6 2980.63C4136.62 2958.1 4157.89 2957.82 4182.27 2948.07C4205.44 2938.8 4227.26 2920.17 4251.83 2914.03C4265.59 2910.59 4280.77 2919.13 4290.31 2909.59C4286.57 2905.85 4287.97 2907.88 4285.87 2903.67C4293.68 2895.86 4318.21 2873.86 4328.79 2884.43C4343.41 2877.12 4362.74 2852.69 4373.19 2842.99C4396.2 2821.62 4412.86 2799.76 4429.42 2774.92C4468.56 2716.2 4512.67 2644.69 4530.06 2575.12C4539.5 2537.35 4554.8 2493.3 4561.14 2455.25C4563.13 2443.3 4561.09 2433.26 4564.1 2421.21C4569.25 2400.61 4576.23 2371.26 4577.42 2348.69C4581.09 2278.86 4581.86 2208.09 4581.86 2138.54C4581.86 2065.98 4568.11 1991.27 4549.3 1925.43C4542.9 1903.03 4548.06 1876.83 4530.06 1858.83C4471.96 1916.93 4354.78 1963.76 4276.99 1966.87C4243.29 1968.22 4195.21 1973.34 4161.55 1956.51C4133.8 1942.63 4108.04 1920.41 4087.56 1895.83C4079.26 1885.87 4075.22 1873.13 4066.84 1864.75C4065.36 1866.23 4065.36 1866.23 4063.88 1867.71C4059.34 1863.18 4057.13 1865.4 4052.04 1860.31C4035.34 1874.63 4019.98 1891.06 4001.72 1903.23C3982.78 1915.85 3958.25 1920.27 3936.6 1928.39C3896.22 1943.53 3855.51 1940.23 3806.37 1940.23C3760.5 1940.23 3702.65 1899.7 3665.77 1875.11C3630.57 1851.65 3597.66 1817.36 3568.1 1787.79C3565.45 1785.14 3547.05 1756.33 3541.46 1758.2C3531.26 1761.6 3502.66 1797.26 3494.1 1807.03C3468.4 1836.41 3431.94 1875.97 3431.94 1919.51C3431.94 1930.03 3462.57 1960.15 3465.98 1977.23C3468.24 1988.51 3477.81 2020.13 3486.7 2029.03Z" fill="#f99c4d" fill-rule="nonzero" opacity="1" stroke="none"/>
<path d="M4092 1219.5C4060.98 1188.48 4043.09 1148.04 4006.16 1120.34C3961.61 1086.93 3903.29 1062.83 3850.77 1047.82C3840.72 1044.95 3828.4 1045.72 3818.21 1041.9C3776.22 1026.16 3735.94 994.109 3695.37 973.826C3664.9 958.592 3638.53 926.646 3618.41 899.829C3615.25 895.605 3602.43 870.704 3596.22 873.19C3594.92 873.708 3593.33 874.756 3593.26 876.15C3592.32 893.885 3593.26 911.668 3593.26 929.428C3593.26 984.12 3586.41 1040.61 3603.62 1092.22C3606.06 1099.55 3613.38 1105.97 3618.41 1111.46C3627.14 1120.98 3635.92 1130.45 3645.05 1139.58C3647.7 1142.22 3660.62 1146.45 3656.89 1151.42C3617.99 1203.29 3574.42 1258.44 3550.34 1318.65C3534.39 1358.53 3532.58 1411.74 3532.58 1453.33C3532.58 1478.83 3541.16 1501.56 3545.9 1522.88C3563.26 1601.03 3580.09 1665.12 3637.65 1727.12C3652.28 1742.87 3669.38 1764.44 3689.45 1774.47C3692.04 1771.89 3693.78 1765.65 3696.85 1764.12C3697.73 1763.67 3698.99 1763.57 3699.81 1764.12C3717.31 1775.78 3742.8 1776.62 3761.97 1784.83C3770.43 1788.46 3785.66 1780.39 3794.53 1780.39C3812.51 1780.39 3829.72 1784.83 3847.81 1784.83C3872.8 1784.83 3911.37 1766.23 3932.16 1753.76C4000.48 1712.77 4040.32 1639.88 4053.52 1567.28C4056.6 1550.36 4069.32 1523.33 4092 1525.84C4107.58 1527.58 4122.64 1550.75 4126.03 1564.32C4127.98 1572.11 4137.3 1577.5 4139.35 1585.04C4149.3 1621.5 4154.15 1654.06 4154.15 1693.08C4154.15 1702.17 4143.64 1710.69 4152.67 1719.72C4154.15 1718.98 4154.15 1718.98 4155.63 1718.24C4166.81 1729.42 4175.18 1741.04 4188.19 1750.8C4212.82 1769.26 4243.29 1774.51 4272.55 1777.43C4293.73 1779.55 4319.21 1785.36 4343.59 1781.87C4420.3 1770.92 4510 1704.52 4555.22 1644.24C4576.37 1616.03 4610.18 1578.32 4618.86 1543.6C4624.87 1519.56 4640.94 1494.23 4642.53 1471.09C4647.15 1404.21 4629.41 1359.4 4614.42 1299.41C4603.35 1255.14 4554.9 1212.82 4528.58 1181.02C4527.32 1179.5 4527.8 1176.91 4528.58 1175.1C4532.16 1166.75 4543.67 1157.81 4549.3 1149.94C4560.67 1134.03 4570.36 1117.56 4577.42 1101.1C4600.6 1047.02 4592.79 979.809 4589.26 924.988C4589.1 922.62 4577.55 862.896 4571.5 859.87C4565.97 857.109 4556.28 874.067 4553.74 877.63C4539.55 897.492 4524.29 916.013 4507.86 933.868C4454.77 991.577 4398.72 1039.89 4324.35 1061.14C4231.99 1087.53 4150.36 1131.95 4092 1219.5Z" fill="#fcd151" fill-rule="nonzero" opacity="1" stroke="none"/>
<path d="M2327.9 2801.56C2327.16 3099.02 2327.16 3099.02 2326.42 3396.49C2338.35 3396.49 2363.76 3391.26 2372.3 3386.13C2377.33 3383.12 2398.73 3382.31 2403.38 3381.69C2426.43 3378.62 2448.9 3371.91 2471.46 3366.89C2479.37 3365.13 2512.5 3365.92 2514.38 3356.53C2516.62 3345.34 2507.58 3316.44 2506.98 3309.18C2504.29 3276.89 2507.28 3245.59 2504.02 3212.98C2503.68 3209.64 2465.57 3202.27 2458.14 3196.7C2414.63 3164.07 2398.09 3136.41 2390.06 3084.22C2388.77 3075.84 2386.66 3058.94 2393.02 3051.67C2447.62 2989.26 2457.61 3150.35 2501.06 3128.62C2502.54 3130.1 2502.54 3130.1 2504.02 3131.58C2513.05 3122.55 2508.11 3090.97 2508.46 3075.34C2509.32 3035.89 2508.04 2996.37 2509.94 2956.95C2510.51 2945.15 2517.35 2920.61 2518.82 2906.63C2521.37 2882.33 2520.82 2835.98 2551.38 2823.75C2635.03 2790.29 2616.01 2933.85 2613.53 2967.31C2612.62 2979.61 2614.44 2992.01 2613.53 3004.31C2609.32 3061.22 2607.61 3129.17 2607.61 3187.82C2607.61 3190.24 2612.9 3194.58 2613.53 3195.22C2627.99 3180.76 2652.26 3181.41 2663.85 3158.22C2679.28 3127.37 2688.38 3090.77 2712.69 3066.46C2723.09 3056.06 2745.69 3074.33 2746.73 3084.22C2749.13 3107.08 2743 3133.59 2728.97 3152.3C2707.1 3181.46 2688.8 3210.23 2662.37 3236.66C2655.22 3243.81 2619.51 3254.02 2619.45 3255.9C2618.5 3288.94 2619.93 3322.01 2619.45 3355.05C2619.44 3356.16 2618.47 3357.03 2617.97 3358.01C2619.36 3359.4 2684.85 3384.3 2690.49 3383.17C2695.55 3382.16 2715.09 3371.29 2720.09 3374.29C2726.04 3377.87 2729.62 3388.12 2726.01 3393.53C2732.51 3400.03 2743.73 3395.8 2751.17 3402.41C2769.25 3418.49 2789.6 3448.18 2798.53 3470.49C2801.98 3479.13 2829.56 3537.85 2837 3534.13C2843.28 3530.99 2833.06 3482.79 2832.57 3474.93C2829.67 3428.61 2810.37 3386.7 2810.37 3335.81C2810.37 3319.46 2808.39 3259.1 2842.92 3267.74C2873.53 3275.39 2885.16 3378.25 2885.84 3397.97C2886.56 3418.68 2886.76 3439.41 2887.32 3460.13C2887.78 3476.96 2889.8 3493.73 2891.76 3510.45C2892.93 3520.37 2893.19 3543.03 2902.12 3538.57C2904.23 3537.51 2910.91 3525.8 2911 3523.77C2911.94 3504.06 2910.06 3484.28 2911 3464.57C2912.56 3431.75 2916.79 3395.76 2922.84 3362.45C2928.7 3330.23 2952.66 3252.11 2992.4 3301.78C3003.5 3290.67 3042.83 3294.26 3057.52 3289.94C3090.19 3280.33 3123.6 3268.1 3158.15 3261.82C3232.29 3248.34 3309.8 3236.89 3386.06 3229.26C3450.68 3222.8 3523.05 3221.28 3585.86 3205.58C3599.32 3202.21 3614.6 3206.17 3628.77 3205.58C3658.69 3204.33 3689.12 3201.14 3719.05 3201.14C3719.93 3201.14 3725.85 3203.45 3727.93 3202.62C3735.33 3199.66 3724.47 3180.39 3722.01 3173.02C3714.14 3149.41 3704.89 3112.26 3719.05 3088.66C3734.46 3062.99 3760.47 3062.03 3788.61 3062.03C3796.27 3062.03 3802.75 3068.6 3809.33 3062.03C3799.98 3049.56 3773.18 3048.33 3759.01 3039.83C3724.52 3019.14 3686.23 3007.09 3650.97 2983.59C3603.82 2952.15 3570.67 2905.95 3534.06 2863.71C3524.16 2852.29 3515.28 2828.49 3502.98 2820.79C3497.14 2817.15 3494.05 2825.25 3489.66 2826.71C3478.53 2830.42 3462.74 2832.63 3451.18 2832.63C3440.85 2832.63 3432.57 2824.01 3424.54 2820.79C3387.2 2805.86 3354.08 2776.67 3328.35 2742.36C3315.36 2751.02 3265.09 2738.07 3245.47 2736.44C3168.88 2730.06 3091.48 2726.08 3014.6 2726.08C2963.02 2726.08 2907.84 2727.81 2856.24 2732C2854.42 2732.15 2851.01 2738.98 2850.32 2739.4C2833.8 2749.31 2787.91 2745.39 2765.97 2751.24C2753.03 2754.69 2767.47 2755.67 2758.57 2757.16C2693.7 2767.97 2627.79 2775.77 2563.22 2779.36C2486.08 2783.64 2405.46 2810.17 2327.9 2801.56Z" fill="#fdcc96" fill-rule="nonzero" opacity="1" stroke="none"/>
<path d="M4661.77 1641.28C4650.62 1652.44 4645.77 1704.09 4639.58 1722.68C4620.85 1778.85 4578.34 1822.99 4528.58 1860.31C4538.32 1870.05 4553.98 1875.81 4565.58 1885.47C4595.11 1910.08 4623.75 1934.42 4646.97 1965.39C4660.79 1960.78 4672.25 1983.32 4678.05 1992.03C4702.06 2028.04 4717.5 2059.4 4734.29 2098.58C4745.33 2124.34 4754.6 2155.49 4766.85 2179.98C4770.23 2186.74 4777.11 2191.57 4780.17 2199.22C4788.54 2220.15 4790.32 2243.25 4796.45 2262.86C4797.49 2266.19 4802.29 2267.14 4803.85 2270.26C4806.95 2276.45 4807.61 2290.81 4809.77 2298.37C4818.71 2329.67 4831.63 2356.33 4833.45 2387.17C4835.78 2426.89 4833.44 2456.74 4805.33 2484.85C4796.78 2493.39 4762.77 2499.53 4762.41 2501.13C4756.39 2528.21 4747.29 2561.8 4712.09 2561.8C4680.86 2561.8 4682 2499.15 4667.69 2484.85C4661.39 2491.16 4658.9 2551.73 4651.41 2569.2C4625.96 2628.6 4598.83 2681.65 4547.82 2727.56C4556.01 2735.75 4550.76 2733.29 4562.62 2733.48C4590.24 2733.92 4617.87 2734.46 4645.49 2734.96C4747.97 2736.8 4849.24 2742.7 4951.84 2743.84C4990.32 2744.26 5028.81 2746.27 5067.28 2745.32C5069.37 2745.27 5071.5 2742.96 5071.72 2740.88C5078.48 2675.5 5075.43 2599.62 5062.84 2536.65C5056.95 2507.22 5061.47 2474.48 5056.92 2444.89C5056.6 2442.82 5052.58 2442.54 5052.48 2440.45C5049.16 2372.92 5053.62 2305.28 5049.52 2237.7C5049.39 2235.61 5046.95 2234.19 5045.08 2233.26C5040.64 2231.04 5035.24 2234.74 5030.28 2234.74C5021.81 2234.74 5007.57 2228.07 5000.68 2222.9C4960.92 2193.08 4926.08 2138.42 4940 2089.7C4942.39 2081.37 4965.43 2056.82 4977 2067.5C5003.54 2092 5020.74 2127.79 5042.12 2156.3C5044.34 2154.82 5044.34 2154.82 5046.56 2153.34C5048.04 2154.82 5048.04 2154.82 5049.52 2156.3C5050.51 2155.31 5052.43 2154.73 5052.48 2153.34C5053.43 2125.24 5051.53 2097.09 5052.48 2068.98C5053.16 2048.96 5060.66 2013.12 5062.84 1994.99C5066.13 1967.58 5062.48 1937.98 5074.68 1913.59C5083.49 1895.97 5094.78 1874.47 5111.68 1861.79C5146.9 1835.37 5200.44 1851.88 5225.63 1885.47C5233.08 1878.03 5233.62 1871.56 5241.91 1863.27C5266.66 1838.52 5303.44 1828.56 5324.79 1801.11C5330.05 1794.34 5355.47 1778.86 5355.87 1770.04C5359.14 1698.09 5355.87 1625.99 5355.87 1553.96C5307.28 1544.25 5256.21 1556.92 5207.87 1556.92C5130.82 1556.92 5051.65 1550.6 4972.56 1553.96C4938.91 1555.4 4885.41 1558.19 4855.65 1571.72C4826.35 1585.04 4797.53 1590.36 4766.85 1601.32C4752.16 1606.57 4766.59 1606.57 4757.97 1608.72C4746.06 1611.7 4730.86 1611.3 4719.49 1614.64C4709.56 1617.56 4669.53 1646.45 4661.77 1641.28Z" fill="#fcac6e" fill-rule="nonzero" opacity="1" stroke="none"/>
<path d="M2330.86 1404.49C2329.38 1405.97 2326.44 1406.84 2326.42 1408.93C2324.96 1583.56 2326.42 1758.2 2326.42 1932.83C2337.77 1922.47 2349.37 1912.38 2360.46 1901.75C2367.47 1895.03 2368.68 1864.5 2369.34 1855.87C2372.94 1809.1 2383.45 1760.03 2388.58 1713.8C2390.01 1700.96 2386.83 1651.91 2395.98 1642.76C2417.48 1664.26 2467.56 1646.54 2495.14 1644.24C2561.6 1638.7 2627.1 1627.35 2693.45 1622.04C2712.12 1620.55 2738.32 1602.7 2757.09 1610.2C2765.87 1613.72 2760.23 1631.2 2761.53 1638.32C2765.26 1658.85 2771.99 1671.49 2786.69 1688.64C2825.9 1734.39 2878.12 1762.68 2924.32 1799.63C2934.27 1807.59 2952.02 1810.66 2964.28 1815.91C2970.29 1818.49 2976.65 1828.77 2980.56 1832.19C3000.81 1849.91 3042.42 1867 3066.4 1876.59C3071.72 1878.72 3074.16 1885.36 3079.72 1886.95C3090.62 1890.07 3119.06 1891.01 3124.11 1906.19C3125.99 1906.19 3173.6 1934.63 3178.87 1937.27C3176.75 1945.74 3174.64 1946.99 3187.75 1953.55C3191.41 1955.38 3200.71 1948.42 3205.51 1949.11C3216.93 1950.74 3229.33 1961.3 3239.55 1965.39C3268.6 1977.01 3302.31 1988.19 3325.39 2011.27C3352.03 1987.29 3375.5 1959.68 3400.86 1934.31C3407.06 1928.12 3422.81 1911.85 3431.94 1920.99C3442.81 1910.12 3445.71 1878.65 3452.66 1864.75C3463.36 1843.34 3510.85 1791.3 3511.86 1770.04C3513.53 1734.94 3509.79 1696.06 3500.02 1663.48C3496.9 1653.09 3488.2 1636.98 3486.7 1626.48C3482.09 1594.24 3479.39 1564.67 3471.9 1534.72C3469.72 1526 3473.09 1516.68 3465.98 1509.57C3463.76 1511.79 3463.76 1511.79 3461.54 1514.01C3454.66 1510.57 3446.34 1508.35 3443.78 1500.69C3434.28 1500.69 3423.53 1500.59 3420.1 1490.33C3395.78 1490.33 3365.27 1478.45 3344.63 1469.61C3325.53 1461.42 3303.08 1467.74 3282.47 1465.17C3243.51 1460.3 3200.28 1457.77 3158.15 1462.21C3135.13 1464.63 3115.19 1466.07 3091.56 1468.13C3088.77 1468.37 3087.61 1474.03 3087.12 1475.53C3074.11 1475.53 2958.04 1481.77 2942.08 1497.73C2916.34 1471.98 2896.81 1440.61 2871.04 1414.85C2861.34 1405.14 2835.49 1396.99 2831.09 1383.77C2770.64 1383.77 2711.09 1364.53 2650.53 1364.53C2627.12 1364.53 2604.28 1373.7 2580.97 1374.89C2542.33 1376.87 2518.69 1376.22 2480.34 1377.85C2470.77 1378.26 2461.78 1383.13 2452.22 1383.77C2431.55 1385.15 2410.76 1382.83 2390.06 1383.77C2385.29 1383.99 2375.56 1399.33 2367.86 1401.53C2355.63 1405.03 2358.09 1400.31 2347.14 1392.65C2342.18 1389.17 2321.76 1395.39 2330.86 1404.49Z" fill="#fcac6e" fill-rule="nonzero" opacity="1" stroke="none"/>
<path d="M2395.98 1639.8C2384.38 1648.5 2395.37 1659.66 2385.62 1669.4C2402.18 1685.96 2422.24 1681.5 2444.82 1679.76C2498.34 1675.64 2550.92 1671.69 2604.65 1669.4C2617.68 1668.84 2626.09 1661.82 2635.73 1675.32C2649.67 1694.83 2652.8 1719.55 2665.33 1740.44C2671.76 1751.16 2681.34 1762.7 2686.05 1774.47C2688.12 1779.64 2688.53 1788.56 2691.97 1793.71C2715.92 1829.64 2733.44 1862.24 2749.69 1898.79C2754.91 1910.55 2765.76 1923.39 2770.41 1935.79C2784.64 1973.75 2795.13 2009.87 2817.77 2043.82C2825.27 2055.08 2838.95 2071.92 2848.84 2080.82C2855.85 2087.13 2867.56 2077.24 2876.96 2077.86C2885.05 2078.4 2895.08 2086.31 2900.64 2092.66C2916.48 2110.77 2911.73 2159.33 2908.04 2181.46C2905.64 2195.88 2892.66 2210.48 2905.08 2222.9C2912.29 2215.69 2908.08 2193.28 2919.88 2187.38C2959.71 2167.46 2962.8 2232.45 2962.8 2251.02C2962.8 2264.33 2950.11 2278.12 2949.48 2290.97C2946.43 2353.6 2942.56 2415.15 2933.2 2475.97C2930.93 2490.74 2899.23 2516.75 2899.16 2517.41C2897.79 2530.65 2898.25 2544.08 2899.16 2557.36C2901.84 2596.26 2901.67 2635.3 2902.12 2674.28C2902.2 2680.88 2899.47 2731.67 2913.96 2733.48C2944.3 2737.27 2982.88 2734.15 3013.12 2730.52C3014.5 2730.35 3016.06 2728.95 3016.08 2727.56C3016.56 2692.53 3015.52 2657.5 3014.6 2622.48C3013.77 2590.92 3015.62 2559.32 3014.6 2527.77C3014.48 2524.11 3003.57 2521.63 3001.28 2518.89C2994.78 2511.09 2993.25 2499.35 2989.44 2490.77C2983.42 2477.21 2986.96 2461.19 2986.48 2446.37C2985.81 2425.77 2981.91 2387.81 2983.52 2362.01C2985.95 2323.18 3022.96 2277.13 3059 2313.17C3083.5 2337.67 3072.32 2386.74 3072.32 2416.77C3072.32 2476.46 3073.8 2536.15 3073.8 2595.84C3073.8 2608.4 3067.47 2625.77 3066.4 2635.8C3063.92 2658.9 3065.13 2686.14 3063.44 2709.8C3062.94 2716.69 3061.25 2723.97 3063.44 2730.52C3128.08 2730.52 3194.48 2730.82 3258.79 2739.4C3280.36 2742.27 3311.19 2753.54 3329.83 2742.36C3311.29 2723.82 3298.29 2697.04 3286.91 2674.28C3233.06 2566.59 3213.54 2446.03 3208.47 2329.45C3205.88 2269.92 3203.36 2214.21 3224.75 2160.74C3238.13 2127.29 3252.75 2094.67 3278.03 2066.02C3294.16 2047.74 3313.28 2030.17 3326.87 2009.79C3302.85 1985.77 3241.72 1956.31 3206.99 1947.63C3198.47 1945.5 3195.8 1951.74 3189.23 1949.11C3172.55 1942.44 3188 1934.33 3171.47 1925.43C3166.88 1922.96 3159.21 1925.77 3153.71 1922.47C3141.51 1915.15 3132.3 1905.5 3122.63 1895.83C3119.59 1892.78 3103.16 1892.25 3098.95 1889.91C3085.29 1882.32 3070.47 1879.37 3056.04 1872.15C3034.35 1861.31 3004.23 1844.77 2983.52 1829.23C2976.8 1824.19 2972.36 1815.26 2964.28 1812.95C2952.94 1809.71 2939.05 1804.78 2928.76 1799.63C2922.57 1796.54 2918.08 1786.71 2912.48 1783.35C2866.79 1755.94 2812.21 1720.7 2779.29 1676.8C2777.1 1673.88 2768.1 1662.54 2767.45 1659.04C2765.67 1649.53 2769.71 1613.04 2760.05 1607.24C2742.66 1596.81 2713.12 1616.15 2694.93 1617.6C2622.87 1623.37 2550.91 1633.7 2478.86 1641.28C2453.69 1643.93 2415.82 1659.64 2395.98 1639.8Z" fill="#e48958" fill-rule="nonzero" opacity="1" stroke="none"/>
<path d="M2390.06 1669.4C2380.76 1675.6 2387 1705.07 2385.62 1713.8C2381.04 1742.83 2373.6 1780.85 2370.82 1809.99C2368.95 1829.61 2371.24 1849.78 2366.38 1869.19C2364.61 1876.27 2363.54 1895.44 2357.5 1901.75C2347.38 1912.34 2327.35 1918.21 2326.42 1932.83C2316.74 2085.94 2326.42 2239.67 2326.42 2393.09C2444.7 2409.99 2561.26 2439.8 2674.21 2477.45C2703.34 2487.16 2779.12 2497.18 2795.57 2521.85C2802.23 2515.18 2799.51 2503.1 2798.53 2493.73C2798.38 2492.34 2796.89 2491.21 2795.57 2490.77C2784.96 2487.23 2772.16 2482.43 2765.97 2470.05C2750.75 2439.6 2748.21 2399.38 2748.21 2364.97C2748.21 2360.56 2753.97 2357.54 2754.13 2353.13C2755.55 2312.71 2753.66 2272.23 2754.13 2231.78C2754.34 2213.11 2767.86 2175.67 2786.69 2168.14C2798.7 2163.33 2809.52 2187.5 2817.77 2169.62C2820.07 2164.63 2819.08 2153.19 2820.73 2147.42C2827.69 2123.05 2835.42 2101.7 2850.32 2079.34C2821.78 2050.8 2811.29 2014.96 2789.65 1986.11C2779.97 1973.21 2780.08 1949.08 2773.37 1934.31C2761.1 1907.32 2749.46 1871.85 2731.93 1848.47C2719.6 1832.04 2704.87 1811.61 2694.93 1793.71C2683.37 1772.91 2674.94 1746.34 2663.85 1724.16C2659.55 1715.56 2651.03 1707.65 2647.57 1699C2643.15 1687.94 2640.96 1672.33 2628.33 1664.96C2623.69 1662.25 2610.83 1664.76 2606.13 1664.96C2585.92 1665.82 2565.67 1665.68 2545.46 1666.44C2512.35 1667.69 2479.32 1672.78 2446.3 1675.32C2426.1 1676.87 2405.43 1684.77 2390.06 1669.4Z" fill="#bc674a" fill-rule="nonzero" opacity="1" stroke="none"/>
<path d="M5071.72 2699.44C5061.08 2710.08 5079.16 2742.01 5065.8 2742.36C4925.8 2745.95 4786.16 2735.99 4646.97 2733.48C4619.35 2732.98 4591.71 2732.87 4564.1 2732C4553.09 2731.65 4555.35 2732.13 4549.3 2726.08C4519.88 2740.79 4491.04 2739.56 4464.94 2718.68C4450.73 2732.89 4435.35 2760.09 4426.46 2777.88C4401.58 2827.65 4344.38 2875.03 4299.19 2905.15C4291.72 2899.55 4291.12 2899.57 4282.91 2903.67C4288.35 2914.55 4299.45 2923.27 4306.59 2933.27C4318.9 2950.51 4325.15 2978.47 4339.15 2992.47C4349.65 2985.46 4353.19 2970.83 4367.27 2967.31C4410.79 2956.43 4436.73 2990.51 4461.98 3022.07C4477.04 3040.89 4507.19 3079.82 4485.66 3104.94C4462.99 3131.39 4436.59 3088.33 4420.54 3099.02C4422.02 3101.24 4422.02 3101.24 4423.5 3103.46C4422.02 3104.94 4422.02 3104.94 4420.54 3106.42C4408.28 3100.29 4400.02 3088.76 4387.98 3082.74C4386.5 3084.22 4386.5 3084.22 4385.02 3085.7C4398.54 3112.73 4405.53 3142.37 4411.66 3173.02C4412.74 3178.39 4411.22 3198.68 4419.06 3199.66C4433.53 3201.47 4449.99 3198.9 4464.94 3201.14C4468.72 3201.71 4473.34 3207.07 4476.78 3208.54C4493.34 3215.64 4519.5 3222.76 4535.98 3224.82C4549.23 3226.48 4558.74 3238.82 4570.02 3242.58C4587.26 3248.32 4578.56 3237.8 4590.74 3249.98C4621.48 3234.61 4664.55 3288.85 4681.01 3303.26C4689.7 3297.46 4680.41 3275.21 4676.57 3266.26C4665.14 3239.57 4648.33 3168.95 4657.33 3141.94C4671.54 3099.33 4728.98 3140.81 4737.25 3165.62C4755.12 3219.24 4776.01 3273.32 4790.53 3331.37C4793.04 3341.4 4800.74 3353.51 4802.37 3362.45C4805.51 3379.75 4804.92 3407.93 4818.65 3421.65C4829.71 3413.35 4816.67 3325.95 4815.69 3309.18C4811.73 3241.81 4799.87 3111.88 4855.65 3056.11C4872.26 3039.49 4906.83 3071.58 4911.88 3084.22C4925.89 3119.24 4918.1 3156.75 4925.2 3192.26C4927.54 3203.93 4949.49 3193.62 4956.28 3192.26C4994.67 3184.58 5032.31 3179.36 5068.76 3174.5C5079.8 3173.03 5097.42 3173.96 5105.76 3165.62C5101.64 3161.5 5094.34 3165.4 5092.44 3159.7C5080.38 3123.52 5087.7 3069 5086.52 3032.43C5083.75 2946.58 5080.36 2860.77 5077.64 2774.92C5077.03 2755.62 5079.84 2707.57 5071.72 2699.44Z" fill="#fdcc96" fill-rule="nonzero" opacity="1" stroke="none"/>
<path d="M3300.23 2037.9C3307.65 2045.33 3294.17 2078.14 3292.83 2088.22C3285.38 2144.07 3276.55 2196.35 3276.55 2253.98C3276.55 2334.46 3293.99 2412.2 3309.11 2487.81C3321.83 2551.42 3337.53 2615.85 3360.9 2674.28C3378.56 2718.43 3384.96 2782.7 3420.1 2817.83C3418.62 2819.31 3418.62 2819.31 3417.14 2820.79C3428.55 2832.2 3458.97 2837.29 3474.86 2834.11C3482.85 2832.52 3495.82 2821.37 3502.98 2823.75C3509.71 2826 3520.32 2848.76 3525.18 2854.83C3542.5 2876.48 3560.09 2899.13 3578.46 2919.95C3633.88 2982.77 3697.99 3017.19 3769.37 3045.75C3779.54 3049.82 3824.93 3071.77 3827.09 3070.9C3839.29 3066.02 3843.76 3030.15 3849.29 3019.11C3837.61 3007.43 3789.16 2994.96 3769.37 2985.07C3719.67 2960.22 3674.61 2928.79 3634.69 2888.87C3625.32 2879.5 3609.31 2860.08 3605.1 2847.43C3603.85 2843.7 3624.61 2823.38 3628.77 2817.83C3621.19 2810.25 3603.9 2782.03 3613.97 2771.96C3621.72 2779.7 3618.26 2796.1 3633.21 2798.6C3691.47 2808.3 3700.51 2692.65 3690.93 2663.92C3666.63 2591.01 3643.11 2516.33 3612.49 2444.89C3578.39 2365.3 3546.17 2288.47 3534.06 2203.66C3529.68 2173.01 3510.45 2136.85 3505.94 2103.02C3499.26 2052.93 3482.4 2004.14 3460.06 1959.47C3454.64 1948.62 3441.3 1918.59 3428.98 1915.07C3420.07 1912.52 3407.34 1926.75 3402.34 1931.35C3393.35 1939.62 3384.34 1947.87 3375.7 1956.51C3352.6 1979.62 3315.05 2008.27 3300.23 2037.9Z" fill="#0abfce" fill-rule="nonzero" opacity="1" stroke="none"/>
<path d="M3591.78 929.428C3563.66 957.541 3568.78 1034.4 3571.06 1068.54C3572.42 1089.02 3591.78 1107.36 3591.78 1127.74C3591.78 1129.24 3566.02 1165.72 3562.18 1170.66C3540.69 1198.28 3524.62 1229.48 3508.9 1260.93C3466.27 1346.18 3457.52 1437.05 3471.9 1537.68C3474.65 1556.92 3473.91 1575.26 3480.78 1592.44C3484.09 1600.73 3482.29 1619.23 3483.74 1626.48C3487.6 1645.79 3500.72 1667.98 3502.98 1687.16C3503.97 1695.54 3499.97 1706.35 3505.94 1712.32C3508.16 1710.1 3508.16 1710.1 3510.38 1707.88C3537.92 1735.42 3552.83 1776.97 3581.42 1805.55C3684.79 1908.93 3812.34 1985.2 3961.76 1925.43C4002.11 1909.29 4025.61 1880.87 4060.92 1854.39C4068.34 1861.81 4065.62 1866.76 4069.8 1875.11C4086.91 1909.34 4126.2 1945.32 4161.55 1959.47C4204.65 1976.71 4258.01 1970.72 4300.67 1965.39C4358.73 1958.13 4406.73 1941.12 4457.54 1910.63C4508.4 1880.12 4559.31 1841.42 4602.58 1798.15C4607.45 1793.28 4614.92 1783.59 4617.38 1777.43C4628.68 1749.17 4647.08 1722.14 4652.89 1693.08C4656.91 1672.99 4648.36 1689.46 4654.37 1669.4C4656.77 1661.43 4667.39 1641.96 4667.69 1633.88C4668.64 1608.25 4666.74 1582.56 4667.69 1556.92C4668.28 1541.12 4669.67 1525.35 4670.65 1509.57C4672.79 1475.35 4672.67 1434.26 4670.65 1398.57C4670.48 1395.42 4664.98 1394.32 4664.73 1391.17C4657.36 1295.27 4624.33 1243.43 4558.18 1170.66C4554.02 1166.08 4551.16 1158.24 4546.34 1154.38C4542.69 1151.46 4520.62 1175.18 4525.62 1181.02C4554.07 1214.21 4581.6 1239.71 4601.1 1278.69C4641.71 1359.93 4662.03 1489.99 4604.06 1567.28C4584.79 1592.97 4570.15 1622.18 4549.3 1647.2C4483.03 1726.72 4396.75 1780.39 4293.27 1780.39C4275 1780.39 4282.09 1775.43 4272.55 1774.47C4241.75 1771.4 4222.79 1765.88 4195.59 1752.28C4186.88 1747.92 4155.66 1714.53 4154.15 1715.28C4149.13 1717.79 4151.02 1726.92 4148.23 1731.56C4129.32 1763.08 4119.2 1855.76 4069.8 1792.23C4065.08 1786.17 4055.27 1777.05 4053.52 1770.04C4050.74 1758.93 4041.11 1732.47 4032.8 1724.16C3986.06 1763.11 3942.91 1808.59 3883.32 1821.83C3868.71 1825.08 3845.51 1822.52 3834.49 1821.83C3819.72 1820.91 3804.86 1822.76 3790.09 1821.83C3762.59 1820.11 3740.21 1797.44 3716.09 1787.79C3696.13 1779.81 3675.95 1760.99 3659.85 1746.36C3567.58 1662.47 3535.54 1534.27 3535.54 1414.85C3535.54 1309.26 3604.55 1234.37 3659.85 1151.42C3663.84 1145.43 3650.21 1139.93 3646.53 1136.62C3637.97 1128.92 3629.52 1121.08 3621.37 1112.94C3609.28 1100.85 3603.25 1084.86 3599.18 1068.54C3590.67 1034.53 3600.84 1000.99 3597.7 966.426C3596.92 957.865 3598.25 933.741 3591.78 929.428Z" fill="#0abfce" fill-rule="nonzero" opacity="1" stroke="none"/>
<path d="M3767.89 1215.06C3738.29 1213.86 3696.12 1219.86 3671.69 1240.22C3568.53 1326.19 3548.56 1479.48 3615.45 1590.96C3640.57 1632.83 3677.28 1692.12 3726.45 1701.96C3733.38 1703.34 3744.45 1712.06 3750.13 1712.32C3791.43 1714.19 3808.27 1711.75 3840.41 1706.4C3922.45 1692.72 3981.95 1599 4000.24 1525.84C4003.26 1513.78 4011.74 1501.57 4012.08 1488.85C4013.01 1453.83 4013.56 1418.8 4013.56 1383.77C4013.56 1370.06 4001.8 1341.95 3994.32 1331.97C3979.54 1312.27 3966.8 1292.61 3948.44 1274.25C3897.01 1222.82 3837.15 1217.86 3767.89 1215.06Z" fill="#fa6c39" fill-rule="nonzero" opacity="1" stroke="none"/>
<path d="M2327.9 2391.61C2327.16 2597.32 2327.16 2597.32 2326.42 2803.04C2404.31 2811.69 2484.45 2791.93 2561.74 2783.8C2603.77 2779.37 2644.3 2776.44 2686.05 2770.48C2709.58 2767.12 2735.71 2766.65 2758.57 2760.12C2761.61 2759.25 2762.88 2754.86 2765.97 2754.2C2778.15 2751.59 2781.81 2757.59 2789.65 2749.76C2786.11 2746.22 2786.6 2748.11 2786.69 2743.84C2787.16 2719.66 2787.41 2695.49 2788.17 2671.32C2789.71 2621.91 2800.99 2571.19 2798.53 2521.85C2797.71 2505.58 2710.69 2486.65 2696.41 2481.89C2576.64 2441.96 2453.22 2409.51 2327.9 2391.61Z" fill="#fcac6e" fill-rule="nonzero" opacity="1" stroke="none"/>
<path d="M4817.17 3409.81C4807.42 3400.06 4798.08 3343.81 4793.49 3325.45C4780.07 3271.78 4761.79 3189.03 4726.89 3146.38C4705.45 3120.17 4680.95 3113.89 4655.85 3138.98C4655.07 3139.76 4654.59 3140.86 4654.37 3141.94C4646.34 3182.11 4663.66 3258.19 4682.49 3295.86C4681.01 3297.34 4681.01 3297.34 4679.53 3298.82C4655.71 3274.99 4604.54 3215.95 4572.98 3263.3C4554.65 3290.8 4592.03 3360.6 4605.54 3387.61C4637.71 3451.97 4699.64 3516.27 4771.29 3528.21C4791.8 3531.63 4797.64 3529.13 4823.09 3531.17C4845.93 3532.99 4886.15 3539.16 4916.32 3534.13C5005.41 3519.28 5037.22 3424.52 5061.36 3352.09C5070.29 3325.31 5089.51 3284.56 5074.68 3257.38C5051.52 3214.91 4995.39 3275.48 4981.44 3291.42C4967.71 3307.11 4955.07 3324.78 4942.96 3341.73C4934.73 3353.26 4933.76 3368.7 4923.72 3378.73C4922.24 3377.25 4922.24 3377.25 4920.76 3375.77C4931.75 3353.8 4928.16 3314.96 4928.16 3295.86C4928.16 3271.68 4926.68 3247.52 4926.68 3223.34C4926.68 3179.61 4942.43 3050.19 4864.53 3050.19C4829.64 3050.19 4817.81 3140 4815.69 3161.18C4814.76 3170.45 4813.1 3189.7 4812.73 3198.18C4812.04 3213.96 4811.83 3229.75 4811.25 3245.54C4810.85 3256.39 4809.77 3267.23 4809.77 3278.1C4809.77 3289.7 4811.82 3315.31 4812.73 3328.41C4813.37 3337.78 4821.57 3405.41 4817.17 3409.81Z" fill="#0eb093" fill-rule="nonzero" opacity="1" stroke="none"/>
<path d="M5122.04 1855.87C5130.75 1864.59 5112.11 1912.05 5110.2 1925.43C5099.7 1998.94 5099.84 2071.95 5099.84 2145.94C5099.84 2251.53 5110.55 2356.9 5116.12 2462.65C5119.21 2521.51 5116.96 2583.43 5125 2641.72C5130.75 2683.45 5146.29 2729.52 5148.68 2774.92C5152.23 2842.44 5153.68 2906.36 5154.6 2976.19C5155.15 3018.12 5154.1 3060.05 5154.6 3101.98C5154.87 3125.52 5162.47 3151.83 5145.72 3168.58C5154.68 3177.54 5211.13 3180.5 5228.59 3184.86C5233.37 3186.05 5252.09 3193.16 5253.75 3184.86C5258.56 3160.81 5253.36 3130.8 5250.79 3106.42C5250.35 3102.2 5243.51 3100.31 5243.39 3096.06C5241.47 3027.52 5243.71 2958.92 5243.39 2890.35C5242.8 2762.31 5241.42 2633.89 5228.59 2505.57C5228.04 2500.06 5221.51 2492.76 5221.19 2489.29C5219.45 2470.12 5222.1 2450.67 5219.71 2431.57C5215.42 2397.24 5217.17 2352.92 5206.39 2320.57C5205.73 2318.59 5202.08 2318.22 5201.95 2316.13C5197.49 2241.8 5199.69 2167.15 5194.55 2092.66C5192.84 2067.85 5184.98 2038.6 5184.19 2015.71C5182.58 1968.96 5185.16 1928.73 5178.27 1883.99C5174.25 1857.87 5145.3 1832.61 5122.04 1855.87Z" fill="#02b4b1" fill-rule="nonzero" opacity="1" stroke="none"/>
<path d="M4901.52 742.955C4680.13 761.128 4687.17 1112.94 4914.84 1112.94C5048.56 1112.94 5116.86 954.967 5071.72 842.111C5044.12 773.121 4968.55 737.453 4901.52 742.955Z" fill="#fef3d1" fill-rule="nonzero" opacity="1" stroke="none"/>
<path d="M4533.02 1866.23C4547.55 1895.29 4544.69 1930.68 4552.26 1960.95C4569.55 2030.1 4577.42 2100.1 4577.42 2175.54C4577.42 2254.86 4574.37 2334.1 4567.06 2410.85C4566.83 2413.24 4561.58 2418.79 4561.14 2421.21C4557.1 2443.43 4555.31 2463.79 4549.3 2484.85C4540.97 2514 4534.2 2546.71 4527.1 2575.12C4514.77 2624.42 4485.97 2673.67 4464.94 2715.72C4461.68 2722.25 4475.69 2732.1 4481.22 2733.48C4498.68 2737.84 4502.6 2739.4 4527.1 2739.4C4545.57 2739.4 4572.46 2707.36 4581.86 2697.96C4615.09 2664.73 4640.02 2612.28 4654.37 2569.2C4659.68 2553.3 4662.65 2506.17 4670.65 2498.17C4679.4 2506.91 4676.16 2529.46 4685.45 2541.09C4690.91 2547.9 4697.04 2554.15 4703.21 2560.32C4708.24 2565.35 4719.26 2565.75 4725.41 2563.28C4768.25 2546.15 4748.59 2519.39 4769.81 2498.17C4758.56 2486.91 4763.49 2461.54 4762.41 2446.37C4760.88 2424.91 4755.75 2391.23 4743.17 2372.37C4720.44 2338.27 4710.2 2293.82 4695.81 2255.46C4688.43 2235.77 4668.92 2221.88 4663.25 2199.22C4658.67 2180.89 4670.91 2161.85 4669.17 2144.46C4667.85 2131.27 4653.52 2116.33 4648.45 2104.5C4636 2075.44 4619.02 2043.01 4611.46 2012.75C4605.44 1988.68 4592.21 1968.31 4586.3 1944.67C4582.6 1929.9 4584.67 1907.17 4578.9 1894.35C4575.55 1886.91 4541.24 1858.01 4533.02 1866.23Z" fill="#1c7290" fill-rule="nonzero" opacity="1" stroke="none"/>
<path d="M5122.04 1852.91C5066.31 1880.78 5068.34 1941.27 5059.88 1992.03C5056.86 2010.14 5050.21 2048.46 5049.52 2068.98C5048.57 2097.09 5050.47 2125.24 5049.52 2153.34C5049.47 2154.73 5047.55 2155.31 5046.56 2156.3C5029.61 2143.59 4989.64 2065.01 4974.04 2063.06C4954.01 2060.56 4941.55 2081.32 4937.04 2097.1C4928.3 2127.7 4945.44 2170.09 4968.12 2196.26C4980.08 2210.06 4998.84 2229.84 5018.44 2234.74C5023 2235.88 5046.44 2235.4 5046.56 2239.18C5048.71 2307.03 5045.28 2375.58 5049.52 2443.41C5051.29 2471.67 5060.82 2510.29 5062.84 2539.61C5068.24 2617.98 5070.7 2694.63 5073.2 2773.44C5076.86 2888.83 5078.97 3004.43 5085.04 3119.74C5086.28 3143.36 5080.86 3165.28 5107.24 3167.1C5120.04 3167.98 5132.89 3168.12 5145.72 3168.58C5151.36 3168.78 5154.89 3169.77 5159.03 3165.62C5149.82 3147.19 5163.61 3123.23 5159.03 3104.94C5148.86 3064.26 5157.55 3021.08 5157.55 2979.15C5157.55 2942.15 5157.92 2905.15 5157.55 2868.15C5156.96 2809.05 5156.1 2735.04 5138.32 2675.76C5135.81 2667.42 5128.88 2648.55 5127.96 2640.24C5121.57 2582.73 5123.61 2522.15 5120.56 2464.13C5115.56 2369.28 5105.97 2275.03 5102.8 2179.98C5100.02 2096.68 5099.85 2009.71 5111.68 1926.91C5114.27 1908.76 5134.28 1865.16 5122.04 1852.91Z" fill="#1c7290" fill-rule="nonzero" opacity="1" stroke="none"/>
<path d="M5157.55 1852.91C5179.28 1874.64 5173.27 1899.84 5178.27 1929.87C5182.98 1958.11 5180.25 1987.09 5181.23 2015.71C5182.56 2054.25 5190.47 2099.64 5193.07 2140.02C5196.85 2198.59 5194.41 2257.75 5198.99 2316.13C5203.13 2368.9 5211.79 2434.49 5218.23 2489.29C5218.6 2492.42 5223.71 2493.56 5224.15 2496.69C5242.57 2625.61 5238.36 2759.76 5238.95 2888.87C5239.27 2958.92 5237.57 3029.03 5240.43 3099.02C5240.57 3102.51 5246.99 3103.04 5247.83 3106.42C5253.53 3129.2 5237.58 3169.71 5252.27 3189.3C5258.2 3197.2 5291.12 3195.4 5299.63 3199.66C5301.11 3198.18 5304.01 3197.31 5304.07 3195.22C5305.51 3143.94 5303.74 3092.61 5304.07 3041.31C5304.23 3016.64 5305.55 2991.98 5305.55 2967.31C5305.55 2788.64 5299.67 2608.62 5296.67 2431.57C5296.35 2412.8 5295.86 2393.98 5293.71 2375.33C5291.95 2360.11 5291.74 2344.75 5290.75 2329.45C5289.49 2309.98 5258.71 2254.94 5275.95 2237.7C5299.32 2261.07 5354.7 2172.89 5336.63 2154.82C5312.8 2172.69 5299.4 2202.72 5274.47 2221.42C5264.93 2211.88 5267.66 2168.09 5267.07 2153.34C5266.24 2132.63 5267 2111.86 5265.59 2091.18C5265.38 2088.03 5259.84 2079.52 5259.67 2076.38C5257.57 2037.59 5261.45 1997.94 5253.75 1959.47C5246.38 1922.61 5235.92 1881.48 5201.95 1858.83C5189.04 1850.22 5170.52 1839.95 5157.55 1852.91Z" fill="#0abfce" fill-rule="nonzero" opacity="1" stroke="none"/>
<path d="M3785.65 1271.29C3684.36 1283.85 3642.09 1401.5 3662.81 1494.77C3676.54 1556.52 3757.36 1593.92 3813.77 1593.92C3907.19 1593.92 3972.82 1492.69 3957.32 1407.45C3954.65 1392.76 3955.14 1376.68 3946.96 1363.05C3904.74 1292.67 3864.99 1261.46 3785.65 1271.29Z" fill="#f8f7f5" fill-rule="nonzero" opacity="1" stroke="none"/>
<path d="M2834.05 3528.21C2808.13 3502.3 2779.61 3405.08 2745.25 3396.49C2709.59 3387.58 2710.36 3435.98 2711.21 3457.17C2712.41 3487.05 2726.13 3525.17 2748.21 3550.41C2807.86 3618.58 2891.68 3613.74 2979.08 3612.56C2992.67 3612.38 3017.31 3584.69 3023.48 3578.52C3056.58 3545.42 3059 3474.81 3059 3432.01C3059 3404.39 3043.99 3384.35 3014.6 3387.61C2998.05 3389.45 2998.1 3410.03 2989.44 3418.69C2984.9 3414.15 2991.61 3393.22 2992.4 3386.13C2994.85 3364.05 2995.36 3341.76 2995.36 3319.54C2995.36 3303.36 2979.52 3266.39 2958.36 3284.02C2935.8 3302.82 2933.99 3322 2924.32 3346.17C2913.91 3372.2 2909.17 3440.97 2908.04 3464.57C2906.91 3488.35 2921.94 3524.96 2900.64 3535.61C2892.94 3539.46 2895.73 3519 2894.72 3510.45C2892.82 3494.25 2891.99 3477.92 2891.76 3461.61C2891.48 3440.89 2891 3420.16 2890.28 3399.45C2889.91 3388.56 2888.6 3377.72 2887.32 3366.89C2885.34 3350.02 2865.96 3253.64 2832.57 3264.78C2805.96 3273.65 2808.35 3314.15 2807.41 3335.81C2805.29 3384.59 2823.51 3425.09 2826.65 3469.01C2827.38 3479.25 2842.39 3519.87 2834.05 3528.21Z" fill="#0eb093" fill-rule="nonzero" opacity="1" stroke="none"/>
<path d="M4328.79 1231.34C4271.14 1231.34 4246.38 1264.66 4219.27 1305.33C4211.69 1316.7 4191.14 1337.88 4202.99 1349.73C4264.95 1287.77 4321.98 1274.19 4407.22 1308.29C4463.93 1330.98 4504.39 1434.93 4473.82 1485.89C4432.74 1554.36 4378.04 1579.12 4302.15 1579.12C4299.15 1579.12 4296.08 1578.7 4293.27 1577.64C4267.71 1568.06 4247.53 1563.09 4223.71 1543.6C4217.5 1538.52 4180.24 1513.52 4177.83 1519.92C4155.36 1579.86 4222.91 1676.25 4282.91 1687.16C4314.36 1692.88 4347.73 1691.17 4379.11 1684.2C4548.42 1646.57 4620.78 1397.53 4500.46 1277.21C4461.66 1238.42 4423.77 1216.81 4371.71 1220.98C4357.48 1222.11 4334.71 1213.58 4328.79 1231.34Z" fill="#fa6c39" fill-rule="nonzero" opacity="1" stroke="none"/>
<path d="M4318.43 1286.09C4172.86 1294.83 4107.43 1480.35 4247.39 1564.32C4275.73 1581.33 4307.18 1582.08 4342.11 1582.08C4428.62 1582.08 4511.17 1474.98 4479.74 1391.17C4452.7 1319.05 4390.04 1281.8 4318.43 1286.09Z" fill="#f8f7f5" fill-rule="nonzero" opacity="1" stroke="none"/>
<path d="M2810.37 2174.06C2798.8 2168.27 2793.64 2158.23 2782.25 2169.62C2786.19 2173.56 2785.21 2176.14 2785.21 2181.46C2785.21 2209.08 2785.21 2236.71 2785.21 2264.34C2785.21 2294.22 2786.5 2325.93 2788.17 2357.57C2789.21 2377.46 2791.67 2395.12 2805.93 2409.37C2814.78 2418.22 2840.91 2413.34 2841.44 2419.73C2842.43 2431.53 2841.44 2443.41 2841.44 2455.25C2841.44 2538.62 2839.99 2622 2841.44 2705.36C2841.56 2712.04 2846.94 2734.54 2853.28 2740.88C2871.57 2726.25 2898.14 2746.34 2913.96 2730.52C2905.96 2714.52 2906.96 2693.18 2906.56 2675.76C2905.68 2637.29 2906.52 2598.78 2905.08 2560.32C2904.56 2546.49 2900.7 2532.66 2902.12 2518.89C2902.41 2516.09 2933.74 2491.72 2936.16 2475.97C2945.45 2415.59 2948.01 2352.96 2952.44 2290.97C2952.85 2285.26 2959.89 2278.22 2961.32 2273.22C2966.76 2254.16 2972.16 2220.24 2961.32 2202.18C2950.59 2184.3 2924.14 2175.06 2911 2194.78C2906.19 2189.96 2913.43 2126.49 2911 2111.9C2906.71 2086.17 2867.49 2055.92 2844.4 2082.3C2829.36 2099.5 2823.44 2127.54 2817.77 2147.42C2815.13 2156.63 2817.85 2166.58 2810.37 2174.06Z" fill="#80c170" fill-rule="nonzero" opacity="1" stroke="none"/>
<path d="M4182.27 2980.63C4198.49 2996.84 4185.23 3028.94 4185.23 3050.19C4185.23 3102.17 4177.12 3173.07 4201.51 3221.86C4233.93 3286.69 4269.88 3199.87 4271.07 3170.06C4271.94 3148.37 4272.55 3126.65 4272.55 3104.94C4272.55 3090.97 4265.17 3073.81 4269.59 3060.55C4281.89 3072.84 4287.45 3090.34 4294.75 3104.94C4317.78 3151 4333.3 3208.61 4374.67 3247.02C4388.37 3259.74 4415.23 3238.92 4417.58 3224.82C4422.35 3196.19 4412.45 3114.61 4389.46 3091.62C4390.94 3090.14 4390.94 3090.14 4392.42 3088.66C4404.74 3100.98 4414.83 3114.15 4429.42 3101.98C4434.56 3107.12 4444.58 3107.37 4451.62 3109.38C4456.94 3110.9 4464.71 3119.74 4469.38 3119.74C4488.27 3119.74 4494.54 3090.05 4494.54 3076.82C4494.54 3052.69 4470.95 3031.91 4457.54 3014.67C4428.14 2976.87 4379.53 2934.68 4340.63 2986.55C4333.91 2982.07 4329.43 2967.12 4325.83 2959.91C4317.78 2943.82 4302.7 2921.73 4288.83 2909.59C4284.43 2905.74 4264.96 2922.17 4262.19 2924.39C4239.44 2942.59 4200.89 2962.01 4182.27 2980.63Z" fill="#773434" fill-rule="nonzero" opacity="1" stroke="none"/>
<path d="M3300.23 2036.42C3249.64 2087.01 3216.6 2154.86 3205.51 2221.42C3198.38 2264.19 3205.93 2309.55 3208.47 2350.17C3214.63 2448.78 3230.26 2535.43 3261.75 2629.88C3280.46 2686.01 3325.2 2753.47 3369.78 2791.2C3381.72 2801.29 3407.04 2825.85 3423.06 2817.83C3386.77 2781.54 3385.78 2718.11 3363.86 2674.28C3343.35 2633.25 3325.86 2573.06 3316.51 2526.29C3314.02 2513.87 3315.47 2500.3 3312.07 2487.81C3287.31 2397.05 3279.51 2293.39 3279.51 2196.26C3279.51 2146.41 3290.41 2088.06 3306.15 2040.86C3303.19 2038.64 3303.19 2038.64 3300.23 2036.42Z" fill="#1c7290" fill-rule="nonzero" opacity="1" stroke="none"/>
<path d="M3806.37 1037.46C3817.34 1048.44 3836.3 1045.36 3850.77 1050.78C3877.3 1060.73 3910.67 1068.67 3935.12 1083.34C3959.27 1097.83 3989.09 1108.23 4012.08 1129.22C4043.85 1158.23 4065.81 1189.73 4092 1222.46C4102.44 1217.24 4112.52 1195.22 4120.12 1185.46C4138.32 1162.05 4158.41 1143.31 4182.27 1126.26C4221.42 1098.29 4272.32 1076.85 4316.95 1064.1C4336.92 1058.39 4370.15 1052.34 4386.5 1035.98C4377.24 1026.72 4299.73 1028.28 4278.47 1025.62C4165.76 1011.53 4045.58 1015.59 3935.12 1028.58C3906.13 1032 3875.39 1037.46 3846.33 1037.46C3834.31 1037.46 3815.78 1028.05 3806.37 1037.46Z" fill="#0abfce" fill-rule="nonzero" opacity="1" stroke="none"/>
<path d="M3687.97 1773C3776.7 1861.73 3959.04 1834.79 4029.84 1728.6C4037.71 1734.5 4038.25 1745.19 4041.68 1753.76C4047.24 1767.65 4081.19 1816.12 4094.96 1818.87C4120.06 1823.89 4134.84 1771.75 4140.83 1753.76C4159.89 1696.59 4168.55 1618.05 4130.47 1567.28C4120.18 1553.56 4114.76 1525.41 4092 1522.88C4067.76 1520.19 4053.86 1549.11 4050.56 1567.28C4038.53 1633.45 3999.72 1717.02 3932.16 1750.8C3903.51 1765.12 3864.94 1781.87 3831.53 1781.87C3817.36 1781.87 3801.75 1777.43 3787.13 1777.43C3783.25 1777.43 3768.58 1783.09 3764.93 1781.87C3762.02 1780.91 3695.39 1761.15 3695.37 1761.16C3689.06 1763.86 3692.09 1768.88 3687.97 1773Z" fill="#f99c4d" fill-rule="nonzero" opacity="1" stroke="none"/>
<path d="M3870 2968.79C3863.47 2975.32 3866.44 2983.32 3862.61 2990.99C3856.64 3002.92 3847.16 3014.81 3841.89 3027.99C3836.06 3042.56 3834.68 3055.82 3825.61 3069.42C3815.84 3059.65 3804.26 3061.73 3790.09 3060.55C3719.33 3054.65 3699.58 3093.67 3716.09 3159.7C3721.1 3179.74 3726.26 3212.98 3754.57 3212.98C3769.29 3212.98 3777.67 3194.71 3788.61 3184.86C3794.83 3179.26 3800.85 3173.4 3806.37 3167.1C3807.85 3168.58 3807.85 3168.58 3809.33 3170.06C3799.45 3189.81 3785.13 3274.53 3824.13 3264.78C3835.36 3261.97 3845.53 3214.17 3855.21 3199.66C3870.25 3214.71 3849.96 3254.96 3871.48 3272.18C3885.66 3283.52 3902.62 3255.01 3907 3244.06C3921.68 3207.36 3936.21 3171.22 3948.44 3134.54C3953.69 3118.79 3955.21 3092.25 3966.2 3081.26C3957.71 3072.77 3927.31 3077.23 3914.4 3072.38C3908.76 3070.27 3942.04 3001.83 3946.96 2996.91C3932.26 2978.54 3890.87 2982.7 3870 2968.79Z" fill="#773434" fill-rule="nonzero" opacity="1" stroke="none"/>
<path d="M4663.25 2159.26C4669.31 2171.37 4657.2 2186.86 4660.29 2199.22C4662.61 2208.46 4668.71 2223.55 4673.61 2230.3C4677.93 2236.23 4686.4 2239.53 4688.41 2246.58C4690.67 2254.47 4692.67 2267.11 4698.77 2273.22C4704.82 2267.17 4698.64 2260.03 4704.69 2253.98C4720.21 2269.49 4707.93 2286.42 4712.09 2307.25C4720.54 2349.51 4750.61 2381.56 4756.49 2428.61C4758.59 2445.38 4752.23 2487.65 4765.37 2498.17C4785.53 2514.29 4820.94 2476.16 4827.53 2459.69C4843.06 2420.86 4834.23 2376.99 4824.57 2338.33C4821.38 2325.58 4821.36 2307 4811.25 2296.89C4799.45 2302.79 4790.14 2311.85 4780.17 2320.57C4773.17 2313.57 4774.37 2302.58 4778.69 2293.93C4765.02 2280.26 4763.89 2270.99 4756.49 2252.5C4750.7 2238.03 4740.52 2229.16 4735.77 2212.54C4727.57 2183.82 4727.92 2154.93 4718.01 2125.22C4704.29 2084.04 4680.74 2048.64 4670.65 2008.31C4662.23 1974.62 4630.39 1939.92 4607.02 1916.55C4601.5 1911.04 4590.31 1899.93 4583.34 1894.35C4581.31 1892.73 4576.66 1891.5 4575.94 1895.83C4570.25 1929.95 4590.04 1957.37 4599.62 1986.11C4612.4 2024.47 4624.91 2060.37 4642.53 2095.62C4647.61 2105.77 4674.51 2148 4663.25 2159.26Z" fill="#0abfce" fill-rule="nonzero" opacity="1" stroke="none"/>
<path d="M3024.96 2295.41C2963.54 2300.19 2980.61 2400.6 2982.04 2444.89C2982.24 2451.01 2982.14 2483.32 2986.48 2493.73C2989.28 2500.44 2995.81 2521.23 3004.24 2526.29C3006 2527.35 3011.47 2524.24 3011.64 2529.25C3014.09 2601.44 3007.65 2652.28 3011.64 2726.08C3011.75 2728.17 3013.99 2730.33 3016.08 2730.52C3030.82 2731.86 3045.74 2731.86 3060.48 2730.52C3065.72 2730.04 3067.27 2683.97 3067.88 2674.28C3068.62 2662.45 3067.62 2650.48 3069.36 2638.76C3070.95 2627.97 3076.65 2609.16 3076.76 2595.84C3077.24 2536.65 3077.2 2477.45 3076.76 2418.25C3076.38 2369.28 3086.71 2290.61 3024.96 2295.41Z" fill="#80c170" fill-rule="nonzero" opacity="1" stroke="none"/>
<path d="M2782.25 2168.14C2733.73 2216.65 2754.33 2285.07 2751.17 2353.13C2751.05 2355.62 2745.25 2362.02 2745.25 2366.45C2745.25 2393.36 2742.79 2431.08 2755.61 2456.73C2761.57 2468.66 2771.18 2481.39 2782.25 2489.29C2783.62 2490.26 2795.34 2494.74 2795.57 2496.69C2796.32 2503.06 2795.76 2541.87 2795.57 2547C2793.06 2612.13 2787.71 2677.17 2785.21 2742.36C2785.15 2743.92 2783.23 2745.32 2783.73 2746.8C2786.12 2753.99 2846.49 2746.19 2853.28 2739.4C2849.54 2731.91 2844.49 2707.46 2844.4 2702.4C2842.95 2620.03 2844.4 2537.63 2844.4 2455.25C2844.4 2443.41 2846.2 2431.43 2844.4 2419.73C2842.43 2406.89 2817.58 2415.87 2810.37 2409.37C2795.24 2395.75 2793.68 2379.42 2792.61 2359.05C2789.29 2296.03 2788.17 2245.8 2788.17 2181.46C2788.17 2173.42 2789.36 2173.47 2782.25 2168.14Z" fill="#799f58" fill-rule="nonzero" opacity="1" stroke="none"/>
<path d="M3812.29 1327.53C3799.9 1333.73 3784.06 1333.53 3772.33 1342.33C3738.36 1367.81 3716.09 1402.64 3716.09 1445.93C3716.09 1514.81 3808.49 1574.23 3870 1530.28C3927.65 1489.11 3947.74 1403.37 3890.72 1352.69C3884.54 1347.2 3885.28 1381.34 3883.32 1385.25C3873.84 1404.22 3853.55 1414.06 3833.01 1408.93C3812.03 1403.69 3795.34 1373.46 3806.37 1354.17C3813.33 1341.99 3826.21 1338.77 3834.49 1330.49C3833.01 1329.01 3833.01 1329.01 3812.29 1327.53Z" fill="#091026" fill-rule="nonzero" opacity="1" stroke="none"/>
<path d="M4313.99 1333.45C4288.53 1346.18 4271.88 1349.64 4251.83 1376.37C4236.02 1397.45 4232.59 1424.73 4232.59 1450.37C4232.59 1459.25 4239.15 1472.93 4244.43 1479.97C4256.37 1495.88 4268.18 1516.24 4288.83 1521.4C4307.42 1526.05 4323.27 1530.28 4343.59 1530.28C4375.1 1530.28 4424.3 1500.36 4429.42 1469.61C4433.17 1447.14 4449.39 1415.58 4430.9 1397.09C4423.45 1400.82 4417.6 1410.41 4408.7 1411.89C4380.59 1416.57 4356.91 1406.83 4356.91 1373.41C4356.91 1366.03 4372.56 1352.13 4370.23 1348.25C4362.72 1335.74 4341.08 1340.34 4313.99 1333.45Z" fill="#091026" fill-rule="nonzero" opacity="1" stroke="none"/>
<path d="M5354.39 2231.78C5349.3 2236.86 5350.5 2246.26 5345.51 2252.5C5336.77 2263.41 5328.87 2275.05 5318.87 2285.06C5312.14 2291.78 5284.44 2296.39 5281.87 2302.81C5279.67 2308.31 5287.49 2324.85 5287.79 2329.45C5288.71 2343.73 5286.87 2358.1 5287.79 2372.37C5290.24 2410.38 5296.01 2464.91 5296.67 2501.13C5297.64 2553.9 5296.29 2606.7 5296.67 2659.48C5296.79 2675.77 5296.76 2692.09 5298.15 2708.32C5298.96 2717.73 5345.1 2711.28 5354.39 2711.28C5354.39 2471.53 5354.39 2471.53 5354.39 2231.78Z" fill="#fcac6e" fill-rule="nonzero" opacity="1" stroke="none"/>
<path d="M5302.59 2706.84C5295.83 2713.6 5297.95 2709.39 5298.15 2721.64C5298.59 2747.78 5299.31 2773.93 5299.63 2800.08C5300.3 2855.32 5300.43 2910.58 5301.11 2965.83C5302.05 3041.79 5299 3117.8 5301.11 3193.74C5301.34 3201.95 5351.07 3202.42 5354.39 3202.62C5355.13 2956.21 5355.13 2956.21 5355.87 2709.8C5350.38 2707.97 5352.82 2709.02 5348.47 2706.84C5341.43 2713.88 5306.17 2710.42 5302.59 2706.84Z" fill="#fdcc96" fill-rule="nonzero" opacity="1" stroke="none"/>
<path d="M2583.93 2826.71C2594.99 2848.82 2588.37 2876 2588.37 2900.71C2588.37 2906.02 2583.28 2910.26 2582.45 2915.51C2579.34 2935.22 2579.44 2953.48 2575.06 2973.23C2574.01 2977.92 2567.92 2987.46 2567.66 2990.99C2566.74 3003.29 2568.57 3015.69 2567.66 3027.99C2567.45 3030.73 2559.12 3033.14 2558.78 3033.91C2556.5 3039.02 2554.57 3098.01 2557.3 3103.46C2555.82 3104.94 2555.82 3104.94 2554.34 3106.42C2562.17 3122.1 2552.86 3144.04 2552.86 3161.18C2552.86 3207.17 2556.89 3256.13 2558.78 3303.26C2559.27 3315.58 2557.66 3339.51 2563.22 3350.61C2561 3352.83 2561 3352.83 2558.78 3355.05C2564.05 3360.33 2573.51 3357.82 2580.97 3358.01C2593.31 3358.34 2605.64 3359.95 2617.97 3359.49C2619.37 3359.44 2620.92 3357.93 2620.93 3356.53C2621.42 3313.12 2620.42 3269.7 2619.45 3226.3C2619.2 3214.88 2610.79 3199.75 2610.57 3187.82C2608.91 3097.87 2616.91 3008.19 2622.41 2922.91C2623.97 2898.71 2624.82 2871.48 2613.53 2848.91C2608.43 2838.7 2595.45 2815.19 2583.93 2826.71Z" fill="#0abfce" fill-rule="nonzero" opacity="1" stroke="none"/>
<path d="M5243.39 1932.83C5253.59 1953.22 5252.34 1987.19 5253.75 2008.31C5257.17 2059.53 5261.59 2100.91 5262.63 2151.86C5262.94 2167.13 5260.34 2217.31 5274.47 2224.38C5298.45 2200.4 5318.94 2176.93 5341.07 2151.86C5345.92 2146.36 5355.34 2142.9 5355.87 2135.58C5360.4 2073.09 5355.87 2010.28 5355.87 1947.63C5333.12 1941.94 5309.09 1942.96 5286.31 1937.27C5278.42 1935.3 5258.59 1923.82 5249.31 1926.91C5246.66 1927.79 5245.36 1930.86 5243.39 1932.83Z" fill="#fcac6e" fill-rule="nonzero" opacity="1" stroke="none"/>
<path d="M2558.78 2872.59C2560.26 2874.07 2560.26 2874.07 2561.74 2875.55C2566.73 2870.56 2565.76 2861.88 2566.18 2854.83C2566.44 2850.39 2573.59 2830.2 2572.1 2826.71C2569.54 2820.74 2561.38 2819.31 2555.82 2819.31C2538.56 2819.31 2526.12 2850.59 2520.3 2862.23C2508.37 2886.09 2515.95 2923.5 2511.42 2949.55C2504.31 2990.4 2507.43 3032.4 2506.98 3073.86C2506.78 3092.14 2505.97 3110.45 2504.02 3128.62C2503.68 3131.76 2498.72 3132.92 2498.1 3136.02C2496.96 3141.72 2502.54 3178.23 2502.54 3181.9C2502.54 3213.17 2500.3 3242.64 2502.54 3275.14C2503.26 3285.63 2506.95 3355.04 2512.9 3358.01C2520.4 3361.76 2529.68 3358.38 2538.06 3358.01C2568.93 3356.67 2553.09 3336.17 2551.38 3312.14C2550.39 3298.32 2548.77 3284.54 2548.42 3270.7C2547.46 3233.22 2548.76 3195.71 2548.42 3158.22C2547.77 3088.45 2552.97 3019.3 2555.82 2948.07C2556.59 2928.84 2556.83 2909.59 2557.3 2890.35C2557.48 2882.73 2554.34 2879.24 2558.78 2872.59Z" fill="#02b4b1" fill-rule="nonzero" opacity="1" stroke="none"/>
<path d="M4171.91 2983.59C4131.4 3000.41 4069.02 3004.31 4025.4 3004.31C3989.69 3004.31 3949.98 2981.96 3935.12 3019.11C3931.32 3028.61 3903.46 3057.7 3908.48 3069.42C3912.93 3079.79 3953.77 3080.97 3963.24 3081.26C3989.38 3082.08 4015.53 3082.74 4041.68 3082.74C4082.89 3082.74 4119.24 3068.53 4157.11 3059.07C4160.4 3058.24 4186.61 3052.98 4186.71 3048.71C4187.18 3029.96 4187.05 3011.13 4185.23 2992.47C4184.9 2989.04 4174.99 2982.31 4171.91 2983.59Z" fill="#1c7290" fill-rule="nonzero" opacity="1" stroke="none"/>
<path d="M2326.42 3442.37C2378.4 3446.7 2433.1 3427.55 2484.78 3420.17C2523.71 3414.61 2566.63 3417.84 2604.65 3408.33C2621.88 3404.03 2697.4 3408.35 2689.01 3383.17C2669.97 3383.17 2641.14 3358.14 2619.45 3356.53C2607.15 3355.62 2594.78 3356.85 2582.45 3356.53C2562.6 3356.02 2531.29 3345.86 2512.9 3355.05C2501.84 3360.58 2486 3359.55 2472.94 3362.45C2445.3 3368.59 2418.13 3374.41 2390.06 3378.73C2381.34 3380.08 2326.81 3392.22 2326.42 3396.49C2325.04 3411.72 2326.42 3427.08 2326.42 3442.37Z" fill="#f99c4d" fill-rule="nonzero" opacity="1" stroke="none"/>
<path d="M3637.65 2803.04C3627.64 2813.05 3585.19 2857.12 3594.74 2866.67C3602.89 2858.52 3598.91 2862.93 3606.58 2853.35C3623.01 2869.79 3635.02 2893.64 3652.45 2911.07C3680.22 2938.84 3715.92 2958.03 3748.65 2977.67C3766.62 2988.45 3785.84 2996.69 3804.89 3004.31C3818.02 3009.56 3838.71 3011.49 3847.81 3020.59C3854.52 3013.87 3868.83 2991.52 3870 2982.11C3870.49 2978.19 3868.24 2973.8 3870 2970.27C3849.79 2950.06 3801.89 2940.64 3778.25 2922.91C3727.29 2884.69 3679.48 2855.31 3637.65 2803.04Z" fill="#1c7290" fill-rule="nonzero" opacity="1" stroke="none"/>
<path d="M4000.24 2404.93C4030.33 2404.93 4060.43 2404.57 4090.52 2404.93C4102.37 2405.07 4114.42 2408.73 4126.03 2406.41C4136.14 2404.39 4144.41 2398.6 4152.67 2393.09C4155.98 2390.88 4160.96 2393.39 4164.51 2391.61C4177.72 2385.01 4190.76 2377.75 4204.47 2370.89C4226.77 2359.74 4248.83 2336.89 4268.11 2320.57C4285.6 2305.77 4306.12 2295.77 4324.35 2282.1C4311.11 2268.86 4287.9 2297.2 4275.51 2301.33C4262.46 2305.68 4248.4 2314.15 4235.55 2320.57C4230.34 2323.18 4215.8 2322.13 4211.87 2323.53C4173.93 2337.08 4133.4 2351.27 4090.52 2353.13C4052.12 2354.8 3990.28 2356.93 3954.36 2335.37C3946.37 2330.58 3889.43 2303.93 3887.76 2307.25C3885.49 2311.81 3911.51 2336.27 3914.4 2339.81C3923.24 2350.61 3998.47 2399.63 4000.24 2404.93Z" fill="#fdcc96" fill-rule="nonzero" opacity="1" stroke="none"/>
<path d="M4174.87 3050.19C4101.79 3065.85 4041.85 3074.28 3964.72 3079.78C3962.63 3079.93 3961.36 3082.43 3960.28 3084.22C3955.73 3091.81 3971.79 3097.38 3975.08 3099.02C3987.9 3105.43 4000.97 3120.47 4010.6 3130.1C4011.77 3131.28 4022.58 3147.75 4026.88 3147.86C4052.53 3148.5 4078.29 3146.91 4103.84 3149.34C4133.2 3152.14 4158.39 3164.91 4188.19 3161.18C4200.47 3159.65 4191.35 3136.55 4191.15 3124.18C4190.84 3104.94 4190.53 3085.69 4189.67 3066.46C4189.07 3052.82 4185.56 3047.89 4174.87 3050.19Z" fill="#fdcc96" fill-rule="nonzero" opacity="1" stroke="none"/>
<path d="M3825.61 2006.83C3814.27 2012.69 3861.96 2063.9 3867.04 2068.98C3890.64 2092.58 3959.89 2135.68 3995.8 2126.7C4032.97 2117.41 4071.23 2072.9 4092 2043.82C4096.34 2037.74 4117.13 2018.05 4106.8 2009.79C4102.42 2006.29 4084.85 2021.54 4080.16 2023.11C4056.3 2031.06 4029.2 2046.93 4003.2 2048.26C3957.21 2050.62 3923.16 2040.64 3883.32 2034.94C3866.85 2032.59 3833.1 2002.95 3825.61 2006.83Z" fill="#fbe9a0" fill-rule="nonzero" opacity="1" stroke="none"/>
<path d="M5354.39 1768.56C5341.78 1781.16 5330.06 1797.95 5317.39 1808.51C5293.17 1828.7 5264.88 1841.98 5240.43 1860.31C5229.74 1868.33 5232.21 1875.93 5224.15 1883.99C5231.34 1898.36 5235.99 1922.47 5246.35 1932.83C5249.29 1929.89 5344.19 1946.56 5354.39 1949.11C5355.13 1913.59 5355.13 1913.59 5355.87 1878.07C5342 1878.07 5334.85 1892.57 5323.31 1881.03C5329.52 1874.82 5345.26 1861.79 5354.39 1861.79C5354.39 1815.17 5354.39 1815.17 5354.39 1768.56Z" fill="#f99c4d" fill-rule="nonzero" opacity="1" stroke="none"/>
<path d="M4645.49 1963.91C4675.33 2008.66 4703.47 2081.85 4716.53 2134.1C4719.18 2144.71 4718.89 2165.23 4723.93 2174.06C4725.32 2176.48 4729.33 2177.24 4729.85 2179.98C4733.69 2200.13 4728.46 2222.98 4744.65 2239.18C4746.13 2237.7 4746.13 2237.7 4747.61 2236.22C4756.58 2245.19 4757.27 2269.24 4762.41 2282.1C4764.32 2286.87 4775.68 2294.44 4775.73 2295.41C4776.25 2304.82 4772.03 2316.87 4778.69 2323.53C4785.64 2317.45 4807.91 2306.4 4812.73 2298.37C4815.72 2293.39 4793.86 2241.48 4793.49 2240.66C4788.09 2228.52 4791.13 2212.56 4783.13 2199.22C4765.23 2169.39 4748.66 2132.82 4737.25 2098.58C4724.32 2059.78 4704.93 2022.55 4681.01 1989.07C4675.43 1981.24 4655.61 1953.79 4645.49 1963.91Z" fill="#74d8f4" fill-rule="nonzero" opacity="1" stroke="none"/>
<path d="M5008.08 3470.49C4985.8 3492.77 4963.34 3521.38 4932.6 3528.21C4912.5 3532.68 4868.93 3529.72 4860.09 3538.57C4865.34 3543.82 4866.67 3542.19 4871.93 3547.45C4869.76 3551.79 4872.62 3551.98 4870.45 3556.33C4890 3575.88 4931.23 3568.17 4954.8 3568.17C4987.61 3568.17 5021.07 3565.3 5052.48 3556.33C5065.9 3552.49 5109.01 3536.09 5095.4 3513.41C5083.21 3493.1 5061.48 3484.95 5039.16 3479.37C5025.93 3476.06 5018.59 3481 5008.08 3470.49Z" fill="#f99c4d" fill-rule="nonzero" opacity="1" stroke="none"/>
<path d="M2406.34 3036.87C2398.83 3037.52 2389.79 3046.19 2388.58 3054.63C2379.54 3117.94 2412.9 3187.16 2477.38 3205.58C2483.29 3207.27 2493.19 3212.21 2499.58 3211.5C2508.42 3210.52 2507.13 3152.89 2504.02 3140.46C2501.12 3128.86 2479.45 3118.86 2471.46 3110.86C2444.88 3084.28 2461.87 3032.02 2406.34 3036.87Z" fill="#1c7290" fill-rule="nonzero" opacity="1" stroke="none"/>
<path d="M3884.8 2644.68C3877.19 2652.3 3867.96 2642.29 3861.13 2649.12C3855.91 2654.34 3880.52 2667.97 3883.32 2669.84C3908.96 2686.93 3939.93 2696.28 3970.64 2695C3993.43 2694.05 4050.59 2635.76 4059.44 2623.96C4057.22 2621 4057.22 2621 4055 2618.04C4000.05 2636.36 3950.22 2628.76 3896.64 2618.04C3887.7 2616.25 3831.38 2582.95 3828.57 2591.4C3823.25 2607.34 3848.99 2618.26 3861.13 2629.88C3867.77 2636.25 3878.77 2638.65 3884.8 2644.68Z" fill="#fcac6e" fill-rule="nonzero" opacity="1" stroke="none"/>
<path d="M2709.73 3066.46C2733.57 3098.25 2667.11 3187.52 2646.09 3208.54C2641.85 3212.79 2615.06 3220.4 2615.01 3224.82C2614.53 3268.23 2615.05 3311.66 2616.49 3355.05C2616.54 3356.45 2618.47 3357.03 2619.45 3358.01C2620.44 3357.03 2622.37 3356.45 2622.41 3355.05C2623.37 3323 2620.56 3290.87 2622.41 3258.86C2622.93 3249.87 2640.78 3252.64 2646.09 3249.98C2655.51 3245.27 2668.62 3234.85 2675.69 3227.78C2696.24 3207.23 2741.79 3150.11 2748.21 3121.22C2750.91 3109.05 2751.97 3100.2 2751.17 3085.7C2750.22 3068.59 2722.16 3054.04 2709.73 3066.46Z" fill="#41cad5" fill-rule="nonzero" opacity="1" stroke="none"/>
<path d="M3696.85 1111.46C3703.82 1125.4 3727.12 1125.69 3741.25 1129.22C3759.89 1133.88 3781.24 1143.69 3797.49 1145.5C3816.37 1147.6 3834.97 1141.55 3849.29 1155.86C3844.6 1160.55 3835.14 1165.03 3847.81 1170.66C3853.9 1173.37 3864.74 1171.09 3871.48 1173.62C3905.29 1186.29 3943.44 1195.54 3976.56 1212.1C3978.78 1209.88 3978.78 1209.88 3981 1207.66C3973.99 1193.64 3948.14 1172.36 3938.08 1163.26C3879.26 1110.04 3796.73 1117 3722.01 1111.46C3714.16 1110.88 3706.48 1101.84 3696.85 1111.46Z" fill="#fef3d1" fill-rule="nonzero" opacity="1" stroke="none"/>
<path d="M4319.91 2592.88C4323.61 2596.58 4323.61 2596.58 4327.31 2600.28C4322.65 2607.26 4313.32 2608.27 4306.59 2612.12C4294.92 2618.79 4280.02 2635.37 4266.63 2637.28C4258.77 2638.4 4243.47 2642.69 4237.03 2649.12C4239.25 2651.34 4239.25 2651.34 4241.47 2653.56C4214.46 2680.57 4288.58 2667.01 4300.67 2660.96C4340.91 2640.84 4373.4 2610.16 4408.7 2579.56C4417.18 2572.22 4439.14 2555.85 4435.34 2542.57C4433.5 2536.1 4409.12 2532.8 4404.26 2533.69C4398.83 2534.67 4380.41 2553.33 4379.11 2554.4C4361.54 2568.77 4335.09 2577.7 4319.91 2592.88Z" fill="#fcac6e" fill-rule="nonzero" opacity="1" stroke="none"/>
<path d="M4296.23 2074.9C4308.68 2093.58 4226.45 2126.88 4210.39 2140.02C4203.22 2145.89 4189.5 2163.17 4198.55 2165.18C4240.42 2174.48 4325.49 2138.64 4342.11 2097.1C4348.55 2080.98 4362.28 2064.24 4367.27 2046.78C4369.66 2038.4 4368.94 2030.12 4373.19 2021.63C4371.54 2019.98 4369.12 2016.16 4365.79 2018.67C4341.8 2036.65 4321.46 2058.08 4296.23 2074.9Z" fill="#fdcc96" fill-rule="nonzero" opacity="1" stroke="none"/>
<path d="M4103.84 2609.16C4135.74 2645.62 4205.02 2661.76 4251.83 2646.16C4271.56 2639.59 4288.16 2625.04 4308.07 2615.08C4315.86 2611.19 4327.04 2607.95 4333.23 2601.76C4329.54 2598.08 4325.81 2594.17 4321.39 2591.4C4319.05 2589.94 4308.47 2596.2 4305.11 2597.32C4285.5 2603.86 4262.97 2607.68 4241.47 2607.68C4197.06 2607.68 4152.66 2603.31 4108.28 2604.72C4106.18 2604.79 4105.32 2607.68 4103.84 2609.16Z" fill="#fdcc96" fill-rule="nonzero" opacity="1" stroke="none"/>
<path d="M5348.47 2140.02C5343.77 2144.71 5335.15 2148.18 5335.15 2154.82C5335.15 2157.9 5340.39 2162.66 5339.59 2166.66C5335.31 2188.07 5301.12 2259.9 5272.99 2231.78C5270.77 2234 5270.77 2234 5268.55 2236.22C5278.8 2256.71 5263.57 2285.99 5281.87 2304.29C5305.93 2292.27 5354.85 2270.6 5355.87 2237.7C5356.82 2206.63 5356.84 2175.52 5355.87 2144.46C5355.78 2141.59 5350.86 2141.62 5348.47 2140.02Z" fill="#0d9bb6" fill-rule="nonzero" opacity="1" stroke="none"/>
<path d="M3437.86 2113.38C3431.14 2120.1 3434.78 2158.76 3436.38 2165.18C3437.23 2168.56 3442.8 2169.23 3443.78 2172.58C3445.45 2178.26 3442.62 2184.53 3443.78 2190.34C3446.69 2204.9 3454.53 2224.44 3458.58 2240.66C3476.12 2310.82 3491.39 2380.36 3500.02 2452.29C3501.12 2461.48 3511.11 2463.56 3514.82 2470.05C3517.84 2475.34 3519.55 2490.01 3522.22 2496.69C3535.4 2529.65 3538.59 2582.61 3565.14 2609.16C3562.22 2615 3570.72 2628.06 3575.5 2632.84C3577.96 2630.38 3581.7 2628.72 3582.9 2625.44C3585.83 2617.38 3574.06 2607.77 3571.06 2601.76C3562.25 2584.15 3547.38 2553.72 3547.38 2536.65C3547.38 2527.15 3536.77 2518.63 3535.54 2510.01C3532.36 2487.77 3524.39 2470.66 3517.78 2450.81C3514.65 2441.43 3513.84 2423.22 3511.86 2412.33C3503.61 2366.96 3489.05 2323.12 3480.78 2277.66C3478.13 2263.08 3467.63 2246.45 3465.98 2233.26C3463.34 2212.13 3462.41 2189.13 3452.66 2169.62C3446.25 2156.79 3453.3 2140.58 3449.7 2126.7C3448.21 2120.95 3441.16 2118.32 3437.86 2113.38Z" fill="#41cad5" fill-rule="nonzero" opacity="1" stroke="none"/>
<path d="M4089.04 1619.08C4080.47 1627.65 4081.22 1643.6 4075.72 1654.6C4071.53 1662.96 4060.92 1676.33 4060.92 1687.16C4060.92 1708.57 4076.4 1733.6 4083.12 1753.76C4087.55 1767.05 4091.26 1791.5 4100.88 1801.11C4113.5 1788.49 4116.42 1757.34 4117.16 1740.44C4119.07 1696.41 4121.5 1651.54 4089.04 1619.08Z" fill="#091026" fill-rule="nonzero" opacity="1" stroke="none"/>
<path d="M2558.78 3358.01C2564.47 3352.32 2561.47 3354.73 2567.66 3350.61C2560.96 3343.92 2563.59 3314.11 2563.22 3304.74C2562.76 3293.39 2562.3 3282.04 2561.74 3270.7C2559.78 3231.64 2555.82 3191.85 2555.82 3153.78C2555.82 3140.46 2563.28 3118.4 2557.3 3106.42C2558.78 3104.94 2558.78 3104.94 2560.26 3103.46C2558.28 3099.52 2558.28 3101.49 2560.26 3097.54C2558.78 3096.06 2558.78 3096.06 2557.3 3094.58C2570.86 3067.46 2562.78 2988.62 2563.22 2959.91C2563.64 2931.79 2565.17 2903.67 2564.7 2875.55C2564.66 2873.74 2558.56 2866.78 2555.82 2868.15C2549.29 2871.41 2554.34 2884.72 2554.34 2890.35C2554.34 2909.1 2554.72 2927.85 2554.34 2946.59C2553.24 3000.25 2545.46 3056.02 2545.46 3109.38C2545.46 3125.18 2543.98 3140.95 2543.98 3156.74C2543.98 3195.74 2545.64 3234.76 2548.42 3273.66C2549.33 3286.45 2547.5 3299.34 2548.42 3312.14C2548.71 3316.25 2547.87 3352.56 2558.78 3358.01Z" fill="#41cad5" fill-rule="nonzero" opacity="1" stroke="none"/>
<path d="M4210.39 2430.09C4185.56 2454.93 4106.97 2475.97 4074.24 2475.97C4064.08 2475.97 4045.48 2476.81 4038.72 2470.05C4029.4 2474.71 3976.15 2451.88 3967.68 2443.41C3964.88 2440.61 3945.2 2438.51 3949.92 2446.37C3972.99 2484.82 4061.13 2504.03 4100.88 2502.61C4117.95 2502 4127.71 2493.69 4142.31 2490.77C4160.09 2487.21 4223.93 2440.66 4210.39 2430.09Z" fill="#fcac6e" fill-rule="nonzero" opacity="1" stroke="none"/>
<path d="M3810.81 2817.83C3800.35 2828.3 3838.32 2850.39 3847.81 2856.31C3886.99 2880.8 3967.75 2900.67 4009.12 2877.03C4019.15 2871.3 4031.92 2872.88 4038.72 2859.27C4032.34 2852.9 4026.88 2859.27 4019.48 2859.27C4006.15 2859.27 3992.84 2858.33 3979.52 2857.79C3968.17 2857.34 3956.82 2857.04 3945.48 2856.31C3897.44 2853.21 3857.29 2838.12 3810.81 2817.83Z" fill="#fcac6e" fill-rule="nonzero" opacity="1" stroke="none"/>
<path d="M4123.08 2968.79C4124.55 2970.27 4124.55 2970.27 4126.03 2971.75C4122.33 2975.46 4120.86 2973.96 4117.16 2977.67C4122.86 2985.28 4120.35 2991.38 4130.47 2996.91C4137.21 3000.58 4156.55 2991.18 4161.55 2989.51C4201.73 2976.12 4250.96 2944.5 4281.43 2914.03C4273.06 2905.66 4255.74 2906.66 4245.91 2914.03C4235.92 2921.52 4220.16 2921.33 4208.91 2928.83C4201.54 2933.74 4191.23 2942.87 4182.27 2945.11C4163.8 2949.73 4135.71 2956.16 4123.08 2968.79Z" fill="#fa6c39" fill-rule="nonzero" opacity="1" stroke="none"/>
<path d="M4296.23 2074.9C4287.87 2083.26 4242.54 2101.29 4241.47 2104.5C4216.03 2104.5 4184.59 2120.01 4160.07 2128.18C4156.42 2129.4 4154.96 2134.75 4151.19 2135.58C4141.95 2137.64 4118.86 2133.87 4111.24 2141.5C4123.86 2158.33 4177.95 2166.43 4197.07 2163.7C4205 2162.57 4200.03 2156.68 4200.03 2153.34C4200.03 2146.84 4212.67 2140.13 4217.79 2137.06C4228.51 2130.63 4237.73 2122.71 4248.87 2116.34C4257.55 2111.38 4274.3 2111.88 4282.91 2104.5C4290.06 2098.37 4295.79 2090.49 4303.63 2085.26C4300.33 2078.67 4304.06 2080.78 4296.23 2074.9Z" fill="#fcac6e" fill-rule="nonzero" opacity="1" stroke="none"/>
<path d="M4426.46 1118.86C4383.82 1133.07 4330.26 1146.99 4294.75 1173.62C4281.88 1183.27 4257.91 1193.18 4266.63 1210.62C4272.38 1222.13 4297.44 1208.53 4305.11 1204.7C4332.26 1191.12 4358.99 1172.96 4385.02 1157.34C4403.14 1146.47 4420.69 1140.95 4438.3 1127.74C4434.6 1124.04 4434.6 1124.04 4426.46 1118.86Z" fill="#fef3d1" fill-rule="nonzero" opacity="1" stroke="none"/>
<path d="M2709.73 3066.46C2674 3068.98 2679.21 3127.69 2660.89 3158.22C2651.94 3173.15 2638.49 3180.52 2623.89 3187.82C2619.22 3190.15 2612.29 3187.48 2610.57 3195.22C2610.14 3197.16 2607.33 3221.15 2616.49 3224.82C2628.54 3229.64 2667.72 3190.29 2671.25 3186.34C2689.6 3165.84 2738.21 3064.46 2709.73 3066.46Z" fill="#0d9bb6" fill-rule="nonzero" opacity="1" stroke="none"/>
<path d="M2557.3 2820.79C2561.36 2824.86 2566.51 2821.46 2569.14 2826.71C2573.3 2835.05 2560.34 2868.89 2560.26 2874.07C2559.65 2909.6 2559.04 2951.95 2560.26 2989.51C2560.44 2995.11 2556.93 3026.14 2564.7 3033.91C2580.73 3025.89 2569.09 3012.33 2570.62 2990.99C2572.08 2970.5 2583.94 2928.82 2589.85 2911.07C2598.3 2885.74 2579.85 2846.72 2591.33 2823.75C2583.2 2815.62 2566.76 2811.33 2557.3 2820.79Z" fill="#0d9bb6" fill-rule="nonzero" opacity="1" stroke="none"/>
<path d="M3356.46 2100.06C3342.73 2106.93 3348.62 2145.63 3349.07 2156.3C3350.71 2195.74 3374.07 2225.24 3383.1 2261.38C3385.07 2269.24 3383.25 2273.36 3389.02 2279.14C3402.99 2265.16 3391.98 2239.69 3391.98 2219.94C3391.98 2193.78 3384.23 2172.9 3374.22 2150.38C3367.13 2134.42 3369.23 2112.83 3356.46 2100.06Z" fill="#41cad5" fill-rule="nonzero" opacity="1" stroke="none"/>
<path d="M3223.27 1660.52C3217.61 1652.02 3203.45 1656 3193.67 1654.6C3164.4 1650.42 3138.2 1637.8 3110.79 1633.88C3095.82 1631.74 3092.72 1638.84 3088.6 1626.48C3080.24 1626.48 3036.5 1606.65 3035.32 1607.24C3019.56 1615.12 3072.49 1643.37 3078.24 1647.2C3102.22 1663.19 3133.75 1657.62 3161.11 1662C3179.38 1664.92 3206.5 1677.29 3223.27 1660.52Z" fill="#f99c4d" fill-rule="nonzero" opacity="1" stroke="none"/>
<path d="M3498.54 1997.95C3494.88 2001.6 3488.38 1998.81 3486.7 2003.87C3477.16 2032.48 3499.42 2057.09 3502.98 2083.78C3504.98 2098.8 3502.45 2129.13 3514.82 2141.5C3535.52 2120.8 3520.53 2097.75 3519.26 2074.9C3517.66 2046.07 3521.51 2016.32 3498.54 1997.95Z" fill="#fa6c39" fill-rule="nonzero" opacity="1" stroke="none"/>
<path d="M3585.86 2640.24C3569.51 2656.58 3591.19 2674.3 3594.74 2692.04C3600.33 2720.02 3604.46 2753.59 3608.06 2782.32C3609.12 2790.85 3622.91 2807.37 3619.89 2813.39C3624.11 2817.61 3621.69 2815.58 3627.29 2819.31C3633.74 2812.87 3636.56 2804.13 3642.09 2798.6C3636.91 2793.41 3629.44 2796.52 3624.33 2789.72C3599.68 2756.84 3619.85 2674.23 3585.86 2640.24Z" fill="#41cad5" fill-rule="nonzero" opacity="1" stroke="none"/>
<path d="M3510.38 1697.52C3495.33 1712.57 3514.03 1759.77 3501.5 1784.83C3505.2 1788.53 3505.2 1788.53 3508.9 1792.23C3516.2 1784.93 3544.42 1767.65 3544.42 1756.72C3544.42 1748.92 3526.54 1731.36 3522.22 1724.16C3517.21 1715.81 3517.06 1704.2 3510.38 1697.52Z" fill="#1c7290" fill-rule="nonzero" opacity="1" stroke="none"/>
<path d="M4174.87 1471.09C4167.13 1474.96 4167.92 1524.81 4176.35 1533.24C4181.44 1528.16 4179.22 1525.94 4183.75 1521.4C4188.58 1523.82 4185.93 1522.1 4191.15 1527.32C4195.86 1522.62 4193.28 1525.48 4198.55 1518.44C4185.25 1505.14 4186.62 1482.84 4174.87 1471.09Z" fill="#f99c4d" fill-rule="nonzero" opacity="1" stroke="none"/>
<path d="M2885.84 2307.25C2880.62 2312.47 2884.23 2314.47 2884.36 2320.57C2884.82 2341.29 2884.36 2362.01 2884.36 2382.73C2884.36 2390.85 2883.62 2390.87 2890.28 2397.53C2896.23 2391.58 2895.16 2310.66 2891.76 2307.25C2887.82 2309.23 2889.79 2309.23 2885.84 2307.25Z" fill="#799f58" fill-rule="nonzero" opacity="1" stroke="none"/>
<path d="M2891.76 2246.58C2876.53 2257.19 2878.37 2290.05 2881.4 2307.25C2883.03 2316.46 2894.55 2308.9 2894.72 2302.81C2895.17 2286.53 2896.2 2270.26 2896.2 2253.98C2896.2 2250.13 2894.48 2244.68 2891.76 2246.58Z" fill="#e48958" fill-rule="nonzero" opacity="1" stroke="none"/>
<path d="M2900.64 2212.54C2881.41 2231.77 2891.52 2281.27 2893.24 2301.33C2893.36 2302.72 2895.22 2303.31 2896.2 2304.29C2899.39 2301.11 2908.11 2220 2900.64 2212.54Z" fill="#c79266" fill-rule="nonzero" opacity="1" stroke="none"/>
<path d="M4488.62 1087.78C4482.12 1091.03 4477.6 1098.21 4470.86 1101.1C4457.66 1106.76 4435.31 1110.02 4424.98 1120.34C4427.43 1122.78 4437.02 1130.6 4439.78 1129.22C4450.58 1123.82 4501.33 1096.06 4488.62 1087.78Z" fill="#fbe9a0" fill-rule="nonzero" opacity="1" stroke="none"/>
<path d="M3933.64 2117.82C3936.52 2123.57 3933.39 2130.86 3942.52 2131.14C3957.32 2131.6 3972.12 2133.08 3986.92 2132.62C3987.93 2132.59 3994.87 2127.63 3995.8 2126.7C3990.28 2121.18 3940.28 2111.19 3933.64 2117.82Z" fill="#fcac6e" fill-rule="nonzero" opacity="1" stroke="none"/>
<path d="M3528.14 1904.71C3539.65 1893.2 3538.23 1867.98 3550.34 1855.87C3534.12 1839.65 3509.09 1885.66 3528.14 1904.71Z" fill="#fa6c39" fill-rule="nonzero" opacity="1" stroke="none"/>
<path d="M5320.35 1881.03C5339.31 1899.99 5355.87 1880.02 5355.87 1860.31C5345.71 1856.93 5326.99 1874.39 5320.35 1881.03Z" fill="#fa6c39" fill-rule="nonzero" opacity="1" stroke="none"/>
<path d="M4704.69 2251.02C4693.99 2261.72 4700.65 2292.85 4710.61 2302.81C4720.27 2293.16 4719.07 2258.2 4704.69 2251.02Z" fill="#02b4b1" fill-rule="nonzero" opacity="1" stroke="none"/>
<path d="M4285.87 2900.71C4290.4 2905.25 4292.62 2903.02 4297.71 2908.11C4309.19 2900.46 4318.83 2890.57 4330.27 2882.95C4316.86 2869.54 4297.03 2892.34 4285.87 2900.71Z" fill="#fcac6e" fill-rule="nonzero" opacity="1" stroke="none"/>
<path d="M2345.66 1394.13C2362.52 1410.99 2375.68 1404.07 2391.54 1388.21C2384.04 1380.71 2352.57 1387.22 2345.66 1394.13Z" fill="#f99c4d" fill-rule="nonzero" opacity="1" stroke="none"/>
<path d="M4171.91 2986.55C4172.46 2987.09 4182.22 2992.95 4182.27 2993.95C4183.26 3012.69 4171.96 3036.91 4185.23 3050.19C4192.94 3042.48 4200.86 2957.6 4171.91 2986.55Z" fill="#4c4b5a" fill-rule="nonzero" opacity="1" stroke="none"/>
<path d="M3502.98 1783.35C3495.83 1790.51 3474.6 1815.53 3480.78 1824.79C3492.69 1816.85 3501.45 1803.39 3510.38 1792.23C3506.68 1787.79 3506.68 1787.79 3502.98 1783.35Z" fill="#637973" fill-rule="nonzero" opacity="1" stroke="none"/>
<path d="M3676.13 1918.03C3685.41 1908.75 3675.43 1900.97 3686.49 1889.91C3680.04 1880.23 3645.35 1902.64 3676.13 1918.03Z" fill="#fa6c39" fill-rule="nonzero" opacity="1" stroke="none"/>
<path d="M4142.31 1451.85C4133.41 1460.75 4135.59 1470.28 4143.79 1478.49C4140.83 1481.45 4140.83 1481.45 4137.87 1484.41C4143.57 1490.1 4140.57 1487.69 4146.75 1491.81C4153.71 1484.85 4155.19 1483.96 4148.23 1477.01C4150.45 1474.05 4150.45 1474.05 4152.67 1471.09C4147.09 1462.72 4150.28 1461.41 4142.31 1451.85Z" fill="#f99c4d" fill-rule="nonzero" opacity="1" stroke="none"/>
<path d="M4818.65 1610.2C4823.95 1615.51 4824.79 1613.38 4831.97 1620.56C4861.2 1591.33 4829.83 1599.02 4818.65 1610.2Z" fill="#fdcc96" fill-rule="nonzero" opacity="1" stroke="none"/>
<path d="M4063.88 1849.95C4058.91 1852.44 4055.04 1856.95 4050.56 1860.31C4057.87 1869.46 4057.68 1864.47 4063.88 1870.67C4070.87 1863.68 4070.88 1856.96 4063.88 1849.95Z" fill="#e48958" fill-rule="nonzero" opacity="1" stroke="none"/>
<path d="M3579.94 2625.44C3572.27 2633.11 3567.35 2640.97 3576.98 2650.6C3590.24 2643.97 3588.55 2634.05 3579.94 2625.44Z" fill="#000000" fill-rule="nonzero" opacity="1" stroke="none"/>
<path d="M4808.29 1611.68C4815.26 1618.66 4817.41 1614.88 4827.53 1625C4832.89 1621.43 4831.17 1623.63 4833.45 1619.08C4827.44 1613.07 4817.21 1602.76 4808.29 1611.68Z" fill="#fbe9a0" fill-rule="nonzero" opacity="1" stroke="none"/>
<path d="M4195.59 1518.44C4190.37 1523.66 4192.09 1521.01 4189.67 1525.84C4195.47 1531.64 4199.13 1540.07 4207.43 1531.76C4202.15 1523.84 4205.73 1528.58 4195.59 1518.44Z" fill="#f79681" fill-rule="nonzero" opacity="1" stroke="none"/>
<path d="M3941.04 2999.87C3943.26 3002.09 3943.26 3002.09 3945.48 3004.31C3952.34 3000.88 3958.15 3004.25 3964.72 2999.87C3958.98 2991.25 3947.46 2993.45 3941.04 2999.87Z" fill="#000000" fill-rule="nonzero" opacity="1" stroke="none"/>
<path d="M3807.85 3162.66C3802.67 3167.84 3802.67 3167.84 3797.49 3173.02C3801.82 3179.51 3799.02 3176.39 3806.37 3181.9C3811.38 3176.89 3814.43 3167.05 3807.85 3162.66Z" fill="#bc674a" fill-rule="nonzero" opacity="1" stroke="none"/>
<path d="M4747.61 2233.26C4739.62 2241.25 4743.03 2240.51 4752.05 2249.54C4757.12 2244.46 4757.12 2238.33 4747.61 2233.26Z" fill="#41cad5" fill-rule="nonzero" opacity="1" stroke="none"/>
<path d="M2986.48 3408.33C2978.8 3416.01 2982.93 3432.6 2993.88 3421.65C2989.8 3416.21 2990.72 3412.57 2986.48 3408.33Z" fill="#2da48b" fill-rule="nonzero" opacity="1" stroke="none"/>
<path d="M4140.83 1484.41C4144.72 1480.52 4147.67 1480.76 4152.67 1477.01C4150.45 1474.79 4150.45 1474.79 4148.23 1472.57C4143.26 1475.05 4130.5 1474.08 4140.83 1484.41Z" fill="#000000" fill-rule="nonzero" opacity="1" stroke="none"/>
<path d="M2967.24 2446.37C2969.44 2450.76 2972.02 2452.52 2976.12 2455.25C2985.16 2446.21 2976.28 2437.33 2967.24 2446.37Z" fill="#bc674a" fill-rule="nonzero" opacity="1" stroke="none"/>
<path d="M2989.44 3403.89C2983.21 3410.12 2984.8 3414.06 2990.92 3420.17C2998.23 3412.86 2995.77 3413.39 2989.44 3403.89Z" fill="#909f8a" fill-rule="nonzero" opacity="1" stroke="none"/>
<path d="M2327.9 1395.61C2327.16 1402.27 2327.16 1402.27 2326.42 1408.93C2333.26 1410.64 2333.55 1410.69 2338.26 1405.97C2333.08 1400.79 2333.08 1400.79 2327.9 1395.61Z" fill="#000000" fill-rule="nonzero" opacity="1" stroke="none"/>
<path d="M3742.73 2499.65C3737.17 2505.21 3739.29 2509.77 3745.69 2512.97C3749.43 2509.23 3748.03 2511.25 3750.13 2507.05C3746.43 2503.35 3746.43 2503.35 3742.73 2499.65Z" fill="#000000" fill-rule="nonzero" opacity="1" stroke="none"/>
<path d="M3022 1482.93C3020.52 1484.41 3020.52 1484.41 3019.04 1485.89C3023.91 1490.76 3025.18 1500.46 3032.36 1493.29C3029.15 1486.88 3031.72 1491.03 3022 1482.93Z" fill="#000000" fill-rule="nonzero" opacity="1" stroke="none"/>
<path d="M4185.23 3047.23C4178.81 3049.37 4181.9 3047.6 4176.35 3053.15C4182 3058.79 4188.19 3059.9 4185.23 3047.23Z" fill="#bc674a" fill-rule="nonzero" opacity="1" stroke="none"/>
<path d="M2493.66 3130.1C2496.62 3133.8 2496.62 3133.8 2499.58 3137.5C2504.8 3132.28 2503.08 3134.93 2505.5 3130.1C2498.65 3124.97 2499.11 3124.65 2493.66 3130.1Z" fill="#c4b891" fill-rule="nonzero" opacity="1" stroke="none"/>
<path d="M3517.78 2447.85C3513.34 2452.29 3513.34 2452.29 3508.9 2456.73C3511.12 2458.95 3511.12 2458.95 3513.34 2461.17C3519.84 2454.67 3523.91 2453.98 3517.78 2447.85Z" fill="#000000" fill-rule="nonzero" opacity="1" stroke="none"/>
<path d="M5046.56 2150.38C5044.34 2152.6 5044.34 2152.6 5042.12 2154.82C5047.22 2161.62 5044.35 2159.64 5049.52 2162.22C5055.07 2156.67 5052.31 2156.13 5046.56 2150.38Z" fill="#000000" fill-rule="nonzero" opacity="1" stroke="none"/>
<path d="M3214.39 1912.11C3218.99 1918.24 3219.38 1920.44 3224.75 1915.07C3221.33 1909.94 3219.32 1907.18 3214.39 1912.11Z" fill="#000000" fill-rule="nonzero" opacity="1" stroke="none"/>
<path d="M4426.46 3101.98C4423.5 3104.94 4423.5 3104.94 4420.54 3107.9C4424.28 3111.64 4422.26 3110.24 4426.46 3112.34C4428.68 3110.12 4428.68 3110.12 4430.9 3107.9C4428.68 3104.94 4428.68 3104.94 4426.46 3101.98Z" fill="#bc674a" fill-rule="nonzero" opacity="1" stroke="none"/>
<path d="M5354.39 2134.1C5351.43 2137.06 5351.43 2137.06 5348.47 2140.02C5350.69 2142.98 5350.69 2142.98 5352.91 2145.94C5354.39 2145.2 5354.39 2145.2 5355.87 2144.46C5355.13 2139.28 5355.13 2139.28 5354.39 2134.1Z" fill="#000000" fill-rule="nonzero" opacity="1" stroke="none"/>
</g>
</g>
</svg>
