<?xml version="1.0" encoding="UTF-8" standalone="no"?>
<!DOCTYPE svg PUBLIC "-//W3C//DTD SVG 1.1//EN" "http://www.w3.org/Graphics/SVG/1.1/DTD/svg11.dtd">
<!-- Created with Vectornator (http://vectornator.io/) -->
<svg height="100%" stroke-miterlimit="10" style="fill-rule:nonzero;clip-rule:evenodd;stroke-linecap:round;stroke-linejoin:round;" version="1.1" viewBox="0 0 7680 4320" width="100%" xml:space="preserve" xmlns="http://www.w3.org/2000/svg" xmlns:xlink="http://www.w3.org/1999/xlink">
<defs/>
<g id="Ebene-1">
<g opacity="1">
<path d="M4862.49 2596.21C4855.86 2602.85 4859.1 2614.75 4859 2624.13C4858.51 2668.34 4857.82 2712.54 4857.25 2756.74C4856.16 2841.71 4855.59 2928.58 4852.02 3013.24C4851.72 3020.31 4847.36 3027.19 4848.53 3034.17C4848.99 3036.92 4890.02 3038.26 4895.64 3055.11C4909.44 3055.11 4904.57 3077.59 4906.11 3084.77C4910.94 3107.3 4925.11 3158.54 4892.15 3166.78C4850.47 3177.2 4799.61 3170.27 4757.8 3170.27C4740.99 3170.27 4718.19 3177.8 4705.45 3179C4667.8 3182.53 4626.55 3180.25 4588.54 3182.49C4581.2 3182.92 4574.94 3188.9 4567.61 3189.47C4471.73 3196.84 4373.77 3189.6 4277.96 3196.45C4273.86 3196.74 4273.24 3204.22 4269.24 3205.17C4224.97 3215.71 4164.35 3208.52 4119.18 3210.4C4064.99 3212.66 4011.01 3217.78 3956.91 3220.87C3871.46 3225.76 3783.28 3221.35 3702.16 3240.07C3697.75 3241.08 3699.32 3304.15 3698.67 3318.59C3696.59 3364.32 3695.1 3404.7 3696.92 3452.94C3697.01 3455.41 3700.41 3456.43 3702.16 3458.17C3793.73 3412.39 3877.2 3453.87 3963.88 3473.88C4015.6 3485.81 4066.29 3497.02 4119.18 3508.78C4164.5 3518.85 4220.76 3524.67 4262.26 3545.42C4281.65 3555.11 4317.08 3557.99 4339.03 3562.87C4392.88 3574.83 4443.66 3590.31 4499.56 3597.76C4503.38 3598.27 4570.12 3613.67 4562.37 3629.17C4555.01 3643.88 4505.63 3642.97 4494.32 3643.13C4461.17 3643.58 4427.95 3642.67 4394.87 3644.87C4387.99 3645.33 4374.35 3652.88 4366.95 3655.34C4355.03 3659.32 4331.64 3657.71 4319.84 3658.83C4272.05 3663.38 4224.66 3669.37 4176.76 3672.79C4117.96 3676.99 4059.23 3682.63 4000.53 3688.5C3986.5 3689.9 3966.27 3698.19 3955.16 3698.97C3914.96 3701.77 3877.85 3697.51 3838.26 3702.45C3807.23 3706.33 3770.63 3715.84 3737.05 3718.16C3722.44 3719.17 3694.58 3708.79 3693.43 3723.39C3691.2 3751.81 3693.96 3780.4 3693.43 3808.89C3693.01 3831.48 3636.22 3832.68 3620.15 3833.32C3583.39 3834.79 3527.5 3839.06 3487.54 3835.06C3468.35 3833.15 3449.76 3823.07 3429.96 3824.59C3426.25 3824.88 3424.95 3831.33 3421.23 3831.57C3348.59 3836.42 3272.09 3838.55 3199.64 3838.55C3171.15 3838.55 3148.35 3816.17 3122.86 3808.89C3091.37 3799.89 3061.65 3792.56 3032.13 3782.72C3000.3 3772.11 2969.48 3763.58 2937.91 3753.06C2918.39 3746.55 2894.76 3747.53 2875.09 3739.1C2797.96 3706.04 2710.47 3681.51 2629.07 3657.09C2583.95 3643.55 2539.39 3637.29 2494.71 3629.17C2469.98 3624.67 2439.79 3611.21 2416.2 3606.49C2385.66 3600.38 2354.15 3601.35 2325.46 3592.53C2318.59 3590.41 2309.61 3592.38 2304.52 3587.29C2313.64 3578.18 2377.1 3573.15 2393.51 3571.59C2461.07 3565.16 2528.52 3558.82 2595.92 3552.4C2684.86 3543.93 2778.99 3535.17 2869.86 3524.48C2936 3516.7 3003.86 3505.29 3070.52 3505.29C3142.21 3505.29 3214.82 3498.31 3286.88 3498.31C3322.69 3498.31 3363.34 3503.1 3398.55 3494.82C3411.89 3491.68 3402.19 3471.82 3402.04 3463.41C3401.35 3423.28 3400.3 3383.15 3400.3 3343.01C3400.3 3319.44 3400.3 3295.34 3400.3 3271.47C3400.3 3261.55 3410.26 3240.61 3396.81 3236.58C3360.01 3225.54 3322.66 3228.23 3283.39 3222.62C3232.28 3215.32 3172.46 3200.85 3121.12 3192.96C3045.34 3181.3 2963.76 3162.37 2885.56 3149.33C2864.04 3145.75 2841.25 3138.13 2821 3133.63C2817.37 3132.82 2815.97 3127.11 2812.28 3126.65C2778.43 3122.42 2743.64 3121.19 2711.08 3116.18C2672.55 3110.25 2633.81 3095.84 2595.92 3090.01C2572.93 3086.47 2539.41 3091 2517.4 3077.8C2485.36 3058.57 2525.94 2999.1 2501.69 2974.85C2467.61 3008.93 2402.24 2996.96 2362.1 2999.28C2358.85 2999.46 2357.42 3006.35 2356.87 3008C2256.75 3008 2154.85 3012.6 2055.01 3018.47C2054.14 3481.73 2054.14 3481.73 2053.27 3944.99C3839.13 3944.99 3839.13 3944.99 5624.99 3944.99C5624.99 3518.37 5624.99 3518.37 5624.99 3091.75C5448.95 3085.89 5274.05 3068.16 5098.04 3062.09C5079.43 3061.45 5060.82 3060.89 5042.21 3060.35C5022.95 3059.78 4949.27 3054.7 4939.26 3030.68C4930.34 3009.27 4961.74 2985.68 4953.22 2964.38C4947.13 2949.16 4928.13 2948.49 4932.28 2927.74C4935.12 2913.56 4976.18 2925.94 4982.88 2910.29C4991.45 2890.29 4942.92 2893.7 4939.26 2875.39C4934.77 2852.95 4957.97 2855.91 4963.69 2838.75C5015.03 2838.75 4937.15 2797.05 4958.45 2786.4C4971.95 2779.66 4992.95 2777.57 5007.31 2768.96C5012.92 2765.59 5010.67 2760.26 5019.52 2758.49C5046.59 2753.07 5046.56 2761.97 5064.89 2767.21C5075.28 2770.18 5081.84 2758.49 5092.81 2758.49C5122.04 2758.49 5173.14 2809.15 5190.52 2826.54C5200.16 2816.9 5205.16 2803.18 5214.95 2793.38C5238.69 2769.64 5232.38 2814.36 5255.08 2768.96C5249.6 2763.48 5273.43 2663.2 5276.02 2645.07C5286.27 2573.3 5297.41 2509.75 5309.17 2439.18C5312.9 2416.78 5330.23 2356.05 5326.62 2337.98C5321.14 2310.6 5295.65 2276.08 5274.27 2259.46C5218.53 2216.1 5111.34 2237.51 5064.89 2289.12C5062.14 2292.18 5062.66 2299.31 5061.4 2303.08C5051.54 2332.66 5038.57 2362.69 5024.76 2390.32C5011.69 2416.46 4986.1 2434.22 4965.43 2454.88C4948.41 2471.91 4927.1 2469.86 4907.85 2477.56C4902.81 2479.58 4903.3 2487.05 4897.38 2488.03C4868.33 2492.88 4844.53 2495.92 4813.63 2495.01C4801.97 2494.67 4761.53 2485.08 4759.54 2495.01C4758.78 2498.83 4811.6 2581.97 4817.12 2587.49C4825.9 2596.27 4850.81 2584.54 4862.49 2596.21Z" fill="#a9ca53" fill-rule="nonzero" opacity="1" stroke="none"/>
<path d="M4447.21 2566.55C4438.91 2572.09 4393.97 2597.91 4387.89 2585.75C4377.99 2565.95 4391.38 2541.57 4391.38 2519.44C4391.38 2508.72 4386.46 2515.63 4393.12 2508.97C4385.79 2497.98 4354.83 2492.75 4342.52 2484.54C4376.62 2450.44 4432.71 2439.72 4462.91 2409.51C4450.54 2397.14 4457.89 2389.38 4457.68 2365.89C4457.21 2313.55 4456.9 2261.2 4455.94 2208.86C4453.84 2095.51 4450.7 1984.8 4450.7 1870.35C4450.7 1762.68 4452.45 1655.4 4452.45 1547.55C4452.45 1536.49 4452.68 1525.29 4450.7 1514.4C4450.21 1511.68 4441.72 1502.93 4440.23 1500.44C4424.79 1474.71 4404.52 1446.98 4389.63 1420.18C4332.09 1316.61 4248.05 1215.66 4181.99 1116.57C4159.52 1082.86 4141.07 1050.96 4115.69 1017.12C4110.23 1009.84 4103.4 989.162 4096.49 985.71C4085.42 980.171 4030.87 1056.35 4019.72 1071.21C3946.78 1168.46 3865.37 1260.62 3787.65 1353.88C3749.61 1399.53 3711.65 1445.91 3675.98 1493.46C3660.35 1514.32 3640.24 1533.55 3628.87 1556.28C3612.63 1588.77 3573.45 1612.16 3553.84 1643.52C3553.23 1644.51 3553.85 1645.85 3553.84 1647.01C3553.27 1725.53 3552.95 1804.05 3552.1 1882.57C3549.9 2084.9 3547.34 2287.4 3548.61 2489.78C3549.38 2612.5 3552.1 2735.22 3552.1 2857.94C3552.1 2910.87 3550.35 2963.79 3550.35 3016.73C3550.35 3017.65 3552.8 3024.23 3553.84 3025.45C3571.36 3045.89 3620.28 3032.26 3637.6 3030.68C3682.65 3026.59 3727.07 3023.7 3771.95 3023.7C3778.51 3023.7 3787.97 3017.24 3792.89 3016.73C3802.72 3015.69 3812.84 3018.58 3822.55 3016.73C3825.78 3016.11 3826.25 3010.04 3829.53 3009.75C3917.71 3001.91 3988.07 3006.79 4082.54 3002.77C4085.82 3002.63 4086.24 2996.08 4089.51 2995.79C4157.68 2989.73 4228.45 2989.24 4297.15 2985.32C4328.14 2983.55 4423.58 2978.01 4438.49 2955.66C4445.47 2945.18 4446.94 2934.51 4447.21 2920.76C4447.77 2892.26 4448.4 2863.76 4448.96 2835.26C4449.14 2825.93 4450.7 2816.68 4450.7 2807.34C4450.7 2763.14 4450.7 2718.94 4450.7 2674.73C4450.7 2641.76 4452.45 2607.1 4452.45 2573.53C4452.45 2571.05 4448.48 2567.82 4447.21 2566.55Z" fill="#fbba3a" fill-rule="nonzero" opacity="1" stroke="none"/>
<path d="M3191.98 851.397C3191.24 850.654 3191.04 851.45 3190.6 851.358C3189.46 851.124 3188.95 851.781 3188.53 852.361C3188.09 852.978 3187.74 852.63 3185.99 854.661C3184.76 856.096 3183.6 856.62 3182.43 857.894C3182.23 858.111 3183.72 859.772 3183.41 859.941C3182.95 860.185 3182.35 860.372 3181.56 860.485C3175.18 861.396 3180.62 863.733 3176.39 862.01C3175.26 861.551 3173.17 858.38 3162.61 868.353C3149.47 877.34 3132.63 887.028 3125.31 895.099C3107.5 914.713 3102 912.351 3082.73 931.62C3078.59 942.307 3065.72 965.703 3058.3 975.241C3031.84 1009.27 3004.52 1042.13 2976.3 1074.7C2902 1160.43 2828.58 1246.75 2754.7 1332.94C2716.63 1377.35 2664.2 1419.71 2637.79 1472.53C2645.07 1479.8 2650.17 1489.5 2658.73 1495.21C2668.42 1501.67 2681.98 1496.95 2693.63 1496.95C2727.82 1496.95 2762.42 1493.52 2796.57 1491.72C2889.03 1486.85 2981.64 1485.66 3074.01 1479.51C3170.5 1473.07 3266.91 1463.53 3363.65 1458.57C3389.34 1457.25 3485.73 1459.48 3506.73 1446.35C3522.69 1436.38 3538.35 1406.44 3550.35 1392.26C3590.86 1344.4 3624.66 1291.1 3663.77 1242.2C3795.74 1077.24 3927.78 911.965 4061.6 748.41C4104.53 695.94 4147.82 643.805 4190.72 591.372C4205.05 573.855 4219.09 549.771 4237.83 537.282C4227.38 521.617 4190.18 541.532 4176.76 546.006C4149.72 555.019 4117.65 554.798 4089.51 563.455C4059.36 572.732 4016.23 585.919 3986.57 589.627C3859.06 605.566 3728.82 638.651 3599.21 655.932C3566.24 660.327 3534.62 672.163 3504.99 675.126C3471.96 678.429 3437.81 679.589 3403.79 685.595C3389.22 688.165 3371.07 698.312 3354.93 699.554C3341 700.625 3327.02 701.298 3313.05 701.298C3309.92 701.298 3306.72 695.789 3304.33 697.809C3248.32 745.067 3233.22 789.54 3191.98 851.397Z" fill="#494d62" fill-rule="nonzero" opacity="1" stroke="none"/>
<path d="M5141.66 1919.21C5131.34 1929.54 5087.8 1935.75 5071.87 1936.66C5045.37 1938.17 5024.32 1940.96 5002.08 1931.42C4975.44 1920.01 4983.62 1892.45 4970.67 1872.1C4942.76 1828.25 4883.52 1795.31 4831.08 1802.3C4751.96 1812.85 4704.83 1876.03 4684.51 1947.13C4682.91 1952.73 4674.85 1962.42 4674.04 1968.07C4670.14 1995.38 4675.69 2024.4 4670.55 2051.82C4667.99 2065.47 4642.25 2048.72 4632.17 2058.8C4641.15 2070.78 4646.49 2100.31 4635.66 2111.14C4618.78 2098.49 4593.81 2085 4579.82 2071.01C4573.84 2065.03 4569.85 2051.23 4560.63 2050.07C4527.83 2045.97 4512.19 2101.1 4532.71 2121.61C4524.98 2133.21 4488.38 2123.36 4482.11 2123.36C4471.87 2123.36 4464.76 2133.86 4454.19 2130.34C4454.19 2112.99 4457.89 2118.34 4450.7 2111.14C4440.78 2121.06 4450.39 2190.58 4450.7 2207.11C4451.67 2259.45 4451.51 2311.81 4452.45 2364.15C4452.67 2376.96 4453.13 2389.77 4454.19 2402.54C4454.45 2405.64 4459.93 2410.02 4461.17 2411.26C4546.2 2368.75 4623.1 2308.57 4700.22 2250.73C4753.31 2210.91 4812.59 2193.58 4862.49 2154.77C4931.02 2101.46 4955.71 2029.14 5047.44 2029.14C5074.13 2029.14 5107.61 2058.32 5120.73 2077.99C5127.56 2088.24 5119.02 2100.71 5127.71 2109.4C5133.42 2103.68 5127.26 2095.66 5134.68 2091.95C5144.5 2087.04 5166.48 2106.1 5173.07 2107.65C5183.28 2110.06 5194.1 2107.92 5204.48 2109.4C5212.06 2110.48 5257.08 2117.2 5249.85 2126.85C5234.62 2147.14 5197.97 2143.19 5174.82 2154.77C5164.99 2159.68 5156.88 2169.05 5146.9 2175.7C5162.61 2191.42 5186.08 2178.72 5202.73 2173.96C5215.33 2170.36 5236.86 2172.34 5248.1 2170.47C5268.16 2167.13 5289.96 2160 5312.66 2160C5320.61 2160 5335.45 2176.7 5340.58 2182.68C5347.4 2190.64 5342.32 2203.61 5342.32 2214.09C5342.32 2242.86 5335.8 2276.37 5330.11 2304.82C5307.52 2417.76 5290.51 2529.68 5274.27 2643.33C5271.29 2664.19 5245.34 2762.7 5253.34 2770.7C5261.58 2762.45 5263.29 2740.05 5276.02 2735.8C5299.09 2728.11 5329.21 2754.53 5342.32 2768.96C5351.83 2779.41 5338.05 2799.58 5349.3 2810.83C5353.74 2806.39 5355.17 2745.49 5359.77 2727.08C5365.9 2702.57 5378.88 2676.88 5384.2 2650.31C5405.38 2544.4 5406.28 2434.77 5415.61 2327.51C5419.59 2281.75 5419.67 2238.92 5420.84 2193.15C5420.98 2187.89 5423.86 2182.56 5422.59 2177.45C5412.06 2135.35 5363.48 2103.3 5352.79 2060.54C5348.86 2044.83 5333.16 2024.34 5347.56 2009.94C5359.08 2021.46 5369.97 2038.32 5378.97 2051.82C5381.58 2050.07 5381.58 2050.07 5384.2 2048.33C5401.39 2065.52 5414.23 2050.17 5434.8 2055.31C5453.26 2059.92 5460.91 2102.36 5473.19 2114.63C5498.57 2097.71 5521.65 2076.18 5541.24 2050.07C5542.98 2051.82 5542.98 2051.82 5544.73 2053.56C5536.79 2061.5 5523.98 2136.16 5523.79 2146.04C5523.24 2174.54 5522.04 2203.03 5522.04 2231.54C5522.04 2238.81 5527.83 2246.05 5532.51 2250.73C5555.24 2239.37 5605.34 2199.44 5623.25 2226.3C5623.83 2058.22 5625.57 1890.13 5624.99 1722.04C5624.95 1711.15 5613.46 1694.59 5611.03 1683.65C5600.28 1635.27 5592.45 1578.43 5570.9 1535.34C5564.71 1522.95 5544.22 1496.29 5529.02 1495.21C5498.75 1493.05 5471.36 1493.77 5441.78 1498.7C5436.5 1499.58 5430.92 1507.35 5426.08 1509.17C5344.72 1539.68 5276.52 1616.37 5211.46 1674.93C5163.12 1718.43 5094.55 1767.67 5094.55 1838.95C5094.55 1869.2 5129.33 1894.55 5141.66 1919.21Z" fill="#fa9f53" fill-rule="nonzero" opacity="1" stroke="none"/>
<path d="M4230.85 539.027C4144.49 625.389 4068.33 734.761 3991.8 830.418C3892.54 954.495 3790.89 1076.32 3691.69 1200.33C3647.44 1255.64 3605.08 1312.89 3562.57 1369.58C3552.6 1382.87 3520.04 1434.88 3506.73 1442.86C3500.23 1446.76 3491.58 1443.72 3484.05 1444.61C3444.63 1449.25 3405.01 1451.3 3365.4 1453.33C3273.44 1458.05 3181.38 1465.19 3089.71 1472.53C2981.76 1481.16 2873.33 1482.05 2765.17 1488.23C2728.49 1490.33 2664.18 1511.2 2637.79 1476.02C2603.94 1507.62 2578.69 1552.53 2636.05 1575.47C2666.75 1587.75 2711.9 1566.6 2738.99 1565C2757.57 1563.91 2776.25 1566.1 2794.83 1565C2816.34 1563.74 2837.87 1562.68 2859.39 1561.51C2871.12 1560.88 2890.55 1549.3 2903.01 1549.3C2935.02 1549.3 2966.97 1552.79 2998.98 1552.79C3156.1 1552.79 3314.96 1528.6 3471.83 1519.64C3495.09 1518.31 3548.84 1524.26 3571.29 1507.42C3650.32 1448.15 3706.67 1361.28 3766.72 1284.08C3825.35 1208.69 3891.18 1139.91 3951.67 1065.97C3999.47 1007.55 4050.75 945.274 4091.26 884.509C4109.15 857.673 4136.72 833.815 4159.31 811.224C4210.56 759.978 4249.21 695.671 4295.41 640.228C4307.6 652.418 4313.29 670.537 4323.33 685.595C4329.85 679.067 4334.85 671.515 4342.52 666.401C4346.88 670.763 4346.88 670.763 4351.24 675.126C4338.46 687.905 4336.49 684.645 4325.07 696.064C4340.18 711.168 4350.94 736.618 4363.46 755.389C4401.23 812.041 4434.45 871.613 4476.87 924.64C4482.91 918.601 4490.46 914.449 4497.81 908.937C4522.77 933.895 4538.55 975.676 4557.14 1006.65C4590.25 1061.84 4626.51 1110.5 4654.85 1167.18C4672.11 1201.7 4701.93 1229.49 4721.15 1263.14C4754.56 1321.6 4797.93 1387.03 4846.78 1435.88C4860.89 1449.99 4882.97 1444.16 4895.64 1456.82C4915.71 1436.76 4888.3 1408.58 4874.7 1392.26C4834.66 1344.21 4804.87 1291 4770.01 1238.71C4673.86 1094.49 4584.45 951.555 4496.07 804.245C4468 757.473 4440.28 711.264 4412.31 664.656C4395.62 636.828 4379.29 605.464 4356.48 582.648C4345.8 571.974 4352.69 564.904 4344.26 556.475C4327.93 572.808 4351.9 599.879 4314.6 612.311C4272.53 626.333 4259.94 550.646 4270.98 528.557C4277.25 516.019 4294.76 516.989 4304.13 507.619C4295.08 498.568 4272.58 504.802 4264 505.874C4217.93 511.633 4172.88 518.635 4127.9 526.813C3971.84 555.187 3815.45 581.277 3660.28 612.311C3566.8 631.007 3476.17 644.199 3382.85 661.167C3382.53 661.225 3280.63 677.599 3304.33 701.298C3315.87 712.843 3336.86 704.788 3353.18 704.788C3370.14 704.788 3388.67 690.974 3403.79 689.084C3425.45 686.376 3453.24 680.649 3473.58 678.615C3545.96 671.377 3624.06 652.381 3696.92 641.973C3747.85 634.698 3804.76 618.678 3855.7 612.311C3870.94 610.406 3886.06 613.323 3901.07 608.821C3943.49 596.096 3989.07 586.934 4031.93 582.648C4085.61 577.281 4136.48 554.464 4187.23 546.006C4198.11 544.192 4222.41 530.592 4230.85 539.027Z" fill="#f86c4d" fill-rule="nonzero" opacity="1" stroke="none"/>
<path d="M2055.01 1414.95C2054.14 1688.89 2054.14 1688.89 2053.27 1962.83C2055.88 1961.96 2055.88 1961.96 2058.5 1961.09C2058.5 1953.21 2101.69 1933.74 2112.59 1919.21C2114.34 1920.08 2114.34 1920.08 2116.08 1920.95C2123.66 1913.37 2118.15 1863.87 2119.57 1856.39C2120.56 1851.2 2141.61 1836.1 2145.74 1831.97C2171.9 1858.13 2177.93 1870.53 2208.56 1877.33C2220.87 1880.07 2201.78 1882.3 2215.54 1886.06C2228.21 1889.51 2241.9 1887.02 2253.92 1893.04C2263.43 1883.53 2269.37 1874.22 2276.61 1863.37C2283.76 1870.52 2283.76 1871.93 2276.61 1879.08C2283.49 1889.4 2280.16 1904.2 2287.08 1915.72C2291.21 1922.61 2298.32 1926.76 2301.03 1934.91C2311.44 1934.91 2312.15 1941.74 2320.23 1943.64C2343.29 1949.06 2340.61 1943.27 2356.87 1954.11C2375.28 1935.69 2390.76 1913.09 2407.47 1893.04C2413.11 1898.68 2427.81 1929.27 2426.66 1938.4C2423.77 1961.52 2395.79 1971.82 2430.15 1989C2482.16 2015 2590.56 2028.03 2643.03 2025.65C2647.82 2025.43 2652.33 2023.32 2656.99 2022.16C2712.49 2008.28 2726.78 1953.82 2726.78 1903.51C2726.78 1897.71 2724.96 1884.77 2721.55 1879.08C2694.9 1834.66 2660.76 1825.51 2622.09 1802.3C2594.97 1786.03 2557.49 1805.71 2541.83 1774.39C2572.92 1743.29 2544.45 1658.73 2517.4 1627.82C2510.62 1620.07 2504 1612.14 2496.46 1605.14C2492.4 1601.37 2478.71 1604.66 2477.27 1598.16C2470.76 1568.9 2473.76 1535.88 2461.56 1507.42C2436.99 1450.1 2381.34 1359.3 2316.74 1339.92C2262.38 1323.61 2201.11 1340.39 2161.45 1380.05C2150.37 1391.12 2139.51 1430.33 2126.55 1435.88C2123.09 1437.36 2064.36 1415.88 2055.01 1414.95Z" fill="#fa9f53" fill-rule="nonzero" opacity="1" stroke="none"/>
<path d="M4443.72 1413.2C4454.81 1435.37 4430.95 1469.28 4452.45 1486.48C4459.97 1492.51 4473.69 1488.64 4482.11 1488.23C4503.67 1487.18 4525.11 1484.13 4546.67 1482.99C4618.76 1479.2 4693.73 1481.19 4763.03 1472.53C4809.7 1466.69 4859.45 1486.69 4897.38 1455.08C4887.59 1445.28 4873.73 1446.76 4860.74 1442.86C4843.39 1437.66 4833.42 1419.03 4820.61 1406.22C4781.07 1366.68 4754.65 1308.15 4724.64 1263.14C4703.86 1231.96 4673.26 1202 4658.34 1167.18C4631.19 1103.83 4585.94 1044.62 4546.67 985.71C4529.91 960.575 4519.87 924.016 4499.56 903.702C4492.5 910.759 4484.81 915.198 4476.87 921.151C4457.75 902.027 4437.94 867.718 4426.27 844.377C4408.34 808.52 4377.33 776.184 4356.48 741.43C4347.97 727.257 4339.58 707.082 4328.56 696.064C4336.29 688.332 4349.05 686.498 4354.73 675.126C4348.53 668.919 4350.42 663.835 4344.26 657.677C4337.57 664.372 4331.4 671.578 4325.07 678.615C4312.14 665.688 4310.96 647.785 4297.15 636.739C4292.01 632.62 4273.65 663.059 4270.98 666.401C4243.03 701.335 4215.55 736.476 4187.23 771.093C4174.99 786.045 4123.32 838.703 4129.65 851.356C4149.75 891.573 4172.02 929.44 4194.21 968.262C4200.35 979.016 4212.95 987.852 4216.89 999.669C4231.1 1042.29 4267.16 1093.8 4297.15 1128.79C4330.33 1167.49 4349.09 1215.26 4382.65 1254.42C4407.96 1283.94 4435.74 1330.15 4440.23 1366.09C4441.9 1379.43 4453.11 1403.81 4443.72 1413.2Z" fill="#f94728" fill-rule="nonzero" opacity="1" stroke="none"/>
<path d="M2297.55 3590.78C2310.81 3604.05 2358.62 3602.59 2370.83 3603C2391.65 3603.69 2410.99 3613.09 2428.41 3616.96C2473.32 3626.94 2515.95 3635.25 2559.27 3643.13C2659.72 3661.39 2755.78 3711.01 2854.16 3735.61C2917.1 3751.34 2977.71 3773.54 3037.37 3791.44C3065.18 3799.79 3094.3 3801.67 3122.86 3812.38C3143 3819.93 3163.63 3831.79 3183.93 3838.55C3221.47 3851.07 3263.02 3842.04 3302.58 3842.04C3339.87 3842.04 3384.3 3838.76 3421.23 3835.06C3424.94 3834.69 3426.28 3828.65 3429.96 3828.08C3436.95 3827.01 3445.89 3829.6 3450.9 3824.59C3445.49 3819.19 3435.69 3822.71 3428.21 3821.11C3410.53 3817.32 3403.97 3797.12 3403.79 3780.97C3402.68 3685.59 3403.76 3590.19 3402.04 3494.82C3402.01 3493.17 3400.18 3491.54 3398.55 3491.33C3362.31 3486.49 3324.82 3496.56 3288.62 3496.56C3216.57 3496.56 3143.95 3503.54 3072.26 3503.54C2984.06 3503.54 2896.61 3516.47 2808.79 3526.22C2720.82 3536 2633.6 3541.58 2547.06 3552.4C2483.5 3560.34 2418.29 3560.11 2355.13 3571.59C2338.66 3574.58 2305.77 3574.34 2297.55 3590.78Z" fill="#61b469" fill-rule="nonzero" opacity="1" stroke="none"/>
<path d="M4129.65 835.652C4066.84 898.458 4018.8 977.529 3962.14 1046.78C3896.98 1126.42 3826.4 1201.12 3763.23 1282.34C3704.81 1357.45 3649.37 1448.16 3571.29 1503.93C3546.13 1521.91 3451.21 1514.66 3422.98 1516.15C3296.6 1522.8 3170.73 1538.59 3044.34 1545.81C3007.74 1547.9 2971.08 1549.3 2934.42 1549.3C2905.04 1549.3 2907.15 1541.8 2889.05 1556.28C2893.74 1565.66 2890.95 1577.2 2890.8 1587.69C2890.35 1617.35 2889.05 1647.01 2889.05 1676.67C2889.05 1702.29 2890.65 1727.9 2892.54 1753.45C2893.12 1761.24 2889.76 1769.86 2896.03 1776.13C2915.6 1756.57 2947.1 1752.98 2962.34 1737.74C2964.95 1739.49 2964.95 1739.49 2967.57 1741.23C2995.13 1713.68 2972.51 1715.71 3028.64 1715.06C3121.11 1713.99 3213.6 1714.34 3306.07 1713.32C3318.88 1713.17 3331.88 1713.99 3344.46 1711.57C3347.69 1710.95 3348.18 1705.01 3351.44 1704.59C3368.17 1702.43 3386.95 1712.14 3402.04 1704.59C3425.42 1692.9 3451.97 1691.57 3477.07 1680.16C3486.23 1676 3525.24 1650.16 3532.9 1653.99C3539.5 1657.29 3538.14 1677.43 3538.14 1685.4C3538.14 1721.25 3538.14 1753.1 3538.14 1788.35C3538.14 1910.55 3536.57 2045.04 3538.14 2170.47C3540.74 2378.85 3540.27 2586.82 3541.63 2795.13C3542.13 2871.95 3539.88 2948.61 3539.88 3025.45C3539.88 3033.65 3551.01 3034.6 3546.86 3042.9C3548.03 3044.06 3548.71 3046.31 3550.35 3046.39C3573.59 3047.49 3596.89 3046.87 3620.15 3046.39C3632.58 3046.13 3657.73 3045.45 3667.26 3035.92C3642.24 3010.9 3580.24 3054.08 3557.33 3025.45C3555.03 3022.57 3555.62 3021.79 3555.59 3018.47C3555.02 2965.54 3553.84 2912.62 3553.84 2859.69C3553.84 2736.97 3555.37 2614.24 3553.84 2491.52C3551.33 2289.52 3551.64 2086.69 3553.84 1884.31C3554.7 1805.8 3554.45 1727.27 3555.59 1648.76C3555.61 1646.92 3556.23 1644.99 3557.33 1643.52C3607.28 1576.92 3663.08 1514.67 3716.12 1449.84C3766.73 1387.98 3813.26 1322.8 3864.43 1261.4C3918.3 1196.76 3977.62 1136.43 4026.7 1067.72C4049.4 1035.94 4076.59 1007.72 4098.24 975.241C4102 969.598 4116.93 947.721 4127.9 954.303C4145.94 965.124 4194.06 1048.23 4204.68 1069.46C4229.84 1119.8 4273.81 1169.2 4307.62 1214.29C4338.22 1255.08 4365.18 1303.69 4398.35 1345.15C4404.77 1340.02 4418.9 1329.45 4422.78 1322.47C4427.68 1313.65 4414.05 1299.76 4410.57 1292.81C4397.11 1265.88 4376.24 1237.25 4356.48 1212.54C4330.96 1180.65 4313.6 1141.06 4288.43 1109.6C4260.92 1075.21 4235.95 1038.58 4220.38 999.669C4215.67 987.901 4203.44 979.757 4197.7 968.262C4181.89 936.648 4166.09 909.51 4147.1 881.019C4139.53 869.668 4138.63 844.637 4129.65 835.652Z" fill="#e66429" fill-rule="nonzero" opacity="1" stroke="none"/>
<path d="M5241.12 2789.89C5215.91 2777.29 5202.76 2802.94 5190.52 2821.3C5162.34 2807.21 5141.01 2767.92 5110.26 2760.23C5103.5 2758.54 5094.64 2755 5087.57 2755C5077.55 2755 5077.25 2767.25 5064.89 2763.72C5047.72 2758.82 5043.7 2749.36 5017.78 2755C5015.59 2755.47 5003.04 2765.66 4996.84 2767.21C4984.45 2770.31 4955.43 2774.07 4951.47 2789.89C4948.8 2800.58 4973.61 2821.36 4979.39 2830.03C4967.3 2842.12 4929.74 2848.27 4935.77 2875.39C4939.06 2890.19 4983.99 2897.04 4979.39 2908.54C4974.16 2921.63 4934.16 2909.88 4928.79 2925.99C4921.52 2947.81 4940.5 2950.01 4949.73 2964.38C4955.25 2972.96 4934.12 3014.21 4935.77 3030.68C4938.25 3055.51 5028.57 3061.74 5040.46 3062.09C5059.08 3062.64 5077.69 3063.19 5096.3 3063.84C5272.3 3069.91 5447.2 3087.63 5623.25 3093.5C5624.12 2917.27 5624.12 2917.27 5624.99 2741.04C5596.15 2731.42 5528.49 2743.16 5518.55 2782.91C5516.07 2792.85 5528.25 2856.1 5518.55 2857.94C5507.7 2860.01 5496.35 2856.45 5485.4 2857.94C5477.24 2859.06 5476.02 2871.81 5464.46 2870.16C5448.63 2867.9 5442.57 2846.61 5424.33 2849.22C5415.24 2850.52 5413.45 2863.59 5408.63 2868.41C5391.25 2851.03 5453.22 2797.25 5406.88 2793.38C5392.64 2792.2 5394.21 2789.29 5385.94 2796.87C5380.18 2802.16 5374.47 2807.52 5368.5 2812.58C5362.81 2817.39 5356.7 2821.69 5351.05 2826.54C5344.43 2819.92 5349.59 2778.85 5349.3 2775.94C5347.43 2757.17 5297.77 2725.06 5276.02 2732.31C5255.54 2739.14 5253.53 2777.49 5241.12 2789.89Z" fill="#61b469" fill-rule="nonzero" opacity="1" stroke="none"/>
<path d="M3342.72 1706.34C3354.3 1717.92 3375.2 1710.97 3391.57 1711.57C3402.63 1711.98 3426.67 1740.09 3429.96 1749.96C3433.35 1760.13 3433.41 1792.43 3433.45 1793.58C3434.29 1822.07 3435.19 1850.57 3435.19 1879.08C3435.19 1932.38 3431.7 2005.86 3431.7 2062.29C3431.7 2215.25 3432.87 2368.22 3433.45 2521.19C3433.54 2544.45 3434.61 2567.74 3433.45 2590.98C3433.37 2592.62 3431.59 2594.25 3429.96 2594.47C3423.41 2595.34 3348.19 2602.95 3346.21 2604.94C3347.95 2606.68 3347.95 2606.68 3349.69 2608.43C3318.65 2639.47 3283.21 2663.09 3250.24 2692.18C3247.06 2694.99 3225.12 2719.4 3215.34 2721.84C3190.9 2727.95 3124.89 2707.6 3107.16 2725.33C3117.54 2735.72 3154.32 2732.41 3169.97 2734.06C3217.87 2739.1 3266.56 2743.8 3311.31 2749.76C3329.09 2752.13 3360.39 2746.1 3375.87 2758.49C3398.33 2776.46 3392.33 2815.48 3389.83 2840.49C3387.96 2859.14 3379.47 2879.62 3377.61 2896.33C3373.95 2929.3 3372.05 2963.19 3367.14 2997.53C3366.7 3000.67 3360.02 3010.56 3361.91 3014.98C3367.27 3027.5 3397.53 3022.66 3403.79 3023.7C3421.98 3026.74 3456.34 3032.66 3475.32 3034.17C3491.85 3035.5 3532.62 3030.4 3546.86 3044.64C3549.48 3042.9 3549.48 3042.9 3552.1 3041.15C3548.99 3036.49 3545.22 3032.88 3545.12 3027.19C3544.56 2996.95 3543.37 2966.71 3543.37 2936.46C3543.37 2889.92 3546.86 2843.42 3546.86 2796.87C3546.86 2727.08 3545.69 2657.28 3545.12 2587.49C3544.58 2521.19 3543.37 2454.88 3543.37 2388.58C3543.37 2316.46 3543.83 2244.33 3543.37 2172.21C3542.58 2046.52 3547.17 1910.21 3541.63 1788.35C3540.09 1754.44 3542.57 1719.29 3541.63 1685.4C3541.33 1674.76 3545.72 1656.04 3534.65 1650.5C3522.5 1644.43 3448.72 1691.69 3431.7 1694.12C3415.27 1696.47 3343.4 1705.65 3342.72 1706.34Z" fill="#fa8d33" fill-rule="nonzero" opacity="1" stroke="none"/>
<path d="M2283.59 2289.12C2296.59 2315.13 2284.06 2347.29 2283.59 2376.36C2282.56 2439.75 2281.24 2503.2 2283.59 2566.55C2284.15 2581.76 2278.06 2601.15 2288.82 2611.92C2305.14 2595.6 2283.14 2574.63 2309.76 2561.32C2348.74 2541.83 2387.93 2557.09 2431.9 2554.34C2441.06 2553.77 2449.03 2537.56 2459.82 2536.89C2490.36 2534.98 2528.93 2529.41 2559.27 2531.65C2587.96 2533.78 2594.15 2571.82 2583.7 2592.72C2593.62 2602.64 2608.55 2634.36 2618.6 2639.84C2621.15 2641.23 2624.6 2640.86 2627.32 2639.84C2636.91 2636.24 2654.19 2601.11 2660.48 2592.72C2669.71 2580.41 2682.13 2578.05 2691.88 2568.3C2681.31 2556.76 2670.78 2545.18 2660.48 2533.4C2673.66 2520.21 2697.74 2528.22 2716.31 2529.91C2721.6 2530.39 2724.3 2536.89 2732.01 2536.89C2766.11 2536.89 2794.17 2510.5 2827.98 2503.74C2849.25 2499.48 2882.19 2507.19 2897.78 2501.99C2897.78 2415.91 2898.35 2329.83 2897.78 2243.75C2897.65 2224.58 2883.19 2210.54 2871.6 2193.15C2781.69 2058.28 2645.82 2203.36 2569.74 2269.93C2543.8 2292.62 2519.35 2322.95 2489.48 2336.23C2475.75 2342.33 2449.61 2305.89 2445.86 2303.08C2416.81 2281.29 2300.81 2271.89 2283.59 2289.12Z" fill="#fce561" fill-rule="nonzero" opacity="1" stroke="none"/>
<path d="M3091.46 1027.59C3077.88 1041.17 3068.22 1039.37 3049.58 1058.99C2972.26 1140.39 2901.69 1228.51 2824.49 1310.25C2802.13 1333.93 2778.81 1356.58 2758.19 1381.79C2755.09 1385.58 2734.04 1407.02 2738.99 1414.95C2747.56 1428.65 2766.69 1428.36 2780.87 1428.9C2805.29 1429.84 2829.73 1431.2 2854.16 1430.65C2902.9 1429.54 2956.97 1420.97 3007.7 1418.44C3044.35 1416.6 3087.21 1409.71 3122.86 1409.71C3190.77 1409.71 3275.35 1408.67 3340.97 1392.26C3360.09 1387.48 3390.14 1402.55 3407.28 1392.26C3462.67 1359.02 3503.95 1281.44 3546.86 1233.48C3570.77 1206.76 3600.42 1180.46 3616.66 1147.98C3614.91 1146.24 3614.91 1146.24 3613.17 1144.49C3553.84 1196.4 3507.1 1267.47 3456.13 1327.7C3443.31 1342.85 3425.35 1376.24 3407.28 1376.56C3370.63 1377.2 3333.71 1373.76 3297.35 1378.3C3277.88 1380.74 3195.01 1394.62 3187.42 1387.03C3263.82 1310.63 3341.44 1234.75 3417.74 1158.45C3440.83 1135.37 3453.99 1104.76 3477.07 1081.68C3505.94 1052.81 3577.1 1088.08 3609.68 1055.5C3589.38 1035.2 3510.23 1065.98 3492.77 1048.53C3513.71 1027.58 3533.55 1005.53 3553.84 983.965C3545.42 978.351 3477.9 996.904 3463.11 997.924C3369.24 1004.4 3272.47 1018.67 3180.44 1022.35C3162.11 1023.09 3104.69 1040.83 3091.46 1027.59Z" fill="#c6d1dc" fill-rule="nonzero" opacity="1" stroke="none"/>
<path d="M3510.22 3126.65C3510.22 3145.68 3496.98 3244.34 3518.95 3257.52C3522.47 3259.63 3556.08 3255.91 3559.08 3255.77C3596.77 3253.98 3634.91 3250.18 3672.49 3247.05C3695.45 3245.13 3719.65 3244.59 3742.29 3240.07C3745.94 3239.34 3747.29 3233.3 3751.01 3233.09C3852.48 3227.23 3954.64 3224.63 4056.36 3219.13C4117.42 3215.83 4178.5 3213.46 4239.57 3210.4C4263.01 3209.23 4275.35 3218.23 4281.45 3199.94C4325.65 3199.94 4369.86 3200.44 4414.06 3199.94C4460.87 3199.4 4536.22 3201.09 4576.33 3187.72C4603.74 3178.59 4679.65 3185.83 4708.94 3182.49C4755.01 3177.22 4802.08 3174.9 4852.02 3173.76C4867.26 3173.42 4887.66 3173.39 4900.87 3166.78C4919.25 3157.6 4918.42 3072.24 4906.11 3056.86C4900.62 3050 4893.78 3050.78 4885.17 3049.88C4875.84 3048.9 4866.62 3053.03 4857.25 3053.37C4810.75 3055.05 4764.19 3052.88 4717.66 3053.37C4680.19 3053.76 4641.24 3063.04 4605.99 3063.84C4555.4 3064.97 4504.78 3062.7 4454.19 3063.84C4353.18 3066.11 4246.16 3083.51 4145.35 3090.01C4073.99 3094.61 4002.11 3092.12 3930.73 3096.99C3910.97 3098.34 3877 3106.81 3859.19 3107.46C3782.39 3110.25 3709.28 3113.4 3632.36 3117.93C3596.14 3120.06 3545.74 3114.81 3510.22 3126.65Z" fill="#f86c4d" fill-rule="nonzero" opacity="1" stroke="none"/>
<path d="M2688.39 2566.55C2681.97 2576.19 2665.58 2583.17 2656.99 2592.72C2650.32 2600.14 2636.14 2630.01 2625.58 2636.35C2617.86 2640.98 2602.12 2609.77 2597.66 2604.94C2582.33 2588.33 2594.17 2584.29 2594.17 2563.06C2594.17 2555.7 2571.63 2535.28 2571.49 2535.14C2568.52 2532.18 2565.19 2528.61 2561.02 2528.17C2529.43 2524.78 2491.39 2531.43 2459.82 2533.4C2448.98 2534.08 2441.61 2549.55 2431.9 2550.85C2404.11 2554.55 2375.67 2543.87 2348.15 2543.87C2340.93 2543.87 2338.58 2551.37 2332.44 2552.59C2319.05 2555.27 2294.09 2560.56 2288.82 2577.02C2285.63 2586.99 2289.86 2598.01 2288.82 2608.43C2285.35 2643.17 2284.79 2678.21 2285.33 2713.12C2285.45 2721.13 2286.6 2730.09 2292.31 2735.8C2292.65 2735.46 2311.08 2708.97 2313.25 2707.89C2329 2700.01 2332 2714.87 2346.4 2714.87C2359.87 2714.87 2373.12 2702.65 2388.28 2702.65C2398.8 2702.65 2388.26 2706.48 2398.75 2709.63C2405.23 2711.57 2409.57 2707.19 2414.45 2711.38C2422.1 2717.93 2463.98 2828.82 2466.8 2845.73C2468.32 2854.86 2508.1 2873.1 2512.16 2889.35C2523.03 2932.84 2468.34 2927.54 2505.18 2964.38C2523.36 2946.2 2560.87 2951.44 2585.45 2950.42C2609.28 2949.43 2633.19 2950.34 2656.99 2948.68C2670.61 2947.73 2636.89 2911.03 2636.05 2906.8C2629.04 2871.75 2648.73 2866.2 2669.2 2845.73C2656.92 2833.45 2632.78 2855.18 2625.58 2831.77C2615.97 2800.55 2687.01 2787.65 2707.59 2786.4C2721.53 2785.56 2735.49 2784.66 2749.46 2784.66C2754.75 2784.66 2769.1 2789.58 2773.89 2791.64C2786.42 2797.01 2817.72 2812.3 2807.04 2826.54C2815.8 2835.3 2824.33 2830.42 2836.71 2833.52C2851.39 2837.19 2879.34 2861.7 2887.31 2873.65C2910.35 2850.61 2884.86 2804.56 2908.25 2781.17C2897.92 2770.84 2897.94 2753.76 2897.78 2742.78C2896.63 2663.69 2899.48 2584.56 2897.78 2505.48C2897.72 2503.01 2894.81 2501.22 2892.54 2500.25C2868.58 2489.98 2801.47 2499.47 2780.87 2515.95C2773.57 2521.8 2754.63 2533.4 2744.23 2533.4C2733.02 2533.4 2724.36 2527.11 2716.31 2526.42C2697.77 2524.83 2679.06 2525.33 2660.48 2526.42C2658.83 2526.52 2657.6 2528.38 2656.99 2529.91C2654.18 2536.92 2679.24 2556.56 2688.39 2566.55Z" fill="#a9ca53" fill-rule="nonzero" opacity="1" stroke="none"/>
<path d="M3206.62 1353.88C3204.87 1351.26 3204.87 1351.26 3203.13 1348.64C3219.88 1331.89 3229.34 1310.82 3245 1292.81C3291.16 1239.73 3343.9 1192.17 3393.32 1142.75C3408.77 1127.29 3421.75 1109.75 3438.68 1095.64C3437.81 1093.89 3437.81 1093.89 3436.94 1092.15C3445.11 1083.97 3446.88 1075.4 3452.64 1067.72C3468.13 1047.07 3493.78 1030.24 3513.71 1013.63C3504.39 999.644 3468.35 1010.94 3456.13 1011.88C3402.39 1016.02 3349.1 1023.13 3295.6 1027.59C3242.21 1032.04 3189.32 1038.7 3136.82 1046.78C3118.41 1049.61 3088.98 1044.81 3074.01 1055.5C3047.36 1074.54 3026.29 1102.86 3004.21 1127.04C2955.89 1179.97 2908.07 1233.41 2861.13 1287.57C2834.15 1318.71 2808.27 1349.16 2779.13 1378.3C2778.73 1378.7 2753.05 1402.93 2756.44 1409.71C2759.3 1415.42 2778.35 1414.8 2782.62 1414.95C2811.69 1415.95 2840.78 1417.25 2869.86 1416.69C2876.47 1416.56 2892.77 1410.05 2899.52 1409.71C2943.36 1407.52 2982 1409.27 3025.15 1404.48C3069.6 1399.54 3114.85 1403.2 3157.76 1394.01C3173.75 1390.58 3191.47 1363.97 3206.62 1353.88Z" fill="#2c4475" fill-rule="nonzero" opacity="1" stroke="none"/>
<path d="M3775.44 3432C3741.86 3434.8 3726.08 3446.71 3696.92 3456.43C3696.92 3460.66 3693.46 3464.41 3693.43 3468.64C3692.86 3551.82 3692.9 3635.02 3695.18 3718.16C3695.24 3720.63 3697.96 3723.07 3700.41 3723.39C3747.58 3729.55 3794.5 3709.75 3838.26 3705.94C3878.28 3702.46 3918.33 3705.96 3958.65 3702.45C3968.65 3701.59 3986.06 3695 3998.78 3693.73C4080.15 3685.59 4161.76 3681.35 4243.06 3672.79C4279.71 3668.93 4333.06 3672.39 4366.95 3658.83C4374.33 3655.88 4388.09 3648.71 4394.87 3648.36C4443.51 3645.89 4482.85 3651.7 4525.73 3643.13C4534.51 3641.37 4561.12 3643.57 4565.86 3630.92C4573.71 3609.99 4535.05 3608.18 4525.73 3603C4493.71 3585.21 4437.92 3583.13 4400.1 3576.83C4356.31 3569.53 4303.29 3551.16 4258.77 3538.44C4213.56 3525.52 4166.61 3517.18 4120.92 3507.03C4088.83 3499.9 4054.16 3485.28 4023.21 3480.86C4005.35 3478.31 3982.95 3475.72 3965.63 3470.39C3918.66 3455.94 3868.03 3438.99 3775.44 3432Z" fill="#5da550" fill-rule="nonzero" opacity="1" stroke="none"/>
<path d="M2527.87 2948.68C2488.52 2961.79 2501.6 2993.78 2503.44 3032.43C2504.44 3053.45 2496.79 3064.35 2512.16 3077.8C2530.3 3093.67 2574.79 3090.25 2595.92 3093.5C2604.84 3094.87 2620.23 3102.79 2629.07 3103.97C2663.46 3108.55 2700.34 3119.23 2733.76 3123.16C2759.71 3126.21 2786.34 3125.28 2812.28 3130.14C2815.94 3130.83 2817.35 3136.39 2821 3137.12C2865.97 3146.12 2918.26 3158.77 2962.34 3166.78C2994.94 3172.71 3028.82 3173.41 3061.79 3180.74C3141.1 3198.37 3230.79 3222.46 3314.8 3226.11C3345.13 3227.43 3371.79 3238.81 3400.3 3243.56C3420.91 3246.99 3444.95 3246.93 3466.6 3250.54C3480.63 3252.88 3501.86 3259.78 3515.46 3257.52C3522.47 3256.35 3512.49 3208.68 3511.97 3203.43C3510.8 3191.76 3511.52 3122.72 3510.22 3121.42C3497.22 3127.92 3469.74 3116.93 3454.39 3116.18C3386.82 3112.89 3320.15 3106.81 3260.71 3083.03C3236.84 3073.48 3206.3 3074.26 3182.19 3070.82C3177.69 3070.17 3177.97 3060.96 3173.46 3060.35C3099.86 3050.31 3025.82 3051.86 2950.12 3037.66C2886.98 3025.82 2819.73 3005.58 2751.21 2995.79C2719.9 2991.31 2689.15 2981.66 2658.73 2976.59C2643.14 2974 2623.85 2960.54 2609.87 2959.15C2592.02 2957.36 2565.92 2962.3 2527.87 2948.68Z" fill="#f94728" fill-rule="nonzero" opacity="1" stroke="none"/>
<path d="M3300.84 778.072C3288.93 766.162 3261.24 809.921 3255.47 816.459C3219.22 857.55 3171.97 900.715 3142.06 945.579C3150.69 954.213 3146.78 951.543 3150.78 959.537C3129.21 981.108 3108.8 1005.47 3089.71 1029.33C3102.15 1041.78 3195.26 1028.46 3215.34 1025.84C3281.16 1017.26 3353.15 1009.95 3421.23 1004.9C3450.43 1002.74 3478.18 1001.89 3506.73 996.179C3519.52 993.622 3537.91 983.965 3550.35 983.965C3556.56 983.965 3560.84 987.446 3567.8 983.965C3586.02 1002.18 3592.19 1041.5 3607.93 1057.25C3609.37 1058.69 3668.49 1044.52 3677.73 1053.76C3675.98 1056.38 3675.98 1056.38 3674.24 1058.99C3675.98 1060.74 3675.98 1060.74 3677.73 1062.48C3674.06 1069.83 3667.13 1077.04 3662.02 1083.42C3663.77 1086.04 3663.77 1086.04 3665.51 1088.66C3692.75 1068.23 3712.1 1033.46 3735.31 1008.39C3759.79 981.953 3792.12 934.462 3822.55 914.171C3826.54 911.511 3833.12 914.073 3836.51 910.681C3824.26 898.429 3777.89 910.148 3763.23 910.681C3716.71 912.373 3670.15 912.539 3623.64 914.171C3614.95 914.476 3579.88 922.763 3573.04 915.916C3618.23 870.72 3665.15 829.31 3705.65 779.817C3710.06 774.417 3738.25 746.341 3735.31 741.43C3729.02 730.954 3655.07 743.264 3639.34 744.92C3555.29 753.767 3467.6 758.33 3386.34 774.582C3367.13 778.423 3308.29 770.624 3300.84 778.072Z" fill="#2c4475" fill-rule="nonzero" opacity="1" stroke="none"/>
<path d="M2274.86 1856.39C2268.01 1863.25 2260.68 1880.54 2253.92 1889.55C2235.9 1880.54 2206.09 1883.59 2191.11 1868.61C2179.09 1880.63 2192.12 1937 2192.85 1952.36C2195.19 2001.37 2196.34 2048.53 2196.34 2097.19C2196.34 2160.28 2131.97 2094.55 2123.06 2109.4C2121.03 2112.78 2124.8 2113.43 2124.8 2116.38C2124.8 2147.79 2125.76 2179.3 2123.06 2210.6C2122.78 2213.88 2116.56 2214.33 2116.08 2217.58C2108.54 2268.48 2123.37 2324.52 2110.85 2374.62C2104.2 2401.2 2108.41 2432.1 2105.61 2460.12C2101.39 2502.31 2096.77 2541.1 2089.91 2582.26C2083.98 2617.8 2085.21 2671.92 2068.97 2704.4C2081.72 2717.15 2087.72 2714.82 2103.87 2732.31C2107.53 2736.29 2107.67 2745.07 2112.59 2748.02C2114.09 2748.92 2116.26 2748.8 2117.82 2748.02C2127.08 2743.39 2119.58 2738.2 2124.8 2732.31C2137.78 2717.72 2151.02 2711.38 2170.17 2713.12C2192.17 2715.12 2193.34 2746.6 2208.56 2756.74C2215.97 2761.68 2218.5 2747.17 2222.52 2746.27C2231.03 2744.38 2239.98 2745.76 2248.69 2746.27C2263.98 2747.17 2273.45 2770.36 2290.57 2765.47C2300.27 2762.69 2290.89 2725.48 2290.57 2714.87C2288.81 2656.92 2289.81 2620.78 2288.82 2568.3C2286.4 2440.13 2285.73 2311.29 2292.31 2186.17C2293.47 2164.07 2292.88 2141.81 2295.8 2119.87C2296.96 2111.2 2293.63 2101.52 2297.55 2093.7C2291.01 2087.16 2294.65 2089.24 2287.08 2086.72C2287.08 2074.81 2286.06 2036.84 2278.35 2029.14C2257.96 2049.53 2214.18 1976.2 2217.28 1957.6C2221.2 1934.08 2271.64 1889.64 2285.33 1873.84C2288.99 1869.62 2275.69 1857.43 2274.86 1856.39Z" fill="#f86c4d" fill-rule="nonzero" opacity="1" stroke="none"/>
<path d="M2212.05 2753.25C2177.75 2725.82 2172.93 2680.7 2121.31 2732.31C2117.36 2736.27 2120.52 2740.09 2116.08 2744.53C2105.3 2737.34 2091.57 2716.06 2084.67 2709.63C2080.85 2706.06 2053.4 2699.04 2053.27 2711.38C2052.11 2814.32 2053.27 2917.27 2053.27 3020.22C2127.47 3024.58 2202.43 3019.34 2276.61 3014.98C2303.34 3013.41 2330.14 3013.16 2356.87 3011.49C2361.86 3011.18 2364.1 3003.17 2369.08 3002.77C2395.17 3000.64 2421.44 3003.28 2447.6 3002.77C2454.12 3002.64 2471.52 2999.38 2477.27 2995.79C2489.12 2988.38 2506.93 2976.69 2506.93 2962.63C2506.93 2955.03 2492.17 2942.28 2494.71 2938.21C2499.73 2930.18 2515.89 2924.35 2517.4 2913.78C2521.97 2881.79 2503.05 2878.76 2484.25 2856.2C2480.67 2851.9 2490.13 2852.34 2480.76 2849.22C2476.5 2847.8 2472.33 2851.87 2470.29 2845.73C2465 2829.86 2459.76 2814.19 2452.84 2796.87C2444.51 2776.06 2427.12 2708.45 2410.96 2706.14C2398.78 2704.4 2391.71 2699.16 2377.81 2699.16C2365.67 2699.16 2355.78 2711.38 2344.66 2711.38C2330.4 2711.38 2318.55 2689.89 2306.27 2711.38C2296.36 2728.72 2291.79 2736.22 2288.82 2758.49C2288.6 2760.12 2286.8 2761.24 2285.33 2761.98C2282.94 2763.17 2280.2 2761.16 2278.35 2760.23C2255.86 2748.98 2251.17 2737.98 2220.77 2742.78C2218.27 2743.18 2213.32 2751.34 2212.05 2753.25Z" fill="#61b469" fill-rule="nonzero" opacity="1" stroke="none"/>
<path d="M3152.53 1994.24C3111.52 1953.23 3105.21 2051.61 3131.59 2077.99C3153.42 2099.82 3171.52 2061.1 3197.89 2064.03C3208.82 2065.25 3196.73 2085.55 3208.36 2086.72C3223.99 2088.28 3239.78 2086.24 3255.47 2086.72C3309.04 2088.34 3341.87 2136.37 3346.21 2186.17C3349.47 2223.73 3347.25 2264.06 3311.31 2285.63C3298.52 2293.3 3282.55 2292.09 3269.43 2299.59C3251.57 2309.79 3235 2317.36 3215.34 2322.27C3198.01 2326.61 3165.13 2318.39 3152.53 2331C3163.06 2341.53 3156.23 2352.86 3161.25 2364.15C3169.71 2383.18 3180.77 2381.16 3194.4 2392.07C3203.05 2398.98 3192.9 2425.96 3196.15 2435.69C3262.48 2435.69 3331.97 2452.69 3386.34 2491.52C3403.03 2503.45 3412.5 2522.05 3428.21 2529.91C3431.12 2527 3436.86 2525.3 3436.94 2521.19C3439.79 2368.83 3436.94 2216.42 3436.94 2064.03C3436.94 2057.3 3435.19 2051.33 3435.19 2044.84C3435.19 1990.16 3436.17 1935.49 3436.94 1880.82C3437.34 1852.32 3438.68 1823.83 3438.68 1795.32C3438.68 1760.32 3433.18 1744.46 3409.02 1720.3C3401.08 1712.35 3375.51 1715.82 3374.12 1730.76C3370.99 1764.48 3376.73 1798.84 3368.89 1830.22C3364.07 1849.48 3330.75 1837.04 3327.01 1852.9C3322.56 1871.83 3327.5 1890.06 3314.8 1907C3293.17 1935.83 3271.55 1953.61 3239.77 1966.32C3235.55 1968.01 3233.81 1974.51 3229.3 1975.05C3207.01 1977.67 3162.4 1964.62 3152.53 1994.24Z" fill="#2fc9f0" fill-rule="nonzero" opacity="1" stroke="none"/>
<path d="M3402.04 3238.32C3387.52 3237.13 3396.81 3351.74 3396.81 3363.95C3396.81 3397.11 3397.43 3430.27 3398.55 3463.41C3398.59 3464.71 3399.98 3465.64 3400.3 3466.9C3402.59 3476.09 3396.84 3487.45 3396.81 3493.07C3396.23 3588.46 3397.44 3683.85 3398.55 3779.23C3399.2 3834.79 3491.95 3843.58 3534.65 3840.3C3542.45 3839.7 3537.82 3777.45 3538.14 3753.06C3539.23 3670.47 3538.16 3587.86 3539.88 3505.29C3539.97 3501.13 3570.42 3495.36 3574.78 3494.82C3607.69 3490.7 3638.57 3483.67 3670.75 3475.62C3678.82 3473.61 3697.26 3473.56 3700.41 3465.15C3711.85 3434.66 3699.79 3400.01 3700.41 3367.44C3700.79 3347.66 3705.58 3244.22 3698.67 3240.07C3692.17 3236.17 3608.49 3246.12 3599.21 3247.05C3531.81 3253.79 3470.36 3243.95 3402.04 3238.32Z" fill="#a26a67" fill-rule="nonzero" opacity="1" stroke="none"/>
<path d="M5544.73 2041.35C5521.73 2064.35 5496.11 2089.96 5474.93 2111.14C5471.44 2108.53 5471.44 2108.53 5467.95 2105.91C5464.46 2109.4 5464.46 2109.4 5460.97 2112.89C5447.6 2099.52 5453 2096.94 5436.55 2102.42C5436.55 2113.36 5433.38 2178.87 5429.57 2182.68C5426.08 2180.07 5426.08 2180.07 5422.59 2177.45C5405.68 2194.36 5418.03 2225.09 5417.35 2248.99C5415.86 2301.32 5411.74 2354.92 5408.63 2407.77C5403.94 2487.47 5398.13 2570.17 5382.45 2648.56C5375.32 2684.25 5351.37 2724.7 5349.3 2756.74C5348.22 2773.57 5350.39 2790.51 5349.3 2807.34C5348.94 2812.96 5343.03 2818.21 5344.07 2826.54C5346.2 2843.59 5410.12 2764.57 5420.84 2802.11C5426.39 2821.53 5390.94 2855.96 5406.88 2871.9C5413.6 2866.53 5415.62 2855.2 5424.33 2852.71C5443.56 2847.21 5452.25 2880.05 5471.44 2873.65C5476.77 2871.87 5479.07 2862.22 5485.4 2861.43C5498.79 2859.76 5517.11 2866.73 5525.53 2856.2C5534.44 2845.07 5522.04 2794.18 5522.04 2779.42C5522.04 2755.58 5522.39 2731.73 5522.04 2707.89C5521.81 2692.17 5520.3 2676.49 5520.3 2660.77C5520.3 2554.23 5525.53 2449.23 5525.53 2341.47C5525.53 2329.82 5522.34 2318.13 5523.79 2306.57C5524.9 2297.64 5549.73 2289.18 5556.94 2287.37C5568.15 2284.57 5622.44 2253.16 5624.99 2245.5C5627.38 2238.33 5625.99 2230.31 5624.99 2222.81C5619.12 2178.76 5545.6 2258.59 5529.02 2242.01C5526.93 2239.91 5527.39 2236.25 5527.28 2233.28C5526.18 2204.8 5525.53 2176.29 5525.53 2147.79C5525.53 2129.39 5533.75 2104.95 5537.75 2084.97C5540.04 2073.49 5554.47 2047.85 5544.73 2041.35Z" fill="#f86c4d" fill-rule="nonzero" opacity="1" stroke="none"/>
<path d="M3908.05 1476.02C3905.43 1473.4 3905.43 1473.4 3902.81 1470.78C3889.74 1483.86 3865.94 1505.25 3857.45 1521.38C3853.92 1528.09 3857.35 1536.66 3855.7 1544.07C3848.01 1578.68 3841.74 1607.31 3841.74 1645.27C3841.74 1660.34 3835.83 1682.97 3848.72 1695.87C3855.5 1689.09 3856.13 1685.83 3862.68 1692.38C3866.17 1689.76 3866.17 1689.76 3869.66 1687.14C3879.96 1697.44 3883.93 1724.41 3890.6 1737.74C3902.56 1761.67 3927.11 1779.86 3946.44 1795.32C4000.18 1838.32 4107.06 1794.28 4138.37 1739.49C4171.97 1680.69 4184.67 1612.78 4164.54 1542.32C4143.67 1469.27 4068.14 1414.89 3993.55 1423.67C3958.67 1427.77 3932.12 1453.67 3908.05 1476.02Z" fill="#110d14" fill-rule="nonzero" opacity="1" stroke="none"/>
<path d="M3159.51 2088.46C3151.12 2080.08 3145.68 2085.11 3138.57 2077.99C3123.15 2093.41 3114.06 2058.33 3112.39 2048.33C3108.95 2027.68 3118.7 1999.62 3115.88 1985.51C3115.56 1983.9 3113.99 1982.42 3112.39 1982.02C3089.99 1976.42 3071.85 1973.1 3051.32 1962.83C3001.54 1937.94 2994.41 1849.83 3016.43 1805.79C3052.55 1733.54 3144 1755.19 3208.36 1755.19C3226.43 1755.19 3243.98 1752.68 3258.96 1763.92C3274.19 1775.34 3292.6 1785.34 3307.82 1800.56C3321.4 1814.14 3317.64 1840.04 3330.5 1852.9C3339.35 1844.06 3366.8 1850.09 3372.38 1831.97C3381.03 1803.86 3374.15 1756.18 3377.61 1730.76C3379.33 1718.18 3396.6 1723.99 3403.79 1716.81C3380.86 1693.89 3336.45 1707.77 3307.82 1708.08C3215.34 1709.1 3122.86 1708.75 3030.39 1709.83C2947.24 1710.79 2956.32 1767.13 2955.36 1840.69C2953.23 2002.04 2953.61 2164.32 2953.61 2325.76C2953.61 2379.28 2954.43 2432.83 2957.1 2486.29C2957.18 2487.93 2959.06 2489.17 2960.59 2489.78C2973.21 2494.83 2970.19 2472.18 2974.55 2467.1C2985.75 2454.03 3012.7 2441.63 3028.64 2439.18C3080.79 2431.15 3133.43 2441.04 3185.68 2437.43C3195.12 2436.78 3192.25 2418.89 3190.91 2409.51C3188.92 2395.59 3135.92 2413.98 3124.61 2400.79C3101.63 2373.98 3136.71 2337.74 3121.12 2306.57C3120.51 2305.36 3046.73 2298.93 3030.39 2289.12C2966.69 2250.9 2987.46 2155.82 3032.13 2111.14C3065.14 2078.13 3139.45 2108.52 3159.51 2088.46Z" fill="#0da9d6" fill-rule="nonzero" opacity="1" stroke="none"/>
<path d="M4838.06 2168.72C4824.77 2182.01 4797.68 2188.04 4780.48 2196.64C4757.72 2208.02 4735.2 2226.6 4712.43 2240.26C4663.41 2269.67 4615.23 2308.8 4569.35 2343.21C4558.16 2351.6 4544.06 2364.14 4530.96 2369.38C4464.96 2395.79 4394.5 2441.63 4337.28 2484.54C4356.15 2503.41 4406.96 2517.01 4435 2514.21C4449.61 2512.74 4467.41 2498 4480.36 2491.52C4521.37 2471.02 4564.59 2455.36 4605.99 2446.16C4622.02 2442.59 4636.12 2431.76 4651.36 2428.71C4682.49 2422.48 4734.69 2444.41 4770.01 2444.41C4805.4 2444.41 4859.52 2415.01 4885.17 2392.07C4967.47 2318.43 4967.09 2210.57 4838.06 2168.72Z" fill="#125d9e" fill-rule="nonzero" opacity="1" stroke="none"/>
<path d="M2894.29 2903.31C2897.78 2906.8 2897.78 2906.8 2901.27 2910.29C2906.04 2905.52 2909.75 2900.18 2913.48 2894.59C2915.23 2895.46 2915.23 2895.46 2916.97 2896.33C2927.48 2885.82 2997.79 2883.34 3009.45 2884.12C3063.94 2887.75 3119.18 2891.4 3173.46 2896.33C3185.81 2897.45 3220.67 2889.45 3232.79 2901.56C3218.24 2930.66 3202.51 2960.35 3183.93 2983.57C3178.47 2990.4 3169.43 3011.82 3161.25 3013.24C3134.52 3017.84 3109.05 3011 3082.73 3009.75C3064.13 3008.86 3045.4 3010.12 3026.9 3008C3002.8 3005.25 2912.39 2998.28 2890.8 2985.32C2877.17 2977.14 2890.16 2948.04 2878.58 2936.46C2841.07 2973.98 2886.51 2993.41 2897.78 3027.19C2912.38 3027.19 2935.17 3039.16 2950.12 3041.15C3012.53 3049.47 3074.02 3055.26 3135.08 3060.35C3147.88 3061.41 3160.67 3062.67 3173.46 3063.84C3187.75 3065.14 3181.73 3061.71 3187.42 3044.64C3204.58 3061.8 3242.77 3022.82 3253.73 3013.24C3241.36 3000.87 3221.4 2992.46 3210.11 2978.34C3205.58 2972.68 3233.99 2936.9 3236.28 2927.74C3238.85 2917.47 3250.68 2905.05 3257.22 2896.33C3294.42 2846.72 3319.85 2797.06 3363.65 2753.25C3358.94 2748.54 3314.12 2743.29 3307.82 2742.78C3294.48 2741.72 3281.02 2743.85 3267.69 2742.78C3183.91 2736.08 3086.56 2709.46 3000.72 2716.61C2965.53 2719.54 2930.14 2754.04 2908.25 2775.94C2887.84 2796.34 2899.49 2830.2 2894.29 2856.2C2892.89 2863.17 2885.67 2862.09 2887.31 2871.9C2888.96 2881.8 2899.24 2893.4 2894.29 2903.31Z" fill="#0d8e92" fill-rule="nonzero" opacity="1" stroke="none"/>
<path d="M4836.31 2170.47C4842.24 2176.39 4855.61 2174.99 4864.23 2177.45C4888.04 2184.25 4909.86 2200.52 4923.56 2221.07C4938.68 2243.75 4939.26 2277.74 4939.26 2303.08C4939.26 2319.36 4926.75 2333.33 4920.07 2346.7C4891.8 2403.23 4808.18 2440.92 4745.58 2440.92C4714.16 2440.92 4682.94 2422.35 4651.36 2425.22C4636.23 2426.59 4566.06 2449.45 4557.14 2458.37C4570.23 2471.46 4636.75 2457.72 4654.85 2475.82C4657.18 2474.66 4659.5 2473.49 4661.83 2472.33C4666.8 2477.3 4670.16 2482.21 4674.04 2488.03C4689.96 2472.12 4735.69 2504.32 4757.8 2493.27C4766.74 2502.21 4796.88 2495.9 4811.89 2496.76C4826.41 2497.59 4840.97 2497.96 4855.51 2498.5C4893.35 2499.9 4911.59 2479.12 4939.26 2458.37C4979.65 2428.08 5022.75 2378.9 5038.72 2331C5050.31 2296.22 5062 2257.83 5085.83 2228.05C5095.04 2232.65 5132.12 2177.11 5129.45 2172.21C5126.08 2166.04 5113.85 2155.28 5112 2146.04C5110.51 2138.6 5122.36 2125.87 5125.96 2119.87C5146.78 2085.17 5100.07 2043.9 5071.87 2032.63C4966.52 1990.49 4907.6 2122.95 4836.31 2170.47Z" fill="#5dcbf3" fill-rule="nonzero" opacity="1" stroke="none"/>
<path d="M4424.53 2967.87C4432.84 2976.18 4464.79 2973.91 4476.87 2976.59C4529.16 2988.21 4585.55 2995.11 4639.15 3002.77C4654.64 3004.98 4679.65 3003.14 4691.49 3014.98C4692.65 3013.82 4694.92 3013.14 4694.98 3011.49C4696.1 2978.94 4694.77 2946.35 4694.98 2913.78C4695.36 2854.45 4695.58 2795.12 4696.73 2735.8C4696.78 2733.2 4699.05 2731.15 4700.22 2728.82C4677.02 2705.63 4653.82 2699.16 4619.95 2699.16C4615.33 2699.16 4583.77 2709.86 4579.82 2707.89C4575.02 2705.49 4573.95 2698.43 4569.35 2695.67C4558.52 2689.18 4537.31 2683.83 4525.73 2679.97C4517.64 2677.27 4515.24 2653.6 4501.3 2652.05C4492.7 2651.09 4454.92 2650.59 4448.96 2662.52C4448.91 2662.61 4448.98 2671.2 4448.96 2672.99C4448.39 2717.77 4447.78 2762.56 4447.21 2807.34C4446.47 2865.56 4458.97 2921.95 4424.53 2967.87Z" fill="#a9ca53" fill-rule="nonzero" opacity="1" stroke="none"/>
<path d="M2962.34 1734.25C2953.45 1743.15 2893.59 1760.17 2892.54 1776.13C2882.73 1925.29 2893.49 2075.08 2894.29 2224.56C2894.78 2316.89 2894.29 2411.4 2894.29 2505.48C2894.29 2584.58 2893.14 2663.69 2894.29 2742.78C2894.48 2755.99 2895.1 2771.51 2906.5 2782.91C2926.58 2762.83 2947.29 2744.7 2969.32 2727.08C2963.55 2715.55 2987.79 2704.56 2993.74 2697.42C3016.92 2669.6 3044.27 2650.95 3072.26 2627.62C3056.55 2611.91 3021.75 2621.15 3002.47 2606.68C2971.73 2583.63 2962.34 2551.17 2962.34 2512.46C2962.34 2509.35 2968.65 2493.01 2967.57 2489.78C2956.69 2457.15 2960.98 2421.22 2960.59 2386.83C2960.37 2367.05 2959.15 2347.29 2958.85 2327.51C2957.99 2271.09 2957.1 2214.68 2957.1 2158.26C2957.1 2138.47 2958.85 2118.71 2958.85 2098.93C2958.85 2010.52 2953.5 1921.96 2958.85 1833.71C2960.51 1806.19 2955.78 1766.56 2969.32 1739.49C2965.83 1736.87 2965.83 1736.87 2962.34 1734.25Z" fill="#fa8d33" fill-rule="nonzero" opacity="1" stroke="none"/>
<path d="M4485.6 2974.85C4481.53 2978.92 4476.47 2982.21 4473.38 2987.06C4472.2 2988.92 4475.87 2997.18 4469.89 2997.53C4451.31 2998.62 4432.6 2995.94 4414.06 2997.53C4407.95 2998.06 4391.39 3009.54 4386.14 3009.75C4329.19 3011.98 4272.14 3009.75 4215.14 3009.75C4144.73 3009.75 4076.71 3009.75 4005.76 3009.75C3947.68 3009.75 3887.56 3024.94 3829.53 3028.94C3783.39 3032.12 3740.78 3029.56 3693.43 3032.43C3683.9 3033.01 3662.28 3030.43 3653.3 3039.41C3666.05 3052.16 3682.78 3044.64 3700.41 3044.64C3740.74 3044.64 3780.7 3048.95 3820.81 3051.62C3833.42 3052.46 3879.21 3047.1 3885.37 3065.58C3908.64 3065.58 3931.9 3066.54 3955.16 3067.33C3987.14 3068.41 4019.25 3066.37 4051.13 3069.07C4054.41 3069.35 4055.16 3074.58 4058.11 3076.05C4071.35 3082.67 4093.74 3072.06 4108.71 3079.54C4122.75 3086.56 4176.13 3069.89 4197.7 3076.05C4254.88 3092.39 4314.25 3073.16 4370.44 3070.82C4443.27 3067.78 4544.02 3067.93 4609.48 3063.84C4692.58 3058.64 4774.92 3060.85 4860.74 3056.86C4864.97 3056.66 4893.43 3053.84 4897.38 3049.88C4876.34 3028.83 4763.26 3017.77 4735.11 3020.22C4730.59 3020.61 4730.87 3029.94 4726.39 3030.68C4717.21 3032.21 4707.72 3031.71 4698.47 3030.68C4693.56 3030.14 4693.36 3008.82 4679.28 3006.26C4631.19 2997.51 4582.53 2992.31 4534.45 2983.57C4519.15 2980.79 4499.45 2981.78 4485.6 2974.85Z" fill="#fceeae" fill-rule="nonzero" opacity="1" stroke="none"/>
<path d="M3684.71 3466.9C3644.1 3478.99 3602.84 3475.92 3564.31 3491.33C3561.79 3492.34 3536.47 3498.26 3536.39 3503.54C3535.25 3586.12 3536.94 3668.72 3536.39 3751.31C3536.21 3778.71 3520.01 3812.41 3534.65 3836.81C3535.5 3838.22 3536.49 3840.26 3538.14 3840.3C3564.89 3840.86 3591.66 3839.62 3618.4 3838.55C3635.19 3837.88 3665.14 3834.97 3681.22 3828.08C3689.07 3824.72 3695 3820.25 3695.18 3810.64C3695.72 3781.55 3695.25 3752.43 3696.92 3723.39C3701.78 3639.2 3700.41 3554.71 3698.67 3470.39C3698.57 3465.59 3689.3 3465.53 3684.71 3466.9Z" fill="#f4b195" fill-rule="nonzero" opacity="1" stroke="none"/>
<path d="M4445.47 2568.3C4455.53 2588.43 4435.85 2645.93 4452.45 2662.52C4459.82 2655.14 4494.02 2654.73 4501.3 2655.54C4515.17 2657.08 4514.91 2676.21 4522.24 2681.71C4532.8 2689.63 4548.54 2688.42 4560.63 2695.67C4568.85 2700.61 4569.23 2704.64 4579.82 2711.38C4586.99 2715.94 4588.31 2707.05 4593.78 2706.14C4608.55 2703.68 4627.99 2702.65 4642.63 2702.65C4668.43 2702.65 4677.1 2719.01 4696.73 2728.82C4711.96 2713.58 4699.99 2685.81 4700.22 2664.26C4700.58 2628.78 4704.04 2593.25 4701.96 2557.83C4701.72 2553.78 4657.29 2472.23 4651.36 2468.84C4635.69 2459.88 4576.9 2457.38 4558.88 2456.63C4550.16 2456.26 4447.1 2500.82 4445.47 2508.97C4442.47 2523.93 4457.11 2556.66 4445.47 2568.3Z" fill="#fce561" fill-rule="nonzero" opacity="1" stroke="none"/>
<path d="M5623.25 2243.75C5594.39 2272.61 5550.02 2275.11 5522.04 2303.08C5513.4 2311.72 5520.23 2327.49 5520.3 2339.72C5520.81 2425.22 5522.04 2510.71 5522.04 2596.21C5522.04 2657.64 5514.34 2717.61 5518.55 2779.42C5518.67 2781.07 5520.88 2781.75 5522.04 2782.91C5550.34 2754.62 5580.42 2728.51 5623.25 2742.78C5623.25 2493.27 5623.25 2493.27 5623.25 2243.75Z" fill="#fce561" fill-rule="nonzero" opacity="1" stroke="none"/>
<path d="M4679.28 2479.31C4675.79 2482.8 4675.79 2482.8 4672.3 2486.29C4687.27 2501.26 4690.56 2525.49 4705.45 2540.38C4713.94 2548.87 4733.83 2538.29 4738.6 2552.59C4743.94 2568.6 4737.18 2586.32 4736.86 2603.19C4735.92 2652.63 4735.94 2702.07 4735.11 2751.51C4734.24 2803.28 4732.48 2855.03 4731.62 2906.8C4730.99 2945.19 4729.31 2983.57 4729.88 3021.96C4730.07 3034.77 4755.46 3023.7 4768.26 3023.7C4781.53 3023.7 4797.01 3032.33 4810.14 3030.68C4811.77 3030.48 4813.56 3028.84 4813.63 3027.19C4814.74 3002.79 4812.52 2978.31 4813.63 2953.91C4816.4 2892.89 4816.61 2831.78 4817.12 2770.7C4817.59 2714.53 4832.69 2654.06 4820.61 2599.7C4819.54 2594.91 4805.36 2593.64 4801.42 2585.75C4787.41 2557.73 4769.96 2515.9 4747.33 2493.27C4744.78 2490.72 4688.62 2481.05 4679.28 2479.31Z" fill="#e8bb69" fill-rule="nonzero" opacity="1" stroke="none"/>
<path d="M3182.19 3037.66C3171.54 3048.32 3191.56 3051.77 3168.23 3067.33C3178.36 3077.45 3201.99 3073.15 3213.6 3074.31C3227.24 3075.67 3245.46 3083.98 3260.71 3086.52C3284.37 3090.46 3309.8 3085.98 3333.99 3090.01C3394.47 3100.09 3460.95 3110.95 3522.44 3110.95C3562.48 3110.95 3605.65 3096.74 3644.58 3093.5C3713.3 3087.77 3785.02 3085.11 3855.7 3081.29C3908.01 3078.46 3958.83 3077.8 4011 3077.8C4028.11 3077.8 4049.49 3081.17 4061.6 3069.07C4060.43 3067.91 4059.75 3065.64 4058.11 3065.58C4024.39 3064.46 3990.64 3066.13 3956.91 3065.58C3935.36 3065.23 3913.7 3064.98 3892.35 3062.09C3887.84 3061.48 3886.39 3053.87 3881.88 3053.37C3823.52 3046.88 3764.2 3047.4 3705.65 3042.9C3688.98 3041.62 3669.05 3044.67 3655.05 3037.66C3648.22 3034.25 3629.57 3040.84 3621.89 3041.15C3598.06 3042.13 3574.21 3042.9 3550.35 3042.9C3541.3 3042.9 3524.79 3031.43 3515.46 3030.68C3476.63 3027.58 3440.77 3024.57 3403.79 3020.22C3392.02 3018.83 3375.09 3024.67 3365.4 3014.98C3338.69 3028.34 3288.21 3009.75 3258.96 3009.75C3231.33 3009.75 3219.82 3062.75 3182.19 3037.66Z" fill="#ad7e79" fill-rule="nonzero" opacity="1" stroke="none"/>
<path d="M3613.17 898.467C3614.33 900.212 3614.56 903.636 3616.66 903.702C3671.3 905.41 3726.01 904.238 3780.67 903.702C3795.38 903.558 3822.67 906.746 3833.02 898.467C3901.71 843.515 3943.41 757.909 4009.25 703.043C4001.98 692.139 3932.97 705.579 3916.77 708.278C3879.91 714.422 3841.23 711.443 3805.1 717.002C3801.29 717.588 3778.31 717.313 3775.44 718.747C3742.23 735.351 3699.33 807.09 3672.49 835.652C3652.77 856.644 3631.16 875.978 3613.17 898.467Z" fill="#2c4475" fill-rule="nonzero" opacity="1" stroke="none"/>
<path d="M3056.56 2432.2C3029.66 2438.92 2991.05 2440.36 2971.06 2465.35C2966.7 2470.81 2965.86 2489.65 2964.08 2496.76C2954.12 2536.59 2962.18 2581.65 2997.23 2606.68C3038.76 2636.35 3119.13 2631.15 3161.25 2624.13C3187.04 2619.83 3243.32 2631.05 3262.45 2611.92C3249.25 2585.52 3192.43 2620.84 3178.7 2597.96C3174.95 2591.71 3180.06 2579.88 3180.44 2573.53C3181.36 2558.43 3181.65 2543.29 3182.19 2528.17C3184.19 2472.15 3150.23 2453.73 3056.56 2432.2Z" fill="#fbba3a" fill-rule="nonzero" opacity="1" stroke="none"/>
<path d="M2913.48 2891.1C2904.44 2900.13 2908.47 2895.44 2901.27 2905.05C2899.52 2904.18 2899.52 2904.18 2897.78 2903.31C2879.77 2921.32 2866.53 2972.63 2890.8 2988.81C2906.25 2999.11 2986.78 3002.42 3007.7 3004.51C3055.47 3009.29 3110.31 3018.54 3161.25 3016.73C3167.26 3016.51 3182.32 2994.4 3185.68 2988.81C3198.47 2967.49 3231.35 2927.97 3236.28 2903.31C3239.62 2886.59 3158.07 2893.65 3140.31 2892.84C3083.48 2890.26 3026.05 2878.88 2969.32 2878.88C2954.22 2878.88 2926.72 2897.71 2913.48 2891.1Z" fill="#20bab0" fill-rule="nonzero" opacity="1" stroke="none"/>
<path d="M2114.34 2002.96C2095.17 1983.8 2072.98 1985.05 2055.01 1961.09C2054.43 2018.08 2052.69 2075.08 2053.27 2132.08C2053.28 2133.7 2112.03 2180.38 2119.57 2187.92C2115.67 2195.71 2117.46 2215.48 2123.06 2221.07C2124.22 2219.91 2126.49 2219.22 2126.55 2217.58C2127.67 2184.45 2125.99 2151.27 2126.55 2118.12C2126.81 2102.6 2138.71 2107.5 2142.25 2118.12C2156.19 2118.12 2165.68 2135.2 2182.38 2126.85C2202.25 2116.92 2194.19 2093.58 2198.09 2077.99C2206.17 2045.66 2202.45 1901.88 2189.36 1873.84C2180.49 1854.83 2161.67 1842.13 2145.74 1828.48C2141.21 1824.59 2135.63 1840.63 2133.53 1842.44C2130.71 1844.85 2116.6 1854.47 2116.08 1856.39C2113.48 1865.93 2116.55 1876.18 2116.08 1886.06C2114.31 1923.29 2119.39 1961.95 2117.82 1999.47C2117.76 2001.12 2115.5 2001.8 2114.34 2002.96Z" fill="#dc5f4a" fill-rule="nonzero" opacity="1" stroke="none"/>
<path d="M3124.61 2093.7C3136.93 2106.02 3159.08 2112.46 3173.46 2126.85C3219.91 2173.3 3199.87 2265.7 3149.04 2299.59C3163.07 2313.63 3188.51 2305.13 3208.36 2304.82C3227.56 2304.52 3246.75 2303.63 3265.94 2303.08C3383.31 2299.72 3374.38 2113.39 3274.67 2088.46C3247.93 2081.78 3221.02 2082.01 3194.4 2084.97C3181.23 2086.43 3134.29 2084.02 3124.61 2093.7Z" fill="#f86c4d" fill-rule="nonzero" opacity="1" stroke="none"/>
<path d="M3079.24 1751.7C2957.56 1774.91 2978.74 1978.53 3108.9 1978.53C3123.63 1978.53 3126.52 1969.7 3136.82 1962.83C3178.02 1935.37 3189.17 1897.43 3189.17 1849.42C3189.17 1840.66 3182.04 1831.67 3178.7 1824.99C3156.18 1779.95 3127.6 1742.48 3079.24 1751.7Z" fill="#fbba3a" fill-rule="nonzero" opacity="1" stroke="none"/>
<path d="M3112.39 2303.08C3110.65 2301.33 3110.65 2301.33 3108.9 2299.59C3129.81 2278.68 3146.93 2263.8 3157.76 2238.52C3161.85 2228.99 3159.8 2214.94 3162.99 2205.37C3166.72 2194.18 3193.31 2207.08 3199.64 2193.15C3205.33 2180.62 3194.56 2151.44 3185.68 2142.55C3178.31 2149.92 3177.59 2154.26 3168.23 2161.74C3163.23 2156.74 3165.9 2147.79 3164.74 2140.81C3164.22 2137.68 3124.61 2099.8 3121.12 2097.19C3121.99 2095.44 3121.99 2095.44 3122.86 2093.7C3110.87 2081.71 3089.21 2087.88 3072.26 2088.46C3050.74 2089.2 3025.57 2114.21 3012.94 2126.85C3000.85 2138.94 2996.26 2163.59 2993.74 2177.45C2984.48 2228.37 2987.86 2277.27 3044.34 2296.1C3061.54 2301.83 3097.89 2317.58 3112.39 2303.08Z" fill="#f94728" fill-rule="nonzero" opacity="1" stroke="none"/>
<path d="M4087.77 985.71C4117.36 1015.3 4140.67 1056.47 4161.05 1092.15C4180.69 1126.51 4206.74 1158.05 4229.1 1191.6C4265.45 1246.13 4303.86 1301.5 4342.52 1355.62C4356.45 1375.12 4375.87 1394.4 4386.14 1414.95C4398.21 1439.08 4417.89 1465.19 4433.25 1488.23C4439.73 1497.94 4436.37 1503.56 4447.21 1514.4C4458.3 1503.31 4451.64 1491.39 4450.7 1479.51C4449.89 1469.23 4464.62 1417.84 4440.23 1409.71C4440.23 1391.31 4375.76 1309.68 4359.97 1287.57C4307.79 1214.52 4260.06 1127.68 4201.19 1058.99C4174.27 1027.59 4160.44 981.602 4131.39 952.558C4116.23 937.397 4093.29 974.666 4087.77 985.71Z" fill="#fa8d33" fill-rule="nonzero" opacity="1" stroke="none"/>
<path d="M4026.7 2573.53C4016.06 2594.82 3992.38 2636.93 4012.74 2657.28C4014.49 2655.54 4014.49 2655.54 4016.23 2653.79C4026.55 2664.12 4015.21 2677.2 4024.96 2686.95C4035.56 2676.35 4029.48 2658.02 4033.68 2643.33C4041.31 2616.63 4061.24 2589.41 4086.03 2577.02C4180 2530.03 4204 2697.82 4161.05 2751.51C4151.21 2763.81 4115.68 2790.64 4098.24 2788.15C4065.7 2783.5 4074.55 2753.86 4040.66 2782.91C4069.71 2816.8 4124.95 2840.76 4164.54 2809.09C4180.93 2795.98 4245.44 2743.57 4195.95 2727.08C4202.63 2713.72 4196.75 2689.01 4213.4 2683.46C4213.4 2663.29 4206.11 2655.69 4220.38 2648.56C4238.03 2666.22 4230.4 2612.77 4225.61 2603.19C4209.72 2571.4 4186.98 2530.72 4148.84 2521.19C4099.08 2508.75 4027.87 2495.12 3986.57 2528.17C3979.86 2533.53 3955.16 2543.53 3955.16 2552.59C3955.16 2568.19 4017.45 2564.28 4026.7 2573.53Z" fill="#e1e2e0" fill-rule="nonzero" opacity="1" stroke="none"/>
<path d="M2055.01 2130.34C2054.43 2324.02 2052.69 2517.7 2053.27 2711.38C2053.27 2712.68 2055.59 2712.54 2056.75 2713.12C2061.07 2708.81 2071.35 2707.32 2074.2 2700.91C2088.08 2669.67 2086.01 2617.82 2091.65 2584C2106.11 2497.23 2110.13 2410.5 2114.34 2322.27C2116.03 2286.75 2116.9 2253.56 2119.57 2217.58C2120.14 2209.89 2126.84 2197.23 2123.06 2189.66C2110.93 2165.4 2078.56 2147.16 2055.01 2130.34Z" fill="#d3746f" fill-rule="nonzero" opacity="1" stroke="none"/>
<path d="M3333.99 2597.96C3276.96 2612.22 3214.16 2615.46 3157.76 2624.13C3130 2628.4 3099.51 2620.37 3072.26 2624.13C3068.19 2624.69 3066.66 2630.18 3063.54 2632.86C3048.62 2645.64 3032.18 2652 3018.17 2666.01C3007.27 2676.91 2997.44 2692.37 2986.76 2700.91C2980.07 2706.26 2954.18 2720.48 2969.32 2730.57C2974.6 2734.09 2993.39 2722.7 2998.98 2721.84C3026.74 2717.57 3056.99 2721.55 3084.48 2723.59C3126.47 2726.7 3173.72 2730.54 3215.34 2725.33C3230.05 2723.49 3237.37 2705.48 3248.49 2695.67C3283.48 2664.8 3317.65 2638.89 3353.18 2608.43C3346.18 2601.42 3344.83 2603.57 3333.99 2597.96Z" fill="#e66429" fill-rule="nonzero" opacity="1" stroke="none"/>
<path d="M5091.06 2226.3C5071.08 2216.31 5045 2307.97 5038.72 2320.53C5008.83 2380.3 4973.78 2434.19 4911.34 2475.82C4925.12 2489.6 4933.21 2472.1 4946.24 2468.84C4974.85 2461.69 5024.46 2406.94 5035.23 2374.62C5043.2 2350.71 5053.07 2309.54 5068.38 2289.12C5101.71 2244.69 5221.05 2227.47 5263.8 2255.97C5305.5 2283.77 5298.23 2311.34 5323.13 2336.23C5334.74 2328.49 5333.33 2299.75 5335.34 2285.63C5342.08 2238.46 5361.68 2188.9 5317.9 2158.26C5297.47 2143.96 5266.94 2164.76 5248.1 2166.98C5218.41 2170.47 5187.3 2179.19 5157.37 2179.19C5146.37 2179.19 5140.91 2158.82 5127.71 2168.72C5115.08 2178.2 5101.61 2212.24 5091.06 2226.3Z" fill="#d2e7bf" fill-rule="nonzero" opacity="1" stroke="none"/>
<path d="M3956.91 2550.85C3894.1 2613.65 3880.35 2750.36 3958.65 2809.09C3991.03 2833.37 4041.89 2835.26 4082.54 2835.26C4102.3 2835.26 4121.3 2831.52 4136.63 2821.3C4127.95 2812.63 4112.2 2818.97 4099.98 2817.81C4075.32 2815.46 4048.59 2792.33 4033.68 2772.45C3998.08 2724.98 4007.95 2662.87 4012.74 2610.17C4013.74 2599.22 4031.88 2583.67 4030.19 2573.53C4028.62 2564.11 3970.53 2564.47 3956.91 2550.85Z" fill="#f7c0b8" fill-rule="nonzero" opacity="1" stroke="none"/>
<path d="M3908.05 1481.25C3935.51 1453.79 3951.02 1440.81 3986.57 1430.65C4150.91 1383.69 4221.94 1647.21 4127.9 1746.47C4081.69 1795.25 4051.7 1805.79 3983.08 1805.79C3974.7 1805.79 3953.38 1797.39 3946.44 1791.83C3926.1 1775.57 3894.17 1752.01 3887.11 1723.79C3883.48 1709.26 3879.55 1677.84 3869.66 1667.95C3858.91 1678.7 3868.74 1666.4 3864.43 1683.65C3862.93 1689.63 3852.49 1684.21 3846.98 1694.12C3832.22 1720.69 3917.72 1809.82 3928.99 1816.26C4009.92 1862.51 4087.17 1830.82 4148.84 1769.15C4158.52 1759.47 4179.51 1733.93 4181.99 1720.3C4190.68 1672.52 4197.52 1623.57 4195.95 1570.24C4195.07 1540.18 4177.04 1515.38 4169.78 1489.97C4165.6 1475.34 4148.61 1468.09 4138.37 1456.82C4129.5 1447.07 4112.8 1426.59 4099.98 1420.18C4094.24 1417.31 4086.76 1420.82 4080.79 1418.44C4047.44 1405.09 3979.32 1394.88 3949.93 1421.92C3936 1434.73 3922.93 1448.45 3909.79 1462.06C3898.95 1473.29 3899.14 1472.34 3908.05 1481.25Z" fill="#fa8d33" fill-rule="nonzero" opacity="1" stroke="none"/>
<path d="M3110.65 2437.43C3127.65 2454.43 3152.44 2453.9 3169.97 2475.82C3181.25 2470.18 3258.29 2477.96 3264.2 2489.78C3267.35 2496.09 3229.25 2506.9 3224.07 2508.97C3218.62 2511.15 3179.13 2522.29 3178.7 2528.17C3177.62 2542.67 3179.15 2557.25 3178.7 2571.79C3178.46 2579.41 3171.05 2592.43 3175.21 2599.7C3182.73 2612.87 3198.43 2603.76 3210.11 2606.68C3238.13 2613.69 3279.86 2613 3309.56 2608.43C3314.17 2607.72 3340.29 2604.74 3340.97 2597.96C3342.53 2582.32 3337.8 2566.5 3339.23 2550.85C3339.8 2544.49 3373.77 2547.71 3381.1 2540.38C3359.07 2518.35 3325.68 2502.27 3299.09 2484.54C3304.82 2478.82 3308.43 2482.19 3314.8 2475.82C3288.47 2449.49 3233.29 2444.13 3199.64 2442.67C3194.28 2442.43 3192.75 2432.84 3187.42 2432.2C3171.25 2430.24 3154.83 2432.86 3138.57 2433.94C3130.8 2434.46 3115.31 2432.77 3110.65 2437.43Z" fill="#fce561" fill-rule="nonzero" opacity="1" stroke="none"/>
<path d="M3260.71 3086.52C3275.85 3101.67 3378.2 3116.55 3400.3 3117.93C3417.71 3119.02 3435.2 3117.49 3452.64 3117.93C3479.62 3118.6 3501.83 3128.4 3527.67 3128.4C3607.52 3128.4 3690.09 3113.73 3766.72 3110.95C3871.67 3107.13 3971.57 3101.39 4077.3 3096.99C4132.95 3094.67 4190.19 3087.78 4244.81 3083.03C4258.18 3081.87 4275.44 3089.04 4284.94 3079.54C4283.78 3078.38 4283.09 3076.12 4281.45 3076.05C4254.72 3074.94 4227.92 3077.16 4201.19 3076.05C4186.54 3075.44 4168.99 3069.3 4152.33 3070.82C4140.03 3071.93 4119.64 3078.24 4108.71 3076.05C4060.78 3066.47 4005.5 3074.31 3953.42 3074.31C3850.9 3074.31 3745.18 3081.63 3644.58 3090.01C3598.39 3093.86 3549.63 3107.46 3501.5 3107.46C3441.77 3107.46 3381.01 3092.44 3321.78 3086.52C3305.52 3084.89 3271.63 3075.6 3260.71 3086.52Z" fill="#fbcd93" fill-rule="nonzero" opacity="1" stroke="none"/>
<path d="M2777.38 2838.75C2731.9 2840.49 2690.3 2847.31 2656.99 2880.63C2635.22 2902.39 2661.68 2952.9 2686.65 2959.15C2730.66 2970.15 2777.38 2960.89 2822.75 2960.89C2867.43 2960.89 2890.23 2897.63 2868.11 2866.67C2844.94 2834.22 2815.22 2837.3 2777.38 2838.75Z" fill="#a35318" fill-rule="nonzero" opacity="1" stroke="none"/>
<path d="M4660.08 2468.84C4655.12 2471.32 4657.51 2469.67 4653.1 2474.07C4670.06 2496.68 4678.45 2523.03 4689.75 2545.61C4691.78 2549.68 4698.19 2551.55 4698.47 2556.08C4701.96 2612.78 4693.78 2679.66 4693.24 2735.8C4692.67 2794.54 4693.61 2853.29 4693.24 2912.03C4692.99 2951.01 4677.02 2992.75 4691.49 3028.94C4696.52 3041.52 4726.52 3034.4 4728.13 3034.17C4734.91 3033.21 4733.37 3026.08 4733.37 3021.96C4733.37 2952.16 4733.54 2882.36 4735.11 2812.58C4736.67 2743.37 4737.3 2674.15 4738.6 2604.94C4738.93 2587.45 4742.09 2570.08 4742.09 2552.59C4742.09 2537.82 4715.93 2542.63 4708.94 2538.63C4691.94 2528.92 4674.23 2484.83 4660.08 2468.84Z" fill="#493842" fill-rule="nonzero" opacity="1" stroke="none"/>
<path d="M4084.28 2575.28C4014.36 2587.4 4018.14 2701.23 4042.4 2749.76C4070.87 2806.69 4124.92 2797.35 4145.35 2746.27C4151.53 2730.82 4156.18 2718.51 4157.56 2699.16C4158.83 2681.39 4162.35 2642.15 4148.84 2624.13C4139.44 2611.6 4133.34 2591.06 4115.69 2584C4105.05 2579.74 4097.07 2573.06 4084.28 2575.28Z" fill="#452111" fill-rule="nonzero" opacity="1" stroke="none"/>
<path d="M3361.91 2751.51C3359.51 2753.91 3355.72 2754.49 3353.18 2756.74C3343.35 2765.49 3334.33 2775.12 3325.27 2784.66C3283.71 2828.4 3262.48 2892.38 3225.81 2938.21C3206.4 2962.47 3200.89 2981.18 3231.04 2999.28C3234.74 3001.49 3244.28 3008 3248.49 3008C3261.7 3008 3281.8 2968.7 3288.62 2959.15C3315.2 2921.94 3341.68 2884.61 3370.63 2849.22C3379.66 2838.19 3384.25 2812.69 3395.06 2809.09C3395.06 2792.47 3392.88 2753.25 3361.91 2751.51Z" fill="#3ec6a9" fill-rule="nonzero" opacity="1" stroke="none"/>
<path d="M3325.27 1833.71C3298.92 1860.06 3247.77 1822.73 3218.83 1837.2C3207.41 1842.91 3215.71 1884.78 3211.85 1898.27C3200.82 1936.9 3167.38 1963.68 3142.06 1989C3148.16 1995.11 3148.16 1995.11 3154.27 2001.22C3164.22 1991.27 3157.54 1979.68 3176.95 1978.53C3195.53 1977.44 3214.35 1981.03 3232.79 1978.53C3238.1 1977.82 3239.75 1969.12 3245 1968.07C3296.8 1957.71 3327.47 1901.34 3330.5 1852.9C3330.97 1845.44 3330.74 1839.19 3325.27 1833.71Z" fill="#e8bb69" fill-rule="nonzero" opacity="1" stroke="none"/>
<path d="M4822.36 2610.17C4819.97 2609.54 4817.22 2612.94 4817.12 2615.41C4815.45 2656.67 4817.59 2698 4817.12 2739.29C4816.03 2835.01 4805.83 2932.38 4810.14 3027.19C4810.22 3028.86 4844.27 3038.2 4848.53 3037.66C4857.3 3036.57 4852.02 3019.65 4852.02 3013.24C4852.02 2969.03 4852.26 2924.83 4852.02 2880.63C4851.68 2818.97 4851.99 2757.3 4850.27 2695.67C4849.76 2677.03 4848.96 2658.36 4846.78 2639.84C4845.6 2629.8 4829.4 2628.61 4825.85 2622.39C4823.74 2618.71 4826.45 2611.25 4822.36 2610.17Z" fill="#493842" fill-rule="nonzero" opacity="1" stroke="none"/>
<path d="M3389.83 2807.34C3377.79 2807.31 3383.9 2822.69 3379.36 2831.77C3374.57 2841.34 3361.23 2853.73 3354.93 2861.43C3328.34 2893.93 3305.98 2930.32 3281.65 2964.38C3271.1 2979.14 3257.25 2992.25 3246.75 3006.26C3246.05 3007.19 3246.15 3008.75 3246.75 3009.75C3250.84 3016.56 3310.43 3017.63 3323.52 3018.47C3336.3 3019.3 3349.11 3020.75 3361.91 3020.22C3368.7 3019.93 3369.7 2988.46 3370.63 2966.12C3371.24 2951.54 3379.72 2936.67 3381.1 2924.25C3384.14 2896.9 3388.72 2870.74 3391.57 2842.24C3392.76 2830.34 3401.94 2807.38 3389.83 2807.34Z" fill="#0da9d6" fill-rule="nonzero" opacity="1" stroke="none"/>
<path d="M3632.36 3030.68C3648.51 3046.83 3735.09 3028.89 3756.25 3034.17C3812.21 3048.17 3895.26 3025.92 3955.16 3020.22C4041.54 3011.99 4127.25 3015.8 4213.4 3014.98C4273.31 3014.41 4333.23 3014.95 4393.12 3013.24C4394.76 3013.19 4395.45 3010.91 4396.61 3009.75C4382.26 2995.4 4350.79 3004.51 4330.31 3004.51C4291.91 3004.51 4253.5 3007.95 4215.14 3006.26C4211.86 3006.11 4211.02 3000.91 4208.17 2999.28C4205.48 2997.75 4170.92 2995.84 4169.78 2995.79C4146.54 2994.68 4123.24 2995.27 4099.98 2995.79C4093.67 2995.93 4088.71 2999.28 4082.54 2999.28C4030.19 2999.28 3977.83 2998.14 3925.5 2999.28C3920.33 2999.39 3906.33 3006.02 3901.07 3006.26C3876.09 3007.37 3850.96 3004.14 3826.04 3006.26C3822.76 3006.54 3822.28 3012.56 3819.06 3013.24C3810.96 3014.94 3780.37 3020.22 3770.21 3020.22C3722.75 3020.22 3683.04 3024.33 3635.85 3027.19C3634.21 3027.29 3633.53 3029.52 3632.36 3030.68Z" fill="#f4b195" fill-rule="nonzero" opacity="1" stroke="none"/>
<path d="M3777.19 720.492C3789.93 733.232 3811.64 716.195 3824.3 715.257C3867.87 712.029 3912.98 708.023 3953.42 704.788C3966.75 703.721 3980.21 705.855 3993.55 704.788C4000.49 704.232 3996.46 697.236 4004.02 704.788C3992.92 715.882 3981.16 726.164 3969.12 736.196C3970.86 738.813 3970.86 738.813 3972.61 741.43C3998.48 722.027 4023.09 699.678 4045.89 676.87C4048.61 674.155 4059.28 663.507 4056.36 657.677C4048.6 642.146 3988.31 653.88 3970.86 655.932C3928.04 660.97 3884.26 670.461 3843.49 678.615C3837.79 679.756 3831.03 675.623 3826.04 678.615C3818.11 683.375 3822.62 690.429 3815.57 696.064C3802.14 706.807 3790.33 709.541 3777.19 720.492Z" fill="#53669a" fill-rule="nonzero" opacity="1" stroke="none"/>
<path d="M2314.99 1987.26C2315.87 1989 2315.87 1989 2316.74 1990.75C2286.77 2020.71 2269.56 2013.16 2281.84 2062.29C2284.37 2072.39 2276.54 2090.19 2290.57 2093.7C2302.88 2096.78 2294.77 2075.77 2301.03 2069.27C2315.3 2054.46 2329.94 2040.01 2344.66 2025.65C2354.37 2016.16 2364.33 2006.92 2374.32 1997.73C2382.63 1990.08 2396.34 1970.35 2409.22 1976.79C2418.03 1967.97 2431.86 1943.32 2430.15 1929.68C2428.47 1916.21 2402.77 1902.98 2417.94 1887.8C2408.58 1873.76 2394.56 1902.95 2388.28 1910.49C2365.05 1938.36 2345.42 1966.98 2314.99 1987.26Z" fill="#e66429" fill-rule="nonzero" opacity="1" stroke="none"/>
<path d="M3135.08 1755.19C3140.71 1760.83 3151.68 1761.31 3159.51 1763.92C3170.84 1767.69 3185.89 1783.33 3192.66 1790.09C3198.48 1795.91 3217.94 1842.35 3220.58 1842.44C3254.3 1843.54 3288.11 1842.9 3321.78 1840.69C3324.24 1840.53 3325.27 1837.2 3327.01 1835.46C3286.92 1755.27 3253.46 1751.7 3166.48 1751.7C3155.95 1751.7 3142.53 1747.74 3135.08 1755.19Z" fill="#fa8d33" fill-rule="nonzero" opacity="1" stroke="none"/>
<path d="M3820.81 675.126C3748.51 711.276 3705.27 783.685 3649.81 839.142C3626.72 862.228 3580.46 894.092 3567.8 919.406C3576.86 928.466 3610.29 919.813 3621.89 919.406C3684.19 917.22 3746.47 917.828 3808.59 912.426C3814.22 911.937 3846.25 913.156 3852.21 907.192C3839.17 889.795 3801.08 898.094 3782.42 898.467C3728.92 899.537 3675.4 900.781 3621.89 900.212C3620.25 900.195 3619.57 897.886 3618.4 896.723C3647.25 867.88 3675.46 838.541 3702.16 807.735C3727.23 778.807 3747.64 743.094 3778.93 722.237C3792.43 713.235 3835.44 697.074 3820.81 675.126Z" fill="#c6d1dc" fill-rule="nonzero" opacity="1" stroke="none"/>
<path d="M5344.07 1999.47C5313.28 2030.26 5387.11 2125.5 5405.14 2149.53C5409.56 2155.43 5420.56 2190.07 5431.31 2187.92C5446.31 2184.92 5430.89 2115.06 5445.27 2100.67C5453.66 2107.39 5456.88 2112.86 5462.72 2121.61C5475.7 2108.64 5450.78 2057 5436.55 2051.82C5413.06 2043.28 5408.77 2061.22 5384.2 2044.84C5382.45 2046.58 5382.45 2046.58 5380.71 2048.33C5366.05 2033.67 5355.51 2016.64 5344.07 1999.47Z" fill="#dc5f4a" fill-rule="nonzero" opacity="1" stroke="none"/>
<path d="M4079.05 2995.79C4089.65 3006.39 4084.85 3001.6 4098.24 3001.02C4122.07 2999.99 4145.93 2998.72 4169.78 2999.28C4176.65 2999.44 4196.02 3007.09 4204.68 3002.77C4207 3005.09 4208.37 3009.56 4211.65 3009.75C4249.4 3011.93 4287.27 3009.75 4325.07 3009.75C4377.58 3009.75 4424.6 3003.77 4476.87 3001.02C4478.52 3000.94 4479.2 2998.7 4480.36 2997.53C4472.15 2989.32 4478.48 2985.45 4485.6 2978.34C4474.38 2967.12 4402.63 2966.13 4387.89 2967.87C4313.81 2976.58 4237.49 2989.31 4162.8 2990.55C4136.04 2991 4109.24 2990.63 4082.54 2992.3C4080.89 2992.4 4080.21 2994.62 4079.05 2995.79Z" fill="#f7c0b8" fill-rule="nonzero" opacity="1" stroke="none"/>
<path d="M2709.33 2781.17C2681.19 2784.3 2645.52 2792.64 2625.58 2812.58C2616.68 2821.48 2621.13 2843.52 2634.3 2847.47C2658.52 2854.74 2664.56 2843.8 2681.41 2838.75C2707.36 2830.97 2746.9 2829.48 2772.15 2828.28C2786.86 2827.58 2803.52 2829.47 2815.77 2821.3C2804.38 2798.53 2773.89 2787.45 2709.33 2781.17Z" fill="#61b469" fill-rule="nonzero" opacity="1" stroke="none"/>
<path d="M3904.56 2645.07C3891.41 2658.22 3900 2686.01 3895.84 2702.65C3882.73 2755.07 3913.6 2826.36 3963.88 2849.22C4006.16 2868.43 4072.7 2860.43 4110.45 2835.26C4095.75 2820.56 4059.31 2831.77 4042.4 2831.77C4011.05 2831.77 3967.78 2816.47 3944.69 2793.38C3920.05 2768.74 3912.22 2728.37 3909.79 2695.67C3909.4 2690.39 3914.15 2649.87 3904.56 2645.07Z" fill="#fa8d33" fill-rule="nonzero" opacity="1" stroke="none"/>
<path d="M4747.33 2495.01C4774.21 2535.33 4806.02 2586.01 4822.36 2624.13C4825.63 2631.77 4841.76 2632.19 4843.29 2639.84C4846.72 2656.95 4842.21 2674.77 4843.29 2692.18C4847.18 2754.3 4846.44 2816.64 4846.78 2878.88C4847.03 2923.67 4846.83 2968.48 4848.53 3013.24C4848.59 3014.88 4850.85 3015.56 4852.02 3016.73C4853.18 3015.56 4855.46 3014.88 4855.51 3013.24C4856.64 2973.7 4854.95 2934.13 4855.51 2894.59C4856.75 2806.68 4859.76 2714.53 4860.74 2625.88C4860.85 2615.84 4858.88 2603.31 4865.98 2596.21C4856.25 2581.62 4833.26 2591.17 4820.61 2585.75C4813.39 2582.65 4807.37 2569.37 4803.16 2563.06C4793.9 2549.17 4761.41 2480.93 4747.33 2495.01Z" fill="#705943" fill-rule="nonzero" opacity="1" stroke="none"/>
<path d="M3187.42 2435.69C3196.26 2453.36 3219.09 2444.01 3236.28 2446.16C3253.74 2448.34 3294.21 2460.47 3307.82 2474.07C3305.14 2476.75 3289.77 2477.73 3293.86 2484.54C3298.42 2492.15 3376.71 2542.89 3381.1 2543.87C3387.59 2545.31 3422.98 2539.04 3422.98 2528.17C3422.98 2509.66 3399.65 2495.32 3384.59 2486.29C3344.52 2462.25 3292.08 2438.1 3245 2433.94C3228.16 2432.46 3211.3 2431 3194.4 2430.45C3192 2430.38 3188.6 2434.51 3187.42 2435.69Z" fill="#fbba3a" fill-rule="nonzero" opacity="1" stroke="none"/>
<path d="M2864.62 2952.17C2860.28 2956.51 2863.9 2969.45 2857.64 2969.61C2815.2 2970.75 2772.72 2970.17 2730.27 2969.61C2715.04 2969.42 2678.21 2967.58 2667.46 2978.34C2679.88 2990.77 2711.93 2991.02 2728.53 2994.04C2768.76 3001.36 2816.09 3002.45 2854.16 3016.73C2867.11 3021.58 2885.27 3029.09 2899.52 3021.96C2887.98 3010.42 2870.66 2991.39 2868.11 2974.85C2866.95 2967.29 2870.03 2957.58 2864.62 2952.17Z" fill="#ad7e79" fill-rule="nonzero" opacity="1" stroke="none"/>
<path d="M4302.39 505.874C4287.71 517.133 4274.66 514.017 4267.49 535.537C4263.67 546.995 4262.39 560.512 4265.75 573.924C4267.56 581.172 4269.46 592.51 4274.47 598.352C4292.1 618.922 4328.19 624.584 4340.77 593.117C4354.76 558.145 4338.19 532.952 4314.6 509.364C4311.48 506.239 4305.54 503.459 4302.39 505.874Z" fill="#f94728" fill-rule="nonzero" opacity="1" stroke="none"/>
<path d="M4082.54 2577.02C4095.24 2589.73 4116.09 2584.4 4131.39 2599.7C4174.57 2642.88 4153.5 2724.73 4131.39 2768.96C4146.44 2784.01 4175.86 2739.42 4178.5 2723.59C4182.84 2697.54 4185.48 2672.16 4185.48 2645.07C4185.48 2603.91 4123.51 2536.04 4082.54 2577.02Z" fill="#ae3328" fill-rule="nonzero" opacity="1" stroke="none"/>
<path d="M5132.94 2618.9C5119.74 2632.1 5102.04 2614.9 5089.32 2627.62C5100.26 2649.51 5120.9 2650.48 5139.92 2669.5C5147.07 2676.65 5139.54 2691.24 5143.41 2700.91C5146.01 2707.41 5154.95 2710.04 5157.37 2716.61C5159.78 2723.16 5156.38 2730.64 5157.37 2737.55C5158.01 2742.05 5163.66 2744.48 5167.84 2746.27C5183.98 2753.19 5196.82 2721.45 5200.99 2713.12C5201.73 2711.65 5203.32 2710.79 5204.48 2709.63C5197.05 2694.77 5180.89 2666.93 5188.78 2653.79C5184.99 2650.01 5155.31 2630.4 5153.88 2631.11C5146.69 2623.92 5140.85 2622.85 5132.94 2618.9Z" fill="#e8bb69" fill-rule="nonzero" opacity="1" stroke="none"/>
<path d="M2246.94 1905.25C2241.21 1910.99 2239.99 1919.16 2236.48 1926.19C2215.23 1968.69 2206.65 1953.79 2229.5 1999.47C2234.86 2010.2 2269.07 2054.68 2281.84 2029.14C2292.51 2007.81 2281.84 1981.44 2281.84 1957.6C2281.84 1944.25 2285.75 1922.09 2278.35 1912.23C2266.66 1923.93 2258.94 1913.25 2246.94 1905.25Z" fill="#fa9f53" fill-rule="nonzero" opacity="1" stroke="none"/>
<path d="M3077.5 1753.45C3084.98 1760.93 3102.78 1757.18 3114.14 1760.43C3124.1 1763.27 3134.71 1773.25 3142.06 1779.62C3213.24 1841.31 3191.11 1916.61 3124.61 1969.81C3139.7 1984.9 3177.28 1940.2 3182.19 1927.93C3188.76 1911.5 3196.65 1854.15 3197.89 1852.9C3197.02 1851.16 3197.02 1851.16 3196.15 1849.42C3204.36 1841.2 3208.23 1847.54 3215.34 1854.65C3227.64 1842.35 3211.92 1813.3 3203.13 1802.3C3168.28 1758.74 3137.92 1746.16 3080.99 1749.96C3079.35 1750.07 3078.66 1752.28 3077.5 1753.45Z" fill="#110d14" fill-rule="nonzero" opacity="1" stroke="none"/>
<path d="M3194.4 1852.9C3184.5 1862.81 3192.58 1880.87 3190.91 1894.78C3186.54 1931.23 3129.18 1995.65 3084.48 1973.3C3082.73 1975.05 3082.73 1975.05 3080.99 1976.79C3086.42 1982.22 3110.96 1981.81 3112.39 1989C3116.46 2009.35 3102.36 2032.41 3108.9 2055.31C3111.69 2065.07 3124.68 2095.36 3138.57 2081.48C3121.3 2061.74 3106.49 2022.18 3122.86 1995.98C3130.58 1983.64 3139.51 1993.68 3149.04 1985.51C3170.6 1967.03 3195.42 1947.2 3206.62 1919.21C3214.69 1899.03 3219.95 1877.13 3218.83 1854.65C3218.2 1841.97 3185.52 1835.14 3194.4 1852.9Z" fill="#293131" fill-rule="nonzero" opacity="1" stroke="none"/>
<path d="M3210.11 2299.59C3180.43 2300.49 3150.28 2297.52 3121.12 2303.08C3107.93 2305.59 3117.02 2329.8 3117.63 2343.21C3118.51 2362.64 3107.94 2367.3 3135.08 2369.38C3148.26 2370.4 3138.36 2376.13 3159.51 2372.87C3178.45 2369.96 3154.54 2332.87 3162.99 2331C3202.39 2322.24 3237.06 2327.36 3269.43 2303.08C3267.69 2301.33 3267.69 2301.33 3210.11 2299.59Z" fill="#0796c2" fill-rule="nonzero" opacity="1" stroke="none"/>
<path d="M2658.73 2946.93C2675.77 2929.89 2625.44 2875.86 2690.14 2859.69C2734.79 2848.53 2776.87 2842.24 2824.49 2842.24C2834.66 2842.24 2843.83 2849.08 2852.41 2840.49C2835.72 2823.8 2794.49 2825.76 2772.15 2824.79C2748.21 2823.75 2702.72 2826.41 2677.92 2835.26C2672.1 2837.34 2669.5 2844.71 2663.97 2847.47C2619.89 2869.51 2626.89 2915.09 2658.73 2946.93Z" fill="#fa8d33" fill-rule="nonzero" opacity="1" stroke="none"/>
<path d="M3487.54 1052.01C3501.04 1065.52 3529.08 1053.76 3546.86 1053.76C3560.21 1053.76 3585.95 1057.76 3600.95 1053.76C3616.91 1049.5 3580.81 998.979 3574.78 990.945C3577.4 987.455 3577.4 987.455 3580.02 983.965C3557.42 961.374 3496.65 1033.8 3487.54 1052.01Z" fill="#494d62" fill-rule="nonzero" opacity="1" stroke="none"/>
<path d="M2838.45 2845.73C2847.09 2854.37 2854.61 2853.31 2864.62 2866.67C2880.98 2888.47 2873.98 2946.8 2838.45 2953.91C2790.53 2963.49 2740.75 2957.4 2691.88 2957.4C2681.78 2957.4 2691.34 2950.97 2681.41 2960.89C2689.68 2969.16 2704.81 2962.29 2716.31 2964.38C2720.92 2965.22 2723.84 2971.3 2728.53 2971.36C2772.73 2971.92 2816.93 2973.67 2861.13 2973.1C2862.78 2973.08 2864.23 2971.21 2864.62 2969.61C2869.25 2951.12 2885.44 2919.13 2899.52 2905.05C2896.28 2898.56 2899.32 2888.84 2896.03 2880.63C2889.67 2864.72 2855.23 2828.96 2838.45 2845.73Z" fill="#cf763c" fill-rule="nonzero" opacity="1" stroke="none"/>
<path d="M3414.25 2531.65C3402.72 2534.03 3336.46 2543.02 3335.74 2547.36C3325.39 2609.42 3356.79 2620.59 3405.53 2599.7C3407.36 2598.92 3429.02 2528.62 3414.25 2531.65Z" fill="#0da9d6" fill-rule="nonzero" opacity="1" stroke="none"/>
<path d="M3196.15 2193.15C3190.94 2198.36 3161.94 2195.8 3159.51 2201.88C3156.15 2210.27 3159.25 2226.73 3154.27 2235.03C3140.33 2258.26 3129.65 2279.39 3105.41 2299.59C3154.49 2348.66 3224.39 2221.39 3196.15 2193.15Z" fill="#e72f27" fill-rule="nonzero" opacity="1" stroke="none"/>
<path d="M4393.12 2505.48C4367.95 2512.52 4387.89 2547.82 4387.89 2577.02C4387.89 2581.26 4383.8 2585.04 4384.4 2589.24C4386.49 2603.87 4451.1 2570.86 4452.45 2564.81C4454.34 2556.29 4452.73 2547.35 4452.45 2538.63C4452.44 2538.57 4456.97 2512.11 4447.21 2507.23C4434.22 2500.73 4411.5 2500.34 4393.12 2505.48Z" fill="#fa8d33" fill-rule="nonzero" opacity="1" stroke="none"/>
<path d="M5248.1 2118.12C5213.55 2129.64 5065.86 2110.37 5122.47 2166.98C5129.29 2173.79 5137.85 2168.39 5146.9 2177.45C5179.16 2161.32 5199.31 2149.87 5235.89 2142.55C5244.38 2140.85 5253.34 2132.18 5248.1 2118.12Z" fill="#ae3328" fill-rule="nonzero" opacity="1" stroke="none"/>
<path d="M2520.89 2702.65C2490.81 2718.28 2491.22 2764.99 2491.22 2800.36C2491.22 2803.44 2491.91 2850.89 2510.42 2837.01C2531.38 2821.29 2518.97 2800.81 2524.38 2775.94C2525.08 2772.72 2530.6 2772.16 2531.36 2768.96C2533.09 2761.6 2531.13 2753.83 2531.36 2746.27C2531.7 2734.46 2540.53 2692.44 2520.89 2702.65Z" fill="#61b469" fill-rule="nonzero" opacity="1" stroke="none"/>
<path d="M3175.21 2468.84C3163.05 2474.92 3179.88 2527.24 3182.19 2528.17C3184.9 2529.25 3269.01 2495.43 3269.43 2495.01C3257.35 2470.85 3205.52 2470.77 3175.21 2468.84Z" fill="#fceeae" fill-rule="nonzero" opacity="1" stroke="none"/>
<path d="M2112.59 1915.72C2099.71 1915.44 2095.44 1936.89 2082.93 1941.89C2073.38 1945.71 2064.74 1943.05 2056.75 1952.36C2043.67 1967.63 2099.77 2001.6 2114.34 2006.45C2128.3 2011.11 2121.63 1977.55 2121.31 1962.83C2120.97 1946.86 2128.56 1916.07 2112.59 1915.72Z" fill="#ace4d4" fill-rule="nonzero" opacity="1" stroke="none"/>
<path d="M2662.22 2934.72C2635.17 2961.77 2584.68 2934.13 2548.8 2955.66C2556.98 2963.83 2600.46 2961.69 2609.87 2962.63C2624.56 2964.1 2652.79 2974.5 2667.46 2981.83C2674.29 2974.99 2721.14 2972.18 2723.29 2967.87C2728.09 2958.28 2702.4 2962.99 2691.88 2960.89C2682.26 2958.97 2667.43 2942.53 2662.22 2934.72Z" fill="#d3746f" fill-rule="nonzero" opacity="1" stroke="none"/>
<path d="M5118.98 2133.83C5139.25 2133.83 5232.76 2136.96 5249.85 2119.87C5231.34 2101.36 5197.95 2111.07 5173.07 2104.16C5167.47 2102.61 5143.49 2084.69 5134.68 2088.46C5128.01 2091.32 5116.6 2126.69 5118.98 2133.83Z" fill="#fa8d33" fill-rule="nonzero" opacity="1" stroke="none"/>
<path d="M4009.25 2650.31C4004.65 2654.9 4006.92 2663.1 4005.76 2669.5C3997.54 2714.73 4015.3 2746.62 4040.66 2784.66C4053.99 2773.55 4047.58 2778.77 4059.85 2768.96C4052.37 2757.73 4043.46 2747.18 4038.91 2735.8C4028.27 2709.19 4035.73 2669.81 4016.23 2650.31C4014.49 2652.05 4014.49 2652.05 4012.74 2653.79C4011 2652.05 4011 2652.05 4009.25 2650.31Z" fill="#f6fdfa" fill-rule="nonzero" opacity="1" stroke="none"/>
<path d="M4045.89 1114.83C4012.03 1128.58 4035.75 1189.56 4070.32 1184.62C4099.87 1180.4 4096.61 1118.33 4068.58 1114.83C4061.07 1113.89 4052.9 1111.99 4045.89 1114.83Z" fill="#494d62" fill-rule="nonzero" opacity="1" stroke="none"/>
<path d="M3185.68 2433.94C3187.42 2435.69 3187.42 2435.69 3189.17 2437.43C3201.41 2431.31 3197.16 2427.65 3197.89 2413C3199.15 2387.83 3182.91 2379.17 3162.99 2365.89C3151.52 2377.37 3133.02 2362.97 3119.37 2365.89C3100.6 2369.92 3120.25 2406.9 3129.84 2409.51C3147.4 2414.3 3207.19 2390.92 3185.68 2433.94Z" fill="#4bd0ce" fill-rule="nonzero" opacity="1" stroke="none"/>
<path d="M5031.74 2119.87C5029.12 2122.49 5029.12 2122.49 5026.5 2125.1C5062.46 2161.06 5104.65 2109.03 5066.64 2071.01C5058.79 2063.16 5020 2068.16 5023.01 2083.23C5025.34 2094.86 5044.18 2087 5045.7 2100.67C5046.61 2108.91 5043.24 2125.62 5031.74 2119.87Z" fill="#110d14" fill-rule="nonzero" opacity="1" stroke="none"/>
<path d="M4204.68 2636.35C4190.67 2650.35 4201.72 2675.87 4201.19 2695.67C4200.93 2704.98 4196.62 2718.75 4192.46 2727.08C4201.07 2735.69 4205.8 2742.16 4213.4 2749.76C4230.92 2732.25 4232.16 2670.48 4230.85 2652.05C4230.16 2642.35 4212.93 2646.66 4208.17 2645.07C4208.17 2638.19 4209.4 2641.07 4204.68 2636.35Z" fill="#faf1d7" fill-rule="nonzero" opacity="1" stroke="none"/>
<path d="M2281.84 1917.46C2270.61 1928.69 2280.1 1939.75 2280.1 1955.85C2280.1 1977.38 2266.62 2005.19 2281.84 2020.41C2293.02 2009.23 2309.84 2001.37 2321.97 1990.75C2300.9 1969.67 2299.02 1940.37 2281.84 1917.46Z" fill="#f86c4d" fill-rule="nonzero" opacity="1" stroke="none"/>
<path d="M2288.82 1933.17C2298.91 1953.34 2301.27 1970.44 2316.74 1989C2331.69 1981.53 2349.44 1966.12 2358.62 1952.36C2350.57 1944.32 2299.18 1922.81 2288.82 1933.17Z" fill="#c6d1dc" fill-rule="nonzero" opacity="1" stroke="none"/>
<path d="M4429.76 1325.96C4422.58 1333.14 4425.77 1337.68 4415.8 1345.15C4414.06 1343.41 4414.06 1343.41 4412.31 1341.66C4390.36 1363.61 4431.32 1382.99 4436.74 1399.24C4438.98 1405.95 4435.23 1415.18 4440.23 1420.18C4461.74 1398.67 4445.31 1373.23 4436.74 1350.39C4433.67 1342.19 4436.51 1332.7 4429.76 1325.96Z" fill="#e66429" fill-rule="nonzero" opacity="1" stroke="none"/>
<path d="M3157.76 1990.75C3135.8 2012.71 3180.78 2064.39 3152.53 2083.23C3177.73 2114.74 3234.38 2075.14 3197.89 2060.54C3186.86 2056.13 3179.99 2067.37 3169.97 2064.03C3169.97 2047.17 3171.23 2004.22 3157.76 1990.75Z" fill="#3d7f92" fill-rule="nonzero" opacity="1" stroke="none"/>
<path d="M3121.12 2088.46C3119.37 2090.21 3114.75 2093.79 3115.88 2097.19C3117.68 2102.56 3139.38 2115.45 3142.06 2118.12C3151.08 2127.15 3148.52 2140.05 3161.25 2144.3C3161.25 2161.41 3158.51 2160.75 3168.23 2170.47C3176.04 2162.66 3180.12 2151.6 3187.42 2144.3C3171.04 2111.54 3145.67 2106.87 3121.12 2088.46Z" fill="#e72f27" fill-rule="nonzero" opacity="1" stroke="none"/>
<path d="M3433.45 2521.19C3430.83 2523.8 3430.83 2523.8 3428.21 2526.42C3419.05 2521.84 3401.8 2588.53 3403.79 2594.47C3407.31 2605.05 3435.85 2602.37 3436.94 2590.98C3439.03 2568.98 3438.04 2546.75 3436.94 2524.68C3436.86 2523.03 3434.61 2522.35 3433.45 2521.19Z" fill="#5dcbf3" fill-rule="nonzero" opacity="1" stroke="none"/>
<path d="M2276.61 1879.08C2266.46 1889.22 2256.19 1897.84 2245.2 1907C2261.66 1923.45 2259.32 1915.3 2276.61 1917.46C2285.56 1918.58 2285.88 1930.23 2290.57 1934.91C2296.21 1929.27 2297.8 1931.16 2302.78 1926.19C2289.74 1913.15 2289.04 1888.41 2276.61 1879.08Z" fill="#efa278" fill-rule="nonzero" opacity="1" stroke="none"/>
<path d="M2765.17 2725.33C2749.15 2734.66 2702.03 2757.31 2763.42 2760.23C2768.11 2760.45 2772.77 2762.82 2777.38 2761.98C2792.96 2759.14 2773.29 2720.6 2765.17 2725.33Z" fill="#87ce51" fill-rule="nonzero" opacity="1" stroke="none"/>
<path d="M2554.04 1812.77C2530.07 1829.65 2571.13 1844.25 2588.94 1840.69C2604.64 1837.55 2589.29 1813.84 2580.21 1812.77C2571.55 1811.75 2561.17 1807.75 2554.04 1812.77Z" fill="#fa8d33" fill-rule="nonzero" opacity="1" stroke="none"/>
<path d="M5029.99 2086.72C5000.98 2096.39 5023.2 2114.82 5033.48 2125.1C5046.9 2118.39 5061.04 2088.46 5029.99 2086.72Z" fill="#e1e2e0" fill-rule="nonzero" opacity="1" stroke="none"/>
<path d="M4422.78 1310.25C4414.89 1318.15 4423.44 1307.95 4419.29 1322.47C4417.25 1329.61 4401.93 1338.5 4396.61 1345.15C4401.58 1350.12 4399.19 1347.27 4403.59 1353.88C4413.33 1346.08 4408.98 1345.23 4415.8 1348.64C4426.01 1338.44 4438.79 1326.26 4422.78 1310.25Z" fill="#f86c4d" fill-rule="nonzero" opacity="1" stroke="none"/>
<path d="M3012.94 1268.38C3011.19 1270.12 3011.19 1270.12 3009.45 1271.87C3011.19 1273.61 3011.19 1273.61 3012.94 1275.36C3014.68 1273.61 3014.68 1273.61 3016.43 1271.87C3014.68 1270.12 3014.68 1270.12 3012.94 1268.38Z" fill="#000000" fill-rule="nonzero" opacity="1" stroke="none"/>
</g>
</g>
</svg>
