<?xml version="1.0" encoding="UTF-8" standalone="no"?>
<!DOCTYPE svg PUBLIC "-//W3C//DTD SVG 1.1//EN" "http://www.w3.org/Graphics/SVG/1.1/DTD/svg11.dtd">
<!-- Created with Vectornator (http://vectornator.io/) -->
<svg height="100%" stroke-miterlimit="10" style="fill-rule:nonzero;clip-rule:evenodd;stroke-linecap:round;stroke-linejoin:round;" version="1.1" viewBox="0 0 7680 4320" width="100%" xml:space="preserve" xmlns="http://www.w3.org/2000/svg" xmlns:xlink="http://www.w3.org/1999/xlink">
<defs/>
<g id="Ebene-1">
<g opacity="1">
<path d="M3669 674.557C3670.2 676.955 3670.2 676.955 3671.4 679.352C3636.96 713.797 3614.17 775.681 3597.08 818.409C3574.56 874.692 3533.22 920.507 3510.77 976.647C3507.41 985.041 3495.67 986.297 3491.59 995.827C3473.21 1038.7 3432.7 1076.96 3405.27 1118.1C3281.68 1303.5 3164.75 1490.05 3187.1 1724.68C3192.17 1777.9 3197.03 1849.92 3225.46 1897.3C3262.39 1958.84 3290.24 2019.15 3342.94 2077.12C3340.54 2079.51 3340.54 2079.51 3338.14 2081.91C3293.12 2036.88 3297.38 2045.95 3249.43 2093.9C3237.84 2105.49 3226.76 2117.61 3215.87 2129.86C3165.27 2186.78 3115.79 2295.72 3124.76 2372.01C3127.39 2394.32 3128.81 2456.48 3148.74 2463.12C3148.74 2491.59 3187.16 2522.72 3182.3 2551.83C3161.86 2674.51 3184.16 2794.68 3247.04 2899.47C3263.64 2927.14 3294.13 2973.09 3323.76 2985.78C3357.17 3000.1 3391.55 3000.3 3426.85 3007.36C3431.29 3008.25 3432.68 3014.44 3436.44 3016.95C3446.44 3023.61 3460.46 3018.02 3472.41 3019.35C3539.18 3026.77 3598.29 3030.12 3647.43 2980.99C3660.99 2967.42 3648.06 2942.62 3647.43 2923.45C3644.38 2832.01 3648.64 2741.55 3652.22 2650.13C3656.62 2537.86 3770.03 2441.56 3824.84 2345.64C3841.44 2316.59 3853.93 2278.2 3877.59 2254.53C3903.96 2272.12 3930.75 2327.28 3944.72 2355.23C3992.68 2451.16 4060.03 2546.81 4136.52 2630.95C4212.32 2714.32 4272.48 2756.68 4345.11 2647.73C4384.05 2673.69 4364.64 2827.24 4369.08 2853.92C4371.48 2868.29 4384.04 2850.16 4388.26 2853.92C4413.78 2876.6 4445.47 2908.55 4464.99 2937.83C4481.84 2920.98 4569.97 2919.84 4596.85 2916.25C4653.03 2908.76 4717.27 2845.64 4740.7 2798.77C4782.21 2715.75 4800.64 2636.07 4800.64 2532.65C4800.64 2507.84 4787.64 2484.74 4781.46 2463.12C4768.57 2418 4755.47 2379.89 4731.11 2336.05C4727.95 2330.35 4726.2 2282.94 4721.52 2268.92C4692.7 2182.46 4685.61 2089.26 4656.79 2002.79C4636.08 1940.66 4606.45 1888.53 4572.87 1832.57C4558 1807.77 4532.21 1788.38 4517.73 1763.04C4510.76 1750.83 4537.38 1743.25 4532.12 1736.67C4526.47 1729.61 4518.98 1724.21 4512.94 1717.49C4508.18 1712.21 4508.01 1706.63 4500.95 1703.1C4496.54 1707.51 4489.1 1711.25 4488.96 1717.49C4488.2 1751.04 4491.87 1784.74 4488.96 1818.18C4488.57 1822.69 4480.22 1823.33 4479.37 1827.77C4473.83 1856.86 4479.33 1883.03 4469.78 1911.69C4443.88 1989.39 4407.41 2057.98 4357.1 2122.67C4330.05 2157.45 4318.63 2213.88 4287.57 2244.94C4285.17 2242.55 4285.17 2242.55 4282.77 2240.15C4302.96 2199.78 4345.7 2123.26 4306.75 2084.31C4368.52 1991.65 4351.36 1929.88 4366.69 1813.39C4367.28 1808.9 4375.94 1808.31 4376.28 1803.8C4385.65 1679.56 4368.91 1583.61 4323.53 1477.73C4316.56 1461.46 4312.36 1438.87 4301.95 1424.99C4288.14 1406.57 4270.06 1430.12 4256.4 1427.38C4241.03 1424.31 4153.27 1314.56 4146.11 1285.93C4139.04 1257.65 4121.92 1230.15 4112.55 1202.02C4101.24 1168.1 4096.64 1127.05 4081.38 1096.52C4072.8 1079.36 4076.87 1048.03 4071.79 1029.39C4054.79 967.06 4056.33 898.615 4050.21 832.795C4047.01 798.414 4035.58 751.641 4033.43 712.918C4024.05 544.144 4025.89 376.257 4021.44 207.038C4021.38 204.778 4018.24 203.841 4016.65 202.243C4017.85 199.845 4017.85 199.845 4019.04 197.448C4000.88 179.288 4028.32 94.3016 3985.48 87.1608C3962.61 83.3503 3960.71 126.291 3956.71 142.304C3944.03 193.007 3928.29 253.601 3901.56 298.144C3873.26 345.325 3844.62 399.15 3812.86 446.791C3788.7 483.026 3750.12 520.909 3733.74 561.873C3724.13 585.897 3702.24 610.365 3688.18 633.799C3680.4 646.779 3679.48 664.076 3669 674.557Z" fill="#f5ab2e" fill-rule="nonzero" opacity="1" stroke="none"/>
<path d="M3743.33 3024.14C3590.27 3177.2 3467.12 3347.02 3357.32 3530.02C3318.1 3595.39 3290.09 3669.22 3247.04 3726.62C3173.64 3824.48 3200.23 3978.38 3062.43 4033.51C2960.99 4074.08 2843.43 4013.76 2789.11 3923.22C2766.72 3885.91 2758.81 3825.32 2762.73 3784.16C2762.99 3781.49 2776.92 3719.01 2745.95 3736.21C2666.78 3780.19 2536.63 3932.16 2578.12 4035.9C2602.69 4097.33 2716.53 4128.66 2774.72 4134.2C2867.91 4143.08 3050.74 4131.84 3124.76 4067.07C3174.31 4023.72 3197.08 3970.4 3223.06 3918.42C3248.92 3866.7 3309.69 3826.09 3352.53 3788.96C3410.58 3738.65 3475.63 3692.23 3529.95 3637.91C3537.4 3630.46 3566.28 3591.55 3580.29 3597.15C3596.37 3603.58 3602.92 3717.47 3606.67 3736.21C3618.03 3793.02 3639.47 3852.99 3661.81 3908.83C3665.02 3916.86 3674.6 3921.92 3676.2 3930.41C3677.96 3939.84 3673.49 3949.98 3676.2 3959.18C3682.12 3979.32 3734.64 4003.55 3743.33 4038.3C3749.73 4063.92 3759.56 4152.83 3760.11 4153.38C3774.84 4138.66 3750.96 4109.7 3772.1 4100.64C3781.24 4096.72 3801.36 4106.69 3810.46 4107.83C3842.58 4111.84 3876.41 4115.02 3908.76 4115.02C3984.61 4115.02 4039.72 4089.55 4093.37 4035.9C4148.17 3981.1 4142.09 3895.7 4143.72 3824.92C4144.6 3786.44 4126.09 3737.06 4153.31 3709.84C4176.89 3733.43 4195.57 3772.34 4220.44 3798.55C4393.66 3981.13 4567.63 4206.31 4829.41 4230.1C4983.17 4244.08 5127.53 4210.71 5227.4 4088.65C5285.05 4018.2 5308.39 3920.29 5239.39 3851.29C5235.57 3847.48 5219.13 3834.04 5215.41 3848.9C5197.18 3921.84 5196.27 3964.37 5145.89 4023.92C5082.13 4099.26 4961.3 4119.84 4889.35 4047.89C4798.5 3957.04 4727.81 3844.29 4642.4 3748.2C4533.65 3625.85 4416.75 3512.11 4294.76 3402.95C4248.45 3361.52 4194.63 3329.8 4148.51 3287.87C4134.71 3275.32 4120.95 3262.7 4107.75 3249.51C4100.41 3242.17 4099.6 3236.8 4088.57 3242.32C4070.93 3224.68 4083.4 3220.37 4071.79 3208.75C4078.18 3199.16 4074.19 3203.16 4083.78 3196.77C4066.13 3179.11 4030.66 3179.61 4011.85 3160.8C4006.98 3163.24 3997.08 3164.35 3995.07 3170.39C3990.34 3184.57 4003.31 3205.25 4007.06 3218.34C4020.74 3266.22 4035.83 3312.67 4035.83 3362.2C4035.83 3412.55 4034.79 3462.9 4033.43 3513.24C4033.04 3527.81 4022.99 3541.37 4023.84 3551.6C4031.92 3648.58 4043.02 3739.78 4043.02 3839.31C4043.02 3861.95 4023.27 3892.62 4007.06 3908.83C3984.59 3931.3 3943.15 3936.89 3913.55 3940C3787.42 3953.28 3652.44 3830.27 3666.61 3709.84C3670.63 3675.66 3667.55 3651.35 3692.98 3625.92C3673.73 3606.68 3688.18 3571.63 3688.18 3544.41C3688.18 3517.62 3690.68 3491.71 3692.98 3465.29C3701.45 3367.82 3719.4 3280.37 3733.74 3187.18C3738.45 3156.52 3738.07 3126.71 3745.72 3096.07C3747.39 3089.4 3755.69 3085.86 3757.71 3079.29C3760.91 3068.9 3759.62 3055.8 3767.3 3048.12C3762.03 3037.57 3752.92 3030.54 3743.33 3024.14Z" fill="#c95834" fill-rule="nonzero" opacity="1" stroke="none"/>
<path d="M3527.55 3019.35C3522.75 3024.14 3522.75 3024.14 3517.96 3028.94C3555.33 3066.31 3629.19 3058.29 3678.59 3038.53C3693.62 3032.52 3709.92 3016.95 3726.54 3016.95C3728.95 3016.95 3815.34 3091.33 3836.83 3105.66C3880.73 3134.92 3941 3142.05 3987.88 3160.8C3999.31 3165.38 4000.6 3156.88 4009.45 3163.2C4038.96 3184.27 4166.96 3255.9 4210.85 3251.91C4231.57 3250.03 4180.19 3190.16 4179.68 3189.57C4138.21 3141.72 4099.29 3092.68 4059.8 3043.32C4055.48 3037.93 4018.1 3000.64 4033.43 2992.98C4047.03 2986.18 4063.8 2996.27 4078.98 2995.37C4110.93 2993.49 4142.89 2991.32 4174.88 2990.58C4234.73 2989.19 4311.21 2945.35 4354.7 2901.87C4400.2 2856.37 4379.72 2754.01 4371.48 2700.48C4369.39 2686.9 4362.51 2650.5 4349.9 2642.93C4342.47 2638.47 4323.84 2671.4 4301.95 2693.28C4278.16 2717.07 4237.06 2715.34 4210.85 2695.68C4125.84 2631.92 4051.42 2534.16 3999.86 2443.94C3970.79 2393.05 3943.53 2342.53 3906.36 2290.5C3896.56 2276.78 3893.28 2260.82 3879.99 2249.74C3875.58 2246.07 3853.25 2279.6 3851.22 2285.7C3832.89 2340.68 3784.29 2395.68 3750.52 2446.34C3718.91 2493.76 3686.95 2541.9 3659.41 2587.79C3652 2600.15 3650.34 2634.61 3649.82 2647.73C3648.35 2685.27 3648.74 2722.87 3647.43 2760.41C3644.9 2832.45 3645.03 2904.46 3645.03 2976.19C3645.03 3000.58 3544.8 3027.97 3527.55 3019.35Z" fill="#f5481a" fill-rule="nonzero" opacity="1" stroke="none"/>
<path d="M4088.57 3247.11C4104.03 3239.38 4135.81 3283.73 4146.11 3292.67C4207.45 3345.82 4273.86 3390.34 4333.12 3446.11C4402.24 3511.16 4474.58 3573.19 4541.71 3640.31C4616.86 3715.46 4680.03 3801.03 4747.9 3882.46C4784.92 3926.89 4825.04 3968.64 4860.58 4014.33C4877.26 4035.78 4894.48 4068.64 4920.52 4079.06C5039.81 4126.78 5165.26 4056.9 5205.82 3935.21C5216.27 3903.87 5216.97 3874.03 5229.8 3844.1C5234.07 3834.13 5219.25 3814.54 5227.4 3800.95C5251.74 3760.39 5322.1 3821.33 5354.47 3788.96C5352.87 3787.36 5351.94 3784.25 5349.68 3784.16C5309.75 3782.63 5269.73 3785.7 5229.8 3784.16C5227.54 3784.08 5225.63 3781.54 5225 3779.37C5217.08 3751.63 5221.27 3719.25 5203.43 3695.45C5161.77 3639.92 5117.38 3623.53 5047.59 3623.53C4996.23 3623.53 4929.93 3702.6 4901.34 3695.45C4880.86 3690.33 4859.59 3654.92 4846.19 3640.31C4815.11 3606.4 4782.67 3576.61 4747.9 3546.81C4696.46 3502.72 4643.75 3455 4587.26 3417.34C4553.5 3394.83 4514.58 3380.3 4481.77 3359.8C4398.08 3307.49 4301.19 3169.47 4237.22 3091.27C4232.17 3085.1 4160.67 2991.01 4158.1 2990.58C4133.66 2986.5 4108.55 2990.58 4083.78 2990.58C4078.52 2990.58 4023.84 2980.66 4023.84 2997.77C4023.84 3014.27 4055.59 3040.9 4064.6 3052.91C4099.49 3099.43 4136.79 3143.22 4174.88 3187.18C4181.13 3194.38 4213.43 3227.02 4210.85 3239.92C4207.99 3254.19 4185.7 3246.53 4177.28 3242.32C4168.16 3237.76 4084.49 3194.37 4081.38 3194.37C4048.46 3194.37 4084.07 3241.32 4088.57 3247.11Z" fill="#642a23" fill-rule="nonzero" opacity="1" stroke="none"/>
<path d="M3141.55 2798.77C3131.27 2809.05 3139.12 2812.39 3124.76 2825.15C3103.16 2844.35 3076.1 2846.82 3055.23 2863.51C3028.02 2885.28 2987.94 2907.52 2954.54 2918.65C2923.39 2929.03 2849.67 2956.38 2827.47 2978.59C2809.94 2969.83 2733.15 3026.7 2709.99 3031.34C2679.81 3037.37 2649.07 3057.56 2623.68 3074.49C2593.42 3094.66 2543.46 3112.42 2506.2 3124.84C2483.84 3132.29 2465.3 3157.07 2443.86 3163.2C2407.31 3173.64 2345.95 3203.57 2316.79 3232.73C2322.29 3238.23 2325.23 3239.83 2321.59 3247.11C2329.85 3255.38 2349.71 3261.17 2359.95 3266.29C2383.34 3277.99 2406.39 3303.96 2422.28 3323.84C2440.58 3346.71 2465.67 3382.22 2472.63 3407.75C2475.03 3416.54 2473.38 3427.68 2479.83 3434.12C2473.01 3447.75 2485.76 3503.36 2484.62 3520.43C2483.9 3531.3 2465.81 3556.58 2479.83 3563.59C2488.05 3567.7 2584.4 3511.3 2599.7 3503.65C2681.43 3462.79 2767.8 3395.65 2851.44 3362.2C2872.18 3353.9 2894.77 3338.16 2916.18 3331.03C2925.67 3327.86 2938.09 3329.39 2947.35 3323.84C2967.82 3311.55 3077 3263.99 3086.4 3268.69C3172.4 3182.69 3249.14 3074.52 3323.76 2978.59C3326.21 2975.44 3319.69 2971.5 3316.57 2969C3295.32 2952 3274.43 2936.96 3259.02 2913.86C3248.61 2898.24 3199.01 2794.97 3196.69 2793.98C3177.58 2785.79 3164.59 2821.82 3141.55 2798.77Z" fill="#8d4938" fill-rule="nonzero" opacity="1" stroke="none"/>
<path d="M4371.48 2856.32C4371.48 2924.1 4282.43 2930.98 4246.81 2966.6C4399.88 3119.68 4554.97 3268.64 4711.93 3417.34C4786.36 3487.85 4871.13 3577.4 4968.47 3616.33C5021.56 3637.57 5080.95 3619.13 5133.9 3640.31C5168.66 3654.21 5208.35 3694.94 5215.41 3733.81C5216.47 3739.62 5213.46 3788.53 5225 3788.96C5355.15 3793.78 5472.72 3794.57 5584.64 3738.61C5607.57 3727.14 5638.53 3694.3 5651.77 3681.07C5721.55 3611.28 5642.77 3509.24 5599.02 3450.9C5578.45 3423.48 5561.35 3398.51 5531.89 3383.77C5514.23 3401.44 5534.45 3462.8 5529.49 3489.27C5518.74 3546.61 5495.92 3587.57 5452.77 3630.72C5412.95 3670.54 5353.82 3685.86 5299.33 3685.86C5265.32 3685.86 5224.27 3640.96 5201.03 3623.53C5188.53 3614.15 5171.91 3613.07 5160.27 3604.35C5089.27 3551.1 5020.91 3498.42 4956.48 3436.52C4933.25 3414.2 4909.73 3392.17 4886.95 3369.39C4856.12 3338.55 4828.59 3304.99 4795.85 3275.88C4747.48 3232.9 4701.53 3168.25 4647.2 3132.03C4649.6 3129.63 4649.6 3129.63 4651.99 3127.24C4669.98 3145.23 4804.77 3155.4 4843.8 3163.2C4904.34 3175.31 4967.01 3194.74 5026.01 3218.34C5068.27 3235.25 5110.6 3262.59 5153.08 3271.09C5184.08 3277.29 5252.45 3311.58 5280.15 3304.65C5293.35 3301.35 5301.07 3287.24 5311.32 3278.28C5324.08 3267.11 5338.36 3263.23 5349.68 3251.91C5297.87 3200.1 5195.07 3196.18 5129.1 3163.2C5090.1 3143.7 5041.73 3140.48 4999.64 3122.44C4922.82 3089.52 4815.01 3069.69 4731.11 3057.71C4681.09 3050.56 4629.69 3053.99 4580.07 3045.72C4542.42 3039.45 4457.52 2924.25 4431.42 2894.68C4409.71 2870.07 4401.14 2846.43 4371.48 2856.32Z" fill="#ca815c" fill-rule="nonzero" opacity="1" stroke="none"/>
<path d="M2144.17 3443.71C2138.42 3449.46 2127 3451.66 2122.59 3455.7C2104.26 3472.5 2086.71 3490.17 2069.85 3508.45C2020.76 3561.63 1970.98 3684 2021.9 3743.4C2034.12 3757.67 2046.83 3779.01 2067.45 3784.16C2141.63 3802.71 2215.16 3808.14 2292.82 3808.14C2484.52 3808.14 2660.04 3679.28 2801.1 3570.78C2805.98 3567.03 2814.47 3567.92 2820.28 3565.99C2827.86 3563.46 2827.81 3550.92 2834.66 3546.81C2848.3 3538.62 2864.82 3550.21 2877.82 3537.22C2873.02 3532.42 2873.02 3532.42 2868.23 3527.63C2878.38 3507.33 2895.94 3476.49 2906.59 3508.45C2916.04 3508.45 2912.08 3510.14 2918.57 3503.65C2900.79 3485.86 2942.26 3453.39 2952.14 3441.31C2989.64 3395.48 3026.91 3350.16 3064.82 3304.65C3068.68 3300.03 3102.07 3265.59 3081.61 3261.5C3075.78 3260.33 3051.44 3277.23 3045.64 3278.28C3011.6 3284.47 2979.63 3302.9 2947.35 3319.04C2905.89 3339.77 2857.77 3355.44 2815.48 3376.58C2700.74 3433.95 2599.4 3510.96 2479.83 3558.79C2463.58 3565.29 2453.34 3584.05 2439.07 3594.76C2401.15 3623.19 2348.18 3640.38 2300.01 3625.92C2254.76 3612.35 2199.54 3564.5 2187.33 3515.64C2183.58 3500.67 2180.02 3469.94 2170.54 3458.1C2162.5 3448.05 2152.52 3452.06 2144.17 3443.71Z" fill="#e8833d" fill-rule="nonzero" opacity="1" stroke="none"/>
<path d="M2827.47 3597.15C2818.24 3606.38 2822.16 3601.53 2815.48 3611.54C2813.08 3609.14 2813.08 3609.14 2810.69 3606.74C2804.68 3612.75 2754.05 3720.95 2755.54 3731.42C2757.93 3748.11 2761.18 3764.93 2760.34 3781.76C2758.09 3826.76 2763.63 3866.71 2779.52 3906.44C2792.45 3938.76 2815.74 3964.23 2841.85 3990.35C2933.82 4082.32 3084.15 4063.03 3158.33 3959.18C3205.38 3893.31 3211.26 3793.22 3203.88 3719.43C3202.45 3705.11 3205.31 3690.59 3203.88 3676.27C3203.48 3672.29 3190.16 3667.21 3189.5 3666.68C3183.1 3661.56 3185.13 3650.75 3182.3 3645.11C3173 3626.5 3153.46 3600.3 3134.35 3587.56C3083.59 3553.72 2994.76 3539.42 2935.36 3556.4C2920.74 3560.57 2833.37 3603.05 2827.47 3597.15Z" fill="#642a23" fill-rule="nonzero" opacity="1" stroke="none"/>
<path d="M3764.91 3045.72C3732.65 3077.98 3738.43 3142.88 3728.94 3187.18C3708.3 3283.51 3694.8 3379.49 3688.18 3482.07C3686.33 3510.77 3677.68 3615.42 3690.58 3628.32C3749.02 3569.88 3858.72 3515.82 3942.32 3565.99C3978.86 3587.91 4004.79 3619.49 4031.03 3652.3C4064.12 3619.21 3998.4 3476.55 3995.07 3436.52C3991.33 3391.61 3987.88 3345.47 3987.88 3299.86C3987.88 3267.11 3998.61 3194.25 3980.68 3158.41C3984.28 3154.81 3984.28 3154.81 3987.88 3151.21C3975.31 3138.64 3928.27 3140.39 3908.76 3132.03C3857.26 3109.96 3809.64 3084.87 3764.91 3045.72Z" fill="#ca815c" fill-rule="nonzero" opacity="1" stroke="none"/>
<path d="M5337.69 3244.72C5341.29 3248.31 5341.29 3248.31 5344.88 3251.91C5333.18 3263.61 5205.76 3362.07 5220.21 3390.97C5202.65 3408.52 5208.69 3437.5 5201.03 3460.49C5199.6 3464.78 5192.25 3465.64 5191.44 3470.08C5188.57 3485.89 5201.01 3510.85 5186.64 3518.04C5174.99 3523.86 5115.32 3485.97 5102.73 3479.68C5080.95 3468.79 5055.2 3465.46 5030.8 3455.7C5001.33 3443.91 4942.46 3396.47 4915.72 3374.18C4908.53 3381.38 4908.53 3381.38 4901.34 3388.57C4966.44 3453.67 5031.64 3515.67 5105.13 3570.78C5131.45 3590.52 5164.23 3602.52 5189.04 3621.13C5218.96 3643.57 5256.54 3684.01 5296.93 3688.26C5375.67 3696.55 5444.55 3653.59 5493.53 3592.36C5523.09 3555.4 5532.52 3502.3 5534.29 3458.1C5535.05 3439.09 5526.05 3396.81 5539.08 3383.77C5531.29 3368.19 5515.1 3354.99 5503.12 3343.02C5458.41 3298.31 5437.15 3263.59 5380.84 3249.51C5370.28 3246.87 5347.64 3234.77 5337.69 3244.72Z" fill="#642a23" fill-rule="nonzero" opacity="1" stroke="none"/>
<path d="M3829.64 3546.81C3766.9 3553.36 3714.2 3580.91 3676.2 3637.91C3662.37 3658.65 3664.62 3685.96 3661.81 3709.84C3646.43 3840.53 3798.84 3963.93 3932.73 3944.8C4058.41 3926.84 4047.81 3814.46 4047.81 3712.24C4047.81 3697.02 4042.33 3663.26 4033.43 3649.9C3976.25 3564.13 3926.9 3536.65 3829.64 3546.81Z" fill="#653d3f" fill-rule="nonzero" opacity="1" stroke="none"/>
<path d="M3122.37 3585.17C3146.97 3609.77 3191.09 3649.9 3199.09 3685.86C3206.19 3717.83 3190.6 3787.66 3208.68 3805.74C3230.65 3783.76 3233.85 3750.6 3251.83 3726.62C3279.36 3689.92 3298.15 3643.57 3318.96 3601.95C3377.94 3483.99 3474.43 3384.53 3532.34 3268.69C3567.88 3197.62 3645.27 3141.19 3697.77 3081.68C3704.03 3074.59 3763.58 3025.53 3736.13 3014.55C3710.09 3004.14 3654.47 3044.67 3623.45 3048.12C3590.89 3051.74 3556.44 3037.07 3525.15 3043.32C3517.15 3044.92 3507.42 3072.88 3503.57 3079.29C3484.31 3111.4 3461.06 3145.1 3436.44 3175.19C3388.57 3233.7 3343.52 3292.5 3304.58 3357.4C3267.34 3419.46 3230.85 3498.26 3177.51 3551.6C3161.14 3567.97 3136.34 3571.19 3122.37 3585.17Z" fill="#8d4938" fill-rule="nonzero" opacity="1" stroke="none"/>
<path d="M4078.98 2990.58C4097.66 3009.26 4131.78 2993.05 4158.1 2995.37C4167.16 2996.17 4193.92 3041.54 4198.86 3048.12C4231.43 3091.55 4268.43 3132.08 4304.35 3172.79C4350.85 3225.49 4390.97 3280.99 4441.01 3331.03C4482.33 3372.35 4536.76 3390.06 4584.86 3422.13C4637.69 3457.35 4683.54 3503.14 4733.51 3542.01C4770.92 3571.1 4807.99 3604.5 4841.4 3637.91C4858.35 3654.87 4876.21 3694.66 4901.34 3700.25C4911.67 3702.55 4992.05 3650.3 5002.03 3640.31C4996.04 3634.32 4996.04 3634.32 4990.05 3628.32C4992.44 3625.92 4992.44 3625.92 4994.84 3623.53C4978.67 3607.36 4941.41 3595.61 4920.52 3585.17C4867.85 3558.83 4815.56 3508.92 4771.87 3470.08C4630.16 3344.12 4493.42 3206.02 4359.49 3072.09C4329.93 3042.53 4299.89 3013.09 4268.39 2983.39C4236.88 2953.68 4214.84 2981.68 4177.28 2983.39C4144.46 2984.88 4102.21 2967.35 4078.98 2990.58Z" fill="#9b675b" fill-rule="nonzero" opacity="1" stroke="none"/>
<path d="M2151.36 3441.31C2159.55 3441.31 2155.03 3440.18 2163.35 3448.51C2162.15 3450.9 2162.15 3450.9 2160.95 3453.3C2173.89 3466.24 2175.24 3497.42 2182.53 3515.64C2201.49 3563.04 2249.38 3619.47 2300.01 3630.72C2377.79 3648 2419.83 3613.3 2475.03 3565.99C2477.22 3564.11 2481.52 3563.99 2482.22 3561.19C2503.94 3474.3 2481.65 3394.44 2427.08 3326.23C2392.3 3282.76 2356.14 3260.35 2312 3235.13C2311.84 3235.04 2256.85 3247.71 2252.06 3249.51C2215.6 3263.18 2163.63 3301.06 2153.76 3343.02C2147.35 3370.25 2153.79 3399.05 2151.36 3426.93C2150.04 3442.14 2146.29 3426.1 2151.36 3441.31Z" fill="#642a23" fill-rule="nonzero" opacity="1" stroke="none"/>
<path d="M3318.96 2978.59C3198.83 3098.72 3102.9 3247.47 2997.69 3378.98C2972.01 3411.08 2891.92 3470.85 2918.57 3510.84C2959.09 3470.33 3051.78 3496.46 3100.79 3496.46C3102.57 3496.46 3104.24 3495.24 3105.58 3494.06C3135.21 3468.13 3149.21 3424.54 3167.92 3393.36C3189.41 3357.55 3218.06 3322.76 3244.64 3290.27C3310.54 3209.72 3389.41 3145.5 3462.82 3072.09C3473.04 3061.87 3491.41 3035.65 3501.18 3028.94C3506.61 3025.2 3515.7 3028.8 3520.36 3024.14C3500.38 3004.16 3447.71 3036.36 3436.44 3002.57C3397.95 3002.57 3354.06 2996.14 3318.96 2978.59Z" fill="#ca815c" fill-rule="nonzero" opacity="1" stroke="none"/>
<path d="M4031.03 1496.91C3903.59 1624.36 3886.71 1805.48 3896.77 1976.42C3898.42 2004.43 3914.26 2029.59 3920.74 2055.54C3943.57 2146.83 3985.74 2228.6 4035.83 2312.07C4042.36 2322.97 4058.27 2342.81 4066.99 2350.44C4075.74 2358.09 4110.41 2344.89 4124.54 2369.62C4147.22 2409.31 4147.01 2436.45 4150.91 2487.09C4151.08 2489.35 4153.9 2490.53 4155.7 2491.89C4157.13 2492.96 4158.9 2493.49 4160.5 2494.29C4187.29 2467.49 4184.47 2383.8 4184.47 2355.23C4184.47 2202.48 4012.14 2107.61 3990.27 1976.42C3970.16 1855.75 3984.95 1723.88 4023.84 1607.2C4032.81 1580.29 4060.02 1521.11 4031.03 1496.91Z" fill="#e3e3e2" fill-rule="nonzero" opacity="1" stroke="none"/>
<path d="M4297.16 1360.25C4281.5 1375.91 4256.05 1384.21 4268.39 1413C4273.37 1424.62 4288.17 1413.75 4297.16 1424.99C4308.45 1439.1 4323.39 1473.79 4330.72 1492.12C4383.66 1624.47 4364.96 1751.22 4361.89 1892.51C4361.32 1918.73 4350.17 2023.48 4325.93 2031.56C4325.93 2124.79 4301.98 2222.12 4251.6 2297.69C4241.83 2312.35 4209.42 2372.98 4222.83 2386.4C4263.79 2353.63 4272.98 2290.17 4292.36 2244.94C4309.93 2203.95 4337.2 2159.71 4361.89 2122.67C4368.86 2112.21 4380.11 2110.22 4385.87 2098.69C4405.5 2059.43 4428.29 2021.03 4448.2 1981.21C4439.18 1972.2 4444.53 1963.16 4436.22 1954.84C4433.82 1956.04 4433.82 1956.04 4431.42 1957.24C4427.82 1953.64 4427.82 1953.64 4424.23 1950.05C4426.63 1947.65 4426.63 1947.65 4429.02 1945.25C4431.42 1947.65 4431.42 1947.65 4433.82 1950.05C4438.61 1946.45 4438.61 1946.45 4443.41 1942.85C4449.4 1948.85 4449.4 1948.85 4455.4 1954.84C4470.96 1944.47 4488.34 1836.93 4488.96 1822.98C4490.49 1788.65 4489.71 1754.24 4488.96 1719.88C4488.62 1704.17 4482.2 1674.48 4467.38 1669.53C4467.38 1619.11 4409.38 1530.04 4390.66 1480.13C4376.17 1441.49 4374.21 1398.94 4342.71 1367.45C4330.24 1354.98 4311.91 1370.09 4297.16 1360.25Z" fill="#c95834" fill-rule="nonzero" opacity="1" stroke="none"/>
<path d="M3520.36 3019.35C3515.7 3024.01 3506.66 3020.49 3501.18 3024.14C3476.44 3040.63 3457.38 3072.73 3436.44 3093.67C3371.3 3158.81 3298.45 3216.24 3239.84 3287.87C3213.34 3320.26 3182.01 3355.6 3163.12 3393.36C3148.62 3422.38 3130.32 3464.53 3105.58 3489.27C3087.9 3506.94 3013.23 3482.07 2985.71 3482.07C2950.51 3482.07 2913.47 3505.68 2887.41 3525.23C2878.75 3518.73 2869.51 3515.46 2863.43 3527.63C2867.03 3531.22 2867.03 3531.22 2870.62 3534.82C2855.27 3550.17 2831 3532.55 2817.88 3558.79C2830.42 3571.33 2847.92 3574.3 2825.07 3597.15C2830.36 3604.2 2829.41 3608.27 2837.06 3606.74C2851.73 3603.81 2865.43 3586.28 2880.21 3580.37C2904.67 3570.59 2930.76 3560.47 2959.33 3558.79C2980.89 3557.53 3002.47 3556.4 3024.07 3556.4C3052.48 3556.4 3119.27 3590.19 3134.35 3585.17C3194.84 3565 3228.23 3486.34 3263.82 3436.52C3302.88 3381.83 3330 3319.51 3371.71 3263.9C3400.03 3226.14 3431.4 3190.92 3460.42 3153.61C3468.49 3143.24 3522.69 3049.74 3527.55 3048.12C3534.54 3045.79 3543.92 3048.53 3549.13 3043.32C3539.89 3034.08 3533.77 3039.95 3522.75 3028.94C3525.15 3026.54 3525.15 3026.54 3527.55 3024.14C3523.95 3021.75 3523.95 3021.75 3520.36 3019.35Z" fill="#9b675b" fill-rule="nonzero" opacity="1" stroke="none"/>
<path d="M2964.13 3630.72C2915.7 3641.35 2843.3 3696.37 2834.66 3748.2C2831.17 3769.11 2825.45 3789.85 2820.28 3810.54C2813.6 3837.24 2829.51 3864.61 2837.06 3887.26C2857.72 3949.24 2915.88 3956.78 2978.51 3956.78C2987.65 3956.78 3000.81 3952.55 3009.68 3949.59C3088.75 3923.24 3113.28 3814.49 3100.79 3745.8C3099.67 3739.64 3102.83 3720.23 3098.39 3712.24C3069.5 3660.23 3019.5 3618.57 2964.13 3630.72Z" fill="#3c1a2f" fill-rule="nonzero" opacity="1" stroke="none"/>
<path d="M4503.35 2700.48C4526.7 2723.83 4488.48 2786.69 4512.94 2791.58C4521.55 2793.3 4541.02 2772.61 4546.5 2767.61C4561.95 2753.5 4577.26 2739.24 4592.06 2724.45C4633.87 2682.64 4630.58 2585.72 4632.81 2539.84C4633.55 2524.79 4643.15 2499.82 4628.02 2484.7C4603.51 2501.04 4616.83 2558.22 4592.06 2583C4578.1 2569.04 4588.35 2543.11 4582.46 2525.46C4563.08 2467.3 4539.68 2417.62 4534.51 2350.44C4533.72 2340.05 4535.06 2329.26 4532.12 2319.27C4527.15 2302.38 4476.89 2290.83 4464.99 2295.29C4425.07 2310.26 4421.08 2366.17 4414.64 2398.39C4400.7 2468.05 4440.17 2533.25 4453 2597.38C4458.85 2626.62 4458.36 2661.37 4453 2690.89C4451.84 2697.27 4434.48 2740.06 4443.41 2743.63C4458.15 2749.53 4493.51 2708.34 4503.35 2700.48Z" fill="#e3e3e2" fill-rule="nonzero" opacity="1" stroke="none"/>
<path d="M3597.08 2069.92C3526.98 2075.43 3537.22 2175.17 3517.96 2232.96C3483.29 2336.97 3454.97 2483.39 3505.97 2585.39C3525.67 2624.78 3594.42 2685.79 3642.63 2678.9C3662.77 2676.02 3610.21 2620 3606.67 2609.37C3589.88 2559 3580.61 2500.06 3582.69 2443.94C3586.31 2346.21 3634.15 2267.99 3640.23 2170.62C3643.46 2118.99 3650.2 2065.75 3597.08 2069.92Z" fill="#e3e3e2" fill-rule="nonzero" opacity="1" stroke="none"/>
<path d="M4711.93 3196.77C4769.98 3266.42 4842.97 3323.45 4903.73 3390.97C4909.73 3384.97 4909.73 3384.97 4915.72 3378.98C4994.54 3457.79 5099.34 3479.18 5191.44 3525.23C5193.84 3522.83 5193.84 3522.83 5196.23 3520.43C5198.63 3521.63 5198.63 3521.63 5201.03 3522.83C5221.4 3502.46 5205.07 3465.32 5205.82 3436.52C5206.12 3425.12 5218.13 3397.84 5225 3390.97C5212.39 3374.15 5157.8 3369.36 5136.3 3362.2C5106.65 3352.31 5076.47 3329.89 5049.98 3316.64C4977.64 3280.47 4908.97 3258.88 4834.21 3237.52C4804.77 3229.11 4776.72 3218.36 4747.9 3208.75C4738.77 3205.71 4735.43 3195.39 4726.32 3191.97C4717.7 3188.74 4716.7 3192 4711.93 3196.77Z" fill="#8d4938" fill-rule="nonzero" opacity="1" stroke="none"/>
<path d="M4640.01 3127.24C4660.2 3151.47 4684.93 3174.56 4707.14 3196.77C4713.2 3202.83 4718.28 3193.32 4726.32 3196.77C4758.91 3210.73 4787.95 3227.05 4824.62 3237.52C4904.18 3260.26 4998.54 3283.94 5069.16 3331.03C5096.85 3349.49 5183.85 3391.83 5217.81 3386.17C5239.03 3382.63 5268.85 3321.6 5280.15 3304.65C5261.38 3285.88 5177.7 3282.2 5145.89 3266.29C5039.15 3212.93 4913.39 3169.2 4791.05 3148.82C4769.49 3145.22 4642.04 3125.2 4640.01 3127.24Z" fill="#9b675b" fill-rule="nonzero" opacity="1" stroke="none"/>
<path d="M3122.37 2331.26C3113.78 2339.84 3090.77 2416.88 3086.4 2434.35C3050.62 2577.48 3034.52 2696.92 3136.75 2805.97C3139.15 2804.77 3139.15 2804.77 3141.55 2803.57C3151.73 2813.75 3194.27 2808.4 3201.48 2793.98C3205.67 2785.6 3177.42 2657.23 3175.11 2654.92C3171.51 2658.52 3171.51 2658.52 3167.92 2662.12C3158.75 2652.94 3158.33 2623.45 3158.33 2609.37C3158.33 2588.59 3158.98 2567.8 3158.33 2547.03C3156.61 2492.03 3143.21 2441.95 3134.35 2388.8C3131.37 2370.91 3135.69 2344.58 3122.37 2331.26Z" fill="#c95834" fill-rule="nonzero" opacity="1" stroke="none"/>
<path d="M3839.23 3659.49C3677.55 3675.91 3746.83 3829.72 3877.59 3829.72C3895.91 3829.72 3920.75 3803.33 3930.34 3791.35C3933.92 3786.87 3953.13 3703.27 3949.52 3697.85C3925.63 3662.02 3876.31 3655.73 3839.23 3659.49Z" fill="#3c1a2f" fill-rule="nonzero" opacity="1" stroke="none"/>
<path d="M3951.91 3695.45C3938.97 3708.4 3938.73 3769.78 3925.54 3786.56C3877.08 3848.23 3816.62 3826.29 3769.7 3779.37C3764.23 3773.9 3752.21 3756.63 3750.52 3748.2C3746.89 3730.07 3755.89 3709.16 3750.52 3693.06C3728.33 3693.06 3712.31 3704.8 3700.17 3724.22C3670.55 3771.61 3724.39 3822.77 3752.92 3851.29C3798.24 3896.62 3880.97 3894.12 3937.53 3875.27C3991.78 3857.18 3988.14 3731.68 3951.91 3695.45Z" fill="#642a23" fill-rule="nonzero" opacity="1" stroke="none"/>
<path d="M3493.98 2801.17C3501.18 2793.98 3501.18 2793.98 3508.37 2786.79C3460.96 2734.11 3431.85 2660.61 3417.26 2594.98C3411.81 2570.45 3419.97 2526.81 3393.29 2513.47C3368.43 2501.04 3348.8 2568.06 3347.73 2583C3346.59 2598.96 3345.34 2614.94 3345.34 2630.95C3345.34 2710.53 3433.35 2770.86 3493.98 2801.17Z" fill="#cfb3ad" fill-rule="nonzero" opacity="1" stroke="none"/>
<path d="M5388.04 3402.95C5367.32 3404.85 5336.24 3422.21 5330.5 3450.9C5318.64 3510.2 5339.83 3582.77 5416.81 3582.77C5451.6 3582.77 5444.28 3505.56 5443.18 3458.1C5442.41 3424.81 5413.2 3400.66 5388.04 3402.95Z" fill="#3c1a2f" fill-rule="nonzero" opacity="1" stroke="none"/>
<path d="M3992.67 3179.98C3986.68 3185.98 3986.68 3185.98 3980.68 3191.97C3996.43 3223.45 3985.48 3262.26 3985.48 3297.46C3985.48 3339.74 3984.01 3504.58 4026.24 3546.81C4042.41 3534.67 4035.44 3543.9 4035.83 3515.64C4036.52 3465.29 4036.92 3414.93 4038.22 3364.59C4039.12 3330.16 4026.78 3205.56 3992.67 3179.98Z" fill="#642a23" fill-rule="nonzero" opacity="1" stroke="none"/>
<path d="M2297.61 3393.36C2260.73 3399.08 2273.64 3426.87 2273.64 3462.89C2273.64 3473.38 2254.49 3475.03 2256.85 3486.87C2263.18 3518.47 2302.4 3568.39 2338.37 3554C2404.24 3527.65 2360.93 3383.55 2297.61 3393.36Z" fill="#3c1a2f" fill-rule="nonzero" opacity="1" stroke="none"/>
<path d="M4064.6 2350.44C4082.65 2368.49 4111.49 2414.97 4114.95 2439.14C4119.19 2468.88 4108.84 2504.61 4136.52 2523.06C4143.25 2516.34 4160.62 2505.8 4162.9 2496.69C4165.92 2484.6 4157.62 2501.29 4155.7 2484.7C4150.32 2438.02 4153.97 2406.57 4129.33 2369.62C4117.71 2352.18 4081.59 2333.44 4064.6 2350.44Z" fill="#f1c365" fill-rule="nonzero" opacity="1" stroke="none"/>
<path d="M3146.34 2451.13C3135.24 2462.24 3155 2627.62 3160.73 2633.34C3167.17 2626.9 3165.04 2615.62 3167.92 2606.97C3175.58 2584 3196.21 2547.84 3179.91 2520.66C3176.45 2514.91 3164.97 2506.46 3163.12 2499.08C3159.68 2485.3 3158.32 2459.12 3146.34 2451.13Z" fill="#e8833d" fill-rule="nonzero" opacity="1" stroke="none"/>
<path d="M4325.93 2050.74C4315.11 2061.56 4309.25 2072.22 4299.56 2081.91C4324.18 2106.54 4294.03 2141.12 4316.34 2163.43C4319.16 2160.61 4330.46 2055.28 4325.93 2050.74Z" fill="#e8833d" fill-rule="nonzero" opacity="1" stroke="none"/>
<path d="M3167.92 2592.59C3157.62 2602.88 3151.88 2655.67 3165.52 2669.31C3185.09 2649.73 3188.94 2613.6 3167.92 2592.59Z" fill="#ca713e" fill-rule="nonzero" opacity="1" stroke="none"/>
<path d="M2868.23 3520.43C2870.62 3522.83 2870.62 3522.83 2873.02 3525.23C2875.42 3524.03 2875.42 3524.03 2877.82 3522.83C2881.41 3526.43 2881.41 3526.43 2885.01 3530.02C2895.82 3521.92 2912.42 3517 2920.97 3508.45C2895.62 3483.09 2890.07 3476.74 2868.23 3520.43Z" fill="#ca713e" fill-rule="nonzero" opacity="1" stroke="none"/>
<path d="M4443.41 1938.06C4439.81 1941.66 4439.81 1941.66 4436.22 1945.25C4427.28 1939.3 4424.24 1940.42 4419.43 1950.05C4434.13 1964.74 4434.76 1972.56 4448.2 1986.01C4455.34 1978.87 4455.18 1964.87 4460.19 1954.84C4451.8 1946.45 4451.8 1946.45 4443.41 1938.06Z" fill="#ca713e" fill-rule="nonzero" opacity="1" stroke="none"/>
<path d="M3980.68 3151.21C3971.77 3160.13 3977.02 3183.51 3985.48 3191.97C3995.86 3181.59 4002.02 3171.35 4014.25 3163.2C4005.27 3154.22 3991.83 3158.64 3980.68 3151.21Z" fill="#8d4938" fill-rule="nonzero" opacity="1" stroke="none"/>
<path d="M3764.91 2997.77C3768.5 3001.37 3768.5 3001.37 3772.1 3004.96C3779.1 2999.71 3785.14 2991.11 3793.68 2995.37C3797.27 2991.78 3797.27 2991.78 3800.87 2988.18C3777.67 2959.19 3780.48 2987.39 3764.91 2997.77Z" fill="#fa6633" fill-rule="nonzero" opacity="1" stroke="none"/>
<path d="M4992.44 3621.13C4969.92 3643.65 5016.04 3643.09 5028.41 3630.72C5017.49 3619.81 5003.36 3632.04 4992.44 3621.13Z" fill="#8d4938" fill-rule="nonzero" opacity="1" stroke="none"/>
<path d="M2148.97 3434.12C2132.25 3450.83 2154.38 3457.79 2168.15 3450.9C2165.17 3444.95 2162.28 3439.71 2148.97 3434.12Z" fill="#c95834" fill-rule="nonzero" opacity="1" stroke="none"/>
<path d="M3505.97 2784.39C3499.98 2790.38 3499.98 2790.38 3493.98 2796.38C3505.59 2807.98 3527.34 2800.96 3505.97 2784.39Z" fill="#efdcae" fill-rule="nonzero" opacity="1" stroke="none"/>
<path d="M2319.19 3230.33C2303.21 3238.32 2313.82 3257.28 2328.78 3242.32C2324.87 3234.49 2327.65 3238.79 2319.19 3230.33Z" fill="#653d3f" fill-rule="nonzero" opacity="1" stroke="none"/>
</g>
</g>
</svg>
