<?xml version="1.0" encoding="UTF-8" standalone="no"?>
<!DOCTYPE svg PUBLIC "-//W3C//DTD SVG 1.1//EN" "http://www.w3.org/Graphics/SVG/1.1/DTD/svg11.dtd">
<!-- Created with Vectornator (http://vectornator.io/) -->
<svg height="100%" stroke-miterlimit="10" style="fill-rule:nonzero;clip-rule:evenodd;stroke-linecap:round;stroke-linejoin:round;" version="1.1" viewBox="0 0 7680 4320" width="100%" xml:space="preserve" xmlns="http://www.w3.org/2000/svg" xmlns:xlink="http://www.w3.org/1999/xlink">
<defs/>
<g id="Ebene-1">
<g opacity="1">
<path d="M2393.18 334.97C2361.22 366.932 2317.56 385.387 2279.08 411.039C2206.52 459.415 2140.43 529.348 2088.91 598.041C2076.46 614.636 2070.45 644.656 2060.38 661.431C2048.86 680.639 2028.56 697.381 2019.18 718.483C2008.46 742.59 1999.69 797.88 1971.64 807.23C1971.64 847.695 1946.18 906.786 1930.43 943.519C1926.36 953.031 1912.92 959.98 1911.42 972.045C1904.38 1028.35 1885.91 1109.32 1863.87 1162.22C1857.57 1177.34 1840.53 1207.5 1838.52 1225.61C1834.08 1265.52 1842.5 1319.87 1809.99 1352.39C1732.28 1430.1 1608.09 1406.22 1537.41 1488.68C1564.57 1515.83 1640.77 1507.87 1673.7 1510.86C1771.91 1519.79 1890.76 1534.62 1990.65 1567.92C2020.26 1577.79 2066.25 1576.96 2088.91 1599.61C2085.74 1602.78 2085.74 1602.78 2082.57 1605.95C2028.09 1578.71 1948.26 1572.19 1892.4 1564.75C1792.2 1551.39 1683.72 1532.68 1578.62 1523.54C1569.16 1522.72 1541.76 1510.81 1534.24 1514.03C1509.17 1524.78 1435.97 1672.54 1420.14 1704.2C1361.18 1822.12 1308.16 1941.37 1242.65 2056.02C1215.87 2102.88 1214.81 2165.58 1191.93 2211.33C1214.72 2234.11 1256.78 2228.63 1280.68 2252.53C1313.73 2219.48 1313.5 2155.94 1340.9 2119.41C1392.06 2051.2 1429.21 1970.88 1493.04 1907.05C1557.79 1842.3 1698.71 1822.61 1775.13 1853.17C1808.87 1866.67 1851.97 1871.19 1882.89 1894.38C2106.1 2061.78 2143.55 2239.73 2206.18 2490.25C2222.11 2553.95 2239.26 2616.22 2253.72 2674.08C2259.88 2698.7 2257.19 2731.92 2275.91 2753.32C2310.41 2792.74 2390.44 2789.84 2437.56 2797.69C2527.9 2812.75 2627.23 2838.37 2719.64 2851.57C2770.9 2858.9 2832.64 2885.87 2884.46 2892.78C2969.09 2904.06 3057.95 2932.26 3144.36 2946.66C3178.34 2952.32 3210.58 2951.21 3245.78 2959.34C3273.08 2965.63 3356.38 2990.03 3378.9 2972.01C3415.83 2942.47 3414.75 2838.13 3426.45 2791.35C3440.58 2734.83 3456.48 2668.64 3461.31 2610.69C3461.9 2603.69 3474.89 2578.75 3470.82 2572.65C3460.51 2557.18 3432.61 2551.54 3435.96 2531.45C3440.41 2504.71 3461.15 2477.85 3473.99 2455.38C3540.49 2339 3615.13 2202.86 3762.42 2170.12C3843.58 2152.09 3925.35 2152.1 4006.47 2170.12C4019.34 2172.99 4032.21 2187.11 4041.34 2189.14C4055.77 2192.35 4071.14 2186.57 4085.71 2189.14C4108.38 2193.14 4137.32 2227.69 4158.61 2239.85C4287.64 2313.58 4352.26 2473.6 4405.83 2607.52C4435.72 2682.25 4462.39 2754.53 4481.9 2832.56C4487.37 2854.44 4507.83 2901.71 4491.41 2918.13C4508.73 2935.45 4578.31 2933.55 4599.17 2933.98C4742.56 2936.97 4877.11 2940.99 5017.55 2924.47C5091.52 2915.77 5158.03 2906.52 5226.74 2892.78C5251.55 2887.81 5288.31 2867.27 5315.48 2864.25C5351.14 2860.29 5399.85 2863.6 5435.93 2851.57C5441.6 2849.68 5442.74 2840.07 5448.6 2838.89C5465.18 2835.58 5482.44 2839.83 5499.32 2838.89C5507.95 2838.42 5518.41 2827.11 5524.67 2826.22C5581.81 2818.05 5641.09 2808.64 5695.83 2797.69C5772.36 2782.38 5858.72 2774.62 5933.54 2759.66C6041.92 2737.98 6153.33 2726.9 6256.83 2712.11C6309.06 2704.65 6379.61 2701.05 6424.82 2670.91C6500.11 2620.72 6432.75 2463.35 6418.48 2391.99C6410.44 2351.8 6418.08 2280.66 6386.78 2249.36C6363.43 2272.71 6378.33 2314.87 6374.11 2347.62C6373.42 2352.93 6354.03 2369.81 6351.92 2376.14C6340.45 2410.55 6330.68 2432.25 6301.21 2461.72C6218.99 2543.94 5994.16 2503.82 5889.17 2477.57C5861.11 2470.55 5792.48 2388.73 5784.57 2357.13C5742.43 2188.55 5716.58 2038.72 5866.98 1913.39C5881.95 1900.92 5893.27 1882.59 5911.35 1875.36C5961.1 1855.46 6049.07 1855.36 6101.53 1865.85C6112.36 1868.02 6184.23 1908.75 6187.1 1894.38C6189.82 1880.81 6090.57 1792.98 6076.17 1780.27C5949.08 1668.13 5793.33 1601.47 5635.61 1548.9C5627.96 1546.35 5602.12 1534.68 5594.4 1536.22C5590.08 1537.08 5575.02 1551.98 5572.22 1552.07C5471.89 1555.14 5371.47 1551.13 5271.11 1552.07C5226.82 1552.48 5182.17 1558.73 5137.99 1561.58C4960.79 1573.01 4796.23 1569.96 4621.36 1593.27C4478.23 1612.36 4323.91 1657.57 4177.62 1666.17C4137.9 1668.51 4101 1688.4 4063.52 1691.53C4018 1695.32 3973.8 1718.5 3930.4 1726.39C3880.72 1735.42 3831.36 1739.94 3781.43 1754.92C3747.46 1765.11 3708.3 1786.61 3667.33 1786.61C3620.85 1786.61 3580.9 1734.19 3562.74 1697.87C3534.46 1641.32 3527.21 1571.62 3512.02 1510.86C3494.69 1441.53 3473.67 1367.88 3467.65 1301.68C3456.41 1178.05 3439.13 1060.54 3439.13 934.011C3439.13 883.167 3457.5 728.509 3505.69 689.957C3547.42 656.568 3650.98 652.976 3699.03 645.584C3717.9 642.68 3743.67 629.69 3762.42 626.567C3936.15 597.611 4102.35 582.845 4269.54 563.176C4358.47 552.714 4438.89 552.149 4529.44 544.159C4532.42 543.896 4533.67 539.933 4535.78 537.82C4548.93 544.393 4706.54 525.271 4710.11 525.142C4766.06 523.107 4822.13 527.177 4878.09 525.142C4888.01 524.781 4912.37 522.559 4922.46 512.464C4796.38 386.38 4668.23 256.34 4519.93 157.477C4521.52 154.308 4521.52 154.308 4523.1 151.138C4506.09 134.128 4429.22 139.022 4409 138.46C4290.93 135.18 4177.88 134.716 4060.35 141.629C3950.48 148.093 3840.51 155.974 3730.72 163.816C3671.3 168.061 3612.6 174.914 3553.23 179.664C3514.17 182.788 3474.95 185.459 3435.96 189.172C3434.03 189.356 3299.24 213.487 3306.01 179.664C3308.42 167.603 3379.36 154.643 3388.41 154.308C3414.83 153.329 3441.38 154.057 3467.65 151.138C3498.21 147.743 3533.75 131.308 3562.74 122.612C3620.21 105.372 3699.47 107.452 3759.25 103.595C3783.87 102.006 3924.02 103.64 3939.91 87.7476C3932.51 76.6402 3918.74 71.6204 3905.05 71.8999C3857.5 72.8702 3809.95 73.7113 3762.42 75.0695C3685.9 77.2557 3610.07 84.6042 3534.21 94.0866C3476.98 101.241 3410.43 119.256 3356.72 122.612C3232.93 130.349 3090.68 137.254 2970.04 170.155C2875.75 195.871 2774.34 216.812 2684.78 236.715C2676.42 238.572 2660.76 251.893 2653.08 255.732C2597.22 283.664 2533.34 295.648 2472.42 315.953C2450.53 323.249 2415.76 346.258 2393.18 334.97Z" fill="#fcd633" fill-rule="nonzero" opacity="1" stroke="none"/>
<path d="M602.402 1542.56C600.817 2559.98 600.817 2559.98 599.232 3577.39C826.504 3653.15 1068.77 3698 1296.53 3783.41C1612.3 3901.83 1942.02 4007.38 2275.91 4090.86C2473.16 4140.17 2661.68 4208.63 2859.1 4252.5C2908.02 4263.37 2953.74 4287.24 2998.56 4300.05C3011.11 4303.63 3023.92 4300.04 3036.6 4306.38C3042.24 4309.21 3056.71 4319.05 3061.95 4319.06C4403.72 4321.17 5745.48 4319.06 7087.25 4319.06C7087.25 3686.74 7087.25 3686.74 7087.25 3054.42C6962.41 3012.81 6838.01 2962.79 6710.07 2930.81C6662.18 2918.84 6580.31 2911.93 6542.09 2883.27C6530.51 2874.59 6539.51 2864.84 6529.41 2854.74C6517.54 2866.61 6523.16 2889.46 6513.56 2905.45C6501.88 2924.93 6481.73 2949.97 6466.02 2965.68C6433.61 2998.09 6382.82 3005.14 6342.41 3013.22C6275.91 3026.52 6195.96 3046.11 6130.05 3060.76C6124.43 3062.01 6100.19 3125.39 6092.02 3136.83C6046.89 3200.01 5995.05 3258.52 5930.37 3301.65C5971.31 3342.58 6149.07 3332.83 6149.07 3431.6C6149.07 3458.17 6112.8 3473.5 6095.19 3482.31C6063.96 3497.92 6030.42 3522.79 5996.93 3536.19C5957.39 3552.01 5909.28 3557.83 5870.15 3577.39C5800.53 3612.21 5717.54 3620.32 5638.78 3643.95C5552.87 3669.73 5457.62 3693.79 5369.37 3704.17C5326.89 3709.17 5268.37 3721.99 5226.74 3735.87C5192.02 3747.44 5146.04 3748.24 5109.47 3754.89C5004.41 3773.99 4898.96 3792.29 4792.51 3802.43C4782.4 3803.39 4736.05 3817.8 4725.95 3818.28C4501.66 3828.96 4254.75 3831.71 4041.34 3770.73C4006.79 3760.87 3965.69 3765.62 3930.4 3758.06C3840.44 3738.78 3752.91 3716.22 3667.33 3681.99C3613.76 3660.56 3549.85 3616.48 3543.72 3555.21C3541.93 3537.3 3540.55 3519.32 3540.55 3501.33C3540.55 3494.08 3569.6 3459.12 3550.06 3456.95C3295.99 3428.72 3049.41 3345.83 2789.37 3311.15C2683.99 3297.1 2574.52 3273.2 2472.42 3260.44C2448.08 3257.4 2372.73 3203.1 2371 3203.39C2311.9 3213.24 2261.92 3256.86 2203.01 3269.95C2081.56 3296.94 1936.79 3306.18 1816.33 3288.97C1721.01 3275.35 1486.23 3209.48 1496.21 3079.78C1500 3030.42 1594.41 2991.07 1632.5 2965.68C1567.1 2883.93 1491.92 2819.7 1458.17 2718.45C1440.37 2665.06 1424.01 2613.14 1416.97 2556.81C1415.94 2548.53 1415.38 2523.21 1404.29 2518.77C1376.99 2507.85 1314.99 2552.67 1290.19 2556.81C1195.54 2572.58 1095.82 2505.12 1061.98 2420.52C1030.13 2340.89 1080.6 2254.32 1147.56 2220.84C1162.45 2213.39 1204.65 2220.58 1207.78 2198.65C1219.6 2115.89 1257.45 2020.78 1302.87 1945.09C1311.33 1930.99 1384.93 1785.92 1382.1 1780.27C1373.66 1763.38 1215.07 1733.33 1191.93 1726.39C993.018 1666.72 803.302 1592.78 602.402 1542.56Z" fill="#93939e" fill-rule="nonzero" opacity="1" stroke="none"/>
<path d="M1632.5 2959.34C1593.11 2998.72 1500.09 3018.44 1489.87 3079.78C1465.74 3224.53 1778.46 3295.31 1873.38 3298.48C1926.19 3300.24 1979.02 3301.65 2031.86 3301.65C2123.19 3301.65 2220.36 3273.79 2301.27 3241.42C2312.97 3236.74 2366.94 3201.01 2380.5 3209.73C2397.74 3220.81 2413.49 3249.29 2437.56 3254.1C2548.48 3276.29 2668.13 3298.58 2786.2 3314.32C2859.07 3324.04 2932.4 3349.26 3001.73 3361.87C3067.51 3373.82 3131.61 3380.86 3198.24 3399.9C3267.83 3419.78 3339.35 3431.22 3404.26 3447.44C3431.55 3454.27 3534.82 3454.39 3550.06 3469.63C3457.67 3654.4 3760.3 3726.84 3879.69 3748.55C3919.07 3755.71 3950.48 3762.21 3990.62 3767.57C4038.69 3773.97 4082.38 3786.55 4130.08 3796.09C4320.67 3834.21 4537.06 3836.45 4732.29 3824.62C4892.46 3814.91 5073.17 3764.94 5233.08 3735.87C5444.99 3697.34 5676.16 3661.33 5870.15 3583.73C5925.14 3561.74 6155.41 3495.57 6155.41 3425.26C6155.41 3331.24 5972.22 3337.16 5933.54 3298.48C5788.87 3370.81 5601.8 3378.77 5480.3 3257.27C5454.17 3231.14 5449.79 3198.63 5429.59 3171.69C5392.4 3190.29 5336.77 3156.75 5305.98 3187.54C5327.08 3208.64 5360.94 3179.12 5382.04 3200.22C5369.26 3213.01 5346 3203.59 5328.16 3206.56C5269.49 3216.34 5207.47 3236.4 5150.67 3247.76C5131.9 3251.52 5116.84 3246.73 5103.13 3260.44C5104.71 3263.61 5104.71 3263.61 5106.3 3266.78C5098.36 3274.72 5101.56 3277.86 5093.62 3285.8C5098.83 3296.22 5093.97 3303.05 5084.11 3307.98C5075.45 3299.33 5073.75 3299.33 5065.09 3307.98C5051.57 3301.22 5046.82 3304.07 5036.57 3314.32C5028.15 3305.91 5019.38 3307.31 5008.04 3301.65C5030.01 3257.7 4929.76 3280.88 4919.29 3282.63C4815.37 3299.95 4712.54 3317.49 4605.51 3317.49C4600.86 3317.49 4544.85 3301.76 4532.61 3304.81C4528.26 3305.9 4525.9 3310.82 4523.1 3314.32C4514.09 3325.59 4516.67 3342.97 4507.26 3355.53C4483.24 3387.55 4456.31 3419.15 4428.02 3447.44C4331.33 3544.14 4151.33 3555.21 4028.66 3555.21C3776.9 3555.21 3607.76 3292.22 3578.58 3073.44C3568.13 2995.02 3562.74 2914.67 3562.74 2835.73C3562.74 2816.59 3572.5 2797.5 3569.08 2778.67C3564.94 2755.91 3451.76 2810.32 3426.45 2785.01C3412.48 2798.98 3422.97 2785.5 3420.11 2819.88C3416.66 2861.28 3402.51 2938.9 3372.57 2968.85C3360.34 2981.07 3288.34 2960.09 3283.82 2959.34C3215.73 2947.99 3153.08 2939.79 3084.14 2924.47C2913.33 2886.51 2744.71 2860.31 2577.02 2823.05C2505.97 2807.26 2440.73 2798.32 2374.17 2785.01C2350.46 2780.27 2318.98 2762.83 2291.76 2762.83C2284.19 2762.83 2259.29 2821.59 2253.72 2829.39C2221.65 2874.29 2185.17 2913.79 2145.96 2953C2026.73 3072.23 1767.21 3049.15 1632.5 2959.34Z" fill="#60657d" fill-rule="nonzero" opacity="1" stroke="none"/>
<path d="M3882.86 2395.16C3721.88 2415.28 3644.66 2553.28 3591.26 2686.76C3589.19 2691.94 3572.42 2704.16 3572.25 2705.77C3539.84 3013.66 3563.24 3251.44 3784.6 3472.8C3824.74 3512.94 3877.48 3522.41 3924.06 3545.7C3956.71 3513.05 3993.38 3534.2 4044.5 3526.68C4051.9 3525.59 4054.02 3514.79 4060.35 3510.83C4080.04 3498.53 4113.78 3498.46 4133.25 3485.48C4188.12 3448.9 4257.41 3395.46 4285.39 3330.17C4312.8 3266.2 4326.59 3177.17 4326.59 3108.3C4326.59 2914.12 4257.5 2714.91 4149.1 2563.15C4095.52 2488.13 4014.95 2398.33 3882.86 2395.16Z" fill="#253856" fill-rule="nonzero" opacity="1" stroke="none"/>
<path d="M602.402 3574.22C600.817 3724.78 600.817 3724.78 599.232 3875.33C753.911 3889.39 912.381 3948.41 1052.47 4008.45C1086.84 4023.18 1131.42 4027.37 1169.75 4040.14C1232.63 4061.1 1320.71 4082.35 1382.1 4113.04C1406.96 4125.47 1453 4148.78 1480.36 4154.25C1521.71 4162.52 1563.04 4171.78 1600.8 4185.94C1653.98 4205.88 1707.68 4224.18 1762.45 4239.82C1772.87 4242.8 1784.93 4259.38 1794.14 4262.01C1808.71 4266.17 1826.96 4257.82 1841.69 4265.18C1868.68 4278.68 1931.92 4318.87 1965.3 4319.06C2335.07 4321.16 2704.85 4319.06 3074.63 4319.06C3073.05 4314.31 3073.05 4314.31 3071.46 4309.55C3003.15 4309.55 2931.77 4264.78 2862.27 4249.33C2704.61 4214.3 2549.38 4170.39 2396.35 4119.38C2268.89 4076.89 2133.47 4048.8 2003.33 4011.62C1761.52 3942.53 1535.21 3845.27 1296.53 3777.07C1143.62 3733.38 988.415 3677.72 836.946 3634.45C757.559 3611.76 678.928 3599.73 602.402 3574.22Z" fill="#c1bec6" fill-rule="nonzero" opacity="1" stroke="none"/>
<path d="M6469.19 2617.03C6453.13 2633.09 6446.16 2652.37 6424.82 2664.57C6379.13 2690.68 6309.13 2698.3 6256.83 2705.77C6192.8 2714.92 6107.73 2716.92 6044.47 2740.64C6012.3 2752.71 5967.51 2744.05 5933.54 2753.32C5780.94 2794.94 5609.86 2794.16 5448.6 2832.56C5442.79 2833.94 5441.67 2843.59 5435.93 2845.23C5400.16 2855.45 5350.96 2853.97 5315.48 2857.91C5276.08 2862.29 5232.08 2886.6 5195.04 2892.78C5090.93 2910.13 4974.93 2925.41 4862.24 2927.64C4775.62 2929.36 4688.98 2930.81 4602.34 2930.81C4536.21 2930.81 4471.97 2904.95 4405.83 2908.62C4385.83 2909.73 4401.35 2974.14 4402.66 2987.86C4405.88 3021.66 4420.12 3216.67 4469.22 3235.09C4522.81 3255.18 4654.26 3250.93 4703.77 3250.93C4875.86 3250.93 5054.87 3213.44 5226.74 3200.22C5259.99 3197.66 5423.54 3186.95 5429.59 3174.86C5437.6 3158.85 5415.04 3139.06 5413.74 3127.32C5406.5 3062.21 5410.57 2996.32 5410.57 2930.81C5410.57 2928.9 5415.01 2917.33 5416.91 2914.96C5460.37 2860.63 5599.59 2881.35 5664.13 2870.59C5692.04 2865.94 5739.38 2847.29 5762.39 2867.42C5827.6 2924.48 5777.68 3053.87 5838.46 3114.64C5878.87 3094.43 5937.06 3097.96 5981.08 3092.46C6105.42 3076.91 6222.69 3043.5 6342.41 3019.56C6373.77 3013.29 6405.33 3011.6 6434.33 2994.2C6539.84 2930.89 6545.26 2824.39 6545.26 2712.11C6545.26 2679.67 6512.28 2620.2 6469.19 2617.03Z" fill="#56b4cb" fill-rule="nonzero" opacity="1" stroke="none"/>
<path d="M4874.92 521.972C4879.67 528.311 4879.67 528.311 4884.43 534.65C4847.11 571.965 4752.38 547.853 4703.77 560.007C4581.45 590.586 4432.32 579.337 4310.74 598.041C4270.94 604.165 4191.6 587.237 4161.78 617.058C4173.68 628.957 4193.45 628.658 4209.32 642.414C4272.38 697.068 4323.49 767.197 4364.63 835.755C4384.92 869.569 4407.08 998.181 4431.19 1013.25C4435.94 1016.22 4490.96 1004.27 4504.09 1003.74C4588.08 1000.38 4665.42 981.553 4751.31 981.553C4821.15 981.553 4855.22 1006.23 4903.45 1054.45C4909.32 1060.33 4930.01 1098.68 4938.31 1102C4947.1 1105.51 4958.07 1094.68 4966.84 1092.49C5003.94 1083.21 5050.02 1078.67 5087.28 1089.32C5230.52 1130.24 5174.81 1313.61 5128.48 1406.27C5153.52 1431.3 5222.87 1407.65 5255.26 1406.27C5295.39 1404.56 5335.54 1403.1 5375.71 1403.1C5431.26 1403.1 5427.71 1478.05 5432.76 1510.86C5436.63 1536.01 5483.4 1518.26 5508.83 1517.2C5511.19 1517.1 5513.39 1515.59 5515.16 1514.03C5560.42 1474.43 5521.89 1382.45 5508.83 1330.2C5480.16 1215.54 5408.71 1129.04 5366.2 1022.76C5340.35 958.141 5290.83 878.832 5245.75 826.247C5164.59 731.56 5102.77 616.843 4992.19 550.498C4962.15 532.475 4907.35 489.547 4874.92 521.972Z" fill="#68d3e1" fill-rule="nonzero" opacity="1" stroke="none"/>
<path d="M3600.77 1143.2C3622.07 1164.5 3606.22 1210.4 3622.96 1238.28C3649.05 1281.77 3653.19 1339.38 3680.01 1384.08C3704.81 1425.41 3730.57 1475.62 3749.74 1523.54C3757.39 1542.67 3767.09 1592.81 3784.6 1605.95C3807.87 1623.4 3910.13 1576.88 3930.4 1571.08C4048.06 1537.47 4180.75 1524.96 4301.24 1498.19C4322.25 1493.52 4359.5 1487.07 4377.31 1472.83C4388.71 1463.71 4381.49 1439.63 4393.15 1437.96C4435.03 1431.98 4464.29 1460.96 4504.09 1456.98C4531.47 1454.24 4614.92 1438.02 4640.38 1425.29C4668.36 1411.29 4657.59 1375.03 4672.07 1371.4C4720.37 1359.33 4678.39 1419.64 4706.94 1422.12C4729.04 1424.04 4751.39 1424.04 4773.5 1422.12C4776.47 1421.86 4777.72 1417.89 4779.83 1415.78C4735.76 1327.63 4784.98 1226.8 4849.56 1162.22C4861.01 1150.77 4946.75 1101.97 4938.31 1089.32C4852.99 961.333 4734.24 962.182 4592.83 987.892C4551.89 995.336 4507.26 989.16 4466.05 997.401C4355.24 1019.56 4246.79 1038.65 4133.25 1048.11C4059.46 1054.26 3968.95 1071.68 3895.54 1082.98C3890.42 1083.77 3878.43 1095.12 3873.35 1095.66C3824.6 1100.79 3640.09 1103.88 3600.77 1143.2Z" fill="#f55c4e" fill-rule="nonzero" opacity="1" stroke="none"/>
<path d="M1635.67 2033.84C1608.54 2039.26 1555.5 2072.76 1537.41 2059.19C1514.64 2081.96 1502.36 2125.14 1489.87 2154.28C1475.62 2187.52 1438.18 2224.75 1429.65 2258.87C1424.59 2279.12 1429.05 2298.05 1423.31 2319.09C1421.59 2325.39 1408.18 2339.14 1407.46 2344.45C1384.46 2513.1 1415.17 2685.64 1508.89 2826.22C1572.21 2921.21 1661.53 3030.87 1781.46 3006.88C1944.5 2974.27 2022.97 2830.08 2060.38 2680.42C2125.53 2419.81 2018.87 2074.6 1635.67 2033.84Z" fill="#253856" fill-rule="nonzero" opacity="1" stroke="none"/>
<path d="M2228.37 1409.44C2245.56 1397.98 2329.41 1378.88 2329.79 1377.74C2340.15 1346.66 2326.62 1312.26 2326.62 1279.49C2326.62 1254.58 2347.88 1220.2 2364.66 1203.42C2406.58 1161.5 2510.7 1155.12 2564.34 1143.2C2672.85 1119.09 2767.38 1104.88 2878.12 1095.66C2950.8 1089.6 3023.89 1088.28 3096.82 1089.32C3137.02 1089.89 3187.26 1131.88 3217.26 1155.88C3233.04 1140.1 3198.91 1035.71 3195.07 1006.91C3177.47 874.883 3127.26 742.589 3030.26 645.584C2926.38 541.706 2651.55 464.104 2529.47 525.142C2345.21 617.275 2264.76 858.261 2234.71 1038.6C2219.13 1132.05 2215.69 1239.42 2215.69 1339.71C2215.69 1357.57 2215.38 1396.45 2228.37 1409.44Z" fill="#68d3e1" fill-rule="nonzero" opacity="1" stroke="none"/>
<path d="M3610.28 1476C3585.03 1425.51 3524.06 1216.57 3553.23 1174.89C3586.11 1127.91 3668.68 1139.52 3718.04 1121.01C3764.7 1103.52 3821.95 1107.41 3873.35 1102C3890.56 1100.18 3919.03 1085.06 3936.74 1082.98C4025.65 1072.52 4116.4 1061.67 4202.98 1054.45C4208.64 1053.98 4222.59 1042.54 4228.34 1041.77C4278.55 1035.08 4392.62 1045.48 4431.19 1006.91C4405.35 981.077 4405.01 906.205 4393.15 870.62C4391.2 864.748 4380.28 861.909 4377.31 857.942C4367.88 845.377 4365.53 817.088 4358.29 804.06C4339.19 769.69 4217.25 628.009 4187.13 617.058C4132.43 597.165 4023.1 628.73 3965.27 639.245C3884.46 653.937 3795.99 671.199 3718.04 686.788C3636.98 703.001 3542.32 710.449 3470.82 753.348C3430.37 777.617 3437.29 892.154 3435.96 930.841C3434.35 977.312 3432.79 1023.8 3432.79 1070.3C3432.79 1072.99 3438.73 1164.01 3439.13 1168.56C3447.41 1263.82 3466.54 1350.57 3486.67 1441.13C3489.19 1452.47 3493.83 1511.53 3508.86 1514.03C3523.88 1516.54 3602.03 1484.25 3610.28 1476Z" fill="#8de2ee" fill-rule="nonzero" opacity="1" stroke="none"/>
<path d="M6025.46 1853.17C5990.09 1855.7 5946.11 1859.54 5911.35 1869.02C5895.19 1873.43 5861.8 1910.69 5847.96 1922.9C5722.91 2033.25 5729.34 2185.07 5778.23 2331.77C5791.2 2370.66 5793.28 2400.69 5825.78 2433.2C5918.41 2525.83 6133.05 2530.14 6250.49 2496.59C6307.21 2480.38 6339.6 2425.96 6358.26 2379.31C6361.88 2370.27 6379.56 2370 6380.44 2360.3C6384.14 2319.67 6368 2264.97 6399.46 2233.52C6363.12 2185.06 6366.05 2099.41 6332.9 2049.68C6261.85 1943.11 6164.07 1856.34 6025.46 1853.17Z" fill="#f88e2f" fill-rule="nonzero" opacity="1" stroke="none"/>
<path d="M2884.46 1082.98C2870.3 1097.14 2788.59 1094.02 2760.85 1095.66C2660.23 1101.58 2540.84 1132.02 2440.73 1165.39C2403.6 1177.76 2352.44 1191.19 2336.13 1231.95C2320.21 1271.75 2320.28 1320.38 2320.28 1361.9C2320.28 1551.23 2616.86 1552.17 2741.83 1542.56C2767.14 1540.61 2776.76 1522.15 2795.71 1517.2C2820.94 1510.62 2877.6 1514.74 2906.65 1510.86C2927.44 1508.09 2919.25 1476.19 2925.66 1460.15C2938.72 1427.51 2970.49 1387.14 3008.07 1377.74C3078.22 1360.21 3150.06 1358.41 3214.09 1390.42C3232.36 1399.56 3272.04 1427.56 3286.99 1412.61C3247.93 1334.49 3264.95 1232.24 3226.77 1155.88C3207.51 1117.37 3135.48 1097.98 2884.46 1082.98Z" fill="#8c3c85" fill-rule="nonzero" opacity="1" stroke="none"/>
<path d="M3442.3 2686.76C3467.51 2711.97 3587.61 2716.5 3594.43 2699.44C3614.15 2650.13 3628.22 2600.87 3654.65 2556.81C3738.1 2417.73 3911.57 2353.3 4047.67 2455.38C4215.44 2581.21 4274.47 2809.1 4304.41 3003.71C4325.4 3140.17 4322.67 3274.12 4237.85 3387.22C4209.28 3425.31 4171.99 3455.89 4133.25 3479.14C4125.05 3484.06 4113.28 3478.03 4104.73 3482.31C4085.93 3491.71 4055.77 3517.75 4035 3520.34C4005.64 3524.01 3975.69 3517.49 3946.25 3520.34C3936.55 3521.28 3931.86 3533.52 3924.06 3539.36C3938.5 3561.01 4118.32 3559.8 4133.25 3558.38C4276.7 3544.71 4487.99 3480.15 4529.44 3314.32C4537.05 3283.88 4481.98 3270.2 4472.39 3241.42C4456.6 3194.05 4432.26 3154.38 4424.85 3098.8C4416.76 3038.12 4420.54 2967.46 4405.83 2908.62C4342.77 2656.37 4278.37 2511.34 4066.69 2334.94C3972.33 2256.31 3793.46 2192.07 3676.84 2262.04C3570.75 2325.7 3514.33 2419.96 3477.16 2531.45C3460.38 2581.79 3464.77 2641.8 3442.3 2686.76Z" fill="#182240" fill-rule="nonzero" opacity="1" stroke="none"/>
<path d="M4523.1 144.799C4518.35 149.553 4518.35 149.553 4513.59 154.308C4588.77 248.28 4707.22 300.386 4792.51 385.683C4835.81 428.981 4875.74 486.93 4922.46 521.972C4978.47 563.976 5041.8 590.595 5096.79 645.584C5247.2 795.993 5375.45 1009.45 5451.77 1200.25C5481.57 1274.75 5506.92 1341.89 5521.5 1422.12C5527 1452.37 5541.92 1485.4 5515.16 1507.69C5489.45 1529.12 5450.32 1500.04 5423.25 1510.86C5350.63 1539.91 5266.88 1515.09 5188.7 1517.2C5182.01 1517.38 5164.02 1529.06 5157.01 1529.88C5101.3 1536.44 4952.74 1534.47 4916.12 1571.08C4936.77 1591.73 4976.04 1582.2 5004.87 1580.59C5092.46 1575.73 5180.12 1563.17 5267.94 1561.58C5371.47 1559.69 5475.25 1565.36 5578.55 1558.41C5628.12 1555.07 5584.31 1371.7 5603.91 1361.9C5642.33 1342.69 5701.39 1350.29 5743.37 1342.88C5829.71 1327.64 5882.83 1245.86 5882.83 1159.05C5882.83 1012.92 5764.13 978.127 5645.11 1022.76C5595.22 1041.47 5547.32 1048.56 5511.99 1095.66C5460.98 1044.64 5438.75 954.089 5397.89 892.807C5301.67 748.468 5201.14 585.122 5074.6 458.582C4955.01 338.992 4804.35 240.181 4653.05 179.664C4613.5 163.841 4562.86 164.68 4523.1 144.799Z" fill="#f88e2f" fill-rule="nonzero" opacity="1" stroke="none"/>
<path d="M3882.86 2594.84C3761.27 2594.84 3731.7 2734.2 3702.2 2832.56C3645.12 3022.82 3749.27 3349.19 3990.62 3349.19C4088.69 3349.19 4147.53 3202.55 4164.95 3124.15C4209.48 2923.75 4123.54 2594.84 3882.86 2594.84Z" fill="#68d3e1" fill-rule="nonzero" opacity="1" stroke="none"/>
<path d="M2611.88 1742.24C2560.87 1735.62 2559.25 1793.55 2558 1837.32C2556.34 1895.42 2554.83 1953.53 2554.83 2011.65C2554.83 2147 2634.88 2353.37 2776.7 2388.82C2925.24 2425.96 3016.99 2266.6 3065.12 2154.28C3073.57 2134.56 3111.86 2098.84 3125.34 2071.87C3138.38 2045.79 3181.66 1947.03 3172.89 1922.9C3164.98 1901.15 3056.52 1879.69 3030.26 1872.19C2942.73 1847.18 2854.58 1814.69 2770.36 1786.61C2719.25 1769.58 2666.79 1749.37 2611.88 1742.24Z" fill="#258cb0" fill-rule="nonzero" opacity="1" stroke="none"/>
<path d="M1775.13 1846.83C1757.06 1864.9 1718.71 1858.24 1695.89 1875.36C1665.86 1897.88 1534.24 2011.65 1534.24 2062.36C1534.24 2086.53 1612.47 2044.64 1632.5 2043.34C1659.93 2041.57 1687.42 2040.17 1714.9 2040.17C1812.46 2040.17 1914.88 2113 1971.64 2185.97C2088.23 2335.87 2100.03 2589.22 2031.86 2759.66C2015.16 2801.41 2006.63 2841.36 1974.81 2876.93C1942.54 2912.99 1890.34 2966.19 1841.69 2978.35C1817.75 2984.34 1752.07 2995.95 1743.43 3013.22C1770.75 3040.54 1879.42 3038.57 1911.42 3038.57C2045.57 3038.57 2120.79 2984.5 2215.69 2889.61C2225.28 2880.01 2296.89 2787.12 2291.76 2769.17C2277.49 2719.22 2256.11 2665.38 2241.05 2620.2C2223.85 2568.62 2218.48 2507.56 2206.18 2452.21C2160.7 2247.57 2096.07 2085.37 1943.11 1932.41C1896.56 1885.86 1842.74 1877.47 1775.13 1846.83Z" fill="#182240" fill-rule="nonzero" opacity="1" stroke="none"/>
<path d="M6450.17 2525.11C6432.75 2542.53 6442.3 2615.49 6459.68 2632.88C6493.92 2598.64 6534.09 2677.35 6535.75 2708.94C6537.64 2744.83 6538.92 2780.77 6538.92 2816.71C6538.92 2835.17 6516.27 2871.83 6535.75 2886.44C6573.27 2914.57 6644.46 2915.28 6691.06 2930.81C6820.85 2974.07 6954.32 3014.34 7084.08 3057.59C7085.14 2932.92 7088.3 2808.26 7087.25 2683.59C7087.23 2681.23 7083.15 2681.17 7080.91 2680.42C7032.88 2664.41 6980.4 2657.03 6928.77 2645.55C6807.5 2618.61 6688.69 2580.78 6567.45 2550.47C6536.85 2542.82 6473.33 2548.27 6450.17 2525.11Z" fill="#c1bec6" fill-rule="nonzero" opacity="1" stroke="none"/>
<path d="M2393.18 338.14C2412.01 356.966 2456.25 328.723 2478.76 322.292C2535.59 306.055 2581.19 280.864 2637.24 268.41C2654.59 264.555 2668.83 246.599 2684.78 243.054C2819.94 213.019 2969.3 179.533 3112.66 157.477C3159.77 150.23 3217.99 131.679 3261.63 128.951C3351.96 123.306 3438.99 115.102 3531.04 103.595C3607.09 94.0896 3682.6 87.8395 3759.25 84.578C3784.6 83.4991 3817.37 69.8025 3835.32 87.7476C3815.4 107.666 3764.45 94.4783 3733.89 97.2561C3678.19 102.32 3610.26 99.6993 3556.4 116.273C3529.17 124.652 3496.81 142.556 3467.65 144.799C3442.37 146.744 3416.92 143.894 3391.58 144.799C3385.38 145.021 3301.2 170.773 3299.67 173.325C3280.34 205.529 3373.89 205.566 3382.07 205.02C3497.38 197.333 3612.36 181.553 3727.55 173.325C3953.29 157.2 4179.4 138.44 4405.83 141.629C4414.87 141.757 4478.91 154.131 4491.41 141.629C4461.31 101.496 4383.25 80.5164 4336.1 68.7304C4213.29 38.0265 4075.75 39.1297 3946.25 14.8485C3781.53-16.037 3600.67 7.77553 3432.79 27.5266C3242.3 49.9367 3063.58 72.792 2878.12 125.782C2842.3 136.016 2797.26 140.856 2764.02 157.477C2704.46 187.255 2628.6 218.618 2567.51 243.054C2508.8 266.539 2445.19 299.133 2393.18 338.14Z" fill="#fdf5cb" fill-rule="nonzero" opacity="1" stroke="none"/>
<path d="M602.402 1282.66C600.817 1414.19 600.817 1414.19 599.232 1545.73C747.677 1582.84 883.652 1637.37 1027.12 1685.19C1041.19 1689.88 1064.08 1687.78 1077.83 1691.53C1158.36 1713.49 1241.61 1745.57 1318.71 1767.6C1339.46 1773.52 1361.61 1773.2 1382.1 1783.44C1416.61 1748.94 1439.61 1681.12 1461.34 1637.64C1465.45 1629.44 1485.61 1613.19 1483.53 1602.78C1480.1 1585.62 1433.36 1578.03 1420.14 1574.25C1363.9 1558.19 1310.43 1538.74 1255.32 1520.37C1135.43 1480.41 1012.58 1413.44 887.659 1377.74C822.55 1359.14 745.758 1341.66 684.809 1311.18C659.768 1298.66 626.829 1298.94 602.402 1282.66Z" fill="#c1bec6" fill-rule="nonzero" opacity="1" stroke="none"/>
<path d="M1686.38 2189.14C1414.56 2232.35 1494.45 2791.35 1794.14 2791.35C1890.19 2791.35 1914.57 2634.66 1917.75 2569.49C1926.57 2388.7 1896.37 2155.77 1686.38 2189.14Z" fill="#68d3e1" fill-rule="nonzero" opacity="1" stroke="none"/>
<path d="M4469.22 1456.98C4472.39 1453.81 4472.39 1453.81 4475.56 1450.64C4461.53 1436.61 4408.61 1428.9 4393.15 1431.63C4371.12 1435.51 4387.6 1459.68 4370.97 1469.66C4332.33 1492.84 4270.6 1490.26 4228.34 1498.19C4121.57 1518.21 4001.49 1551.82 3895.54 1571.08C3842.37 1580.75 3783.88 1615.46 3727.55 1615.46C3703.85 1615.46 3548.46 1613.91 3540.55 1637.64C3528.82 1672.85 3582.46 1742.95 3603.94 1764.43C3666.23 1826.71 3779.63 1763.77 3847.99 1748.58C4030.56 1708.01 4216.76 1659.91 4402.66 1631.31C4464.36 1621.81 4524.78 1622.93 4583.32 1612.29C4622.98 1605.08 4677.44 1596.68 4716.44 1586.93C4742.71 1580.37 4776.26 1588.87 4802.02 1577.42C4813.33 1572.4 4829.07 1522.69 4827.38 1510.86C4825.44 1497.29 4688.74 1516.24 4675.24 1517.2C4584.81 1523.66 4531.02 1527.61 4469.22 1456.98Z" fill="#3a4d78" fill-rule="nonzero" opacity="1" stroke="none"/>
<path d="M6088.85 1951.43C5918.25 1993.17 5908.19 2087.61 5908.19 2252.53C5908.19 2345.98 6022.44 2468.04 6111.03 2455.38C6327.74 2424.42 6351.66 2128.66 6215.63 1992.63C6185.51 1962.51 6126.24 1942.28 6088.85 1951.43Z" fill="#f4f4f5" fill-rule="nonzero" opacity="1" stroke="none"/>
<path d="M4748.14 2160.62C4761.05 2173.53 4784.56 2166.31 4802.02 2173.29C4856.92 2195.25 4908.02 2223.65 4935.14 2277.89C4957.88 2323.37 4960.5 2379.84 4960.5 2430.03C4960.5 2533.64 4892.26 2651 4783 2661.4C4763.08 2663.3 4729.05 2669.29 4706.94 2658.23C4596.43 2602.98 4553.13 2349.28 4634.04 2268.38C4630.56 2264.9 4599.43 2241.14 4599.17 2239.85C4593.56 2211.82 4579.96 2185.97 4545.29 2185.97C4530.36 2185.97 4528.55 2212.68 4513.59 2217.67C4513.59 2252.48 4504.83 2228.12 4494.58 2258.87C4486.11 2284.29 4480.3 2329.73 4478.73 2357.13C4473.63 2446.43 4487.81 2587.48 4548.46 2658.23C4561.79 2673.79 4602.17 2716.94 4627.7 2724.79C4679.29 2740.66 4735.37 2734.3 4789.34 2734.3C4888.33 2734.3 4957.75 2680 5023.89 2613.86C5037.32 2600.42 5055.05 2570.3 5058.75 2553.64C5077.98 2467.11 5094.05 2348.43 5049.24 2265.21C5038.36 2244.99 5021.71 2229.16 5011.21 2208.16C4974.81 2135.35 4907.22 2123.67 4843.23 2100.4C4830.06 2095.61 4817.83 2081.39 4798.85 2087.72C4797.49 2088.17 4752.29 2114.82 4751.31 2119.41C4748.42 2132.88 4754.3 2148.3 4748.14 2160.62Z" fill="#f88e2f" fill-rule="nonzero" opacity="1" stroke="none"/>
<path d="M4751.31 2157.45C4683.09 2155.8 4645.66 2226.12 4615.02 2287.4C4546.33 2424.77 4599.96 2670.91 4779.83 2670.91C4926.46 2670.91 4987.93 2454.49 4963.67 2341.28C4938.43 2223.52 4860.37 2160.09 4751.31 2157.45Z" fill="#f4f4f5" fill-rule="nonzero" opacity="1" stroke="none"/>
<path d="M3841.66 2147.94C3723.4 2167.65 3661.99 2197.65 3575.42 2284.23C3538.74 2320.91 3496.57 2363.86 3537.38 2404.67C3583.64 2358.41 3611.4 2294.56 3676.84 2268.38C3891.13 2182.66 4085.01 2329.51 4218.83 2483.91C4248.49 2518.13 4266.25 2560.87 4291.73 2594.84C4334.86 2652.36 4359.94 2756.76 4377.31 2826.22C4380.53 2839.13 4387.56 2912.81 4405.83 2914.96C4412.09 2915.7 4482.03 2924.44 4494.58 2921.3C4520.19 2914.9 4495.6 2852.49 4491.41 2835.73C4472.83 2761.42 4451.66 2683.33 4418.51 2617.03C4390.29 2560.6 4369.65 2498.8 4345.61 2442.7C4341.12 2432.23 4333.73 2438.95 4326.59 2430.03C4306.86 2405.36 4291.43 2363.07 4272.71 2338.11C4249.85 2307.62 4220.42 2282.65 4193.47 2255.7C4181.53 2243.76 4100.16 2185.31 4088.88 2182.8C4027.15 2169.09 3956.59 2156.29 3841.66 2147.94Z" fill="#f88e2f" fill-rule="nonzero" opacity="1" stroke="none"/>
<path d="M3093.65 1355.56C2961.65 1367.56 2885.66 1456.67 2912.98 1593.27C2920.26 1629.66 2932.86 1673.65 2960.53 1697.87C3002.38 1734.48 3169.55 1720.89 3210.92 1710.54C3259.15 1698.49 3297.67 1701.36 3337.7 1669.34C3354 1656.3 3347.61 1640.42 3359.89 1628.14C3346.62 1601.59 3352.73 1552.28 3337.7 1517.2C3295.74 1419.3 3219.57 1370.96 3093.65 1355.56Z" fill="#f88e2f" fill-rule="nonzero" opacity="1" stroke="none"/>
<path d="M5705.34 2854.74C5611.98 2870.3 5498.79 2853.79 5423.25 2899.12C5413.7 2904.85 5407.62 2917.05 5407.4 2927.64C5406.39 2976.24 5404.23 3024.83 5404.23 3073.44C5404.23 3091.26 5410.59 3183.32 5442.27 3193.88C5469.4 3202.93 5514.05 3182.85 5540.52 3178.03C5609.23 3165.54 5683.84 3150.13 5749.71 3140C5791.69 3133.54 5807.91 3136.76 5841.63 3111.47C5830.28 3100.13 5828.99 3070.49 5825.78 3054.42C5814.69 2998.97 5804.41 2883.68 5705.34 2854.74Z" fill="#f88e2f" fill-rule="nonzero" opacity="1" stroke="none"/>
<path d="M1645.18 1834.16C1608.69 1843.28 1564.34 1849.61 1534.24 1872.19C1428.16 1951.75 1309.86 2119.96 1277.51 2249.36C1271.04 2275.25 1272.73 2312.9 1268 2341.28C1256.25 2411.77 1259.62 2438.24 1255.32 2521.94C1254.92 2529.76 1235.88 2557.93 1258.49 2563.15C1269.12 2565.6 1410 2529.75 1410.63 2518.77C1412.62 2483.96 1410.63 2449.04 1410.63 2414.18C1410.63 2392.39 1410.52 2365.66 1413.8 2347.62C1415.07 2340.65 1428.08 2326.93 1429.65 2319.09C1433.98 2297.41 1428.66 2280.86 1435.99 2258.87C1438.6 2251.04 1452.39 2250.85 1455 2243.02C1460.2 2227.43 1457.17 2206.33 1467.68 2192.31C1474.3 2183.48 1493.2 2168.65 1496.21 2160.62C1526.81 2079 1571.22 1993.69 1638.84 1926.07C1659.84 1905.07 1698.28 1873.18 1727.58 1865.85C1748.41 1860.64 1761.25 1867.05 1778.3 1850C1765.48 1837.19 1758.94 1840.44 1645.18 1834.16Z" fill="#2a668c" fill-rule="nonzero" opacity="1" stroke="none"/>
<path d="M6114.2 3063.93C5928.73 3081.68 5765.34 3129.38 5584.89 3162.19C5562.51 3166.26 5434.77 3181.74 5439.1 3203.39C5450.26 3259.24 5527.52 3316.62 5581.72 3330.17C5603.08 3335.51 5628.62 3352.25 5648.28 3355.53C5786.47 3378.56 5918.67 3335.53 6015.95 3238.25C6026 3228.2 6035.07 3217.22 6044.47 3206.56C6048.26 3202.27 6170.56 3058.54 6114.2 3063.93Z" fill="#182240" fill-rule="nonzero" opacity="1" stroke="none"/>
<path d="M602.402 1200.25C601.404 1227.18 578.809 1272.09 605.571 1292.17C619.503 1302.62 651.622 1305.4 668.962 1311.18C730.118 1331.57 805.14 1347.58 865.472 1377.74C993.942 1441.98 1150.64 1488.97 1287.02 1529.88C1299.14 1533.52 1312.96 1548.61 1325.05 1552.07C1362.39 1562.74 1402.6 1565.48 1439.16 1583.76C1445.58 1586.97 1468.68 1601.03 1477.19 1599.61C1508.33 1594.42 1511.97 1537.07 1534.24 1520.37C1539 1516.81 1666.71 1533.6 1686.38 1536.22C1798.02 1551.11 1900.86 1564.49 2003.33 1590.1C2032.5 1597.39 2095.42 1624.8 2117.43 1602.78C2097.2 1582.54 2043.61 1577.99 2016.01 1571.08C1903.42 1542.94 1784.13 1514.56 1673.7 1504.52C1646.18 1502.02 1564.93 1509.86 1540.58 1485.51C1498.02 1528.07 1365.77 1465.27 1312.38 1447.47C1154.55 1394.87 1002.06 1328.19 846.455 1276.32C766.97 1249.82 675.816 1236.96 602.402 1200.25Z" fill="#f4f4f5" fill-rule="nonzero" opacity="1" stroke="none"/>
<path d="M5023.89 1076.64C4925.04 1085.63 4796.93 1163.56 4770.33 1269.98C4763.29 1298.13 4754.48 1329.25 4754.48 1358.73C4754.48 1366.29 4776.75 1414.5 4763.99 1415.78C4718.99 1420.28 4673.64 1412.84 4630.87 1418.95C4599.46 1423.44 4573.42 1435.92 4542.12 1441.13C4526.23 1443.78 4470.76 1443.85 4462.88 1456.98C4457.13 1466.57 4525.1 1513.74 4538.95 1517.2C4555 1521.22 4549.9 1524.98 4561.14 1536.22C4567.15 1542.23 4611 1530.63 4624.53 1529.88C4689.49 1526.27 4768 1528.54 4830.55 1507.69C4830.55 1475.52 4869.56 1426.04 4862.24 1396.76C4853.57 1362.08 4817.87 1389.94 4817.87 1320.69C4817.87 1300.51 4838.83 1276.58 4849.56 1260.47C4899.99 1184.83 4971.37 1135.44 5065.09 1162.22C5165.34 1190.86 5105.33 1335.52 5065.09 1387.25C5054.84 1400.44 5028.19 1399.64 5023.89 1415.78C5019.77 1431.23 5014.5 1460.46 5030.23 1463.32C5084.37 1473.17 5128.72 1421.65 5150.67 1377.74C5208.61 1261.86 5203.44 1101.38 5023.89 1076.64Z" fill="#182240" fill-rule="nonzero" opacity="1" stroke="none"/>
<path d="M2291.76 1377.74C2276.56 1378.72 2227.7 1390.53 2222.03 1409.44C2205.36 1465 2274.24 1550.68 2323.45 1564.75C2461.02 1604.05 2608.4 1602.68 2741.83 1647.15C2811.67 1670.43 2877.31 1688.09 2944.68 1710.54C2963.06 1716.67 2988.07 1733.1 3004.9 1735.9C3011.07 1736.93 3028.93 1730.07 3023.92 1720.05C3012 1696.21 2950.99 1707.27 2938.34 1656.66C2926.28 1608.44 2924.5 1564.08 2916.15 1514.03C2915.42 1509.61 2911.03 1505.46 2906.65 1504.52C2889.66 1500.89 2806.95 1509.68 2795.71 1510.86C2777.77 1512.75 2766.06 1531.43 2745 1533.05C2655.54 1539.93 2566.93 1538.01 2478.76 1520.37C2437.95 1512.21 2389.33 1491.48 2361.49 1460.15C2328.29 1422.8 2352.1 1373.87 2291.76 1377.74Z" fill="#3a4d78" fill-rule="nonzero" opacity="1" stroke="none"/>
<path d="M2513.62 2204.99C2513.62 2243.12 2549.66 2279.81 2573.85 2306.41C2639.51 2378.64 2702.57 2417.38 2792.54 2401.5C2809.32 2398.54 2831.21 2407.21 2843.26 2395.16C2840.99 2392.9 2747.44 2366.27 2729.15 2357.13C2559.48 2272.29 2561.17 1990.28 2561.17 1840.49C2561.17 1824.78 2564.33 1761.89 2589.69 1751.75C2597.78 1748.51 2608.89 1751.57 2615.05 1745.41C2582.82 1713.18 2493.85 1710.4 2478.76 1770.76C2449.81 1886.57 2434.62 2031.14 2488.27 2138.43C2499.35 2160.6 2483.41 2194.92 2513.62 2204.99Z" fill="#f88e2f" fill-rule="nonzero" opacity="1" stroke="none"/>
<path d="M4196.64 1935.58C4198.23 1938.75 4198.23 1938.75 4199.81 1941.92C4189.56 1952.17 4186.66 1948.73 4177.62 1957.77C4179.21 1960.94 4179.21 1960.94 4180.79 1964.11C4173.26 1971.64 4178.68 1986.44 4168.12 1989.46C4141.75 1997 4160.27 1981.46 4145.93 1995.8C4171.58 2021.45 4239.76 2029.19 4272.71 2040.17C4362.6 2070.14 4448.77 2110.31 4532.61 2160.62C4552.59 2172.6 4583.93 2180.24 4599.17 2195.48C4622.95 2183.59 4713.27 2118.78 4738.63 2128.92C4752.17 2134.34 4741.29 2150.6 4751.31 2160.62C4760.4 2151.53 4755.53 2135.26 4757.65 2122.58C4760.75 2103.99 4821.64 2091.19 4840.06 2100.4C4846.39 2094.06 4846.39 2094.06 4852.73 2087.72C4836.23 2071.21 4806.15 2084.4 4783 2081.38C4735.76 2075.22 4687.92 2075.04 4640.38 2071.87C4625.23 2070.86 4608.49 2046.48 4592.83 2043.34C4563.27 2037.43 4518.3 2029.85 4488.24 2014.82C4479.1 2010.25 4459.46 1994.95 4450.2 1992.63C4440.24 1990.14 4417.43 1995.91 4405.83 1989.46C4387.12 1979.07 4400.87 1976.08 4383.64 1973.61C4367.01 1971.24 4365.97 1978.93 4345.61 1970.44C4333.56 1965.42 4337.37 1956.75 4326.59 1954.6C4316.08 1952.49 4297.67 1955.98 4288.56 1951.43C4264.97 1939.64 4220.71 1911.51 4196.64 1935.58Z" fill="#fdaf3a" fill-rule="nonzero" opacity="1" stroke="none"/>
<path d="M3905.05 2823.05C3746.29 2839.7 3753.25 3140 3917.72 3140C4023.63 3140 4053.58 3001.55 4038.17 2924.47C4024.53 2856.29 3965.4 2816.72 3905.05 2823.05Z" fill="#3a4d78" fill-rule="nonzero" opacity="1" stroke="none"/>
<path d="M1176.09 2204.99C974.722 2259.29 1030.82 2497.38 1207.78 2550.47C1227.36 2556.34 1222.59 2566.1 1252.15 2563.15C1263.77 2561.98 1254.27 2539.9 1255.32 2528.28C1259.06 2487.19 1259.55 2445.87 1261.66 2404.67C1262.74 2383.65 1293.23 2271.15 1287.02 2252.53C1279.35 2229.51 1197.34 2199.26 1176.09 2204.99Z" fill="#2cabd7" fill-rule="nonzero" opacity="1" stroke="none"/>
<path d="M4998.53 3307.98C5001.7 3311.15 5001.7 3311.15 5004.87 3314.32C5008.04 3312.74 5008.04 3312.74 5011.21 3311.15C5022.01 3321.95 5025.76 3309.86 5036.57 3320.66C5046.82 3310.41 5051.57 3307.56 5065.09 3314.32C5073.75 3305.67 5075.45 3305.67 5084.11 3314.32C5093.91 3309.42 5098.07 3306.7 5106.3 3298.48C5091.88 3269.65 5133.41 3257.55 5150.67 3254.1C5175.01 3249.23 5206.92 3234.88 5229.91 3228.75C5276.53 3216.31 5327.96 3219.27 5375.71 3212.9C5382.23 3212.03 5435.8 3212.65 5426.42 3193.88C5425.08 3191.21 5423.06 3187.78 5420.08 3187.54C5383.21 3184.55 5346.14 3184.37 5309.15 3184.37C5294.32 3184.37 5279.55 3186.36 5264.77 3187.54C5135.31 3197.9 5006.53 3205.82 4878.09 3225.58C4771.23 3242.02 4655.72 3254.83 4548.46 3241.42C4534.34 3239.66 4476 3215.18 4466.05 3235.09C4457.7 3251.78 4534.18 3317.07 4561.14 3320.66C4601.99 3326.11 4643.53 3323.83 4684.75 3323.83C4771.58 3323.83 4859.85 3302.01 4944.65 3288.97C4964.83 3285.86 5018.7 3267.65 4998.53 3307.98Z" fill="#2a668c" fill-rule="nonzero" opacity="1" stroke="none"/>
<path d="M6431.16 2436.36C6415.32 2452.21 6428.11 2522.07 6443.83 2537.79C6447 2534.62 6447 2534.62 6450.17 2531.45C6464.32 2545.6 6590.36 2563.92 6618.16 2569.49C6740.48 2593.95 6851.95 2635.06 6969.98 2664.57C7008.24 2674.14 7050 2669.72 7084.08 2686.76C7085.14 2662.46 7088.22 2638.16 7087.25 2613.86C7087.13 2610.85 7077.35 2604.9 7074.57 2604.35C7023.1 2594.06 6971.03 2576.09 6919.26 2563.15C6818.97 2538.07 6706.29 2516.45 6608.65 2483.91C6552 2465.02 6486.21 2463.89 6431.16 2436.36Z" fill="#f4f4f5" fill-rule="nonzero" opacity="1" stroke="none"/>
<path d="M3594.43 1140.03C3533.48 1153.18 3530.27 1222.11 3543.72 1282.66C3566.52 1385.26 3604.76 1461.8 3648.31 1548.9C3654.44 1561.15 3659.24 1615.52 3676.84 1618.63C3694.56 1621.75 3712.73 1621.8 3730.72 1621.8C3741.73 1621.8 3782.12 1614.08 3787.77 1602.78C3795.04 1588.25 3760.98 1545.32 3756.08 1533.05C3735.97 1482.78 3712.38 1430.93 3686.35 1384.08C3665.38 1346.33 3660.87 1297.24 3638.81 1260.47C3624.1 1235.95 3625.97 1133.23 3594.43 1140.03Z" fill="#e93f2f" fill-rule="nonzero" opacity="1" stroke="none"/>
<path d="M5131.65 1403.1C5082.84 1451.91 5078.85 1440.77 5020.72 1460.15C5020.72 1490.37 4998.14 1510.54 5001.7 1542.56C5004.37 1566.59 5179.63 1523.79 5188.7 1523.54C5264.74 1521.49 5340.87 1525.6 5416.91 1523.54C5418.17 1523.51 5438.61 1514.05 5439.1 1510.86C5462.21 1360.64 5291.36 1392.05 5191.87 1403.1C5172.19 1405.29 5147.29 1418.74 5131.65 1403.1Z" fill="#2a668c" fill-rule="nonzero" opacity="1" stroke="none"/>
<path d="M4827.38 1377.74C4835 1385.36 4850.22 1391.41 4855.9 1399.93C4863.91 1411.93 4798.76 1548.61 4808.36 1577.42C4830.76 1577.42 5002.07 1565.62 5008.04 1545.73C5015.52 1520.81 5026.21 1419.8 5036.57 1409.44C5021.28 1378.87 5022.39 1357.78 5017.55 1323.86C5017.13 1320.9 5014.08 1318.34 5011.21 1317.52C4995.7 1313.09 4984.11 1324.86 4970.01 1327.03C4932.75 1332.76 4883.78 1335.28 4849.56 1352.39C4840.86 1356.74 4837.82 1370.78 4827.38 1377.74Z" fill="#768392" fill-rule="nonzero" opacity="1" stroke="none"/>
<path d="M1699.06 2363.47C1628.3 2383.7 1611.82 2458.26 1632.5 2540.96C1644.18 2587.69 1706.88 2654.81 1759.28 2623.37C1871.4 2556.1 1823.98 2327.74 1699.06 2363.47Z" fill="#3a4d78" fill-rule="nonzero" opacity="1" stroke="none"/>
<path d="M3502.52 1875.36C3497.76 1880.11 3497.76 1880.11 3493.01 1884.87C3522.41 1921.62 3565.03 1913.72 3607.11 1919.73C3699.86 1932.98 3803.14 1948.92 3901.88 1964.11C4050.76 1987.01 4205.93 2030.58 4348.78 2087.72C4390.89 2104.56 4427.09 2132.35 4466.05 2147.94C4500.58 2161.75 4556.32 2185.53 4586.49 2208.16C4601.89 2219.71 4584.11 2213.67 4592.83 2239.85C4594.39 2244.53 4625.2 2265.88 4627.7 2268.38C4652.39 2251.92 4666.59 2216.81 4687.92 2195.48C4700.73 2182.67 4720.98 2181.44 4732.29 2170.12C4674.49 2112.33 4655.95 2160.75 4599.17 2189.14C4551.55 2141.52 4460.35 2122.33 4402.66 2087.72C4361.66 2063.11 4305.73 2049.07 4260.03 2033.84C4097.78 1979.75 3927.06 1945.06 3752.91 1913.39C3671.79 1898.64 3575.44 1911.82 3502.52 1875.36Z" fill="#fbe0ab" fill-rule="nonzero" opacity="1" stroke="none"/>
<path d="M4989.02 1149.54C4969.62 1150.95 4948.78 1160.15 4931.97 1168.56C4892.74 1188.17 4790.3 1297.74 4814.7 1358.73C4818.89 1369.2 4826.18 1387 4840.06 1377.74C4858.13 1365.69 4847.88 1330.33 4862.24 1311.18C4910.27 1247.15 4960.75 1219 5039.74 1222.44C5109.12 1225.45 5017.69 1320.13 5017.55 1320.69C5014.22 1334.02 5017.55 1348.16 5017.55 1361.9C5017.55 1373.77 5022.27 1420.94 5042.91 1415.78C5098.81 1401.8 5140.63 1244.79 5115.8 1203.42C5083.84 1150.14 5046.88 1145.33 4989.02 1149.54Z" fill="#f55c4e" fill-rule="nonzero" opacity="1" stroke="none"/>
<path d="M4145.93 579.024C4149.1 582.193 4149.1 582.193 4152.27 585.363C4139.75 610.4 4180.11 605.696 4190.3 607.55C4244.92 617.479 4321.1 603.394 4377.31 598.041C4448.14 591.295 4687.11 595.683 4735.46 547.329C4718.72 513.838 4637.39 523.818 4618.19 525.142C4490.26 533.964 4352.49 545.125 4225.17 566.346C4198.85 570.732 4165.66 559.293 4145.93 579.024Z" fill="#182240" fill-rule="nonzero" opacity="1" stroke="none"/>
<path d="M3473.99 759.687C3557.65 703.913 3735.63 685.319 3832.15 667.77C3873.85 660.189 3949.08 661.774 3977.94 632.906C3968.44 623.397 3961.57 610.137 3949.42 604.38C3918.77 589.863 3865.2 605.211 3832.15 610.719C3741.36 625.851 3662.94 638.758 3572.25 661.431C3509.35 677.155 3510.85 680.289 3480.33 731.161C3472.49 744.222 3463.74 744.314 3473.99 759.687Z" fill="#182240" fill-rule="nonzero" opacity="1" stroke="none"/>
<path d="M3372.57 1672.51C3361.47 1661.42 3361.47 1661.42 3350.38 1650.32C3331.87 1665.74 3322.55 1673.03 3302.84 1688.36C3291.78 1696.96 3271.89 1687.61 3258.46 1701.04C3245.71 1694.66 3220.74 1700.73 3210.92 1710.54C3231.89 1731.51 3290.91 1781.2 3309.18 1726.39C3321.05 1726.39 3315.85 1727.81 3325.02 1723.22C3360.96 1759.16 3348.57 1831.44 3391.58 1865.85C3405.21 1876.75 3440.21 1822.83 3448.63 1808.8C3479.88 1756.73 3437.43 1706.93 3426.45 1663C3423.58 1651.54 3431.69 1630.45 3420.11 1628.14C3404.67 1625.05 3376.56 1668.52 3372.57 1672.51Z" fill="#fb6a2d" fill-rule="nonzero" opacity="1" stroke="none"/>
<path d="M1584.95 1437.96C1588.12 1441.13 1588.12 1441.13 1591.29 1444.3C1608.45 1435.73 1632.1 1441.85 1651.51 1437.96C1713.78 1425.51 1778.45 1390.27 1822.67 1346.05C1842.32 1326.4 1862.35 1216.35 1825.84 1222.44C1813.07 1224.56 1802.37 1238.93 1790.97 1244.62C1708.61 1285.8 1634.93 1363.01 1584.95 1437.96Z" fill="#fdf5cb" fill-rule="nonzero" opacity="1" stroke="none"/>
<path d="M3607.11 1472.83C3591.15 1475.49 3511.16 1494.43 3505.69 1510.86C3502.55 1520.28 3530.06 1636.91 3543.72 1640.81C3567.74 1647.68 3658.48 1627.48 3676.84 1609.12C3657.96 1590.23 3654.95 1543.08 3641.98 1520.37C3634.3 1506.94 3616.62 1499.79 3607.11 1472.83Z" fill="#2a668c" fill-rule="nonzero" opacity="1" stroke="none"/>
<path d="M4852.73 1361.9C4876.27 1350.13 4984.31 1320.44 5004.87 1323.86C5021.92 1326.7 5005.43 1356.12 5017.55 1368.24C5028.11 1357.67 5018.72 1337.88 5023.89 1323.86C5028.29 1311.92 5049.24 1308.06 5049.24 1295.34C5049.24 1242.62 4950.28 1247.79 4925.63 1247.79C4895.76 1247.79 4821.94 1331.11 4852.73 1361.9Z" fill="#9eb0bf" fill-rule="nonzero" opacity="1" stroke="none"/>
<path d="M3448.63 2686.76C3427.99 2682.5 3436.16 2729.92 3432.79 2750.15C3430.25 2765.39 3416.96 2793.17 3435.96 2804.03C3442.27 2807.64 3569.2 2779.56 3572.25 2775.5C3587.49 2755.18 3597.83 2714.79 3572.25 2699.44C3546.96 2684.26 3494.59 2696.24 3448.63 2686.76Z" fill="#2a668c" fill-rule="nonzero" opacity="1" stroke="none"/>
<path d="M3001.73 1732.73C3003.32 1735.9 3003.32 1735.9 3004.9 1739.07C3001.73 1742.24 3001.73 1742.24 2998.56 1745.41C3023.14 1769.99 3243.78 1756.92 3255.29 1745.41C3241.4 1731.51 3229.75 1709.7 3207.75 1704.2C3195.28 1701.09 3182.57 1710.54 3169.72 1710.54C3104.53 1710.54 3054.47 1697.57 3001.73 1732.73Z" fill="#f55c4e" fill-rule="nonzero" opacity="1" stroke="none"/>
<path d="M3911.38 604.38C3919.74 612.732 3935.43 605.985 3946.25 610.719C3959.27 616.416 3963.92 636.908 3977.94 639.245C3998.18 642.617 4181.92 622.275 4196.64 607.55C4183.36 594.263 4169.82 606.082 4155.44 591.702C4157.02 588.532 4157.02 588.532 4158.61 585.363C4144.13 570.881 3932.15 583.614 3911.38 604.38Z" fill="#253856" fill-rule="nonzero" opacity="1" stroke="none"/>
<path d="M3518.36 2369.8C3489.02 2384.48 3453.3 2465.45 3448.63 2493.42C3446.99 2503.3 3419.78 2524.38 3429.62 2537.79C3440.22 2552.25 3454.97 2563.15 3467.65 2575.82C3479.73 2563.75 3480.83 2533.11 3486.67 2515.6C3500.03 2475.53 3526.26 2443.56 3540.55 2407.84C3544.66 2397.58 3523.35 2374.79 3518.36 2369.8Z" fill="#fb6a2d" fill-rule="nonzero" opacity="1" stroke="none"/>
<path d="M4700.6 528.311C4713.9 541.61 4718.29 536.493 4729.12 547.329C4693.07 583.379 4875.85 562.676 4890.77 537.82C4894.92 530.899 4879.67 518.975 4874.92 518.803C4820.02 516.806 4764.96 515.811 4710.11 518.803C4705.63 519.047 4703.77 525.142 4700.6 528.311Z" fill="#253856" fill-rule="nonzero" opacity="1" stroke="none"/>
<path d="M4922.46 1247.79C4938.22 1263.55 4966.76 1253.16 4989.02 1254.13C5019.55 1255.46 5031.74 1281.01 5049.24 1298.51C5067.58 1280.17 5078.36 1219.46 5039.74 1216.1C4975.13 1210.48 4966.2 1218.63 4922.46 1247.79Z" fill="#60657d" fill-rule="nonzero" opacity="1" stroke="none"/>
<path d="M4640.38 1418.95C4651.03 1429.6 4663.63 1423.18 4675.24 1434.8C4688.31 1428.26 4696.21 1426.51 4706.94 1415.78C4701.25 1404.4 4704.82 1390.42 4703.77 1377.74C4702.39 1361.21 4678.54 1362.44 4668.9 1365.07C4650 1370.22 4660.16 1405.76 4640.38 1418.95Z" fill="#4b4049" fill-rule="nonzero" opacity="1" stroke="none"/>
<path d="M4691.09 2141.6C4710.82 2161.33 4730.32 2184.77 4754.48 2160.62C4739.21 2130.08 4730.26 2102.43 4691.09 2141.6Z" fill="#f5af63" fill-rule="nonzero" opacity="1" stroke="none"/>
</g>
</g>
</svg>
