<?xml version="1.0" encoding="UTF-8" standalone="no"?>
<!DOCTYPE svg PUBLIC "-//W3C//DTD SVG 1.1//EN" "http://www.w3.org/Graphics/SVG/1.1/DTD/svg11.dtd">
<!-- Created with Vectornator (http://vectornator.io/) -->
<svg height="100%" stroke-miterlimit="10" style="fill-rule:nonzero;clip-rule:evenodd;stroke-linecap:round;stroke-linejoin:round;" version="1.1" viewBox="0 0 7680 4320" width="100%" xml:space="preserve" xmlns="http://www.w3.org/2000/svg" xmlns:xlink="http://www.w3.org/1999/xlink">
<defs/>
<clipPath id="ArtboardFrame">
<rect height="4320" width="7680" x="0" y="0"/>
</clipPath>
<g clip-path="url(#ArtboardFrame)" id="Ebene-1">
<g opacity="1">
<path d="M2210.91 210.912C2199.12 222.696 2191.73 249.439 2185.78 264.305C2154.97 341.335 2124.81 412.678 2097.84 493.584C2009.54 758.469 1886.89 1021.42 1843.43 1303.91C1824.43 1427.47 1791.04 1532.52 1799.46 1658.82C1800.32 1671.65 1807.17 1673.67 1815.17 1677.66C1835.55 1657.28 1829.98 1641.31 1843.43 1621.13C1901.98 1533.31 1970.01 1363.84 2072.71 1322.75C2126.44 1301.26 2176.83 1288.51 2242.32 1285.06C2423.78 1275.51 2584.92 1312.4 2656.9 1492.36C2665.81 1514.62 2719.33 1599.53 2697.73 1621.13C2662.51 1585.91 2643.66 1530.99 2616.07 1492.36C2558.13 1411.24 2471.82 1326.42 2371.09 1322.75C2315.64 1320.74 2260.11 1321.78 2204.63 1322.75C2187.59 1323.05 2145.99 1337.68 2132.39 1347.88C1982.71 1460.14 1904.24 1645.72 1834.01 1809.58C1825.74 1828.87 1879.88 1842.25 1893.69 1853.55C1931.53 1884.51 1945.01 1962.41 2003.62 1903.8C1998.87 1894.32 2016.5 1835.57 2019.32 1815.86C2022.08 1796.54 2012.32 1786.6 2019.32 1765.61C2060.43 1642.28 2253.72 1518.04 2383.65 1596C2490.57 1660.15 2527.38 1758.84 2534.41 1881.82C2536.65 1920.93 2525.13 2031.62 2568.96 2060.84C2611.19 2089 2782.22 2073.52 2823.36 2079.69C2826.29 2080.13 2826.69 2085.83 2829.64 2085.97C2952.17 2091.54 3074.22 2094.44 3197.12 2101.67C3253.34 2104.98 3318.77 2117.42 3376.14 2114.24C3384.11 2113.79 3376.14 2016.86 3376.14 2013.73C3376.14 2011.64 3375.8 2009.51 3376.14 2007.45C3389.74 1925.86 3417.73 1850.6 3467.23 1781.31C3477.95 1766.3 3503.34 1720.06 3523.76 1740.48C3522.19 1743.62 3522.19 1743.62 3520.62 1746.76C3525.33 1751.47 3525.33 1751.47 3530.04 1756.18C3569.14 1730.12 3594.77 1687.2 3636.83 1661.96C3741.89 1598.92 3932.92 1605.98 3985.46 1737.34C4007.35 1792.06 4038.51 1866.33 4045.13 1922.65C4045.5 1925.8 4044.02 2002.89 4057.7 2007.45C4090.75 2018.46 4162.02 1979.88 4192.75 1976.04C4301.25 1962.48 4417.09 1958.99 4525.68 1954.05C4718.25 1945.3 4907.09 1944.13 5100.44 1922.65C5125.55 1919.86 5170.99 1902.51 5197.81 1900.66C5297.34 1893.8 5393.91 1884.38 5486.76 1875.53C5543.54 1870.13 5611.86 1874.66 5665.79 1856.69C5722.21 1837.88 5793.85 1848.14 5851.09 1840.99C5902.16 1834.6 5962.55 1811.62 6014.41 1806.44C6110.58 1796.82 6208.37 1787.86 6303.37 1781.31C6308.06 1780.99 6320.58 1769.43 6325.35 1768.75C6340.95 1766.52 6495.49 1758.17 6498.1 1737.34C6500.56 1717.61 6488.25 1716.37 6485.53 1702.79C6470.53 1627.77 6463.91 1549.88 6438.42 1479.79C6428.99 1453.84 6401.07 1410.29 6397.59 1382.43C6383.84 1272.42 6449.06 1111.84 6344.2 1036.94C6337.93 1032.47 6320.03 1018.1 6309.65 1018.1C6274.56 1018.1 6239.11 1014.94 6202.86 1018.1C6175.06 1020.51 6130.84 1017.99 6105.5 1030.66C6082.68 1042.07 6104.4 1065.19 6105.5 1077.77C6107.4 1099.67 6107.4 1121.83 6105.5 1143.73C6099.78 1209.47 6101.31 1275.64 6099.22 1341.6C6098.85 1353.18 6088.95 1379.2 6086.65 1391.85C6071.56 1474.84 6066.86 1565.07 6052.1 1646.26C6049.49 1660.62 6036.15 1767.03 6011.27 1768.75C5954.87 1772.64 5898.17 1766.73 5841.67 1768.75C5715.96 1773.24 5577.59 1794.94 5452.21 1803.3C5330.82 1811.39 5216.65 1815.86 5097.3 1828.42C5028.27 1835.69 4848.29 1870.24 4789.5 1822.14C4731.56 1774.73 4728.12 1707.4 4717.26 1636.83C4701.96 1537.35 4686.88 1442.55 4682.72 1338.46C4679.62 1261.13 4658.74 1153.99 4695.28 1080.91C4710.26 1050.95 4874.26 1032.14 4899.43 1030.66C4932.87 1028.69 4966.44 1031.37 4999.94 1030.66C5015.67 1030.33 5031.31 1027.87 5047.05 1027.52C5124.51 1025.78 5202.05 1027.43 5279.47 1024.38C5282.43 1024.26 5283.66 1020.19 5285.75 1018.1C5267.05 999.397 5238.49 1024.23 5219.79 1005.53C5246.58 978.742 5303.75 992.998 5339.14 977.267C5411.87 944.943 5515.97 938.982 5599.83 930.155C5608.22 929.271 5613.38 917.81 5621.81 917.591C5740.08 914.533 5858.44 919.648 5976.72 917.591C5980.02 917.534 5995.56 908.176 5998.71 905.028C5975.57 881.893 5918.04 894.106 5895.06 892.465C5852.14 889.399 5796.75 868.726 5753.73 864.198C5643.14 852.557 5525.44 856.579 5414.52 854.775C5200.5 851.295 5005.91 861.323 4798.93 864.198C4760.21 864.736 4708.1 878.588 4673.29 879.902C4619.94 881.915 4566.37 876.029 4513.11 879.902C4507.21 880.331 4506.44 891.828 4500.55 892.465C4435.46 899.502 4358.68 885.663 4293.26 898.747C4189.17 919.563 4064.63 911.517 3954.05 920.732C3926.79 923.003 3879.5 941.041 3847.26 936.436C3832.83 934.375 3841.31 888.857 3844.12 857.916C3844.14 857.721 3856.68 826.557 3856.69 826.508C3859.53 795.229 3856.45 763.691 3856.69 732.284C3857.5 623.401 3859.83 514.527 3859.83 405.641C3859.83 351.161 3858.07 296.612 3853.55 242.32C3852.72 232.422 3841.71 223.688 3844.12 214.053C3844.84 211.18 3847.46 208.117 3850.4 207.771C3978.29 192.725 4107.95 208.376 4236.72 207.771C4547.77 206.311 4859.26 215.609 5166.4 220.334C5237.61 221.43 5308.84 230.233 5379.97 226.616C5385.89 226.315 5388.35 218.24 5392.54 214.053C5346.56 122.108 5233.09 128.907 5147.55 116.688C5052.4 103.095 4967.27 93.1663 4868.02 82.1391C4593.73 51.6618 4301.39 60.1535 4023.15 60.1535C3770.45 60.1535 3516.85 48.5535 3263.08 57.0127C3009.95 65.4502 2797.4 18.8047 2528.13 44.4495C2420.09 54.739 2316.81 76.7402 2239.17 154.377C2229.75 163.798 2206.71 202.507 2210.91 210.912Z" fill="#f76244" fill-rule="nonzero" opacity="1" stroke="none"/>
<path d="M3561.45 2924.56C3525.79 2960.22 3461.12 2937.12 3410.69 2937.12C3396 2937.12 3381.38 2935.03 3366.72 2933.98C3248.19 2925.52 3105.11 2913.11 3002.39 2861.75C2982.76 2851.93 2951.53 2855.2 2930.15 2846.04C2901.52 2833.77 2872.66 2817.14 2845.35 2798.93C2803.1 2830.61 2777.95 2868.03 2719.72 2868.03C2662.32 2868.03 2646.13 2835.72 2581.52 2868.03C2568.43 2874.57 2506.96 2926.6 2512.42 2940.27C2516.25 2949.82 2554.83 2959.9 2565.82 2965.39C2624.17 2994.57 2689.81 3010.11 2744.84 3037.63C2775.59 3053 2819.27 3067.11 2854.77 3072.18C2908.28 3079.82 2965.72 3110.61 3018.09 3125.57C3117.18 3153.88 3222.97 3177.76 3313.33 3222.94C3371.79 3252.17 3443.91 3254.17 3501.78 3288.89C3551.53 3318.75 3615.09 3326.1 3668.24 3357.99C3804.67 3439.85 3986.13 3492.22 4139.36 3543.3C4475.15 3655.23 4811.81 3769.08 5153.84 3866.8C5244.07 3892.58 5334.16 3929.09 5423.94 3954.74C5718.58 4038.92 6018.13 4118.99 6315.93 4193.44C6430.2 4222.01 6544.71 4248.94 6658.28 4281.39C6692.24 4291.09 6748.04 4318.34 6780.77 4319.08C6871.83 4321.12 6962.94 4319.08 7054.02 4319.08C7054.02 3875.18 7057.14 3431.27 7054.02 2987.38C7053.99 2982.94 7048.4 2980.24 7044.6 2977.95C7009.04 2956.62 6935.13 2948.61 6890.7 2930.84C6755.39 2876.72 6610.88 2840.47 6469.83 2805.21C6443.47 2798.62 6349.03 2763.58 6325.35 2767.52C6318.58 2768.65 6321.66 2835.45 6309.65 2855.46C6276.45 2910.79 6184.19 2929.23 6127.48 2943.41C5995.42 2976.42 5853.99 2978.68 5719.18 2993.66C5287.04 3041.67 4867.25 3034.49 4431.45 3034.49C4280.92 3034.49 4130.29 3056.47 3979.18 3056.47C3844.34 3056.47 3676.5 3001.26 3561.45 2924.56Z" fill="#6e8994" fill-rule="nonzero" opacity="1" stroke="none"/>
<path d="M5913.91 974.126C5745.75 976.76 5579.71 992.223 5414.52 999.252C5408.81 999.495 5392.02 1011.45 5386.25 1011.82C5351.76 1013.97 5317.16 1014.06 5282.61 1014.96C5205.15 1016.97 5127.65 1016.36 5050.19 1018.1C4991.66 1019.41 4760.3 1018.21 4701.56 1065.21C4684.94 1078.5 4680.51 1117.27 4679.57 1137.45C4677.68 1178.25 4677.73 1219.12 4676.43 1259.94C4675.64 1285.07 4673.29 1310.17 4673.29 1335.32C4673.29 1409.76 4678.03 1512.85 4701.56 1583.44C4733.98 1680.71 4708.35 1753.52 4789.5 1828.42C4819.18 1855.81 4913.72 1850.41 4949.68 1850.41C5092.89 1850.41 5227.32 1818.71 5364.27 1809.58C5519.84 1799.21 5686.1 1780.59 5841.67 1775.03C5898.17 1773.01 5955.02 1780.65 6011.27 1775.03C6035.35 1772.62 6039.28 1724.35 6045.82 1709.07C6077.07 1636.16 6078.39 1531.06 6086.65 1448.39C6090.2 1412.91 6104.5 1373.07 6105.5 1341.6C6107.52 1277.77 6103.47 1213.84 6105.5 1150.01C6106.09 1131.25 6114.77 992.933 6064.67 980.407C6030.12 971.77 5993.45 978.884 5957.88 977.267C5943.2 976.599 5928.6 973.896 5913.91 974.126Z" fill="#f7ebda" fill-rule="nonzero" opacity="1" stroke="none"/>
<path d="M627.946 1074.63C626.899 1485.03 623.763 1895.43 624.805 2305.82C624.828 2314.86 637.119 2311.54 640.509 2312.11C689.476 2320.27 739.803 2353.71 784.985 2371.78C822.287 2386.7 834.667 2393.68 879.209 2400.05C886.111 2401.03 910.023 2455.01 916.899 2462.86C949.985 2500.68 981.402 2505.38 1011.12 2535.1C1006.41 2539.81 1006.41 2539.81 1001.7 2544.52C1033.88 2584.76 1102.04 2595.43 1143.04 2626.19C1178.09 2652.48 1216.45 2666.49 1252.96 2682.72C1347.2 2724.6 1424.38 2770.66 1541.92 2770.66C1564.11 2770.66 1593.65 2745.11 1614.16 2739.25C1644.97 2730.45 1699.72 2741.63 1717.8 2723.55C1682.74 2679.72 1623.24 2694.94 1579.61 2651.31C1558.27 2629.97 1581.5 2589.18 1567.04 2572.79C1506.99 2504.73 1507.37 2525.66 1507.37 2428.32C1507.37 2418.15 1517.65 2415.18 1513.65 2403.19C1505.52 2378.81 1472.26 2358.09 1460.26 2334.09C1447.37 2308.31 1461.25 2265.49 1435.13 2252.43C1361.01 2326.55 1174.68 2343.75 1102.21 2271.28C1063.85 2232.92 1106.55 2198.77 1099.07 2161.35C1098.48 2158.44 1095.7 2155.6 1092.78 2155.07C1066.35 2150.26 1040.66 2159.46 1014.26 2155.07C925.342 2140.25 876.069 2080.37 876.069 1991.74C876.069 1974.83 898.037 1954.07 907.477 1944.63C936.792 1915.32 991.856 1927.93 1026.83 1906.94C955.179 1835.29 1051.31 1739.32 1124.19 1718.49C1138.41 1714.43 1203.73 1710.75 1212.13 1702.79C1228.61 1687.18 1272.75 1632.67 1306.36 1624.27C1416.85 1596.65 1447.11 1648.96 1523.07 1705.93C1548.16 1724.74 1547.19 1711.64 1579.61 1746.76C1592 1760.18 1592.86 1775.72 1604.73 1787.59C1637.08 1771.42 1667.51 1741.37 1708.38 1753.04C1725.73 1758 1778.88 1818.16 1793.18 1809.58C1796.99 1807.29 1802.31 1804.59 1802.6 1800.16C1805.53 1756.28 1802.6 1712.21 1802.6 1668.24C1802.6 1612.83 1834.37 1425.22 1730.37 1404.42C1698.77 1398.1 1653.89 1383.16 1626.72 1401.27C1625.05 1402.39 1555.97 1433.51 1551.34 1429.54C1447.57 1340.6 1346.62 1273.69 1221.56 1237.95C1152.8 1218.31 1079.98 1230.04 1011.12 1212.83C937.06 1194.31 870.851 1143.99 794.408 1124.88C736.918 1110.51 684.669 1102.99 627.946 1074.63Z" fill="#b6c1c8" fill-rule="nonzero" opacity="1" stroke="none"/>
<path d="M1554.48 2032.57C1533.33 2011.42 1512.48 2008.03 1488.52 2020.01C1427.59 2050.48 1413.15 2111.77 1413.15 2177.05C1413.15 2191.07 1446.5 2237.13 1460.26 2227.3C1472.31 2218.7 1481.2 2206.37 1491.67 2195.9C1511.19 2208.91 1508.34 2264.77 1516.79 2290.12C1524.87 2314.36 1524.64 2322.05 1548.2 2340.37C1560.97 2350.3 1560.16 2323.31 1573.33 2352.94C1589.39 2389.09 1576.74 2426.68 1623.58 2453.44C1679.69 2485.51 1714.73 2363.43 1739.79 2371.78C1763.66 2379.74 1756.97 2462.48 1758.63 2469.15C1766.09 2498.96 1795.83 2540.9 1818.31 2563.37C1848.26 2593.32 1904.55 2632.47 1947.08 2632.47C1996.63 2632.47 1960.68 2540.75 1987.91 2557.09C2011.77 2571.4 1982.07 2562.55 1997.33 2588.5C2016.19 2620.56 2064.31 2626.83 2078.99 2651.31C2087.07 2664.78 2054.22 2671.9 2057.01 2685.86C2063.67 2719.15 2158.77 2776.19 2192.06 2789.51C2253.59 2814.12 2226.44 2752.22 2251.74 2723.55C2265.45 2708.01 2280.11 2693.23 2295.71 2679.58C2297.29 2678.2 2299.91 2679.79 2301.99 2679.58C2336.51 2676.13 2351.1 2698.42 2383.65 2698.42C2401.13 2698.42 2406.28 2689.21 2424.48 2695.28C2424.48 2763.91 2516.92 2843.5 2584.66 2820.91C2612.8 2811.53 2616.86 2770.27 2641.2 2758.1C2655.08 2751.16 2734.62 2773.8 2744.84 2773.8C2770.33 2773.8 2798.11 2749.38 2820.22 2736.11C2822.23 2734.91 2824.5 2731.77 2826.5 2732.97C2888.53 2770.19 2885.81 2824.06 2974.12 2824.06C3034.84 2824.06 3045.86 2752.15 3084.05 2726.69C3080.91 2723.55 3080.91 2723.55 3077.77 2720.41C3101.09 2673.78 3095.27 2619.06 3046.36 2588.5C3004.65 2562.43 2936.01 2653.23 2883.04 2579.07C2864.26 2552.78 2848.49 2506.85 2848.49 2472.29C2848.49 2456.76 2858.34 2424.92 2848.49 2412.61C2812.65 2367.81 2747.66 2424.93 2722.86 2406.33C2700.4 2389.48 2682.17 2361.4 2660.04 2346.65C2649.75 2339.79 2640.08 2350.71 2631.77 2334.09C2606.01 2282.56 2570.96 2237.58 2509.28 2227.3C2492.57 2224.52 2459.44 2212.86 2440.19 2227.3C2391.56 2263.77 2399.24 2318.5 2361.67 2356.08C2346.71 2341.12 2350.99 2323.42 2336.54 2308.96C2333.4 2312.11 2333.4 2312.11 2330.26 2315.25C2299.77 2284.75 2246.61 2269.42 2201.49 2280.7C2191.43 2283.21 2151.21 2304.24 2148.09 2302.68C2130.51 2293.89 2156.92 2261.67 2157.51 2249.29C2159.57 2206.21 2161.85 2153.12 2129.25 2120.52C2132.39 2117.38 2132.39 2117.38 2135.53 2114.24C2116.37 2095.08 2046.73 2108.81 2044.45 2098.53C2034.83 2055.28 2069.93 1995.6 2035.02 1957.2C1996.78 1915.13 2003.84 1926.66 1950.22 1919.51C1945.23 1918.84 1907.65 1858.09 1896.83 1847.27C1868.79 1819.23 1841.73 1840.08 1818.31 1831.56C1803.24 1826.08 1803.98 1811.94 1793.18 1803.3C1765.78 1781.37 1723.07 1743.62 1683.25 1743.62C1652.92 1743.62 1632.02 1769.24 1607.87 1781.31C1589.95 1763.38 1577.44 1735.17 1557.62 1715.35C1522.73 1680.47 1393.48 1690.78 1356.61 1715.35C1324.78 1736.57 1324.93 1781.45 1306.36 1790.73C1292.55 1797.64 1265.59 1790.27 1252.96 1793.87C1201.35 1808.62 1140.91 1858 1133.61 1916.37C1131.71 1931.58 1127.57 1953.65 1133.61 1969.76C1137.2 1979.33 1151.77 1976.34 1149.32 1988.6C1142.56 2022.41 1114.26 2059.82 1133.61 2098.53C1171.84 2174.98 1242.88 2162.43 1312.64 2142.5C1335.93 2135.85 1348.3 2153.4 1366.03 2126.8C1408.15 2063.62 1383.09 2019.24 1469.68 1969.76C1505.08 1949.53 1588.13 1998.93 1554.48 2032.57Z" fill="#fdfdfd" fill-rule="nonzero" opacity="1" stroke="none"/>
<path d="M4516.25 1963.48C4519.39 1960.34 4519.39 1960.34 4522.54 1957.2C4498.8 1933.46 4455.59 1950.18 4422.03 1950.91C4380.35 1951.82 4337.96 1957.01 4296.4 1960.34C4218.39 1966.58 4129.83 1972.94 4054.56 2001.17C4039.78 2006.71 4039.31 2034.69 4038.85 2045.14C4038.08 2062.95 4035.71 2080.7 4035.71 2098.53C4035.71 2159.04 4036.39 2271.96 4085.96 2321.53C4117.03 2352.59 4201.72 2337.23 4239.86 2337.23C4299.55 2337.23 4359.23 2335.96 4418.89 2334.09C4554.26 2329.86 4678.99 2315.01 4814.63 2302.68C5107.58 2276.05 5407.21 2232.7 5703.48 2214.74C5842.91 2206.29 5972.59 2231.66 6111.78 2208.46C6322.02 2173.42 6678.16 2239.47 6708.53 1950.91C6714.1 1898.01 6714.78 1862.38 6711.67 1806.44C6707.55 1732.24 6640.89 1781.68 6586.04 1793.87C6461.93 1821.45 6335.73 1841.8 6209.14 1856.69C6112.12 1868.1 6013.61 1870.11 5917.05 1881.82C5594.55 1920.91 5261.23 1967.28 4933.98 1985.46C4801.93 1992.8 4670.27 2007.45 4538.24 2007.45C4521.91 2007.45 4522.16 1975.29 4516.25 1963.48Z" fill="#b6c1c8" fill-rule="nonzero" opacity="1" stroke="none"/>
<path d="M3734.19 1815.86C3596.42 1835.54 3504.61 1942.1 3448.38 2054.56C3423.05 2105.23 3420.39 2189.34 3382.43 2227.3C3397.79 2250.35 3366.72 2429.02 3366.72 2456.58C3366.72 2576.04 3403.49 2714.32 3470.37 2814.63C3498.71 2857.15 3531.72 2901.11 3567.73 2937.12C3589.8 2959.19 3631.13 2966.88 3658.82 2977.95C3706.41 2996.99 3750.93 3019.04 3800.15 3031.35C3838.67 3040.98 3968.6 3019.96 4007.44 3009.36C4017.6 3006.59 4100.81 2913.83 4111.09 2899.43C4198.28 2777.37 4243 2603.78 4243 2450.3C4243 2447.25 4240.27 2432.29 4233.58 2431.46C4192.75 2426.35 4163.45 2417.27 4129.94 2387.48C4116.09 2375.18 4102.2 2362.89 4089.1 2349.8C4079.88 2340.57 4089.1 2327.5 4089.1 2318.39C4089.1 2303.07 4057.83 2245.6 4054.56 2221.02C4046.99 2164.29 4041.99 2105.42 4041.99 2048.28C4041.99 1999.05 4076.31 1940.13 4041.99 1894.38C4014.4 1857.59 3857.14 1829.32 3734.19 1815.86Z" fill="#233655" fill-rule="nonzero" opacity="1" stroke="none"/>
<path d="M4450.3 2513.12C4444.82 2518.59 4437.77 2644.83 4431.45 2676.44C4410.66 2780.38 4334.73 2894.94 4249.29 2955.97C4174.66 3009.27 4006.52 3003.74 3910.08 3012.5C3888.09 3014.5 3817.2 3014.3 3800.15 3031.35C3827.79 3058.99 3924.39 3053.05 3960.33 3056.47C4126.9 3072.34 4293.48 3040.77 4459.72 3040.77C4602.44 3040.77 4744.18 3043.91 4886.87 3043.91C5006.15 3043.91 5125.14 3049.24 5244.92 3043.91C5281.61 3042.28 5333.7 3030.01 5364.27 3028.21C5412.36 3025.38 5460.81 3029.86 5508.75 3025.07C5570.36 3018.91 5632.49 3013.46 5694.05 3006.22C5744.21 3000.32 5794.52 2995.31 5844.81 2990.52C5883.68 2986.82 5922.3 2982.79 5961.02 2977.95C6067.24 2964.68 6355.86 2941.57 6325.35 2773.8C6321.59 2753.11 6279.08 2751.05 6262.54 2745.54C6214.82 2729.63 6128.76 2724.83 6092.93 2689C5960.03 2755.45 5785.59 2796.08 5634.38 2792.65C5623.7 2792.41 5613.27 2789.18 5602.97 2786.37C5570.08 2777.4 5524.37 2734.17 5499.32 2714.13C5473.45 2740 5284.39 2691.87 5238.64 2682.72C5042.24 2643.44 4841.68 2624.94 4648.17 2569.65C4610.91 2559.01 4473.05 2535.87 4450.3 2513.12Z" fill="#48575d" fill-rule="nonzero" opacity="1" stroke="none"/>
<path d="M2842.21 3219.8C2835.93 3226.08 2835.93 3226.08 2829.64 3232.36C2841.39 3244.11 2917.76 3246.14 2942.71 3257.49C3079.57 3319.69 3224.66 3369.01 3369.86 3427.09C3414.08 3444.78 3463.38 3461.34 3508.06 3480.48C3522.8 3486.8 3537.22 3503.19 3552.03 3508.75C3630.86 3538.31 3731.55 3568.02 3803.29 3621.82C3831.17 3642.73 3858.57 3654.17 3888.09 3668.93C3914.65 3682.21 3919.1 3709.56 3944.63 3722.32C3973.21 3736.61 4009.59 3739.1 4038.85 3753.73C4088.69 3778.65 4139.12 3803.9 4189.61 3822.83C4241.11 3842.14 4289.71 3883.42 4343.51 3901.35C4481.08 3947.21 4617.58 4028.96 4745.53 4092.94C4778.35 4109.35 4856.33 4114.4 4868.02 4149.47C4940.53 4149.47 5006.83 4186.53 5072.17 4202.87C5082.99 4205.57 5095.64 4221.69 5106.72 4224.85C5150.39 4237.33 5195.18 4240.78 5238.64 4259.4C5268.9 4272.37 5310.58 4318.87 5342.28 4319.08C5656.36 4321.16 5970.44 4319.08 6284.52 4319.08C6282.95 4314.36 6282.95 4314.36 6281.38 4309.65C6194.52 4309.65 6106.59 4254.59 6020.7 4237.41C5907.9 4214.86 5795.44 4177.99 5684.63 4146.33C5591.1 4119.61 5492.82 4097.87 5401.96 4061.53C5230.37 3992.89 5044.12 3947.48 4868.02 3888.79C4434.39 3744.24 4008.33 3587.62 3583.44 3417.67C3369 3331.89 3151.57 3253.56 2945.85 3150.7C2851.18 3103.36 2741.5 3073.65 2644.34 3025.07C2584.35 2995.08 2442.06 2933.11 2389.93 2974.81C2378.69 2983.81 2336.85 2973.27 2333.4 2990.52C2329.49 3010.08 2441.51 3035.06 2462.17 3043.91C2565.11 3088.03 2675.58 3129.87 2773.11 3188.39C2793.92 3200.87 2822.72 3200.31 2842.21 3219.8Z" fill="#6e8994" fill-rule="nonzero" opacity="1" stroke="none"/>
<path d="M3897.52 207.771C3915.89 226.148 3900.87 256.53 3919.5 273.728C4027.83 373.721 4158.24 455.955 4233.58 581.526C4289.95 675.472 4289.09 798.302 4324.66 905.028C4378.53 905.028 4468.42 904.067 4513.11 898.747C4518.99 898.046 4519.77 886.646 4525.68 886.183C4669.71 874.886 4815.28 878.496 4962.25 870.479C4974.77 869.796 5011.41 869.162 5021.92 851.635C5024.82 846.806 4989.4 725.508 4987.37 710.299C4964.31 537.333 4931.94 368.112 4877.45 204.63C4664.88 204.63 4452.46 198.349 4239.86 198.349C4127.84 198.349 4015.78 198.407 3903.8 201.489C3900.84 201.571 3899.61 205.677 3897.52 207.771Z" fill="#46c1d9" fill-rule="nonzero" opacity="1" stroke="none"/>
<path d="M4770.66 1363.58C4772.75 1365.68 4773.98 1369.78 4776.94 1369.87C4847.05 1371.9 4917.26 1371.9 4987.37 1369.87C4990.33 1369.78 4990.69 1363.65 4993.65 1363.58C5226.03 1358.84 5487.54 1354.92 5712.9 1347.88C5806.05 1344.97 5899.24 1340.21 5992.43 1341.6C5995.39 1341.64 5998.22 1344.96 5998.71 1347.88C6010.93 1421.22 5924.02 1394.84 5876.22 1398.13C5845.08 1400.28 5801.48 1410.02 5778.85 1410.7C5710.83 1412.73 5642.75 1409.81 5574.7 1410.7C5319.38 1414.01 5063.93 1420.2 4808.35 1423.26C4764.5 1423.78 4756.92 1488.04 4783.22 1514.34C4787.41 1510.16 4789.86 1501.93 4795.78 1501.78C4961.15 1497.7 5126.62 1502.74 5292.03 1501.78C5518.32 1500.47 5738.76 1481.16 5967.3 1482.93C5977.22 1483.01 5974.8 1523.27 5973.58 1526.91C5965.39 1551.5 5921.67 1538.91 5901.35 1539.47C5828.08 1541.48 5754.76 1540.89 5681.49 1542.61C5405.43 1549.11 5136.54 1562.32 4861.74 1564.6C4845.43 1564.73 4819.75 1565.76 4808.35 1577.16C4824.17 1592.98 4800.67 1629.95 4824.05 1639.97C4827.9 1641.62 4832.43 1639.93 4836.61 1639.97C4940.26 1640.98 5043.9 1643.12 5147.55 1643.12C5252.7 1643.12 5363.78 1625.72 5464.77 1621.13C5552.5 1617.14 5640.72 1618.67 5728.6 1614.85C5807.1 1611.44 5899.05 1586.21 5973.58 1608.57C5990.06 1613.51 5974.27 1637.52 5986.15 1649.4C6002.48 1633.07 6011.29 1439 6004.99 1426.4C6042.36 1389.03 6009.19 1341.14 6001.85 1300.77C5964.74 1096.65 5854.65 1099.76 5653.22 1099.76C5517.12 1099.76 5381.01 1100.84 5244.92 1102.9C5117.12 1104.83 4903.1 1074.1 4798.93 1178.28C4750.01 1227.2 4817.75 1316.49 4770.66 1363.58Z" fill="#b6c1c8" fill-rule="nonzero" opacity="1" stroke="none"/>
<path d="M4415.75 2330.95C4441.93 2357.13 4425.66 2420.1 4450.3 2428.32C4467.36 2434 4497.87 2419.86 4509.97 2418.89C4560.57 2414.84 4610.14 2414.53 4660.73 2409.47C4811.56 2394.39 4970.91 2355.07 5122.43 2346.65C5158.91 2344.63 5212.89 2320.78 5248.06 2327.81C5258.43 2329.88 5264.23 2375 5266.9 2384.34C5278.37 2424.47 5298.28 2481.67 5323.44 2513.12C5452.63 2674.6 5556.73 2857.46 5794.56 2789.51C5818.7 2782.61 5876.97 2776.19 5891.92 2761.24C5878.36 2747.67 5861.52 2762.24 5847.95 2748.68C5869.6 2727.03 5904.48 2718.32 5929.61 2701.56C6033.04 2632.61 6084.57 2462.25 6102.36 2346.65C6106.68 2318.56 6137.98 2223.14 6111.78 2202.18C6101.04 2193.58 5929.01 2215.94 5901.35 2214.74C5744.97 2207.94 5574.97 2201.97 5414.52 2227.3C5289.64 2247.02 5144.74 2269.53 5021.92 2280.7C4874.96 2294.06 4713.68 2310.45 4569.65 2321.53C4543.94 2323.51 4439.1 2307.6 4415.75 2330.95Z" fill="#123137" fill-rule="nonzero" opacity="1" stroke="none"/>
<path d="M2820.22 3091.02C2823.36 3094.16 2823.36 3094.16 2826.5 3097.31C2823.36 3100.45 2823.36 3100.45 2820.22 3103.59C2868.53 3151.89 2961.92 3149.4 3018.09 3191.53C3077.55 3236.12 3162.88 3255.1 3231.67 3282.61C3373.88 3339.5 3515.67 3391.82 3658.82 3449.07C3739.35 3481.29 3815.12 3525.25 3897.52 3552.72C4261.98 3674.21 4621.64 3807.71 4987.37 3929.62C5079.54 3960.34 5171.6 3993.12 5263.76 4023.84C5307.93 4038.56 5360.43 4047.05 5401.96 4067.81C5459.46 4096.56 5558.46 4125.85 5621.81 4133.77C5681.02 4141.17 5743.43 4167.62 5800.84 4184.02C5912.78 4216 6024.42 4246.98 6136.91 4275.1C6178.58 4285.52 6236.68 4318.57 6278.24 4319.08C6448.88 4321.14 6619.54 4319.08 6790.19 4319.08C6788.62 4314.36 6788.62 4314.36 6787.05 4309.65C6746.58 4309.65 6699.87 4289.23 6661.42 4278.25C6584.69 4256.32 6505.59 4237.72 6429 4218.57C6206.17 4162.86 5984.06 4105.8 5763.15 4042.69C5100.97 3853.49 4428.38 3663.3 3790.73 3408.24C3717.24 3378.85 3649.3 3339.74 3577.15 3310.88C3414.72 3245.91 3247.67 3187.58 3074.63 3138.14C3038.84 3127.91 2867.86 3059.49 2842.21 3065.9C2831.41 3068.6 2827.17 3082.33 2820.22 3091.02Z" fill="#fdfdfd" fill-rule="nonzero" opacity="1" stroke="none"/>
<path d="M2503 236.038C2450.29 231.282 2445.7 289.782 2430.76 327.121C2386.22 438.484 2323.58 566.637 2311.41 688.313C2304.43 758.106 2267.57 838.064 2258.02 914.451C2256.78 924.391 2240.62 958.035 2258.02 958.422C2366.88 960.841 2475.89 956.618 2584.66 961.563C2613.97 962.894 2643.32 962.981 2672.61 964.703C2693.28 965.919 2726.35 981.712 2744.84 967.844C2782.55 939.563 2779.57 864.766 2795.1 823.367C2838.86 706.664 2881.6 577.609 2901.88 455.894C2910.1 406.575 2956.81 326.151 2945.85 276.869C2941.9 259.076 2902.1 262.082 2892.46 261.165C2872.66 259.279 2852.67 261.674 2832.79 261.165C2814.84 260.704 2772.45 249.251 2754.27 248.601C2662.14 245.311 2590.37 243.921 2503 236.038Z" fill="#13a3cb" fill-rule="nonzero" opacity="1" stroke="none"/>
<path d="M3548.89 254.883C3446.64 258.181 3343.34 267.446 3241.09 267.446C3196.62 267.446 3146.22 259.229 3099.75 261.165C3089.33 261.599 3054.05 396.865 3049.5 415.064C3011.68 566.333 2971.95 715.006 2949 864.198C2942.94 903.573 2940.62 943.765 2942.71 983.548C2942.87 986.505 2946.63 988.053 2949 989.83C2973.47 1008.18 3068.86 1007.4 3074.63 992.971C3075.1 991.799 3028.2 925.241 3021.23 911.31C2999.96 868.765 3021.4 758.001 3036.94 716.58C3043.2 699.885 3082.66 692.378 3093.47 685.172C3102.23 679.336 3114.42 683.193 3124.88 682.032C3162.19 677.886 3191.47 675.75 3231.67 675.75C3259.96 675.75 3276.95 688.87 3297.62 691.454C3345.75 697.47 3499.49 682.314 3517.48 754.27C3525.53 786.486 3484.39 910.115 3492.35 920.732C3498.4 928.795 3537.07 932.486 3548.89 939.577C3561.19 946.957 3581.99 966.399 3589.72 974.126C3595.69 980.096 3588.02 994.4 3599.14 996.111C3622.33 999.679 3633.19 992.721 3652.53 1002.39C3664.59 990.342 3661.6 969.179 3661.96 952.14C3662.72 915.49 3663.31 878.826 3665.1 842.212C3672.28 694.997 3673.34 542.221 3677.66 393.078C3678.81 353.298 3681.8 313.513 3680.8 273.728C3680.68 268.864 3666.36 257.083 3548.89 254.883Z" fill="#13a3cb" fill-rule="nonzero" opacity="1" stroke="none"/>
<path d="M4874.3 214.053C4890.03 245.511 4890.32 278.119 4899.43 314.558C4932.82 448.113 4955.44 573.497 4981.09 710.299C4985.12 731.757 5018.37 848.905 5009.36 857.916C5037.5 886.057 5088.92 861.699 5128.71 861.057C5222.93 859.537 5317.15 857.916 5411.38 857.916C5445.95 857.916 5480.51 859.287 5515.03 861.057C5539.18 862.296 5528.26 869.812 5540.15 857.916C5509.18 826.943 5503.67 758.368 5480.48 719.721C5423.5 624.752 5381.36 498.616 5339.14 393.078C5324.27 355.89 5277.15 271.946 5282.61 239.179C5288.14 205.988 5357.66 252.072 5383.11 226.616C5381.02 224.522 5379.79 220.442 5376.83 220.334C5321.38 218.318 5265.85 221.175 5210.37 220.334C5103.42 218.714 4998.61 210.7 4893.15 207.771C4875.46 207.28 4891.51 196.85 4874.3 214.053Z" fill="#afeaf7" fill-rule="nonzero" opacity="1" stroke="none"/>
<path d="M3847.26 201.489C3821.8 215.524 3849.93 376.414 3850.4 402.5C3852.37 511.369 3853.55 620.257 3853.55 729.143C3853.55 799.388 3829.23 865.289 3834.7 936.436C3835.63 948.493 3929.31 937.869 3941.49 936.436C3946.69 935.825 3948.82 927.312 3954.05 927.014C3988.54 925.043 4023.16 927.733 4057.7 927.014C4091.34 926.313 4134.48 912.773 4164.48 911.31C4205.27 909.32 4246.19 913.299 4286.98 911.31C4295.54 910.892 4321.53 908.161 4327.81 895.606C4332.57 886.086 4301.45 762.541 4296.4 744.847C4264.05 631.627 4230.25 543.643 4142.5 455.894C4094.98 408.372 4037.57 372.007 3988.6 327.121C3965.13 305.605 3939.17 286.202 3919.5 261.165C3907.8 246.272 3929.75 209.163 3897.52 201.489C3881.22 197.61 3861.93 193.405 3847.26 201.489Z" fill="#13a3cb" fill-rule="nonzero" opacity="1" stroke="none"/>
<path d="M1711.52 2720.41C1702.57 2729.36 1707.7 2725.05 1695.82 2732.97C1713.33 2750.49 1763.9 2783.23 1790.04 2783.23C1812.25 2783.23 1834.09 2770.15 1856 2773.8C1863.67 2775.08 1862.4 2785.49 1865.42 2789.51C1870.42 2796.17 1878.36 2789.69 1884.26 2792.65C1909.91 2805.47 1929.61 2829.45 1956.5 2842.9C2073.83 2901.57 2203.88 2958.14 2333.4 2990.52C2362.46 2997.78 2382.79 2975.96 2405.64 2971.67C2425.67 2967.92 2458.7 2975.15 2474.73 2959.11C2470.02 2954.4 2470.02 2954.4 2465.31 2949.69C2476.52 2938.48 2496.72 2945.5 2512.42 2943.41C2515.36 2943.01 2517.38 2939.77 2518.71 2937.12C2529.09 2916.36 2557.57 2883.52 2581.52 2874.31C2590.53 2870.84 2602.96 2874.85 2609.79 2868.03C2584.32 2842.56 2512.97 2855.74 2481.02 2839.76C2458.06 2828.28 2388.32 2758.1 2374.23 2758.1C2349.52 2758.1 2305.77 2777.59 2286.29 2758.1C2275.08 2763.7 2266.9 2763.84 2258.02 2754.96C2254.88 2756.53 2254.88 2756.53 2251.74 2758.1C2247.03 2753.39 2247.03 2753.39 2242.32 2748.68C2229.32 2761.67 2244.13 2783.56 2220.33 2789.51C2193.03 2796.33 2067.37 2709.42 2063.29 2689C2060.27 2673.91 2093.89 2665.4 2085.28 2648.17C2075.91 2629.44 2035.9 2620.78 2019.32 2604.2C2006.41 2591.3 2009.97 2560.27 1997.33 2553.95C1957.26 2533.91 1971.42 2597.17 1969.07 2613.62C1965.05 2641.71 1902.3 2614.17 1893.69 2610.48C1835.38 2585.49 1779.09 2523.09 1764.91 2462.86C1758.9 2437.32 1773.62 2382.42 1739.79 2365.5C1713.67 2352.44 1687.92 2466.96 1623.58 2447.16C1580.61 2433.94 1584.6 2324.3 1551.34 2330.95C1539.99 2333.22 1544.76 2347.25 1541.92 2352.94C1528.37 2380.03 1506.91 2393.05 1504.23 2425.17C1502.4 2447.11 1501.09 2469.12 1501.09 2491.13C1501.09 2523.64 1546.19 2556.27 1560.76 2572.79C1574.38 2588.23 1554.41 2629.7 1573.33 2651.31C1615.15 2699.11 1665.6 2689.8 1711.52 2720.41Z" fill="#d7dce2" fill-rule="nonzero" opacity="1" stroke="none"/>
<path d="M1020.55 1906.94C1008.4 1919.09 977.414 1910.74 957.729 1916.37C896.051 1933.99 869.787 1969.52 869.787 2035.72C869.787 2047.67 878.971 2066.41 882.35 2076.55C909.296 2157.38 1022.15 2154.91 1086.5 2161.35C1098.38 2162.54 1085.52 2187.46 1077.08 2195.9C1098.09 2237.92 1072.61 2283.73 1139.9 2308.96C1157.96 2315.74 1186.86 2309.87 1205.85 2312.11C1284.85 2321.4 1375.6 2318.24 1435.13 2258.71C1447.07 2270.65 1439.32 2292.21 1441.41 2308.96C1446.03 2345.88 1490.28 2383.6 1516.79 2406.33C1525.94 2397.19 1523.34 2384.94 1529.35 2374.92C1562.15 2320.26 1529.33 2321.42 1516.79 2258.71C1512.94 2239.45 1516.95 2201.02 1497.95 2189.61C1477.04 2177.07 1462.51 2266.37 1422.57 2186.47C1383.5 2108.35 1478.75 1982.06 1554.48 2038.86C1604.88 2001.06 1511.7 1949.47 1469.68 1963.48C1434.37 1975.25 1391.3 2021.09 1381.74 2054.56C1375.49 2076.44 1373.74 2117.88 1353.47 2133.08C1331.86 2149.29 1250.34 2148.78 1221.56 2148.78C1191.11 2148.78 1172.65 2150.52 1149.32 2120.52C1108.38 2067.88 1163.28 2020.73 1155.6 1982.32C1149.83 1953.47 1136.75 1960.91 1136.75 1919.51C1136.75 1857.66 1212.59 1815.71 1259.25 1800.16C1273.04 1795.56 1292.32 1802.63 1306.36 1797.01C1338.6 1784.12 1324.25 1720.16 1372.31 1715.35C1388.15 1713.77 1522.02 1697.56 1523.07 1696.51C1491.44 1633.24 1356.6 1577.17 1293.79 1624.27C1275.52 1637.98 1217.99 1697.63 1205.85 1699.65C1179.81 1703.99 1155.97 1700.89 1127.33 1709.07C1038.82 1734.36 964.987 1823.61 1020.55 1906.94Z" fill="#f7ebda" fill-rule="nonzero" opacity="1" stroke="none"/>
<path d="M3677.66 2101.67C3598.02 2110.9 3575.6 2197.42 3552.03 2268.13C3504.32 2411.27 3516.71 2574.69 3639.97 2673.3C3681.46 2706.49 3710.01 2723.55 3765.6 2723.55C3904.02 2723.55 3927.16 2530.9 3944.63 2437.74C3953.32 2391.39 3951.74 2343.55 3950.91 2296.4C3950.64 2281.3 3950.51 2244.33 3938.35 2227.3C3876.38 2140.56 3775.27 2090.36 3677.66 2101.67Z" fill="#8e9497" fill-rule="nonzero" opacity="1" stroke="none"/>
<path d="M1994.19 1900.66C2016.58 1923.05 2061.67 1903.6 2072.71 1947.77C2081.62 1983.42 2059.08 2053.49 2078.99 2073.41C2118.96 2043.43 2141.42 1973.29 2179.5 1935.21C2200.5 1914.21 2251.12 1924.71 2276.86 1932.07C2357 1954.97 2413.37 2061.09 2430.76 2139.36C2437.79 2170.96 2422.3 2206.28 2446.47 2230.44C2491.91 2207.72 2552.7 2219.92 2603.51 2221.02C2677.61 2222.63 2651.28 2303.34 2685.17 2337.23C2732.22 2290.18 2608.15 2106.45 2641.2 2073.41C2618.19 2050.4 2586.68 2066 2556.4 2035.72C2533.02 2059.09 2502.59 1981.08 2496.72 1963.48C2479.81 1912.75 2471.59 1846.93 2471.59 1793.87C2471.59 1772.4 2488.61 1756.91 2490.44 1740.48C2493.9 1709.29 2457.14 1664.47 2430.76 1649.4C2287.18 1567.35 2084.2 1685.4 2013.04 1815.86C2000.1 1839.58 2006.78 1875.49 1994.19 1900.66Z" fill="#233655" fill-rule="nonzero" opacity="1" stroke="none"/>
<path d="M6642.57 1715.35C6623.27 1734.66 6588.13 1719.54 6560.91 1721.64C6516.5 1725.05 6463.24 1749.94 6416.44 1756.18C6346.77 1765.47 6288.65 1770.2 6218.57 1775.03C6095.97 1783.48 5964.99 1820.47 5851.09 1834.7C5630.49 1862.28 5419.92 1872.17 5197.81 1894.38C5170.19 1897.14 5122.99 1914.1 5097.3 1916.37C4959.42 1928.53 4819.15 1930.38 4685.86 1941.49C4637.79 1945.5 4546.12 1927.33 4509.97 1963.48C4518.13 1979.79 4514.25 2003.11 4531.96 2013.73C4561.58 2031.51 4601.06 2014.51 4635.6 2013.73C4716.96 2011.88 4798.73 2000.95 4880.59 1998.03C5156.72 1988.16 5434.51 1953.23 5709.76 1922.65C5810.58 1911.44 5910.48 1890.97 6008.13 1888.1C6187.9 1882.81 6379.63 1848.47 6554.63 1809.58C6579.47 1804.06 6788.7 1771.14 6642.57 1715.35Z" fill="#d7dce2" fill-rule="nonzero" opacity="1" stroke="none"/>
<path d="M5357.99 2553.95C5354.85 2557.09 5354.85 2557.09 5351.71 2560.23C5291.66 2530.2 5212.96 2521.37 5147.55 2506.84C5060.76 2487.55 4967.06 2456.42 4883.73 2447.16C4813.83 2439.39 4733.21 2396.4 4663.87 2400.05C4613.35 2402.71 4548.57 2410.73 4503.69 2418.89C4503.16 2418.99 4447.93 2417.48 4447.16 2428.32C4445.22 2455.47 4444.53 2482.88 4447.16 2509.98C4447.74 2516.05 4451.61 2522.13 4456.58 2525.68C4462.65 2530.02 4488.47 2529.41 4497.41 2531.96C4554.82 2548.36 4611.93 2564.52 4670.15 2579.07C4866.76 2628.22 5063.56 2648.35 5260.62 2692.14C5319.72 2705.28 5379.9 2713.59 5439.65 2723.55C5454 2725.94 5491.15 2739.89 5499.32 2723.55C5502.86 2716.48 5450.93 2669.65 5445.93 2663.88C5415.11 2628.32 5384.12 2593.14 5357.99 2553.95Z" fill="#6e8994" fill-rule="nonzero" opacity="1" stroke="none"/>
<path d="M2688.31 2340.37C2715.77 2340.37 2726.07 2360.82 2747.98 2371.78C2766 2380.79 2813.47 2354.94 2848.49 2381.2C2889.74 2412.14 2899.98 2470.39 2933.29 2503.69C2982.01 2454.98 3007.04 2334.84 3024.37 2271.28C3032.92 2239.94 3024.97 2204.72 3049.5 2180.19C3078.17 2194.53 3140.36 2189.28 3175.13 2192.76C3228.91 2198.13 3289.3 2201.67 3341.6 2214.74C3352.72 2217.52 3372.09 2230.44 3385.57 2230.44C3405.04 2230.44 3427.95 2132.8 3416.97 2123.66C3389.5 2100.76 3335.49 2106.74 3300.76 2104.81C3208.59 2099.69 3116.62 2094.87 3024.37 2089.11C2910.99 2082.02 2801.4 2078.34 2688.31 2070.26C2671.8 2069.08 2637.93 2058.78 2628.63 2079.69C2613.84 2112.98 2676.42 2226.11 2682.03 2268.13C2684.89 2289.64 2681.4 2319.64 2688.31 2340.37Z" fill="#101112" fill-rule="nonzero" opacity="1" stroke="none"/>
<path d="M3071.49 1002.39C3163.52 1002.39 3255.34 1014.96 3351.02 1014.96C3367.59 1014.96 3412.55 1003.68 3426.4 989.83C3413.54 964.116 3481.21 932.736 3495.49 911.31C3516.32 880.075 3539.25 763.894 3514.34 735.425C3468.46 682.993 3365.84 695.943 3303.91 685.172C3250.21 675.834 3188.64 665.874 3128.02 672.609C3108.36 674.793 3039.86 688.908 3030.66 713.439C3013.01 760.499 2989.83 861.072 3014.95 911.31C3030.66 942.733 3060.73 970.137 3071.49 1002.39Z" fill="#8e9497" fill-rule="nonzero" opacity="1" stroke="none"/>
<path d="M4243 2327.81C4175.48 2332.32 4236.72 2406.16 4236.72 2453.44C4236.72 2553.12 4206.33 2640.98 4183.33 2732.97C4177.05 2758.08 4189.9 2744.87 4180.19 2767.52C4151.52 2834.42 4111.41 2899.12 4057.7 2952.83C4049.96 2960.57 3985.14 2997.93 4013.73 3009.36C4050.34 3024.01 4144.52 2992 4183.33 2984.24C4383.05 2944.29 4443.67 2691.71 4450.3 2519.4C4451.5 2488 4453.44 2456.6 4453.44 2425.17C4453.44 2402.44 4446.48 2330.88 4418.89 2327.81C4360.62 2321.34 4301.5 2323.91 4243 2327.81Z" fill="#101112" fill-rule="nonzero" opacity="1" stroke="none"/>
<path d="M4296.4 1636.83C4299.54 1633.69 4299.54 1633.69 4302.68 1630.55C4318.86 1646.73 4322.63 1666.2 4340.37 1683.95C4403.36 1746.94 4490.82 1663.59 4528.82 1617.99C4553.44 1636.45 4553.62 1649.07 4575.93 1671.38C4598.47 1656.36 4607.88 1627.62 4616.76 1605.43C4662.69 1490.6 4638.93 1343.26 4516.25 1281.92C4458.64 1253.12 4348.38 1232.06 4318.38 1307.05C4299.53 1354.19 4292.76 1395 4283.83 1451.53C4282.83 1457.88 4271.42 1611.85 4296.4 1636.83Z" fill="#fcdc58" fill-rule="nonzero" opacity="1" stroke="none"/>
<path d="M3778.17 1617.99C3586.65 1639.27 3497.95 1777.1 3442.1 1944.63C3428.2 1986.32 3380.1 2113.07 3420.11 2133.08C3447.41 2105.78 3463.85 2036.18 3479.79 2004.31C3546.3 1871.3 3672.2 1822.14 3812.71 1822.14C3869.06 1822.14 3927.58 1848.61 3979.18 1869.25C3991.65 1874.24 4019.25 1897.04 4032.57 1894.38C4051.29 1890.64 4013.81 1794.09 4007.44 1778.17C3969.32 1682.86 3914.34 1633.83 3778.17 1617.99Z" fill="#000000" fill-rule="nonzero" opacity="1" stroke="none"/>
<path d="M3388.71 2594.78C3350.59 2632.89 3278.59 2576.86 3237.95 2607.34C3230.33 2613.06 3206.07 2680.05 3187.7 2698.42C3174.71 2711.41 3146.61 2706.41 3131.16 2714.13C3104.93 2727.24 3123.06 2773.71 3109.18 2792.65C3071.68 2843.78 3032.95 2837.47 2996.11 2874.31C3013.81 2892.01 3071.55 2893.86 3096.61 2899.43C3196.78 2921.69 3305.18 2936.47 3407.55 2940.27C3442.66 2941.57 3527.27 2965.02 3564.59 2927.7C3539.18 2876.88 3479.93 2841.67 3457.8 2786.37C3445.45 2755.49 3422.16 2716.37 3413.83 2685.86C3406.22 2657.94 3411.11 2617.18 3388.71 2594.78Z" fill="#48575d" fill-rule="nonzero" opacity="1" stroke="none"/>
<path d="M3014.95 47.5903C3016.87 51.4219 3022.03 66.2664 3027.52 66.4351C3093.44 68.4636 3159.43 67.3385 3225.39 66.4351C3314.92 65.2086 3406.01 63.1364 3495.49 60.1535C3670.89 54.307 3849.72 49.0923 4023.15 66.4351C4040.65 68.1853 4059.49 66.4351 4076.54 66.4351C4150.87 66.4351 4225.21 66.4351 4299.54 66.4351C4442.18 66.4351 4587.13 65.5817 4729.83 72.7167C4775.61 75.0058 4826.17 85.2016 4868.02 88.4207C4907.7 91.4728 4953.43 85.42 4993.65 94.7023C5008.22 98.0635 5045.24 118.499 5059.61 104.125C5052.85 90.5946 5047.6 66.8521 5034.49 57.0127C4998.24 29.8303 4823.05 26.2451 4776.94 25.6047C4708.89 24.6596 4640.84 23.4796 4572.79 22.4639C4205.73 16.9855 3828.03 3.61914 3457.8 3.61914C3318.56 3.61914 3179.31-1.56917 3040.08 0.478345C3027.87 0.65793 3021.54 41.0018 3014.95 47.5903Z" fill="#233655" fill-rule="nonzero" opacity="1" stroke="none"/>
<path d="M6293.95 2183.33C6233.35 2188.64 6176.56 2196.61 6118.06 2202.18C6110.3 2202.92 6111.78 2210.46 6111.78 2214.74C6111.78 2257.08 6105.87 2300.25 6099.22 2343.51C6087.38 2420.46 6059.92 2503.77 6026.98 2569.65C6001.95 2619.71 5953.36 2670.89 5913.91 2704.71C5905.06 2712.29 5832.07 2735.76 5841.67 2754.96C5842.99 2757.61 5845.02 2760.82 5847.95 2761.24C5887.46 2766.88 5911 2754.11 5945.32 2745.54C5995.33 2733.03 6052.91 2726.12 6096.07 2695.28C6190.05 2628.15 6234.88 2535.15 6275.1 2434.6C6295.83 2382.76 6333.77 2238.98 6322.21 2192.76C6318.75 2178.89 6302.49 2182.58 6293.95 2183.33Z" fill="#101112" fill-rule="nonzero" opacity="1" stroke="none"/>
<path d="M5383.11 217.193C5352.79 247.512 5302.52 203.56 5273.19 232.897C5294.95 276.428 5301.31 323.631 5320.3 371.093C5365.97 485.284 5423.01 591.745 5467.92 704.017C5477.75 728.616 5513.06 844.662 5530.73 857.916C5550.74 872.925 5606.49 865.792 5631.24 867.339C5652.16 868.646 5673.11 871.431 5694.05 870.479C5697.01 870.345 5699.23 866.947 5700.33 864.198C5701.37 861.601 5616.62 722.25 5606.11 697.735C5599.47 682.233 5587.01 663.54 5580.98 647.483C5568.79 614.978 5587.22 568.873 5571.56 537.555C5542.19 478.802 5493.18 418.551 5467.92 355.389C5448.64 307.212 5428.54 261.414 5383.11 217.193Z" fill="#46c1d9" fill-rule="nonzero" opacity="1" stroke="none"/>
<path d="M3058.92 2173.91C3045.59 2187.24 3050.65 2275.76 3049.5 2290.12C3046.25 2330.8 3001.04 2433.68 3011.81 2466C3015.24 2476.29 3036.89 2465.96 3046.36 2475.43C3074.23 2461.49 3292.69 2462.14 3329.03 2481.71C3333.73 2484.24 3348.65 2505.66 3360.44 2503.69C3381.53 2500.18 3377.14 2341.86 3379.28 2321.53C3380.95 2305.67 3401.1 2250.49 3394.99 2236.73C3384.56 2213.25 3332.88 2209.96 3313.33 2208.46C3233.16 2202.29 3147.82 2190.3 3058.92 2173.91Z" fill="#f7ebda" fill-rule="nonzero" opacity="1" stroke="none"/>
<path d="M5766.29 506.147C5712.49 506.48 5654.42 494.75 5609.25 521.851C5600.84 526.9 5563.99 525.883 5562.14 540.696C5552.36 618.954 5607.47 733.987 5656.36 795.1C5664.2 804.897 5684.75 860.999 5697.19 854.775C5708.16 849.291 5698.1 839.817 5709.76 835.931C5719.38 832.722 5756.29 836.55 5760.01 835.931C5768.08 834.586 5769.33 822.194 5775.71 817.086C5805.62 793.16 5840.59 783.615 5873.08 751.129C5889.17 735.041 5887.91 705.753 5898.2 685.172C5956.46 568.663 5872.44 505.489 5766.29 506.147Z" fill="#8e9497" fill-rule="nonzero" opacity="1" stroke="none"/>
<path d="M5791.42 1335.32C5772.68 1335.49 5700.55 1350.43 5678.35 1351.02C5563.23 1354.08 5448.02 1350.07 5332.86 1351.02C5219.78 1351.96 5106.69 1353.88 4993.65 1357.3C4921.42 1359.49 4849.18 1361.49 4776.94 1363.58C4756.95 1364.16 4766.92 1403.61 4770.66 1423.26C4774.64 1444.14 4794.63 1432.81 4805.21 1432.68C4972.71 1430.68 5140.23 1431.49 5307.73 1429.54C5493.45 1427.38 5681.17 1417.21 5863.66 1410.7C5886.41 1409.88 5967.33 1418.21 5992.43 1398.13C6005.32 1387.82 6019.66 1336.38 5995.57 1335.32C5927.58 1332.32 5859.47 1334.71 5791.42 1335.32Z" fill="#000000" fill-rule="nonzero" opacity="1" stroke="none"/>
<path d="M5571.56 1476.65C5480.34 1480.36 5386.38 1491.32 5295.17 1492.36C5126.62 1494.27 4958.03 1492.4 4789.5 1495.5C4771.6 1495.83 4792.05 1552.09 4795.78 1558.31C4812.47 1586.12 4831.12 1574.47 4858.6 1574.02C4980.03 1572.03 5101.52 1573.96 5222.93 1570.88C5369.03 1567.16 5528.17 1555.57 5678.35 1552.03C5754.78 1550.23 5831.52 1553 5907.63 1545.75C5932.16 1543.41 5972.07 1553.42 5979.87 1530.05C5982.02 1523.59 5984.24 1476.97 5970.44 1476.65C5837.52 1473.59 5704.41 1471.26 5571.56 1476.65Z" fill="#000000" fill-rule="nonzero" opacity="1" stroke="none"/>
<path d="M5935.89 1599.14C5671.19 1601.84 5414.29 1629.34 5150.69 1633.69C5047.06 1635.41 4943.41 1636.83 4839.76 1636.83C4818.92 1636.83 4808.21 1629.34 4811.49 1658.82C4816.61 1704.93 4854.31 1705.04 4893.15 1705.93C4975.84 1707.83 5058.56 1710.09 5141.27 1709.07C5254.35 1707.68 5367.41 1704.88 5480.48 1702.79C5617.61 1700.25 5773.55 1680.63 5913.91 1668.24C5944.26 1665.56 5967.04 1647.03 5976.72 1617.99C5978.47 1612.74 5984.29 1604.66 5973.58 1602.29C5961.28 1599.55 5948.5 1599.02 5935.89 1599.14Z" fill="#101112" fill-rule="nonzero" opacity="1" stroke="none"/>
<path d="M1802.6 1661.96C1765.45 1699.12 1827.2 1769.28 1790.04 1806.44C1806.94 1823.33 1820.47 1854.53 1846.58 1828.42C1821.37 1803.22 1899.2 1685.87 1912.53 1652.54C1939.41 1585.35 2073.82 1367.23 2138.67 1351.02C2157.8 1346.24 2181.6 1332.86 2201.49 1332.18C2258 1330.23 2314.55 1328.03 2371.09 1329.04C2490.37 1331.17 2557.32 1442.26 2628.63 1523.77C2634.69 1530.69 2718.41 1686.61 2710.29 1605.43C2707.19 1574.35 2684.78 1550.86 2675.75 1523.77C2605.5 1313.03 2456.63 1275.64 2245.46 1275.64C2222.28 1275.64 2154.76 1278.95 2135.53 1285.06C2127.06 1287.76 2124.63 1299.94 2116.68 1303.91C2099.61 1312.45 2076.2 1310.71 2060.15 1322.75C1978.87 1383.72 1944.89 1457.59 1890.55 1530.05C1872.17 1554.55 1824.14 1683.49 1802.6 1661.96Z" fill="#fc8663" fill-rule="nonzero" opacity="1" stroke="none"/>
<path d="M2069.57 2070.26C2069.57 2082 2068.5 2090.18 2060.15 2098.53C2060.32 2098.78 2135.8 2123.3 2144.95 2117.38C2167.75 2102.63 2191.75 2054.83 2229.75 2076.55C2251.9 2089.2 2239.76 2174.26 2245.46 2195.9C2249.75 2212.23 2287.92 2231.57 2298.85 2246.15C2306.05 2255.75 2324.84 2303.36 2336.54 2305.82C2351.94 2309.07 2368.11 2305.14 2383.65 2302.68C2405.26 2299.27 2429.39 2240.78 2449.61 2227.3C2428.64 2206.34 2446.11 2158.52 2437.05 2126.8C2417.41 2058.06 2350.95 1940.75 2280.01 1928.93C2250.3 1923.98 2205.46 1905.33 2179.5 1928.93C2156.9 1949.47 2089.66 2063.57 2069.57 2070.26Z" fill="#6e8994" fill-rule="nonzero" opacity="1" stroke="none"/>
<path d="M5879.36 2221.02C5860.69 2239.69 5792.99 2238.9 5766.29 2243.01C5703.66 2252.64 5630.95 2275.53 5571.56 2280.7C5537.19 2283.69 5467.65 2277.82 5439.65 2305.82C5503.35 2433.24 5669.97 2494.68 5803.98 2453.44C5871.19 2432.76 5892.05 2348.64 5898.2 2290.12C5899.75 2275.47 5912.76 2232.44 5879.36 2221.02Z" fill="#101112" fill-rule="nonzero" opacity="1" stroke="none"/>
<path d="M5172.68 1219.11C5137.02 1219.4 5101.45 1222.76 5065.89 1225.39C5031.79 1227.92 4844.64 1231.21 4861.74 1288.21C4870.53 1317.49 4915.23 1307.82 4933.98 1307.05C4980.02 1305.17 5026.2 1306.91 5072.17 1303.91C5151.94 1298.71 5243.42 1288.92 5326.58 1288.21C5521.3 1286.54 5716.06 1288.17 5910.77 1285.06C5974.98 1284.04 5957.27 1219.37 5935.89 1219.11C5681.51 1216.01 5427.08 1217.03 5172.68 1219.11Z" fill="#000000" fill-rule="nonzero" opacity="1" stroke="none"/>
<path d="M1720.94 2748.68C1714.66 2754.96 1714.66 2754.96 1708.38 2761.24C1720.47 2773.33 1714.11 2768.2 1727.22 2776.94C1707.31 2796.86 1682.46 2790.3 1667.55 2805.21C1681.49 2819.15 1807.23 2846.02 1840.29 2855.46C1900.96 2872.8 1968.14 2905.48 2031.88 2921.42C2067.77 2930.39 2104.31 2961.86 2138.67 2971.67C2159.41 2977.6 2254.19 3007.3 2261.16 3028.21C2313.41 3028.21 2345.49 3056.32 2393.07 3072.18C2464.02 3095.83 2533.95 3122.17 2600.37 3160.12C2628.84 3176.39 2673.8 3179.45 2704.01 3191.53C2733.75 3203.42 2808.4 3247.32 2842.21 3213.51C2824.75 3196.06 2792.97 3194.02 2773.11 3182.11C2751.64 3169.23 2732.65 3152.45 2710.29 3141.28C2688.16 3130.21 2656.11 3132.05 2634.92 3116.15C2618.29 3103.68 2587.84 3083.18 2568.96 3078.46C2549.83 3073.68 2526.36 3073.66 2509.28 3065.9C2295.45 2968.7 2056.11 2900.93 1856 2767.52C1842.17 2758.3 1799.04 2776.94 1783.76 2776.94C1769.99 2776.94 1734.43 2755.42 1720.94 2748.68Z" fill="#8e9497" fill-rule="nonzero" opacity="1" stroke="none"/>
<path d="M3008.67 2444.02C2992.7 2459.99 2982.57 2485.83 2964.7 2503.69C2958.68 2509.72 2938.77 2502.59 2936.43 2513.12C2931.84 2533.79 2925.31 2570.8 2945.85 2575.93C2989.02 2586.73 3037.3 2581.83 3068.35 2616.76C3096.01 2647.89 3067.74 2733.06 3090.33 2729.83C3116.17 2726.14 3166.88 2723.44 3187.7 2704.71C3243.08 2654.86 3283.72 2541.16 3212.82 2487.99C3227.33 2444.45 3088.39 2448.13 3046.36 2469.15C3033.8 2456.59 3022.19 2462.04 3008.67 2444.02Z" fill="#d7dce2" fill-rule="nonzero" opacity="1" stroke="none"/>
<path d="M5200.95 1011.82C5218.4 1029.27 5390.14 1012.5 5392.54 1011.82C5444.46 996.979 5485.58 1008.52 5555.86 1005.53C5668.76 1000.73 5794.21 987.638 5910.77 983.548C5960.07 981.818 6023.18 999.016 6064.67 974.126C6037.47 937.861 6002.11 936.025 5961.02 930.155C5938.88 926.991 5974.02 918.138 5945.32 917.591C5838.55 915.558 5731.74 917.591 5624.96 917.591C5541.63 917.591 5404.97 934.928 5332.86 970.985C5289.74 992.546 5237.5 975.259 5200.95 1011.82Z" fill="#fb9581" fill-rule="nonzero" opacity="1" stroke="none"/>
<path d="M2248.6 2764.38C2260.2 2758.58 2270.72 2772.17 2286.29 2764.38C2307.01 2785.11 2358.67 2754.43 2377.37 2767.52C2456 2822.56 2503.69 2868.03 2603.51 2868.03C2623.92 2868.03 2643.86 2855.46 2663.18 2855.46C2708.37 2855.46 2737.02 2882.93 2785.67 2858.6C2830.69 2836.1 2832.72 2788.51 2864.19 2767.52C2839.73 2718.6 2833.11 2732.39 2795.1 2748.68C2787.34 2752 2777.35 2747.72 2769.97 2751.82C2768.66 2752.55 2753.46 2770.34 2747.98 2770.66C2736.52 2771.34 2646.71 2746.11 2634.92 2754.96C2605.37 2777.12 2602.07 2823.48 2556.4 2817.77C2516.01 2812.73 2466.36 2785.84 2443.33 2745.54C2432.49 2726.56 2441.42 2698.2 2418.2 2682.72C2409.42 2676.86 2388.27 2690.2 2380.51 2692.14C2361.16 2696.98 2351.29 2679.2 2336.54 2673.3C2295.27 2656.79 2212.11 2727.9 2248.6 2764.38Z" fill="#f7ebda" fill-rule="nonzero" opacity="1" stroke="none"/>
<path d="M6297.09 1156.29C6195.24 1160.89 6147.5 1317.16 6212.28 1398.13C6236.97 1428.99 6247.82 1469.02 6297.09 1464.09C6327.86 1461.01 6351.5 1408.72 6356.76 1382.43C6372.75 1302.5 6405.88 1151.38 6297.09 1156.29Z" fill="#f7ebda" fill-rule="nonzero" opacity="1" stroke="none"/>
<path d="M973.433 1445.25C909.673 1453.15 875.484 1520.52 854.083 1574.02C842.215 1603.69 848.837 1674 894.913 1668.24C919.547 1665.16 943.751 1644.94 964.011 1636.83C994.701 1624.56 1031.89 1624.39 1064.52 1621.13C1077.66 1619.82 1118.08 1617.32 1121.05 1605.43C1125.28 1588.51 1108.74 1568.24 1102.21 1555.17C1076.93 1504.62 1036.39 1437.45 973.433 1445.25Z" fill="#f7ebda" fill-rule="nonzero" opacity="1" stroke="none"/>
<path d="M6118.06 2670.16C6108.21 2675.08 6086.66 2685.87 6092.93 2698.42C6098.92 2710.39 6140.22 2713.73 6152.61 2717.27C6209.99 2733.66 6265.98 2751.92 6322.21 2770.66C6432.03 2807.27 6547.44 2821.66 6658.28 2858.6C6717.4 2878.31 6781.45 2903.67 6843.58 2921.42C6891.25 2935.04 6941.67 2960.08 6988.06 2971.67C7009.5 2977.03 7033.44 2973.08 7050.88 2990.52C7051.92 2974.81 7054.94 2959.12 7054.02 2943.41C7053.38 2932.64 6999.03 2926.8 6991.2 2924.56C6937.66 2909.26 6890.6 2893.13 6834.16 2880.59C6652.96 2840.32 6475.48 2763.44 6303.37 2720.41C6245.32 2705.9 6180.14 2673.3 6118.06 2670.16Z" fill="#f7ebda" fill-rule="nonzero" opacity="1" stroke="none"/>
<path d="M2019.32 1815.86C2052.36 1799.34 2081.67 1734.67 2107.26 1709.07C2198.62 1617.71 2394.22 1601.36 2477.88 1705.93C2514.07 1669.73 2422.95 1612.51 2389.93 1596C2267.17 1534.62 2150.36 1593.74 2063.29 1680.81C2037.92 1706.18 1988.87 1785.41 2019.32 1815.86Z" fill="#000000" fill-rule="nonzero" opacity="1" stroke="none"/>
<path d="M2122.97 2120.52C2148.01 2145.56 2166.72 2234.02 2151.23 2264.99C2142.19 2283.07 2132.39 2277.59 2135.53 2302.68C2137.22 2316.2 2206.64 2288.93 2220.33 2286.98C2271.17 2279.72 2288.8 2300.8 2330.26 2321.53C2334.97 2316.82 2334.97 2316.82 2339.68 2312.11C2322.15 2277.04 2305.13 2243.01 2276.86 2214.74C2269.46 2207.34 2253.67 2206.19 2251.74 2195.9C2244.96 2159.76 2254.57 2119.27 2245.46 2082.83C2231.85 2028.39 2130.96 2112.52 2122.97 2120.52Z" fill="#f7ebda" fill-rule="nonzero" opacity="1" stroke="none"/>
<path d="M627.946 2302.68C626.899 2326.76 623.841 2350.84 624.805 2374.92C625.583 2394.38 702.212 2412.05 715.888 2418.89C785.235 2453.57 859.199 2483.76 932.603 2513.12C958.97 2523.66 993.589 2562.06 1020.55 2535.1C986.062 2500.62 945.784 2501.48 913.758 2453.44C907.988 2444.79 892.153 2395.07 882.35 2393.77C793.127 2381.87 715.051 2337.53 627.946 2302.68Z" fill="#6e8994" fill-rule="nonzero" opacity="1" stroke="none"/>
<path d="M3552.03 1040.08C3566.1 1061.2 3660.94 1055.69 3696.51 1058.93C3829.26 1071 3959.75 1095.59 4089.1 1099.76C4113.88 1100.56 4289.25 1130.5 4299.54 1124.88C4319.96 1113.75 4326.21 1105.98 4318.38 1090.34C4323.09 1085.62 4323.09 1085.62 4327.81 1080.91C4295.9 1049 4237.84 1073.29 4192.75 1071.49C4180.15 1070.99 4167.65 1069.11 4155.06 1068.35C3999.17 1058.9 3842.51 1048.6 3687.08 1033.8C3651.81 1030.44 3581.11 1011.01 3552.03 1040.08Z" fill="#fb9581" fill-rule="nonzero" opacity="1" stroke="none"/>
<path d="M3479.79 220.334C3360.62 224.918 3240.69 224.585 3121.74 229.757C3118.78 229.885 3117.55 233.944 3115.46 236.038C3139.74 260.316 3152.93 245.858 3190.84 254.883C3198.04 256.598 3200.26 266.663 3206.54 270.587C3213.7 275.061 3223.23 267.446 3231.67 267.446C3256.88 267.446 3281.83 273.728 3307.05 273.728C3386.05 273.728 3466.59 266.634 3545.75 264.305C3584.48 263.166 3623.49 265.856 3661.96 261.165C3667.84 260.448 3668.69 249.661 3674.52 248.601C3715.07 241.229 3723.63 250.723 3753.04 242.32C3768.06 238.027 3756.51 223.475 3479.79 220.334Z" fill="#d3988f" fill-rule="nonzero" opacity="1" stroke="none"/>
<path d="M3693.36 2290.12C3635.22 2298.87 3636.15 2426.28 3649.39 2466C3655.07 2483.04 3670.08 2525.68 3693.36 2525.68C3781.15 2525.68 3814.13 2271.95 3693.36 2290.12Z" fill="#f7ebda" fill-rule="nonzero" opacity="1" stroke="none"/>
<path d="M3511.2 1727.92C3423.28 1802.21 3391.44 1893.71 3373 2004.31C3370.09 2021.76 3355.16 2132.05 3401.27 2120.52C3404.85 2119.62 3419.18 2034.29 3423.26 2020.01C3441.27 1956.97 3473.96 1892.59 3489.21 1831.56C3494.96 1808.57 3533.18 1780.64 3533.18 1756.18C3533.18 1744.63 3522.6 1718.28 3511.2 1727.92Z" fill="#c7372d" fill-rule="nonzero" opacity="1" stroke="none"/>
<path d="M4302.68 1621.13C4269.69 1654.12 4324.23 1778.34 4371.78 1781.31C4443 1785.76 4515.33 1752.63 4560.22 1696.51C4504.88 1641.16 4444.4 1696.51 4378.06 1696.51C4341.16 1696.51 4318.99 1645.6 4302.68 1621.13Z" fill="#fc8663" fill-rule="nonzero" opacity="1" stroke="none"/>
<path d="M2933.29 1084.05C2910.98 1095.21 2903.4 1092.89 2883.04 1109.18C2890.85 1124.81 2899.91 1165.07 2923.87 1165.71C2960.5 1166.7 2997.16 1165.07 3033.8 1165.71C3037.42 1165.78 3096.05 1179.55 3115.46 1162.57C3131.8 1148.27 3162.78 1110.85 3128.02 1093.48C3112.5 1085.71 3077.28 1089.49 2933.29 1084.05Z" fill="#233655" fill-rule="nonzero" opacity="1" stroke="none"/>
<path d="M2487.3 1690.23C2481.02 1696.51 2481.02 1696.51 2474.73 1702.79C2494.17 1741.67 2465.31 1772.4 2465.31 1815.86C2465.31 1879.46 2482.16 2004.38 2540.69 2048.28C2566.81 2067.87 2552.04 2006.88 2550.11 1988.6C2546.49 1954.18 2545.81 1919.51 2543.83 1884.96C2540.47 1826.08 2531.62 1734.55 2487.3 1690.23Z" fill="#101112" fill-rule="nonzero" opacity="1" stroke="none"/>
<path d="M4312.1 1090.34C4319.59 1105.31 4313.26 1104.88 4299.54 1118.6C4310.68 1129.75 4339.81 1127.55 4356.07 1128.02C4419.92 1129.9 4483.79 1131.17 4547.66 1131.17C4558.83 1131.17 4679.66 1128.23 4667.01 1096.62C4660.19 1079.57 4577.64 1084.5 4560.22 1084.05C4503.89 1082.61 4351.78 1050.66 4312.1 1090.34Z" fill="#fc8663" fill-rule="nonzero" opacity="1" stroke="none"/>
<path d="M3106.04 2717.27C3031.15 2735.99 3045.82 2817.77 2942.71 2817.77C2921.94 2817.77 2849.61 2747.88 2842.21 2773.8C2827.13 2826.58 2984.45 2879.6 3021.23 2864.89C3056.72 2850.69 3090.04 2829.61 3115.46 2792.65C3127.5 2775.13 3117.45 2744.7 3128.02 2723.55C3124.88 2720.41 3124.88 2720.41 3106.04 2717.27Z" fill="#8e9497" fill-rule="nonzero" opacity="1" stroke="none"/>
<path d="M6184.02 1325.9C6153.63 1356.28 6176.74 1411.7 6177.74 1454.67C6178.96 1507.22 6252.39 1533 6293.95 1523.77C6314.12 1519.28 6341.05 1490.93 6350.48 1479.79C6367.46 1459.73 6355.28 1412.18 6372.47 1394.99C6363.22 1385.75 6369.14 1379.11 6359.9 1369.87C6339.09 1390.68 6333.78 1427.4 6309.65 1451.53C6247.95 1513.23 6203.74 1345.61 6184.02 1325.9Z" fill="#fc8663" fill-rule="nonzero" opacity="1" stroke="none"/>
<path d="M3369.86 2494.27C3366.72 2497.41 3366.72 2497.41 3363.58 2500.55C3331.06 2484.29 3255.16 2476.44 3241.09 2525.68C3238.33 2535.32 3237.26 2607.11 3247.37 2610.48C3263.37 2615.82 3289.76 2610.48 3307.05 2610.48C3332.19 2610.48 3357.55 2611.03 3382.43 2607.34C3404.44 2604.08 3384.4 2543.81 3382.43 2531.96C3380 2517.44 3380.39 2504.8 3369.86 2494.27Z" fill="#6e8994" fill-rule="nonzero" opacity="1" stroke="none"/>
<path d="M2848.49 2422.03C2835.18 2435.34 2843.56 2490.26 2848.49 2509.98C2867.24 2584.97 2948.08 2664.79 3024.37 2588.5C3013.61 2577.73 2944.43 2578.77 2942.71 2563.37C2940.86 2546.72 2945.71 2529.6 2942.71 2513.12C2941.25 2505.05 2911.71 2445.53 2901.88 2444.02C2890.45 2442.26 2878.86 2448.05 2867.33 2447.16C2861.05 2446.68 2858 2426.79 2848.49 2422.03Z" fill="#f7ebda" fill-rule="nonzero" opacity="1" stroke="none"/>
<path d="M5609.25 917.591C5613.96 922.303 5613.96 922.303 5618.67 927.014C5620.77 925.967 5622.61 923.895 5624.96 923.873C5731.74 922.846 5838.55 921.82 5945.32 923.873C5952.02 924.002 5954.38 935.55 5961.02 936.436C6002.89 942.019 6027.91 943.649 6058.39 974.126C6055.24 977.267 6055.24 977.267 6052.1 980.407C6060.24 988.54 6068.45 987.326 6077.23 996.111C6109.52 963.826 6192.41 1003.42 6224.85 970.985C6212.66 958.793 6224.64 967.818 6199.72 964.703C6187.97 963.235 6180.73 948.642 6171.45 945.859C6114.49 928.769 6057.34 908.064 5995.57 901.887C5988.58 901.189 5983.75 911.19 5976.72 911.31C5856.34 913.368 5735.91 909.252 5615.53 911.31C5612.57 911.36 5611.35 915.497 5609.25 917.591Z" fill="#fc8663" fill-rule="nonzero" opacity="1" stroke="none"/>
<path d="M2455.89 2943.41C2497.49 2993.33 2669.03 3044.37 2738.56 3072.18C2761.3 3081.28 2814.92 3115.17 2832.79 3097.31C2831.22 3094.16 2831.22 3094.16 2829.64 3091.02C2860.36 3060.31 2792.42 3048.08 2766.83 3040.77C2696.12 3020.57 2619.95 2987.75 2550.11 2952.83C2524.14 2939.84 2477.88 2921.41 2455.89 2943.41Z" fill="#f7ebda" fill-rule="nonzero" opacity="1" stroke="none"/>
<path d="M3043.22 2173.91C3019.27 2197.86 3026.62 2240.01 3018.09 2271.28C3001.23 2333.11 2979.14 2451.56 2930.15 2500.55C2961.39 2531.79 2995.66 2489.1 3008.67 2456.58C3037.09 2385.52 3051.24 2309.92 3055.78 2230.44C3056.86 2211.52 3062.91 2187.32 3043.22 2173.91Z" fill="#48575d" fill-rule="nonzero" opacity="1" stroke="none"/>
<path d="M2462.17 2221.02C2476.65 2235.5 2520.49 2230.22 2540.69 2233.59C2541.67 2233.75 2614.22 2301.27 2622.35 2312.11C2633.95 2327.57 2617.19 2332.64 2641.2 2349.8C2648.01 2354.66 2658.38 2351.27 2666.32 2359.22C2677.32 2348.22 2677.32 2348.22 2688.31 2337.23C2666.54 2293.7 2676.9 2220.87 2606.65 2217.88C2560.61 2215.92 2514.52 2213.74 2468.45 2214.74C2465.49 2214.81 2464.27 2218.93 2462.17 2221.02Z" fill="#a5a4a5" fill-rule="nonzero" opacity="1" stroke="none"/>
<path d="M4089.1 2315.25C4046.58 2357.77 4182.68 2446.85 4230.44 2440.88C4257.98 2437.44 4204.57 2350.54 4221.02 2334.09C4194.11 2307.18 4127.77 2341.02 4089.1 2315.25Z" fill="#123137" fill-rule="nonzero" opacity="1" stroke="none"/>
<path d="M6074.09 992.971C6084.76 1008.98 6086.65 1030.65 6099.22 1043.22C6134.66 1007.78 6290.79 1046.38 6319.07 1018.1C6275.34 974.37 6118.54 948.522 6074.09 992.971Z" fill="#fb9581" fill-rule="nonzero" opacity="1" stroke="none"/>
<path d="M1940.8 1919.51C1967.29 1945.99 2021.2 1908.18 2038.16 1976.04C2042.94 1995.15 2021.14 2153.24 2069.57 2104.81C2068 2101.67 2068 2101.67 2066.43 2098.53C2072.43 2092.53 2081.44 2064.7 2082.14 2054.56C2084.08 2026.34 2085.28 1998.05 2085.28 1969.76C2085.28 1930.26 2037.86 1893.86 2000.47 1900.66C1994.65 1901.72 1993.68 1911.87 1987.91 1913.22C1972.49 1916.85 1952 1908.3 1940.8 1919.51Z" fill="#b6c1c8" fill-rule="nonzero" opacity="1" stroke="none"/>
<path d="M1551.34 2758.1C1566.39 2773.15 1675.27 2807.58 1698.96 2805.21C1730.61 2802.05 1736.08 2776.37 1717.8 2758.1C1722.51 2753.39 1722.51 2753.39 1727.22 2748.68C1682.93 2704.38 1644.62 2733.21 1595.31 2745.54C1579.7 2749.44 1563.41 2746.03 1551.34 2758.1Z" fill="#a5a4a5" fill-rule="nonzero" opacity="1" stroke="none"/>
<path d="M2776.25 2356.08C2754.88 2363.2 2716.65 2391.91 2760.55 2409.47C2780.87 2417.6 2812.32 2400.62 2835.93 2409.47C2852.62 2415.73 2848.99 2448.2 2867.33 2453.44C2894.07 2461.08 2893.5 2458.68 2905.02 2447.16C2880.68 2398.47 2849.45 2372.02 2776.25 2356.08Z" fill="#8e9497" fill-rule="nonzero" opacity="1" stroke="none"/>
<path d="M3470.37 930.155C3453.22 947.298 3414.72 976.783 3416.97 983.548C3425.62 1009.49 3536.59 1008.41 3555.17 989.83C3531.92 966.581 3500.89 954.397 3470.37 930.155Z" fill="#477895" fill-rule="nonzero" opacity="1" stroke="none"/>
<path d="M4528.82 1608.57C4507.94 1629.44 4494.2 1651.54 4469.14 1668.24C4485.73 1684.83 4547.92 1705.71 4569.65 1687.09C4574.28 1683.11 4582.03 1676.72 4579.07 1671.38C4559.46 1636.09 4554.47 1634.22 4528.82 1608.57Z" fill="#fcba70" fill-rule="nonzero" opacity="1" stroke="none"/>
<path d="M3489.21 911.31C3476.31 917.761 3484.59 912.795 3467.23 930.155C3480.24 949.672 3579.17 1019.98 3599.14 986.689C3616.21 958.233 3519.4 921.745 3489.21 911.31Z" fill="#123137" fill-rule="nonzero" opacity="1" stroke="none"/>
<path d="M2663.18 2356.08C2682.96 2377.65 2727.83 2442.19 2763.69 2406.33C2754.32 2396.97 2755.88 2381 2751.12 2368.64C2735.34 2327.59 2682.69 2336.57 2663.18 2356.08Z" fill="#b6c1c8" fill-rule="nonzero" opacity="1" stroke="none"/>
<path d="M3244.23 2528.82C3251.84 2521.21 3261.43 2501.34 3272.5 2500.55C3292.83 2499.1 3328.29 2507.58 3344.74 2491.13C3328.53 2474.92 3214.26 2452.28 3206.54 2475.43C3201.18 2491.5 3233.92 2515.07 3244.23 2528.82Z" fill="#a5a4a5" fill-rule="nonzero" opacity="1" stroke="none"/>
<path d="M2339.68 2296.4C2334.97 2301.11 2334.97 2301.11 2330.26 2305.82C2340.09 2325.48 2339.95 2347.5 2358.53 2362.36C2370 2371.53 2394.18 2306.93 2339.68 2296.4Z" fill="#a5a4a5" fill-rule="nonzero" opacity="1" stroke="none"/>
</g>
</g>
</svg>
