<?xml version="1.0" encoding="UTF-8" standalone="no"?>
<!DOCTYPE svg PUBLIC "-//W3C//DTD SVG 1.1//EN" "http://www.w3.org/Graphics/SVG/1.1/DTD/svg11.dtd">
<!-- Created with Vectornator (http://vectornator.io/) -->
<svg height="100%" stroke-miterlimit="10" style="fill-rule:nonzero;clip-rule:evenodd;stroke-linecap:round;stroke-linejoin:round;" version="1.1" viewBox="0 0 7680 4320" width="100%" xml:space="preserve" xmlns="http://www.w3.org/2000/svg" xmlns:xlink="http://www.w3.org/1999/xlink">
<defs/>
<clipPath id="ArtboardFrame">
<rect height="4320" width="7680" x="0" y="0"/>
</clipPath>
<g clip-path="url(#ArtboardFrame)" id="Ebene-1">
<g opacity="1">
<path d="M2756.88 1438.27C2732.81 1450.31 2716.7 1499.31 2713.62 1522.38C2712.02 1534.4 2717.39 1549.86 2708.82 1558.43C2692.33 1541.94 2680.05 1516.02 2660.76 1503.16C2614.3 1549.62 2690.29 1720.68 2725.64 1757.88C2752.56 1786.22 2779.71 1814.35 2807.34 1841.99C2818.07 1852.72 2826.74 1850.74 2824.17 1863.62C2821.32 1877.85 2796.23 1895.21 2788.12 1904.47C2777.5 1916.61 2762.56 1950.8 2754.48 1966.95C2721.91 2032.09 2691.05 2101.96 2667.97 2171.21C2650.19 2224.55 2643.73 2283.43 2636.73 2339.43C2631.13 2384.22 2633.76 2430.46 2639.13 2471.6C2642.72 2499.12 2639.01 2523.81 2643.94 2550.9C2663.86 2660.48 2720.64 2747.76 2800.14 2827.26C2840.98 2868.1 2894.83 2897.92 2934.71 2937.8C2937.11 2935.4 2937.11 2935.4 2939.51 2932.99C2974.35 2950.41 3005.95 2971.41 3038.04 2990.67C3057.23 3002.18 3092.93 3003.82 3114.94 3007.49C3212.77 3023.79 3311.22 3011.75 3403.31 2981.05C3455.14 2963.78 3514.56 2943.14 3559.51 2916.17C3571.27 2909.11 3593.08 2891.19 3607.57 2889.74C3648.78 2885.62 3698.09 2919.18 3734.94 2932.99C3755.22 2940.6 3781.06 2942.76 3802.22 2949.81C3837 2961.41 3877.01 2981.73 3912.76 2990.67C3943.65 2998.39 4057.39 3017.54 4071.37 3031.52C4063.62 3039.26 4056.31 3031.07 4049.74 3036.33C3989.81 3084.27 4020.89 3072.35 4044.93 3106.01C4051.44 3115.13 4056.57 3129.67 4064.16 3137.25C4072.8 3128.61 4070.74 3113.85 4080.98 3103.61C4152.31 3160.68 4178.17 3273.7 4198.73 3355.94C4217.9 3432.59 4204.08 3510.44 4193.93 3586.63C4184.44 3657.77 4171.22 3718.2 4136.25 3776.48C4031.82 3950.53 3835.45 3957.75 3660.44 3992.75C3603.89 4004.06 3545.09 3992.75 3487.42 3992.75C3446.25 3992.75 3388.49 3979.74 3352.85 3997.56C3369.88 4014.59 3400.86 4001.76 3424.94 4002.37C3448.58 4002.96 3459.6 4015.57 3477.81 4016.78C3509.79 4018.92 3541.89 4018.27 3573.93 4019.19C3620.38 4020.51 3666.84 4021.59 3713.31 4021.59C3775.38 4021.59 3836.34 4001.15 3893.54 3987.95C4086.17 3943.49 4249.55 3855.73 4309.27 3646.71C4315.1 3626.31 4331.6 3593.34 4333.3 3574.62C4338.42 3518.34 4338.11 3461.08 4338.11 3404C4338.11 3385.82 4346.92 3379.92 4345.32 3365.55C4343.31 3347.43 4334.18 3322.07 4328.5 3307.87C4301.85 3241.25 4313.12 3147.82 4323.69 3084.39C4326.69 3066.41 4322.52 3047.04 4328.5 3029.12C4354.22 2951.95 4433.33 2936.07 4491.91 2892.14C4536.12 2858.98 4572.77 2817.16 4604.85 2774.39C4607.26 2775.59 4607.26 2775.59 4609.66 2776.79C4706.07 2680.38 4712.4 2471.32 4708.19 2349.04C4707.64 2333.1 4701.69 2351.56 4696.17 2332.22C4689.03 2307.24 4682.05 2272.47 4679.35 2248.11C4675.28 2211.48 4675.39 2157.5 4662.53 2120.75C4658.12 2108.16 4640.99 2099.64 4638.5 2084.7C4635.54 2066.99 4624.29 2020.03 4612.06 2007.8C4619.68 2000.19 4626.08 2005.81 4633.69 1998.19C4624.65 1989.15 4610.72 2000.32 4604.85 1988.58C4596.15 1971.18 4603.95 1952.73 4585.63 1940.52C4561.5 1964.65 4444.39 1989.12 4427.02 1971.76C4441.95 1956.84 4476.55 1956.43 4494.31 1945.32C4556.05 1906.74 4623.72 1862.5 4669.74 1801.14C4656.14 1787.55 4643.74 1801.58 4631.29 1789.12C4647.15 1757.4 4670.53 1725.87 4679.35 1690.6C4680.74 1685.05 4666.36 1628.05 4664.93 1613.7C4662.65 1590.9 4677.2 1575.5 4660.12 1558.43C4641.23 1571.02 4631.58 1598.88 4616.87 1618.5C4588.99 1655.68 4558.44 1691.36 4525.55 1724.24C4462.29 1787.5 4346.04 1791.53 4261.21 1791.53C4204.25 1791.53 4177.74 1750.83 4129.04 1738.66C4087.07 1728.17 4047.56 1707.53 4008.89 1688.19C3986.84 1677.17 3957.54 1679.95 3934.39 1673.78C3859.52 1653.81 3775.06 1628.12 3694.08 1628.12C3668.68 1628.12 3635.14 1627.87 3609.98 1630.52C3598.79 1631.7 3591.82 1640.13 3578.74 1640.13C3535.33 1640.13 3486.49 1650.87 3444.16 1647.34C3435.39 1646.61 3442.94 1619.2 3427.34 1628.12C3409.61 1638.25 3426.37 1652.25 3410.52 1661.76C3394.11 1671.61 3348.5 1683.33 3328.81 1685.79C3307.99 1688.39 3293.09 1680.66 3278.35 1695.4C3265.06 1688.76 3234.59 1706.47 3223.08 1712.23C3187.89 1729.82 3103.58 1767.66 3064.48 1757.88C2977.54 1736.15 2869.77 1645.81 2824.17 1572.85C2798.51 1531.79 2791.16 1472.55 2756.88 1438.27Z" fill="#cc7d2a" fill-rule="nonzero" opacity="1" stroke="none"/>
<path d="M2932.31 2935.4C2974.27 3019.33 2962.05 3127.31 2934.71 3209.35C2922.79 3245.1 2917.63 3285.79 2893.86 3317.49C2881.5 3333.96 2837.16 3394.31 2833.78 3411.21C2831.6 3422.09 2851.03 3500.86 2853 3509.73C2889.87 3675.62 2971.84 3807.69 3107.73 3925.47C3139.24 3952.78 3178.62 3972.93 3213.47 3990.35C3223.45 3995.34 3253.55 4000.83 3259.12 4011.98C3261.33 4016.39 3203.76 4060.14 3201.45 4062.44C3181.06 4082.83 3177.42 4112.01 3177.42 4139.34C3177.42 4171.54 3216.94 4169.25 3232.69 4185C3246.88 4170.81 3263.23 4150.08 3280.75 4136.94C3314.87 4159.68 3325.76 4216.89 3381.68 4160.97C3387.21 4165.58 3403.06 4181.89 3412.92 4182.6C3453.22 4185.48 3493.02 4162.5 3487.42 4117.71C3486.22 4108.15 3465.81 4077.82 3480.21 4072.06C3491.63 4067.49 3496.55 4080.97 3504.24 4081.67C3520.19 4083.12 3536.28 4081.3 3552.3 4081.67C3614.87 4083.09 3680.15 4078.22 3742.15 4081.67C3754.4 4082.35 3735.84 4125.32 3734.94 4132.13C3731.11 4160.82 3733.87 4198.35 3754.16 4218.64C3760.57 4215.44 3757.36 4215.44 3763.77 4218.64C3773.19 4209.22 3792.28 4215.21 3804.63 4213.84C3815.73 4212.6 3820.48 4185.86 3831.06 4192.21C3843.89 4199.91 3851.9 4219.09 3869.51 4221.05C3902.37 4224.7 3927.92 4191.58 3963.23 4197.02C3970.82 4198.18 3979.09 4212.16 3987.26 4216.24C3997.07 4206.43 4001.89 4182.45 4004.08 4168.18C4016.99 4084.27 3928.03 4111.78 3893.54 4060.04C3912.73 4040.85 3952.62 4034.74 3977.65 4026.4C4013.91 4014.31 4060.77 3991.9 4095.4 3971.13C4235.11 3887.3 4343.66 3764.63 4393.38 3615.47C4402.29 3588.74 4426.19 3542.44 4419.82 3516.94C4411.24 3482.62 4378.32 3454.63 4369.35 3423.22C4364.79 3407.27 4356.2 3371.62 4345.32 3360.74C4323.6 3382.46 4338.11 3458.57 4338.11 3480.9C4338.11 3495.52 4329.56 3514.93 4328.5 3526.55C4324.21 3573.7 4319.2 3645.39 4292.45 3689.96C4258.18 3747.09 4233.05 3799.83 4179.51 3853.37C4098.45 3934.44 3997.18 3953.53 3893.54 3983.14C3839.65 3998.54 3774.61 4012.77 3715.71 4014.38C3669.26 4015.65 3622.8 4016.78 3576.33 4016.78C3541.8 4016.78 3480.25 4026.44 3456.18 4002.37C3458.58 3998.76 3458.58 3998.76 3460.98 3995.16C3469.71 3999.52 3475.72 3995.01 3485.02 3995.16C3535.48 3995.93 3585.94 3996.78 3636.41 3997.56C3647.88 3997.74 3634.33 3998.08 3646.02 3995.16C3665.27 3990.34 3698.04 3990.35 3718.11 3990.35C3753.61 3990.35 3794.62 3972.65 3826.25 3966.32C3905.59 3950.45 3990.26 3930.99 4052.14 3875C4090.17 3840.6 4114.83 3805.04 4143.46 3766.86C4158.75 3746.48 4177.81 3708.78 4184.31 3682.76C4197.97 3628.13 4223.77 3516.48 4215.55 3461.67C4211.67 3435.75 4167.9 3457.35 4165.09 3437.64C4158.96 3394.76 4186.99 3362.59 4203.54 3329.5C4209.26 3318.06 4185.42 3286.52 4181.91 3274.23C4167.21 3222.78 4139.98 3167.98 4105.01 3125.24C4099.61 3118.63 4088.22 3093.02 4078.58 3098.81C4069.83 3104.06 4071.26 3113.33 4064.16 3120.43C4046.09 3105.38 4006.82 3084.06 4030.52 3060.36C4032.92 3061.56 4032.92 3061.56 4035.32 3062.76C4044.04 3054.04 4035.9 3049.04 4049.74 3041.13C4056.62 3037.2 4084.92 3046.4 4080.98 3026.71C4080.18 3022.73 3983.55 3007.85 3968.04 3002.68C3913.47 2984.49 3857.05 2958.72 3802.22 2945.01C3780.83 2939.66 3755.7 2937.41 3734.94 2928.19C3699.8 2912.57 3648.07 2884.93 3607.57 2884.93C3592.22 2884.93 3530.61 2924.61 3513.85 2932.99C3419.64 2980.1 3296.58 3012.29 3191.84 3012.29C3124.85 3012.29 3045.91 2997.52 2992.38 2961.83C2976.12 2950.99 2949.93 2922.18 2932.31 2935.4Z" fill="#fb923c" fill-rule="nonzero" opacity="1" stroke="none"/>
<path d="M4484.7 1757.88C4509.96 1749.46 4540.24 1714.36 4556.79 1697.81C4562.42 1692.17 4647.88 1596.19 4643.3 1582.46C4637.77 1565.86 4607.74 1554.66 4592.84 1544.01C4566.41 1525.13 4543.03 1496.19 4535.16 1464.71C4532.11 1452.48 4517.46 1436.76 4527.95 1426.26C4574.66 1472.96 4592.98 1512.49 4655.32 1539.2C4682.6 1550.89 4714.6 1542.36 4744.23 1544.01C4860.21 1550.45 4971.99 1453.22 5049.42 1375.79C5179.13 1246.09 5246.48 1070 5246.48 892.773C5246.48 854.119 5229.72 819.766 5222.45 787.037C5207.75 720.915 5182.28 653.149 5131.13 602C5020.29 491.165 4834.31 456.763 4691.36 520.295C4595.72 562.804 4521.88 650.566 4470.28 736.572C4392.55 866.123 4377.71 1049.35 4410.2 1195.56C4419.34 1236.66 4434.05 1286.57 4455.86 1322.93C4463.67 1335.94 4479.9 1349.3 4477.49 1366.18C4473.46 1394.41 4453.76 1428.81 4446.25 1455.09C4425.84 1526.52 4438.87 1689.15 4484.7 1757.88Z" fill="#fbd340" fill-rule="nonzero" opacity="1" stroke="none"/>
<path d="M4044.93 1964.55C3861.76 1970.1 3707 2136.66 3686.87 2317.8C3685.46 2330.54 3688.87 2343.59 3686.87 2356.25C3678.12 2411.67 3667.96 2471.23 3677.26 2531.68C3678.21 2537.82 3729.14 2580.16 3739.74 2601.37C3759.07 2640.02 3765.86 2677.52 3792.61 2711.91C3865.51 2805.63 3991.79 2890.88 4117.03 2882.53C4204.7 2876.68 4275.78 2862.25 4350.13 2817.64C4527.39 2711.28 4560.47 2506.33 4547.18 2320.21C4541.03 2234.16 4465.97 2133.26 4407.8 2075.09C4313.89 1981.18 4169.26 1960.78 4044.93 1964.55Z" fill="#fbf5e1" fill-rule="nonzero" opacity="1" stroke="none"/>
<path d="M3201.45 1935.71C3005.33 1942.82 2835.1 2079.97 2792.93 2269.74C2733.36 2537.78 2863.22 2841.68 3172.61 2841.68C3278.97 2841.68 3389.61 2809.78 3468.19 2738.34C3489.17 2719.28 3519.3 2703.43 3525.87 2675.86C3536.9 2629.52 3528.45 2608.09 3559.51 2570.13C3573.84 2552.62 3593.37 2532.08 3617.18 2529.27C3633.17 2527.39 3658.05 2538.87 3665.25 2524.47C3670.93 2513.11 3656.22 2492.1 3655.63 2483.62C3651.42 2422.47 3652.22 2396.47 3650.83 2332.22C3648.11 2207.11 3574.19 2084.29 3475.4 2010.21C3448.47 1990.01 3412.89 1978.95 3384.09 1964.55C3333.38 1939.2 3255.82 1933.74 3201.45 1935.71Z" fill="#fbf5e1" fill-rule="nonzero" opacity="1" stroke="none"/>
<path d="M5472.37 1056.18C5503.64 1024.91 5513.53 1056.14 5546.86 1051.38C5561.91 1049.23 5552.48 1014.56 5549.27 1003.31C5541.47 976.048 5524.2 886.929 5508.41 871.145C5517.5 862.055 5601.52 866.492 5630.97 859.13C5641.94 856.388 5719.25 825.169 5719.88 825.487C5746.13 799.242 5781.93 787.396 5811.2 763.006C5871.75 712.551 5919.58 659.311 5962.6 594.79C5971.01 582.172 6014.79 499.146 6013.06 496.264C5994.09 464.646 5979.35 433.721 5952.98 407.35C5963.06 397.276 5959.44 390.275 5945.77 385.722C5945.77 360.894 5969.88 344.988 5952.98 318.435C5944.47 305.055 5930.19 296.362 5919.34 284.792C5914.11 279.217 5920.39 274.504 5912.13 270.374C5902.87 265.742 5887.24 282.916 5883.29 263.165C5879.37 243.528 5882.05 223.074 5883.29 203.087C5884.02 191.466 5912.95 203.276 5916.94 188.669C5918.83 181.714 5915.19 174.035 5916.94 167.041C5920.5 152.796 5942.89 162.676 5948.18 162.235C5958.65 161.363 5955.93 143.247 5960.19 138.204C5970.81 125.657 5982.21 113.78 5993.84 102.158C6006.65 89.3413 5995.44 102.158 6008.25 102.158C6028.1 102.158 6032.75 84.4132 6039.49 70.9177C6027.93 59.3484 6003.45 24.3856 6003.45 6.03438C5812.8 5.23335 5622.16 2.83362 5431.51 3.63129C5426.71 3.6514 5431.51 13.2436 5431.51 18.0498C5431.51 27.3537 5410.83 50.746 5405.08 56.4992C5390.57 71.0143 5384.84 92.1811 5376.24 109.367C5345.98 169.886 5325.74 217.642 5306.55 284.792C5261.12 443.814 5270.47 616.359 5361.82 753.394C5377.1 776.31 5398.23 797.013 5417.1 815.874C5428.68 827.461 5469.4 841.911 5472.37 856.727C5475.95 874.645 5442.21 896.229 5431.51 909.595C5412.84 932.937 5369.35 981.504 5373.84 1012.93C5374.94 1020.61 5422.59 1022.54 5431.51 1022.54C5446.21 1022.54 5458.34 1049.17 5472.37 1056.18Z" fill="#fb923c" fill-rule="nonzero" opacity="1" stroke="none"/>
<path d="M3951.21 741.379C3930.14 762.457 3915.19 753.384 3888.73 763.006C3864.4 771.853 3828.65 791.849 3807.03 808.665C3739.87 860.901 3711.03 909.427 3667.65 967.269C3642 1001.47 3637.82 1051.95 3624.39 1092.23C3580.98 1222.47 3562.57 1368.52 3617.18 1495.95C3633.15 1533.2 3685.77 1627.26 3730.13 1635.33C3772.58 1643.05 3816.88 1649.17 3859.9 1654.55C3921.89 1662.3 3995.97 1691.58 4054.55 1649.74C4116.16 1605.74 4200.07 1532.1 4222.76 1452.69C4231.53 1422 4240.42 1378.4 4256.41 1351.76C4265.29 1336.96 4264.29 1310.26 4268.42 1291.69C4286.52 1210.26 4293.85 1121.96 4282.84 1039.36C4270.46 946.488 4229.85 863.813 4162.69 796.65C4152.43 786.395 4138.07 784.045 4129.04 775.022C4132.65 771.417 4132.65 771.417 4136.25 767.812C4109.83 741.389 4033.75 743.782 4001.68 743.782C3984.21 743.782 3966.18 751.354 3951.21 741.379Z" fill="#cc6aaf" fill-rule="nonzero" opacity="1" stroke="none"/>
<path d="M5176.79 2192.84C5174.38 2195.25 5174.38 2195.25 5171.98 2197.65C5182.21 2207.88 5234.51 2223.25 5253.69 2224.08C5286.51 2225.51 5319.36 2226.49 5352.21 2226.49C5406.46 2226.49 5516.09 2146.49 5551.67 2113.54C5572.04 2094.68 5592.12 2075.5 5611.75 2055.87C5635.38 2032.24 5677.23 1991.6 5688.64 1957.34C5704.17 1910.75 5744.44 1864.11 5758.33 1813.15C5772.84 1759.97 5797.72 1671.23 5787.17 1618.5C5768.87 1526.98 5728.25 1453.14 5671.82 1380.6C5643.68 1344.42 5595.05 1332.66 5566.09 1303.7C5568.49 1300.1 5568.49 1300.1 5570.89 1296.49C5550.81 1276.41 5478.91 1289.61 5455.55 1301.3C5438.96 1309.59 5415.06 1307.12 5397.87 1315.72C5322.3 1353.5 5250.64 1388.98 5193.61 1462.3C5090.46 1594.92 5060.77 1745.89 5054.23 1909.28C5052.75 1946.32 5067.84 2058.1 5090.28 2089.51C5116.15 2125.73 5144.66 2158.83 5176.79 2192.84Z" fill="#fb923c" fill-rule="nonzero" opacity="1" stroke="none"/>
<path d="M3751.76 92.5455C3746.22 98.0847 3734.49 116.875 3727.73 121.382C3689.26 147.025 3663.67 34.0462 3672.46 25.2591C3666.05 18.0498 3662.81 4.79583 3653.23 3.63129C3600.75-2.75155 3547.41 0.615192 3494.63 3.63129C3485.51 4.15234 3480.83 15.7539 3473 20.4529C3406.93 60.0948 3349.18 100.44 3304.78 167.041C3182.44 350.558 3163.79 658.38 3321.61 827.89C3407.81 920.482 3488.33 968.513 3600.36 1010.52C3612.1 1014.93 3631.72 1024.58 3646.02 1022.54C3654.48 1021.33 3665.7 980.787 3670.05 972.075C3672.52 967.132 3691.04 942.543 3689.28 938.432C3683.98 926.074 3675.86 924.796 3679.66 909.595C3685.65 885.671 3705.28 859.16 3718.11 839.905C3757.47 780.878 3802.77 716.439 3838.27 657.271C3855.44 628.648 3866.22 567.61 3867.11 534.713C3868.58 480.257 3868.73 425.774 3869.51 371.303C3869.85 347.599 3857.99 330.561 3855.09 311.226C3852.26 292.369 3857.75 258.88 3847.88 239.134C3821.81 186.987 3795.72 140.5 3751.76 92.5455Z" fill="#fbd340" fill-rule="nonzero" opacity="1" stroke="none"/>
<path d="M2418.05 1510.37C2438.13 1490.28 2475.94 1533.25 2499.75 1539.2C2527.48 1546.14 2643.45 1567.56 2648.74 1572.85C2662.92 1558.67 2645.57 1527.95 2663.16 1510.37C2684.63 1531.83 2694.31 1560.74 2713.62 1580.06C2727.27 1566.41 2716.83 1541.61 2718.43 1522.38C2720.38 1498.99 2737.82 1449.43 2764.09 1440.68C2764.09 1419.9 2774.78 1407.27 2783.31 1390.21C2802.3 1352.24 2813.49 1278.29 2814.55 1236.41C2816.05 1177.15 2816.96 1117.87 2816.96 1058.59C2816.96 1024.52 2798.37 990.294 2792.93 957.656C2782.72 896.425 2710.22 831.297 2672.77 789.44C2661.17 776.469 2630.57 724.028 2610.29 734.169C2596.73 720.603 2572.51 697.723 2567.04 681.301C2551.3 681.301 2521.27 668.763 2504.56 662.077C2473.19 649.53 2402.38 659.984 2374.79 666.883C2278.55 690.944 2194.69 773.491 2158.51 863.936C2148.06 890.066 2151.25 925.886 2146.5 952.85C2142.71 974.282 2135.11 1004.91 2136.88 1029.75C2141.73 1097.66 2165.67 1164.16 2187.35 1229.2C2205.25 1282.9 2263.06 1344.14 2300.29 1383C2329.69 1413.68 2359.17 1444.28 2389.21 1474.32C2401.53 1486.64 2408.31 1500.63 2418.05 1510.37Z" fill="#53d1c3" fill-rule="nonzero" opacity="1" stroke="none"/>
<path d="M2081.61 3.63129C2034.71 238.144 2104.44 442.883 2300.29 582.775C2340.66 611.611 2407.75 666.883 2458.9 666.883C2472.73 666.883 2481.06 663.092 2494.94 664.48C2516.43 666.629 2539.76 682.095 2559.83 686.108C2580.96 690.335 2611.67 687.797 2629.52 688.511C2636.07 688.773 2640.4 698.687 2646.34 695.72C2659.55 689.114 2664.32 672.095 2675.18 662.077C2713.77 626.453 2742.66 596.896 2771.3 553.938C2849.64 436.425 2905.87 299.906 2905.87 157.429C2905.87 102.701 2880.46 58.1726 2867.42 6.03438C2474.52 4.83284 2474.52 4.83284 2081.61 3.63129Z" fill="#03aef0" fill-rule="nonzero" opacity="1" stroke="none"/>
<path d="M3230.29 645.255C3210.8 664.747 3171.48 664.996 3146.18 676.495C3113.97 691.137 3066.05 730.195 3040.44 755.797C3024.71 771.529 2989.55 837.646 2975.56 842.308C2975.56 885.007 2953.55 926.561 2941.92 967.269C2939.41 976.032 2942.34 1009.95 2941.92 1012.93C2940.11 1025.58 2922.1 1006.74 2915.48 1024.94C2909.48 1041.45 2921.42 1063.64 2922.69 1080.21C2923.98 1097 2922.92 1113.98 2925.1 1130.68C2925.91 1136.88 2934.65 1139.35 2937.11 1145.1C2943.44 1159.87 2942.55 1180.21 2949.13 1195.56C2952.78 1204.09 2964.9 1200.83 2965.95 1212.38C2972.62 1285.74 3018.02 1341.05 3066.88 1397.42C3142.19 1484.32 3210.62 1538.95 3321.61 1556.02C3370.02 1563.47 3470.87 1577.37 3511.45 1536.8C3510.25 1534.4 3510.25 1534.4 3509.05 1531.99C3540.12 1500.92 3576.38 1491.29 3607.57 1457.5C3609.89 1454.99 3595.78 1394.5 3595.56 1392.61C3589.88 1344.37 3589.35 1302.26 3590.75 1253.24C3592.16 1203.92 3606.46 1150.83 3621.99 1104.24C3628.96 1083.35 3650.75 1039.11 3643.62 1017.73C3538.95 1017.73 3406.81 906.529 3336.02 839.905C3324.14 850.095 3315.08 868.514 3299.98 873.548C3299.98 880.62 3301.11 877.222 3295.17 883.161C3291.57 879.556 3291.57 879.556 3287.96 875.951C3294.9 865.54 3306.1 858.155 3311.99 847.114C3323.03 826.422 3296.86 833.408 3314.4 815.874C3286.29 780.745 3271.33 744.154 3251.92 705.332C3242.62 686.734 3246.28 661.243 3230.29 645.255Z" fill="#f44c63" fill-rule="nonzero" opacity="1" stroke="none"/>
<path d="M1682.7 979.284C1695.38 991.962 1683.3 1028.5 1682.7 1044.17C1680.36 1104.94 1676.72 1182.44 1697.12 1243.62C1744.72 1386.42 1830.53 1516.94 1951.85 1611.3C1985.72 1637.64 2023.06 1672.95 2064.79 1683.39C2078.01 1686.69 2091.48 1697.91 2103.24 1702.61C2145.83 1719.65 2210.9 1720.53 2252.23 1714.63C2264.94 1712.81 2279.2 1717.97 2290.68 1712.23C2327.35 1693.89 2427.03 1549.86 2418.05 1495.95C2415.99 1483.61 2399.82 1477.28 2391.61 1469.51C2364.86 1444.21 2338.35 1418.65 2312.31 1392.61C2265.88 1346.18 2230.34 1294.45 2196.96 1238.82C2172.02 1197.24 2162.92 1135.92 2153.71 1089.83C2149.67 1069.63 2156.62 1034.72 2134.48 1027.35C2134.48 1011.25 2141.06 990.669 2129.67 979.284C2127.27 980.486 2127.27 980.486 2124.87 981.687C2109.74 966.562 2098.77 938.684 2079.21 924.013C2038.41 893.411 2003.93 869.027 1968.67 827.89C1953.99 810.767 1929.32 796.884 1918.2 777.425C1913.18 768.635 1920.82 762.068 1906.19 755.797C1874.79 742.339 1761.44 839.052 1749.99 854.324C1733.51 876.293 1712.78 903.475 1704.33 928.819C1698.23 947.11 1697.98 964.005 1682.7 979.284Z" fill="#fb923c" fill-rule="nonzero" opacity="1" stroke="none"/>
<path d="M1651.46 3.63129C1638.42 42.7654 1618.41 73.3963 1613.01 116.576C1594.46 265.008 1635.99 400.437 1699.52 527.504C1691.75 535.278 1689.55 532.668 1682.7 539.519C1694.07 550.893 1707.38 538.272 1718.75 551.535C1781.53 624.777 1836.09 700.323 1923.01 743.782C1927.6 746.075 1927.91 753.777 1932.62 755.797C1950.35 763.396 1971.42 756.629 1990.3 760.603C1997.82 762.187 2011.11 774.749 2019.13 777.425C2073.22 795.455 2118.96 818.389 2160.91 866.339C2176.49 850.765 2176.59 828.995 2187.35 811.068C2208.99 775.002 2241.4 740.589 2276.26 717.348C2300.49 701.199 2346.64 676.806 2374.79 671.689C2393.67 668.257 2414.82 675.741 2425.25 654.867C2389.31 618.927 2312.93 589.84 2269.05 553.938C2101.49 416.838 2041.27 219.75 2084.02 6.03438C1867.74 4.83284 1867.74 4.83284 1651.46 3.63129Z" fill="#fbd340" fill-rule="nonzero" opacity="1" stroke="none"/>
<path d="M4102.61 2125.56C3721.89 2145.14 3737.16 2735.94 4124.24 2735.94C4330.61 2735.94 4460.81 2483.97 4388.58 2303.38C4338.52 2178.24 4224.72 2119.28 4102.61 2125.56Z" fill="#702c31" fill-rule="nonzero" opacity="1" stroke="none"/>
<path d="M4415.01 3538.57C4455.67 3497.91 4467.85 3554.19 4496.71 3557.79C4515.59 3560.15 4514.86 3548.54 4530.36 3543.38C4530.36 3528.07 4524.34 3508.54 4535.16 3497.72C4562.21 3524.77 4557.39 3571.02 4573.61 3603.45C4580.09 3616.41 4595.94 3648.41 4612.06 3632.29C4607.3 3622.76 4599.93 3509.85 4609.66 3500.12C4664.05 3554.52 4645.04 3508 4669.74 3483.3C4680.19 3493.75 4676.09 3521.53 4679.35 3533.76C4693.28 3586.01 4752.67 3724.46 4825.94 3714C4845.52 3711.2 4831.29 3653.71 4828.34 3641.9C4816.57 3594.82 4805.73 3541.41 4785.08 3500.12C4773.85 3477.64 4757.86 3457.3 4749.04 3435.24C4736.07 3402.81 4806.96 3428.03 4816.32 3428.03C4829.49 3428.03 4845.42 3405.88 4849.97 3396.79C4875.22 3346.28 4795.56 3240.89 4765.86 3206.94C4765.07 3207.74 4746.95 3229.1 4744.23 3214.15C4743.56 3210.48 4749.75 3184.33 4746.63 3178.11C4734.73 3154.31 4711.92 3149.78 4705.78 3125.24C4697.16 3090.74 4683.46 3062.06 4657.72 3036.33C4647.22 3025.82 4640.32 2982.55 4619.27 2993.07C4599.39 2973.19 4548.09 2934.82 4535.16 2908.96C4515.69 2913.83 4505.29 2889.74 4484.7 2889.74C4457.68 2889.74 4363.58 2965.2 4347.72 2981.05C4318.57 3010.21 4313.18 3080.48 4311.68 3120.43C4305.64 3280.35 4331.5 3347.53 4393.38 3471.28C4399.64 3483.8 4414.62 3538.18 4415.01 3538.57Z" fill="#0f6691" fill-rule="nonzero" opacity="1" stroke="none"/>
<path d="M3194.24 2113.54C3149.47 2113.71 3114.76 2135.98 3078.89 2161.6C3031.56 2195.41 2991.24 2238.38 2965.95 2288.97C2869.8 2481.25 3072.27 2704.7 3263.93 2704.7C3429.04 2704.7 3521.06 2555.47 3521.06 2406.72C3521.06 2382.61 3515.28 2347.1 3504.24 2325.01C3431.08 2178.69 3358.59 2112.92 3194.24 2113.54Z" fill="#702c31" fill-rule="nonzero" opacity="1" stroke="none"/>
<path d="M2711.22 2858.5C2719.48 2866.76 2723.08 2863.15 2730.45 2870.51C2723.08 2877.88 2715.83 2885.03 2706.42 2889.74C2704.01 2887.33 2704.01 2887.33 2701.61 2884.93C2685.45 2895.7 2674.05 2931.72 2655.95 2949.81C2616.72 2989.05 2562.85 3058.08 2547.81 3113.22C2542.01 3134.51 2550.56 3184.28 2545.41 3199.73C2543.26 3206.18 2534.76 3208.5 2530.99 3214.15C2523.48 3225.42 2519.3 3244.57 2514.17 3257.41C2494.88 3305.64 2463.7 3328.55 2463.7 3387.18C2463.7 3419.02 2504.09 3407.98 2514.17 3425.63C2522.7 3440.55 2478.8 3467.91 2494.94 3490.51C2515.29 3518.99 2546.64 3493.87 2571.84 3490.51C2623.8 3483.58 2724.33 3410.34 2740.06 3363.14C2744.99 3348.34 2744.02 3335.99 2752.07 3319.89C2727.16 3294.97 2739.18 3307.4 2752.07 3279.04C2756.88 3268.46 2754.62 3260.81 2761.69 3250.2C2769.51 3258.02 2775.83 3274.88 2788.12 3276.63C2831.53 3282.84 2873.41 3211.48 2896.26 3182.91C2941.81 3125.98 2986.57 2988.69 2934.71 2928.19C2918.02 2908.72 2836.86 2837.05 2809.75 2829.66C2791.66 2824.73 2790.6 2846.48 2776.1 2846.48C2759.46 2846.48 2724.4 2845.32 2711.22 2858.5Z" fill="#0f6691" fill-rule="nonzero" opacity="1" stroke="none"/>
<path d="M4030.52 3.63129C4022.25 102.872 4108.53 209.008 4174.7 275.18C4197.73 298.213 4226.32 298.459 4251.6 313.629C4255.49 315.966 4271.62 325.533 4275.63 325.645C4306.68 326.507 4340.39 327.111 4371.75 320.839C4382.79 318.631 4398.12 303.982 4407.8 308.823C4419.47 297.154 4445.04 298.016 4458.26 284.792C4450.49 277.018 4448.29 279.629 4441.44 272.777C4457.7 256.522 4472.6 236.848 4487.1 217.506C4492.9 223.3 4500.67 231.217 4496.71 239.134C4504.98 247.395 4508.58 243.787 4515.94 251.149C4589.54 202.082 4654.49 139.85 4693.77 61.3053C4701.53 45.7756 4725.01 24.8163 4725.01 6.03438C4377.76 4.83284 4377.76 4.83284 4030.52 3.63129Z" fill="#f44c63" fill-rule="nonzero" opacity="1" stroke="none"/>
<path d="M3653.23 3.63129C3653.23 17.9951 3659.25 14.4598 3667.65 22.856C3658.57 31.9343 3683.57 188.263 3751.76 97.3516C3797.51 143.101 3817.13 192.05 3843.07 243.94C3850.21 258.215 3848.44 302.02 3850.28 311.226C3851.32 316.389 3859.9 317.142 3859.9 323.242C3859.9 447.25 3873.32 559.475 3826.25 669.286C3801.55 726.925 3749.72 774.984 3718.11 830.293C3711.81 841.317 3708.11 857.831 3701.29 868.742C3687.49 890.827 3660.64 912.196 3686.87 938.432C3727.24 898.064 3758.36 849.458 3804.63 813.471C3863.53 767.656 3952.29 778.349 3982.45 702.929C3998.02 664.016 4031.94 602.944 4032.92 561.147C4034.48 494.68 4034.48 428.158 4032.92 361.691C4032.5 343.694 4020.62 311.732 4013.69 294.405C4004.72 271.967 4005.2 244.205 3992.07 222.312C3959.21 167.546 3922.43 114.226 3874.31 66.1115C3859.96 51.7611 3790.18 4.7391 3770.98 3.63129C3731.8 1.37061 3692.48 3.63129 3653.23 3.63129Z" fill="#f7b43a" fill-rule="nonzero" opacity="1" stroke="none"/>
<path d="M4018.5 609.209C4000.89 626.823 3991.34 671.11 3982.45 693.317C3975.78 709.998 3959.95 726.311 3951.21 743.782C3971.46 764.026 4032.95 748.96 4059.35 750.991C4108.29 754.755 4162.04 769.894 4205.94 791.843C4267.79 822.769 4338.1 881.933 4364.54 948.044C4371.07 964.361 4382.03 1003.98 4393.38 1015.33C4400.39 1008.32 4415.55 883.956 4424.62 856.727C4437.4 818.39 4451.71 767.742 4475.09 736.572C4487.87 719.523 4517 685.624 4520.74 666.883C4524.6 647.597 4480.26 617.365 4465.47 606.806C4410.71 567.689 4336.28 517.176 4270.82 513.085C4221.17 509.982 4147.03 524.883 4102.61 551.535C4088 560.301 4020.91 610.412 4018.5 609.209Z" fill="#03aef0" fill-rule="nonzero" opacity="1" stroke="none"/>
<path d="M5751.12 1387.81C5737.93 1401 5714.11 1408 5700.66 1421.45C5695.45 1426.67 5735.57 1486.52 5739.11 1495.95C5761.59 1555.91 5782.36 1608.33 5782.36 1680.98C5782.36 1782.38 5717.22 1873.89 5683.84 1957.34C5670.11 1991.65 5630.1 2026.74 5606.94 2053.46C5560.69 2106.82 5437.13 2215.61 5354.62 2219.28C5317.8 2220.91 5279.5 2229.4 5244.07 2219.28C5226.92 2214.38 5200.73 2192.93 5186.4 2207.26C5205.22 2226.08 5243.88 2243.04 5258.49 2262.53C5260.16 2264.76 5257.34 2270.79 5256.09 2272.14C5227.07 2303.58 5191.41 2329.46 5159.97 2358.66C5165.55 2369.81 5143.88 2380.62 5147.95 2409.12C5149.86 2422.47 5180.99 2415.61 5188.8 2418.73C5199.74 2423.11 5212.74 2463.47 5234.46 2454.78C5251.73 2447.87 5246.02 2423.16 5251.28 2409.12C5267.04 2367.11 5282.76 2299.18 5320.97 2267.34C5322.2 2266.31 5324.18 2267.37 5325.78 2267.34C5359.42 2266.57 5393.13 2267.22 5426.71 2264.93C5486.16 2260.88 5567.67 2218.22 5616.55 2185.63C5817.95 2051.36 5937.33 1775.8 5859.26 1541.61C5840.19 1484.38 5792.44 1429.13 5751.12 1387.81Z" fill="#f43f3f" fill-rule="nonzero" opacity="1" stroke="none"/>
<path d="M4121.83 772.619C4168.87 819.656 4220.97 857.043 4246.79 921.61C4328.24 1125.24 4274.12 1442.19 4114.62 1601.68C4080.14 1636.17 4025.78 1661.25 3975.24 1666.57C3958.35 1668.35 3939.98 1666.18 3924.78 1673.78C3938.97 1687.97 3987.23 1680.62 4008.89 1693C4024.22 1701.76 4100.03 1741.09 4114.62 1738.66C4121.91 1737.44 4123.82 1727.06 4129.04 1721.84C4162.48 1688.4 4208.29 1654.6 4244.39 1618.5C4325.93 1536.96 4374.02 1429.41 4393.38 1322.93C4395.76 1309.84 4409.49 1289.72 4410.2 1277.27C4413.79 1214.47 4410.48 1188.97 4405.4 1133.08C4401.31 1088.12 4411.77 1014.29 4383.77 979.284C4330.79 913.061 4292.23 808.609 4196.33 784.634C4175.16 779.341 4140.95 753.498 4121.83 772.619Z" fill="#ab3d99" fill-rule="nonzero" opacity="1" stroke="none"/>
<path d="M2372.39 1810.75C2360.13 1823.01 2317.56 1840.65 2317.12 1841.99C2317.07 1842.12 2350.08 1913.58 2353.16 1921.29C2382.64 1995 2397.72 2071.97 2413.24 2149.59C2418.23 2174.52 2420.56 2226.6 2437.27 2243.31C2432.6 2252.64 2475.5 2373.8 2487.73 2377.88C2487.73 2439.74 2521.07 2491.37 2530.99 2550.9C2539.3 2600.73 2560.82 2651.41 2583.86 2697.49C2598.8 2727.37 2605.76 2767.46 2629.52 2791.21C2640.33 2780.4 2640.33 2780.4 2651.14 2769.58C2657.96 2776.4 2656.83 2780.96 2660.76 2788.81C2653.69 2795.87 2638.48 2802.32 2636.73 2812.84C2634.25 2827.68 2683.91 2886.83 2692 2896.95C2696.8 2893.34 2696.8 2893.34 2701.61 2889.74C2704.01 2892.14 2704.01 2892.14 2706.42 2894.54C2720.02 2887.74 2732.8 2872.96 2744.86 2863.3C2735.01 2853.45 2731.29 2863.89 2720.83 2860.9C2708.92 2857.5 2711.81 2832.65 2704.01 2824.85C2701.61 2826.06 2701.61 2826.06 2699.21 2827.26C2686.35 2814.4 2681.05 2784.81 2675.18 2767.18C2654.3 2704.56 2640.61 2640.95 2624.71 2577.34C2619.09 2554.87 2602.24 2525.59 2617.5 2505.24C2619.9 2506.44 2619.9 2506.44 2622.31 2507.65C2637.41 2492.54 2644.63 2467.49 2627.11 2449.97C2623.69 2453.4 2621.13 2471.86 2612.7 2466.79C2595.77 2456.64 2594.86 2414.16 2591.07 2397.1C2578.01 2338.35 2568.83 2270.51 2547.81 2214.47C2522.59 2147.21 2506.31 2082.76 2482.93 2012.61C2459.11 1941.15 2414.38 1873.75 2372.39 1810.75Z" fill="#675d4e" fill-rule="nonzero" opacity="1" stroke="none"/>
<path d="M2571.84 681.301C2567.04 686.108 2567.04 686.108 2562.23 690.914C2577.92 706.601 2595.23 720.146 2610.29 738.975C2612.7 737.774 2612.7 737.774 2615.1 736.572C2704.23 825.703 2806.46 924.599 2809.75 1056.18C2811.23 1115.45 2812.15 1174.73 2812.15 1234.01C2812.15 1271.06 2801.27 1353.54 2778.51 1385.41C2772.43 1393.92 2761.78 1412.64 2759.28 1423.85C2752.58 1454.01 2801.85 1539.37 2819.36 1565.64C2825.68 1559.32 2830.65 1547.5 2836.18 1539.2C2839.79 1542.81 2839.79 1542.81 2843.39 1546.41C2852.84 1536.96 2853.5 1490.39 2867.42 1469.51C2869.83 1471.92 2869.83 1471.92 2872.23 1474.32C2880.57 1465.98 2878.38 1453.45 2881.84 1443.08C2905.34 1372.57 2915.21 1296.24 2925.1 1217.19C2928.3 1191.57 2918.23 1159.17 2937.11 1140.29C2919.84 1105.76 2938.22 1051.19 2920.29 1015.33C2909.04 992.839 2901.7 964.376 2893.86 940.835C2874.65 883.206 2783.08 782.581 2742.46 750.991C2710.98 726.509 2672.51 712.321 2643.94 688.511C2626.56 674.028 2592.41 691.586 2571.84 681.301Z" fill="#08a8bb" fill-rule="nonzero" opacity="1" stroke="none"/>
<path d="M5087.87 2209.66C5059.03 2180.82 5043.59 2243.11 5039.81 2260.13C5027.92 2313.65 5024.24 2377.78 5001.36 2423.54C4991.86 2442.54 5003.17 2454.46 4986.94 2478.81C4991.75 2483.62 4991.75 2483.62 4996.56 2488.42C4992.6 2496.34 4993.51 2504.12 4989.35 2512.45C5002.08 2525.18 4988.05 2555.36 4982.14 2570.13C4961.35 2622.1 4941.1 2666.62 4917.25 2714.31C4918.9 2715.95 4933.57 2723.81 4934.08 2726.33C4938.09 2746.39 4922.97 2797.51 4907.64 2812.84C4920.86 2826.05 4924.45 2836.86 4936.48 2848.88C4972.89 2812.48 5001.01 2774.62 5044.62 2745.55C5059.18 2760.11 5030.57 2769.96 5047.02 2786.4C5059.65 2773.77 5057.89 2751.51 5071.05 2738.34C5080.15 2742.89 5087.85 2743.17 5095.08 2735.94C5091.92 2732.77 5081.66 2730.82 5080.66 2726.33C5076.36 2706.97 5090.18 2690.47 5097.49 2675.86C5115.29 2640.25 5125.42 2599.27 5138.34 2560.51C5143.25 2545.77 5157.56 2530.26 5157.56 2512.45C5157.56 2481.83 5156.72 2443.6 5181.59 2418.73C5175.71 2412.85 5154.25 2416.41 5152.76 2406.72C5149.02 2382.41 5172.5 2371.44 5162.37 2356.25C5151.39 2361.74 5140.36 2372.59 5131.13 2380.28C5102.11 2360.94 5118.4 2283.32 5116.71 2252.92C5115.6 2232.91 5115.6 2212.84 5114.31 2192.84C5113.93 2186.93 5118.37 2125.93 5099.89 2135.17C5076.64 2146.79 5106.69 2190.85 5087.87 2209.66Z" fill="#675d4e" fill-rule="nonzero" opacity="1" stroke="none"/>
<path d="M3107.73 1246.03C3110.13 1242.42 3110.13 1242.42 3112.54 1238.82C3131.1 1257.38 3164.77 1345.39 3199.05 1332.54C3223.91 1323.21 3189.62 1215.61 3184.63 1193.16C3160.5 1084.55 3161.21 989.69 3158.2 873.548C3157.32 839.752 3123.04 801.456 3086.1 801.456C3043.5 801.456 3023.3 896.467 3016.41 924.013C2992.66 1019.03 2998.25 1114.11 3035.64 1207.58C3043.65 1227.61 3068.07 1287.88 3090.91 1291.69C3118.88 1296.35 3123.77 1262.07 3107.73 1246.03Z" fill="#fca0af" fill-rule="nonzero" opacity="1" stroke="none"/>
<path d="M3290.37 2313C3322.97 2280.39 3381.35 2324.89 3403.31 2349.04C3446.95 2397.04 3404.15 2494 3360.05 2529.27C3372.47 2541.69 3388.45 2520.83 3398.5 2512.45C3435.15 2481.91 3439.36 2441.54 3439.36 2394.7C3439.36 2272.33 3253.45 2166.46 3150.99 2243.31C3086.77 2291.47 3052.83 2358.11 3057.27 2437.96C3059.11 2471.24 3082.64 2534.53 3117.34 2546.1C3151.41 2557.45 3213.02 2525.66 3235.09 2500.44C3243.39 2490.95 3227.37 2416.94 3235.09 2389.9C3241.52 2367.42 3339.29 2361.92 3290.37 2313Z" fill="#fbf5e1" fill-rule="nonzero" opacity="1" stroke="none"/>
<path d="M4054.55 2406.72C4090.34 2442.51 4146.73 2377.66 4085.79 2337.03C4101.67 2321.14 4150.15 2325.01 4165.09 2325.01C4198.28 2325.01 4251.02 2370.19 4256.41 2397.1C4261.26 2421.37 4260.06 2448.82 4278.03 2466.79C4308.82 2436.01 4268.7 2342.68 4241.99 2313C4177.3 2241.12 4078.95 2205.12 3987.26 2260.13C3913.7 2304.27 3884.42 2418.77 3915.17 2495.63C3934.57 2544.14 4010.15 2610.22 4068.96 2574.93C4073.72 2572.08 4085.79 2564.16 4085.79 2558.11C4085.79 2545.79 4060.05 2526.2 4054.55 2512.45C4045.79 2490.56 4044.93 2457.33 4044.93 2435.55C4044.93 2413.33 4043.51 2417.75 4054.55 2406.72Z" fill="#fbf5e1" fill-rule="nonzero" opacity="1" stroke="none"/>
<path d="M4746.63 3182.91C4722.24 3207.31 4755.16 3243.58 4725.01 3269.42C4716.55 3276.67 4662.19 3262.85 4660.12 3274.23C4654.02 3307.83 4684.23 3372.8 4626.48 3343.92C4622.88 3347.52 4622.88 3347.52 4619.27 3351.13C4643.97 3379.94 4656.34 3422.52 4664.93 3456.87C4668.15 3469.76 4658.59 3526.84 4636.09 3519.35C4623.41 3515.12 4612.71 3496.17 4604.85 3485.7C4580.45 3510.11 4619.55 3612.79 4600.05 3632.29C4574.39 3615.18 4558.23 3522.71 4535.16 3488.11C4514.43 3508.84 4541 3538.05 4511.13 3552.99C4477.64 3569.73 4468.84 3496.75 4431.83 3533.76C4454.2 3556.13 4558.19 3691.67 4600.05 3670.74C4607.97 3666.78 4604.85 3653.93 4612.06 3646.71C4631.23 3656.29 4646.52 3681.99 4655.32 3699.58C4668.95 3726.84 4722.24 3778.19 4753.84 3786.09C4810.22 3800.18 4836.72 3770.82 4830.74 3714C4829.56 3702.73 4808.4 3710 4797.1 3709.19C4778.82 3707.88 4752.31 3674.85 4744.23 3663.53C4725.69 3637.57 4713.93 3606.9 4705.78 3577.02C4702.14 3563.65 4687.09 3547.44 4684.15 3533.76C4680.09 3514.78 4685.79 3500.98 4676.95 3483.3C4679.35 3480.9 4679.35 3480.9 4681.75 3478.49C4768.33 3521.78 4718.41 3362.08 4703.38 3329.5C4699.45 3320.98 4681.43 3307.06 4684.15 3293.46C4687.42 3277.15 4715.24 3296.76 4727.41 3288.65C4765.4 3263.32 4740.35 3237.26 4768.26 3209.35C4760.42 3201.51 4753.85 3191.33 4746.63 3182.91Z" fill="#174564" fill-rule="nonzero" opacity="1" stroke="none"/>
<path d="M2956.34 3029.12C2944.66 3040.79 2947.72 3061.02 2944.32 3077.18C2934.09 3125.78 2839.75 3279.2 2788.12 3271.83C2773.29 3269.71 2772.33 3251.23 2764.09 3242.99C2747.73 3253.9 2721.11 3303.34 2737.66 3319.89C2740.06 3318.69 2740.06 3318.69 2742.46 3317.49C2755.61 3330.63 2734.94 3337.03 2728.04 3343.92C2748.54 3364.42 2708.38 3397.22 2694.4 3411.21C2663.08 3442.53 2565.23 3493.04 2581.45 3545.78C2588.72 3569.38 2641.74 3552.88 2655.95 3545.78C2710.72 3518.4 2756.73 3488.25 2802.54 3442.45C2813.46 3431.52 2829.96 3424.21 2840.99 3435.24C2851.63 3424.6 2837.45 3418.28 2843.39 3406.4C2850.36 3392.47 2860.81 3378.77 2867.42 3365.55C2906.37 3287.65 2944.35 3225.99 2958.74 3139.66C2962.96 3114.36 2976.71 3049.49 2956.34 3029.12Z" fill="#174564" fill-rule="nonzero" opacity="1" stroke="none"/>
<path d="M4919.66 2711.91C4905.33 2726.23 4901.72 2742.97 4893.22 2759.97C4880.52 2785.39 4857.72 2809.52 4842.76 2834.47C4801.24 2903.66 4771.51 2998.91 4700.98 3045.94C4706.87 3057.72 4738.89 3106.99 4756.25 3101.21C4778.25 3093.87 4778.69 3053.78 4804.31 3043.53C4875.32 3015.13 4823.22 3123.46 4811.52 3146.87C4835.04 3170.38 4882.15 3083.62 4893.22 3065.16C4937.57 2991.25 4978.09 2909.84 5015.78 2834.47C5023.08 2819.86 5059.35 2756.72 5056.63 2743.15C5053.93 2729.63 5021.1 2758.83 5015.78 2762.37C5008.24 2767.4 4910.09 2868.92 4905.24 2868.11C4888.32 2865.29 4892.31 2849.42 4900.43 2839.27C4919.19 2815.83 4943.49 2753.89 4938.88 2723.92C4937.58 2715.44 4924.6 2716.85 4919.66 2711.91Z" fill="#f0cdad" fill-rule="nonzero" opacity="1" stroke="none"/>
<path d="M6001.05 3.63129C5995.87 19.1629 6024.29 60.514 6034.69 70.9177C6026.88 86.5435 6021.68 86.3313 6010.66 97.3516C6005.85 92.5455 6005.85 92.5455 6001.05 87.7393C5992.05 96.7397 5997.06 93.8739 5986.63 97.3516C5986.63 118.828 5945.81 167.06 5921.74 155.026C5910.97 165.802 5917.86 189.947 5904.92 193.475C5900.31 194.733 5880.68 188.276 5878.49 200.684C5861 299.808 5909.26 254.502 5948.18 318.435C5951.51 323.909 5947.54 331.284 5948.18 337.66C5948.68 342.637 5959.34 346.803 5955.39 352.079C5950.28 358.891 5942.37 363.687 5938.57 371.303C5944.71 377.45 5956.59 398.937 5948.18 407.35C5973.37 432.544 5984.79 472.8 6010.66 498.667C6017.77 491.554 6070.62 355.849 6070.74 347.273C6072.31 232.736 6070.74 118.178 6070.74 3.63129C6035.89 3.63129 6035.89 3.63129 6001.05 3.63129Z" fill="#cc7d2a" fill-rule="nonzero" opacity="1" stroke="none"/>
<path d="M4119.43 2320.21C4101.17 2323.25 4093.95 2324.05 4080.98 2337.03C4093.14 2355.26 4119.1 2362.58 4109.82 2392.3C4099.07 2426.71 4052.38 2391.83 4044.93 2406.72C4033.42 2429.75 4044.04 2549 4085.79 2562.92C4240.67 2614.55 4355.56 2385.3 4119.43 2320.21Z" fill="#212215" fill-rule="nonzero" opacity="1" stroke="none"/>
<path d="M3299.98 2300.98C3294.07 2303.93 3290.3 2305.85 3285.56 2310.59C3334.81 2372.16 3239.95 2363.35 3235.09 2375.48C3205.96 2448.31 3231.63 2548.5 3321.61 2548.5C3340.39 2548.5 3356.01 2535.09 3369.67 2524.47C3446.61 2464.62 3440.69 2328.95 3299.98 2300.98Z" fill="#212215" fill-rule="nonzero" opacity="1" stroke="none"/>
<path d="M3816.64 892.773C3753.65 898.483 3661.45 1072.79 3648.42 1137.89C3643.22 1163.93 3616.09 1272.13 3672.46 1258.04C3702.7 1250.48 3700.83 1206.75 3713.31 1185.95C3745.05 1133.05 3762.11 1072.09 3804.63 1020.14C3818.52 1003.15 3851.82 970.946 3855.09 948.044C3859.74 915.527 3846.11 890.102 3816.64 892.773Z" fill="#f8add2" fill-rule="nonzero" opacity="1" stroke="none"/>
<path d="M3408.12 251.149C3320.77 271.621 3334.87 318.119 3321.61 397.737C3320.42 404.877 3309.78 419.851 3309.59 426.574C3307.14 512.294 3320.37 625.678 3391.29 683.704C3406.68 696.293 3401.75 657.827 3400.91 654.867C3384.54 597.584 3379.28 524.066 3379.28 462.621C3379.28 394.361 3438.44 342.027 3432.15 272.777C3430.99 260.025 3417.51 248.947 3408.12 251.149Z" fill="#fbf5e1" fill-rule="nonzero" opacity="1" stroke="none"/>
<path d="M1774.02 1116.26C1776.42 1113.86 1776.42 1113.86 1778.82 1111.45C1880.65 1213.28 1900.32 938.239 1781.23 955.253C1742.05 960.85 1741.29 1039.06 1735.57 1063.39C1727.74 1096.65 1716.83 1303.7 1795.65 1303.7C1809.66 1303.7 1810.39 1283.42 1805.26 1274.86C1779.33 1231.66 1797.28 1162.78 1774.02 1116.26Z" fill="#f0cdad" fill-rule="nonzero" opacity="1" stroke="none"/>
<path d="M3561.91 2560.51C3485.31 2637.12 3521.23 2829.75 3617.18 2877.72C3633.25 2861.66 3648.42 2759.09 3648.42 2738.34C3648.42 2711.1 3650.83 2683.88 3650.83 2656.64C3650.83 2643.12 3643.4 2597.65 3631.6 2591.75C3611.58 2581.74 3622.36 2653.89 3595.56 2649.43C3560.71 2643.62 3561.9 2601.4 3573.93 2577.34C3567.08 2570.48 3569.69 2568.29 3561.91 2560.51Z" fill="#fcc00d" fill-rule="nonzero" opacity="1" stroke="none"/>
<path d="M2240.22 926.416C2221.89 929.532 2213.78 949.321 2213.78 967.269C2213.78 996.907 2213.04 1026.55 2213.78 1056.18C2214.17 1071.68 2223.82 1088.7 2228.2 1101.84C2253.78 1178.57 2284.91 1240.73 2333.94 1306.1C2346.67 1323.07 2398.94 1398.05 2422.85 1387.81C2445.59 1378.06 2406.47 1345.65 2398.82 1334.94C2368.08 1291.9 2338.18 1239.82 2319.52 1193.16C2289.84 1118.97 2283.55 1043.08 2278.67 962.462C2277.66 945.82 2256.91 923.577 2240.22 926.416Z" fill="#c3f0f9" fill-rule="nonzero" opacity="1" stroke="none"/>
<path d="M1987.89 760.603C1983.22 765.274 1986.36 774.093 1983.09 779.828C1978.03 788.68 1970.47 796.685 1961.46 801.456C1954.24 805.278 1943.2 800.486 1937.43 806.262C1963.26 832.095 1994.33 868.546 2023.94 892.773C2050.74 914.705 2095.04 935.984 2115.26 969.672C2128.59 991.893 2118.56 1028.25 2136.88 1046.57C2150.88 1032.58 2142.32 984.072 2144.09 967.269C2144.54 963.011 2164.59 866.485 2163.32 863.936C2128.62 794.533 2043.65 788.482 1987.89 760.603Z" fill="#cc7d2a" fill-rule="nonzero" opacity="1" stroke="none"/>
<path d="M4328.5 505.876C4330.9 503.473 4330.9 503.473 4333.3 501.07C4360.95 514.893 4404.25 486.961 4417.41 465.024C4422.59 456.401 4405.97 439.739 4402.99 433.784C4384.98 397.757 4351.74 328.338 4302.06 332.854C4269.47 335.817 4248.28 427.673 4237.18 455.411C4231.11 470.592 4214.95 494.339 4232.37 508.279C4242.56 516.426 4352.02 552.915 4328.5 505.876Z" fill="#f44c63" fill-rule="nonzero" opacity="1" stroke="none"/>
<path d="M5525.23 34.8714C5473.24 52.6326 5399.26 206.797 5390.66 258.358C5388.54 271.093 5373.37 369.101 5407.48 354.482C5419.38 349.382 5437.42 301.272 5441.13 292.002C5458.18 249.366 5475.93 210.379 5496.4 169.444C5511.07 140.108 5553.16 109.589 5558.88 78.1269C5563.04 55.2329 5546.79 27.5063 5525.23 34.8714Z" fill="#f0cdad" fill-rule="nonzero" opacity="1" stroke="none"/>
<path d="M5385.86 1421.45C5306.99 1429.82 5247.94 1522.59 5208.03 1582.46C5201.53 1592.21 5148.97 1709.31 5191.21 1688.19C5223.26 1672.17 5249.05 1613.11 5272.91 1587.26C5316.39 1540.16 5370.52 1508.88 5414.69 1464.71C5436.81 1442.59 5401.57 1419.79 5385.86 1421.45Z" fill="#f0cdad" fill-rule="nonzero" opacity="1" stroke="none"/>
<path d="M3742.15 2601.37C3728.48 2615.03 3737.62 2606.49 3713.31 2625.4C3721.37 2649.58 3680.28 2682.05 3667.65 2697.49C3654.73 2713.28 3612.35 2858.47 3626.8 2872.92C3648.69 2851.02 3677.78 2836.35 3701.29 2812.84C3733.75 2780.38 3746.5 2726.64 3754.16 2680.67C3758.85 2652.53 3766.17 2625.39 3742.15 2601.37Z" fill="#f16b0a" fill-rule="nonzero" opacity="1" stroke="none"/>
<path d="M3734.94 1933.31C3742.18 1942.37 3750.35 1948.02 3756.56 1957.34C3820 1893.9 3895.31 1849.81 3982.45 1832.38C3999.89 1828.89 4027.24 1831.26 4042.53 1822.77C4046.49 1820.57 4047.65 1813.72 4052.14 1813.15C4074.4 1810.37 4097.11 1815.32 4119.43 1813.15C4122.73 1812.84 4129.81 1801.18 4131.45 1798.74C4098.21 1765.5 4033.2 1771.03 3989.66 1781.91C3886.79 1807.63 3814.06 1859.46 3734.94 1933.31Z" fill="#e09356" fill-rule="nonzero" opacity="1" stroke="none"/>
<path d="M3360.05 219.909C3341.83 238.13 3310.45 263.405 3299.98 289.598C3273.19 356.57 3254 471.266 3275.95 537.116C3278.04 543.384 3308.07 553.18 3314.4 556.341C3330.59 540.145 3320.33 529.668 3319.2 508.279C3317.81 481.87 3316.8 455.423 3316.8 428.977C3316.8 417.816 3325.41 406.27 3326.41 397.737C3329.1 374.868 3325.75 357.141 3331.22 335.257C3338.52 306.034 3351.82 283.76 3374.47 263.165C3378.09 259.876 3432.55 261.904 3410.52 236.731C3398.32 222.788 3401.26 224.892 3360.05 219.909Z" fill="#fbe87e" fill-rule="nonzero" opacity="1" stroke="none"/>
<path d="M3941.6 2536.48C3920.6 2557.48 3955.05 2585.5 3975.24 2598.96C4027.67 2633.91 4107.46 2650.45 4169.89 2632.61C4189.4 2627.03 4241.54 2600.92 4222.76 2582.14C4203.87 2591.59 4192.7 2570.09 4181.91 2555.71C4157.73 2567.8 4087.5 2552.62 4083.38 2555.71C4032.81 2593.64 3985.92 2569.72 3941.6 2536.48Z" fill="#441d2a" fill-rule="nonzero" opacity="1" stroke="none"/>
<path d="M3763.77 4213.84C3761.37 4212.64 3761.37 4212.64 3758.97 4211.43C3755.36 4215.04 3755.36 4215.04 3751.76 4218.64C3756.12 4223.01 3759.14 4231.99 3763.77 4235.46C3771.24 4241.07 3792.64 4229.6 3795.01 4240.27C3800.35 4264.31 3806.02 4333.93 3852.69 4319.57C3854.68 4318.96 3875.43 4302.28 3876.72 4300.35C3890.46 4279.74 3883.21 4229.81 3905.55 4218.64C3916.34 4213.25 3969.89 4324.17 3987.26 4254.69C3990.35 4242.34 3986.05 4228.28 3992.07 4216.24C3937.15 4161.32 3920.76 4221.93 3869.51 4216.24C3856.02 4214.74 3831.72 4182.93 3826.25 4187.4C3818.36 4193.86 3813.51 4204.03 3804.63 4209.03C3791.13 4216.62 3775.63 4201.98 3763.77 4213.84Z" fill="#310506" fill-rule="nonzero" opacity="1" stroke="none"/>
<path d="M3230.29 4182.6C3240.6 4203.22 3246.28 4248.89 3280.75 4240.27C3308.46 4233.34 3304.04 4187.4 3336.02 4187.4C3359.45 4187.4 3345.57 4269.11 3410.52 4269.11C3445.32 4269.11 3464.5 4197.96 3456.18 4172.98C3421.02 4190.56 3409.02 4171.75 3384.09 4156.16C3375.82 4151 3366.41 4173.98 3362.46 4175.39C3350.89 4179.52 3328.97 4174.64 3316.8 4170.58C3311.06 4168.67 3284.47 4129.9 3280.75 4132.13C3259.89 4144.65 3248.99 4168.57 3230.29 4182.6Z" fill="#212215" fill-rule="nonzero" opacity="1" stroke="none"/>
<path d="M3235.09 2490.82C3223.82 2502.1 3215.64 2519.72 3196.64 2524.47C3173.04 2530.37 3128.83 2532.21 3112.54 2548.5C3144.57 2580.53 3163.01 2580.79 3208.66 2589.35C3215.92 2590.71 3218.73 2600.77 3225.48 2603.77C3256.79 2617.68 3352.46 2577.72 3379.28 2550.9C3370.05 2532.45 3373.01 2537.42 3360.05 2524.47C3317.02 2567.5 3261.13 2529.88 3235.09 2490.82Z" fill="#441d2a" fill-rule="nonzero" opacity="1" stroke="none"/>
<path d="M3559.51 2562.92C3566.36 2569.77 3563.75 2571.96 3571.53 2579.74C3618.49 2532.78 3606.25 2595.24 3621.99 2610.98C3625.6 2607.37 3625.6 2607.37 3629.2 2603.77C3665.64 2628.06 3624.15 2723.68 3650.83 2750.36C3663.37 2737.81 3654.12 2718.23 3667.65 2704.7C3659.06 2696.11 3667.65 2692.49 3667.65 2680.67C3667.65 2605.29 3668.52 2652.97 3715.71 2627.8C3726.75 2621.91 3733.82 2610.21 3744.55 2603.77C3698.42 2511.5 3634.01 2500.83 3559.51 2562.92Z" fill="#fa9112" fill-rule="nonzero" opacity="1" stroke="none"/>
<path d="M2170.53 1717.03C2187.83 1734.33 2245.02 1702.1 2245.02 1731.45C2245.02 1765.06 2231.93 1807.46 2230.6 1841.99C2230.36 1848.46 2230.26 1851.38 2237.81 1856.41C2244.56 1860.91 2270.97 1845.93 2278.67 1844.39C2292.67 1841.59 2374.79 1844.07 2374.79 1813.15C2374.79 1774.72 2242.38 1741.22 2285.88 1712.23C2275.22 1701.57 2262.15 1709.08 2249.83 1709.82C2225.03 1711.32 2200.08 1709.98 2175.33 1712.23C2173.08 1712.43 2172.13 1715.43 2170.53 1717.03Z" fill="#e0431f" fill-rule="nonzero" opacity="1" stroke="none"/>
<path d="M1788.44 522.698C1797.66 513.477 1807.58 504.987 1817.27 496.264C1786.32 434.353 1757.58 367.414 1745.18 299.211C1742.69 285.517 1750.36 248.84 1730.76 243.94C1716.9 240.474 1702.85 263.617 1701.93 275.18C1700.46 293.562 1699.52 312.01 1699.52 330.451C1699.52 393.633 1749.56 476.048 1788.44 522.698Z" fill="#fbf5e1" fill-rule="nonzero" opacity="1" stroke="none"/>
<path d="M2588.66 3281.44C2588.66 3311.45 2573.79 3363.6 2552.62 3384.77C2569.42 3409.97 2620.29 3335.22 2634.32 3324.7C2647.54 3314.78 2655.08 3359.21 2677.58 3336.71C2640.64 3299.78 2661.51 3248.69 2682.38 3206.94C2660.5 3185.06 2647.02 3233.04 2627.11 3242.99C2616.74 3248.18 2548.65 3270.16 2547.81 3271.83C2538.89 3289.68 2582.03 3279.23 2588.66 3281.44Z" fill="#174564" fill-rule="nonzero" opacity="1" stroke="none"/>
<path d="M3415.33 1563.23C3436.48 1584.39 3391.49 1647.54 3410.52 1666.57C3417.12 1659.97 3413.18 1662.48 3422.53 1659.36C3422.53 1635.46 3417.44 1642.83 3427.34 1632.92C3432.7 1636.49 3434.44 1651.39 3439.36 1652.15C3447.2 1653.36 3550.4 1650.51 3559.51 1635.33C3565.33 1625.63 3506.95 1576.82 3501.84 1572.85C3485.01 1584.06 3469.51 1584.32 3451.37 1575.25C3465.08 1547.84 3427.57 1550.99 3415.33 1563.23Z" fill="#465b78" fill-rule="nonzero" opacity="1" stroke="none"/>
<path d="M2172.93 25.2591C2116.74 40.0661 2112.57 164.072 2132.08 203.087C2142.5 223.925 2160.24 264.742 2192.16 258.358C2209.85 254.819 2174.13 229.505 2172.93 222.312C2168 192.712 2168.12 149.826 2168.12 126.189C2168.12 98.2125 2218.04 13.373 2172.93 25.2591Z" fill="#c3f0f9" fill-rule="nonzero" opacity="1" stroke="none"/>
<path d="M4636.09 726.96C4591.4 759.039 4580.67 783.082 4571.21 835.099C4569.33 845.418 4560.45 902.351 4578.42 890.37C4597.77 877.472 4684.59 751.614 4681.75 731.766C4679.59 716.616 4648.53 718.037 4636.09 726.96Z" fill="#fbe87e" fill-rule="nonzero" opacity="1" stroke="none"/>
<path d="M4669.74 1750.67C4677.87 1758.81 4720.78 1726.16 4715.39 1753.08C4711.82 1770.95 4638.89 1828.75 4626.48 1791.53C4621.85 1777.65 4647.44 1754.42 4652.91 1743.47C4675.53 1698.23 4683.46 1655.25 4722.6 1616.1C4767.57 1651.46 4692 1728.41 4669.74 1750.67Z" fill="#966034" fill-rule="nonzero" opacity="1" stroke="none"/>
<path d="M4571.21 1892.46C4550.21 1913.45 4498.08 1943.18 4470.28 1950.13C4451.03 1954.94 4426.8 1959.97 4412.61 1974.16C4437.2 1998.75 4651.31 1972.56 4571.21 1892.46Z" fill="#966034" fill-rule="nonzero" opacity="1" stroke="none"/>
<path d="M5628.57 1346.96C5657.54 1375.93 5678.11 1397.24 5700.66 1431.06C5715.66 1416.06 5735.89 1407.85 5753.53 1390.21C5721.75 1347.85 5670.06 1291.63 5628.57 1346.96Z" fill="#ee5f3a" fill-rule="nonzero" opacity="1" stroke="none"/>
<path d="M4636.09 662.077C4594.82 672.88 4569.04 718.397 4551.98 758.2C4550.37 761.968 4532.98 813.661 4556.79 796.65C4578.88 780.872 4595.44 753.198 4614.47 734.169C4634.95 713.683 4718.39 640.533 4636.09 662.077Z" fill="#fbe7a5" fill-rule="nonzero" opacity="1" stroke="none"/>
<path d="M3602.77 1457.5C3572.34 1487.92 3537.6 1508.15 3501.84 1531.99C3504.24 1534.4 3504.24 1534.4 3506.64 1536.8C3503.04 1540.4 3503.04 1540.4 3499.43 1544.01C3511.49 1556.07 3616.58 1537.41 3631.6 1522.38C3615.03 1505.81 3623.57 1471.37 3602.77 1457.5Z" fill="#d9214a" fill-rule="nonzero" opacity="1" stroke="none"/>
<path d="M3141.37 1282.07C3135.45 1288 3125.47 1287.44 3122.15 1294.09C3102.87 1332.65 3132.7 1398.39 3184.63 1385.41C3205.28 1380.24 3198.02 1344.2 3203.85 1332.54C3196.7 1325.38 3187.75 1329.53 3179.82 1322.93C3165.11 1310.66 3152.86 1297.39 3141.37 1282.07Z" fill="#fc7384" fill-rule="nonzero" opacity="1" stroke="none"/>
<path d="M4266.02 2440.36C4253.58 2452.8 4258.62 2479.87 4246.79 2495.63C4227.69 2521.1 4206.17 2539.72 4181.91 2560.51C4226.69 2650.07 4307 2481.34 4266.02 2440.36Z" fill="#e2d9d9" fill-rule="nonzero" opacity="1" stroke="none"/>
<path d="M4198.73 3329.5C4179.58 3348.65 4149.69 3411.17 4160.28 3437.64C4163.65 3446.05 4173.1 3450.46 4179.51 3456.87C4184.31 3454.46 4189.12 3452.06 4193.93 3449.66C4234.76 3490.49 4205.59 3336.36 4198.73 3329.5Z" fill="#fcb161" fill-rule="nonzero" opacity="1" stroke="none"/>
<path d="M3593.15 2558.11C3537.66 2573.86 3561.76 2669.61 3602.77 2654.23C3631.47 2643.47 3630.99 2547.38 3593.15 2558.11Z" fill="#fbf5e1" fill-rule="nonzero" opacity="1" stroke="none"/>
<path d="M1812.47 496.264C1792.81 515.917 1801.99 508.328 1786.03 520.295C1804.99 558.216 1850.18 596.461 1879.75 626.03C1886.86 633.134 1909.61 657.636 1918.2 640.449C1923.93 629 1872.59 591.96 1862.93 580.372C1840.77 553.776 1836.36 520.161 1812.47 496.264Z" fill="#fbe87e" fill-rule="nonzero" opacity="1" stroke="none"/>
<path d="M3499.43 1577.65C3522.74 1598.37 3546.99 1612.18 3557.11 1642.54C3582.52 1642.54 3591.21 1649.28 3609.98 1630.52C3600.55 1621.09 3576.67 1618.36 3564.32 1611.3C3536.55 1595.43 3514.72 1565.35 3489.82 1544.01C3486.09 1540.81 3445.27 1548.3 3444.16 1556.02C3439.36 1589.62 3482.35 1594.73 3499.43 1577.65Z" fill="#6e7666" fill-rule="nonzero" opacity="1" stroke="none"/>
<path d="M4722.6 3158.88C4740.48 3149.94 4725.84 3137.7 4727.41 3120.43C4727.99 3114.01 4752.92 3102.63 4758.65 3098.81C4743.27 3083.43 4726.48 3075.16 4710.59 3057.95C4705.86 3052.84 4713.46 3046.03 4700.98 3043.53C4694.6 3042.26 4671.27 3058.61 4674.54 3065.16C4690.19 3096.47 4703.23 3129.82 4722.6 3158.88Z" fill="#37534e" fill-rule="nonzero" opacity="1" stroke="none"/>
<path d="M4816.32 3048.34C4764.72 3065.54 4759.36 3109.36 4787.49 3146.87C4808.35 3129.48 4849.86 3077.07 4816.32 3048.34Z" fill="#9fa9a3" fill-rule="nonzero" opacity="1" stroke="none"/>
<path d="M1906.19 760.603C1934.77 789.187 1937.07 844.507 1987.89 779.828C1992.56 773.886 1994.56 765.947 1999.91 760.603C1988.03 748.729 1920.56 746.234 1906.19 760.603Z" fill="#c29432" fill-rule="nonzero" opacity="1" stroke="none"/>
<path d="M3778.19 1721.84C3728.81 1732.77 3756.29 1789.12 3797.42 1789.12C3825.59 1789.12 3816.86 1743.68 3804.63 1731.45C3796.69 1723.51 3788.15 1719.63 3778.19 1721.84Z" fill="#dfa875" fill-rule="nonzero" opacity="1" stroke="none"/>
<path d="M3597.96 1789.12C3553.23 1797.48 3564.34 1854.01 3609.98 1854.01C3617.71 1854.01 3632.97 1835.97 3634.01 1834.78C3650.78 1815.62 3610.56 1786.77 3597.96 1789.12Z" fill="#e09356" fill-rule="nonzero" opacity="1" stroke="none"/>
<path d="M5361.82 3.63129C5354.24 26.3859 5387.24 52.5617 5397.87 68.5146C5409.49 56.8955 5432.66 36.3713 5436.32 18.0498C5436.34 17.932 5437.38 6.36924 5433.92 6.03438C5409.98 3.71834 5385.86 4.43232 5361.82 3.63129Z" fill="#cc7d2a" fill-rule="nonzero" opacity="1" stroke="none"/>
<path d="M3482.61 1678.58C3447.92 1678.53 3425.09 1738.66 3475.4 1738.66C3518.03 1738.66 3526.05 1678.64 3482.61 1678.58Z" fill="#dfa875" fill-rule="nonzero" opacity="1" stroke="none"/>
<path d="M5558.88 1303.7C5565.32 1310.15 5570.31 1311.57 5573.3 1320.52C5598.12 1320.52 5609.05 1338.4 5630.97 1349.36C5645.27 1335.06 5657.35 1335 5669.42 1322.93C5647.56 1301.06 5579.81 1282.77 5558.88 1303.7Z" fill="#cc7d2a" fill-rule="nonzero" opacity="1" stroke="none"/>
<path d="M4487.1 210.297C4466.48 230.917 4451 258.411 4431.83 277.583C4439.99 285.744 4447.7 279.035 4455.86 287.195C4478.74 275.758 4497.25 264.561 4518.34 248.746C4505.45 235.852 4499.07 226.257 4487.1 210.297Z" fill="#da4c76" fill-rule="nonzero" opacity="1" stroke="none"/>
<path d="M3557.11 1719.43C3524.74 1739.5 3551.34 1777.11 3585.94 1777.11C3608.34 1777.11 3616.28 1746.26 3605.17 1731.45C3595.59 1718.67 3569.07 1712.01 3557.11 1719.43Z" fill="#dfa875" fill-rule="nonzero" opacity="1" stroke="none"/>
<path d="M3698.89 2622.99C3658.45 2631.08 3647.47 2671.55 3665.25 2707.1C3676.66 2695.69 3735.48 2642.77 3698.89 2622.99Z" fill="#f0cdad" fill-rule="nonzero" opacity="1" stroke="none"/>
<path d="M3956.02 1712.23C3946.43 1714.13 3934.21 1726.24 3931.99 1736.26C3926.7 1760.03 3962.41 1782.53 3982.45 1767.5C4013.19 1744.44 3983.4 1706.79 3956.02 1712.23Z" fill="#dfa875" fill-rule="nonzero" opacity="1" stroke="none"/>
<path d="M5162.37 2423.54C5184.93 2446.1 5127.17 2486.86 5155.16 2514.86C5170.49 2499.53 5170.78 2468.48 5184 2449.97C5193.81 2436.24 5198.48 2445.1 5208.03 2435.55C5193.95 2421.47 5184.4 2401.51 5162.37 2423.54Z" fill="#212215" fill-rule="nonzero" opacity="1" stroke="none"/>
<path d="M4912.45 2812.84C4877.93 2847.36 4891.23 2910.01 4938.88 2846.48C4929.75 2837.35 4924.04 2824.43 4912.45 2812.84Z" fill="#6e7666" fill-rule="nonzero" opacity="1" stroke="none"/>
<path d="M3691.68 1688.19C3656.78 1698.45 3684.1 1735.28 3710.91 1731.45C3746.54 1726.36 3713.59 1681.76 3691.68 1688.19Z" fill="#efc087" fill-rule="nonzero" opacity="1" stroke="none"/>
<path d="M3311.99 813.471C3289.21 836.251 3320.85 823.208 3307.19 847.114C3292.31 873.147 3276.27 863.218 3292.77 887.967C3303.18 878.354 3314.37 869.515 3324.01 859.13C3328.7 854.08 3331.15 847.181 3336.02 842.308C3321.8 824.526 3329.75 834.187 3311.99 813.471Z" fill="#f43f3f" fill-rule="nonzero" opacity="1" stroke="none"/>
<path d="M2653.55 2762.37C2643.13 2772.79 2634.86 2779.37 2624.71 2791.21C2631.59 2798.09 2631.27 2804.98 2639.13 2812.84C2649.67 2805.81 2644.61 2810.34 2653.55 2798.42C2655.95 2799.62 2655.95 2799.62 2658.35 2800.82C2670.3 2788.88 2664.91 2773.73 2653.55 2762.37Z" fill="#6e7666" fill-rule="nonzero" opacity="1" stroke="none"/>
<path d="M3203.85 3053.15C3216.44 3040.56 3221.18 3035.43 3215.87 3019.5C3173.69 3019.5 3182.07 3027.73 3203.85 3053.15Z" fill="#fcb161" fill-rule="nonzero" opacity="1" stroke="none"/>
<path d="M4924.46 1942.92C4922.06 1945.32 4922.06 1945.32 4919.66 1947.73C4922.06 1950.13 4922.06 1950.13 4924.46 1952.53C4926.87 1950.13 4926.87 1950.13 4929.27 1947.73C4926.87 1945.32 4926.87 1945.32 4924.46 1942.92Z" fill="#000000" fill-rule="nonzero" opacity="1" stroke="none"/>
</g>
</g>
</svg>
