<?xml version="1.0" encoding="UTF-8" standalone="no"?>
<!DOCTYPE svg PUBLIC "-//W3C//DTD SVG 1.1//EN" "http://www.w3.org/Graphics/SVG/1.1/DTD/svg11.dtd">
<!-- Created with Vectornator (http://vectornator.io/) -->
<svg height="100%" stroke-miterlimit="10" style="fill-rule:nonzero;clip-rule:evenodd;stroke-linecap:round;stroke-linejoin:round;" version="1.1" viewBox="0 0 7680 4320" width="100%" xml:space="preserve" xmlns="http://www.w3.org/2000/svg" xmlns:xlink="http://www.w3.org/1999/xlink">
<defs/>
<clipPath id="ArtboardFrame">
<rect height="4320" width="7680" x="0" y="0"/>
</clipPath>
<g clip-path="url(#ArtboardFrame)" id="Ebene-1">
<g opacity="1">
<path d="M2482.5 3676.32C2479.34 3679.48 2479.34 3679.48 2476.18 3682.65C2499.87 3706.34 2514.08 3716.21 2524.69 3748.04C2534.55 3777.61 2525.97 3812.68 2531.02 3842.96C2535.47 3869.69 2568.61 3949.89 2594.3 3965.3C2597.27 3967.09 2644.86 3957.12 2649.14 3956.87C2677.58 3955.19 2678.65 3959.42 2697.66 3944.21C2723.28 3964.7 2762.71 3967.08 2788.36 3992.73C2799.4 4003.77 2794.69 4023.52 2794.69 4039.13C2794.69 4096.68 2731.54 4098.06 2701.88 4127.73C2731.45 4167.16 2725.43 4271.51 2727.19 4315.46C2790.47 4316.52 2790.47 4316.52 2853.75 4317.57C2858.17 4269 2866.9 4222.97 2904.38 4188.9C2911.72 4182.22 2951.51 4185.29 2952.89 4180.46C2957.92 4162.87 2950.78 4143.91 2950.78 4125.62C2950.78 4084.86 2963.13 4048.2 2980.32 4013.82C3009.92 3954.61 3114.16 3950.13 3132.19 4022.26C3138.89 4049.04 3149.07 4075.94 3149.07 4104.52C3149.07 4119.65 3136.06 4147.77 3140.63 4161.48C3235.06 4114.26 3235.55 4275.08 3235.55 4317.57C4174.22 4317.57 4174.22 4317.57 5112.89 4317.57C5087.73 4286.12 5057.76 4258.78 5028.52 4231.09C4992.92 4197.36 4929.53 4164.2 4916.72 4112.96C4898.44 4039.85 4973.17 4037.99 5030.63 4047.57C5091.36 4057.69 5142.47 4096.13 5186.72 4140.38C5207.06 4160.72 5216.19 4189.52 5233.13 4212.1C5308.02 4155.93 5388.11 4241.55 5429.3 4296.48C5438.42 4287.35 5430.16 4275.78 5435.63 4264.84C5439.07 4257.95 5450.42 4246.66 5454.61 4241.63C5427.51 4205.49 5316.89 4142.77 5387.11 4081.32C5404.47 4066.14 5428.26 4071.82 5444.07 4056.01C5414.97 4026.91 5375.54 4011.9 5349.14 3977.96C5329.38 3952.56 5334.22 3916.63 5313.28 3895.7C5295.18 3913.8 5196.71 3899.91 5169.85 3899.91C5007.33 3899.91 4842.47 3885.77 4680.47 3874.6C4653.42 3872.74 4528.95 3870.73 4513.83 3855.62C4508.03 3861.42 4393.79 3859.35 4380.94 3853.51C4376.41 3851.45 4375.33 3843.56 4370.39 3842.96C4345.27 3839.9 4319.73 3844.29 4294.46 3842.96C4292.47 3842.86 4291.64 3840.15 4290.24 3838.74C4306.53 3822.45 4295.97 3838.06 4317.66 3828.2C4358.28 3809.73 4395.68 3779.17 4431.57 3752.26C4439.54 3746.27 4450.94 3743.97 4456.88 3737.49C4473.03 3719.87 4504.59 3689.15 4475.86 3669.99C4444.5 3701.35 4403.41 3634.28 4383.05 3638.35C4375.33 3639.9 4374.92 3684.39 4364.07 3697.41C4329.11 3739.36 4281.08 3734.66 4243.83 3697.41C4233.62 3687.2 4232.58 3673.51 4222.74 3663.66C4206.78 3679.62 4193.66 3703.56 4172.11 3712.18C4122.68 3731.95 4065.95 3715.71 4043.44 3659.45C4037.17 3643.78 4041.53 3589.62 4037.11 3587.73C4027.35 3583.54 4015.02 3593.62 4007.58 3594.05C3985.12 3595.38 3962.58 3593.52 3940.08 3594.05C3927.78 3594.35 3894.12 3593.97 3883.13 3596.16C3869.9 3598.81 3866.53 3640.01 3859.93 3651.01C3835.56 3691.62 3797.38 3706.99 3752.35 3688.98C3714.06 3673.66 3726.33 3637.65 3703.83 3615.15C3684.89 3634.09 3676.04 3668.25 3655.32 3688.98C3644.06 3700.23 3633.9 3698.42 3619.46 3701.63C3575.97 3711.3 3561.12 3656.31 3543.52 3629.91C3533.12 3640.31 3527.58 3650.07 3516.1 3661.55C3506.61 3671.04 3492.78 3666.51 3480.24 3665.77C3434.16 3663.06 3428.95 3572.48 3414.85 3570.85C3378.16 3566.62 3358.96 3579.14 3328.36 3583.51C3274.19 3591.25 3223.81 3589.65 3170.16 3600.38C3128.75 3608.67 3095.6 3626.06 3058.36 3644.68C3028.21 3659.75 2997.78 3705.94 2963.44 3712.18C2921.18 3719.86 2875.87 3709.61 2832.66 3705.85C2759.62 3699.5 2686.5 3691.75 2613.28 3686.87C2576.53 3684.42 2514.73 3692.43 2482.5 3676.32Z" fill="#8b392d" fill-rule="nonzero" opacity="1" stroke="none"/>
<path d="M4556.02 1623.9C4542.74 1637.18 4573.69 1656.85 4560.24 1670.3C4532.12 1642.19 4456.41 1626.47 4427.35 1655.54C4429.46 1657.65 4429.46 1657.65 4431.57 1659.76C4403.2 1695.21 4396.12 1717.57 4383.05 1756.79C4379.16 1768.47 4367.22 1782.12 4364.07 1794.76C4359 1815.02 4358.94 1887.88 4340.86 1902.34C4333.35 1908.35 4318.5 1904.03 4309.22 1908.66C4264.71 1930.92 4180.02 1929.76 4132.03 1929.76C3978.17 1929.76 3825.19 1938.47 3670.08 1933.98C3648.28 1933.34 3626.47 1933.01 3604.69 1931.87C3573.47 1930.22 3528.78 1909.36 3499.22 1919.21C3499.22 1976.97 3475.51 2042.83 3454.93 2094.29C3425.14 2168.76 3412.74 2275.27 3412.74 2353.74C3412.74 2402.7 3424.7 2454.34 3435.94 2499.29C3483.57 2689.81 3537.32 2819.15 3724.93 2931.71C3787.1 2969.01 3857.68 2983.15 3927.43 2997.1C4010.67 3013.75 4113.68 3014.72 4191.1 2976.01C4203.26 2969.93 4219.18 2970.24 4231.18 2961.24C4256.43 2942.3 4286.8 2926.71 4309.22 2904.29C4358.91 2854.61 4384.45 2802.35 4414.69 2741.87C4432.92 2705.4 4428.33 2616.43 4452.66 2592.1C4463.18 2602.62 4463.41 2622.35 4467.43 2636.4C4474.01 2659.43 4486.33 2683.08 4492.74 2703.9C4502.94 2737.06 4500.95 2792.27 4526.49 2817.8C4520.34 2830.11 4552.91 2865.54 4564.46 2868.43C4578.79 2872.01 4592.91 2868.79 4606.64 2864.21C4694.22 2835.02 4709.38 2730.46 4743.75 2661.71C4750.31 2648.6 4768.61 2607.17 4764.85 2592.1C4762.08 2581.02 4745.24 2570.38 4739.53 2564.68C4726.31 2551.46 4720.14 2525.88 4712.11 2509.84C4701.22 2488.05 4701.96 2459.55 4695.24 2436.01C4686.48 2405.36 4673.14 2376.69 4667.82 2347.41C4666 2337.45 4668.61 2319.47 4663.6 2309.45C4641.38 2265.02 4617.92 2205.81 4615.08 2153.35C4612.24 2100.71 4587.12 1943.46 4686.8 2009.91C4711.98 1991.03 4656.98 1928.43 4655.16 1906.55C4653.29 1884.13 4656.48 1861.52 4655.16 1839.05C4654.25 1823.61 4623.17 1799.07 4612.97 1786.32C4600.79 1771.09 4572.72 1689.63 4583.44 1668.2C4571.42 1656.18 4569.98 1637.86 4556.02 1623.9Z" fill="#e76e34" fill-rule="nonzero" opacity="1" stroke="none"/>
<path d="M2360.16 746.398C2343.89 762.668 2355.74 826.374 2355.94 843.43C2357.14 943.972 2353.98 1044.6 2358.05 1145.07C2358.25 1150.04 2366.92 1150.94 2368.6 1155.62C2378.75 1184.04 2372 1251.54 2372.82 1277.96C2374.65 1337.5 2382.16 1404.59 2383.36 1461.48C2387.28 1647.43 2385.6 1837.09 2387.58 2022.57C2387.93 2055.62 2388.86 2088.67 2389.69 2121.71C2390.31 2146.4 2378.55 2178.07 2396.02 2195.54C2405.87 2185.68 2413.1 2172.03 2421.33 2159.68C2434.79 2173.14 2426.96 2197.65 2425.55 2216.63C2425.4 2218.62 2422.74 2219.45 2421.33 2220.85C2413.95 2214.52 2413.95 2214.52 2406.57 2208.2C2393.91 2216.63 2401.89 2245.14 2402.35 2256.71C2403.37 2282.72 2403.91 2308.74 2404.46 2334.76C2405.31 2375.54 2405.52 2416.33 2406.57 2457.1C2411.06 2632.29 2429.77 2805.68 2429.77 2978.12C2429.77 2988.31 2427.66 3002.37 2438.21 3007.65C2452.15 3014.62 2482.26 2971.65 2486.72 2961.24C2490.5 2952.44 2486.87 2939.11 2490.94 2929.6C2495.65 2918.61 2513.84 2932.82 2522.58 2921.16C2530.54 2910.56 2531.23 2871.24 2535.24 2857.88C2544.56 2826.81 2562.69 2798.75 2575.32 2769.29C2581.04 2755.94 2601.88 2722.88 2619.61 2722.88C2671.31 2722.88 2670.57 2867.88 2672.35 2887.41C2672.93 2893.87 2684.89 2890.92 2691.33 2891.63C2699.97 2892.59 2719.06 2910.93 2722.97 2914.84C2735.91 2927.77 2728.68 2964.94 2727.19 2973.9C2723.38 2996.78 2773.65 3012.73 2790.47 3013.98C2805.91 3015.12 2821.39 3016.09 2836.88 3016.09C2846.38 3016.09 2859.39 3011.3 2868.52 3007.65C2988.94 2959.48 3025.32 2788.3 2988.75 2678.59C2978.03 2646.41 2932.95 2606.27 2927.58 2579.45C2922.94 2556.24 2950.91 2539.78 2959.22 2520.38C2966.52 2503.35 2968.19 2494.8 2965.55 2469.76C2961.25 2428.91 2887.2 2413.71 2885.39 2406.48C2879.65 2383.48 2914.1 2351.17 2923.36 2332.65C2937.96 2303.44 2936.02 2249.2 2936.02 2220.85C2936.02 2198.46 2884.05 2125.02 2870.63 2113.27C2861.88 2105.62 2839.88 2104.22 2832.66 2092.18C2828.82 2085.79 2843.21 2053.13 2843.21 2045.77C2843.21 2027.55 2821.06 2007.78 2820 1990.93C2819.73 1986.61 2816.47 1940.78 2830.55 1936.09C2848.21 1930.2 2869.35 1942.08 2889.61 1933.98C2945.51 1911.62 3008.24 1825.79 2986.64 1761.01C2962.79 1689.45 2873.96 1678.74 2809.46 1678.74C2781.24 1678.74 2755.49 1684.45 2731.41 1672.41C2730.51 1671.96 2725.65 1592.14 2720.86 1575.38C2707.42 1528.35 2669.97 1477.59 2636.49 1440.38C2638.6 1438.27 2638.6 1438.27 2640.71 1436.16C2658.91 1454.37 2695.52 1450.79 2718.75 1455.15C2843.97 1478.63 2955.18 1425.5 2942.35 1284.29C2935.14 1204.97 2848.98 1117.32 2786.25 1079.68C2769.12 1069.4 2749.16 1058.17 2731.41 1052.26C2717.19 1047.52 2696.43 1048.91 2685 1037.49C2691.51 1024.48 2701.04 1014.68 2701.88 999.523C2703.13 977.047 2704.65 954.525 2703.99 932.023C2702.81 892.046 2614.25 785.615 2587.97 756.945C2580.71 749.023 2547.42 711.997 2533.13 702.102C2528.02 698.564 2484.25 746.965 2469.85 752.727C2421.79 771.949 2403.63 768.133 2360.16 746.398Z" fill="#68b768" fill-rule="nonzero" opacity="1" stroke="none"/>
<path d="M4798.6 695.773C4786.15 708.218 4770.84 716.592 4756.41 727.414C4747.97 721.789 4751.49 725.305 4745.86 716.867C4711.91 745.967 4681.75 774.236 4644.61 792.805C4584.94 822.643 4519.16 811.471 4458.99 828.664C4361.57 856.498 4257.47 859.815 4167.89 904.602C4117.8 929.649 4049.9 998.989 4035 1058.59C4029.98 1078.69 4005.96 1146.69 3994.93 1157.73C3979.15 1141.95 3979.34 1107.84 3967.5 1088.12C3931.08 1027.41 3853.72 906.717 3775.55 902.492C3623.66 894.282 3482.48 954.817 3431.72 1107.1C3427.34 1120.26 3423.61 1148.49 3423.28 1157.73C3421.93 1195.67 3422.65 1233.67 3423.28 1271.63C3423.68 1295.51 3457.87 1396.92 3473.91 1412.96C3476.02 1411.91 3476.02 1411.91 3478.13 1410.85C3488.2 1420.92 3481.81 1446.7 3492.89 1461.48C3518.95 1496.22 3532.73 1533.99 3564.61 1569.05C3558.6 1575.07 3562.05 1572.17 3554.07 1577.49C3565.52 1588.94 3579.33 1588.53 3592.03 1596.48C3626.09 1617.76 3668.91 1627.04 3710.16 1636.55C3717.41 1638.23 3724.14 1646.84 3731.25 1649.21C3787.66 1668.01 3856.03 1666.39 3914.77 1670.3C4000.59 1676.03 4084.84 1665.57 4165.78 1653.43C4189.25 1649.91 4212.2 1654.06 4235.39 1647.1C4342.1 1615.09 4438.62 1551.45 4520.16 1469.91C4549.82 1440.25 4563.08 1404.48 4585.55 1370.77C4587.66 1372.88 4587.66 1372.88 4589.77 1374.99C4580.23 1389.31 4572.35 1411.95 4564.46 1427.73C4535.73 1485.17 4508.6 1479.09 4522.27 1554.29C4524.85 1568.5 4528.53 1587.97 4539.14 1598.59C4681.07 1456.66 4736.64 1295.91 4684.69 1088.12C4673.68 1044.08 4659.6 998.482 4636.18 959.445C4628.77 947.098 4600.32 913.459 4600.32 900.383C4600.32 892.885 4604.77 894.055 4608.75 894.055C4638.71 894.055 4662.68 885.023 4686.8 872.961C4734.37 849.177 4793.91 794.474 4800.71 740.07C4802.8 723.342 4814.2 707.478 4798.6 695.773Z" fill="#f7945d" fill-rule="nonzero" opacity="1" stroke="none"/>
<path d="M1769.53-0.320297C1766.2 9.68677 1765.42 10.5599 1765.32 24.9922C1763.95 219.754 1763.21 414.522 1763.21 609.289C1763.21 656.586 1771.73 702.971 1775.86 746.398C1787.81 871.805 1775.86 1002.01 1775.86 1126.09C1775.86 1224.89 1775.86 1324.57 1775.86 1423.51C1775.86 1589.87 1792.74 1751.3 1792.74 1917.1C1792.74 2076.01 1784.3 2234.87 1784.3 2393.82C1784.3 2586.15 1790.56 2785.11 1803.28 2980.23C1805.65 3016.43 1827.65 3063.44 1799.07 3092.02C1832.94 3125.89 1801.18 3180.31 1801.18 3222.8C1801.18 3239.92 1813.46 3251.23 1818.05 3264.99C1822.15 3277.3 1820.48 3292.74 1830.71 3302.96C1830.84 3303.1 1894.54 3308.18 1908.75 3313.51C1959.84 3332.66 1974.11 3376.51 1980.47 3427.41C1981.68 3437.08 1992.78 3468.18 1988.91 3475.93C1977.45 3498.84 1940.93 3512.69 1921.41 3528.66C1859.99 3578.92 1816.3 3589.08 1750.55 3617.26C1737.9 3622.68 1720.36 3632.02 1704.14 3632.02C1697.4 3632.02 1687.95 3618.65 1680.94 3615.15C1680.24 3762.1 1677.45 3909.06 1678.83 4056.01C1678.87 4059.79 1685.41 4079.46 1689.38 4083.43C1703.84 4068.97 1693.66 4039.05 1706.25 4022.26C1724.2 3998.33 1731.54 3974.61 1758.99 3952.65C1768.65 3944.92 1791.2 3938.46 1803.28 3931.55C1831.3 3915.55 1897.82 3922.67 1923.52 3921.01C1929.98 3920.59 1938.13 3915.35 1944.61 3916.79C1955.24 3919.15 1959.73 3964.06 1963.6 3973.74C1985.61 4028.78 2020.55 4069.1 2020.55 4134.05C2020.55 4160.49 2001.03 4190.86 1997.35 4214.21C1991.97 4248.25 2000.17 4284.5 1984.69 4315.46C2141.84 4316.52 2141.84 4316.52 2298.99 4317.57C2298.99 4279.34 2282.71 4221.53 2263.13 4188.9C2245.43 4159.39 2213.21 4135.47 2197.74 4104.52C2207.66 4094.6 2290.31 4044.18 2290.55 4043.35C2294.12 4030.85 2240.74 3992.67 2231.49 3969.52C2224.53 3952.12 2209.31 3933.05 2204.07 3914.68C2197.64 3892.2 2196.53 3868.36 2185.08 3849.29C2180.47 3841.6 2181.49 3823.02 2178.75 3813.43C2158.62 3742.95 2174.9 3585.4 2258.91 3697.41C2274.04 3682.28 2266.31 3661.69 2263.13 3638.35C2260.91 3622.09 2238.88 3616.21 2227.27 3604.6C2214.46 3591.79 2203.03 3555.63 2197.74 3537.1C2185.88 3495.62 2167.25 3456.2 2153.44 3414.76C2129.62 3343.31 2121.14 3270.99 2092.27 3201.71C2088.84 3193.48 2081.7 3195.31 2079.61 3186.95C2065.72 3131.38 2044.82 3084.69 2033.21 3026.63C2021.77 2969.45 2015.82 2910.33 2003.68 2853.66C2002.19 2846.71 1991.83 2832.5 1991.02 2826.24C1982.75 2762.82 1984.05 2699.23 1976.25 2634.29C1950.21 2417.22 1922.9 2192.56 1915.08 1969.84C1907.83 1763.1 1909.57 1552.48 1906.64 1347.57C1903.72 1143.09 1896.1 940.966 1896.1 735.852C1896.1 491.155 1897.07 246.557 1887.66 1.78908C1828.6 0.734391 1828.6 0.734391 1769.53-0.320297Z" fill="#ab5d35" fill-rule="nonzero" opacity="1" stroke="none"/>
<path d="M5277.43 2246.16C5265.58 2269.86 5239.64 2293.6 5235.24 2319.99C5226.4 2373.04 5199.02 2425.96 5167.74 2469.76C5157.37 2484.28 5153.45 2527.25 5136.1 2533.04C5136.1 2579.85 5114.32 2627.68 5127.66 2674.37C5131.66 2688.38 5152.18 2703.83 5163.52 2712.34C5222.97 2756.92 5298.44 2688.54 5334.38 2640.62C5348 2654.24 5357.65 2673.13 5376.57 2680.7C5385.94 2684.45 5398.4 2681.43 5406.1 2689.13C5362.86 2732.37 5295.68 2821.56 5347.03 2883.2C5357.14 2895.32 5371.27 2915.88 5387.11 2921.16C5396 2924.13 5406.6 2923.63 5412.43 2933.82C5420.48 2947.91 5410.61 2971.45 5422.97 2986.55C5445.42 3013.99 5444.56 3004.3 5473.6 3013.98C5529.29 3032.54 5522.86 2994.24 5551.64 2965.46C5566.86 2980.68 5621.25 3032.69 5621.25 2980.23C5621.25 2944.36 5622.54 2908.51 5623.36 2872.65C5623.98 2845.94 5623.36 2819.21 5623.36 2792.49C5623.36 2640.27 5623.36 2464.92 5623.36 2311.55C5623.36 1967.49 5628.35 1628.42 5623.36 1284.29C5623.33 1282.3 5620.55 1281.48 5619.14 1280.07C5611.01 1288.2 5618.84 1297.25 5610.71 1305.38C5596.39 1298.22 5561.28 1269.76 5549.53 1267.41C5547.16 1266.94 5541.85 1272.81 5541.1 1273.74C5523.36 1295.91 5527.61 1324.22 5498.91 1343.35C5475.2 1359.16 5456.83 1396.66 5429.3 1404.52C5336.45 1431.05 5287.44 1438.31 5260.55 1545.85C5246.61 1601.62 5269.24 1638.79 5319.61 1663.98C5338.46 1673.4 5354.37 1674.44 5363.91 1693.51C5374.93 1715.56 5397.78 1730.05 5412.43 1748.35C5413.3 1749.45 5413.27 1751.45 5412.43 1752.57C5383.92 1790.58 5352.53 1826.59 5325.94 1866.48C5318.26 1877.99 5318.7 1891.51 5313.28 1902.34C5303.78 1921.35 5266.92 1936.04 5252.11 1950.85C5221.35 1981.61 5201.38 2025.57 5180.39 2060.54C5158.59 2096.89 5126.69 2145.08 5150.86 2193.43C5175.91 2243.51 5223.99 2236.27 5273.21 2241.95C5275.18 2242.17 5276.02 2244.76 5277.43 2246.16Z" fill="#68b768" fill-rule="nonzero" opacity="1" stroke="none"/>
<path d="M1885.55-0.320297C1881.18 113.412 1886.96 227.689 1889.77 341.398C1892.34 445.394 1889.99 549.742 1896.1 653.586C1904.56 797.485 1891.88 941.86 1891.88 1086.01C1891.88 1174.77 1902.43 1265.45 1902.43 1353.9C1902.43 1556.26 1905.11 1763.74 1908.75 1967.73C1909.71 2021.22 1920.44 2079.38 1923.52 2130.15C1929.67 2231.65 1932.62 2329.89 1944.61 2431.79C1952.59 2499.56 1966.49 2567.7 1972.03 2634.29C1975.82 2679.68 1973.94 2726.29 1984.69 2769.29C1989.64 2789.09 1974.58 2814.02 1991.02 2830.46C2003.58 2817.9 1986.9 2798.72 1999.46 2786.16C2023.17 2809.88 2023.02 2850.53 2033.21 2881.09C2047.79 2924.82 2063.6 2973.11 2075.39 3020.3C2112.44 3168.48 2167.3 3307.48 2233.6 3440.07C2252.64 3478.16 2259.03 3557.74 2303.21 3583.51C2306.3 3585.31 2310.17 3581.4 2313.75 3581.4C2330.39 3581.4 2349.9 3600.67 2360.16 3610.93C2369.32 3620.09 2373.33 3659.13 2385.47 3661.55C2514.5 3687.36 2652.54 3692.11 2786.25 3703.74C2839.57 3708.38 2911.66 3730.52 2963.44 3716.4C2979.49 3712.02 3000.18 3689.8 3014.07 3680.54C3064.34 3647.02 3109.1 3613.32 3170.16 3604.6C3225.94 3596.63 3278.7 3595.48 3332.58 3583.51C3356.7 3578.15 3397.72 3586.8 3416.96 3577.18C3420.67 3575.33 3426.35 3531.89 3425.39 3522.34C3425.2 3520.36 3423.16 3518.23 3421.18 3518.12C3398.71 3516.8 3376.17 3518.68 3353.68 3518.12C3308.95 3517 3280.68 3510.92 3231.33 3511.79C3176.49 3512.76 3121.65 3513.9 3066.8 3513.9C3008.26 3513.9 2950.28 3504.79 2891.72 3501.24C2883.47 3500.74 2882.7 3499.9 2876.96 3497.02C2869.06 3504.92 2866.43 3499.13 2855.86 3499.13C2831.25 3499.13 2806.63 3499.84 2782.03 3499.13C2776.37 3498.97 2772.65 3492.49 2767.27 3490.7C2738.77 3481.2 2677.1 3506 2649.14 3478.04C2633.91 3493.27 2612.52 3476.3 2596.41 3473.82C2556.82 3467.73 2514.59 3457.53 2476.18 3452.73C2437.28 3447.87 2398.48 3443.9 2360.16 3440.07C2346.06 3438.66 2325.88 3444.39 2311.64 3435.85C2288.5 3421.97 2274.98 3338.13 2267.35 3311.4C2236.44 3203.22 2225.73 3084.28 2195.63 2973.9C2185.78 2937.79 2168.46 2894.77 2159.77 2859.99C2144.97 2800.82 2137.65 2741.01 2128.13 2680.7C2127.68 2677.86 2120.01 2670.87 2119.69 2668.04C2116.19 2636.53 2119.01 2604.95 2115.47 2573.12C2110.22 2525.86 2092.41 2471.35 2088.05 2423.35C2082.59 2363.28 2083.53 2305.83 2075.39 2246.16C2073.46 2231.98 2062.1 2206.66 2060.63 2193.43C2052.54 2120.65 2050.9 2053.98 2043.75 1982.49C2039.63 1941.27 2022.67 1888.79 2020.55 1847.49C2003.86 1522 1991.02 1198.58 1991.02 872.961C1991.02 843.603 1989.22 797.608 1980.47 769.602C1979.29 765.805 1972.33 765.131 1972.03 761.164C1969.44 726.104 1974.02 690.795 1972.03 655.695C1971.42 644.879 1963.01 623.782 1961.49 609.289C1952.01 519.262 1945.29 429.103 1934.07 339.289C1920.14 227.908 1931.96 111.089 1931.96 1.78908C1908.75 0.734391 1908.75 0.734391 1885.55-0.320297Z" fill="#f7945d" fill-rule="nonzero" opacity="1" stroke="none"/>
<path d="M2138.68 2748.2C2124.25 2762.62 2150.3 2818.47 2153.44 2838.9C2160.19 2882.76 2182.43 2929.02 2191.41 2973.9C2197.66 3005.15 2201.24 3037.13 2208.28 3068.82C2213.95 3094.31 2216.73 3142.66 2235.71 3161.63C2250.39 3146.95 2263.57 3164.02 2277.89 3161.63C2290.55 3159.52 2279.95 3135.76 2284.22 3123.66C2303.11 3070.14 2382.17 3076.66 2421.33 3096.24C2436.11 3081.46 2427.43 3068.03 2427.66 3047.73C2428.35 2985.85 2429.77 2923.98 2429.77 2862.1C2429.77 2843.81 2428.31 2825.54 2427.66 2807.26C2421.13 2624.57 2415.84 2441.52 2408.68 2258.82C2407.67 2233.12 2397.32 2213.43 2396.02 2191.32C2392.76 2135.86 2394.5 2080.23 2393.91 2024.68C2391.5 1799.67 2388.1 1576.48 2381.25 1353.9C2379.44 1294.83 2378.5 1235.71 2374.93 1176.71C2373.57 1154.3 2379.78 1146.69 2362.27 1140.85C2362.27 875.915 2347.12 634.994 2330.63 379.367C2323.81 273.635 2314.26 178.213 2307.43 75.6172C2304.5 31.7891 2294.84 20.3652 2246.25 24.9922C2241.77 25.4191 2236.65 29.0274 2235.71 33.4297C2222.6 94.6124 2230.09 164.871 2229.38 229.602C2227.86 366.71 2226.4 503.819 2225.16 640.93C2221.34 1063.06 2201.96 1486.5 2201.96 1910.77C2201.96 2070.38 2204.07 2229.99 2204.07 2389.6C2204.07 2423.85 2196.59 2471.82 2195.63 2497.18C2194.28 2533.01 2198.23 2568.99 2195.63 2604.76C2195.34 2608.72 2187.4 2609.22 2187.19 2613.2C2184.53 2664.45 2188.56 2715.87 2187.19 2767.18C2186.88 2778.74 2140.47 2749.99 2138.68 2748.2Z" fill="#e76e34" fill-rule="nonzero" opacity="1" stroke="none"/>
<path d="M4963.13 2573.12C5011.14 2525.11 5061.18 2626.75 5068.6 2663.82C5076.59 2703.8 5074.93 2757.78 5074.93 2792.49C5074.93 2811.62 5068.34 2802.79 5077.03 2811.48C5089.51 2803.16 5135.57 2814.74 5136.1 2828.35C5136.75 2845.21 5137.39 2862.15 5136.1 2878.98C5133.29 2915.52 5064.67 2936.08 5039.07 2923.27C5026.82 2935.52 5029.71 2947.12 5024.3 2963.35C5018.47 2980.84 5007.43 3001.44 5007.43 3020.3C5007.43 3056.06 5037.22 3110.88 5047.5 3146.87C5053.43 3167.6 5058.75 3204.52 5074.93 3220.7C5080.55 3217.88 5077.74 3217.88 5083.36 3220.7C5094.17 3209.89 5089.25 3191.09 5102.35 3180.62C5111.83 3173.03 5125.19 3185.56 5131.88 3172.18C5139.77 3156.39 5127.96 3128.5 5131.88 3108.9C5142.08 3057.87 5217.47 2942.99 5279.53 2980.23C5300.1 2992.57 5304.43 3011.45 5319.61 3026.63C5339.87 3011.44 5353.14 2990.88 5378.68 2978.12C5387.75 2973.58 5415.86 2982.05 5418.75 2967.57C5428.02 2921.22 5385.47 2919.52 5359.69 2893.74C5336.64 2870.69 5336.49 2835.22 5336.49 2805.15C5336.49 2772.87 5369.43 2739.29 5387.11 2716.55C5391.08 2711.46 5414.84 2689.75 5412.43 2684.91C5407.45 2674.95 5391.89 2681.75 5385 2680.7C5366.65 2677.87 5345.58 2650.4 5334.38 2636.4C5307.36 2654.41 5292.07 2688.36 5262.66 2706.01C5230.09 2725.55 5145.54 2729.02 5131.88 2674.37C5125.42 2648.51 5126.95 2618.16 5129.77 2589.99C5135.21 2535.54 5165.21 2472.5 5195.16 2427.57C5202.96 2415.88 5216.25 2402.27 5220.47 2387.49C5226.68 2365.76 5232.94 2342.8 5239.46 2319.99C5244.89 2300.98 5283.75 2257.66 5283.75 2244.05C5283.75 2225.14 5234.72 2240.76 5214.14 2235.62C5165.83 2223.54 5132.98 2177.46 5150.86 2123.82C5167.22 2074.76 5222.89 1984.29 5262.66 1944.52C5272.7 1934.48 5311.95 1917.41 5317.5 1904.45C5322.39 1893.05 5321.22 1877.65 5330.16 1866.48C5358.53 1831.02 5398.56 1788.74 5418.75 1748.35C5407.08 1736.68 5392.75 1730.51 5382.89 1716.71C5373.8 1703.99 5371.22 1686.24 5359.69 1676.63C5347.58 1666.54 5328.44 1667.44 5315.39 1657.65C5300.25 1646.29 5284.31 1632.89 5271.1 1619.68C5250.88 1599.46 5264.7 1501.63 5287.97 1478.35C5279.4 1469.78 5283.09 1457.89 5275.32 1448.82C5265.48 1437.35 5243.25 1421.79 5239.46 1406.63C5223.9 1344.39 5208.4 1252.33 5157.19 1206.24C5144.6 1194.91 5123.36 1199.83 5106.57 1202.02C5088.31 1204.4 5080.64 1261.12 5077.03 1273.74C5056.43 1345.85 5056.99 1427.38 5020.08 1488.9C4990.33 1538.49 4977.89 1588.64 4977.89 1649.21C4977.89 1684.23 5001.82 1704.11 5011.64 1733.59C5012.31 1735.59 5012.93 1738.24 5011.64 1739.91C5000.58 1754.3 4981.05 1767.95 4971.57 1784.21C4945.1 1829.59 4935.71 1896.53 4935.71 1950.85C4935.71 1974.62 4959.06 1985.23 4956.8 2007.8C4955.38 2021.96 4942.45 2031.03 4939.93 2043.66C4933.22 2077.17 4908.33 2113.1 4899.85 2147.02C4898.55 2152.22 4888.19 2159.66 4887.19 2163.9C4874.2 2219.11 4889.3 2278.94 4889.3 2334.76C4889.3 2390.85 4869.4 2437.93 4891.41 2492.96C4905.52 2528.24 4942.92 2542.8 4963.13 2573.12Z" fill="#e6c33b" fill-rule="nonzero" opacity="1" stroke="none"/>
<path d="M4796.49 567.102C4773.05 590.535 4755.16 616.862 4731.1 640.93C4714.47 657.558 4687.37 665.675 4672.03 681.008C4669.93 678.898 4669.93 678.898 4667.82 676.789C4673.74 664.932 4698.16 610.75 4686.8 605.07C4685.96 604.651 4620.05 653.135 4608.75 659.914C4566.59 685.211 4517.06 700.388 4475.86 716.867C4396.98 748.422 4310.89 745.28 4226.96 748.508C4201.42 749.49 4158.65 759.132 4136.25 775.93C4124.86 784.474 4111.03 791.785 4100.39 801.242C4084.02 815.8 3986.98 924.077 4013.91 951.008C4027.08 937.837 4032.56 914.594 4043.44 898.273C4066.73 863.342 4093.48 829.436 4129.93 807.57C4151.25 794.775 4185.8 781.526 4203.75 805.461C4210.97 815.089 4205.05 829.644 4207.97 841.32C4209.92 849.098 4216.41 856.789 4214.3 864.523C4213.84 866.215 4144.67 901.447 4138.36 904.602C4076.73 935.417 4033.73 1009.07 3990.71 1060.7C3975.71 1050.7 3970.71 1029.15 3963.28 1014.29C3942.02 971.765 3897.91 932.04 3866.25 900.383C3839.08 873.21 3790.5 843.082 3754.46 828.664C3745.96 825.267 3729.61 820.694 3722.82 813.898C3734.73 801.984 3771.18 813.146 3786.1 818.117C3836.62 834.958 3882.91 870.628 3923.21 910.93C3931.49 919.21 3937.81 930.724 3944.3 940.461C3952.46 952.701 3980.67 1005.34 3992.82 993.195C3986.53 980.626 3992.32 964.24 3984.38 951.008C3957.6 906.384 3930.85 855.293 3891.57 816.008C3870.36 794.8 3797.35 748.233 3767.11 744.289C3738.03 740.496 3718.33 743.609 3691.18 735.852C3668.2 729.287 3653.68 708.621 3632.11 699.992C3613.79 692.663 3573.14 719.854 3554.07 725.305C3502.47 740.046 3444.45 742.543 3391.64 733.742C3338.9 724.952 3287.1 704.675 3239.77 681.008C3229.94 676.093 3168.11 638.709 3163.83 647.258C3156.03 662.855 3183.84 700.294 3191.25 712.648C3221.52 763.1 3290.89 806.206 3347.35 822.336C3368.66 828.425 3405.82 825.772 3419.07 843.43C3420.17 844.902 3387.13 864.433 3381.1 868.742C3347.98 892.4 3285.46 917.711 3319.93 963.664C3311.34 976.549 3296.28 966.664 3288.28 982.648C3295.66 990.024 3299.9 1000.59 3307.27 1007.96C3315.69 1016.39 3326.76 1014.8 3334.69 1022.73C3306.31 1051.1 3292.04 1182.76 3290.39 1218.9C3286.63 1301.68 3290.03 1413.89 3343.13 1484.68C3372.12 1523.34 3400.04 1560.58 3438.05 1592.26C3464.18 1614.03 3498.88 1630.05 3528.75 1644.99C3595.42 1678.33 3663.6 1718.78 3739.69 1737.8C3858.99 1767.63 3976.89 1767.06 4102.5 1752.57C4162.35 1745.67 4225.53 1720.83 4283.91 1712.49C4336.82 1704.93 4382.79 1671.8 4431.57 1655.54C4459.93 1646.08 4497.63 1643.81 4526.49 1653.43C4534.7 1656.17 4565.2 1682.48 4568.68 1670.3C4574.67 1649.32 4546.74 1608.44 4537.03 1592.26C4533.4 1586.2 4537.34 1577.8 4534.93 1571.16C4509.57 1501.43 4527.13 1490.04 4564.46 1434.05C4559.18 1427.73 4559.18 1427.73 4553.91 1421.4C4529 1446.31 4511.62 1476.33 4484.3 1499.45C4335.84 1625.06 4219.27 1657.88 4022.35 1666.09C3972.79 1668.15 3922.11 1669.18 3872.58 1666.09C3830.83 1663.48 3788.98 1658.29 3748.13 1649.21C3723.76 1643.8 3714.73 1634.31 3689.07 1632.34C3665.2 1630.5 3637.82 1611.58 3617.35 1602.8C3575.32 1584.79 3539.59 1571.45 3503.44 1535.3C3495.78 1527.64 3493.74 1514.85 3488.68 1507.88C3449.27 1453.71 3422.06 1392.97 3410.63 1324.37C3405.55 1293.92 3398.47 1178.32 3423.28 1153.51C3425.39 1155.62 3425.39 1155.62 3427.5 1157.73C3439.22 1146.01 3429.07 1123.13 3435.94 1107.1C3453.22 1066.79 3468.11 1026.42 3501.33 993.195C3560.73 933.793 3620.8 926.522 3697.5 908.82C3721.06 903.385 3760.45 896.924 3788.21 908.82C3835.14 928.934 3879.26 968.487 3912.66 1007.96C3938.6 1038.62 3954.98 1073.61 3971.72 1107.1C3980.63 1124.91 3977.89 1153.35 3992.82 1168.27C4005.15 1160.05 4030.47 1080.46 4039.22 1058.59C4060.65 1005.02 4106.58 948.288 4153.13 917.258C4202.66 884.239 4262.59 878.818 4319.77 864.523C4363.61 853.564 4414.75 845.522 4458.99 832.883C4480.02 826.874 4510.99 831.232 4532.82 828.664C4579.13 823.215 4630.12 804.269 4669.93 784.367C4684.7 776.981 4701.83 761.46 4714.22 750.617C4758.72 711.683 4784.13 671.222 4796.49 615.617C4799.93 600.11 4808.77 579.383 4796.49 567.102Z" fill="#8b392d" fill-rule="nonzero" opacity="1" stroke="none"/>
<path d="M3414.85 1644.99C3403.75 1656.09 3368.43 1665.04 3353.68 1672.41C3319.17 1689.67 3283.03 1724.07 3256.64 1750.46C3078.93 1928.18 3095.66 2243.46 3151.18 2465.54C3184.34 2598.19 3261.53 2730.24 3372.66 2813.59C3393.04 2828.87 3487.6 2892.71 3507.66 2872.65C3459.19 2824.18 3427.18 2777.52 3393.75 2724.99C3378.79 2701.47 3343.94 2675.49 3336.8 2646.95C3328.8 2614.93 3305.87 2587.2 3294.61 2556.24C3290.71 2545.52 3291.73 2528.24 3288.28 2516.16C3282.93 2497.44 3271.41 2466.02 3271.41 2446.55C3271.41 2425.38 3275.63 2403.24 3275.63 2381.16C3275.63 2353.73 3258.56 2319.02 3262.97 2292.57C3264.69 2282.26 3285.9 2290.67 3294.61 2284.13C3314.78 2269.01 3328.15 2251.37 3343.13 2231.4C3345.94 2234.21 3351.42 2235.86 3351.57 2239.84C3354.27 2312.21 3350.91 2384.68 3351.57 2457.1C3351.75 2477.11 3355.41 2498.37 3357.89 2518.27C3377.16 2672.43 3448.12 2770.65 3573.05 2874.76C3572 2876.87 3572 2876.87 3570.94 2878.98C3716.43 3024.46 3930.81 3096.21 4136.25 3064.6C4156.5 3061.49 4176.93 3048.1 4195.32 3043.51C4233.18 3034.04 4275.67 3025.67 4309.22 3005.54C4365.37 2971.85 4420.96 2929.66 4467.43 2883.2C4487.51 2863.11 4507 2835.72 4530.71 2819.91C4507.42 2788.87 4509.09 2733.96 4496.96 2697.57C4495.79 2694.08 4485.31 2688.89 4484.3 2682.8C4479.27 2652.62 4468.56 2624.08 4461.1 2594.21C4457.56 2580.05 4451.9 2521.73 4444.22 2514.05C4442.82 2515.46 4440.09 2516.29 4440 2518.27C4438.66 2549.89 4440.62 2581.56 4440 2613.2C4439.68 2629.89 4435.2 2647.48 4431.57 2663.82C4408.88 2765.92 4364.17 2843.01 4290.24 2916.95C4210.74 2996.45 4073.78 3003.43 3971.72 3003.43C3946.3 3003.43 3927.96 2992.27 3906.33 2988.66C3762.36 2964.67 3569.25 2862.09 3507.66 2708.12C3471.51 2617.74 3432.71 2520.21 3427.5 2421.24C3424.85 2370.82 3408.78 2320.78 3419.07 2269.37C3437.85 2175.45 3471.34 2081.83 3490.78 1984.6C3511.73 1879.9 3540.37 1747.31 3457.03 1663.98C3443.41 1650.36 3429.33 1654.65 3414.85 1644.99Z" fill="#8b392d" fill-rule="nonzero" opacity="1" stroke="none"/>
<path d="M5933.44-0.320297C5918.26 166.657 5937.65 340.873 5939.77 503.82C5941.16 610.686 5939.17 717.572 5939.77 824.445C5940.31 920.008 5950.32 1011.92 5950.32 1107.1C5950.32 1182.78 5940.83 1259.25 5943.99 1334.91C5958.74 1688.94 5968.59 2055.39 5935.55 2402.26C5924.94 2513.67 5922.62 2637.48 5895.47 2746.09C5881.43 2802.26 5881.31 2863.91 5853.28 2910.62C5845.23 2924.04 5847.87 2954.28 5842.74 2969.68C5835.47 2991.49 5802.73 3083.56 5783.68 3089.91C5783.68 3108.24 5770.23 3114.77 5764.69 3129.99C5758.58 3146.8 5759.46 3166.01 5752.03 3182.73C5723.12 3247.78 5684.95 3310.56 5655 3370.46C5643.25 3393.97 5641.8 3442.72 5623.36 3461.16C5625.71 3465.85 5604.67 3519.29 5608.6 3534.99C5612.53 3550.73 5632.37 3535.14 5640.24 3537.1C5648.45 3539.16 5653.24 3547.99 5659.22 3553.98C5685.92 3580.68 5668.99 3656.89 5629.69 3669.99C5613 3675.56 5594.51 3669.02 5576.96 3667.88C5565.45 3667.14 5485.74 3647.73 5484.14 3657.34C5481.4 3673.78 5487.86 3659.55 5490.47 3669.99C5494.39 3685.66 5488.67 3710.49 5498.91 3724.84C5505.88 3734.6 5517.33 3735.88 5526.33 3743.82C5553.31 3767.63 5568.52 3789.17 5587.5 3817.65C5607.9 3802.35 5619.48 3773.24 5644.46 3764.91C5724.02 3738.39 5799.74 3789.52 5846.96 3855.62C5863.03 3878.13 5866.74 3909.15 5887.03 3929.45C5915.77 3915.08 5939.75 3924.51 5962.97 3939.99C5973.69 3929.27 5964.22 3911.78 5969.3 3897.8C5979.5 3869.75 5998.97 3796.14 5996.72 3769.13C5996.14 3762.13 5985.03 3761.23 5979.85 3756.48C5971.78 3749.09 5965.75 3739.34 5956.64 3733.27C5941.71 3723.32 5938.48 3748.42 5914.46 3716.4C5906.43 3721.75 5899.87 3728.96 5891.25 3733.27C5878.04 3720.06 5851.76 3712.76 5836.41 3697.41C5810.7 3671.7 5804.27 3645.8 5790 3617.26C5784.2 3605.66 5771.83 3579.72 5792.11 3572.96C5823.52 3562.49 5860.88 3609.66 5870.16 3600.38C5834.77 3529.61 5799.33 3442.38 5813.21 3368.35C5817.22 3346.96 5846.15 3361.94 5851.18 3349.37C5893.16 3244.41 5975.34 3129.49 5984.07 3016.09C5984.84 3005.98 5996.71 2990.09 5996.72 2982.34C5998.13 1988.12 5996.72 993.898 5996.72-0.320297C5965.08-0.320297 5965.08-0.320297 5933.44-0.320297Z" fill="#ab5d35" fill-rule="nonzero" opacity="1" stroke="none"/>
<path d="M2216.72 826.555C2172.13 822.761 2143.33 853.697 2094.38 845.539C2080.4 843.209 2056.12 824.686 2043.75 834.992C2027.88 848.219 1984.85 948.002 1984.69 965.773C1984 1041 1984.05 1116.24 1984.69 1191.48C1984.75 1198.54 1986.21 1205.53 1986.8 1212.57C2004.52 1425.22 2000.27 1633.29 2016.33 1847.49C2019.47 1889.38 2035.35 1940.63 2039.53 1982.49C2043.99 2027.01 2040.39 2074.08 2052.19 2115.38C2058.46 2137.32 2054.34 2182.15 2056.41 2197.65C2058.06 2210.03 2069.91 2232.91 2071.18 2246.16C2076.87 2305.95 2075.99 2363.24 2083.83 2423.35C2092.78 2491.98 2106.6 2561.19 2113.36 2632.18C2115.64 2656.05 2122.19 2665.25 2123.91 2680.7C2129.67 2732.56 2121.5 2749.76 2170.32 2769.29C2177.32 2772.09 2177.86 2778.73 2187.19 2775.62C2189.08 2774.99 2191.36 2773.39 2191.41 2771.4C2192.78 2719.39 2188.74 2667.27 2191.41 2615.3C2191.61 2611.33 2199.56 2610.83 2199.85 2606.87C2204.77 2538.01 2205.59 2461.04 2206.18 2391.71C2207.53 2232.11 2208.28 2072.49 2208.28 1912.88C2208.28 1782.28 2206.8 1657.95 2208.28 1524.76C2210.56 1319.82 2218.75 1114.4 2220.94 908.82C2221.23 881.364 2244.08 828.882 2216.72 826.555Z" fill="#35937c" fill-rule="nonzero" opacity="1" stroke="none"/>
<path d="M5817.43 1242.1C5801.74 1257.79 5791.88 1283.11 5764.69 1284.29C5750.62 1284.9 5736.58 1286.4 5722.5 1286.4C5718.88 1286.4 5699.41 1273.17 5699.3 1284.29C5695.06 1725.16 5720.39 2143.62 5720.39 2579.45C5720.39 2638.89 5725.07 2656.96 5730.94 2703.9C5731.48 2708.21 5743.05 2709.68 5745.71 2712.34C5796.43 2763.06 5826.31 2773.28 5893.36 2739.76C5896.53 2742.92 5896.53 2742.92 5899.69 2746.09C5904.8 2740.98 5915.61 2659.61 5916.57 2644.84C5917.74 2626.58 5916.73 2608.18 5918.68 2589.99C5919.14 2585.65 5926.68 2575.33 5927.11 2571.01C5935.39 2488.24 5939.05 2414.14 5943.99 2332.65C5949.88 2235.5 5953.76 2130.7 5954.53 2031.01C5955.6 1893.9 5957.34 1756.79 5956.64 1619.68C5956.6 1611.51 5916.16 1594.64 5912.35 1592.26C5889.99 1578.29 5890.51 1557.01 5880.71 1537.41C5879.46 1534.93 5901.22 1507.56 5906.02 1501.55C5914.17 1491.37 5916.57 1447.58 5916.57 1436.16C5916.57 1429.88 5908.98 1425.52 5908.13 1419.29C5906.32 1406.05 5910.42 1392.37 5908.13 1379.21C5907.19 1373.8 5898.66 1371.94 5897.58 1366.55C5890.06 1328.96 5853.09 1290.42 5825.86 1263.2C5818.57 1255.9 5824.47 1249.15 5817.43 1242.1Z" fill="#68b768" fill-rule="nonzero" opacity="1" stroke="none"/>
<path d="M5522.11 3106.79C5507.98 3120.92 5504 3139.66 5488.36 3155.3C5480.04 3163.63 5468.17 3164.95 5460.94 3172.18C5463.05 3174.29 5463.05 3174.29 5465.16 3176.4C5463.05 3178.51 5463.05 3178.51 5460.94 3180.62C5445.52 3170.34 5412.96 3180.62 5397.66 3180.62C5386.58 3180.62 5365.58 3169.29 5355.47 3172.18C5347.92 3174.34 5336.55 3228.05 5313.28 3239.68C5300.08 3226.48 5306.8 3209.84 5298.52 3193.27C5298.19 3193.6 5271.1 3285.02 5271.1 3292.41C5271.1 3311.71 5290.43 3301.91 5287.97 3338.82C5287 3353.39 5276.77 3368.87 5273.21 3383.12C5254.87 3456.44 5228.17 3546.17 5262.66 3615.15C5250.73 3627.08 5210.86 3618.2 5199.38 3606.71C5175.77 3618.52 5103.22 3582.64 5087.58 3598.27C5111.2 3621.89 5072.55 3686.62 5045.39 3688.98C5010.31 3692.03 4976.97 3687.93 4942.03 3684.76C4883.58 3679.44 4825.17 3673.54 4766.96 3665.77C4685.95 3654.97 4597.73 3658.05 4665.71 3556.09C4650.18 3540.56 4640.45 3550.65 4610.86 3549.76C4586.44 3549.02 4459.51 3526.03 4446.33 3539.21C4442.26 3543.28 4464.48 3564.32 4467.43 3568.74C4473.31 3577.57 4478.49 3597.17 4480.08 3606.71C4481.7 3616.42 4492.42 3613.92 4496.96 3621.48C4499.54 3625.78 4504.07 3644.36 4505.39 3651.01C4518.5 3716.55 4486.01 3797.72 4511.72 3857.73C4516.21 3868.21 4543.69 3865.68 4549.69 3866.16C4598.93 3870.1 4648.02 3876.53 4697.35 3878.82C4849.84 3885.91 5000.24 3892.38 5152.97 3904.13C5198.97 3907.67 5265.47 3922.3 5309.07 3904.13C5324.52 3897.69 5317.2 3853.32 5317.5 3847.18C5318.48 3827.55 5332.48 3816.82 5336.49 3800.77C5339.27 3789.63 5332.96 3772.66 5340.71 3764.91C5342.82 3765.97 5342.82 3765.97 5344.93 3767.02C5358.73 3753.22 5377.37 3715.27 5401.88 3714.29C5418.04 3713.64 5434.23 3713.67 5450.39 3714.29C5467.41 3714.94 5486.81 3730.28 5503.13 3724.84C5503.13 3669.03 5490.34 3650.34 5439.85 3642.57C5428.15 3640.77 5373.31 3643.72 5368.13 3629.91C5355.01 3594.94 5420.52 3588.7 5422.97 3566.63C5424.8 3550.21 5419.68 3532.28 5418.75 3516.01C5414.56 3442.64 5408.95 3364.13 5503.13 3364.13C5513.57 3364.13 5527.69 3373.93 5534.77 3381.01C5561.25 3407.49 5552.8 3460.21 5570.63 3478.04C5596.46 3452.2 5596.59 3419.79 5612.82 3387.34C5594.85 3369.37 5552.34 3331 5549.53 3302.96C5547.81 3285.74 5548.7 3272.47 5545.32 3254.45C5544.13 3248.11 5535.98 3241.85 5534.77 3233.35C5529.17 3194.15 5545.24 3135.7 5522.11 3106.79Z" fill="#f7945d" fill-rule="nonzero" opacity="1" stroke="none"/>
<path d="M5631.8 288.664C5576.45 316.339 5530.55 395.498 5530.55 457.414C5530.55 469.478 5558.14 511.428 5557.97 512.258C5556.2 521.141 5523.67 542.342 5520 546.008C5476.95 589.062 5475.42 649.877 5528.44 685.227C5520.95 692.722 5506.8 689.776 5496.8 695.773C5443.36 727.839 5439.85 778.402 5439.85 834.992C5439.85 858.514 5462.54 889.325 5477.82 904.602C5482.3 909.081 5496.71 911.3 5494.69 919.367C5488.23 945.214 5458.74 971.182 5444.07 993.195C5421.83 1026.55 5406.54 1066.41 5385 1096.55C5331.22 1171.85 5274.32 1266.42 5353.36 1345.46C5376.6 1368.69 5418.42 1374.99 5448.28 1374.99C5471.33 1374.99 5458.81 1369.71 5469.38 1374.99C5486.44 1357.94 5504.8 1343.78 5522.11 1326.48C5536.48 1312.11 5535.1 1286.06 5549.53 1271.63C5571.47 1293.57 5619.14 1330.47 5619.14 1280.07C5619.14 1168.98 5618.68 1057.88 5619.14 946.789C5619.52 858.127 5622.92 771.299 5625.47 683.117C5626.59 644.404 5623.4 604.909 5631.8 567.102C5632.38 564.493 5628.09 550.101 5636.02 548.117C5661.57 541.73 5656.08 581.621 5657.11 596.633C5660.11 640.114 5674.49 689.081 5676.1 731.633C5677.45 767.467 5674.74 803.377 5676.1 839.211C5679.59 931.791 5685.53 1020.72 5686.64 1115.54C5687.25 1166.88 5686.38 1218.37 5690.86 1269.52C5694.16 1307.06 5786.14 1286.05 5808.99 1263.2C5829.76 1242.43 5838.93 1205.42 5851.18 1180.93C5855.34 1172.6 5866.34 1165.88 5868.05 1155.62C5870 1143.93 5878.05 1116.09 5887.03 1107.1C5873.93 1080.88 5870.21 1045 5859.61 1018.51C5850.16 994.883 5812.58 958.814 5798.44 944.68C5790.42 936.656 5785.9 944.909 5779.46 932.023C5775.14 923.395 5794.12 902.639 5798.44 896.164C5815.76 870.191 5835.99 837.034 5838.52 805.461C5846.14 710.22 5789.03 671.76 5728.83 602.961C5723.77 597.175 5749.19 579.112 5754.14 569.211C5763.91 549.681 5765.14 518.229 5756.25 497.492C5724.35 423.048 5690.05 352.209 5631.8 288.664Z" fill="#63cec5" fill-rule="nonzero" opacity="1" stroke="none"/>
<path d="M5614.93 2999.21C5624.39 3018.14 5644.99 3032.19 5652.89 3051.95C5661.99 3074.68 5673.21 3110.23 5690.86 3127.88C5716.19 3102.55 5687.95 2996.54 5766.8 3068.82C5774.86 3076.21 5781.46 3085.19 5790 3092.02C5809.6 3078.96 5844.7 2981.89 5846.96 2957.02C5847.75 2948.3 5864.66 2910.95 5853.28 2906.4C5845.84 2903.42 5838 2911.48 5830.08 2912.73C5818.97 2914.48 5807.44 2910.97 5796.33 2912.73C5782.09 2914.97 5792.11 2956.48 5792.11 2961.24C5792.11 2963.41 5757.8 3031.41 5756.25 3032.96C5747.33 3024.04 5750.81 2997.76 5749.93 2984.45C5748.94 2969.7 5749.73 2954.81 5747.82 2940.15C5740.55 2884.46 5741.58 2818.11 5739.38 2758.74C5738.82 2743.56 5748.39 2671.74 5724.61 2663.82C5724.61 2635.7 5724.61 2607.57 5724.61 2579.45C5724.61 2454.29 5726 2329.13 5724.61 2203.98C5724.32 2177.92 5721.8 2151.95 5720.39 2125.93C5720.1 2120.56 5712.08 2105.88 5711.96 2100.62C5710.58 2040.87 5713.33 1981.07 5711.96 1921.32C5710.73 1867.88 5708.31 1814.46 5707.74 1761.01C5706.03 1602.1 5704.28 1443.2 5703.52 1284.29C5703.49 1278.62 5695.48 1275.18 5695.08 1269.52C5688.29 1172.75 5700.08 1068.29 5686.64 974.211C5680.48 931.05 5687.05 886.957 5684.53 843.43C5680.6 775.161 5670.59 702.557 5663.44 634.602C5660.92 610.647 5668.79 573.589 5657.11 550.227C5641.74 519.49 5623.67 563.028 5623.36 571.32C5622.01 607.858 5623.9 644.449 5623.36 681.008C5622.89 713.379 5619.74 745.67 5619.14 778.039C5618.12 833.581 5617.5 889.13 5617.03 944.68C5616.1 1056.47 5614.23 1168.27 5614.93 1280.07C5617.61 1711.93 5619.14 2146.93 5619.14 2581.55C5619.14 2717.97 5624.29 2841.71 5619.14 2978.12C5618.86 2985.63 5620.92 2993.22 5614.93 2999.21Z" fill="#e76e34" fill-rule="nonzero" opacity="1" stroke="none"/>
<path d="M5638.13 4098.2C5647.44 4098.2 5642.96 4096.7 5650.78 4104.52C5634.46 4120.84 5652.58 4114 5661.33 4117.18C5672.22 4121.14 5685.1 4141.32 5690.86 4150.93C5716.55 4193.75 5743.18 4236.72 5768.91 4279.6C5775.39 4290.41 5790 4303.5 5790 4315.46C5851.56 4318.7 5846.33 4295.36 5893.36 4245.85C5904.17 4256.66 5854.62 4303.97 5846.96 4315.46C5921.84 4316.52 5921.84 4316.52 5996.72 4317.57C5996.72 4277.49 5998.1 4237.39 5996.72 4197.34C5996.46 4189.61 5974.12 4169.01 5969.3 4159.37C5983.32 4145.35 5978.35 4109.96 5971.41 4096.09C5980.85 4086.65 5996.1 4080 5996.72 4064.45C5998.07 4030.72 5996.72 3996.95 5996.72 3963.2C5978.98 3957.28 5968.84 3933.48 5948.21 3925.23C5931.16 3918.41 5889.77 3926.22 5882.82 3921.01C5877.95 3917.36 5875.8 3899.48 5872.27 3893.59C5860.79 3874.45 5850.4 3852.23 5834.3 3834.52C5764.05 3757.25 5662.16 3714.59 5589.61 3811.32C5567.45 3789.16 5551.07 3762.23 5528.44 3739.6C5500.96 3712.12 5436.7 3710.07 5401.88 3710.07C5376.44 3710.07 5353.99 3746.34 5359.69 3769.13C5365.44 3792.13 5419.73 3848.5 5435.63 3866.16C5487.57 3923.88 5534.38 3986.3 5587.5 4043.35C5604.46 4061.56 5630.26 4074.59 5638.13 4098.2Z" fill="#fca82f" fill-rule="nonzero" opacity="1" stroke="none"/>
<path d="M5334.38 3762.8C5334.38 3794.77 5318.32 3814.37 5315.39 3845.07C5305.77 3946.09 5357.16 4000.89 5439.85 4056.01C5431.61 4064.24 5418.89 4059.1 5408.21 4064.45C5396.2 4070.45 5382.43 4081.79 5372.35 4091.87C5324.86 4139.35 5425.52 4222.98 5450.39 4241.63C5436.92 4255.11 5436.33 4272.58 5425.08 4283.82C5385.99 4244.73 5300.12 4143 5235.24 4207.88C5216.94 4189.59 5208.72 4162.05 5190.94 4142.49C5119.65 4064.08 5056.35 4041.24 4950.47 4041.24C4940.31 4041.24 4918.99 4062.18 4914.61 4066.55C4870.85 4110.32 5005.76 4216.38 5026.41 4235.3C5039.24 4247.07 5052.07 4258.85 5064.38 4271.16C5071.54 4278.33 5100.59 4317.27 5112.89 4317.57C5333.61 4323.04 5554.46 4317.57 5775.24 4317.57C5775.24 4278.91 5726.68 4223.29 5705.63 4195.23C5695.06 4181.13 5672.83 4154.2 5686.64 4140.38C5677.68 4122.46 5661.76 4119.72 5650.78 4108.74C5652.89 4106.63 5652.89 4106.63 5655 4104.52C5567.97 4017.49 5488.34 3925.9 5408.21 3832.41C5394.99 3816.99 5368.84 3787.64 5363.91 3769.13C5363.14 3766.24 5369.58 3745.67 5359.69 3741.71C5349.94 3737.81 5344.7 3759.36 5334.38 3762.8Z" fill="#f88b27" fill-rule="nonzero" opacity="1" stroke="none"/>
<path d="M3412.74 1647.1C3421.82 1656.18 3432.44 1650.28 3442.27 1657.65C3486.57 1690.87 3502.67 1737.87 3505.55 1792.65C3506.99 1820.03 3508.58 1847.66 3505.55 1874.91C3505.07 1879.21 3496.77 1915.47 3505.55 1921.32C3515.03 1927.64 3550.28 1926.12 3562.5 1927.65C3624.32 1935.38 3685.6 1935.69 3748.13 1938.2C3858.49 1942.61 3968.08 1936.09 4077.19 1936.09C4170.27 1936.09 4263.75 1931.56 4351.41 1902.34C4351.41 1881.48 4361.89 1868.1 4364.07 1849.6C4372.57 1777.29 4389.85 1719.29 4435.78 1661.87C4432.62 1657.65 4432.62 1657.65 4429.46 1653.43C4317.12 1709.6 4177.33 1743.95 4053.99 1748.35C3956.99 1751.82 3865.64 1767.18 3773.44 1744.13C3690.44 1723.38 3613.55 1686.34 3539.3 1649.21C3512.33 1635.72 3488.3 1612.36 3459.14 1600.7C3450.35 1597.18 3417.11 1638.36 3412.74 1647.1Z" fill="#f7945d" fill-rule="nonzero" opacity="1" stroke="none"/>
<path d="M4804.93 3045.62C4784.17 3066.37 4757.71 3069.7 4735.32 3094.13C4720.16 3110.67 4727.21 3144.22 4724.77 3163.74C4722.97 3178.11 4687.47 3191.28 4686.8 3210.15C4686.15 3228.42 4686.21 3246.72 4686.8 3264.99C4688.31 3311.84 4736.3 3327.99 4720.55 3383.12C4718.17 3391.45 4662.88 3391.56 4648.83 3399.99C4605.91 3425.75 4513.37 3472.72 4522.27 3534.99C4524.9 3553.43 4562.73 3546.01 4575 3547.65C4582.57 3548.66 4726.23 3563.06 4733.21 3556.09C4706.44 3529.32 4710.14 3423.44 4764.85 3429.52C4805.38 3434.03 4862.92 3490.13 4876.64 3524.45C4881.53 3536.66 4885.01 3559.9 4895.63 3568.74C4909.39 3580.21 4953.9 3574.26 4975.78 3577.18C4989.21 3578.97 5029 3591.47 5039.07 3581.4C5020.73 3544.72 5025.52 3495.58 5015.86 3456.95C5010.1 3433.9 4981.82 3421.71 4973.68 3399.99C4957.66 3357.3 4957.62 3310.48 4946.25 3264.99C4939.15 3236.57 4979.27 3217.41 4982.11 3193.27C4984.63 3171.87 4954.86 3018.36 4939.93 3003.43C4927.34 3016.01 4917.66 2985.86 4912.5 2978.12C4880.99 2930.85 4859.71 2914.84 4809.14 2914.84C4773.13 2914.84 4771.18 2971.51 4771.18 2992.88C4771.18 3009.54 4796.21 3032.55 4804.93 3045.62Z" fill="#deaa39" fill-rule="nonzero" opacity="1" stroke="none"/>
<path d="M2463.52 117.805C2452.79 128.531 2448.22 158.159 2442.43 172.648C2433.48 195.009 2410.7 219.143 2393.91 235.93C2387.24 242.602 2321.92 287 2320.08 292.883C2315.27 308.275 2323.64 366.992 2324.3 377.258C2328.26 438.689 2336.56 502.476 2343.28 560.773C2348.42 605.24 2348.58 661.856 2351.72 704.211C2353.13 723.195 2342.48 747.703 2355.94 761.164C2360.16 756.945 2360.16 756.945 2364.38 752.727C2413.44 801.792 2491.43 750.534 2526.8 706.32C2528.91 707.375 2528.91 707.375 2531.02 708.43C2539.9 699.545 2535.25 683.104 2545.78 672.57C2559.83 681.931 2575.23 675.756 2587.97 672.57C2684.16 648.522 2695.55 589.882 2695.55 495.383C2695.55 470.216 2681.55 447.065 2674.46 425.773C2643.01 331.443 2573.8 249.642 2503.6 174.758C2488.08 158.211 2478 132.284 2463.52 117.805Z" fill="#63cec5" fill-rule="nonzero" opacity="1" stroke="none"/>
<path d="M2223.05 1037.49C2224.46 1036.09 2227.25 1035.26 2227.27 1033.27C2228.66 903.203 2226.68 773.116 2227.27 643.039C2227.89 505.924 2229.97 368.819 2231.49 231.711C2232.11 175.447 2232.85 119.156 2235.71 62.961C2237.74 22.8929 2241.59 27.0805 2286.33 29.211C2288.44 29.3115 2294.35 33.8745 2294.77 35.5391C2310.99 100.419 2303.85 165.461 2311.64 231.711C2312.11 235.661 2319.5 236.214 2320.08 240.148C2322.67 257.592 2311.83 280.414 2324.3 292.883C2335.73 281.451 2352.68 274.236 2364.38 265.461C2414.85 227.604 2442.74 186.46 2461.41 130.461C2465.24 118.964 2450.6 0.0232726 2431.88-0.320297C2356.66-1.70051 2281.4-1.70051 2206.18-0.320297C2201.46-0.233766 2197.02 2.85252 2193.52 6.00783C2126.08 66.7028 2193.24 114.272 2187.19 174.758C2184.81 198.582 2138.18 232.117 2123.91 248.586C2101.11 274.896 2085.24 307.654 2075.39 337.18C2064.99 368.381 2066.13 408.121 2075.39 440.539C2079.4 454.547 2107.95 485.375 2104.93 497.492C2100.12 516.71 2074.21 538.381 2062.74 554.445C2027.97 603.123 1975.83 693.935 1999.46 756.945C2031.19 841.556 2072.59 846.795 2155.55 849.758C2163.6 850.045 2218.5 831.386 2218.83 837.102C2222.52 901.688 2214.64 966.506 2216.72 1031.16C2216.82 1034.15 2220.94 1035.38 2223.05 1037.49Z" fill="#47ada3" fill-rule="nonzero" opacity="1" stroke="none"/>
<path d="M2341.18 3921.01C2330.89 3931.3 2336.94 3946.34 2326.41 3956.87C2320.76 3951.22 2292.9 3907.18 2286.33 3910.46C2268.05 3919.6 2283.52 3951.24 2282.11 3971.63C2281.28 3983.64 2277.35 3995.47 2277.89 4007.49C2278.31 4016.59 2287.61 4032.28 2286.33 4041.24C2286.04 4043.25 2196.91 4087.55 2193.52 4104.52C2193.09 4106.67 2251.96 4177.11 2258.91 4191.01C2273.4 4219.98 2282.55 4255.66 2288.44 4288.04C2289.17 4292.06 2292.52 4317.45 2298.99 4317.57C2373.51 4318.95 2448.06 4318.95 2522.58 4317.57C2524.57 4317.53 2524.95 4314.09 2526.8 4313.35C2568.41 4296.71 2618.79 4276.21 2653.36 4241.63C2676.24 4218.75 2653.11 4175.1 2636.49 4155.15C2630.37 4147.8 2613.74 4139.49 2619.61 4131.95C2637.44 4109.03 2670.18 4098.25 2691.33 4077.1C2753.18 4015.25 2724.39 3962.05 2649.14 3952.65C2608.86 3947.61 2578.47 3968.39 2552.11 3996.95C2542.66 4007.18 2545.66 4022.78 2533.13 4032.8C2521.78 4041.88 2473.2 4044.8 2457.19 4041.24C2426.4 4034.4 2374.5 3937.67 2341.18 3921.01Z" fill="#138c63" fill-rule="nonzero" opacity="1" stroke="none"/>
<path d="M3623.68 699.992C3682.34 758.657 3773.03 732.376 3836.72 780.148C3889.19 819.499 3929.31 860.64 3963.28 917.258C3974.15 935.367 3976.6 968.54 3990.71 982.648C4005.79 967.567 4016.95 934.878 4020.24 915.148C4027.64 870.738 4109.25 782.682 4153.13 771.711C4166.37 768.4 4181.95 758.822 4193.21 756.945C4236.23 749.775 4280.4 754.283 4323.99 752.727C4361.38 751.391 4483.76 732.172 4511.72 704.211C4503.7 696.184 4468.7 691.979 4454.77 687.336C4407.01 671.415 4364.51 654.919 4315.55 640.93C4132.75 588.702 3965.97 588.579 3781.88 634.602C3746.91 643.345 3648.4 675.267 3623.68 699.992Z" fill="#c76c48" fill-rule="nonzero" opacity="1" stroke="none"/>
<path d="M3718.6 984.758C3467.18 1011.63 3503.04 1396.09 3756.57 1396.09C3777.63 1396.09 3807.35 1385.42 3824.07 1372.88C3911.73 1307.13 3955.69 1269.53 3931.64 1149.29C3926.92 1125.67 3921.81 1092.34 3904.22 1071.24C3852.74 1009.46 3796.81 976.398 3718.6 984.758Z" fill="#faf5cf" fill-rule="nonzero" opacity="1" stroke="none"/>
<path d="M5414.53 2967.57C5375.11 2980.71 5346.14 2982.63 5319.61 3022.41C5293.84 2996.65 5297.13 2979.83 5254.22 2967.57C5237.1 2962.68 5216.42 2982.93 5205.71 2992.88C5163.15 3032.4 5131.94 3065.89 5127.66 3123.66C5126.52 3139.09 5130.69 3154.9 5127.66 3170.07C5125.53 3180.74 5109.15 3170.57 5102.35 3176.4C5092.5 3184.84 5078.2 3207.82 5072.82 3218.59C5066.51 3231.2 5085.49 3265.05 5089.69 3277.65C5103.48 3319.03 5128.27 3368.83 5133.99 3412.65C5136.2 3429.61 5134.77 3447.97 5142.43 3463.27C5154.13 3486.67 5124.47 3592.69 5157.19 3606.71C5166.42 3610.67 5196.49 3617.37 5203.6 3606.71C5205.55 3603.79 5203.65 3599.68 5203.6 3596.16C5202.91 3549.76 5201.49 3503.36 5201.49 3456.95C5201.49 3444.02 5212.88 3424.47 5216.25 3412.65C5232.36 3356.28 5246.11 3306.52 5271.1 3256.55C5278.99 3240.76 5281.86 3220.48 5294.3 3208.04C5302.66 3216.4 5295.75 3224.26 5304.85 3233.35C5303.79 3235.46 5303.79 3235.46 5302.74 3237.57C5332.63 3267.46 5345.3 3183.76 5357.58 3176.4C5364.92 3172 5374.44 3179.32 5382.89 3180.62C5402.79 3183.68 5401.51 3184.84 5429.3 3184.84C5445.22 3184.84 5450.61 3175.66 5460.94 3191.16C5466.73 3185.38 5464.04 3180.74 5467.27 3174.29C5472.1 3164.62 5494.03 3153.86 5501.02 3146.87C5511.65 3136.23 5512.04 3121.08 5522.11 3111.01C5524.22 3113.12 5524.22 3113.12 5526.33 3115.23C5538.66 3102.9 5535.39 3060.3 5538.99 3043.51C5542.11 3028.93 5577.77 3016.4 5587.5 3003.43C5593.23 2995.79 5549.65 2960.13 5547.43 2961.24C5539.21 2965.35 5531.62 2996.03 5522.11 3005.54C5507.46 3020.2 5492.88 3013.23 5477.82 3009.76C5436.16 3000.14 5440.37 3002.02 5414.53 2967.57Z" fill="#f88b27" fill-rule="nonzero" opacity="1" stroke="none"/>
<path d="M4214.3 984.758C4088.26 998.816 4069.87 1116.94 4075.08 1231.55C4075.44 1239.53 4082.27 1260.41 4087.74 1269.52C4132 1343.3 4190.3 1381.32 4279.69 1381.32C4294.28 1381.32 4305.96 1374.12 4317.66 1370.77C4409.53 1344.52 4450.11 1278.53 4461.1 1185.15C4464.05 1160.07 4461.32 1117.24 4444.22 1094.45C4373.62 1000.31 4335.19 971.274 4214.3 984.758Z" fill="#faf5cf" fill-rule="nonzero" opacity="1" stroke="none"/>
<path d="M3564.61 2556.24C3560.39 2560.46 3560.39 2560.46 3556.18 2564.68C3568.72 2589.77 3562.46 2621.52 3570.94 2646.95C3573.57 2654.84 3584.42 2663.76 3587.82 2672.26C3639.04 2800.31 3770.51 2895.95 3906.33 2906.4C4008.43 2914.25 4102.58 2906.32 4176.33 2832.57C4187.54 2821.37 4221.62 2789.02 4220.63 2784.05C4218.9 2775.41 4182.18 2775.23 4172.11 2767.18C4160.39 2757.8 4068.24 2666.36 4072.97 2642.73C4074.73 2633.91 4082.46 2637.46 4087.74 2632.18C4071.91 2616.35 4049.64 2603.76 4032.89 2583.66C4021.85 2594.7 4028.05 2614.53 4026.57 2630.07C4024.88 2647.81 3999.7 2686.74 3982.27 2695.46C3937.31 2717.94 3891.07 2683.09 3857.82 2655.38C3850.48 2649.27 3829.69 2615.48 3821.96 2617.41C3806.06 2621.39 3792.43 2663.81 3786.1 2676.48C3769.24 2710.19 3744.57 2713.45 3718.6 2724.99C3669.93 2746.62 3609.64 2613.15 3627.89 2585.77C3612.26 2570.14 3581.36 2572.99 3564.61 2556.24Z" fill="#fec98b" fill-rule="nonzero" opacity="1" stroke="none"/>
<path d="M1784.3 1615.46C1763.32 1636.45 1775.35 1661.65 1765.32 1685.07C1757.06 1704.34 1719.74 1739.55 1710.47 1748.35C1703.81 1754.68 1691.11 1758.46 1680.94 1761.01C1680.24 2081.63 1678.13 2402.26 1678.83 2722.88C1678.84 2728.47 1698.88 2736.61 1702.03 2739.76C1707.83 2733.97 1704.37 2736.17 1712.58 2733.43C1712.58 2710.38 1725.35 2663.71 1742.11 2646.95C1757.29 2662.13 1769.01 2681.49 1788.52 2691.24C1789.93 2689.84 1792.69 2689.01 1792.74 2687.02C1794.11 2627.27 1793.29 2567.49 1792.74 2507.73C1791.86 2411.61 1788.52 2320.01 1788.52 2220.85C1788.52 2184.99 1789.81 2149.13 1790.63 2113.27C1792.1 2048.59 1793.69 1983.9 1794.85 1919.21C1795.63 1875.62 1796.96 1832.03 1796.96 1788.43C1796.96 1764.51 1795.91 1740.6 1794.85 1716.71C1793.45 1685.33 1790.82 1653.07 1788.52 1619.68C1788.38 1617.7 1785.71 1616.87 1784.3 1615.46Z" fill="#35937c" fill-rule="nonzero" opacity="1" stroke="none"/>
<path d="M2263.13 3686.87C2261.02 3688.98 2261.02 3688.98 2258.91 3691.09C2237.38 3669.56 2225.61 3666 2199.85 3653.12C2190.15 3662.81 2184.93 3660.72 2174.53 3676.32C2168.53 3685.33 2168.7 3722.04 2168.21 3724.84C2156.6 3790.61 2184 3872.96 2208.28 3933.66C2217.48 3956.66 2273.76 4043.27 2288.44 4028.59C2280.68 4013.07 2283.38 3921.85 2290.55 3914.68C2304.52 3928.65 2314.53 3947.36 2326.41 3963.2C2337.57 3952.04 2332.39 3938.23 2343.28 3927.34C2377.33 3956.52 2407.06 3987.14 2431.88 4024.37C2439.51 4016.74 2444.67 4001 2452.97 3990.62C2502.84 3928.28 2538.01 3858.1 2535.24 3777.57C2534.37 3752.39 2501.59 3663.88 2463.52 3680.54C2436.56 3692.34 2414.57 3775.05 2396.02 3802.88C2387.45 3794.31 2395.71 3787.3 2396.02 3777.57C2396.68 3756.49 2396.59 3735.38 2396.02 3714.29C2394.79 3668.79 2376.83 3616.05 2339.07 3587.73C2283.57 3546.1 2245.24 3651.09 2263.13 3686.87Z" fill="#3cb97f" fill-rule="nonzero" opacity="1" stroke="none"/>
<path d="M4612.97 2018.35C4599.02 2032.31 4608.75 2057.68 4608.75 2077.41C4608.75 2101.99 4608.08 2126.93 4608.75 2151.24C4609.13 2164.97 4631.19 2247.51 4636.18 2252.49C4654.17 2234.5 4663.47 2200.21 4686.8 2180.77C4687.88 2179.87 4689.76 2180.14 4691.02 2180.77C4700.26 2185.39 4723.64 2271.1 4720.55 2279.91C4711.59 2305.51 4660.13 2300.1 4657.27 2311.55C4654.85 2321.22 4665.68 2345.23 4667.82 2351.63C4675.89 2375.85 4686.05 2464.79 4701.57 2480.3C4713.04 2468.83 4707.3 2438.1 4712.11 2421.24C4716.53 2405.77 4737.71 2428.41 4739.53 2433.9C4742.73 2443.47 4751.41 2453.8 4754.3 2463.43C4763.57 2494.32 4747.63 2530.58 4773.28 2556.24C4802.38 2527.14 4807.1 2406.14 4815.47 2364.29C4829.31 2295.08 4823.91 2193.51 4823.91 2132.26C4823.91 2077.04 4799.45 2015.21 4779.61 1965.62C4770.63 1943.17 4770.41 1914.61 4760.63 1891.79C4722.91 1803.78 4677.18 1714.01 4585.55 1668.2C4573.52 1662.18 4577.08 1715.95 4581.33 1723.04C4589.87 1737.27 4600.15 1764.64 4604.53 1779.99C4610.54 1801.02 4649.71 1816.82 4650.94 1839.05C4652.27 1862.92 4649.61 1886.9 4650.94 1910.77C4651.09 1913.4 4660.98 1918.2 4661.49 1919.21C4668.67 1933.58 4669.92 1947.32 4678.36 1961.4C4690.03 1980.84 4699.46 2049.49 4699.46 2071.09C4699.46 2110.69 4637.17 2084.74 4621.41 2068.98C4607.42 2054.99 4626.88 2032.26 4612.97 2018.35Z" fill="#c76c48" fill-rule="nonzero" opacity="1" stroke="none"/>
<path d="M1767.43 681.008C1751.55 696.882 1746.44 731.412 1735.78 752.727C1686.8 850.699 1683.12 1016.54 1731.57 1113.43C1718.73 1126.26 1678.96 1171.38 1678.83 1189.37C1677.44 1380.61 1678.83 1571.87 1678.83 1763.12C1702.46 1769.02 1764.1 1707.4 1769.53 1689.29C1775.81 1668.37 1763.59 1682.57 1773.75 1672.41C1758.2 1641.31 1786.32 1638.95 1788.52 1615.46C1792.74 1570.45 1786.4 1523.42 1784.3 1478.35C1774.19 1260.92 1784.3 1044.03 1784.3 826.555C1784.3 803.211 1781.52 695.106 1767.43 681.008Z" fill="#68b768" fill-rule="nonzero" opacity="1" stroke="none"/>
<path d="M3043.6 3963.2C2940.98 3983.72 2960.69 4104.16 2948.68 4176.24C2947.09 4185.77 2935.92 4176.24 2931.8 4176.24C2917.57 4176.24 2901.47 4185.48 2891.72 4195.23C2861.37 4225.58 2855.31 4275.18 2851.64 4315.46C2979.61 4316.16 3107.58 4318.27 3235.55 4317.57C3237.54 4317.56 3239.64 4315.34 3239.77 4313.35C3241.08 4292.3 3240.37 4271.16 3239.77 4250.07C3239.22 4230.94 3232.95 4200.9 3220.78 4184.68C3208.42 4168.2 3197.4 4156.03 3176.49 4153.04C3165.95 4151.53 3146.6 4159.32 3144.85 4148.82C3142.3 4133.52 3153.28 4112.02 3153.28 4096.09C3153.28 4041.18 3124.43 3976.83 3043.6 3963.2Z" fill="#e6c33b" fill-rule="nonzero" opacity="1" stroke="none"/>
<path d="M1680.94 3315.62C1679.89 3384.17 1679.89 3384.17 1678.83 3452.73C1699.04 3459.46 1700.59 3415.38 1716.8 3408.43C1732.99 3401.49 1733.49 3419.91 1731.57 3429.52C1726.42 3455.23 1678.83 3463.32 1678.83 3484.37C1697.04 3490.44 1740.63 3498.28 1748.44 3513.9C1733.62 3528.72 1701.76 3564.52 1680.94 3564.52C1680.11 3585.27 1668.67 3630.33 1704.14 3636.24C1731.14 3640.74 1761.81 3615.85 1786.41 3608.82C1840.78 3593.29 1883.93 3558.36 1931.96 3522.34C1951.87 3507.4 1976.84 3495.84 1993.13 3475.93C1998.48 3469.38 1987.85 3437.95 1986.8 3429.52C1981.94 3390.66 1974.52 3360.29 1946.72 3332.49C1931.58 3317.35 1896.95 3302.74 1877.11 3300.85C1861.7 3299.38 1843.98 3306.71 1830.71 3298.74C1801.99 3281.51 1718.95 3308.02 1680.94 3315.62Z" fill="#b7a834" fill-rule="nonzero" opacity="1" stroke="none"/>
<path d="M2339.07 3077.26C2323.09 3085.25 2293.58 3096.51 2284.22 3115.23C2278.48 3126.71 2287.26 3148.81 2275.78 3157.41C2265.3 3165.28 2244.22 3142.54 2231.49 3161.63C2224.84 3171.6 2241.75 3220.19 2244.14 3233.35C2248.16 3255.42 2250.46 3281.81 2256.8 3302.96C2261.11 3317.32 2273.05 3336.41 2275.78 3351.48C2280.81 3379.12 2286.87 3419.43 2311.64 3440.07C2314.66 3442.58 2378.88 3451.92 2381.25 3440.07C2390.09 3395.9 2421.76 3354.07 2474.07 3357.8C2486.97 3358.73 2500.53 3374.75 2509.93 3381.01C2536.6 3354.33 2500.32 3301.82 2497.27 3271.32C2489.16 3190.28 2486.68 3155.27 2425.55 3094.13C2414.86 3083.44 2398.07 3087.74 2339.07 3077.26Z" fill="#68b768" fill-rule="nonzero" opacity="1" stroke="none"/>
<path d="M5589.61 2992.88C5576.42 3006.07 5552.41 3033.41 5534.77 3039.29C5534.77 3066.1 5524.22 3093.68 5524.22 3119.45C5524.22 3194.99 5535.4 3424.39 5659.22 3383.12C5659.22 3355.73 5697.75 3316.04 5707.74 3286.09C5719.04 3252.19 5744.19 3220.12 5756.25 3186.95C5768.11 3154.33 5774.4 3116.9 5790 3085.7C5778.75 3074.44 5768.37 3061.95 5758.36 3051.95C5756.25 3054.05 5756.25 3054.05 5754.14 3056.16C5697.18 2999.2 5705.08 3101.01 5688.75 3117.34C5678.19 3106.77 5673.23 3084.86 5667.66 3070.93C5656.75 3043.65 5633.42 3021.69 5617.03 2997.1C5608.3 3000.01 5597.97 2997.06 5589.61 2992.88Z" fill="#9a9e35" fill-rule="nonzero" opacity="1" stroke="none"/>
<path d="M4980 3028.74C5010.18 3003.59 5007.83 2962.75 5028.52 2931.71C5030.63 2932.77 5030.63 2932.77 5032.74 2933.82C5035.9 2930.66 5035.9 2930.66 5039.07 2927.49C5066.91 2941.41 5137.49 2917.15 5140.32 2878.98C5141.56 2862.15 5140.96 2845.21 5140.32 2828.35C5139.65 2811.13 5093.55 2799 5081.25 2805.15C5075.7 2799.6 5076.87 2802.75 5077.03 2794.6C5077.69 2762.26 5079.14 2729.92 5079.14 2697.57C5079.14 2655.19 5036.96 2565.64 4994.77 2554.13C4967.69 2546.75 4930.65 2609.37 4923.05 2632.18C4920.59 2639.55 4919.16 2678.95 4918.83 2680.7C4911.64 2719.05 4902.97 2763.57 4910.39 2805.15C4911.09 2809.06 4918.47 2809.62 4918.83 2813.59C4923.61 2866.12 4913.38 2886.26 4925.16 2927.49C4930.41 2945.88 4950.16 2953.65 4954.69 2971.79C4958.91 2988.66 4966.61 3015.34 4980 3028.74Z" fill="#f88b27" fill-rule="nonzero" opacity="1" stroke="none"/>
<path d="M5568.52 3570.85C5566.41 3568.74 5566.41 3568.74 5564.3 3566.63C5593.7 3507.83 5560.95 3312.02 5456.72 3364.13C5407.97 3388.51 5410.06 3472.55 5412.43 3513.9C5413.04 3524.58 5421.54 3555.49 5418.75 3566.63C5414.19 3584.9 5348.58 3599.25 5363.91 3629.91C5374 3650.09 5421.15 3642.78 5439.85 3646.79C5480.49 3655.5 5529.42 3667.06 5574.85 3669.99C5592.4 3671.12 5610.89 3677.66 5627.58 3672.1C5679.01 3654.96 5698.75 3554.82 5640.24 3532.88C5614.46 3523.22 5582.74 3557.92 5568.52 3570.85Z" fill="#138c63" fill-rule="nonzero" opacity="1" stroke="none"/>
<path d="M3566.72 3511.79C3568.83 3513.9 3568.83 3513.9 3570.94 3516.01C3565.28 3521.67 3564.03 3526.05 3556.18 3528.66C3556.18 3542.8 3554.38 3551.35 3547.74 3562.41C3536.06 3581.88 3549.85 3611.57 3549.85 3632.02C3549.85 3635.67 3545.54 3640.28 3547.74 3644.68C3602.42 3754.05 3653.41 3701.33 3703.83 3625.7C3718.82 3640.68 3721.21 3666.28 3739.69 3684.76C3753.42 3698.49 3782.55 3701.63 3800.86 3701.63C3866.32 3701.63 3855.85 3627.66 3885.24 3598.27C3877.81 3590.85 3871.06 3558.71 3864.14 3547.65C3855.53 3533.86 3839.68 3523.18 3828.28 3511.79C3810.98 3494.48 3756.54 3518.09 3735.47 3497.02C3725.07 3502.22 3670.72 3487.3 3659.53 3488.59C3649.93 3489.69 3641.18 3509.68 3630 3509.68C3610.57 3509.68 3587.19 3491.33 3566.72 3511.79Z" fill="#f88b27" fill-rule="nonzero" opacity="1" stroke="none"/>
<path d="M1742.11 2642.73C1718.36 2666.48 1721.75 2715.83 1702.03 2735.54C1700.3 2733.81 1678.93 2715.26 1678.83 2722.88C1677.43 2829.05 1677.44 2935.24 1678.83 3041.4C1678.93 3048.99 1713.27 3063.93 1718.91 3068.82C1726.09 3075.04 1759.06 3113.12 1763.21 3113.12C1767.91 3113.12 1774.06 3105.99 1777.97 3104.68C1784.48 3102.51 1815.49 3095.55 1815.94 3087.8C1817.26 3065.34 1816.5 3042.8 1815.94 3020.3C1815.64 3008.27 1814.89 2996.06 1811.72 2984.45C1797.76 2933.26 1804.06 2823.54 1801.18 2762.96C1800.07 2739.74 1804.9 2715.2 1796.96 2693.35C1796.37 2691.73 1747 2645.98 1742.11 2642.73Z" fill="#459b57" fill-rule="nonzero" opacity="1" stroke="none"/>
<path d="M4665.71 3551.87C4632.86 3584.72 4624.58 3629.29 4667.82 3655.23C4684.95 3665.51 4727.26 3664 4745.86 3665.77C4795.19 3670.47 4844.17 3678.16 4893.52 3682.65C4920.32 3685.09 4946.86 3686.64 4973.68 3688.98C4997.37 3691.04 5018.98 3695.3 5043.28 3695.3C5081.46 3695.3 5112.06 3616.43 5087.58 3591.95C5084.32 3588.69 5063.73 3588.99 5058.05 3587.73C5014.26 3577.99 4921.42 3580.31 4891.41 3560.3C4881.33 3570.38 4861.01 3562.41 4849.22 3562.41C4796.69 3562.41 4743.62 3560.55 4665.71 3551.87Z" fill="#f7e786" fill-rule="nonzero" opacity="1" stroke="none"/>
<path d="M1997.35 2760.85C1978.47 2779.73 1989.05 2808.1 1993.13 2832.57C2001.74 2884.22 2011.59 2939.15 2020.55 2992.88C2031.94 3061.22 2052.1 3124.82 2075.39 3186.95C2091.05 3228.69 2117.78 3277.1 2128.13 3321.95C2134.81 3350.89 2136.99 3382.28 2147.11 3412.65C2156.51 3440.84 2170.79 3464.94 2178.75 3492.8C2185.3 3515.73 2190.72 3544.39 2204.07 3566.63C2212.59 3580.84 2218.07 3602.57 2231.49 3615.15C2240.56 3623.66 2253.96 3629.05 2258.91 3640.46C2264.53 3653.43 2253.14 3672.66 2263.13 3682.65C2273.12 3672.66 2266.67 3654.58 2267.35 3640.46C2268.49 3616.5 2284.72 3593.15 2303.21 3579.29C2269.49 3545.58 2264.49 3498.59 2242.03 3461.16C2238.57 3455.4 2240.83 3441.88 2237.82 3435.85C2172.16 3304.54 2118.4 3169.12 2081.72 3022.41C2069.5 2973.54 2050.12 2923.43 2037.43 2876.87C2029.58 2848.08 2025.72 2825.01 2010 2798.82C2003.42 2787.85 2006.6 2770.1 1997.35 2760.85Z" fill="#e76e34" fill-rule="nonzero" opacity="1" stroke="none"/>
<path d="M1934.07 3912.57C1891.52 3923.21 1846.26 3915.06 1803.28 3927.34C1734.61 3946.96 1676.77 4030.85 1699.93 4100.3C1703.25 4110.28 1717.74 4112.07 1725.24 4115.07C1738.17 4120.24 1749.05 4146.71 1765.32 4146.71C1787.03 4146.71 1819.02 4145 1832.82 4165.7C1844.77 4159.72 1837.06 4159.3 1841.25 4146.71C1846.46 4131.09 1882.56 4103.29 1893.99 4091.87C1911.12 4074.74 1951.84 4033.45 1976.25 4026.48C1983.3 4024.46 1985.09 4029.89 1988.91 4022.26C1988.95 4022.17 1949.8 3915.64 1934.07 3912.57Z" fill="#8a7f2e" fill-rule="nonzero" opacity="1" stroke="none"/>
<path d="M4286.02 3111.01C4250 3116.47 4214.21 3122.84 4178.44 3129.99C4171.49 3131.38 4145.16 3132.8 4142.58 3140.54C4131.73 3173.09 4164.08 3247.31 4167.89 3279.76C4174.88 3339.17 4181.16 3394.02 4188.99 3452.73C4191.32 3470.21 4190.44 3496.07 4197.43 3511.79C4207.49 3534.42 4246.48 3520.23 4271.25 3520.23C4295.88 3520.23 4290.06 3490.5 4290.24 3473.82C4291.52 3354.29 4293.74 3234.75 4292.35 3115.23C4292.32 3112.69 4288.53 3110.63 4286.02 3111.01Z" fill="#b6dbf3" fill-rule="nonzero" opacity="1" stroke="none"/>
<path d="M1986.8 4020.15C1973.09 4008.07 1957.64 4039.59 1942.5 4049.68C1877.62 4092.94 1832.09 4140.82 1811.72 4212.1C1807.98 4225.19 1797.72 4317.13 1815.94 4317.57C1872.88 4318.96 1929.86 4318.94 1986.8 4317.57C1997.67 4317.31 1999.4 4228.19 2001.57 4218.43C2018.33 4143 2049.88 4075.74 1986.8 4020.15Z" fill="#9a9e35" fill-rule="nonzero" opacity="1" stroke="none"/>
<path d="M3343.13 2225.07C3325.55 2242.65 3316.53 2266.76 3294.61 2279.91C3283.99 2286.29 3262.03 2276.89 3258.75 2288.35C3249.43 2321 3271.41 2372.45 3271.41 2406.48C3271.41 2544.56 3326.36 2656.21 3408.52 2756.63C3439.43 2794.41 3462.08 2837.76 3501.33 2872.65C3499.22 2874.76 3499.22 2874.76 3497.11 2876.87C3507.46 2887.21 3582.46 2897.65 3577.27 2876.87C3574.01 2863.82 3551.19 2850.28 3543.52 2843.12C3509.5 2811.37 3475.18 2778.75 3446.49 2741.87C3416.29 2703.04 3402.18 2669.42 3391.64 2623.74C3390.19 2617.43 3381.62 2614.9 3378.99 2608.98C3361.89 2570.5 3358.62 2500.03 3357.89 2459.21C3356.59 2386.09 3357.85 2312.94 3355.78 2239.84C3355.73 2237.77 3343.92 2225.87 3343.13 2225.07Z" fill="#45192b" fill-rule="nonzero" opacity="1" stroke="none"/>
<path d="M3667.97 3111.01C3666.57 3112.41 3663.83 3113.24 3663.75 3115.23C3662.4 3152.47 3665.11 3189.78 3663.75 3227.02C3661.46 3290.14 3655.44 3366.44 3651.1 3433.74C3650.46 3443.69 3641.75 3493.66 3657.43 3494.91C3686.46 3497.24 3714.65 3488.77 3739.69 3505.46C3757.29 3487.86 3753.07 3425.82 3756.57 3397.88C3764.32 3335.86 3778.1 3277.99 3792.43 3220.7C3798.79 3195.23 3817.91 3160.03 3809.3 3134.21C3769.14 3134.21 3704.18 3129.11 3667.97 3111.01Z" fill="#b6dbf3" fill-rule="nonzero" opacity="1" stroke="none"/>
<path d="M5859.61 3598.27C5837.57 3576.23 5802.66 3548.18 5783.68 3581.4C5776.65 3593.7 5771.64 3599.52 5779.46 3615.15C5794.66 3645.55 5814.29 3679.51 5840.63 3705.85C5854.92 3720.14 5879.15 3725.39 5891.25 3737.49C5899.46 3733.39 5904.66 3725.74 5912.35 3720.62C5931.83 3740.1 5937.75 3743.79 5962.97 3735.38C5962.97 3714.59 5995.59 3720.52 5996.72 3705.85C5999.36 3671.5 5996.72 3636.95 5996.72 3602.49C5979.74 3598.25 5933.75 3572.02 5927.11 3556.09C5919.35 3537.45 5916.49 3513.73 5908.13 3494.91C5900.91 3478.67 5898.8 3494.36 5893.36 3478.04C5889.92 3467.7 5897.06 3468.34 5891.25 3459.05C5885.01 3449.06 5861.91 3427.03 5868.05 3414.76C5857.49 3404.19 5862.68 3359.72 5853.28 3355.7C5814.47 3339.06 5814.35 3366.51 5808.99 3391.55C5807.77 3397.22 5800.55 3402.76 5800.55 3410.54C5800.55 3429.23 5809.92 3429.04 5813.21 3442.18C5815.94 3453.12 5811.52 3465.31 5815.32 3475.93C5823.83 3499.78 5834.47 3522.86 5842.74 3547.65C5847.17 3560.93 5866.53 3587.9 5859.61 3598.27Z" fill="#9a9e35" fill-rule="nonzero" opacity="1" stroke="none"/>
<path d="M5007.43 2973.9C4996.97 2984.35 4980.15 3036.94 4973.68 3047.73C4968.6 3056.18 4957.88 3055.87 4952.58 3062.49C4949.72 3066.06 4979.27 3163.21 4982.11 3167.96C5001.95 3201.02 4996.47 3251.61 5009.53 3288.2C5017.02 3309.16 5033.24 3331.38 5043.28 3351.48C5050.32 3365.55 5067.19 3399.33 5068.6 3414.76C5069.3 3422.49 5067.23 3431.01 5070.71 3437.96C5065.59 3443.08 5059.24 3439.8 5055.94 3446.4C5055.5 3447.28 5065.76 3478.24 5066.49 3482.26C5072.1 3513.12 5065.63 3569.7 5085.47 3596.16C5088.18 3599.77 5101.15 3595.69 5104.46 3596.16C5118.42 3598.16 5138.24 3602.51 5150.86 3608.82C5161.3 3598.38 5151.89 3594.8 5150.86 3581.4C5149.73 3566.66 5149.44 3551.87 5148.75 3537.1C5147.54 3511.1 5153.49 3484.16 5146.64 3459.05C5145.6 3455.22 5138.89 3454.54 5138.21 3450.62C5131.41 3411.54 5129.67 3368.46 5117.11 3328.27C5115.05 3321.68 5102.51 3314.75 5100.24 3307.18C5091.29 3277.37 5089.23 3238.76 5074.93 3210.15C5067.4 3195.1 5056.4 3173.8 5051.72 3157.41C5047.85 3143.87 5048.5 3127.46 5043.28 3113.12C5040.46 3105.36 5030.64 3094.18 5028.52 3085.7C5022.67 3062.31 5011.64 3035.37 5011.64 3009.76C5011.64 3002.38 5021.46 2991.33 5020.08 2984.45C5019 2979.06 5011.82 2977.19 5007.43 2973.9Z" fill="#e76e34" fill-rule="nonzero" opacity="1" stroke="none"/>
<path d="M3714.38 1064.91C3626.61 1081.34 3600.05 1187.21 3655.32 1254.76C3664.76 1266.3 3683.31 1285.25 3699.61 1288.51C3723.14 1293.21 3740.34 1296.95 3767.11 1296.95C3777.36 1296.95 3793.07 1285.92 3800.86 1280.07C3849.62 1243.5 3884.17 1168.96 3840.94 1111.32C3806.43 1065.31 3768.69 1054.75 3714.38 1064.91Z" fill="#0c132a" fill-rule="nonzero" opacity="1" stroke="none"/>
<path d="M4359.85 1119.76C4346.77 1132.84 4374.74 1161.82 4342.97 1193.59C4339.65 1196.9 4320.24 1197.8 4319.77 1197.8C4284.6 1197.8 4278.24 1149.36 4279.69 1126.09C4281.51 1096.99 4315.32 1103.11 4328.21 1090.23C4239.17 978.925 4076.81 1146.42 4161.57 1244.21C4198.84 1287.22 4262.88 1313.25 4315.55 1273.74C4368.92 1233.71 4372.5 1207.13 4372.5 1140.85C4372.5 1133.51 4364.49 1124.4 4359.85 1119.76Z" fill="#0c132a" fill-rule="nonzero" opacity="1" stroke="none"/>
<path d="M2695.55 3937.88C2675.45 3957.99 2662.27 3943.74 2649.14 3956.87C2660.23 3967.96 2694.24 3963.99 2714.53 3984.29C2724.53 3994.28 2718.75 4012.34 2718.75 4026.48C2718.75 4058.11 2665.38 4102.25 2638.6 4112.96C2635.15 4114.34 2617.09 4122.63 2615.39 4127.73C2611.14 4140.49 2630.54 4150.44 2636.49 4159.37C2652.16 4182.87 2655.47 4201.34 2655.47 4231.09C2655.47 4246.99 2573.9 4287.35 2560.55 4300.7C2566.5 4306.65 2566.5 4309.51 2560.55 4315.46C2644.93 4316.52 2644.93 4316.52 2729.3 4317.57C2730.7 4282.65 2737.47 4161.21 2706.1 4129.84C2716.39 4119.55 2737.61 4115.13 2750.39 4108.74C2790.75 4088.57 2798.91 4046.97 2798.91 4007.49C2798.91 3997.29 2785.53 3985.05 2779.93 3980.07C2756.74 3959.46 2718.27 3956.82 2695.55 3937.88Z" fill="#c76c48" fill-rule="nonzero" opacity="1" stroke="none"/>
<path d="M4157.35 792.805C4164.75 800.207 4160.01 795.781 4172.11 805.461C4160.21 817.365 4137.85 819.159 4123.6 828.664C4108.88 838.476 4092.09 861.773 4075.08 866.633C4073.42 867.107 4066.39 863.34 4064.53 862.414C4027.9 899.052 4016.49 952.643 3982.27 986.867C3965.29 969.888 3953.96 949.345 3940.08 929.914C3923.7 906.978 3906.39 889.895 3885.24 868.742C3860.08 843.588 3741.74 786.542 3716.49 811.789C3734.12 829.424 3763.62 838.384 3786.1 851.867C3831.71 879.234 3870.18 908.533 3908.44 946.789C3938.27 976.615 3953.22 1009.47 3973.83 1043.82C3976.92 1048.97 3985.74 1069.16 3992.82 1064.91C4004.11 1058.14 4014.08 1038.82 4022.35 1029.05C4053.88 991.794 4080.82 952.323 4119.38 921.477C4148.62 898.08 4183.26 889.536 4216.41 872.961C4218.19 872.072 4220.46 870.724 4220.63 868.742C4221.42 859.212 4214.07 850.698 4212.19 841.32C4205.26 806.675 4211.03 782.403 4161.57 788.586C4159.59 788.833 4158.75 791.398 4157.35 792.805Z" fill="#ab5d35" fill-rule="nonzero" opacity="1" stroke="none"/>
<path d="M5887.03 1102.88C5877.74 1112.18 5832.08 1206.9 5830.08 1218.9C5827.44 1234.75 5810.82 1239.25 5817.43 1256.87C5820.95 1266.28 5833.74 1273.18 5840.63 1280.07C5860.84 1300.29 5898.29 1360.95 5903.91 1387.65C5911.98 1425.99 5907.62 1460.24 5903.91 1497.34C5900.82 1528.21 5868.11 1514.35 5884.93 1556.4C5887.57 1563.01 5885.94 1571.11 5891.25 1577.49C5909 1598.79 5933.32 1602.69 5950.32 1619.68C5952.43 1618.27 5956.53 1617.99 5956.64 1615.46C5958.69 1570.51 5957.11 1525.46 5956.64 1480.46C5955.88 1406.68 5953 1334.53 5931.33 1269.52C5911.95 1211.37 5920.22 1152.67 5887.03 1102.88Z" fill="#9abd4a" fill-rule="nonzero" opacity="1" stroke="none"/>
<path d="M4117.27 3524.45C4122.55 3529.73 4124.64 3527.6 4129.93 3532.88C4121.12 3541.69 4106.57 3540.72 4096.18 3547.65C4078.34 3559.54 4064.6 3577.83 4047.66 3591.95C4044.55 3594.54 4035.64 3594.9 4035 3602.49C4030.41 3657.57 4074.01 3739.43 4136.25 3729.05C4170.45 3723.35 4191.85 3700.88 4216.41 3676.32C4234.2 3658.53 4221.83 3646.41 4220.63 3623.59C4219.45 3601.11 4218.52 3578.6 4218.52 3556.09C4218.52 3524.77 4226.57 3517.29 4191.1 3518.12C4167.89 3518.66 4144.62 3518.24 4121.49 3520.23C4119.51 3520.4 4118.68 3523.04 4117.27 3524.45Z" fill="#e76e34" fill-rule="nonzero" opacity="1" stroke="none"/>
<path d="M5737.27 2701.79C5724.3 2714.75 5732.7 2738.3 5733.05 2756.63C5733.44 2777.03 5734.6 2797.41 5735.16 2817.8C5736.01 2848.74 5736.16 2879.69 5737.27 2910.62C5738.25 2938.22 5738.49 3036.29 5758.36 3056.16C5767.92 3046.61 5759.36 3032.75 5764.69 3020.3C5771.32 3004.85 5795 2978.56 5796.33 2961.24C5797.36 2947.9 5792.89 2934.48 5794.22 2921.16C5795.34 2909.99 5858.58 2918.65 5863.83 2906.4C5875.41 2879.38 5907.35 2758.85 5893.36 2735.54C5861.33 2751.56 5822.16 2770.33 5785.78 2746.09C5767.57 2733.94 5754.68 2710.49 5737.27 2701.79Z" fill="#9abd4a" fill-rule="nonzero" opacity="1" stroke="none"/>
<path d="M4210.08 3520.23C4220.73 3530.88 4216.85 3534.43 4216.41 3553.98C4215.9 3576.48 4214.3 3598.97 4214.3 3621.48C4214.3 3696.96 4295.92 3771.89 4359.85 3707.96C4379.32 3688.49 4370.6 3652.91 4385.16 3638.35C4365.81 3619 4377.37 3603.7 4370.39 3579.29C4358.81 3538.74 4315.13 3511.37 4273.36 3513.9C4252.2 3515.18 4225.07 3505.24 4210.08 3520.23Z" fill="#f88b27" fill-rule="nonzero" opacity="1" stroke="none"/>
<path d="M3619.46 2589.99C3626.12 2599.98 3618.45 2606.96 3623.68 2617.41C3635.81 2641.68 3639.83 2674.16 3653.21 2697.57C3684.66 2752.61 3743.17 2727.84 3779.77 2691.24C3798.6 2672.41 3798.89 2647.47 3813.52 2627.96C3818.65 2621.12 3824.86 2622.94 3830.39 2617.41C3826.18 2608.99 3822.97 2603.69 3813.52 2600.54C3813.52 2565.27 3819.56 2541.79 3792.43 2518.27C3782.11 2509.33 3771.63 2490.75 3758.68 2495.07C3746.05 2499.28 3710.95 2553.61 3691.18 2566.79C3669.47 2581.26 3638.78 2570.66 3619.46 2589.99Z" fill="#f7945d" fill-rule="nonzero" opacity="1" stroke="none"/>
<path d="M5958.75 3104.68C5935.14 3128.3 5928.54 3181.99 5912.35 3214.37C5896.77 3245.52 5879.6 3277.75 5863.83 3309.29C5861.01 3314.94 5850 3347.39 5842.74 3349.37C5835.15 3351.44 5825.09 3348.03 5819.53 3353.59C5837.3 3371.35 5877.8 3350.77 5897.58 3368.35C5913.53 3382.53 5940.67 3439.67 5948.21 3442.18C5948.21 3448.19 5952.17 3453.53 5954.53 3459.05C5967.79 3489.98 5976.21 3435.04 5986.18 3421.09C5989.07 3417.04 5996.5 3415.51 5996.72 3410.54C6000.08 3336.08 5998.1 3261.46 5996.72 3186.95C5996.42 3170.62 5973.59 3150.22 5967.19 3134.21C5963.35 3124.61 5966.76 3112.69 5958.75 3104.68Z" fill="#e76e34" fill-rule="nonzero" opacity="1" stroke="none"/>
<path d="M3260.86 1877.02C3284.02 1892.46 3247.4 1935.56 3281.96 1944.52C3354.07 1963.22 3421.18 1879.05 3421.18 1813.74C3421.18 1765.08 3336.67 1799.11 3317.82 1817.96C3306.72 1806.86 3318.51 1784.83 3296.72 1782.1C3250.96 1776.38 3203.91 1818.14 3203.91 1862.26C3203.91 1873.33 3187.83 1899.73 3206.02 1906.55C3222.67 1912.8 3249.11 1886.43 3260.86 1877.02Z" fill="#ab5d35" fill-rule="nonzero" opacity="1" stroke="none"/>
<path d="M4484.3 3608.82C4456.98 3636.14 4501.58 3686.46 4461.1 3726.95C4433.83 3754.22 4399.94 3768.42 4370.39 3788.12C4354.55 3798.68 4336.6 3817.09 4317.66 3823.98C4302.7 3829.42 4275.49 3826.07 4264.93 3836.63C4266.47 3839.73 4269.52 3846.93 4273.36 3847.18C4304.24 3849.15 4335.27 3845.84 4366.18 3847.18C4369.45 3847.32 4372.77 3857.23 4374.61 3857.73C4386.91 3861.08 4506.62 3866.05 4509.61 3864.05C4523.09 3855.07 4507.5 3795.67 4507.5 3781.79C4507.5 3729.32 4532.08 3652.38 4484.3 3608.82Z" fill="#ab5d35" fill-rule="nonzero" opacity="1" stroke="none"/>
<path d="M4340.86 2497.18C4289.82 2548.22 4258.21 2560.46 4178.44 2560.46C4171.51 2560.46 4160.26 2549.99 4153.13 2552.02C4137.53 2556.48 4159.1 2601.2 4161.57 2611.09C4163.44 2618.59 4160.18 2626.68 4161.57 2634.29C4162.68 2640.42 4200.37 2655.43 4205.86 2661.71C4224.6 2683.13 4226.79 2707.95 4248.05 2729.21C4258.95 2718.31 4252.59 2716.52 4258.6 2706.01C4269.51 2686.91 4295.1 2680.64 4307.11 2663.82C4327.08 2635.87 4335.52 2580.42 4340.86 2545.7C4342.91 2532.36 4356.55 2508.65 4340.86 2497.18Z" fill="#fec98b" fill-rule="nonzero" opacity="1" stroke="none"/>
<path d="M1680.94 4053.9C1679.89 4185.73 1679.89 4185.73 1678.83 4317.57C1734.73 4317.57 1734.73 4317.57 1790.63 4317.57C1793.25 4270.34 1783.06 4232.08 1775.86 4188.9C1772.59 4169.29 1776.08 4156.48 1763.21 4140.38C1749.17 4122.83 1717.29 4114.87 1704.14 4096.09C1695.36 4083.53 1693.9 4063.62 1680.94 4053.9Z" fill="#8b392d" fill-rule="nonzero" opacity="1" stroke="none"/>
<path d="M3676.41 2957.02C3662.97 2954.77 3668.49 3026.59 3667.97 3035.07C3666.98 3051.51 3662.83 3099.51 3663.75 3111.01C3664.53 3120.71 3694.23 3120.73 3699.61 3121.55C3732.33 3126.59 3776.5 3142.53 3809.3 3138.43C3820.74 3137 3823.46 3079.36 3824.07 3075.15C3825.25 3066.83 3841.61 3041.93 3830.39 3032.96C3818.91 3023.78 3786.72 3018.02 3771.33 3011.87C3736.97 2998.12 3713.77 2963.3 3676.41 2957.02Z" fill="#3a92c1" fill-rule="nonzero" opacity="1" stroke="none"/>
<path d="M5294.3 3197.49C5279.62 3212.17 5277.96 3238.08 5266.88 3256.55C5251.9 3281.52 5236.92 3313.1 5226.8 3340.93C5219.54 3360.88 5219.87 3388.06 5212.03 3408.43C5206.82 3421.97 5197.48 3442.57 5197.27 3456.95C5196.59 3502.64 5197.27 3548.35 5197.27 3594.05C5197.27 3624.33 5258.8 3633.77 5271.1 3621.48C5234.14 3547.55 5255.93 3462.78 5275.32 3385.23C5279 3370.47 5288.2 3355.95 5290.08 3340.93C5295.62 3296.62 5275.32 3315.1 5275.32 3292.41C5275.32 3271.23 5310.45 3213.64 5294.3 3197.49Z" fill="#e76e34" fill-rule="nonzero" opacity="1" stroke="none"/>
<path d="M3828.28 3516.01C3846.84 3534.56 3858.75 3547.8 3872.58 3570.85C3877.8 3579.55 3871.89 3597.79 3883.13 3600.38C3916.32 3608.04 3980.35 3600.61 4007.58 3598.27C4009.56 3598.1 4009.95 3594.79 4011.8 3594.05C4026.75 3588.08 4040.51 3602.58 4051.88 3594.05C4071.4 3579.42 4085.9 3559.42 4106.72 3545.54C4122.47 3535.04 4150.16 3542.18 4163.68 3528.66C4153.68 3518.67 4135.55 3525.85 4121.49 3524.45C4114.06 3523.7 4099.79 3514.13 4091.96 3513.9C4062.21 3513.02 4027.91 3512.62 3997.03 3511.79C3952.75 3510.59 3908.45 3509.68 3864.14 3509.68C3852.84 3509.68 3836.36 3507.93 3828.28 3516.01Z" fill="#f7945d" fill-rule="nonzero" opacity="1" stroke="none"/>
<path d="M4982.11 3159.52C4974.1 3167.54 4979.3 3182.02 4977.89 3193.27C4975.12 3215.48 4947.1 3235.43 4942.03 3260.77C4931.43 3313.79 4978.64 3423.94 5011.64 3456.95C5020.49 3448.1 5074.93 3461.23 5074.93 3437.96C5074.93 3381.49 5029.17 3335.38 5013.75 3283.98C5004.23 3252.22 5006.88 3184.29 4982.11 3159.52Z" fill="#f88b27" fill-rule="nonzero" opacity="1" stroke="none"/>
<path d="M5863.83 3414.76C5857.39 3427.64 5881.41 3447.82 5887.03 3459.05C5915.35 3515.69 5918.75 3585.64 5994.61 3604.6C5995.67 3507.57 5995.67 3507.57 5996.72 3410.54C5979.39 3410.54 5973.45 3446.47 5962.97 3456.95C5933.27 3433.19 5931.69 3380.5 5887.03 3355.7C5847.29 3333.61 5844.12 3395.05 5863.83 3414.76Z" fill="#ab5d35" fill-rule="nonzero" opacity="1" stroke="none"/>
<path d="M1756.88 3115.23C1776.09 3153.65 1744.22 3231.95 1702.03 3246.01C1693.12 3248.98 1687.07 3243.9 1678.83 3243.9C1678.83 3280.81 1678.83 3280.81 1678.83 3317.73C1709.01 3323.76 1753.26 3304.9 1784.3 3302.96C1799.19 3302.03 1821.93 3309.97 1828.6 3296.63C1835.44 3282.94 1814.71 3253.68 1809.61 3241.79C1800.17 3219.76 1806.47 3186.9 1815.94 3167.96C1826.63 3146.58 1817.43 3120.1 1815.94 3096.24C1814.77 3077.52 1762.55 3110.97 1756.88 3115.23Z" fill="#e76e34" fill-rule="nonzero" opacity="1" stroke="none"/>
<path d="M4752.19 3425.3C4703 3442.49 4708.77 3470 4718.44 3532.88C4720.05 3543.31 4721.95 3555.19 4733.21 3560.3C4746.32 3566.27 4863.8 3575.42 4887.19 3568.74C4906.28 3563.29 4875.3 3514.59 4868.21 3505.46C4838.41 3467.15 4798.63 3409.08 4752.19 3425.3Z" fill="#35937c" fill-rule="nonzero" opacity="1" stroke="none"/>
<path d="M3956.96 1271.63C3913.98 1293.12 3881.63 1424.87 3921.1 1444.6C3939.28 1426.41 4043.24 1409.2 4049.77 1393.98C4062.6 1364.04 4005.63 1273.74 3956.96 1271.63Z" fill="#0c9ccd" fill-rule="nonzero" opacity="1" stroke="none"/>
<path d="M4049.77 1381.32C4004.78 1389.11 3968.47 1412.19 3925.32 1436.16C3896.85 1451.98 3953.78 1537.14 3967.5 1554.29C3971.67 1559.49 3987.98 1581.41 3997.03 1579.6C4046.42 1569.72 4081.47 1375.83 4049.77 1381.32Z" fill="#fcc30f" fill-rule="nonzero" opacity="1" stroke="none"/>
<path d="M2531.02 3830.3C2515.76 3845.57 2519.56 3880.34 2507.82 3899.91C2495.72 3920.07 2483.01 3944.94 2467.74 3965.3C2457.91 3978.41 2436.53 3995.43 2431.88 4011.71C2417.74 4061.2 2523.44 4046.04 2537.35 4034.91C2549.2 4025.43 2547.48 4007.76 2556.33 3996.95C2568.24 3982.39 2581.84 3974.12 2596.41 3963.2C2590.78 3951.93 2572.83 3920.18 2562.66 3916.79C2562.66 3907.37 2535.04 3834.33 2531.02 3830.3Z" fill="#e76e34" fill-rule="nonzero" opacity="1" stroke="none"/>
<path d="M4066.64 2636.4C4089.89 2682.88 4170.76 2818.82 4231.18 2773.51C4227.73 2766.62 4230.18 2770.4 4222.74 2762.96C4230.45 2755.25 4237.5 2747.49 4248.05 2743.98C4248.05 2697.68 4239.68 2729.35 4229.07 2708.12C4210.34 2670.67 4208.84 2654.76 4167.89 2634.29C4163.31 2632 4160.17 2638.29 4155.24 2638.51C4140.47 2639.15 4125.72 2640.62 4110.94 2640.62C4096.99 2640.62 4078.18 2624.86 4066.64 2636.4Z" fill="#f7e786" fill-rule="nonzero" opacity="1" stroke="none"/>
<path d="M3423.28 1128.2C3399.57 1136.84 3410.75 1184.43 3406.41 1210.46C3393.72 1286.58 3408.95 1409.28 3459.14 1472.02C3484.54 1503.77 3494.75 1537.75 3530.86 1564.84C3538.06 1570.23 3563.33 1588.5 3570.94 1573.27C3571.57 1572.02 3571.57 1570.31 3570.94 1569.05C3560.72 1548.62 3534.72 1530.49 3522.43 1509.99C3508.92 1487.49 3491.15 1458.6 3484.46 1434.05C3482.61 1427.27 3487.6 1419.25 3484.46 1412.96C3479.57 1403.2 3470.77 1405.64 3467.58 1396.09C3456.75 1363.59 3442.11 1332.18 3433.83 1299.05C3422.98 1255.64 3428.08 1190.47 3427.5 1157.73C3427.31 1146.64 3434.33 1124.17 3423.28 1128.2Z" fill="#ab5d35" fill-rule="nonzero" opacity="1" stroke="none"/>
<path d="M2360.16 3444.29C2373.12 3457.25 2396.72 3447.1 2415 3448.51C2433.7 3449.95 2552.91 3479.35 2566.88 3465.38C2523.85 3400.84 2503.66 3311.35 2410.78 3381.01C2403 3386.85 2387.09 3398.41 2383.36 3404.21C2379.42 3410.34 2378.89 3428.42 2377.03 3435.85C2375.31 3442.74 2365.02 3439.43 2360.16 3444.29Z" fill="#459b57" fill-rule="nonzero" opacity="1" stroke="none"/>
<path d="M4279.69 3011.87C4244.85 3023.27 4210.36 3037.4 4174.22 3047.73C4165.21 3050.3 4138.3 3052.1 4134.14 3062.49C4133.37 3064.43 4136.76 3141.66 4144.69 3142.65C4166.29 3145.35 4263.69 3126 4283.91 3117.34C4294.69 3112.72 4296.12 3006.49 4279.69 3011.87Z" fill="#3a92c1" fill-rule="nonzero" opacity="1" stroke="none"/>
<path d="M3566.72 3507.57C3512.39 3534.73 3475.48 3544.15 3438.05 3594.05C3435.35 3597.66 3428.93 3598.22 3427.5 3602.49C3422.96 3616.12 3433.45 3624.07 3440.16 3634.13C3469.29 3677.83 3510.93 3685.13 3543.52 3636.24C3545.63 3638.35 3545.63 3638.35 3547.74 3640.46C3563.19 3625 3549.85 3586.17 3549.85 3568.74C3549.85 3550.53 3564.96 3531.31 3575.16 3516.01C3570.94 3511.79 3570.94 3511.79 3566.72 3507.57Z" fill="#e76e34" fill-rule="nonzero" opacity="1" stroke="none"/>
<path d="M1680.94 3039.29C1680.24 3107.49 1678.14 3175.7 1678.83 3243.9C1678.92 3252.6 1695.59 3251.78 1704.14 3250.23C1721.78 3247.02 1731.96 3227.45 1744.22 3214.37C1764.84 3192.38 1772.81 3138.66 1761.1 3115.23C1763.21 3113.12 1763.21 3113.12 1765.32 3111.01C1738.82 3084.51 1715.18 3056.41 1680.94 3039.29Z" fill="#b7a834" fill-rule="nonzero" opacity="1" stroke="none"/>
<path d="M3815.63 1950.85C3805.31 1953.21 3791.58 1962.69 3790.32 1976.16C3788.41 1996.47 3788.41 2017.03 3790.32 2037.34C3791.62 2051.23 3807.87 2059.11 3817.74 2068.98C3845.14 2096.37 3910.81 2082.14 3906.33 2037.34C3904.74 2021.37 3870.63 1993 3862.03 1982.49C3847.59 1964.83 3840.34 1945.22 3815.63 1950.85Z" fill="#fec98b" fill-rule="nonzero" opacity="1" stroke="none"/>
<path d="M4545.47 1817.96C4481.39 1830.74 4477.24 1984.21 4549.69 1976.16C4602.72 1970.27 4586.34 1809.82 4545.47 1817.96Z" fill="#f7945d" fill-rule="nonzero" opacity="1" stroke="none"/>
<path d="M3975.94 731.633C3959.33 734.954 3886.59 741.593 3883.13 748.508C3878.49 757.78 3907.59 772.967 3912.66 778.039C3917.22 782.601 3928.35 807.57 3935.86 807.57C3950.86 807.57 3963.71 794.854 3978.05 792.805C4033.36 784.903 4088.42 779.468 4129.93 737.961C4120.97 724.528 4099.11 736.218 4085.63 740.07C4056.9 748.279 4016.48 736.469 3975.94 731.633Z" fill="#8b392d" fill-rule="nonzero" opacity="1" stroke="none"/>
<path d="M3201.8 725.305C3175.98 751.122 3196.22 779.754 3225 797.023C3262.26 819.38 3301.13 826.648 3338.91 845.539C3345.35 848.76 3380.49 867.598 3385.32 866.633C3398.97 863.902 3413.57 855.532 3425.39 847.648C3411.86 820.579 3376.93 828.075 3349.46 820.227C3294.47 804.516 3243.27 763.58 3201.8 725.305Z" fill="#c76c48" fill-rule="nonzero" opacity="1" stroke="none"/>
<path d="M4328.21 1086.01C4314.31 1099.91 4281.18 1093.4 4277.58 1123.98C4274.46 1150.54 4297.8 1231.68 4342.97 1197.8C4381.09 1169.22 4352.4 1131.42 4364.07 1119.76C4351.79 1107.48 4344.38 1094.09 4328.21 1086.01Z" fill="#fefefd" fill-rule="nonzero" opacity="1" stroke="none"/>
<path d="M3783.99 1086.01C3767.37 1086.58 3742.54 1118.19 3758.68 1136.63C3762.33 1140.81 3786.17 1154.42 3788.21 1159.84C3795.29 1178.74 3760.79 1205.94 3792.43 1210.46C3800.81 1211.66 3809.29 1213.17 3817.74 1212.57C3846.04 1210.55 3848.13 1160.64 3847.27 1145.07C3845.59 1114.76 3813.83 1084.99 3783.99 1086.01Z" fill="#fefefd" fill-rule="nonzero" opacity="1" stroke="none"/>
<path d="M4686.8 2176.55C4663.52 2188.17 4645.67 2218.21 4636.18 2241.95C4631.67 2253.2 4649.3 2309.52 4661.49 2311.55C4672.33 2313.36 4694.68 2306.15 4703.68 2301.01C4707.75 2298.68 4723.97 2285.49 4724.77 2279.91C4726.86 2265.29 4703.34 2168.3 4686.8 2176.55Z" fill="#e17c60" fill-rule="nonzero" opacity="1" stroke="none"/>
<path d="M4638.28 1988.82C4589.05 1995.02 4607.66 2089.42 4653.05 2096.4C4695.08 2102.86 4719.14 2061.93 4699.46 2022.57C4685.91 1995.48 4664.85 1985.48 4638.28 1988.82Z" fill="#f7945d" fill-rule="nonzero" opacity="1" stroke="none"/>
<path d="M5015.86 3446.4C5003.96 3444.22 5022.79 3565.32 5034.85 3581.4C5042.38 3591.44 5081.4 3600.14 5087.58 3589.84C5092.34 3581.9 5080.32 3541.7 5079.14 3532.88C5076.51 3513.11 5074.62 3493.4 5070.71 3473.82C5063.1 3435.8 5051.04 3452.85 5015.86 3446.4Z" fill="#ab5d35" fill-rule="nonzero" opacity="1" stroke="none"/>
<path d="M4714.22 2412.8C4672.04 2454.99 4717.76 2560.01 4762.74 2589.99C4786.39 2566.34 4755.54 2429.24 4714.22 2412.8Z" fill="#e17c60" fill-rule="nonzero" opacity="1" stroke="none"/>
<path d="M3307.27 1999.37C3253.72 2008.58 3241.55 2118.32 3315.71 2109.05C3367.8 2102.54 3354.86 1991.18 3307.27 1999.37Z" fill="#ab5d35" fill-rule="nonzero" opacity="1" stroke="none"/>
<path d="M5574.85 3503.35C5576.96 3502.3 5576.96 3502.3 5579.07 3501.24C5588.31 3510.48 5602.27 3553.98 5617.03 3539.21C5595.11 3517.28 5629.44 3474.66 5636.02 3452.73C5639.11 3442.41 5634.96 3431.65 5640.24 3421.09C5643.7 3414.17 5666.51 3387.82 5652.89 3381.01C5644.59 3376.85 5608 3383.34 5602.27 3393.66C5598.43 3400.58 5604.47 3417.79 5598.05 3427.41C5586.79 3444.31 5555.06 3483.56 5574.85 3503.35Z" fill="#e76e34" fill-rule="nonzero" opacity="1" stroke="none"/>
<path d="M1761.1 4146.71C1783.68 4169.3 1786.84 4285.29 1788.52 4315.46C1797.66 4316.16 1806.8 4318.22 1815.94 4317.57C1821.28 4317.19 1816.23 4309.51 1815.94 4309.13C1810.39 4301.73 1812.34 4290.94 1811.72 4281.71C1810.69 4266.21 1807.5 4250.84 1807.5 4235.3C1807.5 4219.79 1839.4 4167.14 1832.82 4157.26C1823.93 4143.93 1771.94 4135.87 1761.1 4146.71Z" fill="#ab5d35" fill-rule="nonzero" opacity="1" stroke="none"/>
<path d="M2389.69 3781.79C2399.92 3792.02 2394.82 3788.02 2404.46 3794.45C2427.51 3771.4 2426.59 3739.63 2440.32 3712.18C2451.24 3690.33 2471.66 3691.38 2484.61 3678.43C2476.32 3670.14 2455.95 3673.86 2444.53 3672.1C2380 3662.17 2385.33 3629.26 2389.69 3712.18C2390.84 3733.96 2391.8 3755.76 2391.8 3777.57C2391.8 3779.14 2390.39 3780.38 2389.69 3781.79Z" fill="#ab5d35" fill-rule="nonzero" opacity="1" stroke="none"/>
<path d="M3193.36 1959.29C3150.72 1962.58 3142.74 2003.97 3142.74 2041.55C3142.74 2048.87 3152.16 2063.93 3159.61 2064.76C3202.04 2069.47 3220.78 2013.69 3220.78 1980.38C3220.78 1965.16 3203.3 1958.52 3193.36 1959.29Z" fill="#e17c60" fill-rule="nonzero" opacity="1" stroke="none"/>
<path d="M5994.61 2967.57C5982.96 2979.23 5983.45 3021.57 5979.85 3037.18C5974.98 3058.27 5952.29 3095.7 5958.75 3121.55C5962.11 3134.97 5976.15 3146.85 5979.85 3161.63C5981.48 3168.16 5987.76 3186.42 5992.5 3191.16C5993.91 3190.46 5996.71 3190.63 5996.72 3189.05C5997.42 3115.23 5995.32 3041.4 5994.61 2967.57Z" fill="#f7945d" fill-rule="nonzero" opacity="1" stroke="none"/>
<path d="M4686.8 617.727C4685.45 619.08 4664.33 673.222 4659.38 683.117C4662.54 686.281 4662.54 686.281 4665.71 689.445C4697.17 657.979 4741.97 634.278 4775.39 600.852C4783.51 592.738 4809.34 565.529 4794.38 556.555C4788.74 553.173 4744.74 597.985 4741.64 600.852C4731.79 609.978 4722.12 619.316 4712.11 628.273C4688.73 649.197 4699.2 630.127 4686.8 617.727Z" fill="#e17c60" fill-rule="nonzero" opacity="1" stroke="none"/>
<path d="M3891.57 683.117C3902.2 693.75 3948.84 712.648 3965.39 712.648C3981.87 712.648 3987.46 698.532 4001.25 695.773C4016.59 692.705 4036.08 694.696 4047.66 683.117C4036.14 665.832 3907.58 667.106 3891.57 683.117Z" fill="#8b392d" fill-rule="nonzero" opacity="1" stroke="none"/>
<path d="M1680.94 3482.26C1679.89 3524.45 1679.89 3524.45 1678.83 3566.63C1694.13 3571.73 1744.25 3525.92 1752.66 3513.9C1755.05 3510.48 1744.82 3501.44 1744.22 3501.24C1724.35 3494.62 1702.54 3489.46 1680.94 3482.26Z" fill="#9a9e35" fill-rule="nonzero" opacity="1" stroke="none"/>
<path d="M5992.5 3815.54C5966.98 3841.06 5949.53 3965.3 5994.61 3965.3C5995.32 3916.09 5997.42 3866.87 5996.72 3817.65C5996.7 3816.08 5993.91 3816.24 5992.5 3815.54Z" fill="#9abd4a" fill-rule="nonzero" opacity="1" stroke="none"/>
<path d="M5684.53 4138.27C5664.59 4148.24 5686.15 4172.18 5695.08 4184.68C5718.13 4216.94 5740.42 4247.93 5758.36 4283.82C5761.12 4289.33 5770.5 4316.62 5775.24 4317.57C5780.75 4318.67 5786.49 4317.57 5792.11 4317.57C5794.37 4304.05 5795.89 4302.66 5783.68 4298.59C5783.68 4286.61 5771.71 4273.61 5764.69 4264.84C5733.17 4225.44 5714.6 4178.37 5684.53 4138.27Z" fill="#e76e34" fill-rule="nonzero" opacity="1" stroke="none"/>
<path d="M4935.71 2942.26C4929.1 2948.86 4937.75 3047.66 4954.69 3064.6C4964.97 3054.32 4977.32 3053.68 4982.11 3039.29C4986.73 3025.44 4950.62 2949.71 4935.71 2942.26Z" fill="#8b392d" fill-rule="nonzero" opacity="1" stroke="none"/>
<path d="M5992.5 4062.34C5986.09 4068.75 5991.39 4074.81 5986.18 4081.32C5979.81 4089.27 5975 4088.28 5967.19 4096.09C5973.8 4109.31 5968.66 4125.61 5969.3 4140.38C5970.96 4178.48 5963.03 4162.6 5992.5 4199.45C5993.91 4198.74 5996.67 4198.91 5996.72 4197.34C5998.11 4153.06 5998.11 4108.72 5996.72 4064.45C5996.67 4062.87 5993.91 4063.04 5992.5 4062.34Z" fill="#f88b27" fill-rule="nonzero" opacity="1" stroke="none"/>
<path d="M4102.5 2031.01C4083.22 2037.09 4065.2 2143.29 4110.94 2128.04C4144.67 2116.8 4112.58 2027.83 4102.5 2031.01Z" fill="#fec98b" fill-rule="nonzero" opacity="1" stroke="none"/>
<path d="M4159.46 790.695C4124.3 802.415 4095.93 828.913 4068.75 856.086C4063.93 860.907 4062.32 863.921 4068.75 868.742C4075.8 874.024 4095.49 853.263 4100.39 849.758C4127.32 830.528 4166.15 821.969 4186.88 801.242C4179.23 793.595 4171.32 800.452 4159.46 790.695Z" fill="#c76c48" fill-rule="nonzero" opacity="1" stroke="none"/>
<path d="M4294.46 2663.82C4285.2 2673.08 4260.38 2694 4254.38 2706.01C4242.65 2729.46 4240.43 2744.95 4216.41 2762.96C4222.74 2769.29 4222.74 2769.29 4229.07 2775.62C4252.13 2764.09 4309.93 2689.6 4294.46 2663.82Z" fill="#f7945d" fill-rule="nonzero" opacity="1" stroke="none"/>
<path d="M1680.94 3450.62C1680.18 3459.75 1674.85 3473.94 1683.05 3478.04C1696.32 3464.77 1731.46 3453.3 1735.78 3429.52C1738.05 3417.09 1736.04 3396.52 1716.8 3404.21C1700.06 3410.91 1696.15 3450.62 1680.94 3450.62Z" fill="#e6c33b" fill-rule="nonzero" opacity="1" stroke="none"/>
<path d="M5576.96 3497.02C5576.31 3497.67 5557.87 3573.96 5564.3 3577.18C5570.8 3580.43 5597.88 3548.47 5608.6 3541.32C5596.17 3528.9 5590.53 3510.59 5576.96 3497.02Z" fill="#deaa39" fill-rule="nonzero" opacity="1" stroke="none"/>
<path d="M2423.44 2151.24C2407.54 2167.14 2380.81 2203.53 2400.24 2222.96C2411.98 2211.22 2413.36 2208.66 2425.55 2220.85C2440.99 2205.41 2431.87 2177.2 2429.77 2155.46C2429.52 2152.94 2425.55 2152.65 2423.44 2151.24Z" fill="#f7c95a" fill-rule="nonzero" opacity="1" stroke="none"/>
<path d="M5994.61 3703.74C5984.14 3693.2 5966.89 3712.71 5958.75 3726.95C5950.56 3741.28 5981.35 3771.24 5992.5 3771.24C5994.08 3771.24 5996.67 3770.7 5996.72 3769.13C5997.4 3747.34 6009.98 3719.22 5994.61 3703.74Z" fill="#459b57" fill-rule="nonzero" opacity="1" stroke="none"/>
<path d="M5891.25 4241.63C5868.72 4264.17 5841.9 4287.6 5827.97 4315.46C5835 4316.16 5842.08 4318.64 5849.07 4317.57C5855.59 4316.57 5908.77 4252.82 5891.25 4241.63Z" fill="#e76e34" fill-rule="nonzero" opacity="1" stroke="none"/>
<path d="M4935.71 2954.91C4929.7 2960.93 4932.59 2957.48 4927.27 2965.46C4916.9 2960.28 4910.72 2956.7 4901.96 2965.46C4910.98 2977.5 4923.28 3024.29 4942.03 3005.54C4933.83 2989.12 4949.3 2968.51 4935.71 2954.91Z" fill="#cc962a" fill-rule="nonzero" opacity="1" stroke="none"/>
<path d="M4589.77 1358.12C4572.39 1375.5 4568.07 1405.13 4551.8 1421.4C4557.07 1427.73 4557.07 1427.73 4562.35 1434.05C4575.54 1420.86 4605.16 1373.51 4589.77 1358.12Z" fill="#a14143" fill-rule="nonzero" opacity="1" stroke="none"/>
<path d="M3750.24 681.008C3718.86 691.467 3792.84 714.34 3807.19 699.992C3799.72 685.05 3773.85 684.804 3750.24 681.008Z" fill="#ab5d35" fill-rule="nonzero" opacity="1" stroke="none"/>
<path d="M5026.41 2927.49C5019.35 2929.46 4994.82 2996.02 5017.97 2984.45C5028.4 2979.23 5039.3 2923.89 5026.41 2927.49Z" fill="#ab5d35" fill-rule="nonzero" opacity="1" stroke="none"/>
<path d="M4722.66 2073.2C4713.44 2075.99 4714.41 2125.87 4733.21 2119.6C4753.07 2112.98 4737.61 2068.66 4722.66 2073.2Z" fill="#e17c60" fill-rule="nonzero" opacity="1" stroke="none"/>
<path d="M3294.61 946.789C3272.43 968.968 3312.24 984.007 3328.36 967.883C3316.02 955.543 3320.57 961.473 3313.6 951.008C3304.74 955.439 3302.59 952.774 3294.61 946.789Z" fill="#e3cf75" fill-rule="nonzero" opacity="1" stroke="none"/>
<path d="M2560.55 4296.48C2547.48 4303.01 2531.02 4304.91 2520.47 4315.46C2536 4316.24 2588.45 4324.38 2560.55 4296.48Z" fill="#e76e34" fill-rule="nonzero" opacity="1" stroke="none"/>
<path d="M2421.33 2203.98C2416.05 2209.26 2413.96 2207.13 2408.68 2212.41C2419.16 2233.38 2435.75 2218.4 2421.33 2203.98Z" fill="#9abd4a" fill-rule="nonzero" opacity="1" stroke="none"/>
</g>
</g>
</svg>
