<?xml version="1.0" encoding="UTF-8" standalone="no"?>
<!DOCTYPE svg PUBLIC "-//W3C//DTD SVG 1.1//EN" "http://www.w3.org/Graphics/SVG/1.1/DTD/svg11.dtd">
<!-- Created with Vectornator (http://vectornator.io/) -->
<svg height="100%" stroke-miterlimit="10" style="fill-rule:nonzero;clip-rule:evenodd;stroke-linecap:round;stroke-linejoin:round;" version="1.1" viewBox="0 0 7680 4320" width="100%" xml:space="preserve" xmlns="http://www.w3.org/2000/svg" xmlns:xlink="http://www.w3.org/1999/xlink">
<defs/>
<g id="Ebene-1">
<g opacity="1">
<path d="M4990.66 1419.16C4991.44 1463.66 5002.75 1509.25 4992.99 1552.66C4979.62 1612.11 4953.95 1669.08 4922.7 1721.38C4897.12 1764.19 4863.6 1803.23 4824.65 1834.38C4774.67 1874.36 4719.6 1910.49 4659.33 1932.04C4537.11 1975.76 4410.5 2009.81 4282.04 2028.46C4188.39 2042.05 4092.5 2020.56 3998.17 2028.04C3983.57 2029.2 3977.06 2055.94 3962.57 2053.82C3907.35 2045.71 3852.12 2028.11 3804.16 1999.56C3762.88 1974.98 3735.73 1932.11 3701.5 1898.39C3681.52 1928.32 3656.73 1955.55 3641.55 1988.18C3592.08 2094.5 3542.44 2201.57 3508.26 2313.75C3489.11 2376.57 3484.43 2443.45 3482.79 2509.11C3481.16 2574.55 3485.26 2640.78 3498.51 2704.89C3517.67 2797.67 3543.25 2889.79 3579.52 2977.31C3611.57 3054.65 3653.67 3128.24 3702.23 3196.43C3737.54 3246.01 3779.82 3292.07 3829.11 3327.78C3906.91 3384.17 4041.61 3381.89 4079.81 3470.06C4124.29 3572.77 4049.85 3691.9 4034.88 3802.82C3993.61 3809.96 3952.92 3823.37 3911.05 3824.26C3551.95 3831.91 3192.71 3827.03 2833.53 3828.42C2825.05 3856.15 2823.19 3886.82 2808.09 3911.58C2775.76 3964.63 2731.56 4009.5 2693.29 4058.44C2743.55 4081.09 2797.22 4097.28 2844.04 4126.37C2866.29 4140.2 2879.11 4165.32 2896.63 4184.8C2821.9 4219.97 2821.9 4219.99 2747.17 4255.16C2752.26 4274.4 2754.08 4294.87 2760.98 4313.41C2773.8 4313.81 2786.52 4314.37 2799.25 4314.9C2806.49 4301.2 2813.72 4287.53 2827.25 4287.63C2878.13 4288.02 2928.03 4302.56 2976.46 4320C3558.82 4300.99 4124.17 4296.26 4675.71 4307.06C4749.37 4305.07 4813.49 4302.73 4873.95 4299.46C4913.95 4297.3 4945.8 4295.33 5018.59 4290.58C5102.48 4285.1 5140.29 4282.77 5187.34 4280.41C5225.58 4278.5 5261.01 4277.17 5295 4276.32C5272.77 4260.44 5251.11 4243.83 5230.29 4226.19C5211.82 4210.53 5226.51 4177.89 5224.61 4153.75C5328.94 4158.77 5328.92 4158.78 5433.26 4163.81C5424.51 4142.99 5420.98 4119.11 5407.03 4101.36C5371.5 4056.13 5316.77 4026.66 5286.92 3977.5C5258.95 3931.44 5252.86 3875.34 5236.92 3823.77C5232.68 3822.55 5228.68 3820.67 5224.85 3818.5C4978.55 3814.34 4968.42 3814.19 4712 3809.86C4718.24 3746.59 4730.12 3683.62 4730.7 3620.05C4730.9 3598.42 4712.28 3578.82 4714.32 3557.29C4715.79 3541.83 4731.67 3531.51 4740.35 3518.64C4749.01 3522.95 4748.99 3522.96 4757.66 3527.28C4761.16 3467.8 4748.72 3405.16 4768.17 3348.84C4778.15 3319.96 4815.56 3310.26 4839.26 3290.97C4776.64 3219.98 4700.49 3158.92 4651.39 3077.99C4599.7 2992.78 4570.56 2895.32 4541.41 2800.02C4521.08 2733.53 4509.3 2664.14 4503.66 2594.84C4497.12 2514.35 4497.97 2433.05 4505.02 2352.6C4509.49 2301.49 4519.67 2250.15 4538.04 2202.24C4555.72 2156.16 4579.17 2110.87 4611.87 2073.91C4641.22 2040.75 4679.28 2014.16 4719.95 1996.64C4769.85 1975.16 4831.31 1985.9 4878.57 1959.1C4910.63 1940.92 4930.27 1904.07 4943.76 1869.77C4977.83 1783.11 5000.6 1692.05 5019.42 1600.85C5029.64 1551.35 5038.37 1499.55 5030.46 1449.62C5027.84 1433.12 5003.93 1429.31 4990.66 1419.16Z" fill="#f4ae5a" fill-rule="nonzero" opacity="1" stroke="none"/>
<path d="M5756.47 2.11634C5760.24 3.52364 5763.87 5.27167 5767.32 7.38983C5767.84 5.63403 5768.37 3.96574 5768.89 2.22042C5763.34 2.16547 5761.47 2.16589 5756.47 2.11634Z" fill="#c25d35" fill-rule="nonzero" opacity="1" stroke="none"/>
<path d="M3679.42 1052.9C3662.49 1030.33 3639.64 1011.17 3628.62 985.199C3610.32 942.083 3595.83 896.027 3592.98 849.274C3590.72 812.281 3606.75 776.441 3613.64 740.024C3641.82 778.09 3658.63 828.173 3698.19 854.222C3739.81 881.629 3793.23 891.574 3843.06 891.107C3934.18 890.255 4025.52 874.519 4113.37 850.336C4125.46 847.008 4119.89 826.12 4123.15 814.012C4071.16 779.297 4023.23 737.578 3967.2 709.867C3913.14 683.131 3854.78 664.431 3795.75 652.087C3736.56 639.709 3675.48 634.636 3615.02 636.222C3554.41 637.811 3493.58 646.262 3434.91 661.552C3376.23 676.844 3318.72 698.646 3265.3 727.358C3211.64 756.203 3161.68 792.488 3116.1 832.922C3078.09 866.652 3045.02 906.264 3016.36 948.236C2987.69 990.221 2964.37 1036.05 2945.25 1083.16C2929.41 1122.19 2916.03 1163.17 2912.09 1205.12C2904.12 1290.09 2902.54 1376.11 2909.8 1461.15C2914.11 1511.58 2927.46 1561.6 2946.53 1608.48C2966.24 1656.91 2994.11 1702.12 3025 1744.31C3061.89 1794.71 3102.02 1843.61 3148.88 1884.91C3184.34 1916.15 3227.47 1937.76 3269.36 1959.63C3308.7 1980.18 3347.6 2008.55 3391.87 2011.83C3438.41 2015.27 3481.36 1975.62 3527.93 1978.79C3566.88 1981.44 3598.7 2011.81 3634.08 2028.32C3657.28 1988.26 3708.21 1954.2 3703.67 1908.13C3698.45 1855.15 3635.04 1825.83 3609.54 1779.1C3583.86 1732.03 3560.11 1682.02 3551.43 1629.11C3533.88 1522.11 3560.02 1409.07 3531.67 1304.41C3523.62 1274.68 3469.64 1283.66 3451.19 1259C3432.25 1233.68 3425.67 1198.3 3428.77 1166.84C3430.4 1150.38 3447.59 1135.19 3463.75 1131.64C3514.84 1120.42 3571.4 1142.67 3620.54 1124.73C3649.62 1114.11 3659.79 1076.84 3679.42 1052.9Z" fill="#fde53d" fill-rule="nonzero" opacity="1" stroke="none"/>
<path d="M4187.39 1510.49C4107.77 1668.57 4107.77 1668.57 4028.15 1826.64C4015.78 1800.15 3997.36 1775.72 3991.05 1747.17C3979.18 1693.49 3979.87 1637.78 3974.28 1583.09C3947.83 1601.42 3925.96 1629.59 3894.91 1638.08C3840.95 1652.84 3782.86 1658.88 3727.53 1650.59C3688.01 1644.66 3651.14 1622.36 3620.3 1596.94C3584.62 1567.53 3561.65 1525.43 3532.32 1489.68C3541.43 1550.74 3540.72 1614.09 3559.64 1672.86C3576.46 1725.08 3606.42 1772.71 3637.92 1817.62C3681.54 1879.8 3722.91 1947.32 3783.91 1992.58C3834.89 2030.4 3900 2047.83 3962.57 2058.49C3980.97 2061.62 3992.93 2032.61 4011.55 2031.35C4097.01 2025.59 4183.17 2046.09 4268.42 2037.85C4341.18 2030.82 4415.1 2016.54 4481.49 1985.93C4587.65 1936.99 4689.66 1876.09 4780.05 1801.98C4825.19 1764.98 4863.22 1714.37 4880.68 1658.67C4903.16 1586.95 4903.07 1508.46 4895.5 1433.69C4892.12 1400.31 4878.48 1360.28 4848.87 1344.52C4809.22 1323.4 4759.16 1339.64 4714.31 1337.2C4712.69 1379.19 4717.61 1421.95 4709.44 1463.18C4701.79 1501.84 4685.6 1538.73 4667.47 1573.72C4655.08 1597.63 4639.68 1621.21 4618.77 1638.17C4593.09 1659.01 4563.59 1678.75 4531.01 1684.45C4481.06 1693.18 4427.16 1695.81 4378.95 1680.1C4322.27 1661.63 4271.84 1624.95 4227.2 1585.43C4206.03 1566.68 4200.66 1535.47 4187.39 1510.49Z" fill="#e78642" fill-rule="nonzero" opacity="1" stroke="none"/>
<path d="M5152.23 2332.48C5121.4 2350.2 5095.16 2382.46 5059.74 2385.63C5030.16 2388.28 5005.89 2360.53 4978.97 2347.99C4964.9 2376.53 4964.91 2376.56 4950.83 2405.1C4936.09 2380.95 4936.08 2380.95 4921.34 2356.8C4909.9 2381.18 4878.61 2404.36 4887.03 2429.94C4901.62 2474.22 4959.35 2492.66 4979.91 2534.51C4990.99 2557.06 4988.91 2588.57 4975.4 2609.76C4959.07 2635.36 4929.77 2664.03 4899.63 2660.38C4857.19 2655.22 4834.02 2602.64 4793.95 2587.76C4769.75 2578.78 4742.41 2590.88 4716.65 2592.44C4741.26 2647.49 4741.27 2647.45 4765.88 2702.49C4810.35 2691.95 4810.36 2691.98 4854.84 2681.43C4848.65 2712.25 4850.74 2745.97 4836.24 2773.86C4819.24 2806.55 4798.94 2847.04 4763.49 2857.06C4715.48 2870.62 4665.15 2834.18 4615.31 2836.27C4603.93 2836.75 4592.7 2853.06 4595.5 2864.1C4608.07 2913.74 4631.01 2960.91 4657.88 3004.51C4687.13 3051.98 4723.46 3095.19 4762.45 3135.06C4770.48 3143.28 4785.16 3150.29 4795.44 3145.16C4821.33 3132.22 4838.16 3106.08 4859.52 3086.56C4838.28 3122.27 4801.83 3152.58 4795.79 3193.69C4792.59 3215.42 4828.14 3225.34 4836.1 3245.8C4842.33 3261.81 4823.42 3285.74 4836.1 3297.32C4904 3359.38 4980.43 3414.11 5063.49 3453.65C5099.16 3470.64 5142.31 3459.13 5181.72 3461.88C5121.41 3412.77 5057.09 3368.2 5000.79 3314.53C4984.05 3298.57 4976.85 3274.96 4964.89 3255.17C4980.44 3253.44 4999.81 3239.62 5011.55 3249.97C5064.91 3296.96 5092.7 3368.7 5146.54 3415.14C5179.23 3443.34 5222.26 3460.11 5264.64 3468.3C5279.27 3471.12 5294.22 3457.39 5303.01 3445.36C5318.71 3423.91 5338.01 3398.66 5334.9 3372.26C5332.03 3347.89 5298.56 3337.77 5287.75 3315.75C5275.44 3290.67 5274.1 3261.55 5267.28 3234.46C5284.73 3254.83 5297.66 3280.2 5319.63 3295.59C5330.8 3303.41 5348.03 3305.54 5360.33 3299.65C5379.79 3290.32 5397.27 3273.66 5406.3 3254.06C5416.68 3231.53 5419.14 3204.71 5415.35 3180.2C5391.27 3024.47 5353.93 2871.09 5323.21 2716.54C5315.38 2747.88 5318.5 2784.29 5299.72 2810.57C5278.56 2840.17 5245.97 2864.65 5210.76 2873.81C5186.83 2880.04 5158.57 2868.28 5139.81 2852.16C5114.28 2830.22 5094.96 2799.15 5086.07 2766.68C5076.51 2731.74 5094.55 2693.37 5086.66 2658.02C5074.13 2601.84 5046.07 2550.27 5025.77 2496.41C5058.99 2476.94 5097.53 2464.54 5125.45 2438.02C5144.65 2419.79 5155.19 2393.01 5161.7 2367.35C5164.67 2355.68 5155.39 2344.1 5152.23 2332.48Z" fill="#6d3e38" fill-rule="nonzero" opacity="1" stroke="none"/>
<path d="M4928.04 1884.96C4911.27 1908.1 4903.2 1941.42 4877.73 1954.39C4829.31 1979.05 4768.4 1968.81 4719.01 1991.47C4675.93 2011.24 4636.92 2042.18 4606.74 2078.73C4571.73 2121.13 4546.11 2171.67 4527.46 2223.4C4508.53 2275.93 4498.22 2332.06 4495.3 2387.82C4490.73 2475.13 4489.9 2563.84 4505.15 2649.93C4524.33 2758.14 4563.48 2861.92 4597.82 2966.31C4610.5 3004.83 4621.92 3045.37 4645.98 3078.02C4700.67 3152.25 4769.61 3214.86 4831.42 3283.27C4815.81 3237.22 4809.78 3186.71 4784.58 3145.12C4752.86 3092.76 4696.6 3058.41 4663.85 3006.69C4633.93 2959.45 4620.57 2903.58 4598.93 2852.03C4662.74 2851.49 4737.36 2885.97 4790.34 2850.39C4842.05 2815.68 4836.61 2734.72 4859.73 2676.89C4813.77 2688.58 4813.75 2688.61 4767.79 2700.31C4719.97 2597.2 4719.99 2597.2 4672.17 2494.09C4702.13 2518.31 4727.13 2550.41 4762.03 2566.74C4774.56 2572.6 4791.67 2564.17 4801.72 2554.66C4816.54 2540.63 4821.53 2518.95 4831.42 2501.09C4858.99 2511.8 4884.68 2530.12 4914.09 2533.19C4926.04 2534.43 4933.93 2519.62 4943.83 2512.82C4926.35 2479.26 4896.64 2449.57 4891.37 2412.1C4888.66 2392.85 4912.28 2379.34 4922.73 2362.94C4937.01 2385.93 4937.01 2385.89 4951.29 2408.88C4963.99 2380.16 4963.98 2380.17 4976.68 2351.46C5006.53 2365.12 5033.76 2397.1 5066.26 2392.47C5104.09 2387.08 5128.27 2347.81 5159.28 2325.47C5151.8 2353.87 5153.28 2386.32 5136.83 2410.65C5113.09 2445.75 5055.75 2456.33 5043.36 2496.86C5033.29 2529.83 5060.17 2565.73 5081.04 2593.17C5095.41 2612.07 5122.41 2616.42 5143.11 2628.04C5156.07 2614.7 5178.78 2606.32 5182 2588C5187.37 2557.49 5171.53 2526.95 5166.28 2496.41C5188.35 2495.37 5215.36 2507.25 5232.48 2493.29C5253.49 2476.17 5268.05 2444.36 5262.7 2417.79C5247.35 2341.51 5210.05 2270.84 5173.85 2201.96C5147.21 2151.29 5114.27 2103.23 5075.32 2061.28C5040.06 2023.31 4986.75 2004.45 4953.54 1964.69C4935.66 1943.28 4936.54 1911.54 4928.04 1884.96Z" fill="#99563a" fill-rule="nonzero" opacity="1" stroke="none"/>
<path d="M4381.77 1163.9C4311.73 1179.3 4230.91 1211.18 4197.26 1274.5C4162.65 1339.63 4178.95 1426.79 4205.48 1495.61C4228.34 1554.88 4279.26 1605.97 4336.05 1634.46C4391.12 1662.09 4461.48 1672.82 4519.93 1653.35C4582.5 1632.5 4639.89 1582.55 4669.18 1523.47C4702.63 1456 4711.02 1372.8 4695.56 1299.1C4685.38 1250.53 4644.03 1205.89 4598.45 1186.26C4531.76 1157.53 4452.68 1148.3 4381.77 1163.9Z" fill="#13bee8" fill-rule="nonzero" opacity="1" stroke="none"/>
<path d="M3754.15 1142.82C3679.94 1133.53 3591.54 1166.39 3545.51 1225.33C3506.26 1275.59 3525.42 1354.57 3540.38 1416.56C3554.71 1475.92 3581.41 1539.53 3630.22 1576.22C3682.25 1615.34 3754.88 1637.11 3819.02 1626.05C3893.27 1613.26 3971.55 1573.07 4013.13 1510.24C4054.43 1447.81 4086.06 1348.83 4042.93 1287.64C3980.89 1199.62 3861 1156.21 3754.15 1142.82Z" fill="#13bee8" fill-rule="nonzero" opacity="1" stroke="none"/>
<path d="M3536.36 2065.51C3511.27 2098.08 3475.86 2124.86 3461.09 2163.23C3437.45 2224.65 3430.09 2291.63 3424.1 2357.17C3411.93 2490.23 3401.68 2624.13 3406.72 2757.66C3410.21 2850.27 3418.5 2945.06 3449.56 3032.38C3492.62 3153.42 3538.22 3281.35 3626.3 3374.88C3709.98 3463.75 3837.99 3496.47 3943.84 3557.27C3930.91 3497.54 3938.5 3429.24 3905.06 3378.1C3848.08 3290.96 3741.09 3244.83 3683.02 3158.41C3612.37 3053.27 3557.34 2935.25 3525.13 2812.74C3492.88 2690.06 3479.99 2559.83 3492.48 2433.59C3503.69 2320.26 3560.76 2216.31 3594.9 2107.66C3565.63 2086.59 3565.63 2086.59 3536.36 2065.51Z" fill="#1a2131" fill-rule="nonzero" opacity="1" stroke="none"/>
<path d="M3229.58 2285.64C3218.76 2421.81 3187.92 2557.85 3197.12 2694.13C3206.32 2830.33 3249.99 2962.13 3284.17 3094.28C3294.69 3134.95 3310 3174.88 3330.9 3211.32C3360.24 3262.44 3396.62 3309.41 3433.84 3355.11C3450.68 3375.78 3469.92 3395.25 3492.39 3409.58C3521.14 3427.92 3554.49 3437.78 3585.54 3451.89C3588.72 3442.5 3595.68 3433.62 3595.09 3423.73C3593.21 3392.63 3588.94 3361.07 3578.31 3331.8C3547.72 3247.56 3503.98 3168.58 3472.01 3084.86C3456.97 3045.49 3445.14 3004.67 3437.53 2963.22C3420.91 2872.69 3402.54 2781.72 3399.48 2689.74C3396.1 2588.17 3413.41 2486.95 3418.31 2385.45C3418.46 2382.37 3415.82 2379.8 3414.58 2376.98C3395.81 2406.34 3395.81 2406.34 3377.04 2435.7C3357.41 2421.92 3340.91 2401.89 3318.13 2394.35C3302.16 2389.06 3283.81 2405.13 3267.93 2399.58C3254.93 2395.04 3246.1 2380.71 3241.7 2367.66C3232.89 2341.47 3233.62 2312.98 3229.58 2285.64Z" fill="#6d3e38" fill-rule="nonzero" opacity="1" stroke="none"/>
<path d="M3759.82 1109.93C3659.07 1110.23 3557.63 1125.48 3456.73 1128.77C3447.31 1163.85 3414.52 1200.46 3428.46 1234C3444.79 1273.29 3497.27 1284.08 3531.67 1309.11C3538 1281.57 3533.65 1249.05 3550.65 1226.47C3571.52 1198.76 3602.87 1172.97 3637.32 1168.84C3741.6 1156.36 3850.62 1151.95 3952.27 1178.38C3992.72 1188.9 4024.82 1231.84 4035.33 1272.3C4051.95 1336.34 4030.54 1404.56 4028.15 1470.68C4049.03 1436.05 4061.17 1394.32 4090.8 1366.81C4102.67 1355.79 4130.76 1353.68 4139.38 1367.4C4183.36 1437.44 4179.94 1534.62 4234.99 1596.34C4283.92 1651.2 4358.67 1690.03 4431.98 1695.43C4502.19 1700.6 4582.01 1675.82 4631.3 1625.56C4686.87 1568.89 4689.1 1477.71 4718 1403.79C4671.5 1476.82 4652.34 1577.72 4578.5 1622.92C4509.53 1665.13 4415.04 1655.97 4336.33 1637.42C4291.57 1626.87 4261.39 1580.9 4236.41 1542.29C4211.92 1504.43 4197.68 1459.22 4192.08 1414.48C4186.26 1368.02 4184.09 1317.33 4202.9 1274.45C4218.95 1237.88 4251.42 1203.14 4289.74 1191.88C4371.77 1167.77 4460.76 1162.95 4545.57 1173.73C4589.75 1179.35 4633.39 1205.14 4662.04 1239.24C4689.48 1271.9 4689.08 1320.17 4702.6 1360.63C4744.18 1355.12 4787.06 1332.45 4827.36 1344.08C4903.04 1365.93 4965.87 1419.12 5035.14 1456.63C5037.37 1453.61 5040.09 1450.76 5042.95 1447.96C5042.02 1439.69 5041.99 1431.35 5042.81 1422.77C5043.6 1414.44 5044.95 1406.79 5047.18 1396.71C5047.52 1395.16 5047.84 1393.83 5048.39 1391.37C5050.6 1381.66 5051.32 1377.98 5051.69 1374.61C5051.72 1374.32 5051.74 1374.13 5051.76 1373.88C5051.41 1373.07 5051.13 1372.37 5050.2 1370.73C5048.6 1367.9 5046.73 1364.91 5042.67 1358.83C5042.35 1358.35 5042.33 1358.37 5042.01 1357.89C5033.12 1344.56 5029.07 1337.99 5024.46 1328.26C5023.84 1326.96 5023.4 1325.62 5022.82 1324.31C4961.68 1269.69 4895.24 1217.24 4818.48 1189.9C4709.9 1151.23 4591.19 1150.74 4476.64 1138.03C4426.83 1132.51 4375.51 1125.81 4326.31 1135.33C4249.06 1150.27 4181.14 1213.7 4102.53 1210.37C4015.9 1206.71 3946.32 1126.49 3860.3 1115.62C3826.91 1111.4 3793.41 1109.83 3759.82 1109.93Z" fill="#000000" fill-rule="nonzero" opacity="1" stroke="none"/>
<path d="M4998.33 984.687C4965.84 1009 4936.52 1038.28 4900.84 1057.61C4869.18 1074.76 4834.26 1087.16 4798.7 1092.83C4758.05 1099.31 4715.97 1099.44 4675.22 1093.59C4630 1087.1 4588.65 1062.18 4543.35 1056.19C4495.05 1049.8 4443.04 1040.37 4397.19 1056.85C4366.78 1067.78 4355.7 1106.37 4334.95 1131.13C4499.15 1152.1 4669.44 1145.02 4827.57 1194.03C4902.87 1217.37 4969.68 1268.36 5023.93 1326.98C5021.39 1321.46 5019.36 1315.88 5017.69 1310.22C4987.7 1259.75 4991.7 1193.78 4969.01 1139.11C4962.21 1122.7 4944.4 1113.48 4932.1 1100.67C4952.97 1076.3 4978.82 1055.43 4994.72 1027.57C5001.83 1015.11 4997.13 998.978 4998.33 984.687Z" fill="#efc8ab" fill-rule="nonzero" opacity="1" stroke="none"/>
<path d="M3615.98 730.657C3606.47 750.155 3593.15 768.219 3587.44 789.15C3583.53 803.477 3587.73 818.849 3587.88 833.698C3607.26 822.839 3607.26 822.839 3626.64 811.979C3661.64 845.9 3690.84 887.063 3731.63 913.741C3769.21 938.32 3817.04 942.488 3857.13 962.728C3899.06 983.901 3933.17 1019.58 3976.63 1037.44C3986.31 1041.42 3995.37 1018.69 4004.73 1023.39C4038.24 1040.23 4067.98 1065.84 4091.42 1095.13C4119.17 1129.82 4134.19 1173.01 4155.57 1211.95C4169.3 1207.64 4186.35 1208.96 4196.76 1199.03C4223.41 1173.58 4233.43 1132.89 4262.33 1110.04C4291.96 1086.61 4336.25 1087.85 4366.31 1064.97C4403.79 1036.46 4425.39 991.114 4460.24 959.451C4492.61 930.046 4531.26 908.402 4566.77 882.877C4515.29 868.892 4465.11 848.589 4412.32 840.921C4345.71 831.247 4277.83 827.326 4210.64 831.153C4155.47 834.294 4100.57 845.623 4047.69 861.683C4004.74 874.729 3969.49 910.029 3925.29 917.823C3909.9 920.536 3902.62 894.331 3887.63 889.903C3827.19 872.039 3761.31 874.328 3702.39 851.951C3678.82 843.003 3662.99 819.57 3648.37 799.042C3633.73 778.499 3626.78 753.452 3615.98 730.657Z" fill="#99563a" fill-rule="nonzero" opacity="1" stroke="none"/>
<path d="M4409.87 1199.03C4389.8 1386.68 4389.8 1386.68 4369.72 1574.34C4422.95 1588.14 4476.11 1629.28 4529.41 1615.73C4579.25 1603.07 4617.1 1553.14 4638.02 1506.16C4663.13 1449.76 4673.34 1382.56 4660.07 1322.26C4650.58 1279.17 4614.76 1240.19 4575.18 1220.69C4525.32 1196.14 4464.97 1206.25 4409.87 1199.03Z" fill="#000000" fill-rule="nonzero" opacity="1" stroke="none"/>
<path d="M3751.81 1177.95C3743.62 1181.44 3734.77 1189.37 3734.48 1198.26C3733.05 1241.83 3738.5 1285.5 3736.21 1329.03C3735.55 1341.61 3726.93 1352.79 3725.7 1365.33C3723.51 1387.85 3728.07 1410.68 3726.05 1433.21C3721.65 1482.18 3713 1530.68 3706.48 1579.41C3736.34 1590 3769.3 1589.03 3800.98 1589.63C3841.74 1590.4 3867.26 1588.88 3902.08 1566.86C3990.42 1510.99 4054.55 1366.58 3993.02 1271.62C3957.12 1216.24 3895.49 1193.31 3751.81 1177.95Z" fill="#060f1b" fill-rule="nonzero" opacity="1" stroke="none"/>
<path d="M3260.02 2351.22C3283.44 2344.19 3283.44 2344.19 3306.86 2337.17C3328.96 2370.44 3328.96 2370.44 3351.07 2403.72C3378.14 2388.01 3378.14 2388.01 3405.21 2372.29C3412.24 2387.52 3412.24 2387.52 3419.27 2402.74C3439.48 2313.48 3449.52 2221.29 3479.91 2134.97C3489.36 2108.15 3517.39 2092.19 3536.13 2070.8C3564.34 2090.4 3564.34 2090.4 3592.56 2110.01C3612.96 2066.7 3612.96 2066.7 3633.37 2023.4C3585.84 2006.29 3541.18 1975.59 3490.8 1972.05C3457.35 1969.71 3422.18 1985.35 3396.39 2006.78C3347.29 2047.56 3303.03 2096.85 3272.84 2153.09C3248.31 2198.78 3239.95 2252.63 3236.6 2304.38C3235.47 2321.8 3252.21 2335.6 3260.02 2351.22Z" fill="#99563a" fill-rule="nonzero" opacity="1" stroke="none"/>
<path d="M4229.74 3603.07C4214.44 3637.44 4194.62 3670.13 4183.82 3706.16C4172.9 3742.59 4171.35 3781.18 4165.12 3818.69C4268.51 3821.15 4371.88 3827.01 4475.3 3826.08C4513.05 3825.73 4550.44 3818.61 4588 3814.87C4582.55 3759.8 4581.49 3704.11 4571.63 3649.65C4560.39 3587.59 4540.46 3527.43 4524.88 3466.32C4513.09 3471.66 4498.38 3472.92 4489.49 3482.33C4484.29 3487.84 4491.41 3498.11 4488.32 3505.03C4466.28 3554.52 4442.7 3603.53 4414.82 3649.98C4396.15 3681.09 4375.98 3712.35 4349.2 3736.84C4343.5 3742.05 4332.86 3735.31 4326.94 3730.33C4311.76 3717.54 4296.7 3703.11 4288 3685.26C4278.65 3666.08 4286.8 3640.1 4274.46 3622.69C4265.05 3609.42 4244.65 3609.61 4229.74 3603.07Z" fill="#2c9e6c" fill-rule="nonzero" opacity="1" stroke="none"/>
<path d="M3779.91 4046.71C3792.79 4002.22 3792.79 4002.22 3805.67 3957.72C3834.94 4027.98 3834.94 4027.98 3864.22 4098.24C3905.2 4043.2 3905.2 4043.2 3946.18 3988.17C3967.26 4054.91 3967.26 4054.91 3988.33 4121.65C3994.44 4097.74 3991.27 4069.21 4006.65 4049.9C4030.41 4020.08 4068.3 4005.01 4099.13 3982.57C4138.42 4011.73 4138.42 4011.73 4177.72 4040.9C4186.84 3993 4209.88 3945.72 4205.07 3897.2C4203.23 3878.55 4178.86 3862.69 4160.13 3863.43C4135.31 3864.42 4120.81 3899.3 4096.06 3901.52C4073.61 3903.53 4056.48 3873.48 4033.97 3874.74C4009.31 3876.13 3992.69 3911.08 3968.1 3908.71C3914.73 3903.56 3867.3 3872.09 3816.91 3853.79C3795.03 3881.53 3757.95 3902.32 3751.29 3937.01C3744.18 3974.13 3770.37 4010.15 3779.91 4046.71Z" fill="#000000" fill-rule="nonzero" opacity="1" stroke="none"/>
<path d="M4861.84 1360.63C4873.07 1419.38 4896.65 1477.04 4895.53 1536.84C4894.41 1596.85 4879.44 1657.43 4855.25 1712.36C4841.11 1744.48 4812.66 1769.56 4784.09 1789.94C4733.37 1826.12 4672.09 1845.39 4620.27 1880C4579.69 1907.1 4545.6 1942.8 4508.24 1974.2C4574.59 1955.16 4645.86 1948.59 4707.28 1917.09C4776.31 1881.69 4843.48 1836.57 4893 1776.86C4941.95 1717.83 4973.95 1644.32 4994.72 1570.5C5008.18 1522.68 5019.56 1463.49 4992.99 1421.52C4967.21 1380.8 4905.56 1380.93 4861.84 1360.63Z" fill="#99563a" fill-rule="nonzero" opacity="1" stroke="none"/>
<path d="M4100.74 1355.93C4086.7 1371.43 4068.86 1384.2 4058.62 1402.44C4025.59 1461.3 3986.78 1519.59 3971.94 1585.43C3960.96 1634.16 3972.34 1686.19 3983.7 1734.83C3992.15 1771.02 4014.89 1802.28 4030.49 1836.01C4041.42 1804.78 4048.16 1771.76 4063.27 1742.34C4097.61 1675.51 4163.57 1622.16 4178.22 1548.47C4188.98 1494.39 4154.09 1440.35 4133.5 1389.19C4127.69 1374.76 4111.66 1367.02 4100.74 1355.93Z" fill="#fdcf15" fill-rule="nonzero" opacity="1" stroke="none"/>
<path d="M4381.77 4065.45C4400.5 4012.76 4400.5 4012.76 4419.23 3960.07C4433.43 4017.88 4433.43 4017.88 4447.62 4075.69C4497.36 4020.34 4497.36 4020.34 4547.09 3964.99C4552.39 3991.17 4551.68 4019.34 4563 4043.53C4572.32 4063.45 4592.26 4076.38 4606.89 4092.8C4643.04 4040.48 4643.04 4040.48 4679.18 3988.17C4721.37 4010.78 4721.37 4010.78 4763.55 4033.4C4772.13 4003.22 4795.72 3973.56 4789.28 3942.84C4783.99 3917.58 4758.08 3896.68 4733.35 3889.3C4713.86 3883.48 4695.56 3912.62 4675.57 3908.9C4653.31 3904.76 4639.21 3881.91 4621.03 3868.42C4600.45 3882.11 4584 3909.99 4559.29 3909.49C4519.22 3908.68 4484.85 3879.77 4447.63 3864.91C4422.7 3895.98 4385.28 3920.28 4372.85 3958.13C4361.64 3992.24 4378.79 4029.68 4381.77 4065.45Z" fill="#000000" fill-rule="nonzero" opacity="1" stroke="none"/>
<path d="M4840.78 3283.27C4805.66 3312.55 4805.66 3312.56 4770.53 3341.84C4816.11 3395.72 4855.89 3455.08 4907.26 3503.48C4941.6 3535.83 4982.45 3561.73 5025.18 3581.75C5049.67 3593.21 5077.98 3596.15 5105.01 3596.11C5123.19 3596.08 5148.53 3597.34 5157.58 3581.57C5175.44 3550.42 5168.78 3510.63 5174.37 3475.16C5153.46 3475.16 5131.95 3480.13 5111.64 3475.13C5092.9 3470.51 5076.67 3458.36 5060.92 3447.2C4986.26 3394.32 4914.16 3337.92 4840.78 3283.27Z" fill="#1a2131" fill-rule="nonzero" opacity="1" stroke="none"/>
<path d="M4997.67 761.986C4985.59 787.621 4979.71 817.258 4961.42 838.902C4942.49 861.295 4916.15 877.179 4889.67 889.764C4827.8 919.167 4763.89 945 4698.09 964.044C4626.68 984.712 4551.15 988.6 4479.52 1008.49C4456.68 1014.83 4437.77 1030.92 4416.89 1042.14C4458.27 1049.17 4499.07 1064.01 4541.03 1063.2C4566.77 1062.7 4588.64 1041.76 4614.16 1038.32C4680.55 1029.38 4749.82 1042.74 4814.76 1026.32C4870.77 1012.16 4913.61 962.778 4969.57 948.466C4985.31 944.442 4996.13 967.201 5009.4 976.568C5018.96 959.08 5035.83 943.882 5038.06 924.076C5042.61 883.466 5038.85 841.467 5028.97 801.814C5024.88 785.427 5008.11 775.266 4997.67 761.986Z" fill="#c25d35" fill-rule="nonzero" opacity="1" stroke="none"/>
<path d="M3611.3 906.296C3611.03 923.387 3603.28 942.08 3610.51 957.57C3626.18 991.161 3672.39 1010.01 3676.87 1046.81C3680.31 1075.13 3645.67 1094.59 3630.07 1118.49C3712.53 1119.2 3796.63 1104.24 3877.45 1120.61C3947.82 1134.86 4008.57 1179.15 4074.13 1208.42C4074.88 1186.89 4081.74 1164.69 4076.39 1143.82C4071.91 1126.37 4062.66 1106.12 4046.08 1099.08C3937.51 1053.03 3817.84 1036.2 3710.03 988.398C3670.9 971.048 3644.21 933.663 3611.3 906.296Z" fill="#e78642" fill-rule="nonzero" opacity="1" stroke="none"/>
<path d="M4231.89 3599.42C4245.16 3608.01 4263.14 3611.9 4271.7 3625.18C4286.94 3648.84 4284.19 3681.38 4299.8 3704.81C4311.14 3721.82 4332.66 3729.13 4349.09 3741.3C4368.57 3718.99 4392.49 3699.88 4407.53 3674.36C4442.78 3614.5 4468.41 3549.46 4498.86 3487.01C4489.88 3484.65 4481.19 3479.38 4471.92 3479.93C4440.79 3481.76 4410.53 3491.75 4379.42 3494.04C4343.78 3496.66 4301.29 3473.84 4272.21 3494.61C4241.75 3516.37 4245.33 3564.49 4231.89 3599.42Z" fill="#27baa0" fill-rule="nonzero" opacity="1" stroke="none"/>
<path d="M4189.73 1196.68C4240.56 1176.87 4297.07 1167.89 4342.21 1137.25C4361.86 1123.91 4356.79 1090.62 4372.38 1072.71C4388.53 1054.15 4410.46 1039.44 4433.87 1031.91C4542.67 996.903 4655.18 974.708 4765.83 946.107C4716.83 927.117 4669.16 904.245 4618.83 889.137C4598.69 883.09 4575.08 874.233 4556.02 883.129C4513.66 902.901 4480.1 938.083 4445.84 969.885C4414.49 998.988 4393.88 1039.22 4359.89 1065.19C4328.63 1089.07 4284.82 1092.62 4253.69 1116.68C4226.68 1137.56 4211.05 1170.02 4189.73 1196.68Z" fill="#f4ae5a" fill-rule="nonzero" opacity="1" stroke="none"/>
<path d="M3583.19 833.698C3618.63 884.722 3635.34 956.365 3689.51 986.77C3796.44 1046.78 3924.64 1056.46 4042.2 1091.3C3904.81 996.847 3775.42 889.536 3630.03 807.938C3614.49 799.218 3598.81 825.111 3583.19 833.698Z" fill="#442622" fill-rule="nonzero" opacity="1" stroke="none"/>
<path d="M4233.41 1453.18C4301.46 1444.22 4301.46 1444.22 4369.51 1435.26C4376.81 1320.65 4376.81 1320.65 4384.11 1206.05C4377.08 1204.49 4369.27 1197.78 4363.03 1201.37C4319.82 1226.25 4264.1 1243.94 4241.28 1288.28C4216.09 1337.2 4236.03 1398.21 4233.41 1453.18Z" fill="#cdf0f8" fill-rule="nonzero" opacity="1" stroke="none"/>
<path d="M5130.72 2657.29C5128.69 2657.21 5126.62 2657.26 5124.51 2657.43C5110.46 2658.56 5094.95 2664.43 5081.11 2664.89C5089.66 2718.78 5084.66 2776.66 5106.75 2826.56C5118.06 2852.11 5147.83 2867.56 5174.51 2875.89C5195.1 2882.33 5220.35 2879.11 5238.73 2867.81C5268.98 2849.2 5298.16 2823.47 5312.55 2791C5325.78 2761.16 5314.96 2725.75 5316.16 2693.13C5299.77 2716.54 5289.32 2745.52 5267 2763.38C5255.36 2772.7 5233.89 2777.68 5222.49 2768.07C5189.53 2740.28 5182.37 2688.11 5147.55 2662.7C5142.51 2659.02 5136.81 2657.53 5130.72 2657.29Z" fill="#c25d35" fill-rule="nonzero" opacity="1" stroke="none"/>
<path d="M4969.57 941.423C4926.05 964.525 4886.55 997.755 4839.02 1010.74C4741.97 1037.26 4640.36 1042.59 4541.03 1058.52C4591.83 1073.42 4640.84 1096.9 4693.4 1103.24C4736.67 1108.45 4782.86 1107.74 4823.72 1092.59C4884.47 1070.04 4935.02 1026.15 4990.66 992.944C4980.12 967.184 4980.11 967.184 4969.57 941.423Z" fill="#442622" fill-rule="nonzero" opacity="1" stroke="none"/>
<path d="M3726.05 1182.63C3685.09 1200.37 3638.26 1208.24 3603.18 1235.83C3584.49 1250.54 3579.15 1277.97 3575.03 1301.4C3571.47 1321.7 3578.91 1342.44 3580.85 1362.96C3654.61 1375.15 3654.61 1375.15 3728.36 1387.34C3734.17 1328.22 3746.46 1269.38 3745.79 1209.98C3745.66 1198.74 3732.63 1191.75 3726.05 1182.63Z" fill="#cdf0f8" fill-rule="nonzero" opacity="1" stroke="none"/>
<path d="M4128.85 2843C4148.05 2892.15 4150.19 2952.12 4186.47 2990.44C4210.8 3016.14 4255.26 3019.4 4290.14 3013.39C4314.77 3009.14 4334.44 2985.34 4345.66 2963C4361.37 2931.74 4359.93 2894.51 4367.07 2860.26C4311.42 2871.15 4256.69 2897.01 4200.13 2892.92C4171.2 2890.82 4152.61 2859.64 4128.85 2843Z" fill="#e78642" fill-rule="nonzero" opacity="1" stroke="none"/>
<path d="M3719.02 2831.3C3729.27 2876.45 3728 2925.88 3749.75 2966.76C3765.89 2997.09 3801.42 3012.06 3827.25 3034.72C3855.13 3004.73 3891.84 2981 3910.89 2944.76C3927.35 2913.44 3923.28 2875.1 3929.47 2840.27C3893.45 2855.04 3860.3 2886.24 3821.4 2884.58C3782.96 2882.94 3753.15 2849.06 3719.02 2831.3Z" fill="#e78642" fill-rule="nonzero" opacity="1" stroke="none"/>
<path d="M3538.7 1297.38C3540.64 1366.95 3522.72 1439.99 3544.51 1506.08C3560.63 1554.97 3601.07 1597.28 3645.92 1622.56C3697.39 1651.57 3760.53 1669.31 3819 1660.8C3880.82 1651.81 3936.03 1612.41 3984.71 1573.25C4000.31 1560.7 3994.93 1534.53 4000.04 1515.18C3948.29 1548.05 3904.97 1602.15 3844.77 1613.79C3776.26 1627.04 3685.89 1635.49 3637.37 1585.33C3566.83 1512.41 3571.59 1393.37 3538.7 1297.38Z" fill="#060f1b" fill-rule="nonzero" opacity="1" stroke="none"/>
<path d="M3580.85 1358.27C3591.35 1408.5 3594.06 1461.02 3612.36 1508.96C3621.69 1533.39 3641.11 1553.81 3661.68 1569.97C3673.81 1579.49 3691.35 1578.42 3706.18 1582.64C3712.14 1483.41 3712.14 1483.41 3718.1 1384.17C3649.47 1371.22 3649.47 1371.22 3580.85 1358.27Z" fill="#7296ad" fill-rule="nonzero" opacity="1" stroke="none"/>
<path d="M3704.97 3117C3720.92 3146.88 3726.29 3185.57 3752.81 3206.63C3782.45 3230.17 3823.65 3235.18 3861.06 3240.93C3883.32 3244.35 3908.12 3243.74 3928.22 3233.58C3946.24 3224.48 3959.7 3205.98 3967.26 3187.26C3974.28 3169.87 3968.82 3149.79 3969.6 3131.05C3902.02 3135.49 3834.5 3147.97 3766.87 3144.38C3744.34 3143.18 3725.6 3126.13 3704.97 3117Z" fill="#e78642" fill-rule="nonzero" opacity="1" stroke="none"/>
<path d="M4281.07 3095.92C4231.22 3129.11 4198.94 3146.61 4138.21 3126.37C4124.08 3121.66 4096.9 3102.31 4082.01 3105.29C4073.45 3107 4076.66 3122.35 4077.32 3131.05C4084.28 3221.49 4194.47 3276.19 4259.99 3210.67C4278.66 3192 4298.77 3084.14 4281.07 3095.92Z" fill="#e78642" fill-rule="nonzero" opacity="1" stroke="none"/>
<path d="M4939.14 2510.46C4920.48 2539.97 4920.48 2539.97 4901.81 2569.48C4856.07 2554.02 4856.06 2554.02 4810.32 2538.56C4796.27 2557.3 4796.27 2557.3 4782.22 2576.03C4806.44 2601.93 4825.31 2634.18 4854.91 2653.71C4872.35 2665.23 4898.4 2674.98 4916.63 2664.75C4949.27 2646.42 4971.9 2612.05 4988.72 2578.6C4996.06 2564 4994.1 2542.97 4984.49 2529.75C4974.82 2516.46 4954.27 2516.9 4939.14 2510.46Z" fill="#c25d35" fill-rule="nonzero" opacity="1" stroke="none"/>
<path d="M5262.32 2426.16C5252.31 2447.97 5252.39 2478.49 5232.27 2491.59C5212.53 2504.44 5185.16 2491.69 5161.6 2491.73C5156.85 2558.07 5156.85 2558.06 5152.09 2624.4C5087.19 2556.9 5087.18 2556.9 5022.27 2489.4C5044.41 2545.85 5055.28 2608.14 5088.67 2658.74C5098.89 2674.22 5124.71 2667.56 5142.73 2671.96C5159.87 2637.31 5167.76 2596.21 5194.18 2567.98C5209.09 2552.05 5236.11 2555.87 5257.08 2549.81C5259.69 2487.99 5259.71 2487.97 5262.32 2426.16Z" fill="#f4ae5a" fill-rule="nonzero" opacity="1" stroke="none"/>
<path d="M3934.47 3398.02C3933.41 3407.86 3928.23 3418.12 3931.29 3427.52C3945.09 3469.92 3960.34 3512.67 3984.09 3550.41C3994.68 3567.25 4012.91 3579.5 4031.45 3586.72C4046.41 3592.54 4063.55 3587.3 4079.6 3587.59C4080.07 3545.78 4106.41 3495.36 4080.99 3462.17C4048.58 3419.83 3983.31 3419.4 3934.47 3398.02Z" fill="#1a2131" fill-rule="nonzero" opacity="1" stroke="none"/>
<path d="M5290.42 2618.19C5227.91 2623.91 5227.89 2623.91 5165.38 2629.64C5179.74 2691.27 5179.76 2691.27 5194.11 2752.9C5245.23 2744.06 5245.23 2744.05 5296.35 2735.21C5293.38 2676.7 5293.39 2676.7 5290.42 2618.19Z" fill="#6d3e38" fill-rule="nonzero" opacity="1" stroke="none"/>
<path d="M3837.97 2563.99C3792.95 2590.07 3792.95 2590.07 3747.92 2616.14C3767.97 2647.31 3767.97 2647.31 3788.02 2678.48C3819.09 2657.7 3819.09 2657.7 3850.17 2636.92C3867.73 2673.22 3867.73 2673.22 3885.29 2709.52C3902.94 2691.7 3924.44 2677 3938.24 2656.06C3961.21 2621.21 3975.61 2581.43 3994.3 2544.11C3958.74 2572.71 3927.91 2608.45 3887.63 2629.9C3877.64 2635.22 3862.71 2626.84 3855.89 2617.8C3844.51 2602.7 3843.94 2581.93 3837.97 2563.99Z" fill="#e78642" fill-rule="nonzero" opacity="1" stroke="none"/>
<path d="M4365.37 1433.21C4322.88 1453.2 4284.72 1441.9 4236.57 1449.6C4232.58 1450.24 4232.56 1456.61 4230.56 1460.12C4246.23 1471.94 4246.29 1496.17 4256 1513.23C4275.14 1546.86 4306.77 1571.1 4339.61 1590.12C4352.61 1597.64 4370.29 1603.02 4384.11 1597.14C4380.59 1585.72 4374.62 1574.79 4373.57 1562.89C4369.9 1521.37 4372.68 1479.49 4370.06 1437.9C4369.92 1435.69 4366.93 1434.77 4365.37 1433.21Z" fill="#a4c4d6" fill-rule="nonzero" opacity="1" stroke="none"/>
<path d="M5416.88 3191.96C5384.94 3246.83 5384.92 3246.82 5352.97 3301.69C5307.03 3260.71 5307.05 3260.73 5261.1 3219.75C5293.13 3294.31 5293.12 3294.3 5325.15 3368.86C5377.14 3350.47 5377.17 3350.48 5429.16 3332.09C5423.02 3262.02 5423.02 3262.02 5416.88 3191.96Z" fill="#c25d35" fill-rule="nonzero" opacity="1" stroke="none"/>
<path d="M5154.59 2976.51C5076.58 3027.53 5076.58 3027.52 4998.57 3078.54C5056.65 3103.33 5056.62 3103.34 5114.69 3128.12C5134.63 3052.31 5134.66 3052.31 5154.59 2976.51Z" fill="#c25d35" fill-rule="nonzero" opacity="1" stroke="none"/>
<path d="M4489.49 3077.19C4409.87 3121.68 4409.87 3121.68 4330.24 3166.18C4385.32 3172.92 4440.83 3196.06 4495.47 3186.39C4520.3 3181.99 4527.79 3147.69 4543.95 3128.34C4516.72 3102.76 4516.72 3102.76 4489.49 3077.19Z" fill="#e78642" fill-rule="nonzero" opacity="1" stroke="none"/>
<path d="M5006.24 3234.35C4992.5 3234.1 4975.7 3244.28 4961.35 3246.11C4994.95 3292.21 5018.91 3347.21 5062.17 3384.41C5102.86 3419.4 5158.14 3432.51 5206.11 3456.57C5167.11 3422.01 5123.07 3392.41 5089.09 3352.9C5059.95 3319.03 5053.05 3267.45 5018.77 3238.79C5015.07 3235.7 5010.82 3234.44 5006.24 3234.35Z" fill="#99563a" fill-rule="nonzero" opacity="1" stroke="none"/>
<path d="M5276.37 2463.63C5269.93 2491.08 5274.63 2523.94 5257.04 2545.99C5241.49 2565.48 5206.5 2557.9 5187.9 2574.51C5175.16 2585.88 5176.61 2606.75 5170.97 2622.87C5184.06 2631.92 5194.45 2651.94 5210.24 2650C5245.13 2645.71 5274.22 2620.84 5306.21 2606.25C5291.28 2534.94 5291.29 2534.94 5276.37 2463.63Z" fill="#c25d35" fill-rule="nonzero" opacity="1" stroke="none"/>
<path d="M4000.04 1016.36C3989.51 1025.73 3989.51 1025.73 3978.97 1035.1C4004.59 1062.26 4038.07 1083.75 4055.85 1116.59C4070.56 1143.76 4066.92 1177.38 4072.46 1207.77C4112.29 1207.91 4112.29 1207.91 4152.13 1208.05C4130.82 1167.71 4116.55 1122.76 4088.19 1087.01C4064.79 1057.51 4029.43 1039.91 4000.04 1016.36Z" fill="#f4ae5a" fill-rule="nonzero" opacity="1" stroke="none"/>
<path d="M5161.6 2964.78C5143.9 2982.48 5158.77 3019.98 5168.64 3039.72C5194.36 3091.14 5242.56 3123.91 5295.1 3081.87C5308.75 3070.96 5356.23 3032.95 5332.57 3009.29C5258.79 3083.08 5209.02 3028.01 5161.6 2964.78Z" fill="#fafbf6" fill-rule="nonzero" opacity="1" stroke="none"/>
<path d="M4583.16 3201.31C4573.78 3203.71 4556.49 3213.91 4552.72 3222.38C4536.11 3259.76 4612.07 3301.09 4644.05 3297.32C4655.78 3295.94 4652.29 3273.46 4648.74 3262.2C4641.94 3240.68 4602.4 3196.38 4583.16 3201.31Z" fill="#e78642" fill-rule="nonzero" opacity="1" stroke="none"/>
<path d="M4667.47 2477.68C4637.54 2507.6 4735.58 2678.68 4791.59 2566.67C4788.08 2563.15 4788.08 2563.15 4784.56 2559.64C4742.17 2580.84 4687.05 2507.05 4667.47 2477.68Z" fill="#efe7e0" fill-rule="nonzero" opacity="1" stroke="none"/>
<path d="M4906.36 2779.79C4946.58 2830.82 4946.56 2830.8 4986.78 2881.83C5027.35 2853.05 5027.36 2853.05 5067.93 2824.27C5039.22 2829.66 5009.97 2848.19 4981.82 2840.44C4950.7 2831.87 4931.51 2800.01 4906.36 2779.79Z" fill="#efc8ab" fill-rule="nonzero" opacity="1" stroke="none"/>
<path d="M3887.63 894.586C3936.79 943.737 3960.57 904.956 4009.41 880.535C4029.72 870.38 4065.75 871.034 4082.01 854.775C4066.46 839.229 3905.8 876.421 3887.63 894.586Z" fill="#e78642" fill-rule="nonzero" opacity="1" stroke="none"/>
<path d="M4826.73 2487.04C4817.83 2495.94 4822.05 2511.93 4822.05 2524.51C4822.05 2544.46 4831.74 2552.07 4847.79 2566.67C4886.27 2601.64 4967.76 2536.75 4941.47 2510.46C4900.14 2551.79 4855.1 2529.59 4826.73 2487.04Z" fill="#fafbf6" fill-rule="nonzero" opacity="1" stroke="none"/>
<path d="M3236.6 2316.09C3204.62 2348.07 3260.79 2410.04 3297.49 2407.42C3326.99 2405.31 3306.06 2352.02 3318.57 2339.51C3309.33 2321.04 3277.69 2348.3 3260.02 2346.53C3253.54 2345.88 3241.65 2321.14 3236.6 2316.09Z" fill="#f4ae5a" fill-rule="nonzero" opacity="1" stroke="none"/>
<path d="M4564.43 2573.69C4531.15 2591.3 4601.11 2687.59 4639.37 2683.76C4641.57 2683.54 4643.78 2681.27 4644.05 2679.08C4644.33 2676.85 4605.89 2586.04 4601.9 2580.72C4593.87 2570.01 4576.47 2567.32 4564.43 2573.69Z" fill="#c25d35" fill-rule="nonzero" opacity="1" stroke="none"/>
<path d="M3313.88 2339.51C3302.29 2351.1 3306.16 2384.26 3311.54 2400.4C3336.89 2400.4 3347.5 2435.43 3372.43 2442.55C3402.81 2451.23 3423.31 2372.04 3412.24 2367.61C3397.41 2361.68 3372.38 2411.83 3356.04 2400.4C3330.42 2382.46 3332.11 2357.74 3313.88 2339.51Z" fill="#cd9358" fill-rule="nonzero" opacity="1" stroke="none"/>
<path d="M4983.62 3067.82C4949.26 3102.18 4917.5 3131.37 4878.25 3072.51C4872.4 3077.19 4872.38 3077.19 4866.53 3081.87C4877.4 3103.61 4893.03 3140.91 4920.41 3145.12C4958.22 3150.94 5010.13 3099.64 4983.62 3067.82Z" fill="#e2e8be" fill-rule="nonzero" opacity="1" stroke="none"/>
<path d="M4857.16 3067.82C4836.89 3065.34 4830.69 3101 4817.35 3117C4799.18 3138.8 4800.23 3133.76 4782.22 3142.76C4761.81 3152.97 4793.35 3182.28 4803.3 3187.26C4830.91 3201.06 4883.09 3071 4857.16 3067.82Z" fill="#cd9358" fill-rule="nonzero" opacity="1" stroke="none"/>
<path d="M4131.19 1355.93C4133.11 1386.18 4128.75 1417.5 4136.97 1446.67C4144.74 1474.25 4164.34 1497.02 4178.02 1522.2C4172.56 1473.8 4174.84 1423.89 4161.63 1377.01C4158.28 1365.13 4141.34 1362.96 4131.19 1355.93Z" fill="#c25d35" fill-rule="nonzero" opacity="1" stroke="none"/>
<path d="M4552.72 2510.46C4524.63 2508.03 4562.25 2604.92 4597.22 2580.72C4609.56 2572.17 4632.78 2544.86 4618.29 2540.91C4584.26 2531.63 4592.28 2513.89 4552.72 2510.46Z" fill="#efc8ab" fill-rule="nonzero" opacity="1" stroke="none"/>
<path d="M5220.96 3455.42C5183.47 3454.93 5133.19 3466.59 5114.76 3465.94C5097.43 3465.32 5107.84 3458.81 5096.03 3470.62C5114.19 3488.78 5234.38 3491.52 5259.96 3465.94C5252.4 3458.38 5238 3455.65 5220.96 3455.42Z" fill="#473e33" fill-rule="nonzero" opacity="1" stroke="none"/>
<path d="M3405.21 2573.69C3402.51 2613.74 3396.6 2653.7 3397.1 2693.83C3397.39 2717.27 3404.07 2740.2 3407.56 2763.38C3406.39 2668.54 3406.39 2668.54 3405.21 2573.69Z" fill="#442622" fill-rule="nonzero" opacity="1" stroke="none"/>
<path d="M4742.41 3512.77C4730.7 3528.39 4709.15 3540.18 4707.28 3559.61C4704.78 3585.66 4722.89 3609.57 4730.7 3634.55C4736.56 3573.66 4736.56 3573.66 4742.41 3512.77Z" fill="#cd9358" fill-rule="nonzero" opacity="1" stroke="none"/>
<path d="M4269.36 925.03C4246.81 947.575 4276.3 986.002 4302.14 960.158C4291.77 949.789 4282.95 936.905 4269.36 925.03Z" fill="#6d3e38" fill-rule="nonzero" opacity="1" stroke="none"/>
<path d="M4133.53 927.372C4107.1 949.617 4167.1 1005.51 4161.63 950.791C4160.7 941.437 4150.32 935.485 4142.9 929.714C4140.36 927.738 4135.99 925.299 4133.53 927.372Z" fill="#6d3e38" fill-rule="nonzero" opacity="1" stroke="none"/>
<path d="M4135.87 3922.6C4124.58 3925.62 4147.13 3976.76 4154.61 3971.78C4176.59 3957.12 4157.72 3916.75 4135.87 3922.6Z" fill="#b16613" fill-rule="nonzero" opacity="1" stroke="none"/>
<path d="M4199.1 1011.68C4175.32 1035.46 4192.68 1040.38 4208.47 1056.17C4223.4 1046.22 4214.8 1022.7 4199.1 1011.68Z" fill="#6d3e38" fill-rule="nonzero" opacity="1" stroke="none"/>
<path d="M4716.65 1346.56C4698.58 1364.64 4686 1377.65 4716.65 1398.08C4730.09 1384.65 4730.09 1360 4716.65 1346.56Z" fill="#6d3e38" fill-rule="nonzero" opacity="1" stroke="none"/>
<path d="M5074.97 2770.42C5064.15 2781.24 5058.91 2797.26 5049.19 2810.22C5077.15 2838.18 5085.97 2781.42 5074.97 2770.42Z" fill="#d39b79" fill-rule="nonzero" opacity="1" stroke="none"/>
<path d="M2918.11 1496.44C2901.53 1513.02 2904.79 1541.67 2920.45 1557.33C2933.69 1544.09 2933.25 1511.58 2918.11 1496.44Z" fill="#e2e8be" fill-rule="nonzero" opacity="1" stroke="none"/>
<path d="M4161.63 3960.07C4147.57 3974.12 4138.93 3998.25 4156.95 4016.27C4165.4 4007.82 4169.96 3968.39 4161.63 3960.07Z" fill="#bf812b" fill-rule="nonzero" opacity="1" stroke="none"/>
<path d="M3562.12 3287.96C3552.44 3297.64 3565.45 3326.42 3576.17 3337.13C3582.02 3331.28 3582.02 3331.28 3587.88 3325.43C3579.46 3312.8 3570.54 3300.58 3562.12 3287.96Z" fill="#32974a" fill-rule="nonzero" opacity="1" stroke="none"/>
<path d="M4983.62 3037.4C4981.28 3039.74 4981.28 3039.74 4978.94 3042.08C4990.67 3065.54 4970.75 3059.64 4992.99 3081.87C5006.83 3068.03 5000.55 3045.86 4983.62 3037.4Z" fill="#efc8ab" fill-rule="nonzero" opacity="1" stroke="none"/>
<path d="M5159.28 2320.79C5148.04 2332.03 5149.21 2362.25 5161.6 2374.63C5167.66 2368.58 5171.05 2327.88 5159.28 2320.79Z" fill="#c25d35" fill-rule="nonzero" opacity="1" stroke="none"/>
<path d="M3719.02 1384.03C3709.82 1393.23 3720.8 1432.65 3726.05 1437.9C3740.01 1423.93 3740.01 1398 3719.02 1384.03Z" fill="#727b8a" fill-rule="nonzero" opacity="1" stroke="none"/>
<path d="M4871.21 3081.87C4875.9 3077.19 4875.9 3077.19 4880.58 3072.51C4863.94 3039.22 4843.24 3067.89 4871.21 3081.87Z" fill="#bcc5be" fill-rule="nonzero" opacity="1" stroke="none"/>
<path d="M4126.5 821.989C4113.03 835.463 4132.78 853.178 4147.58 838.382C4141.56 832.361 4138.42 826.809 4126.5 821.989Z" fill="#e3d06d" fill-rule="nonzero" opacity="1" stroke="none"/>
<path d="M4822.03 2524.51C4815.01 2531.54 4815.01 2531.54 4807.98 2538.56C4825.26 2561.6 4839.57 2542.05 4822.03 2524.51Z" fill="#c3744b" fill-rule="nonzero" opacity="1" stroke="none"/>
<path d="M4416.89 1039.78C4408.98 1047.69 4401.05 1048.6 4393.47 1056.17C4402.21 1064.91 4420.47 1059.62 4428.6 1051.49C4422.75 1045.64 4422.75 1045.64 4416.89 1039.78Z" fill="#99563a" fill-rule="nonzero" opacity="1" stroke="none"/>
<path d="M5302.11 2604.14C5290.75 2615.49 5295.19 2609.85 5288.06 2620.55C5299.42 2631.9 5294.98 2626.22 5302.11 2636.92C5311.5 2627.53 5311.5 2613.53 5302.11 2604.14Z" fill="#67592c" fill-rule="nonzero" opacity="1" stroke="none"/>
<path d="M4784.56 2573.69C4775.55 2582.71 4779.37 2577.96 4772.85 2587.74C4786.32 2605.7 4804.66 2593.78 4784.56 2573.69Z" fill="#99563a" fill-rule="nonzero" opacity="1" stroke="none"/>
<path d="M4941.47 1086.62C4934.44 1093.64 4934.44 1093.64 4927.42 1100.67C4944.82 1118.07 4955.35 1100.51 4941.47 1086.62Z" fill="#cd9358" fill-rule="nonzero" opacity="1" stroke="none"/>
<path d="M3402.87 2580.72C3409.76 2577.27 3405.9 2578.93 3414.58 2576.03C3414.58 2556.5 3387.8 2565.64 3402.87 2580.72Z" fill="#000000" fill-rule="nonzero" opacity="1" stroke="none"/>
</g>
</g>
</svg>
