<?xml version="1.0" encoding="UTF-8" standalone="no"?>
<!DOCTYPE svg PUBLIC "-//W3C//DTD SVG 1.1//EN" "http://www.w3.org/Graphics/SVG/1.1/DTD/svg11.dtd">
<!-- Created with Vectornator (http://vectornator.io/) -->
<svg height="100%" stroke-miterlimit="10" style="fill-rule:nonzero;clip-rule:evenodd;stroke-linecap:round;stroke-linejoin:round;" version="1.1" viewBox="0 0 7680 4320" width="100%" xml:space="preserve" xmlns="http://www.w3.org/2000/svg" xmlns:xlink="http://www.w3.org/1999/xlink">
<defs/>
<g id="Ebene-1">
<g opacity="1">
<path d="M5630.88 0C5630.88 65.261 5628.75 120.97 5628.75 194.062C5628.75 214.619 5576.4 191.117 5561.25 187.75C5508.23 175.968 5453.5 169.235 5400.94 156.094C5383.25 151.672 5350.16 141.492 5337.66 154C5357.2 173.546 5390.38 176.492 5413.59 191.969C5450.01 216.244 5479.18 248.746 5514.84 274.219C5548.65 298.367 5582.67 317.844 5616.09 341.719C5618.36 343.335 5632.55 353.596 5632.97 358.594C5634.84 381.016 5635.45 403.731 5632.97 426.094C5632.53 430.047 5627.34 431.719 5624.53 434.531C5625.94 435.938 5628.71 436.762 5628.75 438.75C5630.13 506.236 5629.31 573.752 5628.75 641.25C5628.55 665.224 5626.81 769.752 5620.31 776.25C5578.97 748.691 5546.1 691.841 5499.19 669.344C5495.16 670.66 5491 671.653 5486.59 671.906C5486.58 671.908 5486.43 671.934 5486.41 671.938C5486.22 671.964 5485.92 672.026 5484.81 672.219C5482.22 672.672 5480.92 672.865 5478.97 673.125C5475.56 673.579 5472.26 673.844 5468.69 673.844C5462.22 673.844 5455.79 672.888 5449.5 670.906C5447.25 672.579 5444.94 674.162 5442.44 675.594C5438.62 677.771 5434.59 679.571 5429.81 680.938C5420.47 683.611 5410.29 684.076 5399.09 680.344C5387.82 676.586 5378.07 669.299 5371.34 659.281C5371.27 659.177 5371.23 659.073 5371.16 658.969C5365.53 658.582 5359.93 657.438 5354.38 655.656C5352.23 656.573 5350.13 657.571 5347.91 658.312C5343.92 659.642 5341.25 660.328 5335.94 661.562C5334.42 661.915 5333.82 662.048 5333.28 662.188C5333.07 662.241 5332.94 662.285 5332.84 662.312C5332.84 662.313 5332.87 662.282 5332.97 662.25C5321.35 666.122 5309.4 665.278 5298.84 661.094C5285.74 663.991 5272.19 666.166 5257.72 667.594C5246.36 668.714 5234.49 669.336 5221.09 669.812C5329.6 733.947 5443.36 797.486 5533.84 892.281C5553.41 912.784 5572.86 933.395 5592.91 953.438C5598.58 959.106 5608.89 960.775 5611.88 968.219C5619.46 987.182 5608 1031.43 5607.66 1042.03C5606.3 1083.49 5608.34 1125.02 5607.66 1166.5C5607.6 1170.02 5601.46 1171.42 5601.34 1174.94C5597.26 1293.41 5590.63 1413.8 5588.69 1529.31C5586.33 1669.35 5584.57 1817.07 5580.25 1955.41C5577.75 2035.53 5583.94 2115.93 5578.12 2195.88C5576.76 2214.68 5563.44 2248.65 5561.25 2267.59C5552.66 2342.02 5559.36 2419 5552.81 2495.41C5545.5 2580.75 5524.12 2671.88 5521.19 2756.97C5520.63 2773.2 5518.99 2795.64 5512.75 2809.69C5511.13 2813.32 5504.99 2814.21 5504.31 2818.12C5499.63 2845.07 5499.21 2873.17 5497.97 2900.41C5495.53 2954.03 5469.39 3006.88 5466.34 3058.59C5454.77 3255.35 5361.39 3422.49 5276.5 3592.28C5241.45 3662.38 5185.09 3731.49 5141.5 3796.88C5130.55 3813.3 5106.28 3821.19 5090.88 3832.75C5069.41 3848.85 5024.42 3878.61 5044.47 3908.69C5062.38 3935.55 5090.67 3933.83 5111.97 3950.88C5155 3985.3 5205.33 3984.24 5257.5 3997.28C5285.66 4004.32 5313.06 4013.56 5344 4016.25C5378.71 4019.27 5419.96 4015.32 5453.69 4024.69C5495.33 4036.26 5533.9 4073.22 5576.03 4083.75C5611.69 4092.66 5649.6 4138.47 5683.59 4155.47C5695.59 4161.47 5722.19 4189.72 5736.34 4185C5750.35 4180.33 5682.31 4094.63 5677.28 4079.53C5668.03 4051.77 5649.88 4014.71 5635.09 3988.84C5630.89 3981.49 5635.65 3971.56 5632.97 3963.53C5629.06 3951.81 5616.41 3933.43 5614 3921.34C5607.89 3890.77 5605.41 3851.54 5603.44 3820.09C5602.66 3807.69 5594.06 3743.58 5618.22 3731.5C5650.19 3715.51 5757.49 3784.28 5780.62 3805.31C5793.87 3817.35 5807.85 3828.96 5818.59 3843.28C5833.32 3828.56 5812.35 3782.4 5808.06 3763.12C5793.14 3695.98 5788.28 3626.46 5793.28 3556.41C5798.68 3480.76 5852.45 3392.28 5921.97 3364.47C5941.65 3356.6 5975.44 3337.78 5995.78 3358.12C5996.84 1679.06 5996.85 1679.06 5997.91 0C5814.39 0 5814.39 0 5630.88 0Z" fill="#6f2b2f" fill-rule="nonzero" opacity="1" stroke="none"/>
<path d="M4055.16 3307.5C4066.03 3296.62 4086.16 3313.57 4097.34 3318.05C4142.06 3335.93 4247.65 3378.86 4164.84 3434.06C4144.89 3447.36 4119.83 3445.04 4099.45 3457.27C4069.45 3475.27 4020.62 3475.07 3985.55 3480.47C3922.08 3490.23 3859.05 3498.27 3791.48 3503.67C3734.71 3508.21 3664.05 3502.31 3607.97 3516.33C3563.24 3527.51 3518.19 3531.51 3470.86 3537.42C3437.24 3541.62 3393.85 3556.36 3361.17 3560.63C3314.19 3566.75 3267.71 3566.44 3219.84 3573.28C3146.73 3583.73 3072.83 3588.64 3000.47 3600.7C2966.88 3606.3 2904.1 3602.15 2878.13 3628.13C2930.99 3688.54 2864.96 3740.17 2825.39 3786.33C2834.81 3795.75 2832.86 3817 2850.7 3834.84C2868.82 3852.96 2918.96 3849.49 2943.52 3851.72C3007.93 3857.58 3073.92 3862.2 3137.58 3872.81C3155.68 3875.83 3194.08 3892.95 3207.19 3908.67C3214.23 3917.12 3205.64 3926.73 3217.73 3933.98C3231.84 3942.45 3253.49 3942.34 3268.36 3952.97C3317.79 3988.28 3380.16 4030.44 3380.16 4096.41C3380.16 4132.98 3327.14 4160.58 3300 4178.67C3221.64 4230.91 3120.13 4259.26 3044.77 4315.78C3658.59 4316.48 4272.42 4318.59 4886.25 4317.89C4887.82 4317.89 4887.66 4315.08 4888.36 4313.67C4832.52 4257.83 4734.58 4253.62 4717.5 4159.69C4704.98 4090.84 4736.75 4051.84 4782.89 4005.7C4800.1 3988.49 4822.68 3973.91 4818.75 3967.73C4818.24 3966.93 4787.17 3938.52 4787.11 3938.2C4785.7 3930.47 4788.45 3920.56 4782.89 3915C4777.82 3920.07 4780.08 3929.06 4778.67 3936.09C4774.91 3954.89 4698.62 3944.63 4690.08 3936.09C4691.13 3933.98 4691.13 3933.98 4692.19 3931.88C4684.7 3924.39 4687.02 3922.49 4679.53 3915C4693.57 3893.95 4705.05 3870 4725.94 3851.72C4734.69 3844.06 4770.34 3845.37 4782.89 3843.28C4796.24 3841.06 4792.31 3827.49 4812.42 3836.95C4823.46 3842.15 4828.19 3857.27 4839.84 3862.27C4857.16 3869.69 4905.28 3840.63 4920 3836.95C4993.77 3818.51 5069.85 3812.19 5141.48 3792.66C5158.59 3787.99 5220.94 3681.65 5238.52 3661.88C5227.11 3650.47 5151.15 3679.24 5128.83 3670.31C5106.91 3661.55 5096.36 3635.1 5078.2 3626.02C5065.74 3619.78 5050.08 3633.28 5040.23 3636.56C5010.94 3646.33 4960.53 3649.76 4932.66 3632.34C4908.94 3617.52 4901.22 3595.5 4896.8 3571.17C4896.44 3569.22 4894.46 3567.58 4892.58 3566.95C4877.23 3561.84 4864.82 3586.67 4858.83 3592.27C4843.13 3606.92 4781.72 3636.29 4761.8 3619.69C4741.53 3602.8 4760.4 3578.21 4742.81 3560.63C4705.39 3579.34 4626.89 3594.1 4590.94 3583.83C4573.75 3578.92 4551.58 3578.12 4557.19 3550.08C4561.99 3526.06 4591.25 3522.35 4605.7 3507.89C4596.17 3493.58 4536.26 3501.04 4517.11 3469.92C4478.11 3406.55 4646.33 3378.44 4679.53 3381.33C4692.31 3382.44 4704.68 3387.05 4717.5 3387.66C4738.65 3388.66 4759.24 3404.58 4780.78 3402.42C4791.93 3401.31 4759.69 3349.44 4759.69 3332.81C4759.69 3329.27 4767.22 3323.35 4768.13 3322.27C4777.92 3310.52 4785.22 3295.3 4801.88 3292.73C4811.02 3291.33 4822.76 3295.06 4829.3 3288.52C4818.6 3277.82 4828.18 3237.57 4814.53 3233.67C4800.82 3229.76 4772.8 3239.15 4759.69 3240C4731.66 3241.81 4703.37 3244.96 4675.31 3246.33C4561.71 3251.87 4454.28 3263.46 4342.03 3269.53C4261.78 3273.87 4181.94 3275.64 4101.56 3277.97C4069.62 3278.89 4033.06 3274.35 4055.16 3307.5Z" fill="#e9824c" fill-rule="nonzero" opacity="1" stroke="none"/>
<path d="M3848.44 717.188C3931.02 717.188 4001.2 764.571 4074.14 767.813C4104.35 769.155 4134.64 766.47 4164.84 767.813C4166.83 767.901 4168.32 770.185 4169.06 772.031C4174.73 786.189 4112.52 816.928 4099.45 824.766C4055.69 851.024 4022.53 882.703 3985.55 919.688C3978.92 926.315 3961.44 943.491 3958.13 953.438C3955.98 959.864 3966.26 959.168 3960.23 968.203C3947.21 987.736 3928.55 1008.54 3924.38 1031.48C3920.91 1050.55 3925.66 1082.94 3911.72 1096.88C3889.91 1082.33 3874.46 1049.54 3861.09 1027.27C3838.97 990.387 3809.55 957.302 3774.61 932.344C3742.59 909.469 3695.25 891.174 3658.59 885.938C3637.98 882.992 3617 894.97 3599.53 877.5C3605.46 865.648 3607.39 831.677 3614.3 824.766C3601.24 811.704 3524.94 810.084 3502.5 803.672C3471.48 794.81 3435.13 767.351 3416.02 742.5C3408.97 733.337 3425.48 733.657 3409.69 727.734C3372.21 713.68 3328.49 720.095 3293.67 693.984C3259.18 668.118 3227.01 637.997 3198.75 605.391C3193.71 599.579 3156.47 545.507 3150.23 561.094C3140.88 584.467 3159.44 630.896 3167.11 653.906C3202.25 759.33 3288.91 838.774 3394.92 869.063C3418 875.655 3476.08 872.175 3491.95 888.047C3474.82 905.185 3431.85 904.251 3411.8 921.797C3332.36 991.301 3262.13 1057.42 3238.83 1162.27C3181.5 1420.26 3344.67 1699.4 3610.08 1740.23C3653.04 1746.84 3699.24 1752.7 3742.97 1738.13C3797.21 1720.04 3863.25 1684.43 3901.17 1641.09C3907.14 1634.27 3884.73 1590.92 3882.19 1582.03C3867.59 1530.92 3860.28 1497.76 3865.31 1438.59C3865.65 1434.63 3872.66 1433.98 3873.75 1430.16C3881.97 1401.38 3884.65 1373.07 3918.05 1360.55C3932.01 1355.31 3954.91 1378.03 3970.78 1354.22C3974.85 1348.11 3960.23 1324.69 3958.13 1318.36C3950.98 1296.93 3942.26 1270.47 3941.25 1250.86C3935.79 1144.41 3962.9 1058.43 4044.61 989.297C4070.23 967.618 4102.08 959.662 4133.2 953.438C4315.14 917.051 4397.25 1086.23 4392.66 1242.42C4392.36 1252.46 4390.18 1318.72 4373.67 1335.23C4371.56 1333.13 4371.56 1333.13 4369.45 1331.02C4362.17 1338.3 4360.64 1355.17 4356.8 1364.77C4345.46 1393.1 4314.3 1424.14 4293.52 1444.92C4218.2 1520.24 4085.43 1501.91 4006.64 1442.81C3985.99 1463.46 4008.33 1488.81 4002.42 1512.42C4000.05 1521.91 3987.44 1578.61 3989.77 1592.58C3993.93 1617.55 4113.49 1663.16 4137.42 1664.3C4162.72 1665.5 4188.04 1666.41 4213.36 1666.41C4222.77 1666.41 4232.46 1662.31 4240.78 1670.63C4254.8 1656.61 4275.48 1648.82 4291.41 1636.88C4336.18 1603.29 4376.38 1560.65 4405.31 1512.42C4511.06 1336.18 4506.66 998.236 4329.38 856.406C4344.87 840.906 4370.5 831.699 4388.44 816.328C4436.71 774.948 4471.82 720.037 4466.48 656.016C4465.18 640.381 4474.65 626.216 4462.27 613.828C4415.79 644.809 4387.49 714.955 4350.47 757.266C4348.36 755.156 4348.36 755.156 4346.25 753.047C4408.09 691.211 4424.3 632.241 4424.3 544.219C4424.3 529.578 4420.35 497.97 4405.31 489.375C4393.05 482.368 4357.39 564.125 4352.58 573.75C4319.36 640.187 4262.52 703.443 4192.27 723.516C4100.18 749.827 4014.84 706.947 3928.59 700.313C3910.81 698.944 3834.47 675.297 3848.44 717.188Z" fill="#f59b5c" fill-rule="nonzero" opacity="1" stroke="none"/>
<path d="M2816.95 2065.08C2838.91 2098.02 2843.27 2158.09 2895 2168.44C2913.55 2172.15 2933.59 2164.32 2945.63 2166.33C2975.62 2171.33 2992.57 2189.17 3023.67 2168.44C3060.78 2196.27 3071.56 2236.48 3124.92 2240.16C3152.46 2242.06 3171.83 2244.67 3196.64 2240.16C3202.29 2239.13 3229.94 2223.4 3232.5 2225.39C3246.6 2236.36 3260 2256.52 3278.91 2261.25C3391.36 2289.36 3475.86 2272.66 3557.34 2197.97C3586.57 2227.19 3499.87 2340.24 3481.41 2360.39C3485.63 2365.66 3485.63 2365.66 3489.84 2370.94C3475.49 2385.29 3473.03 2402.49 3462.42 2417.34C3436.87 2453.11 3405.83 2474.76 3371.72 2497.5C3383.69 2509.47 3416.95 2529.14 3435 2529.14C3450.38 2529.14 3457.08 2513.21 3475.08 2516.48C3513.07 2523.39 3443.87 2596.54 3439.22 2600.86C3415.12 2623.24 3358.69 2618.11 3344.3 2632.5C3353.98 2642.18 3346.46 2649.42 3356.95 2659.92C3365.75 2668.72 3401.96 2676.47 3405.47 2685.23C3413.25 2704.7 3363.77 2735.16 3346.41 2735.86C3330.23 2736.51 3314.08 2737.97 3297.89 2737.97C3276.31 2737.97 3242.54 2712.15 3228.28 2697.89C3224.69 2694.3 3224.8 2685.61 3219.84 2683.13C3207.88 2677.14 3199.09 2694.97 3190.31 2697.89C3180.42 2701.19 3175.32 2712.19 3165 2714.77C3137.12 2721.74 3110.2 2725.31 3080.63 2725.31C3071.17 2725.31 3067.4 2711.58 3059.53 2706.33C3039.3 2692.84 2996.26 2692.09 2973.05 2674.69C2959.67 2664.65 2947.38 2655.34 2935.08 2643.05C2927.64 2635.61 2928.98 2622.13 2920.31 2615.63C2910.8 2608.49 2893.38 2625.25 2882.34 2626.17C2865.4 2627.58 2843.74 2620.47 2831.72 2632.5C2841.64 2642.42 2859.05 2628.1 2865.47 2640.94C2866.69 2643.39 2850.87 2667.08 2852.81 2676.8C2859.25 2708.97 2886.31 2730.64 2916.09 2748.52C2938.91 2762.2 2972.57 2769.61 3000.47 2769.61C3018.87 2769.61 3026.52 2759.96 3046.88 2765.39C3054.96 2767.55 3058.03 2784.99 3063.75 2790.7C3061.64 2792.81 3061.64 2792.81 3059.53 2794.92C3070.93 2806.32 3099.52 2828.65 3116.48 2832.89C3122.53 2834.4 3176.01 2831.92 3177.66 2843.44C3187.68 2913.58 3086.64 2966.08 3027.89 2942.58C2991.52 2928.03 2967.74 2889.3 2935.08 2872.97C2886.91 2921.13 2822.72 2898.81 2781.09 2853.98C2763.54 2835.08 2767.55 2804.59 2749.45 2786.48C2768.85 2767.09 2828.97 2793.45 2854.92 2767.5C2851.55 2760.75 2836.71 2722.19 2829.61 2721.09C2792.29 2715.35 2725.1 2695.4 2713.59 2649.38C2706.77 2622.09 2707.27 2597.77 2707.27 2567.11C2707.27 2549.82 2721.1 2525.54 2734.69 2516.48C2725.05 2506.85 2712.76 2511.85 2700.94 2505.94C2654.7 2552.18 2647.78 2636.72 2671.41 2695.78C2678.3 2713.02 2701.97 2730.49 2705.16 2746.41C2709.18 2766.5 2696.72 2780.16 2692.5 2797.03C2685.03 2826.92 2679.84 2865.16 2679.84 2896.17C2679.84 2998.23 2878.99 3023.85 2951.95 3026.95C2978.66 3028.09 3005.38 3029.06 3032.11 3029.06C3079.4 3029.06 3128.75 3022.59 3175.55 3012.19C3190.43 3008.88 3210.91 2997.09 3224.06 3005.86C3241.03 2988.9 3308.24 2983.2 3333.75 2967.89C3385.17 2937.04 3429.05 2916.89 3477.19 2868.75C3513.48 2832.46 3540.16 2784.99 3561.56 2742.19C3572.74 2719.83 3596.55 2695.94 3601.64 2670.47C3604.17 2657.82 3609.53 2639.74 3616.41 2628.28C3675.53 2529.74 3683.03 2391.4 3673.36 2280.23C3659.07 2115.95 3620.48 1969.21 3508.83 1843.59C3510.94 1841.48 3510.94 1841.48 3513.05 1839.38C3481.84 1808.17 3427.27 1784.89 3388.59 1765.55C3375.33 1758.91 3358.59 1765.3 3344.3 1761.33C3338.56 1759.74 3334.69 1750.13 3327.42 1748.67C3298.03 1742.79 3264.63 1733.91 3234.61 1733.91C3072.06 1733.91 2984.68 1835.65 2880.23 1957.5C2861.61 1979.23 2846.49 2003.9 2833.83 2029.22C2827.83 2041.21 2826.97 2055.06 2816.95 2065.08Z" fill="#a95444" fill-rule="nonzero" opacity="1" stroke="none"/>
<path d="M1842.42 0C1836.78 225.491 1828.05 447.044 1823.44 668.672C1822.89 694.72 1820.63 720.703 1819.22 746.719C1819.11 748.705 1816.41 749.531 1815 750.938C1795.43 731.365 1783.74 695.898 1766.48 672.891C1737.45 634.175 1710.96 595.348 1682.11 556.875C1681.41 620.156 1677.98 683.466 1680 746.719C1680.32 756.603 1713.74 788.191 1717.97 793.125C1735.7 813.808 1816.82 896.055 1817.11 917.578C1821.15 1220.9 1804.89 1518.91 1783.36 1820.39C1775.23 1934.19 1766.67 2048.05 1760.16 2162.11C1758.12 2197.76 1736.44 2260.74 1764.38 2288.67C1784.82 2268.23 1775.3 2222.03 1817.11 2212.73C1938.22 2185.82 1988.56 2392.21 1996.41 2478.52C1997.68 2492.52 1996.79 2506.65 1996.41 2520.7C1995.48 2554.97 1984.24 2588.64 1994.3 2590.31C2001.23 2591.47 2008.37 2589.84 2015.39 2590.31C2026.19 2591.03 2026.91 2595.61 2036.48 2592.42C2036.48 2571.33 2030.1 2543.48 2028.05 2527.03C2016.19 2432.15 2017.5 2327.3 2017.5 2231.72C2017.5 2063.87 2028.61 1894.71 2034.38 1727.58C2041.06 1533.74 2040.39 1339.33 2042.81 1145.39C2047.58 764.277 2033.37 383.471 2044.92 2.10938C1943.67 1.05469 1943.67 1.05469 1842.42 0Z" fill="#6f2b2f" fill-rule="nonzero" opacity="1" stroke="none"/>
<path d="M3510.94 1837.27C3507.77 1840.43 3507.77 1840.43 3504.61 1843.59C3590.11 1929.09 3639.97 2060.72 3660.7 2174.77C3666.89 2208.78 3664.85 2245.93 3669.14 2280.23C3674.46 2322.82 3674.77 2366.02 3673.36 2408.91C3672.57 2433.08 3669.88 2478.41 3660.7 2505.94C3640.63 2566.15 3616.87 2631.58 3586.88 2691.56C3598.68 2703.36 3611.96 2693 3618.52 2712.66C3631.18 2712.66 3651.17 2739.13 3662.81 2746.41C3684.71 2760.09 3758.23 2762.79 3776.72 2744.3C3762.14 2729.72 3771.53 2724.34 3757.73 2710.55C3765.87 2702.41 3774.91 2710.24 3783.05 2702.11C3766.98 2686.05 3745.79 2703.66 3726.09 2695.78C3712.99 2690.54 3696.18 2680.63 3686.02 2670.47C3676.83 2661.28 3663.18 2579.4 3664.92 2577.66C3691.74 2604.47 3704.52 2600.62 3734.53 2615.63C3745.98 2604.18 3784.98 2603.29 3802.03 2600.86C3812.61 2599.35 3844.42 2565.73 3852.66 2558.67C3846.33 2552.34 3846.33 2552.34 3840 2546.02C3854.04 2531.97 3866.94 2518.25 3877.97 2501.72C3885.85 2505.66 3886.14 2503.63 3894.84 2510.16C3896.95 2508.05 3896.95 2508.05 3899.06 2505.94C3901.17 2506.99 3901.17 2506.99 3903.28 2508.05C3907.5 2503.83 3907.5 2503.83 3911.72 2499.61C3980.23 2533.87 4007.1 2486.85 4057.27 2440.55C4065.01 2433.4 4069.41 2465.43 4069.92 2467.97C4073.09 2483.83 4081.12 2492.79 4095.23 2497.5C4123.33 2506.86 4144.69 2495.15 4169.06 2489.06C4176.61 2487.18 4189.78 2470.95 4196.48 2474.3C4204.63 2478.37 4199.88 2492.46 4207.03 2499.61C4215.78 2490.86 4210.64 2473.21 4217.58 2461.64C4227.88 2444.47 4257.79 2411.71 4253.44 2389.92C4250.47 2375.11 4211.91 2399.98 4207.03 2400.47C4194.44 2401.73 4181.66 2401.73 4169.06 2400.47C4164.39 2400 4163.74 2392.68 4164.84 2389.92C4173.72 2367.72 4206.35 2361.07 4221.8 2345.63C4232 2335.42 4241.13 2324.19 4251.33 2313.98C4254.05 2311.27 4270.2 2307.02 4270.31 2303.44C4271.67 2259.87 4270.93 2216.25 4270.31 2172.66C4270.16 2161.64 4264.77 2129.14 4257.66 2122.03C4243.24 2136.45 4207.9 2119.12 4200.7 2138.91C4190.73 2166.32 4188.38 2215.29 4147.97 2225.39C4089.23 2240.08 4059.44 2202.65 4065.7 2143.13C4066.65 2134.15 4086.7 2136.9 4093.13 2130.47C4086.27 2116.77 4006.3 2095.3 4017.19 2073.52C4022.83 2062.23 4046.83 2069.81 4050.94 2069.3C4060.89 2068.05 4133.18 2025.06 4135.31 2018.67C4144.33 1991.61 4072.18 2028.12 4067.81 1997.58C4066.56 1988.79 4068.12 1981.36 4076.25 1976.48C4085.6 1970.87 4099.85 1971.44 4110 1963.83C4128.22 1950.16 4144.71 1928.4 4164.84 1917.42C4178.78 1909.82 4178.8 1929.58 4175.39 1936.41C4178.55 1939.57 4178.55 1939.57 4181.72 1942.73C4188.75 1935.7 4185.54 1923.14 4185.94 1913.2C4186.52 1898.53 4190.16 1884.09 4190.16 1871.02C4190.16 1859.45 4149.59 1802.79 4141.64 1790.86C4135.48 1781.61 4115.08 1744.11 4103.67 1748.67C4071.58 1761.51 4036.67 1785.13 3998.2 1786.64C3965.88 1787.91 3933.5 1790.07 3901.17 1788.75C3884.49 1788.07 3870.94 1768.89 3850.55 1773.98C3825.24 1780.31 3802.13 1806.01 3776.72 1816.17C3733.27 1833.55 3684.68 1844.21 3637.5 1845.7C3595.24 1847.04 3540.83 1867.16 3510.94 1837.27Z" fill="#f59b5c" fill-rule="nonzero" opacity="1" stroke="none"/>
<path d="M1977.42 3522.66C1970.5 3529.58 1974.57 3533.94 1966.88 3541.64C1924.35 3513.29 1915.12 3605.73 1901.48 3623.91C1879.86 3652.74 1891.85 3701.58 1874.06 3733.59C1872.13 3737.07 1865.89 3738.06 1865.63 3742.03C1863.01 3781.32 1866.98 3820.8 1865.63 3860.16C1865.56 3862.14 1862.81 3862.97 1861.41 3864.38C1841.65 3847.91 1825.9 3825.53 1802.34 3813.75C1792.14 3808.65 1775.55 3804.06 1764.38 3803.2C1657.01 3794.94 1684.39 3876.65 1692.66 3959.3C1693.87 3971.42 1728.5 4026.83 1726.41 4031.02C1722.91 4038.01 1692.63 4029.62 1682.11 4033.13C1681.05 4175.51 1681.05 4175.51 1680 4317.89C2023.83 4317.89 2023.83 4317.89 2367.66 4317.89C2369.65 4305.96 2375.15 4300.19 2376.09 4288.36C2377.27 4273.62 2378.79 4258.83 2378.2 4244.06C2376.66 4205.53 2320.07 4283.86 2306.48 4275.7C2291.57 4266.76 2272.9 4243.35 2257.97 4231.41C2250.12 4225.13 2221.37 4228.81 2217.89 4216.64C2214.75 4205.65 2223.7 4191.31 2226.33 4180.78C2240.04 4125.92 2264.01 4077.73 2207.34 4035.23C2249.5 3950.92 2216.87 3795.28 2091.33 3858.05C2072.43 3839.15 2089.98 3804.61 2089.22 3777.89C2088.6 3756.17 2079.69 3730.15 2076.56 3708.28C2071.13 3670.24 2017.03 3603.51 1983.75 3653.44C1964.86 3640.84 2005.08 3550.31 1977.42 3522.66Z" fill="#0d4455" fill-rule="nonzero" opacity="1" stroke="none"/>
<path d="M4932.66 3088.13C4947.34 3102.81 4947.98 3104.11 4941.09 3128.2C4926.86 3178.02 4883.61 3162.69 4846.17 3185.16C4830.83 3194.36 4819.72 3210.64 4812.42 3225.23C4807.75 3234.58 4815.54 3260.72 4816.64 3269.53C4821 3304.41 4872.83 3302.9 4898.91 3315.94C4906.81 3319.89 4913.57 3329.15 4922.11 3332.81C4936.76 3339.09 4951.53 3336.71 4957.97 3356.02C4977.59 3356.02 5073.19 3399.82 5080.31 3415.08C5084.29 3423.59 5079.13 3442.37 5073.98 3450.94C5065.6 3464.92 5049.84 3459.85 5038.13 3465.7C5004.98 3482.27 4957.95 3478.37 4924.22 3495.23C4902.31 3506.19 4922.7 3511.23 4913.67 3524.77C4904.39 3538.68 4889.2 3552.61 4882.03 3566.95C4901.66 3586.58 4900.21 3620.34 4932.66 3636.56C4960.71 3650.59 5011.03 3653.3 5040.23 3640.78C5047.95 3637.47 5066.58 3627.06 5076.09 3630.23C5092.61 3635.74 5098.85 3656.74 5111.95 3668.2C5133.7 3687.23 5208.99 3676.34 5234.3 3661.88C5253.24 3651.05 5270.9 3607.65 5280.7 3588.05C5318.46 3512.54 5375.92 3441.04 5392.5 3358.13C5397.46 3333.31 5428.17 3299.82 5424.14 3271.64C5421.47 3252.96 5387.09 3268.34 5375.63 3256.88C5463.67 3168.83 5402.89 3041.72 5280.7 3041.72C5254.37 3041.72 5235.58 3089.37 5223.75 3107.11C5214.66 3098.02 5223.75 3090.23 5223.75 3079.69C5223.75 3045.93 5222.99 3012.17 5221.64 2978.44C5220.72 2955.37 5191.16 2923.3 5177.34 2906.72C5163.49 2890.09 5148.1 2873.26 5133.05 2858.2C5098.6 2823.75 4989.18 2774.68 4964.3 2824.45C4961.84 2829.36 4952.9 2829.65 4951.64 2835C4933.76 2910.98 4949.03 2991.1 4947.42 3069.14C4947.32 3073.9 4935.45 3082.54 4932.66 3088.13Z" fill="#619a54" fill-rule="nonzero" opacity="1" stroke="none"/>
<path d="M5820.7 3830.63C5818.59 3832.73 5818.59 3832.73 5816.48 3834.84C5770.85 3789.21 5727.39 3755.15 5666.72 3737.81C5654.87 3734.43 5617.11 3718.9 5609.77 3733.59C5585.67 3781.78 5602.67 3841.55 5607.66 3893.91C5617.23 3994.43 5674.3 4091.74 5736.33 4174.45C5726.84 4188.69 5626.28 4113.01 5609.77 4100.63C5571.38 4071.84 5527.79 4056.45 5485.31 4039.45C5475.36 4035.47 5464.29 4022.36 5455.78 4020.47C5429.97 4014.73 5389.48 4012.94 5365.08 4018.36C5356.83 4020.19 5354.53 4068.45 5354.53 4090.08C5354.53 4149.74 5386.62 4212.21 5407.27 4267.27C5409.56 4273.39 5421.14 4317.55 5432.58 4317.89C5502.86 4319.96 5573.22 4319.28 5643.52 4317.89C5646.19 4317.84 5709.14 4266.83 5719.45 4260.94C5723.46 4258.65 5732.09 4259.36 5736.33 4256.72C5752.23 4246.78 5772.69 4215.27 5791.17 4212.42C5825.08 4207.21 5852.97 4202.99 5879.77 4182.89C5958.74 4123.66 5957.81 4059.66 5957.81 3969.84C5957.81 3955.65 5997.72 3915.48 5997.89 3904.45C6000.65 3721.66 5999.98 3538.82 5997.89 3356.02C5997.86 3353.03 5993.89 3351.55 5991.56 3349.69C5948.08 3314.9 5856.29 3407 5837.58 3431.95C5776.67 3513.17 5787.22 3630.09 5799.61 3723.05C5804.36 3758.7 5804.06 3797.33 5820.7 3830.63Z" fill="#1b6053" fill-rule="nonzero" opacity="1" stroke="none"/>
<path d="M4202.81 1687.5C4187.75 1702.56 4179.15 1715.38 4164.84 1729.69C4153.41 1741.12 4128.78 1750.25 4122.66 1765.55C4119.04 1774.59 4156.09 1813.28 4160.63 1824.61C4171.69 1852.28 4193.66 1876.62 4204.92 1904.77C4219.4 1940.97 4238.19 1982.65 4253.44 2020.78C4309.88 2161.88 4325.58 2386.12 4238.67 2516.48C4229.63 2530.04 4228.16 2550.89 4217.58 2565C4132.59 2678.31 4081.74 2806.62 3962.34 2896.17C3932.04 2918.9 3893.12 2932.89 3861.09 2948.91C3830.52 2964.19 3802.83 2995.11 3768.28 3003.75C3743.83 3009.86 3720.01 3023.87 3694.45 3031.17C3648.79 3044.22 3598.04 3048.05 3551.02 3048.05C3541.23 3048.05 3458.67 3029.42 3456.09 3033.28C3445.17 3049.67 3453.23 3072.66 3453.98 3092.34C3454.2 3098.04 3495.06 3104.03 3500.39 3105C3530.17 3110.41 3560.83 3109.22 3591.09 3109.22C3602.95 3109.22 3614.92 3101.55 3626.95 3102.89C3637.12 3104.02 3634.49 3123.08 3639.61 3128.2C3644.88 3122.93 3640.48 3110.59 3648.05 3109.22C3667.65 3105.66 3689.64 3107.11 3709.22 3107.11C3725.82 3107.11 3754.9 3086.88 3770.39 3077.58C3782.69 3070.2 3783.66 3054.07 3791.48 3050.16C3812.14 3039.83 3832.82 3030.54 3852.66 3020.63C3887.82 3003.04 3914.93 2967.2 3947.58 2946.8C3967.92 2934.09 3994.01 2933.52 4015.08 2921.48C4032.68 2911.43 4049.61 2901.05 4067.81 2891.95C4081.26 2885.23 4092.96 2864.91 4107.89 2860.31C4122.41 2855.84 4172.56 2866.64 4181.72 2866.64C4202.8 2866.64 4228.1 2847.25 4245 2837.11C4284.77 2813.25 4328.01 2800.5 4365.23 2763.28C4378.34 2750.17 4385.69 2732.49 4398.98 2721.09C4410.77 2710.99 4430.58 2724.5 4445.39 2712.66C4455.15 2704.85 4469.58 2705.54 4479.14 2697.89C4495.79 2684.57 4514.36 2668.1 4527.66 2651.48C4543.13 2632.14 4543.62 2620.47 4550.86 2598.75C4551.49 2596.86 4553.23 2595.27 4555.08 2594.53C4578.03 2585.35 4605.34 2576.78 4628.91 2565C4646.72 2556.1 4659.12 2539 4673.2 2524.92C4674.31 2523.81 4675.81 2522.19 4675.31 2520.7C4673.33 2514.74 4652.91 2496.05 4645.78 2499.61C4630.06 2507.47 4616.59 2518.88 4601.48 2524.92C4581.04 2533.1 4551.13 2529.32 4531.88 2539.69C4523.45 2544.22 4517.55 2553.01 4508.67 2556.56C4500.26 2559.93 4458.51 2580.54 4453.83 2558.67C4446.25 2523.3 4457.87 2480.13 4460.16 2444.77C4463.74 2389.17 4467.22 2341.4 4462.27 2284.45C4459.61 2253.93 4450.07 2221.81 4445.39 2193.75C4435.32 2133.31 4427.38 2067.36 4401.09 2006.02C4382.73 1963.17 4358.43 1918.09 4344.14 1875.23C4331.77 1838.13 4318.44 1800.25 4306.17 1763.44C4303.89 1756.6 4296.71 1727.79 4289.3 1725.47C4280.57 1722.74 4271 1726.04 4261.88 1725.47C4237.45 1723.94 4215.57 1700.26 4202.81 1687.5Z" fill="#6f2b2f" fill-rule="nonzero" opacity="1" stroke="none"/>
<path d="M2044.92 2946.8C1992.88 2998.84 1987.17 3086.03 1937.34 3142.97C1922.34 3160.12 1867.81 3191.1 1863.52 3212.58C1857.82 3241.05 1877.76 3283.27 1882.5 3311.72C1896.93 3398.29 1959.12 3553.41 2055.47 3577.5C2066.07 3580.15 2075.59 3593.35 2085 3596.48C2104.41 3602.95 2135.31 3602.1 2154.61 3594.38C2190.8 3579.9 2205.56 3540.79 2209.45 3505.78C2209.95 3501.31 2217.37 3499.71 2217.89 3495.23C2220.25 3474.83 2208.9 3451.49 2224.22 3436.17C2231.4 3439.76 2245.45 3458.83 2255.86 3453.05C2265.93 3447.45 2282.78 3430.65 2298.05 3438.28C2314.55 3446.53 2322.48 3457.68 2340.23 3463.59C2340.23 3471.91 2338.74 3468.43 2344.45 3474.14C2358.5 3460.1 2338.85 3437.56 2352.89 3423.52C2359.16 3429.79 2380.24 3435.95 2382.42 3442.5C2387.64 3458.16 2401.42 3487.28 2422.5 3488.91C2474.59 3492.91 2479.75 3434.35 2449.92 3404.53C2459.1 3390.76 2477.1 3396.46 2490 3377.11C2533.09 3312.48 2576.44 3225.19 2511.09 3159.84C2520.68 3150.25 2522.59 3146.88 2513.2 3136.64C2503.34 3125.88 2483.59 3103.18 2466.8 3100.78C2456.95 3099.38 2444.3 3103.59 2437.27 3096.56C2461.82 3059.74 2486.82 3046.87 2481.56 2999.53C2480.85 2993.09 2454.1 2960.89 2443.59 2967.89C2428.78 2977.76 2406.52 2990.3 2397.19 3005.86C2390.22 3017.47 2394.25 3036.37 2378.2 3041.72C2378.2 3064.8 2383.17 3057.84 2373.98 3067.03C2301.79 2994.84 2254.97 3208.47 2194.69 3168.28C2221.52 3114.62 2155.42 2924.49 2091.33 3020.63C2082.7 3012 2086.08 2995.93 2082.89 2984.77C2078.07 2967.88 2056.79 2958.66 2044.92 2946.8Z" fill="#619a54" fill-rule="nonzero" opacity="1" stroke="none"/>
<path d="M3135.47 529.453C3099.16 565.764 3124.8 704.406 3165 744.609C3148.75 768.979 3084.36 720.112 3065.86 710.859C3037.16 739.557 3111.05 789.502 3129.14 801.563C3118.5 812.206 3070.91 789.169 3067.97 799.453C3053.66 849.528 3188.37 899.68 3181.88 938.672C3178.94 956.285 3157.13 982.12 3148.13 995.625C3120.97 1036.36 3088.54 1098.95 3076.41 1147.5C3050.44 1251.37 3043.52 1369.95 3061.64 1478.67C3067.2 1512.06 3081.33 1542.68 3089.06 1573.59C3094.43 1595.05 3099.41 1623.82 3110.16 1645.31C3126.16 1677.31 3152.94 1707.68 3169.22 1740.23C3174.6 1751 3226.59 1740.86 3232.5 1740.23C3262.82 1737.04 3297.99 1743.08 3327.42 1752.89C3332.89 1754.71 3341.07 1764.79 3344.3 1765.55C3374.74 1772.71 3401.34 1775.08 3428.67 1788.75C3458.26 1803.54 3485.19 1830.72 3515.16 1845.7C3551.05 1863.65 3595.26 1852.03 3635.39 1852.03C3704.7 1852.03 3766.4 1827 3823.13 1792.97C3835.34 1785.64 3855.33 1781.58 3863.2 1769.77C3863.98 1768.6 3863.98 1766.72 3863.2 1765.55C3851.49 1747.98 3815.11 1721.55 3799.92 1710.7C3798.64 1709.79 3797.11 1712.11 3795.7 1712.81C3780.29 1720.52 3761.76 1726.24 3745.08 1731.8C3712.97 1742.5 3676.8 1742.34 3643.83 1742.34C3520.1 1742.34 3404.37 1663.48 3329.53 1567.27C3244.56 1458.01 3209.63 1293.82 3243.05 1160.16C3249.91 1132.71 3259.28 1094.91 3276.8 1071.56C3306.81 1031.55 3333.14 994.127 3369.61 957.656C3394.53 932.739 3430.55 913.438 3462.42 902.813C3477.93 897.643 3506.43 898.878 3517.27 888.047C3513.31 880.132 3418.59 873.719 3394.92 864.844C3292.08 826.278 3209.68 764.735 3173.44 656.016C3165.8 633.103 3142.51 575.151 3160.78 556.875C3151.84 547.937 3144.79 538.769 3135.47 529.453Z" fill="#6f2b2f" fill-rule="nonzero" opacity="1" stroke="none"/>
<path d="M3599.53 985.078C3494.22 1001.92 3446.5 1020.76 3384.38 1124.3C3350.77 1180.31 3345.08 1257.09 3352.73 1318.36C3372.06 1472.93 3477.19 1613.67 3643.83 1613.67C3706.2 1613.67 3800.39 1555.31 3821.02 1493.44C3828.98 1469.55 3839.9 1442.35 3850.55 1417.5C3864.09 1385.9 3871.72 1360.1 3873.75 1322.58C3879.55 1215.36 3852.6 1127.05 3785.16 1048.36C3775.21 1036.76 3756.84 1017.83 3740.86 1012.5C3689.82 995.488 3657.07 975.876 3599.53 985.078Z" fill="#fdfcf8" fill-rule="nonzero" opacity="1" stroke="none"/>
<path d="M2825.39 3784.22C2791.6 3818.01 2751.9 3844.08 2713.59 3872.81C2705.49 3878.89 2684.03 3883.27 2688.28 3896.02C2695.13 3916.56 2843.73 3908.82 2816.95 3967.73C2811.27 3980.24 2803.55 3977.37 2795.86 3982.5C2733.38 4024.15 2682.76 4031.57 2603.91 4039.45C2594.35 4040.41 2639.77 4084.97 2639.77 4109.06C2639.77 4127.05 2573.99 4144.73 2572.27 4153.36C2570.48 4162.26 2606.4 4164.8 2620.78 4180.78C2635.21 4196.81 2663.65 4295.44 2654.53 4313.67C2655.94 4315.08 2656.76 4317.8 2658.75 4317.89C2688.25 4319.23 2717.81 4317.89 2747.34 4317.89C2750.82 4300.49 2746.17 4281.55 2749.45 4265.16C2756.51 4229.86 2807.26 4210.32 2833.83 4229.3C2851.64 4242.02 2853.67 4256.33 2861.25 4271.48C2865 4278.99 2876.31 4296 2886.56 4292.58C2894.5 4289.93 2904.55 4268.82 2909.77 4263.05C2928.41 4242.44 3031.33 4132.54 3034.22 4233.52C3034.84 4255.32 3036.33 4277.1 3036.33 4298.91C3036.33 4305.27 3034.22 4311.52 3034.22 4317.89C3065.83 4317.89 3090.14 4285.45 3120.7 4277.81C3152.29 4269.92 3174.2 4242.34 3205.08 4233.52C3239.2 4223.77 3278 4196.86 3308.44 4176.56C3333.1 4160.12 3374.1 4139.33 3380.16 4109.06C3388.56 4067.04 3374.47 4040.1 3344.3 4009.92C3323.87 3989.5 3293.3 3963 3268.36 3948.75C3254.4 3940.77 3232.16 3939 3219.84 3929.77C3211.15 3923.25 3217.41 3915.53 3211.41 3908.67C3196.61 3891.76 3158.01 3871 3137.58 3868.59C3068.71 3860.49 2998.16 3854.44 2928.75 3847.5C2907.6 3845.39 2880.63 3846.64 2861.25 3836.95C2834.38 3823.52 2843.57 3797.86 2825.39 3784.22Z" fill="#a95444" fill-rule="nonzero" opacity="1" stroke="none"/>
<path d="M5097.19 3801.09C5078.5 3801.09 5060.9 3809.78 5042.34 3811.64C4991.65 3816.71 4933.25 3827.43 4888.36 3845.39C4868.99 3853.14 4846.43 3848.46 4831.41 3866.48C4821.1 3878.85 4835.38 3899.87 4833.52 3912.89C4830.97 3930.72 4818.1 3965.19 4803.98 3980.39C4777.37 4009.06 4746.22 4033.07 4725.94 4066.88C4689.95 4126.85 4719.69 4225.12 4782.89 4256.72C4813.94 4272.24 4848.04 4293.51 4879.92 4309.45C4883.07 4311.03 4882.73 4317.86 4886.25 4317.89C5068.35 4319.29 5250.47 4317.89 5432.58 4317.89C5432.58 4302.26 5410.08 4274.08 5405.16 4260.94C5401.23 4250.46 5403.37 4236.44 5398.83 4225.08C5375.11 4165.79 5342.85 4093.48 5365.08 4026.8C5367.79 4018.68 5378.19 4024.23 5384.06 4018.36C5371.94 4006.24 5323.86 4014.46 5303.91 4007.81C5266.49 3995.34 5223.17 3989.17 5183.67 3980.39C5170.91 3977.55 5142.4 3970 5130.94 3961.41C5123.93 3956.15 5116.53 3946.73 5107.73 3944.53C5089.17 3939.89 5059.81 3924.58 5048.67 3908.67C5018.33 3865.33 5122.88 3822.95 5145.7 3796.88C5153.83 3787.59 5104.75 3778.4 5097.19 3801.09Z" fill="#a95444" fill-rule="nonzero" opacity="1" stroke="none"/>
<path d="M1762.27 2280.23C1752.98 2270.95 1746.43 2250.7 1732.73 2248.59C1714.61 2245.81 1680.32 2263.87 1680 2286.56C1678.62 2382.88 1678.61 2479.23 1680 2575.55C1680.09 2582.11 1693.74 2596.69 1696.88 2602.97C1707.27 2623.75 1717.84 2647.02 1728.52 2668.36C1737.89 2687.11 1757.57 2702.78 1764.38 2723.2C1773.57 2750.79 1774.47 2787.39 1777.03 2818.13C1777.59 2824.8 1771.76 2833.95 1772.81 2839.22C1774.86 2849.44 1784.14 2860.54 1787.58 2870.86C1793.63 2889.02 1788.03 2917.32 1798.13 2934.14C1822.58 2974.9 1860.8 3005.55 1890.94 3041.72C1912.76 3067.9 1935.64 3091.07 1962.66 3111.33C1996 3077.98 2003.96 3013.77 2025.94 2974.22C2034.52 2958.77 2050.81 2944.73 2059.69 2929.92C2102.05 2859.32 2134.42 2735.26 2089.22 2659.92C2085.31 2653.41 2085.56 2640.58 2080.78 2634.61C2069.12 2620.03 2050.31 2606.82 2036.48 2594.53C2035.58 2595.44 2016.05 2669.15 2009.06 2683.13C1973.53 2754.19 1906.98 2813.19 1855.08 2870.86C1847.44 2865.77 1849.88 2868.91 1846.64 2862.42C1867.87 2841.19 1876.76 2808.81 1893.05 2784.38C1937.77 2717.29 1965.4 2649.9 1994.3 2577.66C2010.12 2538.11 1998.35 2481.28 1996.41 2440.55C1992.89 2366.67 1922.73 2196.9 1833.98 2204.3C1782.95 2208.55 1784.61 2257.89 1762.27 2280.23Z" fill="#3b9169" fill-rule="nonzero" opacity="1" stroke="none"/>
<path d="M2325.47 3550.08C2319.47 3553.08 2322.36 3551.08 2317.03 3556.41C2333.37 3589.09 2292.32 3585.64 2266.41 3598.59C2213.25 3625.17 2151.24 3638.2 2089.22 3640.78C2062.9 3641.88 2049.16 3617.56 2030.16 3642.89C2067.11 3679.84 2082.03 3727.48 2085 3777.89C2086.57 3804.57 2079.58 3831.53 2082.89 3858.05C2084.24 3868.84 2110.09 3855.31 2114.53 3853.83C2130.14 3848.63 2147.41 3845.46 2163.05 3851.72C2165.11 3852.54 2167.31 3853 2169.38 3853.83C2226.81 3876.8 2200.11 3918.32 2228.44 3946.64C2238.74 3936.34 2234.89 3910.49 2241.09 3896.02C2255.12 3863.29 2272.91 3833.03 2287.5 3798.98C2291.37 3789.95 2291.2 3778.58 2298.05 3769.45C2337.2 3717.25 2373.28 3660.47 2422.5 3611.25C2455.32 3578.43 2500.88 3567.84 2540.63 3547.97C2572.26 3532.15 2595.07 3561.66 2618.67 3562.73C2678.87 3565.47 2742.31 3570.29 2802.19 3564.84C2864.46 3559.18 2925.45 3560.07 2987.81 3556.41C3001.75 3555.59 3023.82 3546.01 3034.22 3556.41C3031.12 3562.61 3031.61 3559.13 3034.22 3566.95C3051.84 3566.95 3038.72 3589.24 3053.2 3596.48C3063.49 3601.63 3088.87 3593.46 3099.61 3592.27C3142.56 3587.49 3185.62 3584.61 3228.28 3577.5C3274.55 3569.79 3319.99 3571.83 3365.39 3564.84C3472.82 3548.32 3570.7 3525.41 3679.69 3516.33C3743.29 3511.03 3807.95 3505.42 3871.64 3501.56C3890.01 3500.45 3913.47 3508.25 3926.48 3495.23C3925.08 3493.83 3924.25 3491.1 3922.27 3491.02C3888.54 3489.67 3854.71 3493 3821.02 3491.02C3816.45 3490.75 3813.32 3480.5 3810.47 3478.36C3804.26 3473.7 3795 3481.17 3787.27 3480.47C3770.32 3478.93 3753.07 3467.91 3738.75 3465.7C3714.39 3461.96 3682.79 3468.24 3667.03 3444.61C3662.81 3448.83 3662.81 3448.83 3658.59 3453.05C3642.92 3442.59 3649.26 3409.24 3626.95 3400.31C3622.05 3398.35 3595.22 3470.02 3584.77 3480.47C3554.33 3465.25 3528.16 3374.66 3483.52 3419.3C3490.1 3425.88 3510.92 3424.49 3513.05 3436.17C3514.68 3445.16 3515.9 3514.59 3485.63 3499.45C3469.68 3515.4 3462.42 3501.56 3445.55 3497.34C3391.65 3483.87 3333.83 3474.98 3291.56 3440.39C3278.15 3429.42 3255.27 3385.55 3251.48 3385.55C3175.4 3385.55 3103.22 3409.02 3032.11 3412.97C2983.11 3415.69 2935.1 3437.68 2886.56 3444.61C2821.71 3453.87 2749.17 3476.25 2684.06 3476.25C2662.61 3476.25 2633.71 3475.97 2612.34 3480.47C2600.06 3483.05 2566.31 3489.68 2555.39 3493.13C2538.88 3498.34 2521.45 3513.88 2502.66 3516.33C2488.71 3518.15 2474.47 3515.06 2460.47 3516.33C2454.45 3516.88 2454.57 3527.22 2449.92 3531.09C2443.53 3536.42 2328.7 3553.31 2325.47 3550.08Z" fill="#a95444" fill-rule="nonzero" opacity="1" stroke="none"/>
<path d="M2203.13 4035.23C2212.68 4044.79 2227.43 4051.71 2232.66 4064.77C2237.54 4076.97 2235.23 4105.07 2247.42 4111.17C2259.62 4117.27 2346.35 4068.23 2365.55 4060.55C2446.29 4028.25 2536.52 3985.81 2612.34 3940.31C2640.72 3923.29 2660.46 3906.7 2692.5 3896.02C2692.5 3881.32 2736.79 3858.54 2747.34 3849.61C2794.4 3809.79 2844.97 3775.69 2884.45 3723.05C2889.49 3716.33 2900.6 3703.67 2901.33 3695.63C2908.84 3612.98 2855.41 3617.33 2789.53 3619.69C2708.73 3622.57 2615.34 3668.76 2555.39 3716.72C2553.28 3714.61 2553.28 3714.61 2551.17 3712.5C2590.33 3660.3 2623.28 3627.94 2616.56 3558.52C2615.3 3545.44 2565.39 3539.64 2544.84 3543.75C2480.89 3556.54 2424.07 3605.46 2378.2 3651.33C2316.45 3713.08 2250.71 3834.35 2230.55 3915C2221.21 3952.35 2221.33 3998.82 2203.13 4035.23Z" fill="#3b9169" fill-rule="nonzero" opacity="1" stroke="none"/>
<path d="M4371.56 1343.67C4373.67 1345.78 4373.67 1345.78 4375.78 1347.89C4388.74 1334.93 4396.67 1245.85 4396.88 1242.42C4398.19 1220.66 4397.42 1198.82 4396.88 1177.03C4394.69 1089.49 4321.16 959.234 4226.02 949.219C4214.13 947.967 4202.04 950.47 4190.16 949.219C4164.66 946.535 4129.45 942.981 4101.56 953.438C4066.49 966.59 4031.28 996.301 4004.53 1023.05C3939.41 1088.17 3930 1198.14 3941.25 1282.5C3945.3 1312.85 3967.84 1345.4 3977.11 1373.2C3987.51 1404.4 3987.67 1428.06 4012.97 1453.36C4052.47 1492.86 4133.85 1499.5 4181.72 1497.66C4243.13 1495.29 4299.27 1449.84 4337.81 1402.73C4352.51 1384.77 4356.24 1359 4371.56 1343.67Z" fill="#fdfcf8" fill-rule="nonzero" opacity="1" stroke="none"/>
<path d="M4291.41 1736.02C4312.98 1779.17 4320.57 1830.08 4339.92 1875.23C4392.93 1998.91 4435.34 2124.72 4453.83 2263.36C4459 2302.15 4462.27 2345.86 4462.27 2383.59C4462.27 2414.54 4446.89 2456.88 4453.83 2486.95C4463.11 2527.18 4530.15 2468.5 4536.09 2465.86C4562.5 2454.12 4538.99 2528.36 4527.66 2539.69C4543.99 2556.03 4588.2 2531.92 4605.7 2524.92C4674.62 2497.35 4724.4 2424.92 4766.02 2362.5C4776.56 2346.69 4790.03 2302.14 4776.56 2288.67C4784.35 2273.1 4776.56 2261.32 4776.56 2246.48C4776.56 2198.98 4800.13 2154.69 4797.66 2105.16C4797.38 2099.66 4773.79 2093.22 4768.13 2090.39C4739.45 2076.05 4712.03 2056.35 4685.86 2037.66C4606.31 1980.83 4537.92 1915.02 4468.59 1845.7C4466.71 1843.82 4435.96 1816.79 4432.73 1814.06C4419.23 1802.64 4309.99 1717.44 4291.41 1736.02Z" fill="#c75f39" fill-rule="nonzero" opacity="1" stroke="none"/>
<path d="M2797.97 2143.13C2771.5 2169.59 2780.27 2222.82 2764.22 2254.92C2758.44 2266.49 2743.17 2295.33 2745.23 2309.77C2748.23 2330.74 2752.85 2355 2757.89 2375.16C2768.99 2419.55 2861.58 2476.07 2901.33 2436.33C2915.91 2450.91 2927.09 2472.64 2943.52 2489.06C2965.42 2510.97 3044.29 2523.28 3065.86 2501.72C3069.02 2504.88 3069.02 2504.88 3072.19 2508.05C3045.11 2562.21 2969.57 2576.97 2920.31 2552.34C2912.14 2548.26 2894.39 2539.06 2892.89 2527.03C2891.45 2515.5 2893.48 2461.94 2884.45 2457.42C2878.3 2454.35 2839.68 2476.41 2829.61 2476.41C2793.09 2476.41 2761.12 2440.12 2743.13 2413.13C2725.79 2430.46 2732.48 2471.03 2724.14 2493.28C2722.53 2497.58 2705.2 2503.78 2700.94 2508.05C2711.46 2518.57 2718.34 2508.67 2730.47 2522.81C2736.06 2529.34 2737.04 2548.62 2741.02 2556.56C2752.61 2579.76 2806.3 2633.46 2833.83 2634.61C2849.3 2635.25 2864.8 2633.79 2880.23 2632.5C2888.12 2631.84 2910.53 2614.95 2916.09 2617.73C2935.34 2627.36 2940.95 2653.14 2956.17 2668.36C2974.75 2686.93 3002.68 2684.77 3023.67 2697.89C3093.62 2741.61 3135.61 2736.47 3202.97 2691.56C3209.88 2686.96 3216.22 2688.85 3221.95 2683.13C3204.72 2665.89 3192.29 2613.6 3211.41 2600.86C3200.81 2590.26 3175.09 2591.82 3160.78 2586.09C3134.19 2575.46 3083.9 2527.74 3095.39 2493.28C3107.08 2493.28 3115.25 2505.82 3124.92 2512.27C3142.26 2523.83 3166.29 2524.66 3186.09 2520.7C3216.96 2514.53 3233.86 2491.3 3259.92 2476.41C3261.14 2475.71 3262.88 2475.78 3264.14 2476.41C3306.49 2497.58 3345.85 2508.69 3394.92 2489.06C3415.74 2480.73 3429.69 2460.62 3445.55 2444.77C3457.67 2432.64 3497.27 2370.13 3487.73 2362.5C3479.27 2355.73 3465.38 2376.35 3458.2 2381.48C3440.35 2394.23 3410.13 2405.14 3388.59 2406.8C3297.73 2413.79 3259.35 2375.1 3207.19 2305.55C3163.52 2349.21 3076.39 2354.05 3025.78 2316.09C3014.09 2307.32 3003.71 2294.65 2992.03 2286.56C2975.26 2274.95 2951.25 2289.33 2930.86 2288.67C2895.74 2287.54 2859.04 2254.83 2835.94 2231.72C2811.77 2207.55 2818.74 2163.89 2797.97 2143.13Z" fill="#913835" fill-rule="nonzero" opacity="1" stroke="none"/>
<path d="M3877.97 2657.81C3856.24 2679.54 3899.19 2712.38 3920.16 2716.88C3938.04 2720.71 3994.2 2698.69 4000.31 2721.09C4003.49 2732.73 3996.06 2744.87 3989.77 2752.73C3959.82 2790.16 3907.98 2818.61 3867.42 2778.05C3862.15 2782.27 3862.15 2782.27 3856.88 2786.48C3836.18 2769.24 3825.22 2747.47 3797.81 2761.17C3794.65 2758.01 3794.65 2758.01 3791.48 2754.84C3775.84 2765.27 3761.85 2788.7 3749.3 2801.25C3731.4 2819.14 3693.27 2806.65 3675.47 2824.45C3680.56 2832.09 3680.82 2828.51 3677.58 2835C3681.8 2839.22 3681.8 2839.22 3686.02 2843.44C3683.91 2845.55 3683.91 2845.55 3681.8 2847.66C3686.68 2857.43 3692.29 2858.15 3698.67 2864.53C3704.44 2861.65 3708.76 2860.77 3713.44 2856.09C3715.55 2858.2 3715.55 2858.2 3717.66 2860.31C3668.61 2919.17 3589.67 2903.18 3540.47 2853.98C3526.9 2840.41 3533.54 2823.85 3521.48 2811.8C3484.82 2839.3 3464.02 2884.95 3426.56 2913.05C3398.1 2934.39 3364.27 2951.46 3333.75 2963.67C3319.61 2969.33 3302.54 2969.57 3291.56 2980.55C3323.03 3012.02 3320.49 3054.83 3371.72 3016.41C3386.21 3005.54 3398.72 3006.41 3411.8 2988.98C3455.08 3032.27 3487.5 3046.74 3548.91 3050.16C3624.1 3054.33 3741.5 3037.55 3806.25 2988.98C3822.25 2976.98 3842.33 2960.63 3861.09 2953.13C3929.93 2925.59 3984.86 2882.1 4040.39 2826.56C4053.33 2813.62 4064.43 2798.34 4076.25 2784.38C4106.73 2748.35 4132.3 2710.64 4156.41 2670.47C4164.51 2656.96 4183.58 2638.58 4169.06 2624.06C4124.57 2668.56 4113.87 2670.99 4078.36 2617.73C4076.25 2619.84 4076.25 2619.84 4074.14 2621.95C4055.74 2603.56 4018.1 2663.98 4006.64 2672.58C3965.22 2703.64 3908.97 2699.15 3877.97 2657.81Z" fill="#f59b5c" fill-rule="nonzero" opacity="1" stroke="none"/>
<path d="M5048.67 1881.56C5033.01 1865.9 5007.83 1885.01 4991.72 1868.91C5002.26 1858.36 5012.95 1862.51 5025.47 1856.25C5047.27 1845.35 5071.39 1827.21 5088.75 1809.84C5157.74 1740.85 5159.49 1594.3 5097.19 1525.08C5077.29 1502.97 5060.64 1485.01 5036.02 1470.23C5023.48 1462.71 5003.25 1458.56 4993.83 1449.14C5006.42 1436.55 5038.99 1452.84 5059.22 1440.7C5041.29 1422.78 5008.6 1437.82 4983.28 1436.48C4974.6 1436.03 4966.67 1430.16 4957.97 1430.16C4937.79 1430.16 4902.61 1455.06 4888.36 1468.13C4874.06 1481.23 4859.89 1494.49 4846.17 1508.2C4824.61 1529.76 4808.2 1559.36 4808.2 1588.36C4808.2 1616.65 4795.55 1647.09 4795.55 1676.95C4795.55 1743.23 4827.63 1801.85 4873.59 1847.81C4889.78 1864 4925.01 1888.62 4947.42 1894.22C4960.72 1897.54 4976.37 1888.29 4989.61 1887.89C5009.4 1887.29 5034.67 1895.56 5048.67 1881.56Z" fill="#fdfcf8" fill-rule="nonzero" opacity="1" stroke="none"/>
<path d="M1682.11 2573.44C1681.05 2712.66 1681.05 2712.66 1680 2851.88C1688.21 2849.14 1684.76 2848.19 1690.55 2853.98C1692.66 2851.88 1692.66 2851.88 1694.77 2849.77C1709.96 2864.96 1712.07 2890.15 1720.08 2908.83C1728.14 2927.63 1750.27 2953.78 1764.38 2967.89C1772.36 2975.88 1797.09 2991.17 1800.23 3003.75C1806.92 3030.5 1791.22 3064.35 1812.89 3086.02C1809.17 3093.45 1848.04 3192.88 1859.3 3204.14C1837.78 3247.17 1801.53 3284.13 1760.16 3311.72C1750.45 3318.19 1680.12 3344.54 1680 3347.58C1678.65 3382 1678.65 3416.51 1680 3450.94C1680.93 3474.73 1712.66 3504.05 1726.41 3520.55C1758.57 3559.14 1805.61 3597.06 1850.86 3619.69C1862.1 3625.31 1877.19 3624.42 1888.83 3630.23C1896.32 3633.98 1891.47 3641.32 1897.27 3647.11C1908.16 3636.21 1928.05 3509.14 1964.77 3545.86C1979.68 3538.4 1971.81 3538.1 1979.53 3522.66C1952.83 3495.95 1921.38 3441.92 1912.03 3404.53C1910.49 3398.35 1912.94 3391.15 1909.92 3385.55C1907.09 3380.29 1899.36 3378.48 1897.27 3372.89C1889.11 3351.14 1889.9 3316.54 1884.61 3292.73C1879.08 3267.85 1867.73 3238 1867.73 3212.58C1867.73 3204.08 1944.28 3141.89 1950 3134.53C1952.5 3131.31 1968.16 3114.31 1964.77 3109.22C1955.41 3095.19 1915.74 3066.52 1909.92 3060.7C1873.62 3024.4 1821.89 2983.01 1802.34 2934.14C1790 2903.29 1791.36 2867.88 1777.03 2839.22C1775.37 2835.89 1780.8 2825.01 1781.25 2822.34C1784.81 2800.96 1781.5 2754.02 1772.81 2733.75C1759.55 2702.81 1735.2 2671.76 1717.97 2643.05C1704.41 2620.46 1698.9 2595.82 1682.11 2573.44Z" fill="#1b6053" fill-rule="nonzero" opacity="1" stroke="none"/>
<path d="M2532.19 3294.84C2510.48 3316.55 2504.68 3369.43 2471.02 3391.88C2463.84 3396.66 2451.59 3390.2 2443.59 3398.2C2457.71 3426.43 2482.46 3506.14 2418.28 3480.47C2388.37 3468.51 2394.95 3445.57 2382.42 3436.17C2373.36 3429.37 2361.68 3428.08 2352.89 3419.3C2340.75 3428.41 2346.43 3518.61 2321.25 3550.08C2336.24 3565.07 2427.65 3542.88 2454.14 3535.31C2460.03 3533.63 2459.87 3521.6 2464.69 3520.55C2478.43 3517.56 2492.93 3522.37 2506.88 3520.55C2514.94 3519.49 2536.95 3512.89 2546.95 3507.89C2550.98 3505.88 2550.98 3498.23 2555.39 3497.34C2564.35 3495.55 2573.69 3497.91 2582.81 3497.34C2594.13 3496.64 2603.95 3486.09 2612.34 3484.69C2661.81 3476.44 2711.93 3476.19 2762.11 3469.92C2784.6 3467.11 2878.49 3456.9 2890.78 3444.61C2903.01 3450.72 2937.47 3435.99 2951.95 3434.06C3011.48 3426.13 3070.27 3415.03 3129.14 3400.31C3162.99 3391.85 3215.25 3389.74 3249.38 3391.88C3265.2 3392.86 3252.46 3424.08 3266.25 3417.19C3275.26 3412.68 3268.17 3404.51 3270.47 3396.09C3276.34 3374.55 3331.02 3396.72 3344.3 3383.44C3339.71 3378.85 3331.2 3381.94 3325.31 3379.22C3312.55 3373.33 3307.2 3351.56 3308.44 3339.14C3309.73 3326.24 3336.48 3289.91 3325.31 3288.52C3282.6 3283.18 3237.23 3291.13 3194.53 3294.84C3116.38 3301.64 3038.25 3307.74 2960.39 3315.94C2955.35 3316.47 2952.74 3323.58 2947.73 3324.38C2902.36 3331.54 2855.21 3323.47 2808.52 3332.81C2744.12 3345.69 2645.14 3385.51 2584.92 3362.34C2571.45 3357.16 2545.09 3337.65 2536.41 3326.48C2530.47 3318.85 2541.43 3304.09 2532.19 3294.84Z" fill="#913835" fill-rule="nonzero" opacity="1" stroke="none"/>
<path d="M4590.94 3510C4578.75 3522.19 4556.39 3532.99 4552.97 3550.08C4547.01 3579.85 4572.67 3582.83 4590.94 3588.05C4628.53 3598.79 4702.26 3586.18 4740.7 3566.95C4758.65 3584.9 4736.1 3601.43 4761.8 3623.91C4796.33 3654.13 4899.22 3564.06 4907.34 3543.75C4910.21 3536.59 4917.32 3503.39 4924.22 3499.45C4927.36 3497.66 4944.87 3498.12 4949.53 3497.34C4968.42 3494.2 4987.91 3484.96 5004.38 3480.47C5016.6 3477.13 5030.05 3481.43 5042.34 3478.36C5046.21 3477.39 5048.2 3469.36 5050.78 3467.81C5073.99 3453.89 5087.23 3448 5084.53 3412.97C5082.96 3392.58 5032.26 3384.98 5019.14 3377.11C4971.16 3348.32 4853.36 3277.48 4801.88 3288.52C4780.64 3293.07 4753.01 3320.91 4755.47 3345.47C4756.98 3360.56 4791.22 3394.01 4776.56 3398.2C4759.92 3402.96 4736.38 3387.22 4719.61 3385.55C4709.79 3384.56 4699.68 3385.7 4690.08 3383.44C4673.52 3379.54 4656.45 3376.43 4639.45 3377.11C4602.38 3378.59 4482.55 3419.35 4512.89 3469.92C4534.13 3505.31 4567.06 3486.12 4590.94 3510Z" fill="#3b9169" fill-rule="nonzero" opacity="1" stroke="none"/>
<path d="M4780.78 2377.27C4770.2 2387.85 4772.87 2411.12 4772.34 2421.56C4771.01 2448.25 4774.29 2475.07 4772.34 2501.72C4771.88 2507.99 4762.83 2524.05 4761.8 2531.25C4754.09 2585.16 4756.87 2641.7 4749.14 2695.78C4739.57 2762.81 4739.55 2835.37 4732.27 2904.61C4729.97 2926.41 4707.22 3065.78 4721.72 3083.91C4742.14 3109.43 4863.35 3129.7 4873.59 3109.22C4878.63 3099.14 4871.02 3086.73 4871.48 3075.47C4871.98 3063.69 4880.61 3053.42 4882.03 3041.72C4884.48 3021.48 4881.39 3000.93 4882.03 2980.55C4884.42 2904.17 4886.77 2818.2 4894.69 2742.19C4895.1 2738.23 4901.77 2737.49 4903.13 2733.75C4913.54 2705.11 4908.46 2654.8 4909.45 2624.06C4910.6 2588.48 4927.41 2530.22 4901.02 2503.83C4909.62 2486.62 4923.6 2485.46 4934.77 2474.3C4914.12 2449.52 4927.02 2441.94 4913.67 2415.23C4863.63 2440.26 4815.73 2408.72 4780.78 2377.27Z" fill="#f57d13" fill-rule="nonzero" opacity="1" stroke="none"/>
<path d="M2819.06 2065.08C2809.47 2074.67 2809.34 2088.34 2804.3 2100.94C2773.78 2177.24 2838.25 2252.91 2901.33 2284.45C2907.87 2287.72 2921.33 2290.32 2928.75 2290.78C2948.41 2292.01 2968.11 2292.89 2987.81 2292.89C2989.38 2292.89 2990.63 2291.48 2992.03 2290.78C3049.31 2348.06 3139.27 2364.52 3205.08 2311.88C3225.6 2325.56 3242.78 2360.12 3259.92 2377.27C3293.97 2411.31 3363.78 2419.33 3405.47 2408.91C3478.11 2390.75 3531.31 2320.35 3553.13 2254.92C3558.36 2239.21 3573.8 2201.77 3561.56 2189.53C3489.36 2261.73 3380.19 2297.54 3278.91 2257.03C3260.86 2249.81 3249.78 2231.29 3234.61 2221.17C3229.57 2217.81 3205.71 2232.56 3198.75 2233.83C3178.63 2237.49 3139.41 2238.05 3127.03 2238.05C3096.97 2238.05 3061.67 2214.17 3044.77 2191.64C3039 2183.95 3035.6 2170 3027.89 2164.22C3023.73 2161.1 3016.44 2171.55 3013.13 2172.66C3003.98 2175.7 2977.2 2176.88 2973.05 2176.88C2961.1 2176.88 2950.53 2158.77 2937.19 2162.11C2923.11 2165.63 2911.39 2169.68 2895 2164.22C2831.36 2143.01 2850.11 2096.12 2819.06 2065.08Z" fill="#fcd788" fill-rule="nonzero" opacity="1" stroke="none"/>
<path d="M2241.09 4109.06C2241.09 4123.31 2258.73 4121.74 2268.52 4125.94C2275.18 4128.79 2279.97 4138.44 2287.5 4140.7C2329.27 4153.24 2375.96 4161.04 2420.39 4163.91C2431.64 4164.63 2442.89 4165.29 2454.14 4166.02C2491.47 4168.42 2483.57 4169.36 2523.75 4166.02C2539.98 4164.66 2565.38 4152.47 2580.7 4157.58C2535.38 4202.9 2524.53 4252.16 2521.64 4315.78C2590.2 4316.84 2590.2 4316.84 2658.75 4317.89C2658.75 4261.18 2647.19 4202.97 2606.02 4161.8C2598.47 4154.25 2586.85 4163.72 2578.59 4155.47C2612.9 4121.17 2694.6 4106.95 2606.02 4047.89C2607.91 4046 2700.96 4034.93 2722.03 4028.91C2738.82 4024.11 2815.07 3985.1 2821.17 3969.84C2823.58 3963.82 2820.81 3955.44 2825.39 3950.86C2810 3920.07 2702.25 3887.14 2675.63 3896.02C2620.45 3914.41 2578.35 3962.77 2523.75 3984.61C2425.85 4023.77 2338.82 4076.49 2241.09 4109.06Z" fill="#1b6053" fill-rule="nonzero" opacity="1" stroke="none"/>
<path d="M2802.19 3001.64C2802.19 3150.56 2869.51 3237.89 3021.56 3237.89C3031.31 3237.89 3048.91 3236.42 3057.42 3231.56C3077.49 3220.1 3104.05 3216.68 3124.92 3206.25C3160.57 3188.43 3202.28 3162.65 3232.5 3132.42C3249.23 3115.69 3261.22 3090.72 3276.8 3071.25C3278.91 3072.3 3278.91 3072.3 3281.02 3073.36C3283.13 3071.25 3283.13 3071.25 3285.23 3069.14C3279.88 3058.44 3290.19 3045.31 3285.23 3035.39C3279.63 3024.17 3250.64 3025.27 3238.83 3016.41C3233.62 3012.5 3219.39 2995.31 3215.63 2995.31C3191.57 2995.31 3164.48 3012.46 3139.69 3014.3C3103.18 3017 3070.74 3021.11 3034.22 3022.73C3007.52 3023.92 2980.79 3024.84 2954.06 3024.84C2922.13 3024.84 2879.87 3021.12 2848.59 3012.19C2834.71 3008.22 2816.46 2996.88 2802.19 3001.64Z" fill="#6f2b2f" fill-rule="nonzero" opacity="1" stroke="none"/>
<path d="M4780.78 2100.94C4812.77 2132.92 4772.34 2210.06 4772.34 2252.81C4772.34 2265.28 4778.58 2276.2 4772.34 2288.67C4792.52 2308.85 4759.34 2354.77 4778.67 2379.38C4807.75 2416.38 4893.45 2450.22 4930.55 2413.13C4903.26 2385.84 4926.89 2375.72 4951.64 2354.06C4946.26 2343.3 4942.46 2337.28 4949.53 2320.31C4954.52 2308.34 4972.87 2303.6 4974.84 2290.78C4975.12 2289.01 4969.27 2263.63 4981.17 2261.25C5002.47 2256.99 5030.13 2260.53 5052.89 2257.03C5069.68 2254.45 5075.3 2228.3 5084.53 2219.06C5086.64 2220.12 5086.64 2220.12 5088.75 2221.17C5118.14 2191.78 5087.28 2108.72 5050.78 2092.5C5024.43 2080.79 5034.33 2104.59 5017.03 2105.16C4976.27 2106.49 4935.46 2105.8 4894.69 2105.16C4878.07 2104.89 4806.29 2074.47 4803.98 2075.63C4795.55 2079.84 4802.82 2082.26 4799.77 2090.39C4796.03 2100.36 4787.1 2094.61 4780.78 2100.94Z" fill="#a95444" fill-rule="nonzero" opacity="1" stroke="none"/>
<path d="M5213.2 2948.91C5204.37 2962.15 5214.8 2963.61 5215.31 2976.33C5216.72 3011.48 5219.53 3046.61 5219.53 3081.8C5219.53 3095.64 5206.71 3117.49 5217.42 3128.2C5236.63 3108.99 5246.42 3048.08 5280.7 3045.94C5354 3041.36 5417.81 3109.71 5417.81 3180.94C5417.81 3210.92 5381.56 3236.56 5369.3 3261.09C5376.01 3267.81 5417.68 3271.75 5428.36 3263.2C5434.52 3258.28 5433.39 3235.29 5436.8 3227.34C5451.98 3191.91 5460.7 3149.35 5466.33 3107.11C5468.51 3090.76 5463.24 3065.9 5474.77 3054.38C5465.79 3045.4 5466.13 2994.79 5460 2978.44C5435.68 2913.58 5377.1 2828.61 5314.45 2792.81C5252.29 2757.29 5181.29 2811.73 5190 2881.41C5192.79 2903.69 5200.79 2915.7 5208.98 2934.14C5211.06 2938.82 5209.58 2945.29 5213.2 2948.91Z" fill="#1b6053" fill-rule="nonzero" opacity="1" stroke="none"/>
<path d="M3413.91 727.734C3389.35 724.837 3452.87 783.599 3468.75 793.125C3492.11 807.143 3515.99 806.791 3542.58 812.109C3587.35 821.063 3634.94 828.254 3681.8 841.641C3728 854.841 3766.07 880.823 3802.03 913.359C3815.21 925.281 3841.66 963.872 3858.98 968.203C3967.05 995.22 3968.64 940.817 4044.61 864.844C4080.52 828.936 4141.74 818.91 4173.28 778.359C4178.2 772.031 4158.08 771.599 4150.08 772.031C4125.5 773.36 4100.85 772.603 4076.25 772.031C4059.32 771.638 4042.53 766.873 4025.63 767.813C3990.95 769.739 3948.96 806.396 3915.94 820.547C3900.78 827.045 3857.35 826.875 3848.44 826.875C3811.56 826.875 3789.56 791.062 3755.63 782.578C3725.53 775.054 3691.68 765.371 3667.03 753.047C3626.13 732.598 3575.49 752.564 3529.92 748.828C3525.96 748.503 3525.22 741.75 3521.48 740.391C3487.96 728.198 3452.3 732.265 3413.91 727.734Z" fill="#a95444" fill-rule="nonzero" opacity="1" stroke="none"/>
<path d="M3821.02 3248.44C3842.92 3237.49 3871.53 3239.83 3894.84 3237.89C3975.57 3231.16 3995.97 3222.96 4046.72 3290.63C4060.12 3283.92 4087.62 3284.64 4099.45 3284.3C4154.99 3282.69 4210.58 3282.55 4266.09 3280.08C4330.37 3277.22 4398.27 3265.36 4458.05 3261.09C4528.94 3256.03 4601.96 3256.13 4673.2 3252.66C4696.14 3251.54 4824.58 3253.27 4814.53 3223.13C4717.88 3223.13 4623.45 3208.25 4527.66 3199.92C4485.87 3196.29 4439.25 3198.28 4398.98 3193.59C4395.03 3193.13 4394.47 3185.81 4390.55 3185.16C4364.88 3180.88 4338.52 3183.4 4312.5 3183.05C4221.1 3181.8 4129.69 3181.63 4038.28 3180.94C4023.36 3180.82 4009.4 3182.28 3993.98 3183.05C3977.82 3183.86 3961.61 3183.91 3945.47 3185.16C3921.05 3187.03 3754.52 3181.94 3821.02 3248.44Z" fill="#a95444" fill-rule="nonzero" opacity="1" stroke="none"/>
<path d="M3846.33 3385.55C3848.44 3383.44 3848.44 3383.44 3850.55 3381.33C3865.38 3396.17 3910.55 3451.57 3934.92 3444.61C3947.63 3440.98 3953.36 3368.4 3970.78 3377.11C3978.89 3381.17 3977.87 3392.64 3983.44 3398.2C3994.53 3387.11 4013.84 3391.44 4025.63 3385.55C4039.75 3399.67 4040.67 3417.47 4048.83 3425.63C4097.1 3377.35 4057.08 3250.5 3989.77 3233.67C3944.11 3222.26 3899.5 3229.92 3852.66 3233.67C3843.8 3234.38 3833.6 3242.11 3825.23 3242.11C3810.86 3242.11 3817.96 3216.36 3806.25 3214.69C3794.01 3212.94 3778.65 3225.23 3766.17 3225.23C3753.02 3225.23 3671.79 3192.46 3669.14 3193.59C3655.92 3199.26 3670.82 3260.01 3671.25 3271.64C3673.83 3341.4 3762.9 3375.95 3808.36 3421.41C3817.08 3430.13 3829.72 3456.28 3842.11 3459.38C3872.82 3467.05 3857.04 3400.6 3856.88 3398.2C3856.5 3392.72 3849.62 3389.94 3846.33 3385.55Z" fill="#f9a427" fill-rule="nonzero" opacity="1" stroke="none"/>
<path d="M3321.09 3176.72C3303.79 3194.02 3318.86 3260.73 3325.31 3280.08C3332.45 3301.48 3298.29 3331.06 3308.44 3366.56C3314.17 3386.62 3336.29 3378.49 3348.52 3387.66C3381.18 3412.15 3417.28 3436.26 3447.66 3463.59C3457.64 3472.58 3467.69 3481.52 3477.19 3491.02C3481.54 3495.37 3482.74 3504.6 3489.84 3505.78C3520.59 3510.91 3518.5 3448.5 3517.27 3436.17C3516.31 3426.61 3501.17 3424.3 3496.17 3419.3C3522.29 3380.11 3575.54 3487.76 3584.77 3484.69C3612.41 3475.47 3607 3422.38 3624.84 3404.53C3634.32 3412.43 3645.63 3454.61 3652.27 3457.27C3673.62 3465.81 3672.36 3417.63 3673.36 3412.97C3681.32 3375.83 3658.42 3329.37 3624.84 3305.39C3574.43 3269.38 3506.16 3274.09 3449.77 3271.64C3443.29 3271.36 3442.61 3260.31 3437.11 3256.88C3417.47 3244.6 3384.12 3242.95 3365.39 3227.34C3346.73 3211.79 3337.58 3193.2 3321.09 3176.72Z" fill="#f9a427" fill-rule="nonzero" opacity="1" stroke="none"/>
<path d="M4930.55 2472.19C4924.55 2478.19 4892.92 2482.35 4896.8 2501.72C4899.04 2512.92 4909.01 2522.06 4911.56 2531.25C4913.46 2538.09 4909.61 2592.19 4909.45 2594.53C4906.73 2635.32 4905.53 2676.23 4901.02 2716.88C4900.08 2725.32 4891.17 2731.61 4890.47 2740.08C4885.95 2794.32 4890.42 2848.23 4886.25 2902.5C4882.89 2946.18 4884.08 2999.1 4877.81 3041.72C4877.23 3045.65 4870.4 3046.31 4869.38 3050.16C4865.02 3066.48 4867.27 3083.89 4867.27 3100.78C4867.27 3132.89 4951 3100.4 4951.64 3069.14C4953 3002.36 4950.26 2935.53 4951.64 2868.75C4952.36 2833.81 4978.92 2802.5 4983.28 2763.28C4985.62 2742.21 4990.11 2724.21 4981.17 2706.33C4980.54 2705.07 4980.54 2703.37 4981.17 2702.11C4995.11 2674.22 4993.93 2623.24 4998.05 2590.31C5003.46 2547.03 5008.71 2506.77 5012.81 2461.64C5013.77 2451.06 5023.81 2424.12 5012.81 2413.13C4968.92 2435.07 4913.67 2376.04 4913.67 2444.77C4913.67 2457.29 4922.25 2462.23 4930.55 2472.19Z" fill="#e96431" fill-rule="nonzero" opacity="1" stroke="none"/>
<path d="M1682.11 3448.83C1681.05 3742.03 1681.05 3742.03 1680 4035.23C1685.56 4037.09 1729.62 4038.24 1730.63 4035.23C1734.88 4022.47 1715.01 3999.79 1709.53 3988.83C1683.99 3937.74 1666.07 3859.32 1711.64 3813.75C1742.2 3783.19 1803.99 3817.98 1829.77 3839.06C1836.49 3844.57 1855.06 3874.23 1863.52 3868.59C1866 3866.94 1869.68 3865.24 1869.84 3862.27C1871.84 3825.05 1867.24 3787.64 1869.84 3750.47C1870.12 3746.5 1877.02 3745.8 1878.28 3742.03C1879.25 3739.13 1897.88 3636.28 1897.27 3634.45C1896.49 3632.14 1813.6 3589.46 1802.34 3583.83C1767.5 3566.4 1724.79 3527.21 1705.31 3493.13C1698.25 3480.77 1692.61 3459.33 1682.11 3448.83Z" fill="#6f2b2f" fill-rule="nonzero" opacity="1" stroke="none"/>
<path d="M3877.97 2482.73C3868.34 2492.37 3878.54 2480.18 3873.75 2501.72C3871.92 2509.96 3836.06 2545.5 3833.67 2548.13C3838.96 2553.41 3841.04 2551.28 3846.33 2556.56C3840.04 2563.55 3813.77 2594.96 3802.03 2596.64C3776.03 2600.36 3748.15 2601.19 3726.09 2617.73C3730.31 2621.95 3730.31 2621.95 3734.53 2626.17C3727.83 2632.88 3731.51 2628.8 3723.98 2638.83C3731.88 2646.73 3729.37 2642.33 3732.42 2651.48C3756.34 2651.48 3773.49 2660.54 3797.81 2653.59C3806.61 2651.08 3850.67 2630.69 3854.77 2640.94C3868.24 2674.61 3754.76 2700.87 3745.08 2710.55C3752.74 2718.21 3756.91 2713.94 3766.17 2723.2C3759.49 2736.57 3764.35 2736.14 3776.72 2748.52C3784.37 2744.69 3783.5 2743.2 3791.48 2748.52C3786.96 2757.56 3789.84 2757.42 3797.81 2765.39C3827.63 2750.48 3832.3 2775.26 3856.88 2792.81C3862.89 2786.8 3859.99 2790.25 3865.31 2782.27C3885.1 2797.11 3908.57 2801.25 3934.92 2801.25C3962.84 2801.25 4014.16 2748.34 4002.42 2718.98C3995.44 2701.54 3961.34 2707.96 3951.8 2708.44C3942.56 2708.9 3933.52 2714.06 3924.38 2712.66C3911.23 2710.63 3860.57 2681.54 3877.97 2664.14C3913.97 2700.14 3960.89 2709.53 4004.53 2676.8C4018.2 2666.54 4059.66 2611.69 4074.14 2626.17C4093.4 2606.91 4074.26 2630.03 4082.58 2605.08C4086.09 2594.53 4121.28 2575.52 4131.09 2567.11C4114.85 2550.86 4038.7 2553.32 4019.3 2560.78C4002.08 2567.4 3988.76 2577.66 3966.56 2577.66C3923.02 2577.66 3900.47 2505.23 3877.97 2482.73Z" fill="#fdb275" fill-rule="nonzero" opacity="1" stroke="none"/>
<path d="M4124.77 1096.88C4113.02 1099 4100.53 1101.44 4088.91 1105.31C4058.69 1115.38 4016.88 1158.54 4012.97 1191.8C4002.35 1282.04 4029.76 1339.43 4122.66 1364.77C4138.7 1369.14 4163.05 1371.77 4181.72 1364.77C4252.14 1338.36 4293.75 1251.45 4263.98 1177.03C4254.2 1152.56 4230.88 1129.16 4213.36 1111.64C4194.16 1092.44 4140.21 1094.08 4124.77 1096.88Z" fill="#e9824c" fill-rule="nonzero" opacity="1" stroke="none"/>
<path d="M1686.33 2845.55C1684.22 2847.66 1680.04 2848.89 1680 2851.88C1677.92 3017.1 1680 3182.34 1680 3347.58C1697.87 3347.58 1710.99 3334.37 1726.41 3328.59C1783.66 3307.12 1835.44 3260.3 1863.52 3204.14C1847.02 3187.65 1832.46 3143.4 1829.77 3121.88C1827.79 3106.08 1810.21 3092.97 1808.67 3077.58C1806.43 3055.18 1810.52 3026 1804.45 3003.75C1797.97 2979.97 1763.64 2965.51 1749.61 2946.8C1725.81 2915.06 1721.32 2872.1 1694.77 2845.55C1692.66 2847.66 1692.66 2847.66 1690.55 2849.77C1688.44 2847.66 1688.44 2847.66 1686.33 2845.55Z" fill="#0d4455" fill-rule="nonzero" opacity="1" stroke="none"/>
<path d="M5993.67 3902.34C5983.74 3912.28 5954.74 3953.78 5953.59 3969.84C5949.46 4027.76 5963.71 4085.91 5924.06 4134.38C5886.55 4180.23 5845.07 4204.06 5791.17 4208.2C5782.07 4208.9 5755.9 4237.04 5746.88 4244.06C5715.26 4268.65 5673.61 4286.07 5641.41 4313.67C5642.11 4315.08 5641.94 4317.87 5643.52 4317.89C5761.63 4319.29 5879.77 4317.89 5997.89 4317.89C5997.89 4180.08 5999.29 4042.26 5997.89 3904.45C5997.87 3902.88 5995.08 3903.05 5993.67 3902.34Z" fill="#0d4455" fill-rule="nonzero" opacity="1" stroke="none"/>
<path d="M3960.23 1674.84C3957.07 1672.73 3957.07 1672.73 3953.91 1670.63C3949.69 1674.84 3949.69 1674.84 3945.47 1679.06C3930.35 1663.94 3913.03 1650.45 3901.17 1632.66C3871.39 1662.44 3834.79 1688.16 3797.81 1712.81C3813.07 1728.07 3874.04 1791.59 3896.95 1792.97C3929.94 1794.95 3963.05 1793.6 3996.09 1792.97C4011.95 1792.66 4109.33 1752.56 4110 1752.89C4113.53 1754.65 4120.77 1765.14 4122.66 1767.66C4147.93 1744.91 4170.75 1719.53 4194.38 1698.05C4207.39 1686.21 4226.22 1680.16 4240.78 1668.52C4227.77 1649 4140.74 1664.94 4101.56 1653.75C4071.3 1645.1 4042.64 1627.63 4017.19 1609.45C4011.3 1605.25 3999.01 1589.01 3991.88 1592.58C3985.38 1595.83 3973.46 1661.61 3960.23 1674.84Z" fill="#c75f39" fill-rule="nonzero" opacity="1" stroke="none"/>
<path d="M2365.55 4315.78C2444.65 4316.84 2444.65 4316.84 2523.75 4317.89C2525.54 4278.52 2530.48 4241.14 2546.95 4208.2C2553.14 4195.82 2582.79 4162.47 2578.59 4155.47C2575.25 4149.9 2463.86 4163.91 2456.25 4163.91C2410.12 4163.91 2330.38 4160.99 2287.5 4136.48C2279.97 4132.18 2258.1 4110.28 2245.31 4115.39C2239.3 4117.8 2227.92 4150.17 2226.33 4155.47C2222.28 4168.97 2212.24 4206.53 2213.67 4220.86C2214.3 4227.13 2251.63 4230.56 2257.97 4235.63C2272.72 4247.43 2288.72 4270.53 2304.38 4279.92C2310.37 4283.52 2349.88 4251.53 2359.22 4244.06C2361.8 4242 2372.82 4235.55 2373.98 4244.06C2379.14 4281.89 2365.55 4288.05 2365.55 4315.78Z" fill="#6f2b2f" fill-rule="nonzero" opacity="1" stroke="none"/>
<path d="M3416.02 731.953C3425.3 750.526 3480.78 739.696 3504.61 742.5C3511.2 743.275 3514.86 752.633 3521.48 753.047C3563.59 755.678 3605.86 752.388 3648.05 753.047C3661.59 753.258 3657.79 763.032 3669.14 765.703C3704.16 773.944 3750.89 776.483 3783.05 799.453C3800.81 812.139 3824.88 832.228 3846.33 833.203C3874.69 834.492 3920.24 828.637 3945.47 814.219C3971.62 799.277 3996.39 775.471 4025.63 772.031C4066.21 767.256 4147.87 793.219 4173.28 767.813C4171.88 766.406 4171.05 763.678 4169.06 763.594C4137.45 762.249 4105.75 764.939 4074.14 763.594C4019.48 761.268 3962.74 729.724 3905.39 719.297C3890.12 716.52 3861.71 719.911 3850.55 708.75C3851.84 706.812 3863.09 692.349 3852.66 691.875C3823.16 690.534 3793.56 690.534 3764.06 691.875C3738.04 693.058 3712.06 695.515 3686.02 696.094C3613.69 697.701 3546.95 714.973 3472.97 721.406C3454.72 722.993 3429.3 718.667 3416.02 731.953Z" fill="#c75f39" fill-rule="nonzero" opacity="1" stroke="none"/>
<path d="M4972.73 1404.84C4932.51 1409.87 4874.41 1414.78 4839.84 1440.7C4733.7 1520.31 4686.19 1656.53 4749.14 1782.42C4780.09 1844.33 4843.87 1868.84 4901.02 1887.89C4914.97 1892.54 4937.53 1904.11 4949.53 1892.11C4924.53 1867.11 4888.21 1858.21 4860.94 1830.94C4801.73 1771.73 4788.28 1667.57 4810.31 1590.47C4813.67 1578.73 4809.86 1570.13 4816.64 1558.83C4843.09 1514.75 4882.04 1469.17 4930.55 1444.92C4960.58 1429.91 4986.64 1423.94 5019.14 1419.61C5027.74 1418.46 5024.65 1408.25 4972.73 1404.84Z" fill="#acc7da" fill-rule="nonzero" opacity="1" stroke="none"/>
<path d="M3259.92 2472.19C3231.2 2500.91 3195.62 2518.59 3154.45 2518.59C3134.5 2518.59 3096.87 2474.35 3086.95 2497.5C3086.57 2498.38 3093.13 2516.02 3093.28 2516.48C3107.72 2559.81 3164.79 2611.03 3215.63 2600.86C3225.66 2598.85 3252.53 2587.67 3262.03 2592.42C3289.92 2606.37 3294.67 2624.44 3327.42 2630.39C3386.6 2641.15 3428.73 2615.57 3468.75 2575.55C3488.52 2555.78 3477.93 2538.2 3487.73 2518.59C3468.16 2499.02 3448.87 2524.92 3428.67 2524.92C3410.75 2524.92 3387.83 2499.73 3371.72 2493.28C3355.35 2486.73 3336.62 2497.5 3318.98 2497.5C3299.15 2497.5 3278.92 2482.04 3259.92 2472.19Z" fill="#c75f39" fill-rule="nonzero" opacity="1" stroke="none"/>
<path d="M4188.05 1873.13C4175.32 1885.85 4191.69 1903.23 4177.5 1917.42C4161.59 1901.51 4131.89 1944 4120.55 1953.28C4112.13 1960.17 4064.09 1976.09 4063.59 1978.59C4056.71 2013.01 4097.07 2026.19 4124.77 2012.34C4128.98 2016.56 4128.98 2016.56 4133.2 2020.78C4139.24 2017.77 4144.05 2013.25 4150.08 2010.23C4158.23 2018.39 4153.23 2023.93 4160.63 2031.33C4151.36 2040.59 4155.84 2063.65 4145.86 2075.63C4136.06 2087.39 4119.82 2109.56 4103.67 2113.59C4093.74 2116.08 4087.92 2114.58 4080.47 2122.03C4083.63 2125.2 4083.63 2125.2 4086.8 2128.36C4081.2 2133.96 4063.25 2129.82 4061.48 2141.02C4055.2 2180.83 4071.76 2235.94 4120.55 2235.94C4173.99 2235.94 4195.93 2179.35 4204.92 2138.91C4207.02 2129.48 4217.88 2132.88 4221.8 2136.8C4236.46 2129.46 4252.02 2141.74 4261.88 2122.03C4265.26 2115.26 4247.2 2084.34 4245 2077.73C4237.51 2055.27 4213.39 1953.25 4226.02 1940.63C4214.4 1917.4 4205.34 1894.74 4188.05 1873.13Z" fill="#fcd788" fill-rule="nonzero" opacity="1" stroke="none"/>
<path d="M2576.48 3180.94C2588.58 3205.13 2587.32 3227.2 2561.72 3240C2532.76 3211.04 2527.2 3306.53 2532.19 3326.48C2537.5 3347.73 2569.33 3345.09 2576.48 3366.56C2603.73 3366.56 2626.43 3372.89 2654.53 3372.89C2667.76 3372.89 2676.21 3364.83 2686.17 3362.34C2728.89 3351.67 2787.26 3336.99 2831.72 3334.92C2859.19 3333.64 2886.62 3331.33 2913.98 3328.59C2928.05 3327.19 2946.18 3334.37 2956.17 3324.38C2928.31 3296.51 2877.32 3323.36 2838.05 3320.16C2827.65 3319.31 2796.45 3283.54 2785.31 3277.97C2767.13 3268.88 2745.13 3266.32 2726.25 3256.88C2689.18 3238.34 2646.03 3224.01 2612.34 3197.81C2603.43 3190.88 2588.31 3169.11 2576.48 3180.94Z" fill="#6f2b2f" fill-rule="nonzero" opacity="1" stroke="none"/>
<path d="M4871.48 4094.3C4850.76 4115.02 4822.97 4114.28 4822.97 4153.36C4822.97 4172.16 4895.49 4211.26 4915.78 4212.42C4938.26 4213.71 4960.9 4216.95 4983.28 4214.53C4988.22 4214 4990.31 4207.5 4993.83 4203.98C4975.19 4166.71 5075.63 4218.03 5088.75 4178.67C5096.94 4154.09 5048.76 4056.73 5019.14 4062.66C5006.7 4065.14 5002.48 4081.43 4995.94 4087.97C4963.25 4055.29 4820.77 3992.88 4871.48 4094.3Z" fill="#0d4455" fill-rule="nonzero" opacity="1" stroke="none"/>
<path d="M3730.31 1208.67C3717.06 1217.51 3725.81 1253.26 3709.22 1269.84C3688.65 1290.41 3671.25 1265.79 3671.25 1244.53C3671.25 1223.81 3686.02 1207.61 3696.56 1191.8C3655.94 1151.18 3581.37 1186.41 3567.89 1240.31C3554.1 1295.49 3561.63 1333.19 3601.64 1373.2C3644.62 1416.18 3732.13 1388.69 3753.52 1335.23C3772.12 1288.73 3762.38 1247.15 3730.31 1208.67Z" fill="#110c1c" fill-rule="nonzero" opacity="1" stroke="none"/>
<path d="M3607.97 1136.95C3573.62 1154.13 3531.58 1183.5 3523.59 1223.44C3516.05 1261.17 3513.51 1297.7 3517.27 1335.23C3518.47 1347.29 3528.96 1358.62 3534.14 1368.98C3571.08 1442.86 3673.15 1459.79 3740.86 1425.94C3781.01 1405.86 3842.63 1291.45 3802.03 1250.86C3791.36 1257.98 3800.78 1265.11 3789.38 1271.95C3784 1275.18 3768.15 1266.27 3766.17 1276.17C3759.54 1309.35 3744.99 1370.59 3700.78 1381.64C3613.57 1403.44 3543.45 1339.58 3570 1246.64C3579.61 1213.01 3605.67 1202.53 3626.95 1181.25C3613.84 1168.14 3621.12 1150.11 3607.97 1136.95Z" fill="#e9824c" fill-rule="nonzero" opacity="1" stroke="none"/>
<path d="M3681.8 3313.83C3675.11 3320.52 3665.23 3324.51 3660.7 3332.81C3657.93 3337.9 3660.58 3345.59 3656.48 3349.69C3665.55 3367.83 3675.6 3386.37 3673.36 3408.75C3671.52 3427.13 3658.16 3444.95 3675.47 3459.38C3687.65 3469.53 3725.54 3467.09 3738.75 3469.92C3756.3 3473.68 3787.02 3492.19 3806.25 3482.58C3808.26 3484.59 3811.73 3495.12 3814.69 3495.23C3852.64 3496.67 3890.68 3495.23 3928.59 3493.13C3940.61 3492.46 3955.94 3497.42 3964.45 3488.91C3952.98 3477.44 3949.68 3478.37 3960.23 3467.81C3957.07 3463.59 3957.07 3463.59 3953.91 3459.38C3973.73 3439.55 4009.63 3398.79 3970.78 3372.89C3949.65 3358.8 3947.55 3451.98 3924.38 3440.39C3915.43 3435.92 3897.28 3427.98 3888.52 3421.41C3875.79 3411.87 3858.6 3363.31 3837.89 3377.11C3841.16 3383.66 3852.17 3391.09 3852.66 3398.2C3853.91 3416.44 3853.96 3434.81 3852.66 3453.05C3852.51 3455.03 3850.39 3456.88 3848.44 3457.27C3836.08 3459.74 3800.1 3410.11 3793.59 3402.42C3763.95 3367.39 3718.57 3341.41 3681.8 3313.83Z" fill="#6f2b2f" fill-rule="nonzero" opacity="1" stroke="none"/>
<path d="M4987.5 1877.34C5003.52 1877.34 5021.19 1883.21 5036.02 1881.56C5104.09 1874 5172.96 1801.9 5194.22 1738.13C5205.5 1704.3 5204.77 1650.2 5204.77 1615.78C5204.77 1602.5 5182.26 1555.3 5173.13 1546.17C5174.18 1544.06 5174.18 1544.06 5175.23 1541.95C5162.42 1529.14 5154.48 1514.38 5141.48 1499.77C5129.61 1507.68 5129.34 1514.02 5120.39 1522.97C5096.72 1499.3 5074.54 1470.51 5044.45 1455.47C5039.5 1452.99 4977.87 1429.89 4987.5 1449.14C4990.24 1454.63 5052.75 1485.93 5063.44 1495.55C5117.35 1544.07 5141.89 1604.45 5139.38 1674.84C5137.29 1733.24 5106.98 1792.31 5061.33 1828.83C5044.77 1842.08 4981.37 1858.96 4987.5 1877.34Z" fill="#fdf4a0" fill-rule="nonzero" opacity="1" stroke="none"/>
<path d="M4481.25 1900.55C4468.73 1913.07 4476.39 1935.64 4474.92 1953.28C4473.29 1972.89 4442.96 1990.09 4436.95 2008.13C4428.1 2034.68 4467.46 2105.83 4472.81 2132.58C4473.25 2134.76 4489.38 2157.23 4491.8 2155.78C4506.7 2146.84 4520.3 2129.9 4529.77 2115.7C4551.76 2130.36 4551.43 2207.74 4561.41 2212.73C4573.89 2218.97 4575.17 2184.36 4574.06 2160C4573.41 2145.6 4589.42 2140.77 4593.05 2126.25C4597.01 2110.4 4599.38 2086.9 4599.38 2071.41C4599.38 2022.67 4564.56 1971.2 4529.77 1936.41C4515.66 1922.3 4499.25 1921.23 4481.25 1900.55Z" fill="#f59b5c" fill-rule="nonzero" opacity="1" stroke="none"/>
<path d="M2996.25 4189.22C2960.8 4201.03 2928.69 4233.16 2905.55 4260.94C2899.9 4267.72 2891.86 4283.42 2884.45 4288.36C2872.59 4296.27 2864.4 4258.82 2861.25 4254.61C2844.06 4231.69 2830.48 4225.43 2808.52 4216.64C2800.88 4213.59 2786.31 4220.9 2781.09 4225.08C2747.04 4252.32 2736.21 4270.64 2745.23 4315.78C2841.56 4316.48 2937.89 4318.58 3034.22 4317.89C3040.02 4317.85 3038.28 4306.81 3038.44 4301.02C3039.03 4279.22 3040.55 4257.43 3040.55 4235.63C3040.55 4219.81 3027.57 4196.44 2996.25 4189.22Z" fill="#1b6053" fill-rule="nonzero" opacity="1" stroke="none"/>
<path d="M2926.64 2824.45C2904.15 2846.95 2951.38 2856.67 2932.97 2875.08C2959.94 2902.05 2991.55 2937.71 3027.89 2946.8C3093.36 2963.16 3191.78 2918.47 3181.88 2839.22C3180.85 2830.98 3121.93 2830.35 3116.48 2828.67C3104.47 2824.98 3071.02 2788.36 3061.64 2794.92C3021.55 2822.98 2980.4 2851.33 2926.64 2824.45Z" fill="#913835" fill-rule="nonzero" opacity="1" stroke="none"/>
<path d="M3004.69 1890C3000.04 1894.65 2998.88 1899.87 2998.36 1906.88C2997.16 1923.02 2996.25 1939.2 2996.25 1955.39C2996.25 2019.92 3041.56 2046.09 3101.72 2046.09C3109.27 2046.09 3115.91 2040.34 3120.7 2035.55C3164.31 2070.43 3191.06 2048.89 3230.39 2029.22C3241.07 2023.88 3263.03 2035.33 3276.8 2025C3287.93 2016.65 3325.15 1972.18 3304.22 1961.72C3296.93 1958.07 3244.27 1995.25 3219.84 1989.14C3194.92 1982.91 3182.2 1961.12 3158.67 1953.28C3143.82 1948.33 3114.5 1953.28 3103.83 1953.28C3075.15 1953.28 3028.61 1907.24 3004.69 1890Z" fill="#e9824c" fill-rule="nonzero" opacity="1" stroke="none"/>
<path d="M3409.69 2982.66C3391.13 3001.21 3367.98 3029.06 3337.97 3029.06C3331.98 3029.06 3327.33 3019.03 3323.2 3018.52C3314.71 3017.45 3269.45 3021.64 3262.03 3029.06C3268.4 3035.44 3276.88 3029.24 3281.02 3037.5C3284.72 3044.9 3278.91 3057.69 3278.91 3064.92C3278.91 3080.35 3293.21 3127.74 3304.22 3138.75C3317.98 3124.99 3338.99 3151.14 3356.95 3155.63C3372.18 3159.43 3437.54 3169.88 3441.33 3174.61C3442.91 3176.59 3444.14 3178.83 3445.55 3180.94C3479.03 3147.45 3436.82 3056.77 3464.53 3029.06C3447.69 3012.22 3426.75 2999.72 3409.69 2982.66Z" fill="#a95444" fill-rule="nonzero" opacity="1" stroke="none"/>
<path d="M4059.38 3296.95C4042.83 3313.49 4088.51 3383.84 4055.16 3417.19C4044.69 3410.21 4041.65 3384.53 4025.63 3381.33C4014.38 3379.08 4010.13 3385.84 4000.31 3389.77C3958.39 3406.54 3999.98 3404.16 3977.11 3436.17C3969.73 3446.5 3957.68 3450.53 3947.58 3457.27C3951.8 3461.48 3951.8 3461.48 3956.02 3465.7C3948.28 3476.02 3943.9 3482.63 3962.34 3491.02C3973.54 3496.1 4015.05 3483 4027.73 3480.47C4074.51 3471.11 4175.08 3458.03 4196.48 3404.53C4219.95 3345.87 4094.03 3314.28 4059.38 3296.95Z" fill="#a95444" fill-rule="nonzero" opacity="1" stroke="none"/>
<path d="M3968.67 1352.11C3949.04 1371.75 3921.21 1349.3 3901.17 1362.66C3891.55 1369.07 3871.12 1398.75 3869.53 1409.06C3868.23 1417.52 3871.36 1428.33 3865.31 1434.38C3890.55 1459.62 3908.73 1488.29 3920.16 1518.75C3927.71 1538.89 3948.82 1555.49 3951.8 1577.81C3956.51 1613.2 3937.53 1650.27 3958.13 1681.17C3998.21 1651.11 3995.76 1555.96 4006.64 1512.42C4011.92 1491.32 3992 1461.67 4008.75 1444.92C3985.75 1421.92 3986.62 1379.03 3968.67 1352.11Z" fill="#fcc435" fill-rule="nonzero" opacity="1" stroke="none"/>
<path d="M4215.47 1185.47C4204.9 1196.04 4203.49 1215.48 4185.94 1221.33C4180.3 1223.21 4165.97 1212.5 4164.84 1208.67C4157.26 1182.87 4175.08 1167.2 4190.16 1149.61C4156.4 1104.6 4093.8 1129.02 4065.7 1166.48C4035.75 1206.42 4040.44 1261.45 4076.25 1297.27C4143.13 1364.15 4270.05 1240.05 4215.47 1185.47Z" fill="#110c1c" fill-rule="nonzero" opacity="1" stroke="none"/>
<path d="M3588.98 2689.45C3556.66 2721.78 3542.42 2774.07 3517.27 2811.8C3525.1 2819.63 3521.2 2832.94 3525.7 2843.44C3542.48 2882.59 3603.85 2904.61 3643.83 2904.61C3661.76 2904.61 3740.23 2870.23 3719.77 2849.77C3704.98 2857.16 3700.62 2860.72 3686.02 2849.77C3688.13 2846.6 3688.13 2846.6 3690.23 2843.44C3686.02 2839.22 3686.02 2839.22 3681.8 2835C3682.85 2832.89 3682.85 2832.89 3683.91 2830.78C3681.8 2828.67 3681.8 2828.67 3679.69 2826.56C3682.85 2822.34 3682.85 2822.34 3686.02 2818.13C3673.7 2805.81 3659.57 2805.91 3643.83 2788.59C3627.82 2770.99 3623.87 2738.13 3612.19 2714.77C3616.41 2710.55 3616.41 2710.55 3620.63 2706.33C3609.96 2690.32 3600.66 2701.13 3588.98 2689.45Z" fill="#fdb275" fill-rule="nonzero" opacity="1" stroke="none"/>
<path d="M2523.75 3735.7C2525.86 3738.87 2525.86 3738.87 2527.97 3742.03C2589.13 3693.11 2651.18 3659.52 2724.14 3638.67C2762.51 3627.71 2825.48 3636.47 2850.7 3611.25C2840.88 3601.42 2850.05 3591.61 2840.16 3581.72C2851.15 3567.97 2846.28 3575.03 2854.92 3560.63C2842.35 3548.05 2779.31 3560.63 2762.11 3560.63C2713.67 3560.63 2664.75 3556.41 2616.56 3556.41C2596.82 3556.41 2614.37 3595.84 2612.34 3615.47C2609.03 3647.51 2545.26 3710.61 2523.75 3735.7Z" fill="#e9824c" fill-rule="nonzero" opacity="1" stroke="none"/>
<path d="M4955.86 1432.27C4972.16 1448.56 5006.92 1427.23 5014.92 1451.25C5057.43 1451.25 5104.68 1531.72 5130.94 1522.97C5130.94 1508.44 5128.45 1514.91 5139.38 1503.98C5164.69 1525.68 5180.95 1560.45 5192.11 1588.36C5194.25 1593.71 5189.54 1602.2 5192.11 1607.34C5193.89 1610.9 5200.07 1611.83 5200.55 1615.78C5208.25 1679.37 5179.19 1704.11 5223.75 1748.67C5233.71 1738.71 5239.97 1693.1 5240.63 1683.28C5241.93 1663.64 5241.22 1643.9 5240.63 1624.22C5237.6 1524.51 5134.38 1382.15 5025.47 1404.84C5020.6 1405.86 5019.67 1413.91 5014.92 1415.39C4995.52 1421.45 4971.19 1416.93 4955.86 1432.27Z" fill="#e9e7e7" fill-rule="nonzero" opacity="1" stroke="none"/>
<path d="M1981.64 3524.77C1963.24 3543.16 1981.64 3576.8 1981.64 3602.81C1981.64 3611.37 1978.83 3619.69 1977.42 3628.13C1965.97 3696.83 2003.49 3618.33 2030.16 3645C2048.91 3629.37 2107.22 3646.1 2133.52 3645C2171.42 3643.42 2264.45 3614.99 2291.72 3592.27C2301.78 3583.88 2322.92 3591.03 2329.69 3577.5C2331.85 3573.18 2320.52 3555.79 2317.03 3554.3C2298.81 3546.49 2264.62 3581.94 2232.66 3560.63C2226.25 3556.35 2207.87 3534.68 2201.02 3537.42C2191.46 3541.24 2183.67 3569.53 2175.7 3577.5C2159.89 3593.31 2128.73 3596.48 2108.2 3596.48C2061.52 3596.48 2020.54 3544.21 1981.64 3524.77Z" fill="#6f2b2f" fill-rule="nonzero" opacity="1" stroke="none"/>
<path d="M3259.92 2586.09C3246.89 2583.52 3202.02 2591.04 3196.64 2607.19C3191.41 2622.88 3198.65 2616.15 3200.86 2628.28C3209.98 2678.47 3227.17 2709.99 3274.69 2733.75C3320.08 2756.45 3358.12 2740.41 3392.81 2712.66C3403 2704.51 3414.32 2699.13 3409.69 2685.23C3406.44 2675.49 3373.88 2665.39 3363.28 2657.81C3350.62 2648.77 3357.11 2635.27 3344.3 2628.28C3334.03 2622.68 3310.9 2622.94 3297.89 2617.73C3281.29 2611.09 3276.18 2589.31 3259.92 2586.09Z" fill="#6f2b2f" fill-rule="nonzero" opacity="1" stroke="none"/>
<path d="M2747.34 2307.66C2736.95 2318.05 2739.18 2338.85 2736.8 2351.95C2726.58 2408.15 2766.32 2480.63 2833.83 2480.63C2851.62 2480.63 2865.73 2468.89 2880.23 2461.64C2890.18 2471.58 2886.74 2512.58 2888.67 2527.03C2891.67 2549.55 2925.44 2560.98 2943.52 2565C2996.49 2576.77 3052.76 2555.35 3078.52 2503.83C3064.08 2489.39 3018.13 2511.59 2998.36 2505.94C2963.19 2495.89 2947.89 2489.22 2920.31 2461.64C2911.63 2452.96 2911.73 2440.4 2903.44 2432.11C2850.85 2467.17 2775.49 2419.51 2757.89 2366.72C2752.24 2349.76 2760.8 2321.11 2747.34 2307.66Z" fill="#c75f39" fill-rule="nonzero" opacity="1" stroke="none"/>
<path d="M4221.8 1940.63C4204.13 1958.29 4220.93 1983.94 4223.91 2001.8C4233.78 2061.07 4262.33 2111.03 4263.98 2170.55C4265.21 2214.83 4265.41 2259.14 4266.09 2303.44C4266.81 2349.89 4252.8 2393.31 4232.34 2434.22C4227.75 2443.4 4202.43 2468.55 4209.14 2480.63C4214.17 2489.68 4226.7 2498.43 4236.56 2501.72C4236.56 2513.3 4235.3 2507.64 4240.78 2518.59C4260.64 2498.74 4267.29 2455.95 4276.64 2427.89C4314.68 2313.77 4307.16 2191.94 4274.53 2077.73C4266.75 2050.5 4242.66 1954.53 4221.8 1940.63Z" fill="#e9824c" fill-rule="nonzero" opacity="1" stroke="none"/>
<path d="M2728.36 2516.48C2717.08 2527.77 2706.16 2547.92 2705.16 2565C2703.92 2586.07 2703.05 2607.18 2703.05 2628.28C2703.05 2687.44 2783.22 2718.99 2827.5 2725.31C2832.98 2726.1 2838.87 2745.12 2842.27 2748.52C2851.81 2743.74 2856.86 2733.88 2865.47 2727.42C2860.48 2717.44 2872.76 2708.82 2869.69 2704.22C2851.97 2677.65 2858.57 2663.17 2871.8 2636.72C2863.73 2628.65 2818.27 2628.49 2802.19 2615.63C2781.56 2599.13 2755.39 2581.95 2745.23 2556.56C2740.05 2543.6 2739.63 2527.76 2728.36 2516.48Z" fill="#e9824c" fill-rule="nonzero" opacity="1" stroke="none"/>
<path d="M3783.05 3064.92C3743.46 3104.51 3693.36 3094.39 3643.83 3105C3628.36 3108.32 3656.18 3193.29 3664.92 3202.03C3676.67 3190.28 3847.6 3283.04 3802.03 3176.72C3796.57 3163.98 3794.97 3144.13 3793.59 3132.42C3791.33 3113.16 3798.49 3080.37 3783.05 3064.92Z" fill="#e96431" fill-rule="nonzero" opacity="1" stroke="none"/>
<path d="M2719.92 2769.61C2727.43 2777.11 2754.84 2792.67 2757.89 2803.36C2765 2828.25 2769.82 2849.04 2789.53 2868.75C2827.9 2907.12 2905.84 2924.21 2941.41 2870.86C2953.38 2852.9 2910.24 2845.07 2926.64 2828.67C2903.31 2805.35 2872.52 2794.95 2852.81 2765.39C2844.21 2767.54 2830.42 2777.85 2823.28 2778.05C2798.68 2778.71 2773.99 2779.98 2749.45 2778.05C2735.4 2776.94 2736.04 2753.49 2719.92 2769.61Z" fill="#6f2b2f" fill-rule="nonzero" opacity="1" stroke="none"/>
<path d="M3905.39 1972.27C3884.55 1993.11 3851.92 2032.68 3818.91 2035.55C3804.88 2036.77 3790.8 2037.66 3776.72 2037.66C3760.56 2037.66 3745.28 2020.58 3732.42 2033.44C3735.88 2040.36 3731.72 2048.94 3732.42 2056.64C3734.31 2077.45 3745.75 2088.95 3761.95 2105.16C3804.57 2147.77 3898.18 2127.68 3913.83 2065.08C3918.61 2045.97 3915.94 2025.72 3915.94 2006.02C3915.94 1994.86 3914.41 1978.28 3905.39 1972.27Z" fill="#fcd788" fill-rule="nonzero" opacity="1" stroke="none"/>
<path d="M3721.88 852.188C3711.11 862.956 3703.83 884.305 3707.11 900.703C3707.26 901.469 3781.81 943.169 3789.38 949.219C3842.11 991.409 3859.86 1059.63 3909.61 1101.09C3923.2 1112.42 3926.3 1040.66 3928.59 1031.48C3934.13 1009.33 3977.37 968.466 3960.23 951.328C3897.22 1014.34 3847.72 950.974 3804.14 909.141C3778.83 884.839 3752.15 867.326 3721.88 852.188Z" fill="#c75f39" fill-rule="nonzero" opacity="1" stroke="none"/>
<path d="M2196.8 3537.42C2228.49 3569.11 2280.75 3588.36 2323.36 3556.41C2345.98 3539.44 2358.44 3471.26 2340.23 3453.05C2320.6 3462.86 2315.38 3441.49 2298.05 3434.06C2279.6 3426.16 2258.01 3453.06 2247.42 3448.83C2238.98 3445.45 2225.08 3419.68 2215.78 3438.28C2207.91 3454.02 2216.45 3473.64 2213.67 3491.02C2211.61 3503.88 2203.8 3523.41 2196.8 3537.42Z" fill="#5f612e" fill-rule="nonzero" opacity="1" stroke="none"/>
<path d="M4673.2 3915C4680.81 3922.61 4689.22 3929.37 4683.75 3940.31C4701.59 3958.15 4764.82 3958.39 4782.89 3940.31C4794.95 3952.37 4799.88 3950.97 4816.64 3967.73C4842.78 3941.6 4824.71 3877.4 4841.95 3860.16C4841.58 3859.79 4817.11 3834.3 4812.42 3832.73C4796.82 3827.53 4738.66 3840.08 4723.83 3847.5C4697.77 3860.53 4690.94 3897.26 4673.2 3915Z" fill="#f59b5c" fill-rule="nonzero" opacity="1" stroke="none"/>
<path d="M2867.58 2706.33C2858.98 2714.93 2847.34 2734.91 2840.16 2746.41C2834.28 2755.81 2904.49 2830.78 2924.53 2830.78C3003.95 2830.78 3011.03 2844.83 3070.08 2790.7C3063.28 2783.9 3055.45 2764.2 3046.88 2761.17C3026.67 2754.04 3001.89 2768.79 2981.48 2765.39C2963.22 2762.35 2947.66 2754.83 2930.86 2752.73C2910.76 2750.22 2882.98 2714.03 2867.58 2706.33Z" fill="#c75f39" fill-rule="nonzero" opacity="1" stroke="none"/>
<path d="M1990.08 2577.66C1978.15 2589.58 1971.59 2634.43 1964.77 2651.48C1946.24 2697.81 1911.52 2738.98 1888.83 2784.38C1876.72 2808.59 1861.84 2843 1842.42 2862.42C1845.75 2869.08 1850.53 2873.86 1857.19 2877.19C1872.63 2861.74 1889.82 2839.28 1905.7 2822.34C1917.61 2809.64 1929.78 2797.19 1941.56 2784.38C1977.1 2745.74 2012.11 2695.09 2028.05 2647.27C2032.61 2633.57 2043.18 2604.17 2034.38 2592.42C2025.35 2580.38 2002.56 2590.14 1990.08 2577.66Z" fill="#1b6053" fill-rule="nonzero" opacity="1" stroke="none"/>
<path d="M3865.31 1371.09C3856.3 1380.11 3858.62 1393.5 3858.98 1404.84C3860.3 1446.31 3859.06 1487.86 3861.09 1529.3C3864.02 1588.74 3905.49 1646.11 3947.58 1685.39C3969.3 1670.91 3953.31 1633.44 3953.91 1607.34C3955.53 1535.88 3906.57 1492.59 3871.64 1434.38C3860.01 1414.99 3881.96 1387.74 3865.31 1371.09Z" fill="#f57d13" fill-rule="nonzero" opacity="1" stroke="none"/>
<path d="M3342.19 3381.33C3320.96 3378.38 3301.84 3383.44 3281.02 3383.44C3274.53 3383.44 3268.58 3390.04 3266.25 3396.09C3258.18 3417.08 3280.34 3439.56 3295.78 3448.83C3341.91 3476.51 3392.17 3483.77 3445.55 3501.56C3455.06 3504.73 3469.63 3513.79 3481.41 3512.11C3505.41 3508.68 3448.65 3457.8 3437.11 3448.83C3426.83 3440.83 3416.09 3433.21 3405.47 3425.63C3385.71 3411.51 3366.38 3384.69 3342.19 3381.33Z" fill="#6f2b2f" fill-rule="nonzero" opacity="1" stroke="none"/>
<path d="M4865.16 1944.84C4847.44 1947.6 4837.85 1992.15 4839.84 2008.13C4840.98 2017.19 4888.8 2030.76 4896.8 2031.33C4914.34 2032.58 4931.95 2032.79 4949.53 2033.44C4959.28 2033.8 5022.79 2032.61 5025.47 2016.56C5029.82 1990.43 5021.54 1999.63 5019.14 1982.81C5017.19 1969.13 5022.79 1956.16 5008.59 1949.06C5003.6 1946.57 4996.34 1950.95 4991.72 1951.17C4965.02 1952.44 4938.28 1952.61 4911.56 1953.28C4895.59 1953.68 4880.8 1942.41 4865.16 1944.84Z" fill="#364054" fill-rule="nonzero" opacity="1" stroke="none"/>
<path d="M5198.44 1708.59C5187.7 1719.33 5195.73 1723.8 5190 1738.13C5173.22 1780.07 5137.25 1826.73 5099.3 1852.03C5087.67 1859.78 5054.32 1879.94 5040.23 1881.56C5025.15 1883.3 4965.02 1876.62 4949.53 1892.11C4966.39 1917.4 5029.77 1916.81 5055 1913.2C5114.29 1904.73 5175.31 1853.98 5200.55 1803.52C5206.85 1790.91 5229.17 1763.1 5225.86 1746.56C5223.04 1732.48 5208.52 1719.94 5198.44 1708.59Z" fill="#baddf2" fill-rule="nonzero" opacity="1" stroke="none"/>
<path d="M2833.83 3619.69C2841.68 3627.54 2865.09 3625.83 2878.13 3632.34C2912.62 3597.85 3022.91 3622.56 3053.2 3592.27C3041.55 3580.61 3052.49 3571.4 3036.33 3560.63C3039.49 3556.41 3039.49 3556.41 3042.66 3552.19C3030.54 3540.07 3009.53 3548.37 2994.14 3550.08C2949.95 3554.99 2897.8 3547.83 2854.92 3556.41C2827.81 3561.83 2844.96 3602.98 2833.83 3619.69Z" fill="#c75f39" fill-rule="nonzero" opacity="1" stroke="none"/>
<path d="M3607.97 1141.17C3616.34 1149.54 3611.06 1179.91 3624.84 1183.36C3632.3 1185.22 3653.54 1177.03 3660.7 1177.03C3687.04 1177.03 3710.32 1199.23 3726.09 1215C3728.2 1213.95 3728.2 1213.95 3730.31 1212.89C3747.19 1229.77 3769.29 1274.16 3757.73 1297.27C3761.95 1301.48 3761.95 1301.48 3766.17 1305.7C3775.28 1296.59 3765.5 1285.28 3774.61 1276.17C3795.39 1286.56 3796.57 1258.43 3804.14 1250.86C3799.03 1240.64 3799.73 1227.34 3793.59 1217.11C3759.01 1159.48 3713.89 1128.52 3645.94 1128.52C3634.03 1128.52 3616.64 1132.51 3607.97 1141.17Z" fill="#913835" fill-rule="nonzero" opacity="1" stroke="none"/>
<path d="M5059.22 2318.2C5029.55 2333.04 4992.02 2326.69 4957.97 2328.75C4947.1 2329.41 4951.51 2349.29 4947.42 2354.06C4936.21 2367.14 4891.4 2392.65 4922.11 2413.13C4943.8 2427.59 4983.31 2414.4 5008.59 2419.45C5015.24 2420.78 5012.39 2431.69 5017.03 2436.33C5022.59 2430.77 5019.84 2420.86 5021.25 2413.13C5021.86 2409.76 5037.2 2403.1 5040.23 2400.47C5048.88 2392.97 5057.45 2385.36 5065.55 2377.27C5077.84 2364.97 5072.53 2342.48 5071.88 2328.75C5071.6 2323 5069.13 2321.79 5059.22 2318.2Z" fill="#6f2b2f" fill-rule="nonzero" opacity="1" stroke="none"/>
<path d="M5084.53 2210.63C5074.96 2220.19 5083.58 2220.25 5076.09 2229.61C5069.26 2238.15 5062.58 2247.74 5052.89 2252.81C5037.31 2260.98 5000.88 2255.62 4983.28 2259.14C4963.89 2263.02 4973.35 2271.74 4970.63 2290.78C4969.03 2301.94 4947.27 2309.4 4945.31 2318.2C4942.7 2329.95 4941.02 2345.55 4949.53 2354.06C4954.9 2348.7 4950.47 2333.84 4960.08 2332.97C4999.45 2329.39 5017.92 2333.81 5050.78 2328.75C5113.32 2319.13 5125.57 2251.66 5084.53 2210.63Z" fill="#913835" fill-rule="nonzero" opacity="1" stroke="none"/>
<path d="M4571.95 2216.95C4559.19 2214.63 4565.93 2286.91 4552.97 2307.66C4541.78 2325.56 4510.09 2338.57 4502.34 2354.06C4496.28 2366.18 4531.29 2444.04 4538.2 2442.66C4550.7 2440.16 4574.88 2412.31 4576.17 2411.02C4610.09 2377.1 4600.11 2325.44 4593.05 2286.56C4589.17 2265.26 4595.43 2221.23 4571.95 2216.95Z" fill="#f59b5c" fill-rule="nonzero" opacity="1" stroke="none"/>
<path d="M3316.88 3221.02C3327.95 3209.94 3314.23 3194.12 3325.31 3183.05C3340.31 3198.04 3348.4 3215.79 3365.39 3231.56C3384.12 3248.95 3423.32 3247.3 3441.33 3265.31C3452.37 3254.27 3446.44 3228.42 3447.66 3212.58C3453.05 3142.51 3412.88 3166.97 3359.06 3153.52C3350.19 3151.3 3311.24 3127.74 3310.55 3128.2C3296.79 3137.37 3311.02 3215.16 3316.88 3221.02Z" fill="#f57d13" fill-rule="nonzero" opacity="1" stroke="none"/>
<path d="M2876.02 2392.03C2911.88 2392.03 2966.59 2411.15 2992.03 2385.7C2986.24 2379.91 2988.44 2383.37 2985.7 2375.16C2942.47 2375.16 2892.74 2351.8 2861.25 2320.31C2852.79 2311.85 2847.5 2295.76 2838.05 2288.67C2826.41 2279.94 2796.49 2278.99 2785.31 2280.23C2764.05 2282.6 2788.79 2330.05 2791.64 2337.19C2806.2 2373.59 2870.34 2375.01 2876.02 2392.03Z" fill="#6f2b2f" fill-rule="nonzero" opacity="1" stroke="none"/>
<path d="M3614.3 2704.22C3588.88 2697.18 3621.58 2742.75 3626.95 2754.84C3636.69 2776.76 3640.44 2808.72 3673.36 2818.13C3715.89 2830.28 3786.46 2796.82 3795.7 2750.63C3799.05 2733.89 3736.04 2750.63 3726.09 2750.63C3679.49 2750.63 3659.2 2716.65 3614.3 2704.22Z" fill="#fcd788" fill-rule="nonzero" opacity="1" stroke="none"/>
<path d="M4774.45 2335.08C4764.15 2345.38 4755.78 2371.23 4744.92 2385.7C4715.05 2425.53 4686.16 2467.72 4647.89 2499.61C4651.46 2504.37 4666.79 2520.7 4673.2 2520.7C4681.64 2520.7 4678.13 2512.97 4683.75 2510.16C4698.05 2503 4722.27 2502.94 4738.59 2497.5C4744.05 2495.68 4759.66 2482.72 4763.91 2484.84C4774.21 2490 4764.41 2502.22 4772.34 2510.16C4793.25 2489.25 4775.16 2451.09 4776.56 2421.56C4777.33 2405.39 4791.55 2352.18 4774.45 2335.08Z" fill="#913835" fill-rule="nonzero" opacity="1" stroke="none"/>
<path d="M3445.55 3256.88C3414.79 3287.63 3497.61 3273.99 3542.58 3275.86C3586.72 3277.7 3635.19 3314.59 3658.59 3349.69C3668.87 3342.84 3670.54 3327.07 3683.91 3315.94C3671.99 3292.11 3687.89 3258.74 3669.14 3240C3650.89 3249.12 3628.34 3240.98 3607.97 3242.11C3583.07 3243.49 3457.17 3268.49 3445.55 3256.88Z" fill="#913835" fill-rule="nonzero" opacity="1" stroke="none"/>
<path d="M4027.73 2341.41C3996.37 2345.89 3961.69 2350.66 3928.59 2356.17C3910.71 2359.15 3894.59 2374.84 3877.97 2381.48C3863.59 2387.23 3834.17 2387.32 3825.23 2396.25C3879.79 2461.72 4013.53 2429.86 4027.73 2341.41Z" fill="#fcd788" fill-rule="nonzero" opacity="1" stroke="none"/>
<path d="M4072.03 2489.06C4039.87 2521.23 3991.92 2585.07 3937.03 2543.91C3918.24 2529.82 3913.67 2514.22 3899.06 2499.61C3877.29 2521.39 3942.33 2578.41 3966.56 2581.88C3994.55 2585.87 4015.97 2565.46 4040.39 2562.89C4068.99 2559.88 4077.25 2567.7 4101.56 2565C4107.44 2564.35 4111.92 2559.15 4118.44 2560.78C4122.81 2561.87 4124.71 2570.64 4128.98 2569.22C4148.64 2562.67 4171.16 2543.92 4188.05 2531.25C4194.06 2537.26 4191.16 2533.81 4196.48 2541.8C4208.28 2530.01 4205.2 2512.55 4194.38 2501.72C4164.57 2531.52 4139.57 2534.42 4101.56 2524.92C4084.08 2520.55 4081.98 2499.02 4072.03 2489.06Z" fill="#e9824c" fill-rule="nonzero" opacity="1" stroke="none"/>
<path d="M4080.47 2484.84C4067.45 2497.86 4082.59 2524.92 4101.56 2529.14C4140.81 2537.86 4159.57 2536.07 4192.27 2508.05C4213.94 2529.72 4156.14 2623.79 4173.28 2640.94C4206.13 2608.09 4214.32 2549.28 4245 2518.59C4231.97 2505.57 4244.1 2505.04 4226.02 2486.95C4223.91 2488.01 4223.91 2488.01 4221.8 2489.06C4214.25 2481.52 4208.67 2474.56 4198.59 2470.08C4182.22 2462.8 4121.67 2526.04 4080.47 2484.84Z" fill="#e6a98d" fill-rule="nonzero" opacity="1" stroke="none"/>
<path d="M3901.17 2505.94C3911.71 2516.47 3918.13 2531.33 3930.7 2543.91C3940.09 2553.29 3956.62 2554.37 3968.67 2556.56C4025.86 2566.96 4042.03 2511.28 4082.58 2486.95C4071.7 2476.07 4079.49 2440.83 4061.48 2436.33C4048.83 2433.17 4008.84 2496.95 3981.33 2503.83C3967.72 2507.23 3956.98 2510.16 3941.25 2510.16C3924.76 2510.16 3912.35 2483.57 3901.17 2505.94Z" fill="#fcd788" fill-rule="nonzero" opacity="1" stroke="none"/>
<path d="M4192.27 2522.81C4165.78 2520.71 4150.86 2549.19 4131.09 2565C4118.01 2575.47 4104.09 2584.07 4091.02 2594.53C4062.98 2616.96 4088.58 2662.03 4122.66 2662.03C4166.4 2662.03 4223.31 2525.27 4192.27 2522.81Z" fill="#fcd788" fill-rule="nonzero" opacity="1" stroke="none"/>
<path d="M4150.08 2006.02C4124.17 2018.97 4102.54 2048.53 4074.14 2056.64C4060.78 2060.46 4013.24 2068.49 4012.97 2069.3C4001.05 2105.04 4081.77 2124.07 4103.67 2117.81C4122.18 2112.52 4158.69 2075.8 4160.63 2054.53C4162.72 2031.46 4155.49 2040.68 4164.84 2031.33C4157.2 2023.68 4164.05 2015.77 4150.08 2006.02Z" fill="#fdf4a0" fill-rule="nonzero" opacity="1" stroke="none"/>
<path d="M4493.91 2151.56C4488.63 2147.34 4488.63 2147.34 4483.36 2143.13C4467.09 2159.39 4493.88 2172.55 4498.13 2189.53C4508.18 2229.76 4518.79 2256.89 4557.19 2269.69C4557.19 2282.22 4554.7 2277.75 4561.41 2284.45C4574.86 2270.99 4562.4 2174.61 4552.97 2149.45C4551.49 2145.52 4537.22 2106.51 4529.77 2111.48C4515.52 2120.98 4504.81 2138.48 4493.91 2151.56Z" fill="#a95444" fill-rule="nonzero" opacity="1" stroke="none"/>
<path d="M3082.73 1790.86C3068.72 1804.87 3097.64 1826.86 3108.05 1837.27C3130.31 1859.53 3175.16 1865.31 3202.97 1858.36C3217.12 1854.82 3239.7 1827.59 3228.28 1816.17C3230.39 1814.06 3230.39 1814.06 3232.5 1811.95C3221.11 1800.57 3200.19 1785.09 3181.88 1788.75C3173.59 1790.41 3169.38 1801.44 3158.67 1799.3C3142.48 1796.06 3142.39 1785.01 3122.81 1786.64C3102.84 1788.3 3103.07 1801.03 3082.73 1790.86Z" fill="#f59b5c" fill-rule="nonzero" opacity="1" stroke="none"/>
<path d="M3840 2632.5C3801.38 2671.12 3721.55 2638.94 3677.58 2653.59C3677.58 2715.8 3788.18 2704.31 3823.13 2681.02C3841.45 2668.8 3866 2654.96 3840 2632.5Z" fill="#fdf4a0" fill-rule="nonzero" opacity="1" stroke="none"/>
<path d="M4536.09 2461.64C4521.8 2475.93 4479.51 2508.42 4458.05 2486.95C4446.98 2494.33 4450.46 2519.32 4449.61 2531.25C4445.33 2591.1 4500.29 2573.39 4527.66 2546.02C4547.09 2526.58 4552.21 2493.6 4550.86 2467.97C4550.75 2465.98 4548.05 2465.16 4536.09 2461.64Z" fill="#e9824c" fill-rule="nonzero" opacity="1" stroke="none"/>
<path d="M3605.86 828.984C3618.06 841.188 3603.9 852.037 3595.31 860.625C3601.43 866.746 3598.93 870.274 3595.31 877.5C3601.1 883.291 3598.9 879.832 3601.64 888.047C3603.05 888.047 3604.45 887.98 3605.86 888.047C3629.33 889.165 3654.74 889.96 3677.58 896.484C3682.28 897.829 3702.79 906.774 3707.11 904.922C3718.63 899.984 3712.72 883.148 3717.66 873.281C3715.55 871.172 3715.55 871.172 3713.44 869.063C3716.25 864.844 3719.06 860.625 3721.88 856.406C3703.27 837.803 3622.14 812.699 3605.86 828.984Z" fill="#e9824c" fill-rule="nonzero" opacity="1" stroke="none"/>
<path d="M3966.56 2246.48C3939.85 2251.81 3914.74 2270.92 3886.41 2273.91C3876.59 2274.94 3866.74 2276.02 3856.88 2276.02C3850.79 2276.02 3847.29 2267.6 3840 2269.69C3827.69 2273.21 3838.8 2295.24 3844.22 2301.33C3863.95 2323.52 3879.77 2330.74 3909.61 2328.75C3930 2327.39 3966.38 2296.51 3972.89 2280.23C3977.03 2269.89 3983.56 2243.09 3966.56 2246.48Z" fill="#fcd788" fill-rule="nonzero" opacity="1" stroke="none"/>
<path d="M4825.08 2001.8C4795.19 2016.74 4828.89 2045.89 4846.17 2054.53C4876.04 2069.47 4916.2 2065.29 4945.31 2079.84C4948.05 2077.11 4955.55 2030.11 4949.53 2029.22C4932.84 2026.75 4915.77 2029.84 4898.91 2029.22C4874.84 2028.33 4853.62 2003.91 4825.08 2001.8Z" fill="#acc7da" fill-rule="nonzero" opacity="1" stroke="none"/>
<path d="M3325.31 1989.14C3330.98 2000.47 3326.31 1992.25 3344.3 2010.23C3335.8 2018.73 3326.51 2024.1 3316.88 2031.33C3339.57 2065.38 3411.2 2037.25 3428.67 2008.13C3435.39 1996.92 3440.57 1972.94 3426.56 1965.94C3416.91 1961.11 3405.85 1979.72 3397.03 1980.7C3385.07 1982.03 3373.01 1982.77 3361.17 1984.92C3350.02 1986.95 3333.99 1980.47 3325.31 1989.14Z" fill="#f59b5c" fill-rule="nonzero" opacity="1" stroke="none"/>
<path d="M4261.88 2303.44C4238.84 2314.95 4220.68 2343.1 4202.81 2358.28C4192.19 2367.31 4194.26 2354.66 4179.61 2370.94C4176.63 2374.25 4145.21 2401.72 4166.95 2404.69C4180.19 2406.49 4193.73 2405.95 4207.03 2404.69C4218.7 2403.58 4238.7 2385.72 4251.33 2392.03C4265.79 2377.57 4279.96 2317.31 4261.88 2303.44Z" fill="#fcd788" fill-rule="nonzero" opacity="1" stroke="none"/>
<path d="M3863.2 2143.13C3845.38 2152.04 3747.8 2180.35 3732.42 2172.66C3729.26 2175.82 3729.26 2175.82 3726.09 2178.98C3750.68 2206.3 3779.18 2224.41 3818.91 2208.52C3839.7 2200.2 3880.53 2166.23 3863.2 2143.13Z" fill="#fcd788" fill-rule="nonzero" opacity="1" stroke="none"/>
<path d="M2517.42 3149.3C2516.71 3150.01 2503.81 3157.94 2506.88 3164.06C2511.39 3173.09 2525.18 3164.9 2527.97 3178.83C2530.78 3192.88 2530.82 3217.91 2538.52 3229.45C2544.15 3237.91 2554.22 3236.72 2561.72 3244.22C2596.35 3226.9 2598.68 3153.52 2517.42 3149.3Z" fill="#7d4d3c" fill-rule="nonzero" opacity="1" stroke="none"/>
<path d="M3694.45 1189.69C3656.78 1204.46 3657.53 1317.13 3709.22 1274.06C3736.83 1251.05 3735.74 1173.5 3694.45 1189.69Z" fill="#e9e7e7" fill-rule="nonzero" opacity="1" stroke="none"/>
<path d="M5023.36 2014.45C5003.31 2024.48 4963.95 2019.02 4949.53 2033.44C4951.84 2038.06 4933.27 2076.23 4949.53 2079.84C4975.65 2085.65 5016.01 2075.41 5033.91 2054.53C5037.37 2050.48 5030 2048.25 5029.69 2046.09C5028.49 2037.74 5031.34 2029.05 5029.69 2020.78C5029.1 2017.86 5025.47 2016.56 5023.36 2014.45Z" fill="#8da3b8" fill-rule="nonzero" opacity="1" stroke="none"/>
<path d="M3660.7 2569.22C3649.21 2580.71 3669.43 2641.22 3683.91 2655.7C3696.84 2642.77 3720.19 2659.5 3734.53 2645.16C3731.37 2641.99 3731.37 2641.99 3728.2 2638.83C3736.32 2630.71 3732.88 2634.98 3738.75 2626.17C3731.48 2616.48 3730.85 2620.88 3734.53 2613.52C3727.72 2606.7 3716.55 2608.85 3707.11 2605.08C3689.57 2598.06 3673.7 2582.21 3660.7 2569.22Z" fill="#fcd788" fill-rule="nonzero" opacity="1" stroke="none"/>
<path d="M3219.84 3005.86C3240.73 3026.75 3303.55 3042.39 3325.31 3020.63C3314.24 3009.55 3307.23 2984.46 3293.67 2978.44C3288.09 2975.96 3226.08 2999.63 3219.84 3005.86Z" fill="#e9824c" fill-rule="nonzero" opacity="1" stroke="none"/>
<path d="M4194.38 1145.39C4182.65 1146.76 4175.7 1158.64 4169.06 1168.59C4160.01 1182.17 4153.95 1187.54 4160.63 1208.67C4180.89 1272.83 4256.99 1138.07 4194.38 1145.39Z" fill="#e9e7e7" fill-rule="nonzero" opacity="1" stroke="none"/>
<path d="M3306.33 1860.47C3299.63 1847.08 3290 1842.49 3297.89 1826.72C3290.77 1819.59 3262.5 1787.36 3253.59 1814.06C3251.81 1819.4 3255.81 1825.77 3253.59 1830.94C3251.6 1835.58 3200.1 1859.06 3238.83 1862.58C3245.17 1863.15 3251.48 1864.05 3257.81 1864.69C3265.54 1865.46 3273.25 1866.8 3281.02 1866.8C3301.78 1866.8 3297.76 1869.03 3306.33 1860.47Z" fill="#f59b5c" fill-rule="nonzero" opacity="1" stroke="none"/>
<path d="M3285.23 1811.95C3282.07 1815.12 3282.07 1815.12 3278.91 1818.28C3284.65 1824.02 3287.93 1820.98 3293.67 1826.72C3290.76 1832.55 3292.37 1837.77 3289.45 1843.59C3295.22 1849.36 3299.71 1855.81 3304.22 1862.58C3335.27 1852.23 3370.27 1827.05 3327.42 1805.63C3315.62 1799.72 3298.25 1818.46 3285.23 1811.95Z" fill="#e9824c" fill-rule="nonzero" opacity="1" stroke="none"/>
<path d="M3224.06 1816.17C3229.39 1821.5 3227.39 1818.61 3230.39 1824.61C3218.07 1836.93 3224.5 1829.99 3211.41 1845.7C3219.53 1853.82 3215.25 1850.38 3224.06 1856.25C3236.97 1843.35 3247.25 1852.06 3257.81 1830.94C3269.31 1807.93 3256.17 1819.93 3270.47 1805.63C3257.76 1792.92 3234.51 1805.72 3224.06 1816.17Z" fill="#e9824c" fill-rule="nonzero" opacity="1" stroke="none"/>
</g>
</g>
</svg>
