<?xml version="1.0" encoding="UTF-8" standalone="no"?>
<!DOCTYPE svg PUBLIC "-//W3C//DTD SVG 1.1//EN" "http://www.w3.org/Graphics/SVG/1.1/DTD/svg11.dtd">
<!-- Created with Vectornator (http://vectornator.io/) -->
<svg height="100%" stroke-miterlimit="10" style="fill-rule:nonzero;clip-rule:evenodd;stroke-linecap:round;stroke-linejoin:round;" version="1.1" viewBox="0 0 7680 4320" width="100%" xml:space="preserve" xmlns="http://www.w3.org/2000/svg" xmlns:xlink="http://www.w3.org/1999/xlink">
<defs/>
<g id="Ebene-1">
<g opacity="1">
<path d="M4309.61 1911.26C4297.21 1923.66 4313.75 1940.54 4313.9 1954.14C4314.55 2012.32 4320.4 2076.92 4301.03 2128.55C4286.88 2166.3 4230.46 2199.22 4195.25 2208.61C4175.93 2213.76 4151.76 2210.36 4132.35 2212.89C4114.43 2215.23 4102.65 2219.87 4083.74 2211.46C4063.64 2202.53 4030.89 2213.98 4009.4 2208.61C4004.83 2207.46 4003.76 2200.39 3999.4 2198.6C3987.63 2193.75 3969.1 2198.42 3957.94 2191.45C3955.01 2189.62 3947.24 2181.96 3943.64 2181.44C3914.96 2177.35 3888.37 2175.49 3860.73 2168.58C3858.11 2167.92 3857.69 2163.17 3855.01 2162.86C3839.33 2161.01 3819 2169.74 3807.83 2158.57C3795.13 2164.92 3780.65 2150.87 3769.24 2149.99C3757.83 2149.12 3746.25 2151.61 3734.93 2149.99C3732.26 2149.61 3731.88 2144.67 3729.21 2144.27C3718.37 2142.67 3707.17 2145.88 3696.33 2144.27C3693.66 2143.88 3693.26 2139.06 3690.61 2138.56C3667.74 2134.2 3659.16 2137.2 3636.29 2132.84C3633.64 2132.33 3633.03 2128.21 3630.57 2127.12C3621.37 2123.03 3625.38 2131.76 3616.27 2125.69C3596.56 2112.55 3574.34 2102.34 3556.23 2084.23C3543.14 2071.15 3532.8 2047.81 3526.21 2031.34C3522.93 2023.14 3524.14 2009.25 3517.63 2002.75C3522.15 1993.72 3512.37 1986.6 3503.34 1989.88C3497.84 1991.88 3493.11 1999.32 3487.61 2001.32C3475.22 2005.83 3458.72 2010.59 3446.16 2014.18C3436.52 2016.94 3423.35 2012.99 3414.7 2019.9C3405.35 2027.38 3429.12 2034.43 3430.43 2037.06C3435.74 2047.68 3439.16 2056.29 3436.15 2071.37C3431.27 2095.77 3389.29 2099.88 3371.82 2104.25C3367.24 2105.39 3319.91 2166.2 3308.92 2175.73C3288.38 2193.53 3263.97 2213.77 3238.87 2220.04C3233.77 2221.32 3238.06 2225.35 3233.15 2227.19C3226.44 2229.7 3218.39 2226.05 3211.71 2228.62C3196.51 2234.46 3182.22 2246 3165.96 2250.06C3145.31 2255.23 3126.99 2253.37 3105.92 2258.64C3103.27 2259.3 3096.21 2268.23 3093.05 2268.65C3065.51 2272.24 3041.61 2270.5 3013 2275.79C3010.35 2276.29 3009.87 2280.77 3007.28 2281.51C2993.72 2285.39 2975.13 2277.93 2964.39 2288.66C2966.3 2290.57 2969.99 2291.69 2970.11 2294.38C2971.93 2333.89 2969.18 2373.49 2970.11 2413.03C2970.33 2422.13 2971.27 2431.25 2972.97 2440.19C2973.47 2442.84 2977.35 2443.57 2978.69 2445.91C2982.12 2451.92 2981.87 2463.87 2984.41 2470.22C2990.85 2486.32 3002.78 2502.78 3011.57 2515.96C3015.89 2522.45 3016.79 2533.55 3020.15 2540.26C3023.29 2546.56 3032.37 2551.84 3035.87 2558.85C3050.03 2587.16 3071.93 2614.92 3094.48 2637.47C3134.69 2677.68 3181.62 2702.9 3223.14 2736.11C3247.88 2755.9 3275.55 2770.8 3303.2 2781.86C3308.53 2783.99 3315.11 2780.96 3320.35 2783.29C3326.65 2786.09 3326.6 2791.11 3336.08 2789.01C3346.91 2786.6 3338.94 2738.79 3338.94 2727.54C3338.94 2713.6 3348.48 2699.27 3348.95 2687.51C3349.86 2664.18 3346.79 2640.71 3348.95 2617.46C3349.26 2614.11 3353.71 2612.69 3356.09 2610.31C3364.78 2616.83 3360.38 2617.61 3360.38 2626.04C3360.38 2659.87 3360.38 2693.7 3360.38 2727.54C3360.38 2779.02 3358.63 2827.99 3360.38 2880.5C3360.56 2885.74 3358.88 2891.2 3360.38 2896.22C3361.56 2900.15 3366.23 2902.34 3367.53 2906.23C3389.45 2906.23 3411.47 2904.09 3433.29 2906.23C3436.64 2906.56 3437.15 2912.63 3440.44 2913.38C3463.26 2918.57 3474.03 2915 3497.62 2919.1C3500.28 2919.56 3500.67 2924.46 3503.34 2924.82C3515.62 2926.45 3528.23 2923.18 3540.51 2924.82C3543.18 2925.17 3543.57 2930.09 3546.22 2930.53C3576.79 2935.63 3617.77 2927.71 3643.44 2940.54C3666.85 2917.13 3679.01 2885.74 3697.76 2857.63C3700.9 2852.92 3717.98 2832.31 3714.91 2826.18C3735.53 2805.56 3744.19 2771.61 3759.23 2747.55C3765.17 2738.04 3773.24 2733.83 3774.95 2721.82C3776.18 2713.21 3794.77 2687.9 3799.26 2678.93C3801.18 2675.09 3812.96 2670.37 3813.55 2677.5C3815.19 2697.11 3786.52 2741.36 3774.95 2757.56C3768.52 2766.57 3767.06 2781.63 3760.66 2790.44C3749.41 2805.9 3746.08 2812.55 3739.22 2829.04C3736.4 2835.79 3727.26 2840.75 3729.21 2850.48C3729.47 2851.8 3730.72 2853.29 3732.07 2853.34C3760.64 2854.26 3789.31 2855.12 3817.84 2853.34C3820.53 2853.17 3820.89 2847.95 3823.56 2847.62C3836.8 2845.96 3850.35 2849.27 3863.59 2847.62C3866.26 2847.29 3866.64 2842.33 3869.31 2841.9C3891.85 2838.3 3904.55 2841.35 3926.49 2839.04C3929.49 2838.73 3930.91 2830.98 3932.21 2830.47C3941.95 2826.57 3953.34 2830.97 3963.66 2829.04C3967.98 2828.23 3968.04 2820.34 3972.23 2819.03C3981.01 2816.29 3992.29 2816.16 4000.83 2813.31C4014.65 2808.7 4066.96 2803.16 4073.73 2791.87C4081.86 2778.33 4057.31 2758.65 4050.86 2748.98C4046.13 2741.89 4045.17 2731.18 4042.28 2723.25C4036.1 2706.24 4000.92 2658.62 4006.54 2641.76C4010.64 2643.81 4041.16 2684.77 4042.28 2690.37C4042.94 2693.64 4040.89 2697.35 4042.28 2700.37C4046.08 2708.6 4055.2 2713.34 4059.44 2721.82C4075.16 2753.25 4098.49 2781.3 4122.34 2810.45C4132.58 2822.97 4145.03 2852.32 4160.94 2857.63C4160.94 2875.53 4195.57 2897.82 4209.54 2904.8C4222.28 2892.06 4256.51 2883.15 4273.87 2876.21C4282.35 2872.82 4289.25 2863.46 4298.17 2860.49C4331.88 2849.25 4362.54 2833.1 4395.39 2819.03C4400.58 2816.8 4455.17 2800.58 4455.43 2796.16C4456.8 2772.9 4441.82 2754.76 4439.7 2734.68C4438.85 2726.63 4440.9 2718.39 4439.7 2710.38C4438.32 2701.2 4423.89 2688.99 4422.55 2678.93C4421.27 2669.36 4411.34 2619.12 4406.82 2614.6C4405.39 2616.03 4405.39 2616.03 4403.96 2617.46C4394.12 2607.61 4396.84 2581.17 4392.53 2568.86C4390.97 2564.4 4384.32 2563.21 4382.52 2558.85C4380.7 2554.44 4383.3 2549.25 4382.52 2544.55C4378.49 2520.35 4359.37 2504.19 4362.51 2475.93C4363.65 2465.65 4381.67 2474.24 4383.95 2478.79C4385.16 2481.21 4400.06 2565.22 4416.83 2531.69C4427.15 2511.04 4434.72 2491.14 4442.56 2470.22C4448.36 2454.76 4444.92 2475.51 4451.14 2463.07C4453.32 2458.71 4451.83 2449.95 4454 2445.91C4458.06 2438.36 4467.64 2431.35 4469.72 2423.04C4471.11 2417.49 4468.34 2411.43 4469.72 2405.88C4470.38 2403.27 4475.14 2402.85 4475.44 2400.17C4481.61 2344.62 4483.09 2280.21 4476.87 2225.76C4476.56 2223.08 4471.58 2222.7 4471.15 2220.04C4469.57 2210.16 4472.02 2199.99 4471.15 2190.02C4470.95 2187.68 4464.25 2181.81 4464 2180.01C4462.78 2171.04 4466.36 2161.59 4464 2152.85C4462.78 2148.3 4455.71 2147.24 4454 2142.85C4448.63 2129.03 4453.4 2102.22 4442.56 2091.38C4441.13 2092.81 4441.13 2092.81 4439.7 2094.24C4433.79 2088.33 4437.06 2079.73 4433.98 2072.8C4428.84 2061.22 4422.26 2047.92 4416.83 2037.06C4413.34 2030.07 4403.1 2021.85 4398.24 2015.61C4369.95 1979.24 4349.28 1941.01 4309.61 1911.26Z" fill="#eff0ef" fill-rule="nonzero" opacity="1" stroke="none"/>
<path d="M4382.52 1622.48C4377.6 1627.41 4341.05 1592.25 4321.05 1595.32C4308.15 1597.31 4312.19 1616.24 4313.9 1623.91C4318.98 1646.77 4327.61 1668.07 4341.06 1688.24C4346.78 1682.53 4346.78 1682.53 4352.5 1676.81C4354.4 1678.71 4376.88 1704.32 4375.37 1706.83C4372.25 1712.04 4368.94 1710.4 4366.79 1716.84C4362.7 1729.1 4397.89 1735.77 4392.53 1748.29C4389.52 1755.3 4371.21 1761.09 4365.36 1764.01C4353.45 1769.97 4341.41 1783.95 4328.2 1786.88C4314.61 1789.9 4302.96 1791.82 4289.6 1795.46C4283.05 1797.25 4279.58 1804.85 4272.44 1805.47C4259.84 1806.56 4220.38 1804.64 4210.97 1814.05C4215.02 1820.11 4225.19 1817.37 4232.42 1818.33C4236.77 1818.92 4236.67 1827.56 4240.99 1828.34C4250.12 1830 4303.87 1818.35 4308.18 1815.48C4312.17 1812.82 4318.06 1815.89 4322.48 1814.05C4327.18 1812.09 4330.56 1805.83 4335.34 1804.04C4342.39 1801.4 4352.57 1800.82 4359.65 1796.89C4397.23 1776.01 4451.5 1747.56 4472.58 1705.4C4476.28 1698.01 4485.64 1691.96 4488.31 1683.96C4493.18 1669.33 4502.55 1653.47 4505.46 1639.64C4510.25 1616.9 4505.3 1599.15 4518.33 1579.6C4528.4 1584.63 4521.58 1592.42 4524.05 1601.04C4529.7 1620.82 4525.51 1652.15 4524.05 1669.66C4522.82 1684.39 4533.07 1703.53 4522.62 1713.98C4521.19 1712.55 4521.19 1712.55 4519.76 1711.12C4516.75 1714.12 4513.05 1758.98 4511.18 1771.16C4510.57 1775.12 4503.36 1780.79 4502.6 1784.02C4501.18 1790.06 4503.74 1796.52 4502.6 1802.61C4501.93 1806.22 4494.24 1815.04 4492.6 1818.33C4475.78 1851.96 4453.69 1887.34 4425.41 1916.97C4418.97 1923.72 4400.37 1947.58 4391.1 1951.28C4379.64 1955.87 4364.98 1926.59 4359.65 1921.26C4325.75 1887.37 4288.93 1861.44 4252.43 1834.06C4243.46 1827.33 4236.86 1854.86 4226.7 1849.78C4216.43 1844.65 4211.02 1831.22 4200.96 1826.91C4189.51 1822 4178.56 1819.14 4166.66 1815.48C4156.7 1812.41 4149.66 1799.53 4139.49 1795.46C4119.22 1787.35 4107.27 1793.15 4089.46 1778.31C4086.16 1775.56 4080.7 1779.54 4076.59 1778.31C4070.36 1776.44 4061.73 1767.6 4055.15 1766.87C4041.62 1765.37 4003.77 1759.81 3993.68 1749.72C4007.75 1732.83 4027.01 1752.12 4040.85 1738.28C4034.08 1731.51 4021.74 1736.77 4012.26 1735.42C4005.98 1734.52 3994.55 1724.81 3987.96 1723.98C3962.19 1720.76 3908.27 1714.9 3885.03 1716.84C3882.79 1717.02 3871.5 1721.78 3869.31 1723.98C3870.74 1725.41 3870.74 1725.41 3872.17 1726.84C3864.56 1738.26 3833.23 1725.41 3819.27 1725.41C3800.66 1725.41 3781.48 1723.98 3763.52 1723.98C3757.62 1723.98 3754.96 1731.14 3749.22 1728.27C3744 1733.5 3743.39 1751.38 3739.22 1759.72C3734.82 1768.51 3737.6 1754.99 3730.64 1765.44C3726.27 1771.99 3723.72 1784.87 3720.63 1792.6C3712.46 1813.04 3690.75 1836.43 3676.32 1854.07C3635.84 1903.55 3585.69 1951.15 3531.93 1975.59C3523.59 1979.38 3521.8 1994.29 3514.77 2001.32C3524.91 2016.52 3523.04 2037.42 3530.5 2054.21C3539.79 2075.11 3565.52 2098.4 3583.39 2111.39C3610.52 2131.12 3644.57 2134.36 3676.32 2141.42C3680.89 2142.43 3702.67 2152.55 3706.34 2152.85C3727.23 2154.59 3748.29 2151.94 3769.24 2152.85C3782.54 2153.43 3795.38 2164.51 3809.26 2165.72C3839.21 2168.32 3845.21 2167.71 3875.02 2171.44C3885.49 2172.74 3905.4 2182.55 3915.05 2184.3C3923.49 2185.84 3932.35 2182.77 3940.78 2184.3C3945.11 2185.09 3945.12 2193.15 3949.36 2194.31C3958.11 2196.7 3967.86 2193.07 3976.52 2195.74C3985.64 2198.54 3997.83 2210.46 4006.54 2211.46C4060.2 2217.66 4112.6 2221.43 4163.8 2212.89C4175.56 2210.93 4188.01 2214.5 4199.54 2211.46C4203.54 2210.41 4211.35 2203.81 4215.26 2201.46C4219.37 2198.99 4225.06 2201.66 4229.56 2200.03C4254.78 2190.86 4303.37 2145.07 4309.61 2118.54C4321.53 2067.88 4318.77 2009.47 4318.19 1955.57C4318.12 1949.68 4310.63 1923.71 4306.75 1919.83C4308.9 1916.97 4308.9 1916.97 4311.04 1914.12C4361.28 1964.35 4421.63 2027.75 4433.98 2095.67C4434.88 2100.6 4444.14 2101.35 4445.42 2107.11C4448 2118.73 4447.24 2134.57 4451.14 2145.7C4452.7 2150.16 4459.82 2151.18 4461.15 2155.71C4463.41 2163.49 4459.94 2172 4461.15 2180.01C4461.41 2181.8 4468.13 2187.69 4468.29 2190.02C4471.79 2238.96 4478.49 2278.75 4474.01 2325.83C4471.16 2355.76 4471.79 2381.83 4466.86 2410.17C4466.4 2412.83 4461.8 2413.28 4461.15 2415.89C4459.76 2421.44 4463.12 2427.68 4461.15 2433.05C4459.51 2437.47 4453.13 2438.78 4451.14 2443.05C4446.33 2453.35 4453.76 2462.67 4439.7 2467.36C4439.7 2479.16 4413.59 2538.39 4403.96 2534.55C4398.67 2532.43 4394.82 2492.83 4392.53 2485.94C4390.11 2478.69 4361.32 2456.31 4359.65 2473.07C4356.62 2503.33 4376.02 2519.05 4379.66 2544.55C4380.47 2550.21 4377.68 2556.34 4379.66 2561.71C4381.29 2566.13 4387.96 2567.32 4389.67 2571.71C4393.54 2581.66 4396.55 2607.89 4398.24 2618.89C4398.66 2621.6 4406.14 2623.76 4406.82 2624.61C4410.76 2629.53 4409.04 2647.62 4409.68 2650.34C4410.47 2653.7 4418.89 2659.49 4419.69 2663.21C4422.22 2675.02 4421.63 2692.07 4426.84 2703.23C4428.83 2707.51 4435.41 2708.75 4436.84 2713.24C4441.26 2727.12 4436.05 2739.59 4439.7 2753.27C4442.75 2764.71 4453.62 2779.66 4451.14 2793.3C4449.79 2800.72 4400.75 2812.43 4392.53 2816.17C4363.65 2829.3 4336.9 2842.63 4306.75 2851.91C4293.92 2855.86 4283.42 2868.04 4271.01 2873.35C4263.12 2876.74 4249.52 2878.15 4242.42 2881.93C4237.67 2884.47 4235.67 2890.69 4230.99 2893.37C4224.68 2896.97 4215.46 2896.03 4209.54 2901.94C4183.48 2888.91 4171.1 2866.04 4155.22 2846.19C4138.47 2825.25 4122.28 2803.25 4103.75 2784.72C4092.36 2773.32 4086.94 2754.72 4078.02 2743.26C4066.72 2728.73 4052.22 2713.43 4045.14 2697.52C4038.21 2681.92 4029.54 2668.43 4020.84 2653.2C4017.98 2648.2 4019.7 2642.05 4015.12 2637.47C4011.6 2640.99 4010.9 2641.08 4006.54 2638.9C3992.72 2652.73 4016.4 2666.09 4017.98 2680.36C4019.54 2694.38 4023.92 2693.67 4029.42 2704.66C4036.71 2719.25 4043.53 2736.21 4048 2751.84C4049.02 2755.42 4053.95 2756.36 4056.58 2758.99C4063.24 2765.65 4067.77 2778.51 4072.3 2787.58C4053.34 2806.54 3997.36 2809.95 3969.38 2816.17C3965.5 2817.03 3960.01 2825.01 3956.51 2826.18C3944.98 2830.02 3930.86 2820.38 3920.77 2830.47C3922.2 2831.89 3922.2 2831.89 3923.63 2833.32C3918.53 2838.42 3909.33 2835.23 3902.19 2836.18C3867.34 2840.83 3836.54 2840.78 3800.69 2844.76C3798.01 2845.06 3797.65 2850.25 3794.97 2850.48C3775.03 2852.21 3754.92 2851.39 3734.93 2850.48C3733.58 2850.42 3732.26 2848.95 3732.07 2847.62C3730.27 2835.01 3757.33 2803.9 3763.52 2793.3C3767.65 2786.22 3771.95 2766.62 3776.38 2760.42C3788.43 2743.55 3796.3 2729.15 3804.98 2711.81C3807.63 2706.51 3823.61 2674.02 3813.55 2671.78C3801.16 2669.03 3785.81 2691.53 3780.67 2701.8C3766.93 2729.29 3753.07 2759.72 3736.36 2787.58C3732.12 2794.64 3710.63 2823.33 3713.48 2829.04C3697.44 2845.08 3672.85 2910.72 3656.3 2916.24C3656.3 2933.44 3657.85 2934.29 3667.74 2949.12C3686.34 2930.51 3695.15 2908.59 3706.34 2886.22C3706.94 2885.01 3707.85 2883.42 3709.19 2883.36C3730.14 2882.45 3751.15 2884.27 3772.1 2883.36C3786.58 2882.73 3816.82 2878.63 3830.71 2877.64C3832.25 2877.53 3837.75 2872.01 3839.29 2871.92C3871.7 2870.12 3901.3 2871.71 3929.35 2860.49C3939.53 2856.41 3951.56 2861.6 3962.23 2859.06C3964.85 2858.43 3965.35 2854.08 3967.95 2853.34C3993.7 2845.98 4018.12 2841.21 4042.28 2830.47C4048.4 2827.75 4055.95 2831.15 4062.3 2829.04C4071.1 2826.1 4085.92 2816.18 4096.61 2820.46C4105.46 2824 4108.38 2836.25 4112.33 2841.9C4126.75 2862.5 4162.81 2885.82 4152.36 2911.95C4150.45 2916.74 4148.84 2923.81 4143.78 2924.82C4132.57 2927.06 4120.79 2926.43 4109.47 2924.82C4100.96 2923.6 4102.66 2907.79 4100.9 2903.37C4096.06 2891.3 4096.21 2877.74 4095.18 2864.77C4095.07 2863.43 4093.27 2862.87 4092.32 2861.92C4081.62 2872.61 4082.31 2872.1 4082.31 2889.08C4082.31 2920.15 4094.68 2914.76 4102.32 2937.68C4116.84 2937.68 4138.05 2946.6 4150.93 2937.68C4166.28 2927.06 4159.84 2921.08 4172.37 2914.81C4206.85 2949.29 4246.99 2972.5 4298.17 2967.7C4300.86 2967.45 4301.22 2962.32 4303.89 2961.98C4320.92 2959.86 4339.52 2967.16 4355.36 2960.56C4374.47 2952.59 4396.17 2945.84 4413.97 2936.25C4427.4 2929.02 4441.48 2920.3 4454 2911.95C4463.58 2905.56 4470.7 2889.71 4481.16 2886.22C4481.16 2875.77 4484.62 2882.16 4488.31 2874.78C4489.16 2873.08 4488.27 2870.97 4488.31 2869.06C4488.75 2844.28 4490.2 2819.51 4489.74 2794.73C4489.66 2790.39 4488.53 2779.22 4484.02 2774.71C4482.59 2776.14 4482.59 2776.14 4481.16 2777.57C4472.99 2769.4 4478.34 2744.2 4475.44 2734.68C4474.07 2730.17 4467.54 2728.9 4465.43 2724.68C4462.02 2717.84 4466.75 2708.93 4464 2701.8C4453.9 2675.53 4445.76 2648.49 4436.84 2621.75C4435.53 2617.8 4428.78 2613 4428.27 2608.88C4427.44 2602.26 4429.71 2595.38 4428.27 2588.87C4426.96 2582.98 4420.38 2577.34 4422.55 2571.71C4426.93 2560.31 4439.13 2549.32 4445.42 2538.83C4453.1 2526.03 4461.36 2507.65 4464 2493.09C4466.68 2478.36 4483.39 2461.88 4488.31 2448.77C4493.24 2435.62 4492.51 2421.68 4494.03 2407.31C4494.25 2405.19 4499.56 2399.42 4499.74 2397.31C4500.61 2387.34 4498.5 2377.22 4499.74 2367.29C4500.58 2360.56 4506.67 2348.21 4506.89 2341.55C4507.81 2313.93 4507.81 2286.26 4506.89 2258.64C4506.67 2252.13 4500.32 2239.29 4499.74 2232.91C4496.94 2202.12 4498.47 2175.09 4488.31 2147.13C4483.24 2133.19 4473.02 2116.82 4469.72 2102.82C4468.3 2096.79 4471.14 2090.26 4469.72 2084.23C4467.49 2074.75 4457.01 2064.53 4452.57 2055.64C4449.67 2049.85 4449.16 2037.86 4445.42 2032.77C4438.03 2022.69 4405.47 1987.61 4403.96 1975.59C4402.12 1960.86 4433.05 1932.53 4445.42 1928.41C4445.42 1919.11 4464.37 1908.23 4469.72 1899.82C4474.34 1892.56 4511.01 1816.4 4518.33 1838.35C4526.87 1838.35 4534.85 1852.39 4542.63 1855.5C4584.2 1872.13 4627.55 1859.03 4619.83 1806.9C4619.18 1802.55 4613.69 1800.55 4611.25 1796.89C4606.12 1802.02 4608.18 1802.82 4601.24 1809.76C4594.08 1804.38 4585.16 1796 4578.37 1792.6C4532.95 1769.89 4553.94 1771.14 4588.38 1776.88C4598.27 1778.53 4606.45 1774.02 4615.54 1774.02C4627.68 1774.02 4627.58 1793.79 4641.27 1788.31C4646.22 1786.33 4652.02 1787.37 4657 1785.45C4687.89 1773.57 4699.44 1726.4 4675.58 1702.54C4681.65 1696.47 4685.48 1699.76 4691.3 1695.39C4708.67 1682.37 4731.33 1665.6 4747.06 1651.08C4763.6 1635.81 4781.23 1619.62 4794.23 1601.04C4799.75 1593.16 4803.82 1583.48 4812.82 1576.74C4810.62 1572.34 4810.8 1574.77 4814.25 1569.59C4821.39 1574.95 4818.34 1575.11 4824.25 1581.03C4827.83 1578.64 4835.47 1573.77 4837.12 1571.02C4840.01 1566.2 4838.81 1552.82 4839.98 1548.15C4845.79 1524.92 4861.42 1501.53 4861.42 1475.24C4861.42 1433.78 4861.39 1392.3 4859.99 1350.87C4859.95 1349.52 4857.32 1349.34 4857.13 1348.01C4856.11 1340.81 4853.18 1303.91 4839.98 1302.26C4810.63 1298.59 4801.82 1304.93 4779.94 1306.55C4757.14 1308.24 4734.08 1304.48 4711.32 1307.98C4702.43 1309.35 4690.74 1322.36 4681.3 1323.71C4669.5 1325.39 4656.41 1320.2 4645.56 1325.14C4632.46 1331.09 4617.26 1332.74 4604.1 1338C4541.8 1362.92 4461.63 1407.25 4422.55 1472.38C4420.84 1475.23 4421.34 1482.65 4419.69 1485.25C4415.11 1492.44 4400.79 1507.79 4398.24 1516.7C4396.41 1523.11 4399.07 1530.09 4398.24 1536.71C4397.84 1539.94 4390.21 1545.82 4389.67 1548.15C4384.16 1571.57 4384.84 1586.35 4383.95 1613.91C4383.8 1618.59 4379.98 1617.4 4382.52 1622.48Z" fill="#222222" fill-rule="nonzero" opacity="1" stroke="none"/>
<path d="M2955.82 2431.62C2962.92 2424.51 2958.2 2411.64 2958.67 2401.6C2958.82 2398.55 2964.27 2397.5 2964.39 2394.45C2965.76 2360.17 2963.02 2325.8 2964.39 2291.52C2964.47 2289.5 2966.69 2287.56 2968.68 2287.23C3011.28 2280.13 3052.72 2276.69 3095.91 2271.51C3100.27 2270.98 3107.66 2262.56 3111.64 2261.5C3130.97 2256.34 3149.63 2258.92 3168.82 2252.92C3179.32 2249.64 3190.83 2245.11 3201.7 2241.49C3205.91 2240.08 3209.91 2232.88 3214.57 2231.48C3227.05 2227.73 3238.46 2226.45 3250.31 2222.9C3255.8 2221.25 3258.04 2214.03 3263.17 2211.46C3304.55 2190.78 3342.14 2150.38 3368.96 2112.82C3376.72 2101.96 3384.84 2110.38 3396.12 2105.68C3424.33 2093.92 3439.01 2081.71 3439.01 2047.06C3439.01 2046 3438.24 2045.04 3437.58 2044.21C3429.02 2033.5 3419.27 2028.11 3410.42 2017.04C3405.89 2021.57 3409.23 2025.38 3404.7 2029.91C3389.28 2014.5 3344.79 2024.59 3338.94 2007.04C3332.11 2007.04 3294.74 2001.08 3301.77 1987.02C3304.85 1980.86 3317.05 1985.84 3321.78 1987.02C3348.81 1993.78 3366.23 2001.32 3398.98 2001.32C3410.26 2001.32 3417.11 1995.75 3426.14 1992.74C3432.63 1990.58 3438.31 1994.88 3444.73 1991.31C3481.61 1970.82 3517.79 1959.28 3553.37 1935.56C3599.21 1905 3641.21 1861.63 3674.89 1818.33C3688.93 1800.28 3695.08 1776.66 3709.19 1759.72C3715.66 1751.96 3725.21 1739.92 3729.21 1731.13C3736.15 1715.87 3751.01 1639.46 3762.09 1633.92C3763.52 1635.35 3763.52 1635.35 3764.95 1636.78C3768.87 1632.86 3766.53 1634.35 3772.1 1632.49C3772.1 1579.93 3763.42 1550.15 3736.36 1509.55C3730.34 1515.56 3734.01 1519.05 3726.35 1526.7C3719.72 1520.07 3707.38 1515.12 3697.76 1518.13C3694.54 1519.13 3693.94 1524.74 3690.61 1525.27C3678.38 1527.25 3665.8 1524.39 3653.44 1525.27C3640.47 1526.2 3620.39 1538.11 3606.27 1535.28C3588.92 1531.81 3613.75 1525.27 3581.96 1525.27C3571.58 1525.27 3550.97 1524.82 3544.8 1530.99C3553.93 1540.13 3566.16 1529.49 3576.25 1539.57C3565.51 1555.67 3539.02 1553.17 3521.92 1559.58C3513.17 1562.87 3506.25 1568.75 3497.62 1572.45C3484.18 1578.21 3465.91 1578.32 3451.87 1586.75C3444.92 1590.92 3439.26 1598.27 3431.86 1601.04C3421.05 1605.09 3428.33 1597.72 3420.42 1602.47C3400.85 1614.21 3375.57 1634.46 3357.52 1652.51C3352.41 1657.62 3329.4 1692.88 3323.21 1688.24C3315.65 1682.57 3322.26 1653.54 3321.78 1645.36C3321.27 1636.7 3312.27 1607.2 3316.07 1599.61C3319.64 1592.47 3320.89 1597.64 3326.07 1592.46C3331.62 1586.92 3326.05 1565.28 3320.35 1559.58C3311.4 1565.55 3320.76 1572.65 3310.35 1579.6C3295.06 1568.13 3276.65 1588.79 3267.46 1601.04C3261.28 1597.95 3259.16 1595.31 3254.59 1589.6C3245.04 1595.97 3231.99 1606.8 3227.43 1618.2C3225.92 1621.97 3229.98 1633.83 3223.14 1635.35C3210.67 1638.12 3206.64 1627.87 3197.41 1623.91C3192.19 1621.68 3181.76 1623.62 3178.83 1616.77C3174.86 1607.51 3213.25 1543.64 3218.85 1532.42C3223.85 1522.43 3226.9 1499.72 3240.3 1495.25C3240.3 1479.06 3258.86 1459.5 3243.16 1443.79C3237.26 1449.69 3241.17 1458.7 3237.44 1465.23C3228.88 1480.21 3222.28 1495.75 3213.14 1510.98C3192.91 1544.7 3177.11 1578.17 3157.38 1611.05C3151.41 1621 3152.24 1637.05 3148.81 1648.22C3146.69 1655.11 3140.04 1652.23 3138.8 1659.65C3135.44 1679.8 3135.05 1698.17 3131.65 1716.84C3126.17 1746.97 3065.41 1737.79 3047.31 1719.69C3022.68 1695.07 3051.15 1647.77 3028.72 1625.34C3018.1 1635.96 3031.67 1658.19 3014.43 1663.94C3014.43 1675.23 2985.82 1709.14 2977.26 1721.12C2962.39 1741.94 2955.4 1770.35 2941.52 1791.17C2938.6 1795.55 2942.16 1802.06 2940.09 1806.9C2936.31 1815.71 2928.98 1827.89 2928.65 1836.92C2927.28 1875.02 2926.84 1913.21 2928.65 1951.28C2928.78 1953.98 2933.58 1954.43 2934.37 1957C2938.88 1971.66 2938.67 1984.19 2942.95 1999.89C2943.77 2002.9 2950.21 2004.29 2951.53 2005.61C2954.54 2008.62 2953.05 2016.56 2954.39 2019.9C2956.96 2026.34 2968.6 2034.87 2971.54 2039.92C2973.56 2043.37 2975.83 2053.5 2978.69 2058.5C2982.81 2065.71 2995.28 2075.09 3000.13 2079.94C3032.58 2112.39 3067.87 2143.23 3108.78 2158.57C3128.11 2165.82 3144.02 2163.49 3165.96 2167.15C3171.14 2168.01 3182.83 2176.75 3187.4 2177.15C3207.84 2178.97 3234.37 2165.51 3248.88 2180.01C3240.01 2197.75 3172.79 2212.72 3153.09 2221.47C3141.82 2226.48 3104.56 2222.83 3095.91 2231.48C3096.63 2232.91 3096.63 2232.91 3097.34 2234.34C3086.86 2244.82 3063.99 2236.6 3050.17 2240.06C3042.97 2241.85 3029.98 2250.65 3023 2251.49C3009.29 2253.15 2995.27 2249.83 2981.55 2251.49C2978.87 2251.82 2978.52 2257.03 2975.83 2257.21C2948.71 2259.05 2920.71 2253.48 2894.34 2260.07C2890.53 2261.02 2886.83 2257.38 2882.91 2257.21C2861.96 2256.3 2840.93 2258.55 2820.01 2257.21C2817.99 2257.08 2817.73 2253.1 2815.72 2252.92C2801.48 2251.63 2787.1 2253.81 2772.83 2252.92C2771.49 2252.84 2770.57 2251.27 2769.97 2250.06C2769.38 2248.88 2811.06 2193.45 2812.86 2187.16C2814.17 2182.58 2812.08 2177.57 2812.86 2172.87C2814.62 2162.29 2826.89 2152.81 2827.15 2141.42C2828.09 2101.4 2828.97 2061.32 2827.15 2021.33C2827.06 2019.33 2820.49 2001.81 2818.58 1999.89C2809.46 2007.19 2811.29 2022.52 2811.43 2034.2C2811.8 2065.65 2812.86 2097.1 2812.86 2128.55C2812.86 2133.24 2808.28 2136.86 2807.14 2141.42C2799.25 2172.97 2792.04 2196 2772.83 2222.9C2769.91 2227 2763.36 2244.29 2757.11 2245.77C2738.75 2250.14 2714.52 2243.97 2698.49 2238.63C2694.33 2237.24 2694.21 2229.54 2689.92 2228.62C2673.6 2225.12 2662.33 2225.84 2647.03 2221.47C2640.71 2219.67 2630.77 2208.57 2625.59 2205.75C2621.32 2203.42 2612.91 2204.88 2608.43 2202.89C2570.46 2186.01 2536.18 2144.16 2518.37 2108.54C2514.26 2100.32 2517.3 2087.01 2515.51 2078.51C2514.33 2072.93 2504.17 2063.33 2504.07 2057.07C2503.61 2028.01 2503.66 1998.93 2504.07 1969.87C2504.29 1954.2 2509.69 1951.5 2515.51 1939.85C2518.92 1933.03 2517.27 1914.98 2518.37 1908.4C2519.47 1901.8 2530.88 1908.76 2532.66 1899.82C2534.7 1889.62 2530.2 1876.26 2535.52 1866.94C2551.48 1839.01 2568.33 1803.38 2594.14 1784.02C2612.27 1770.43 2608.78 1753.89 2634.16 1745.43C2638.97 1743.83 2639.64 1734.15 2644.17 1731.13C2661.06 1719.87 2683.28 1707.23 2698.49 1695.39C2710.61 1685.97 2722.24 1673.51 2735.66 1666.8C2748.1 1660.58 2763.81 1647.56 2777.12 1643.93C2785.26 1641.71 2795.06 1644.57 2801.42 1638.21C2795.72 1632.51 2793.09 1635.59 2785.7 1628.2C2787.9 1623.81 2787.72 1626.23 2784.27 1621.05C2799.02 1606.3 2812.49 1631.87 2832.87 1626.77C2836.14 1625.96 2836.85 1620.78 2840.02 1619.63C2852.08 1615.24 2875.56 1614.1 2888.63 1613.91C2912.45 1613.56 2936.31 1613.85 2960.1 1612.48C2961.45 1612.4 2962.01 1610.57 2962.96 1609.62C2952.44 1599.09 2934.89 1614.42 2924.36 1603.9C2930.5 1597.76 2923.76 1596.36 2921.51 1589.6C2900.01 1589.6 2902.12 1585.89 2898.63 1566.73C2895.42 1549.05 2919.07 1517.12 2911.5 1509.55C2915.79 1505.26 2915.79 1505.26 2920.08 1500.97C2894.54 1475.44 2870.73 1441.56 2837.16 1426.63C2829.94 1423.43 2820.18 1422.63 2812.86 1419.49C2804.16 1415.76 2786.56 1401.61 2775.69 1408.05C2723.79 1438.81 2717.14 1533.8 2727.09 1581.03C2729.15 1590.83 2753.27 1618.57 2748.53 1629.63C2746.86 1633.52 2714.85 1647.43 2708.5 1652.51C2680.95 1674.55 2649.56 1688.99 2621.3 1712.55C2566.66 1758.07 2521.65 1818.49 2501.21 1879.81C2499.74 1884.23 2492.64 1888.38 2491.21 1892.67C2483.44 1915.96 2483.16 1938.63 2478.34 1962.72C2477.81 1965.36 2472.78 1965.75 2472.62 1968.44C2470.72 2001.32 2467.09 2036.13 2478.34 2067.08C2482.25 2077.84 2477.12 2090.25 2479.77 2101.39C2483.71 2117.95 2499.49 2135.82 2509.79 2149.99C2524.66 2170.43 2537.49 2197.07 2562.69 2211.46C2572.33 2216.97 2581.25 2224.32 2591.28 2230.05C2594.61 2231.95 2599.52 2229.35 2602.71 2231.48C2623.9 2245.61 2642.49 2256.04 2668.47 2258.64C2672.12 2259 2674.68 2265.06 2677.05 2265.79C2688.41 2269.28 2697.14 2268.01 2708.5 2271.51C2711.08 2272.3 2711.59 2276.64 2714.22 2277.22C2718.31 2278.13 2739 2275.87 2745.67 2278.65C2769.71 2288.67 2810.08 2292.29 2835.73 2292.95C2871.94 2293.88 2908.18 2292.02 2944.38 2292.95C2945.73 2292.98 2947.21 2294.46 2947.24 2295.81C2948.17 2335.35 2946.31 2374.92 2947.24 2414.46C2947.33 2418.25 2952.58 2428.39 2955.82 2431.62Z" fill="#222222" fill-rule="nonzero" opacity="1" stroke="none"/>
<path d="M4954.34 2207.18C4966.31 2195.21 4990.41 2221.86 5001.52 2224.33C5034.89 2231.75 5080.42 2231.49 5114.46 2224.33C5124.78 2222.16 5136.05 2212.81 5145.91 2207.18C5237.21 2155 5180.01 2040.21 5104.45 1997.03C5073.12 1979.13 5050.02 1980.54 5010.1 1977.02C5006.78 1976.72 4995.66 1968.53 4991.51 1971.3C4980.47 1978.66 4931.32 2029.76 4915.75 2014.18C4925.23 2004.7 4975.42 1984.25 4977.22 1969.87C4984.41 1912.33 4967.22 1874.5 4921.46 1848.36C4915.65 1845.03 4905.3 1835.77 4898.59 1835.49C4856.91 1833.75 4823.17 1835.04 4787.09 1844.07C4745.5 1854.46 4697.1 1902.94 4682.73 1941.28C4678.05 1953.76 4686.91 1990.43 4677.01 1997.03C4641.3 2020.83 4601.71 2042.15 4568.36 2069.94C4560.36 2076.61 4531.99 2086.31 4535.48 2098.53C4536.07 2100.59 4589.7 2118.98 4592.66 2119.97C4654.73 2140.66 4711.39 2171.05 4772.79 2188.59C4775.36 2189.33 4778.27 2237.03 4781.37 2248.63C4793.69 2294.86 4817.1 2363.2 4871.43 2378.72C4918.04 2392.04 4983.31 2382.37 5017.25 2350.13C5028.83 2339.12 5042.1 2331.73 5042.98 2317.25C5043.87 2302.51 5043.41 2287.7 5042.98 2272.94C5042.93 2271.43 5042.42 2269.87 5041.55 2268.65C5018.65 2236.59 4983.66 2230.63 4954.34 2207.18Z" fill="#d4e8af" fill-rule="nonzero" opacity="1" stroke="none"/>
<path d="M3251.73 2184.3C3251.02 2182.87 3251.02 2182.87 3250.31 2181.44C3252.45 2179.3 3252.45 2179.3 3254.59 2177.15C3242.11 2164.67 3219.26 2176.1 3201.7 2174.3C3199.02 2174.02 3198.63 2169.11 3195.98 2168.58C3186.99 2166.78 3177.92 2165.38 3168.82 2164.29C3158.41 2163.04 3147.82 2165.16 3137.37 2164.29C3134.48 2164.05 3133.75 2157.66 3131.65 2157.14C3109.58 2151.62 3102.01 2149.09 3083.05 2138.56C3071.95 2132.39 3050.81 2130.49 3045.88 2115.68C3033.38 2115.68 3010.13 2087.08 3002.99 2079.94C2981.91 2058.87 2958.35 2022.12 2945.81 1997.03C2943.24 1991.9 2946.39 1985.25 2944.38 1979.88C2943.59 1977.77 2937.42 1971.47 2937.23 1969.87C2935.98 1959.46 2938.82 1948.78 2937.23 1938.42C2936.82 1935.75 2931.66 1935.39 2931.51 1932.7C2929.72 1900.82 2930.15 1868.82 2931.51 1836.92C2931.8 1830.12 2933.39 1815.8 2942.95 1812.62C2942.95 1764.86 2995.28 1704.18 3023 1665.37C3032.24 1652.44 3021.63 1622.43 3031.58 1612.48C3022.84 1603.74 2973.67 1609.09 2960.1 1609.62C2936.77 1610.53 2913.4 1609.28 2890.06 1609.62C2855.51 1610.11 2856.76 1617.33 2830.01 1626.77C2819.37 1630.53 2817.92 1623.53 2808.57 1628.2C2801.75 1631.61 2796.13 1639.81 2788.56 1641.07C2777.12 1642.98 2770.97 1642.53 2761.39 1646.79C2738.53 1656.95 2715.65 1676.97 2695.63 1692.53C2679.33 1705.22 2649.67 1713.8 2638.45 1733.99C2633.31 1743.24 2654.4 1751.04 2659.9 1755.43C2683.8 1774.56 2709.56 1795.64 2728.51 1819.76C2749.37 1846.31 2761.6 1875.52 2777.12 1902.68C2781.3 1910 2792.05 1920.24 2794.27 1928.41C2797.18 1939.06 2797.64 1950.9 2801.42 1961.29C2803.3 1966.46 2809.82 1971.66 2811.43 1977.02C2828.99 2035.56 2829.06 2105.67 2815.72 2165.72C2810.99 2187 2795.47 2204.78 2785.7 2224.33C2781.57 2232.58 2763.71 2242.71 2767.11 2252.92C2771.94 2267.42 2797.64 2254.4 2812.86 2255.78C2814.87 2255.96 2815.13 2259.95 2817.15 2260.07C2839.03 2261.41 2861.01 2259.16 2882.91 2260.07C2930.6 2262.06 3017.27 2263.89 3064.46 2242.91C3074.05 2238.65 3085.62 2243.54 3095.91 2241.49C3100.88 2240.49 3102.37 2232.38 3107.35 2231.48C3130.07 2227.35 3140.73 2228.37 3160.24 2218.61C3171.78 2212.84 3186.72 2214.49 3198.84 2211.46C3213.08 2207.9 3223.58 2196.93 3236.01 2190.02C3241.77 2186.82 3246.5 2189.54 3251.73 2184.3Z" fill="#eff0ef" fill-rule="nonzero" opacity="1" stroke="none"/>
<path d="M2638.45 1731.13C2627.76 1741.82 2609.94 1771.13 2592.71 1776.88C2592.71 1784.4 2550.52 1828.36 2545.53 1838.35C2538.68 1852.05 2531.5 1869.92 2528.38 1885.52C2527.58 1889.51 2531.64 1895.24 2529.81 1899.82C2527.45 1905.7 2516.62 1899.77 2515.51 1906.97C2514.94 1910.65 2515.85 1932.19 2512.65 1936.99C2504.64 1949 2502.87 1951.85 2502.64 1968.44C2502.24 1997.98 2501.21 2027.52 2501.21 2057.07C2501.21 2060.91 2506.13 2063.32 2506.93 2067.08C2511.26 2087.26 2514.62 2135.88 2539.81 2144.27C2539.81 2157.61 2571.39 2181.19 2579.84 2188.59C2585.58 2193.62 2598.59 2203.21 2605.57 2205.75C2610.35 2207.48 2618.31 2205.66 2622.73 2208.61C2649.08 2226.17 2677.52 2231.63 2707.07 2241.49C2717.8 2245.06 2748.09 2256.11 2759.97 2247.2C2767.65 2241.44 2770.92 2229.58 2775.69 2222.9C2794.06 2197.18 2813.85 2162.25 2814.29 2129.98C2814.72 2098.53 2815.72 2067.08 2815.72 2035.63C2815.72 2024.15 2810.46 2009.43 2818.58 2001.32C2814.16 1992.49 2816.65 1983.6 2814.29 1974.16C2813.27 1970.09 2805.64 1965.02 2804.28 1961.29C2800.57 1951.08 2800.29 1938.92 2797.13 1928.41C2794.78 1920.55 2784.12 1909.93 2779.98 1902.68C2768.96 1883.4 2755.64 1859.71 2747.1 1838.35C2743.69 1829.83 2719.67 1808.68 2715.65 1804.04C2692.7 1777.56 2661.62 1754.3 2638.45 1731.13Z" fill="#eedfc0" fill-rule="nonzero" opacity="1" stroke="none"/>
<path d="M3611.98 2192.88C3604.62 2200.24 3593.78 2191.26 3584.82 2195.74C3561.02 2207.64 3539.37 2221.18 3519.06 2241.49C3457.3 2303.25 3492.43 2397.83 3553.37 2447.34C3560.05 2452.76 3573.93 2464.84 3581.96 2467.36C3588.48 2469.39 3597.15 2466.82 3601.98 2471.64C3610.62 2467.33 3595.83 2473.65 3610.56 2474.5C3633.39 2475.82 3656.37 2476.26 3679.17 2474.5C3681.86 2474.3 3682.32 2469.58 3684.89 2468.79C3701.89 2463.56 3693.24 2474 3709.19 2467.36C3730.73 2458.38 3759.13 2439.1 3774.95 2418.75C3779.37 2413.08 3778.58 2405.73 3780.67 2398.74C3781.74 2395.17 3788.75 2395.28 3789.25 2391.59C3795.35 2346.87 3784.18 2298.87 3749.22 2270.08C3737.66 2260.55 3718.07 2259.45 3706.34 2250.06C3675.02 2225.01 3664.23 2201.35 3611.98 2192.88Z" fill="#222222" fill-rule="nonzero" opacity="1" stroke="none"/>
<path d="M4516.9 1576.74C4500.54 1593.09 4506.57 1615.6 4502.6 1636.78C4495.13 1676.66 4459.94 1722.64 4428.27 1751.14C4418.22 1760.18 4402.48 1764.66 4391.1 1771.16C4359.66 1789.12 4329.14 1809.52 4293.89 1818.33C4281.02 1821.55 4243.8 1818.43 4238.13 1829.77C4250.6 1842.23 4282.39 1849.61 4288.17 1866.94C4297.99 1866.94 4303.32 1879.45 4311.04 1885.52C4333.43 1903.12 4356.57 1919.54 4373.94 1942.71C4377.11 1946.93 4382.73 1959.17 4391.1 1954.14C4413.2 1940.88 4431.64 1914.54 4446.85 1895.53C4464.34 1873.66 4486.32 1850.57 4492.6 1825.48C4494.19 1819.11 4504.1 1811.6 4505.46 1805.47C4511.64 1777.67 4514.37 1747.63 4526.91 1722.55C4534.79 1706.78 4526.2 1687.28 4526.91 1669.66C4527.78 1647.74 4530.72 1625.82 4529.76 1603.9C4529.28 1592.79 4527.12 1581.85 4516.9 1576.74Z" fill="#eff0ef" fill-rule="nonzero" opacity="1" stroke="none"/>
<path d="M3341.8 2833.32C3335.65 2839.47 3338.52 2850.42 3337.51 2859.06C3336.84 2864.76 3321.96 2867.46 3318.92 2870.49C3322.5 2874.07 3322.5 2874.07 3326.07 2877.64C3324.64 2879.07 3324.64 2879.07 3323.21 2880.5C3345.22 2902.51 3336.87 2917.57 3344.66 2944.83C3349.01 2960.05 3368.8 2977.97 3378.97 2989.15C3418.26 3032.36 3538.14 3015.82 3591.97 3014.88C3603.59 3014.67 3612.8 3011.82 3621.99 3007.73C3647.66 2996.32 3653.74 2965.97 3670.6 2949.12C3663.94 2942.47 3658.13 2934.82 3652.01 2927.68C3647 2932.69 3650 2929.48 3643.44 2937.68C3628.11 2930.02 3600.7 2934.61 3587.68 2933.39C3579.95 2932.67 3564.74 2922.93 3557.66 2921.96C3520.26 2916.8 3512.7 2920.87 3473.32 2916.24C3470.64 2915.92 3470.25 2911.03 3467.6 2910.52C3459.64 2909 3451.2 2912.32 3443.3 2910.52C3440.01 2909.77 3439.49 2903.78 3436.15 2903.37C3419.12 2901.3 3401.75 2905.08 3384.68 2903.37C3382 2903.1 3381.54 2898.45 3378.97 2897.65C3374.87 2896.39 3370.32 2898.42 3366.1 2897.65C3359.22 2896.4 3365.25 2887.68 3364.67 2884.79C3359.96 2861.24 3361.81 2823.9 3361.81 2797.59C3361.81 2788.71 3371.74 2761.09 3361.81 2756.13C3354.23 2752.34 3356.09 2767.45 3356.09 2770.42C3356.09 2799.01 3357.45 2827.64 3356.09 2856.2C3355.99 2858.41 3351.54 2861.78 3348.95 2860.49C3341 2856.51 3348.6 2840.13 3341.8 2833.32Z" fill="#000000" fill-rule="nonzero" opacity="1" stroke="none"/>
<path d="M3145.95 1658.22C3147.38 1658.94 3147.38 1658.94 3148.81 1659.65C3160.97 1647.49 3150.8 1620.49 3163.1 1608.19C3164.53 1608.9 3164.53 1608.9 3165.96 1609.62C3171.91 1603.67 3178.42 1577.85 3180.26 1569.59C3181.25 1565.11 3190.59 1556.86 3193.12 1552.44C3205.56 1530.67 3226.49 1500.95 3234.58 1476.67C3237.07 1469.2 3253.86 1439.49 3238.87 1435.21C3229.19 1432.45 3211.72 1451.65 3203.13 1453.8C3169.16 1462.29 3115.94 1518.11 3091.62 1542.43C3068.47 1565.58 3056.09 1601.77 3047.31 1631.06C3046.26 1634.56 3037.91 1640.75 3037.3 1643.93C3034.12 1660.63 3031.24 1698.41 3037.3 1712.55C3051.21 1745.01 3100.33 1741.49 3124.5 1731.13C3144 1722.78 3134.18 1669.99 3145.95 1658.22Z" fill="#eedfc0" fill-rule="nonzero" opacity="1" stroke="none"/>
<path d="M3311.78 2909.09C3303.25 2900.56 3293.77 2884.21 3281.76 2896.22C3264.38 2878.85 3235.39 2866.64 3217.43 2850.48C3185.96 2822.16 3151.53 2800.18 3118.79 2774.71C3104.39 2763.52 3058 2743.52 3050.17 2728.97C3044.87 2719.14 3058.12 2714.6 3061.6 2708.95C3064.61 2704.06 3062.23 2692.29 3064.46 2687.51C3065.97 2684.28 3085.02 2654.29 3084.48 2653.2C3083.25 2650.75 3076.82 2647.44 3075.9 2646.05C3072.31 2640.68 3080.29 2642.53 3073.04 2638.9C3061.11 2632.94 3055 2669.25 3053.03 2673.21C3049.48 2680.3 3042.58 2683.95 3038.73 2690.37C3036.47 2694.14 3037.6 2700.77 3035.87 2704.66C3034.09 2708.68 3027.83 2709.31 3025.86 2713.24C3016.59 2731.78 3014.35 2763.56 3015.86 2784.72C3017.14 2802.69 3055.11 2832.13 3067.32 2843.33C3121.45 2892.95 3245.58 2975.29 3311.78 2909.09Z" fill="#000000" fill-rule="nonzero" opacity="1" stroke="none"/>
<path d="M4671.29 1932.7C4671.29 1947.44 4669.33 1975.08 4668.43 1985.59C4667.56 1995.72 4641.9 2003.41 4635.55 2007.04C4604.88 2024.56 4582.67 2051.96 4551.21 2069.94C4541.41 2075.54 4519.93 2085.37 4514.04 2095.67C4512.25 2098.8 4565.07 2127.65 4568.36 2128.55C4584.76 2133.02 4599.87 2133.51 4614.11 2141.42C4621.12 2145.31 4628.08 2152.15 4635.55 2154.28C4640.13 2155.59 4645.33 2152.77 4649.85 2154.28C4663.47 2158.82 4675.98 2172.88 4689.88 2177.15C4700.15 2180.32 4708.6 2179.29 4718.47 2182.87C4730.51 2187.25 4741.09 2196.78 4752.78 2201.46C4756.42 2202.92 4761.43 2201.54 4764.21 2204.32C4769.48 2199.05 4771.6 2195.5 4777.08 2190.02C4765.67 2178.61 4751.17 2179.34 4737.05 2174.3C4729.46 2171.58 4721.85 2164.22 4714.18 2161.43C4689.47 2152.44 4663.34 2147.45 4639.84 2135.7C4627.84 2129.7 4586.1 2120.28 4582.66 2109.97C4578.62 2109.97 4533.43 2102.42 4538.34 2094.24C4550.67 2073.69 4605.07 2049.96 4625.54 2035.63C4634.13 2029.62 4641.02 2018.29 4651.28 2014.18C4659.49 2010.9 4680.29 2002 4685.59 1992.74C4687.88 1988.73 4680.63 1976.64 4681.3 1971.3C4682.95 1958.09 4686.96 1942.97 4689.88 1929.84C4691.6 1922.1 4711.19 1903.35 4714.18 1899.82C4739.18 1870.27 4777.85 1844.98 4814.25 1839.78C4880.2 1830.36 4946.69 1841.36 4972.93 1906.97C4980.36 1925.56 4975.72 1947.04 4974.36 1967.01C4973.85 1974.44 4965.33 1978.9 4960.06 1984.16C4956.53 1987.7 4896.1 2014.44 4914.32 2019.9C4931.41 2025.03 4961.55 2002.71 4974.36 1994.17C4980.44 1990.11 4985.53 1977.15 4991.51 1974.16C4996.55 1971.64 5006.03 1979.63 5010.1 1979.88C5042.72 1981.85 5057.53 1979.96 5083.01 1988.45C5131.07 2004.47 5203.59 2089.38 5190.22 2142.85C5188.87 2148.24 5183.31 2153.58 5181.64 2158.57C5177.49 2171.05 5179.73 2180.29 5168.78 2190.02C5145.95 2210.32 5121.3 2217.12 5093.01 2221.47C5088.67 2222.14 5079.18 2229.67 5075.86 2230.05C5060.21 2231.84 5039.82 2221.77 5028.68 2232.91C5033.11 2237.34 5041.28 2233.9 5047.27 2235.77C5050.48 2236.77 5051.06 2242.55 5054.41 2242.91C5073.84 2245.03 5093.57 2244.64 5113.03 2242.91C5119.66 2242.32 5135.27 2233.22 5141.62 2230.05C5202.42 2199.65 5209.03 2168.43 5203.09 2097.1C5202.74 2092.97 5197.08 2091.07 5195.94 2087.09C5189.65 2065.09 5180.39 2055.53 5165.92 2035.63C5122.05 1975.3 5066.26 1967.48 4997.23 1962.72C4995.89 1962.63 4994.46 1961.21 4994.37 1959.86C4993.48 1945.59 4996.04 1931.17 4994.37 1916.97C4993.67 1910.99 4989.84 1905.73 4988.65 1899.82C4983.6 1874.57 4937.49 1839.09 4915.75 1829.77C4866.83 1808.8 4762.82 1828.3 4722.76 1868.37C4710.13 1881 4697.35 1892.2 4687.02 1906.97C4681.5 1914.84 4681.71 1929.23 4671.29 1932.7Z" fill="#453f38" fill-rule="nonzero" opacity="1" stroke="none"/>
<path d="M3080.19 2657.49C3075.81 2661.87 3045.55 2723.02 3047.31 2731.83C3048.82 2739.39 3092.31 2759.53 3098.77 2764.71C3148.7 2804.65 3201.54 2840.63 3253.16 2881.93C3260.92 2888.14 3274.67 2892 3281.76 2899.08C3286.4 2894.43 3289.14 2898.22 3294.62 2894.8C3301.77 2890.33 3306.68 2882.98 3313.21 2877.64C3319.56 2872.44 3334.65 2873.12 3334.65 2861.92C3334.65 2851.9 3333.66 2841.9 3333.22 2831.89C3333.01 2826.99 3336.42 2822.91 3334.65 2817.6C3332.28 2810.49 3276.48 2795.34 3267.46 2791.87C3250.27 2785.25 3240.55 2772.86 3224.57 2763.28C3200.42 2748.78 3170.68 2732.17 3148.81 2714.67C3127.03 2697.25 3105.54 2670.16 3080.19 2657.49Z" fill="#eff0ef" fill-rule="nonzero" opacity="1" stroke="none"/>
<path d="M3947.93 2884.79C3953.39 2888.43 3951.5 2941.25 3967.95 2957.7C3983.64 2973.39 4019.09 2956.93 4020.84 2937.68C4021.7 2928.19 4021.7 2918.58 4020.84 2909.09C4020 2899.9 3996.37 2892.11 4006.54 2881.93C4042.04 2899.68 4010.59 2919.31 4058.01 2913.38C4060.37 2913.08 4083.69 2916.42 4086.6 2906.23C4090.26 2893.42 4079.16 2877.93 4089.46 2867.63C4097.43 2875.6 4092.67 2906.75 4100.9 2919.1C4114.58 2939.62 4154.5 2932.35 4158.08 2909.09C4161.97 2883.79 4130.27 2857.47 4115.19 2839.04C4110.44 2833.23 4104.47 2818.31 4096.61 2817.6C4082.7 2816.33 4071.45 2822.17 4059.44 2826.18C4052.64 2828.44 4044.68 2825.03 4037.99 2827.61C4010.42 2838.21 3980.23 2847.58 3952.22 2856.2C3937.18 2860.82 3920.53 2854.86 3905.05 2857.63C3902.39 2858.1 3901.98 2862.88 3899.33 2863.35C3890.41 2864.9 3881.09 2861.79 3872.17 2863.35C3869.51 2863.81 3869.1 2868.6 3866.45 2869.06C3856.02 2870.88 3838.34 2863.31 3835 2873.35C3831.87 2882.74 3850.53 2886.84 3855.01 2889.08C3880.48 2901.81 3903.32 2907.19 3932.21 2913.38C3936.09 2914.21 3933.47 2918.15 3937.93 2916.24C3953.83 2909.42 3937.59 2895.13 3947.93 2884.79Z" fill="#eedfc0" fill-rule="nonzero" opacity="1" stroke="none"/>
<path d="M3404.7 2032.77C3422.05 2015.42 3429.69 2022.02 3453.3 2017.04C3463.07 2014.99 3479.26 2007.74 3489.04 2004.18C3495.54 2001.81 3503.86 1990.06 3511.92 1992.74C3515.01 1993.77 3515.37 1999.06 3517.63 2001.32C3519.78 1999.17 3519.78 1999.17 3521.92 1997.03C3523.35 1997.74 3523.35 1997.74 3524.78 1998.46C3531.41 1991.83 3522.7 1983.18 3533.36 1978.45C3544.68 1973.41 3536.38 1983.17 3546.22 1977.02C3602.92 1941.58 3653.55 1887.17 3694.9 1835.49C3707.6 1819.61 3741.56 1745.6 3754.94 1741.14C3754.94 1729.11 3752.58 1733.49 3759.23 1726.84C3776.28 1735.37 3797.35 1727.74 3816.41 1728.27C3828.84 1728.62 3881.55 1739.9 3875.02 1726.84C3890.81 1711.06 3919.7 1732.21 3935.07 1716.84C3934.11 1715.88 3933.55 1714.02 3932.21 1713.98C3906.49 1713.06 3880.73 1714.89 3855.01 1713.98C3853.66 1713.93 3853.5 1711.16 3852.15 1711.12C3825.48 1710.2 3798.75 1712.47 3772.1 1711.12C3765.28 1710.77 3766.91 1697.87 3767.81 1691.1C3769.84 1675.83 3781.24 1644.49 3767.81 1631.06C3766.38 1632.49 3766.38 1632.49 3764.95 1633.92C3757.61 1626.58 3750.21 1640.14 3747.79 1646.79C3744.69 1655.31 3747.74 1664.99 3746.36 1673.95C3743.92 1689.82 3733.22 1715.9 3726.35 1728.27C3692.69 1788.87 3653.06 1845.85 3597.69 1896.96C3546.14 1944.54 3480.09 1979.61 3416.13 1995.6C3399.93 1999.65 3382.81 1998.46 3366.1 1998.46C3362.85 1998.46 3287.55 1965.77 3298.91 1994.17C3303.29 2005.13 3323.04 2005.09 3330.36 2008.47C3341.43 2013.57 3353.65 2021.86 3366.1 2024.19C3387.52 2028.21 3387.62 2021.39 3404.7 2032.77Z" fill="#000000" fill-rule="nonzero" opacity="1" stroke="none"/>
<path d="M2978.69 2450.2C2977.51 2451.38 2965.42 2462.83 2964.39 2465.93C2959.99 2479.13 2976.01 2493.9 2978.69 2505.95C2985.65 2537.26 3015.13 2577.24 3035.87 2603.16C3045.33 2614.99 3054.61 2638.27 3067.32 2644.62C3068.75 2643.19 3068.75 2643.19 3070.18 2641.76C3074.48 2646.06 3082.98 2653.33 3080.19 2658.92C3104.4 2683.13 3133.02 2703.9 3158.81 2723.25C3178.45 2737.98 3195.09 2756.89 3217.43 2763.28C3229.58 2766.75 3237.82 2783.83 3250.31 2787.58C3261.72 2791 3268.63 2794.58 3278.9 2800.44C3283.88 2803.29 3290.92 2799.31 3296.05 2801.87C3300.27 2803.98 3301.9 2809.64 3306.06 2811.88C3314.62 2816.49 3325.1 2807.32 3331.79 2819.03C3336.73 2827.68 3321.38 2880.91 3341.8 2860.49C3343.94 2862.63 3343.94 2862.63 3346.09 2864.77C3348.23 2863.35 3348.23 2863.35 3350.37 2861.92C3357.55 2869.09 3348.92 2879.04 3356.09 2886.22C3357.05 2885.27 3358.92 2884.71 3358.95 2883.36C3359.88 2845.73 3358.95 2808.07 3358.95 2770.42C3358.95 2761.19 3360.6 2764.27 3364.67 2756.13C3367.75 2749.98 3363.24 2732.91 3363.24 2727.54C3363.24 2693.7 3363.24 2659.87 3363.24 2626.04C3363.24 2617.2 3368.67 2614.42 3357.52 2607.45C3353.25 2604.79 3346.25 2612.73 3346.09 2614.6C3343.92 2638.81 3347 2663.22 3346.09 2687.51C3345.93 2691.76 3339.94 2699.24 3338.94 2703.23C3332.92 2727.29 3336.08 2752.77 3336.08 2777.57C3336.08 2779.54 3337.83 2781.35 3337.51 2783.29C3336.92 2786.81 3330.88 2787.12 3328.93 2786.15C3311.44 2777.4 3292.72 2774.18 3274.61 2766.13C3256.34 2758.02 3244.02 2742.26 3226 2733.25C3165.89 2703.2 3095.86 2645.87 3055.88 2587.44C3041.82 2566.88 3022.47 2538.66 3014.43 2514.53C3012.68 2509.29 3004.83 2507.19 3002.99 2501.67C2999.1 2489.99 2990.49 2478.65 2987.27 2467.36C2985.67 2461.78 2988.51 2454.3 2984.41 2450.2C2982.98 2451.63 2982.98 2451.63 2981.55 2453.06C2980.12 2451.63 2980.12 2451.63 2978.69 2450.2Z" fill="#222222" fill-rule="nonzero" opacity="1" stroke="none"/>
<path d="M3536.22 1702.54C3546.68 1723.47 3583.08 1721.93 3596.26 1748.29C3604.8 1765.38 3583.93 1778.19 3570.53 1781.17C3540.49 1787.84 3513.23 1783.64 3486.18 1776.88C3485.37 1776.68 3466.4 1773.33 3464.74 1778.31C3459.6 1793.72 3517.48 1812.5 3500.48 1831.2C3481 1852.63 3435.38 1858.52 3407.56 1846.93C3400.43 1843.96 3383.97 1822.26 3374.68 1826.91C3361.54 1833.48 3377.2 1853.74 3383.25 1859.79C3379.99 1864.14 3380.53 1870.31 3378.97 1875.52C3375.31 1887.72 3342.34 1904.95 3330.36 1896.96C3323.3 1892.25 3322.16 1886.63 3318.92 1881.24C3316.84 1877.77 3311.17 1876.62 3310.35 1872.66C3307.51 1858.93 3318.8 1842.15 3304.63 1834.06C3292.41 1827.08 3295.36 1855.44 3296.05 1876.95C3296.64 1895.18 3317.95 1912.42 3333.22 1914.12C3357.58 1916.82 3384.74 1904.46 3394.69 1881.24C3397.08 1875.66 3395.59 1868.3 3398.98 1862.65C3403.18 1855.65 3421.93 1861.3 3426.14 1865.51C3436.15 1860.5 3452.26 1872.46 3463.31 1866.94C3472.63 1862.28 3483.65 1864.63 3493.33 1859.79C3506.37 1853.27 3510.21 1841.49 3519.06 1832.63C3515.72 1825.95 3513.86 1803.54 3520.49 1799.75C3523.2 1798.2 3536.88 1801.18 3540.51 1801.18C3569.29 1801.18 3600.57 1796.84 3613.41 1766.87C3626.38 1736.61 3552.1 1686.66 3536.22 1702.54Z" fill="#000000" fill-rule="nonzero" opacity="1" stroke="none"/>
<path d="M3018.72 1439.5C2975.79 1440.43 2930.95 1499.23 2912.93 1535.28C2909.47 1542.2 2890.75 1585.9 2902.92 1586.75C2921.94 1588.07 2941.05 1587.2 2960.1 1586.75C2966.95 1586.58 2979.85 1587.24 2985.84 1586.75C2993.18 1586.13 2994.56 1526.25 2998.7 1513.84C3003.74 1498.74 3034.11 1439.17 3018.72 1439.5Z" fill="#eedfc0" fill-rule="nonzero" opacity="1" stroke="none"/>
<path d="M3327.5 1573.88C3324.72 1576.66 3326.4 1581.8 3324.64 1585.32C3321.91 1590.77 3316.4 1594.41 3313.21 1599.61C3311.52 1602.35 3318.92 1653.86 3318.92 1659.65C3318.92 1667.49 3315.64 1677.98 3317.49 1685.39C3320.08 1695.72 3331.03 1691.86 3336.08 1686.81C3335.36 1685.39 3335.36 1685.39 3334.65 1683.96C3354.4 1664.21 3373.24 1637.74 3396.12 1622.48C3403.34 1617.67 3417.3 1615.6 3423.28 1609.62C3422.57 1608.19 3422.57 1608.19 3421.85 1606.76C3428.77 1599.84 3443.41 1599.03 3453.3 1595.32C3460.45 1592.64 3467.86 1582.37 3476.18 1579.6C3494.9 1573.36 3513.33 1564.9 3531.93 1559.58C3542.85 1556.46 3574.51 1554.48 3580.53 1542.43C3585.14 1533.21 3566.06 1530.19 3547.65 1530.99C3537.12 1531.45 3529.67 1541.11 3520.49 1543.86C3498.26 1550.53 3474.78 1553.85 3454.73 1563.87C3429.2 1576.64 3397.56 1593.17 3376.11 1611.05C3376.08 1611.07 3338.85 1651.79 3337.51 1641.07C3334.9 1620.18 3343.45 1589.83 3327.5 1573.88Z" fill="#000000" fill-rule="nonzero" opacity="1" stroke="none"/>
<path d="M3989.39 1748.29C4001.45 1760.35 4038.23 1768.04 4055.15 1769.73C4061.56 1770.37 4068.07 1779.42 4073.73 1781.17C4078.74 1782.71 4084.77 1778.82 4089.46 1781.17C4094.7 1783.79 4091.54 1789.32 4098.04 1791.17C4111.97 1795.15 4125.37 1795.5 4139.49 1798.32C4147.16 1799.85 4155.17 1815.68 4163.8 1818.33C4179.42 1823.14 4210.21 1828.91 4216.69 1848.36C4235.28 1848.36 4233.34 1855.22 4248.14 1835.49C4236.56 1823.9 4235.74 1819.3 4245.28 1809.76C4236.83 1801.31 4221.36 1808.65 4209.54 1806.9C4207 1806.52 4197.66 1796.53 4195.25 1795.46C4184.77 1790.81 4173.09 1785.46 4162.37 1781.17C4144.25 1773.92 4117.63 1757.72 4100.9 1754C4082.42 1749.9 4067.52 1750.75 4049.43 1745.43C4045.22 1744.19 4043.82 1736.85 4039.42 1736.85C4026.55 1736.85 4013.54 1736.23 4000.83 1738.28C3995.82 1739.09 3993.44 1745.25 3989.39 1748.29Z" fill="#000000" fill-rule="nonzero" opacity="1" stroke="none"/>
<path d="M3227.43 1429.49C3221.05 1435.88 3189.21 1447.97 3178.83 1450.94C3174.6 1452.14 3173.62 1458.13 3170.25 1460.94C3148.38 1479.17 3120.42 1492.19 3097.34 1515.27C3084.49 1528.12 3061.96 1547.15 3055.88 1563.87C3054.21 1568.47 3049.47 1590.16 3041.59 1591.03C3029.75 1592.35 3017.49 1588.49 3005.85 1591.03C3001.24 1592.04 3000.52 1600.45 2995.84 1601.04C2973.15 1603.93 2950.1 1601.04 2927.22 1601.04C2921.36 1601.04 2917.29 1599.54 2912.93 1603.9C2923.04 1614.01 3003.61 1609.71 3023 1612.48C3030.73 1613.58 3032.44 1666.23 3037.3 1671.09C3043.4 1664.99 3038.47 1653.82 3040.16 1645.36C3041.15 1640.39 3049.03 1638.86 3050.17 1633.92C3051.13 1629.74 3049.4 1625.27 3050.17 1621.05C3053.71 1601.55 3092.86 1540.58 3110.21 1526.7C3130.01 1510.86 3161.82 1474.89 3185.97 1465.23C3200.72 1459.33 3229.26 1447.68 3240.3 1436.64C3235.9 1430.04 3232.59 1434.65 3227.43 1429.49Z" fill="#453f38" fill-rule="nonzero" opacity="1" stroke="none"/>
<path d="M4775.65 2188.59C4754.88 2209.36 4769.13 2230.67 4769.93 2257.21C4770.13 2263.9 4770.13 2270.65 4771.36 2277.22C4772.05 2280.88 4777.53 2282.21 4778.51 2285.8C4791.24 2332.5 4815.34 2380.66 4870 2391.59C4887.34 2395.06 4928.26 2410.53 4944.34 2394.45C4942.91 2393.02 4942.91 2393.02 4941.48 2391.59C4942.19 2390.16 4942.19 2390.16 4942.91 2388.73C4929.89 2375.71 4906.96 2379.84 4888.58 2378.72C4870.88 2377.65 4837.51 2358.11 4825.68 2341.55C4813.12 2323.97 4804.56 2307.34 4798.52 2287.23C4797.19 2282.78 4790.27 2276.65 4789.94 2271.51C4789.53 2264.85 4791.39 2258 4789.94 2251.49C4789.36 2248.86 4784.64 2248.44 4784.23 2245.77C4782.81 2236.55 4784.51 2197.45 4775.65 2188.59Z" fill="#222222" fill-rule="nonzero" opacity="1" stroke="none"/>
<path d="M4951.49 2205.75C4957.23 2212.06 4967.95 2225.42 4977.22 2230.05C4998.99 2240.94 5018.96 2243.37 5032.97 2265.79C5034.76 2268.65 5039.65 2269.6 5040.12 2272.94C5042.15 2287.57 5041.01 2302.51 5040.12 2317.25C5039.94 2320.26 5038.45 2323.06 5037.26 2325.83C5030.88 2340.72 5013.94 2346.29 5004.38 2355.85C5010.84 2362.31 5011.9 2359.09 5021.53 2368.72C5062.42 2348.27 5061.16 2316.02 5060.13 2268.65C5059.92 2258.73 5043.21 2251.26 5054.41 2240.06C5052.98 2238.63 5052.98 2238.63 5051.55 2237.2C5059.55 2225.21 5074.83 2239.65 5084.43 2230.05C5070.22 2215.83 5044.47 2225.33 5024.39 2224.33C5017.19 2223.97 5009.97 2223.12 5002.95 2221.47C4990.31 2218.5 4966.11 2191.12 4951.49 2205.75Z" fill="#222222" fill-rule="nonzero" opacity="1" stroke="none"/>
<path d="M3318.92 2095.67C3323.47 2091.13 3327.25 2087.35 3331.79 2082.8C3327.36 2078.38 3319.6 2074.81 3317.49 2068.51C3312.09 2052.29 3329.52 2033.36 3313.21 2017.04C3297.79 2024.75 3310.61 2040.64 3306.06 2052.78C3298.45 2073.07 3273.12 2093.79 3250.31 2088.52C3244.98 2087.29 3247.54 2081.18 3246.02 2078.51C3232.25 2054.42 3242.51 2040.3 3247.45 2015.61C3248.87 2008.51 3252.96 1986.66 3237.44 1991.31C3228.09 1994.12 3233.23 2002.42 3231.72 2008.47C3224.3 2038.13 3209.1 2078.02 3237.44 2102.82C3246.07 2110.37 3271.62 2112.27 3280.33 2108.54C3294 2102.67 3304.15 2073.51 3318.92 2095.67Z" fill="#000000" fill-rule="nonzero" opacity="1" stroke="none"/>
<path d="M3790.68 2877.64C3798.12 2885.08 3811.65 2879.55 3822.13 2880.5C3829.4 2881.16 3845.84 2894.44 3853.58 2899.08C3867.62 2907.51 3850.74 2935.8 3857.87 2947.69C3876.36 2978.5 3929.36 2937.67 3943.64 2923.39C3934.14 2904.38 3928.24 2919.79 3912.19 2909.09C3900.41 2901.24 3887.64 2903.96 3875.02 2897.65C3861.68 2890.98 3841.03 2874.04 3830.71 2874.78C3817.37 2875.73 3800.14 2868.18 3790.68 2877.64Z" fill="#6e685e" fill-rule="nonzero" opacity="1" stroke="none"/>
<path d="M2908.64 1508.12C2916.9 1519.14 2892.76 1547.14 2895.77 1566.73C2896.73 1572.93 2894.2 1580.88 2898.63 1585.32C2906.72 1577.23 2911.18 1546.81 2915.79 1535.28C2926.4 1508.74 2960.28 1478.59 2982.98 1462.37C2992.76 1455.39 3008.62 1440.9 3021.58 1445.22C3014.73 1458.91 3011.6 1472.2 3008.71 1486.68C3005.25 1503.97 2989.62 1522.41 2988.7 1541C2988.27 1549.57 2988.29 1558.16 2988.7 1566.73C2988.91 1571.34 2985.27 1598.74 3000.13 1583.89C2989.43 1573.19 2999.06 1559.6 3001.56 1549.58C3004.33 1538.52 2999.15 1538.52 3002.99 1529.56C3004.68 1525.62 3013.84 1518.01 3014.43 1515.27C3015.63 1509.68 3013.62 1503.77 3014.43 1498.11C3015.94 1487.5 3026.07 1475.83 3028.72 1465.23C3031 1456.12 3038.06 1434.87 3027.29 1429.49C3013.18 1422.44 2997.4 1440.57 2987.27 1446.65C2975.65 1453.62 2967.79 1459.8 2955.82 1470.95C2947.18 1478.99 2938.43 1486.91 2930.08 1495.25C2923.7 1501.63 2917.01 1502.54 2908.64 1508.12Z" fill="#6e685e" fill-rule="nonzero" opacity="1" stroke="none"/>
<path d="M3074.47 1825.48C3047.5 1826.83 3020.96 1836.89 2995.84 1844.07C2989.35 1845.92 2983.94 1860.27 2991.55 1864.08C2995.92 1866.26 3041.29 1850.97 3050.17 1849.78C3079.39 1845.89 3101.34 1851.03 3128.79 1852.64C3138.64 1853.22 3126.65 1856.05 3138.8 1859.79C3147.35 1862.42 3164.75 1865.51 3174.54 1865.51C3195.24 1865.51 3173.62 1839.8 3168.82 1836.92C3166.37 1835.45 3161.29 1838.34 3158.81 1836.92C3136.61 1824.23 3101.2 1824.14 3074.47 1825.48Z" fill="#000000" fill-rule="nonzero" opacity="1" stroke="none"/>
<path d="M3952.22 2880.5C3934.23 2889.49 3950.01 2904.15 3937.93 2916.24C3942.23 2920.55 3941.3 2921.18 3937.93 2926.25C3949.29 2937.61 3943.71 2933.83 3946.5 2951.98C3949.84 2973.7 3989.8 2973.42 4000.83 2973.42C4003.72 2973.42 4006.69 2973.01 4009.4 2971.99C4024.06 2966.5 4035.04 2929.84 4037.99 2929.1C4051.93 2925.62 4082.81 2930.03 4092.32 2920.53C4080.22 2896.34 4059.79 2917.73 4036.56 2913.38C4027.14 2911.61 4024.98 2872.45 4005.11 2879.07C3990.22 2884.03 4016.82 2904.06 4017.98 2909.09C4025.46 2941.52 4007.5 2965.83 3972.23 2957.7C3953.67 2953.41 3953.1 2881.38 3952.22 2880.5Z" fill="#453f38" fill-rule="nonzero" opacity="1" stroke="none"/>
<path d="M4814.25 1558.15C4810.98 1561.42 4807.76 1570.92 4809.96 1575.31C4789.35 1595.92 4776.14 1622.47 4752.78 1642.5C4733.11 1659.35 4710.45 1679.29 4688.45 1693.96C4683.04 1697.57 4673.76 1697.21 4668.43 1702.54C4686.37 1720.48 4704.23 1701.07 4721.33 1689.67C4754.09 1667.83 4788.96 1643.34 4814.25 1609.62C4820.14 1601.76 4819.3 1590.27 4827.11 1582.46C4821.51 1574.98 4819.93 1563.83 4814.25 1558.15Z" fill="#453f38" fill-rule="nonzero" opacity="1" stroke="none"/>
<path d="M3579.1 1525.27C3583.54 1529.71 3591.49 1527.18 3597.69 1528.13C3602.03 1528.8 3602.89 1535.33 3606.27 1538.14C3610.07 1541.31 3624.95 1534.9 3629.14 1533.85C3649.56 1528.75 3669.44 1531.55 3690.61 1528.13C3693.94 1527.6 3694.54 1521.99 3697.76 1520.99C3702.76 1519.42 3708.3 1520.19 3713.48 1520.99C3722.72 1522.41 3721.9 1533.69 3726.35 1538.14C3729.13 1535.36 3727.58 1530.28 3729.21 1526.7C3730.6 1523.64 3734.85 1522.57 3736.36 1519.56C3745.81 1500.65 3704.02 1505.61 3679.17 1506.69C3661.49 1507.46 3593.48 1510.9 3579.1 1525.27Z" fill="#000000" fill-rule="nonzero" opacity="1" stroke="none"/>
<path d="M2964.39 2285.8C2962.96 2287.23 2960.16 2288.07 2960.1 2290.09C2959.19 2323.91 2962.45 2357.77 2961.53 2391.59C2961.19 2404.16 2949.47 2453.87 2961.53 2465.93C2962.96 2464.5 2962.96 2464.5 2964.39 2463.07C2965.82 2464.5 2965.82 2464.5 2967.25 2465.93C2978.65 2454.52 2986.51 2452.51 2981.55 2430.19C2980.59 2425.9 2973.09 2418.15 2972.97 2413.03C2972.04 2373.02 2973.43 2332.97 2972.97 2292.95C2972.95 2291.44 2972.02 2290.09 2971.54 2288.66C2965.9 2288.66 2968.26 2289.67 2964.39 2285.8Z" fill="#453f38" fill-rule="nonzero" opacity="1" stroke="none"/>
<path d="M3208.85 1665.37C3190.57 1683.65 3208.94 1723.89 3191.69 1741.14C3194.87 1747.49 3193.82 1744.32 3193.12 1756.86C3192.78 1763.01 3189.57 1805.97 3207.42 1798.32C3216.23 1794.54 3210.28 1774.17 3210.28 1766.87C3210.28 1746.12 3232.22 1683.65 3211.71 1676.81C3211.71 1666.88 3213.73 1670.25 3208.85 1665.37Z" fill="#000000" fill-rule="nonzero" opacity="1" stroke="none"/>
<path d="M2964.39 1581.03C2942.85 1591.8 2916.35 1571.88 2898.63 1589.6C2903.4 1594.37 2912.11 1590.83 2918.65 1592.46C2923.27 1593.62 2922.47 1603.52 2927.22 1603.9C2950.02 1605.72 2973.15 1606.79 2995.84 1603.9C3000.52 1603.3 3001.23 1594.84 3005.85 1593.89C3018.45 1591.3 3031.61 1594.78 3044.45 1593.89C3049.07 1593.57 3047.9 1584.2 3044.45 1583.89C3029.74 1582.55 3014.9 1583.89 3000.13 1583.89C2990.26 1583.89 2977.53 1585.41 2964.39 1581.03Z" fill="#131010" fill-rule="nonzero" opacity="1" stroke="none"/>
<path d="M4932.9 2381.58C4936.47 2385.16 4936.47 2385.16 4940.05 2388.73C4939.33 2390.16 4939.33 2390.16 4938.62 2391.59C4955.16 2408.13 5009.7 2383.4 5024.39 2368.72C4999.05 2343.38 4993.09 2369.79 4965.78 2375.86C4956.34 2377.96 4940.58 2373.91 4932.9 2381.58Z" fill="#453f38" fill-rule="nonzero" opacity="1" stroke="none"/>
<path d="M3288.9 1556.72C3277.67 1567.96 3263.95 1575.59 3253.16 1588.17C3249.78 1592.12 3263.54 1604.97 3268.89 1603.9C3280.5 1601.58 3292.73 1566.27 3308.92 1582.46C3318.51 1576.06 3327.38 1568.04 3288.9 1556.72Z" fill="#000000" fill-rule="nonzero" opacity="1" stroke="none"/>
<path d="M4561.21 1791.17C4577.94 1791.17 4589.03 1800.02 4598.38 1814.05C4609.88 1803.83 4614.61 1801.26 4609.82 1786.88C4604.96 1786.88 4603.81 1783.58 4601.24 1779.74C4602.67 1778.31 4602.67 1778.31 4604.1 1776.88C4598.42 1771.2 4550.08 1768.54 4548.35 1772.59C4544.65 1781.23 4558.85 1784.07 4561.21 1791.17Z" fill="#000000" fill-rule="nonzero" opacity="1" stroke="none"/>
<path d="M3870.74 2909.09C3862.54 2913.19 3864.32 2927.34 3866.45 2936.25C3873.05 2964 3937.8 2927.09 3916.48 2919.1C3908.11 2915.96 3898.33 2918.27 3889.32 2914.81C3883.27 2912.48 3876.53 2906.19 3870.74 2909.09Z" fill="#ddc2c4" fill-rule="nonzero" opacity="1" stroke="none"/>
<path d="M2698.49 1922.69C2690.07 1931.11 2677.53 1927.77 2668.47 1939.85C2649.16 1965.6 2707.52 1945.45 2717.08 1932.7C2712.79 1927.7 2712.79 1927.7 2698.49 1922.69Z" fill="#453f38" fill-rule="nonzero" opacity="1" stroke="none"/>
<path d="M2771.4 1619.63C2775.93 1624.15 2779.74 1620.81 2784.27 1625.34C2783.55 1626.77 2783.55 1626.77 2782.84 1628.2C2786.17 1631.54 2788.87 1635.68 2792.85 1638.21C2800.03 1642.78 2808.24 1634.14 2812.86 1631.06C2819.3 1626.77 2831.6 1633.77 2838.59 1626.77C2832.15 1620.34 2820.43 1625.26 2811.43 1623.91C2807.08 1623.26 2807.11 1614.97 2802.85 1613.91C2797.06 1612.46 2775.52 1615.5 2771.4 1619.63Z" fill="#453f38" fill-rule="nonzero" opacity="1" stroke="none"/>
<path d="M4352.5 1672.52C4334.43 1690.59 4349.39 1704.28 4368.22 1716.84C4389.01 1701.24 4363.43 1687.1 4352.5 1672.52Z" fill="#000000" fill-rule="nonzero" opacity="1" stroke="none"/>
<path d="M3227.43 1432.35C3232.28 1437.2 3238.56 1432.1 3241.73 1439.5C3246.24 1450.03 3241.11 1467.48 3248.88 1475.24C3252.31 1471.8 3250.78 1465.71 3251.73 1460.94C3255.89 1440.17 3265.21 1425.77 3233.15 1428.06C3230.96 1428.22 3228.67 1431.11 3227.43 1432.35Z" fill="#7f7f7f" fill-rule="nonzero" opacity="1" stroke="none"/>
<path d="M3308.92 2879.07C3304.42 2883.57 3296.17 2885.54 3293.19 2890.51C3287.35 2900.25 3311.91 2917.47 3326.07 2896.22C3317.49 2887.65 3317.49 2887.65 3308.92 2879.07Z" fill="#222222" fill-rule="nonzero" opacity="1" stroke="none"/>
<path d="M4598.38 1779.74C4602.26 1783.61 4604.03 1789.48 4609.82 1789.74C4619.35 1790.18 4628.88 1791.61 4638.41 1791.17C4639.76 1791.11 4640.32 1789.27 4641.27 1788.31C4629 1776.05 4613.28 1764.84 4598.38 1779.74Z" fill="#453f38" fill-rule="nonzero" opacity="1" stroke="none"/>
<path d="M3307.49 2880.5C3313.21 2886.22 3318.12 2892.87 3324.64 2897.65C3335.21 2905.41 3336.64 2889.64 3327.5 2880.5C3328.22 2879.07 3328.22 2879.07 3328.93 2877.64C3318.96 2869.67 3315.83 2872.16 3307.49 2880.5Z" fill="#453f38" fill-rule="nonzero" opacity="1" stroke="none"/>
<path d="M2858.6 1593.89C2862.68 1597.97 2860.34 1596 2865.75 1599.61C2865.04 1601.04 2865.04 1601.04 2864.32 1602.47C2868.65 1606.8 2880.87 1611.66 2885.77 1606.76C2884.34 1605.33 2884.34 1605.33 2882.91 1603.9C2884.34 1602.47 2884.34 1602.47 2885.77 1601.04C2882.72 1596.46 2883.17 1594.67 2881.48 1589.6C2873.63 1589.6 2864.54 1587.96 2858.6 1593.89Z" fill="#000000" fill-rule="nonzero" opacity="1" stroke="none"/>
</g>
</g>
</svg>
