<?xml version="1.0" encoding="UTF-8" standalone="no"?>
<!DOCTYPE svg PUBLIC "-//W3C//DTD SVG 1.1//EN" "http://www.w3.org/Graphics/SVG/1.1/DTD/svg11.dtd">
<!-- Created with Vectornator (http://vectornator.io/) -->
<svg height="100%" stroke-miterlimit="10" style="fill-rule:nonzero;clip-rule:evenodd;stroke-linecap:round;stroke-linejoin:round;" version="1.1" viewBox="0 0 7680 4320" width="100%" xml:space="preserve" xmlns="http://www.w3.org/2000/svg" xmlns:xlink="http://www.w3.org/1999/xlink">
<defs/>
<g id="Ebene-1">
<g opacity="1">
<g opacity="1">
<path d="M5371.12 1263.5C5367.24 1247.03 5402.58 1240.54 5410.52 1232.39C5434.38 1207.9 5458.1 1169.04 5469.91 1136.33C5473.49 1126.4 5471.46 1111.9 5471.85 1100.56C5475.49 995.461 5347.76 983.753 5271.31 1025.32C5239.6 1042.55 5228.66 1062.95 5204.67 1095.05C5202.67 1097.72 5189.86 1102.86 5190.03 1107.85C5190.49 1121.12 5208.11 1189.79 5186.67 1194.85C5183.59 1181.79 5192.59 1128.35 5181.3 1119.26C5136.14 1082.88 5094.93 1077.61 5048.63 1102.78C5042.74 1105.98 5029.42 1109.91 5025.65 1115.47C5002.26 1150.02 4985.62 1179.39 4974.32 1214.83C4961.29 1255.67 4977.08 1322.32 5002.13 1354.71C5010.28 1365.25 5046.13 1377 5046.54 1388.89C5048.01 1431.78 5045.32 1476.67 5051.43 1519.64C5052.89 1529.96 5046.22 1559.19 5058.45 1562.64C5060.51 1563.23 5104.36 1527.28 5106.76 1525.28C5157 1483.37 5212.64 1451.15 5259.85 1408.15C5261.82 1406.35 5303.93 1428.96 5315.43 1432.43C5361.22 1446.25 5431.67 1462.28 5473.44 1424.23C5509.27 1391.59 5535.37 1330.99 5525.79 1285.17C5522.52 1269.52 5523.21 1254.35 5511.36 1245.99C5499.29 1237.48 5486.45 1230.08 5473.66 1222.69C5472.36 1221.93 5470.77 1221.55 5469.26 1221.65C5429.96 1224.27 5406.49 1250.89 5371.12 1263.5Z" fill="#d4e8af" fill-rule="nonzero" opacity="1" stroke="none"/>
</g>
<path d="M4988.82 1359.93C5001.35 1367.68 5023.83 1383.88 5032.3 1390.17C5040.46 1396.24 5033.51 1422.11 5033.25 1429.42C5032.03 1464.72 5043.66 1498.02 5042.4 1534.23C5042.01 1545.51 5039.08 1568.95 5044.75 1579.38C5046.47 1582.55 5098.78 1552.79 5101.28 1550.46C5113.71 1538.86 5122.07 1526.27 5136.28 1518.32C5143.28 1514.4 5152.75 1512.08 5158.5 1506.84C5162.02 1503.63 5162.36 1497.74 5166.01 1494.68C5177.04 1485.48 5195.58 1482.23 5206.52 1472.66C5214.61 1465.59 5218.18 1457.86 5226.42 1451.35C5236.48 1443.41 5250.15 1439.42 5260.27 1431.94C5263.43 1429.6 5264.89 1424.62 5268.71 1423.72C5267 1416.47 5265.1 1412.79 5263.32 1405.26C5247.61 1408.96 5240.61 1421.67 5228.89 1431.03C5222.59 1436.07 5212.33 1438.67 5205.92 1443.72C5185.28 1460.02 5167.3 1479.61 5144.95 1493.42C5133.53 1500.48 5103.57 1531.03 5092.99 1528.53C5090.87 1531.96 5060.69 1566.43 5056.31 1557.96C5045.31 1536.66 5053.73 1477.91 5052.31 1452.96C5051.71 1442.49 5045.7 1430.68 5047.6 1419.8C5049.13 1411.09 5052.5 1388.71 5047.4 1379.34C5045.2 1375.28 5031.1 1375.09 5026.91 1371.71C5016.54 1363.36 5005.79 1352 4996.16 1342.62C4990.48 1337.08 4984.83 1310.55 4983.4 1306.16C4971.41 1269.35 4970.23 1223.16 4984.95 1189.47C5011.62 1128.41 5055.94 1077.65 5125.54 1089.83C5145.26 1093.28 5161.09 1108.52 5177.36 1120.18C5183.41 1124.52 5182.73 1134.12 5184.44 1141.36C5185.59 1146.23 5176.56 1211.69 5190.78 1199.07C5204.13 1187.23 5200.99 1149.85 5200.47 1134.47C5200.22 1127.16 5191.86 1116.01 5192.46 1109.35C5192.97 1103.74 5204.75 1099.88 5207.1 1096.55C5225.94 1069.84 5232.12 1056.25 5252.73 1039.05C5291.64 1006.59 5401.99 989.552 5440.44 1029.03C5444.32 1033.02 5445.93 1040.56 5449.3 1044.6C5457.73 1054.7 5466.77 1057.65 5469.29 1072.08C5474.54 1102.17 5467.37 1126.72 5456.2 1153.07C5454.48 1157.11 5455.9 1169.14 5454.47 1172.17C5447.76 1186.42 5428.48 1198.46 5432.1 1213.8C5438.2 1212.36 5439.57 1203.6 5444.3 1199.49C5446.85 1197.29 5452.07 1199.83 5454.14 1197.17C5466.15 1181.76 5476.2 1164.78 5484.96 1147.32C5487.95 1141.36 5488.41 1123.3 5489.05 1116.23C5495.17 1048.53 5472.09 1026.49 5408.29 994.036C5404.6 992.156 5400 995.979 5396.02 994.854C5374 988.63 5361 991.481 5336.46 993.327C5262.08 998.924 5226.09 1042.27 5185.74 1098.47C5184.96 1099.57 5183 1100.04 5181.81 1099.4C5169.2 1092.66 5158.28 1082.9 5145.33 1076.85C5139.87 1074.3 5133.38 1074.8 5127.73 1072.69C5103.6 1063.71 5049.18 1084.28 5029.81 1097.87C4986.25 1128.46 4948.15 1227.18 4961.16 1282.33C4965.26 1299.7 4968.07 1316.46 4975.2 1333.02C4979 1341.85 4991.34 1349.24 4988.82 1359.93Z" fill="#453f38" fill-rule="nonzero" opacity="1" stroke="none"/>
<path d="M5261.35 1405.72C5268.09 1434.3 5293.71 1433.39 5316.71 1446.67C5322.5 1450.01 5328.24 1453.57 5334.48 1455.97C5337.96 1457.31 5341.97 1453.35 5345.54 1454.4C5391.95 1468.13 5445.59 1472.95 5483.63 1432.21C5495.7 1419.28 5530.37 1392.61 5525.15 1370.48C5523.18 1370.95 5523.18 1370.95 5521.22 1371.41C5520.38 1370.05 5520.38 1370.05 5519.54 1368.69C5501.61 1372.92 5493.07 1394.59 5482.46 1409.64C5472.24 1424.13 5438.06 1442.24 5417.77 1443.59C5396.2 1445.03 5377.56 1443.58 5357.28 1438.13C5352.79 1436.93 5343.94 1439.59 5339.39 1437.16C5333.51 1434.01 5328.67 1428.83 5322.37 1426.64C5319.82 1425.75 5316.98 1429.54 5314.5 1428.49C5305.91 1424.85 5273.54 1402.84 5261.35 1405.72Z" fill="#222222" fill-rule="nonzero" opacity="1" stroke="none"/>
<path d="M5368.4 1265.18C5376.8 1263.61 5393.79 1261.51 5402.6 1256.07C5423.31 1243.27 5435.88 1227.57 5462.32 1227.44C5465.69 1227.42 5469.08 1223.76 5472.16 1225.12C5485.67 1231.08 5497.78 1239.91 5509.85 1248.42C5512.32 1250.16 5513.91 1252.9 5515.65 1255.36C5524.95 1268.62 5520.79 1285.96 5523.89 1299.12C5532.78 1297.02 5530.6 1294.42 5543.86 1291.29C5547.97 1245.76 5519.87 1229.87 5479.04 1205.84C5470.48 1200.81 5455.35 1211.09 5451.71 1195.67C5449.74 1196.13 5449.74 1196.13 5447.77 1196.6C5441.78 1183.5 5462.1 1178.09 5458.98 1164.87C5439.42 1169.49 5433.96 1196.38 5422.55 1212.93C5418.45 1218.87 5413.94 1224.57 5408.84 1229.67C5399.67 1238.86 5363.65 1245.05 5368.4 1265.18Z" fill="#222222" fill-rule="nonzero" opacity="1" stroke="none"/>
<path d="M5508.19 1373.45C5513.11 1372.29 5513.11 1372.29 5518.03 1371.12C5518.87 1372.48 5518.87 1372.48 5519.71 1373.84C5542.49 1368.47 5550.13 1309.08 5545.36 1288.86C5510.48 1297.09 5529.82 1316.05 5520.62 1342.47C5517.44 1351.6 5505.7 1362.88 5508.19 1373.45Z" fill="#453f38" fill-rule="nonzero" opacity="1" stroke="none"/>
</g>
<g opacity="1">
<g opacity="1">
<path d="M5423.62 1573.42C5421.25 1556.67 5457.03 1553.43 5465.69 1546.03C5491.68 1523.82 5518.85 1487.29 5533.58 1455.78C5538.05 1446.22 5537.36 1431.6 5538.78 1420.34C5551.98 1316.01 5425.86 1292.71 5345.93 1327.13C5312.79 1341.4 5300.03 1360.71 5273.21 1390.49C5270.98 1392.97 5257.76 1396.93 5257.47 1401.91C5256.71 1415.16 5268 1485.15 5246.19 1488.24C5244.32 1474.96 5258.15 1422.55 5247.73 1412.47C5206.08 1372.13 5165.52 1363.13 5117.11 1383.97C5110.97 1386.62 5097.34 1389.32 5093.08 1394.52C5066.63 1426.78 5047.39 1454.52 5032.9 1488.78C5016.21 1528.26 5025.85 1596.08 5047.84 1630.61C5055 1641.86 5089.64 1656.82 5088.96 1668.7C5086.51 1711.54 5079.74 1756 5081.9 1799.35C5082.42 1809.76 5073.12 1838.26 5084.98 1842.82C5086.98 1843.58 5133.92 1811.79 5136.5 1810.01C5190.34 1772.85 5248.69 1745.84 5299.62 1707.33C5301.75 1705.71 5341.62 1732.06 5352.76 1736.57C5397.1 1754.51 5465.79 1776.89 5510.86 1742.81C5549.52 1713.57 5581.03 1655.6 5575.67 1609.09C5573.84 1593.22 5575.91 1578.17 5564.87 1568.77C5553.62 1559.19 5541.51 1550.65 5529.45 1542.12C5528.22 1541.25 5526.67 1540.72 5525.17 1540.69C5485.79 1539.71 5459.98 1564.09 5423.62 1573.42Z" fill="#d4e8af" fill-rule="nonzero" opacity="1" stroke="none"/>
</g>
<path d="M5034.11 1634.6C5045.89 1643.45 5066.8 1661.64 5074.66 1668.68C5082.24 1675.46 5072.95 1700.59 5072.03 1707.85C5067.6 1742.89 5076.14 1777.11 5071.59 1813.06C5070.17 1824.26 5065.11 1847.33 5069.81 1858.23C5071.23 1861.54 5126.04 1836.68 5128.74 1834.59C5142.18 1824.17 5151.65 1812.39 5166.52 1805.77C5173.85 1802.51 5183.49 1801.06 5189.7 1796.37C5193.5 1793.49 5194.37 1787.65 5198.29 1784.94C5210.11 1776.79 5228.86 1775.24 5240.63 1766.71C5249.34 1760.4 5253.59 1753.02 5262.39 1747.3C5273.13 1740.31 5287.11 1737.58 5297.87 1731.05C5301.23 1729.02 5303.14 1724.18 5307.03 1723.63C5305.99 1716.26 5304.42 1712.43 5303.34 1704.76C5287.36 1707.02 5279.23 1719.04 5266.71 1727.29C5259.98 1731.73 5249.52 1733.38 5242.68 1737.83C5220.64 1752.18 5200.94 1770.05 5177.42 1781.77C5165.41 1787.75 5132.8 1815.45 5122.48 1811.99C5120.06 1815.22 5086.86 1846.79 5083.28 1837.95C5074.27 1815.74 5088.01 1758 5088.86 1733.03C5089.22 1722.55 5084.31 1710.24 5087.2 1699.58C5089.51 1691.04 5094.91 1669.07 5090.69 1659.27C5088.86 1655.03 5074.84 1653.55 5070.97 1649.8C5061.41 1640.54 5051.74 1628.25 5043 1618.03C5037.85 1612 5034.65 1585.07 5033.62 1580.56C5025.04 1542.81 5028.08 1496.71 5045.8 1464.49C5077.93 1406.12 5126.69 1359.61 5194.89 1378.08C5214.21 1383.32 5228.59 1399.94 5243.73 1413.04C5249.36 1417.91 5247.8 1427.4 5248.84 1434.78C5249.54 1439.72 5234.59 1504.09 5249.9 1492.82C5264.27 1482.24 5264.56 1444.73 5265.44 1429.37C5265.85 1422.06 5258.55 1410.21 5259.76 1403.63C5260.77 1398.08 5272.86 1395.32 5275.5 1392.21C5296.69 1367.33 5304.08 1354.36 5326.18 1339.11C5367.88 1310.33 5479.33 1303.43 5514.02 1346.25C5517.52 1350.57 5518.44 1358.23 5521.43 1362.56C5528.9 1373.38 5537.63 1377.15 5538.82 1391.75C5541.32 1422.19 5531.93 1445.98 5518.41 1471.2C5516.33 1475.07 5516.64 1487.18 5514.95 1490.07C5506.97 1503.65 5486.67 1513.88 5488.87 1529.48C5495.08 1528.61 5497.24 1520.01 5502.33 1516.35C5505.07 1514.38 5510.03 1517.39 5512.34 1514.94C5525.7 1500.68 5537.26 1484.69 5547.57 1468.1C5551.09 1462.44 5553.2 1444.5 5554.48 1437.52C5566.74 1370.65 5545.77 1346.6 5485.2 1308.47C5481.69 1306.26 5476.76 1309.64 5472.9 1308.16C5451.54 1299.96 5438.33 1301.61 5413.73 1301.21C5339.15 1300.01 5299.36 1339.89 5254.05 1392.18C5253.17 1393.2 5251.18 1393.49 5250.05 1392.75C5238.11 1384.88 5228.13 1374.17 5215.78 1366.96C5210.57 1363.93 5204.07 1363.83 5198.63 1361.22C5175.42 1350.08 5119.35 1365.59 5098.83 1377.37C5052.66 1403.86 5005.72 1498.69 5013.65 1554.8C5016.15 1572.48 5017.42 1589.42 5023 1606.56C5025.98 1615.7 5037.6 1624.18 5034.11 1634.6Z" fill="#453f38" fill-rule="nonzero" opacity="1" stroke="none"/>
<path d="M5301.34 1705.04C5305.45 1734.12 5331.04 1735.55 5352.73 1750.86C5358.2 1754.72 5363.59 1758.79 5369.59 1761.75C5372.92 1763.4 5377.28 1759.82 5380.74 1761.2C5425.71 1779.09 5478.68 1788.79 5520.28 1751.68C5533.47 1739.91 5570.44 1716.51 5567.25 1694C5565.25 1694.28 5565.25 1694.28 5563.25 1694.56C5562.54 1693.13 5562.54 1693.13 5561.82 1691.7C5543.59 1694.28 5533.11 1715.08 5521.17 1729.1C5509.67 1742.6 5473.99 1757.52 5453.65 1757.02C5432.04 1756.48 5413.61 1753.33 5393.91 1746.06C5389.55 1744.45 5380.5 1746.3 5376.19 1743.46C5370.62 1739.79 5366.27 1734.19 5360.2 1731.43C5357.74 1730.32 5354.57 1733.84 5352.19 1732.56C5343.96 1728.15 5313.74 1703.29 5301.34 1705.04Z" fill="#222222" fill-rule="nonzero" opacity="1" stroke="none"/>
<path d="M5420.76 1574.84C5429.26 1574.05 5446.37 1573.51 5455.65 1568.89C5477.44 1558.04 5491.38 1543.54 5517.72 1545.82C5521.08 1546.11 5524.79 1542.77 5527.73 1544.41C5540.65 1551.58 5551.9 1561.47 5563.15 1571.05C5565.44 1573 5566.78 1575.88 5568.28 1578.49C5576.34 1592.54 5570.61 1609.42 5572.51 1622.81C5581.55 1621.54 5579.62 1618.75 5593.1 1616.84C5601.34 1571.88 5574.81 1553.49 5536.34 1525.84C5528.28 1520.04 5512.27 1528.9 5510.05 1513.22C5508.05 1513.5 5508.05 1513.5 5506.05 1513.78C5501.28 1500.19 5522 1496.66 5520.1 1483.21C5500.2 1486.02 5492.31 1512.31 5479.44 1527.75C5474.82 1533.29 5469.8 1538.55 5464.26 1543.17C5454.29 1551.48 5417.86 1554.36 5420.76 1574.84Z" fill="#222222" fill-rule="nonzero" opacity="1" stroke="none"/>
<path d="M5550.1 1695.4C5555.1 1694.7 5555.1 1694.7 5560.11 1693.99C5560.82 1695.42 5560.82 1695.42 5561.53 1696.85C5584.7 1693.57 5597.73 1635.12 5594.82 1614.56C5559.34 1619.57 5576.86 1640.22 5565.29 1665.69C5561.29 1674.5 5548.58 1684.66 5550.1 1695.4Z" fill="#453f38" fill-rule="nonzero" opacity="1" stroke="none"/>
</g>
<g opacity="1">
<g opacity="1">
<path d="M4823.08 1203.24C4812.61 1189.96 4841.92 1169.16 4845.68 1158.42C4856.98 1126.16 4862.09 1080.91 4858.99 1046.27C4858.05 1035.76 4850.1 1023.47 4845.66 1013.02C4804.62 916.201 4683.88 959.473 4632.1 1029.41C4610.63 1058.41 4609.3 1081.52 4601.1 1120.75C4600.42 1124.01 4590.97 1134.08 4593.23 1138.53C4599.24 1150.37 4644.19 1205.19 4626.89 1218.82C4618.59 1208.29 4604.19 1156.04 4590.13 1152.56C4533.84 1138.63 4494.25 1151.24 4462.89 1193.6C4458.9 1198.98 4448.48 1208.16 4447.42 1214.79C4440.78 1255.98 4438.08 1289.63 4442.79 1326.53C4448.21 1369.06 4490.64 1422.83 4527.02 1441.62C4538.86 1447.74 4576.32 1443.26 4581.71 1453.87C4601.14 1492.14 4617.64 1533.97 4641.3 1570.36C4646.98 1579.09 4653.27 1608.41 4665.82 1606.38C4667.93 1606.04 4692.52 1554.95 4693.85 1552.12C4721.71 1492.93 4758.57 1440.24 4783.23 1381.34C4784.26 1378.87 4831.97 1381.61 4843.86 1379.9C4891.21 1373.11 4961.84 1357.92 4983.66 1305.8C5002.38 1261.09 5000.47 1195.14 4972.46 1157.63C4962.89 1144.83 4957.12 1130.78 4942.84 1128.21C4928.3 1125.58 4913.55 1124.29 4898.83 1122.98C4897.33 1122.85 4895.73 1123.17 4894.4 1123.9C4859.88 1142.85 4849.83 1176.9 4823.08 1203.24Z" fill="#d4e8af" fill-rule="nonzero" opacity="1" stroke="none"/>
</g>
<path d="M4517.15 1451.97C4531.79 1453.71 4559.01 1458.91 4569.34 1461.04C4579.3 1463.1 4583.91 1489.49 4586.76 1496.22C4600.55 1528.74 4625.14 1554.03 4639.28 1587.39C4643.68 1597.79 4650.91 1620.27 4660.45 1627.34C4663.35 1629.48 4698.22 1580.43 4699.5 1577.27C4705.88 1561.51 4708.14 1546.56 4717.67 1533.36C4722.37 1526.85 4729.97 1520.75 4732.98 1513.58C4734.82 1509.18 4732.63 1503.69 4734.66 1499.38C4740.78 1486.39 4756.21 1475.62 4762.09 1462.33C4766.45 1452.5 4766.42 1443.99 4771.14 1434.61C4776.91 1423.17 4787.63 1413.78 4793.64 1402.73C4795.52 1399.28 4794.74 1394.15 4797.83 1391.71C4793.22 1385.86 4789.94 1383.34 4785.15 1377.25C4772.47 1387.24 4771.49 1401.72 4764.82 1415.15C4761.23 1422.37 4753.02 1429.05 4749.34 1436.34C4737.51 1459.82 4729.47 1485.18 4715.03 1507.13C4707.65 1518.34 4693.39 1558.68 4682.73 1560.88C4682.26 1564.89 4669.44 1608.87 4661.9 1603.03C4642.94 1588.37 4625.79 1531.55 4613.97 1509.53C4609.01 1500.29 4598.58 1492.12 4595.71 1481.45C4593.42 1472.91 4587.03 1451.2 4578.46 1444.85C4574.75 1442.1 4561.88 1447.87 4556.66 1446.58C4543.74 1443.38 4529.2 1437.62 4516.5 1433.18C4509.02 1430.56 4492.71 1408.89 4489.56 1405.51C4463.16 1377.19 4442.6 1335.81 4441.73 1299.06C4440.15 1232.45 4458.92 1167.73 4527.16 1149.4C4546.49 1144.21 4567.28 1151.35 4586.95 1155.06C4594.26 1156.44 4597.69 1165.43 4602.3 1171.28C4605.39 1175.2 4624.82 1238.36 4632.4 1220.92C4639.5 1204.55 4620.89 1171.98 4613.92 1158.26C4610.61 1151.74 4598.33 1145.16 4596.07 1138.87C4594.16 1133.56 4603.21 1125.1 4603.94 1121.09C4609.75 1088.92 4609.62 1073.99 4621.05 1049.7C4642.63 1003.86 4735.49 941.852 4787.01 961.428C4792.21 963.404 4796.85 969.558 4801.61 971.799C4813.51 977.401 4822.95 976.263 4831.32 988.283C4848.79 1013.35 4852.64 1038.63 4853.62 1067.23C4853.78 1071.62 4860.13 1081.93 4860.12 1085.28C4860.05 1101.03 4847.65 1120.08 4857.4 1132.46C4862.32 1128.58 4859.87 1120.06 4862.43 1114.34C4863.8 1111.27 4869.61 1111.37 4870.37 1108.09C4874.75 1089.05 4876.7 1069.41 4877.28 1049.88C4877.47 1043.22 4870.28 1026.65 4867.87 1019.97C4844.85 956.01 4814.63 945.765 4743.1 943.259C4738.95 943.114 4736.4 948.518 4732.32 949.177C4709.72 952.827 4699.14 960.896 4677.67 972.922C4612.59 1009.38 4598.25 1063.86 4585.39 1131.84C4585.14 1133.16 4583.56 1134.42 4582.21 1134.34C4567.94 1133.55 4553.92 1129.3 4539.62 1129.29C4533.6 1129.28 4527.92 1132.47 4521.91 1132.94C4496.24 1134.98 4455.58 1176.59 4443.76 1197.08C4417.17 1243.19 4424.28 1348.77 4459.34 1393.28C4470.39 1407.31 4480.01 1421.31 4493.45 1433.32C4500.63 1439.72 4514.93 1441.21 4517.15 1451.97Z" fill="#453f38" fill-rule="nonzero" opacity="1" stroke="none"/>
<path d="M4783.56 1378.5C4801.73 1401.57 4824.58 1389.94 4851.03 1392.27C4857.69 1392.86 4864.4 1393.66 4871.07 1393.21C4874.79 1392.96 4876.75 1387.67 4880.43 1387.12C4928.3 1379.98 4978.97 1361.73 4996.27 1308.74C5001.76 1291.93 5021.94 1253.12 5007.87 1235.26C5006.28 1236.51 5006.28 1236.51 5004.69 1237.76C5003.36 1236.88 5003.36 1236.88 5002.02 1236C4987.56 1247.4 4988.95 1270.65 4985.68 1288.77C4982.53 1306.22 4959.19 1337.06 4941.36 1346.85C4922.41 1357.25 4904.9 1363.8 4884.21 1367.42C4879.63 1368.22 4872.73 1374.37 4867.58 1374.08C4860.92 1373.71 4854.35 1371.05 4847.71 1371.72C4845.03 1371.99 4844.05 1376.63 4841.36 1376.73C4832.03 1377.05 4793.4 1370.75 4783.56 1378.5Z" fill="#222222" fill-rule="nonzero" opacity="1" stroke="none"/>
<path d="M4821.33 1205.92C4828.28 1200.96 4842.8 1191.88 4848.49 1183.23C4861.87 1162.89 4866.64 1143.35 4890.55 1132.08C4893.6 1130.64 4895.13 1125.89 4898.49 1125.82C4913.26 1125.53 4927.97 1128.42 4942.5 1131.04C4945.47 1131.58 4948.07 1133.39 4950.68 1134.9C4964.71 1142.99 4968.25 1160.46 4976.62 1171.08C4983.79 1165.43 4980.72 1163.99 4991.42 1155.57C4975.94 1112.55 4943.76 1110 4896.6 1105.44C4886.72 1104.49 4877.33 1120.19 4867.53 1107.75C4865.94 1109 4865.94 1109 4864.35 1110.25C4853.39 1100.9 4869.53 1087.42 4861.13 1076.76C4845.34 1089.2 4851.74 1115.89 4848.37 1135.71C4847.17 1142.82 4845.48 1149.89 4843.01 1156.66C4838.57 1168.86 4808.53 1189.67 4821.33 1205.92Z" fill="#222222" fill-rule="nonzero" opacity="1" stroke="none"/>
<path d="M4993.75 1245.1C4997.72 1241.97 4997.72 1241.97 5001.69 1238.84C5003.02 1239.72 5003.02 1239.72 5004.36 1240.6C5022.74 1226.12 5004.61 1169.04 4991.75 1152.73C4963.6 1174.9 4989.14 1183.94 4991.94 1211.77C4992.91 1221.39 4987.03 1236.57 4993.75 1245.1Z" fill="#453f38" fill-rule="nonzero" opacity="1" stroke="none"/>
</g>
<g opacity="1">
<g opacity="1">
<path d="M4530.53 1497.53C4520.06 1484.24 4549.36 1463.45 4553.12 1452.71C4564.42 1420.44 4569.54 1375.2 4566.43 1340.56C4565.49 1330.05 4557.54 1317.76 4553.11 1307.3C4512.06 1210.49 4391.32 1253.76 4339.54 1323.7C4318.07 1352.7 4316.75 1375.81 4308.54 1415.03C4307.86 1418.3 4298.41 1428.37 4300.67 1432.81C4306.69 1444.65 4351.63 1499.48 4334.33 1513.11C4326.03 1502.57 4311.64 1450.32 4297.57 1446.84C4241.28 1432.92 4201.69 1445.53 4170.33 1487.88C4166.35 1493.26 4155.93 1502.45 4154.86 1509.08C4148.22 1550.27 4145.53 1583.92 4150.23 1620.82C4155.65 1663.34 4198.09 1717.11 4234.46 1735.91C4246.3 1742.03 4283.76 1737.55 4289.15 1748.16C4308.58 1786.42 4325.08 1828.25 4348.74 1864.64C4354.43 1873.38 4360.71 1902.69 4373.26 1900.66C4375.37 1900.32 4399.96 1849.23 4401.3 1846.41C4429.16 1787.21 4466.01 1734.53 4490.67 1675.63C4491.7 1673.16 4539.42 1675.89 4551.3 1674.19C4598.66 1667.4 4669.29 1652.21 4691.1 1600.09C4709.82 1555.38 4707.92 1489.42 4679.9 1451.92C4670.33 1439.11 4664.56 1425.07 4650.28 1422.49C4635.75 1419.87 4620.99 1418.58 4606.28 1417.27C4604.77 1417.13 4603.17 1417.46 4601.85 1418.18C4567.32 1437.14 4557.27 1471.18 4530.53 1497.53Z" fill="#d4e8af" fill-rule="nonzero" opacity="1" stroke="none"/>
</g>
<path d="M4224.6 1746.25C4239.23 1747.99 4266.45 1753.19 4276.78 1755.33C4286.74 1757.38 4291.35 1783.78 4294.2 1790.51C4307.99 1823.03 4332.58 1848.32 4346.72 1881.68C4351.13 1892.07 4358.36 1914.56 4367.89 1921.62C4370.79 1923.77 4405.67 1874.72 4406.95 1871.55C4413.32 1855.79 4415.59 1840.85 4425.12 1827.64C4429.81 1821.14 4437.42 1815.04 4440.42 1807.86C4442.26 1803.47 4440.08 1797.98 4442.11 1793.67C4448.22 1780.67 4463.65 1769.91 4469.54 1756.62C4473.89 1746.78 4473.86 1738.27 4478.59 1728.9C4484.36 1717.45 4495.07 1708.07 4501.09 1697.02C4502.97 1693.57 4502.19 1688.43 4505.27 1686C4500.66 1680.15 4497.39 1677.62 4492.59 1671.54C4479.91 1681.53 4478.93 1696 4472.26 1709.43C4468.67 1716.65 4460.46 1723.34 4456.79 1730.63C4444.95 1754.11 4436.91 1779.46 4422.47 1801.41C4415.1 1812.62 4400.83 1852.97 4390.18 1855.17C4389.7 1859.17 4376.88 1903.16 4369.34 1897.32C4350.38 1882.65 4333.23 1825.83 4321.41 1803.81C4316.46 1794.58 4306.02 1786.41 4303.15 1775.73C4300.86 1767.19 4294.48 1745.48 4285.9 1739.14C4282.19 1736.39 4269.33 1742.16 4264.11 1740.87C4251.18 1737.67 4236.64 1731.91 4223.95 1727.46C4216.46 1724.84 4200.15 1703.17 4197 1699.79C4170.6 1671.47 4150.05 1630.1 4149.17 1593.34C4147.59 1526.73 4166.36 1462.01 4234.6 1443.69C4253.94 1438.49 4274.72 1445.64 4294.39 1449.34C4301.71 1450.72 4305.14 1459.72 4309.74 1465.56C4312.83 1469.49 4332.27 1532.65 4339.84 1515.2C4346.95 1498.83 4328.33 1466.27 4321.37 1452.55C4318.05 1446.02 4305.78 1439.44 4303.51 1433.15C4301.6 1427.85 4310.66 1419.38 4311.38 1415.37C4317.19 1383.21 4317.06 1368.28 4328.49 1343.98C4350.07 1298.14 4442.93 1236.14 4494.45 1255.71C4499.65 1257.69 4504.29 1263.84 4509.05 1266.08C4520.96 1271.69 4530.39 1270.55 4538.77 1282.57C4556.23 1307.63 4560.08 1332.91 4561.07 1361.51C4561.22 1365.91 4567.58 1376.22 4567.56 1379.56C4567.49 1395.31 4555.09 1414.37 4564.84 1426.74C4569.76 1422.87 4567.31 1414.35 4569.87 1408.63C4571.25 1405.55 4577.06 1405.65 4577.81 1402.37C4582.2 1383.33 4584.14 1363.7 4584.72 1344.17C4584.92 1337.51 4577.72 1320.94 4575.32 1314.26C4552.29 1250.3 4522.08 1240.05 4450.54 1237.54C4446.4 1237.4 4443.84 1242.8 4439.76 1243.46C4417.16 1247.11 4406.58 1255.18 4385.12 1267.21C4320.04 1303.66 4305.69 1358.14 4292.83 1426.13C4292.58 1427.45 4291 1428.7 4289.65 1428.63C4275.38 1427.83 4261.36 1423.59 4247.07 1423.57C4241.04 1423.57 4235.37 1426.75 4229.36 1427.23C4203.69 1429.27 4163.02 1470.87 4151.2 1491.37C4124.62 1537.48 4131.72 1643.06 4166.78 1687.57C4177.83 1701.59 4187.45 1715.6 4200.9 1727.61C4208.07 1734.01 4222.38 1735.5 4224.6 1746.25Z" fill="#453f38" fill-rule="nonzero" opacity="1" stroke="none"/>
<path d="M4491.01 1672.79C4509.18 1695.86 4532.02 1684.23 4558.47 1686.56C4565.14 1687.14 4571.84 1687.94 4578.52 1687.5C4582.23 1687.25 4584.19 1681.96 4587.88 1681.41C4635.75 1674.27 4686.41 1656.01 4703.71 1603.02C4709.2 1586.21 4729.38 1547.4 4715.31 1529.54C4713.73 1530.79 4713.73 1530.79 4712.14 1532.05C4710.8 1531.17 4710.8 1531.17 4709.47 1530.29C4695 1541.68 4696.4 1564.93 4693.13 1583.05C4689.97 1600.5 4666.63 1631.34 4648.8 1641.13C4629.85 1651.54 4612.34 1658.08 4591.65 1661.7C4587.07 1662.5 4580.18 1668.65 4575.03 1668.37C4568.37 1667.99 4561.79 1665.34 4555.15 1666.01C4552.47 1666.28 4551.5 1670.92 4548.8 1671.01C4539.47 1671.33 4500.85 1665.04 4491.01 1672.79Z" fill="#222222" fill-rule="nonzero" opacity="1" stroke="none"/>
<path d="M4528.77 1500.2C4535.72 1495.24 4550.24 1486.17 4555.94 1477.51C4569.31 1457.17 4574.08 1437.63 4598 1426.36C4601.05 1424.92 4602.57 1420.17 4605.94 1420.11C4620.71 1419.81 4635.41 1422.7 4649.95 1425.33C4652.91 1425.87 4655.52 1427.67 4658.13 1429.18C4672.16 1437.27 4675.69 1454.75 4684.06 1465.37C4691.24 1459.72 4688.16 1458.28 4698.86 1449.85C4683.38 1406.84 4651.2 1404.29 4604.04 1399.73C4594.16 1398.77 4584.78 1414.48 4574.97 1402.03C4573.38 1403.29 4573.38 1403.29 4571.8 1404.54C4560.84 1395.19 4576.98 1381.71 4568.57 1371.04C4552.78 1383.48 4559.18 1410.17 4555.82 1429.99C4554.61 1437.1 4552.92 1444.17 4550.45 1450.95C4546.01 1463.15 4515.97 1483.95 4528.77 1500.2Z" fill="#222222" fill-rule="nonzero" opacity="1" stroke="none"/>
<path d="M4701.19 1539.38C4705.16 1536.26 4705.16 1536.26 4709.13 1533.13C4710.46 1534.01 4710.46 1534.01 4711.8 1534.88C4730.18 1520.4 4712.05 1463.33 4699.2 1447.01C4671.05 1469.19 4696.58 1478.22 4699.39 1506.06C4700.36 1515.68 4694.47 1530.86 4701.19 1539.38Z" fill="#453f38" fill-rule="nonzero" opacity="1" stroke="none"/>
</g>
<g opacity="1">
<g opacity="1">
<path d="M4836.78 1787.43C4829.82 1772.01 4863.27 1758.89 4869.5 1749.37C4888.24 1720.77 4904.11 1678.09 4909.44 1643.73C4911.06 1633.3 4906.3 1619.46 4904.51 1608.24C4888 1504.39 4760.39 1517.3 4693.28 1572.71C4665.46 1595.69 4658.61 1617.8 4641.2 1653.89C4639.75 1656.9 4628.16 1664.39 4629.28 1669.25C4632.26 1682.19 4662.68 1746.23 4642.61 1755.29C4637.09 1743.07 4635.7 1688.89 4622.89 1682.12C4571.61 1655.05 4530.15 1657.75 4489.51 1691.3C4484.35 1695.57 4472.02 1701.97 4469.39 1708.15C4453.02 1746.53 4442.3 1778.54 4437.98 1815.48C4433 1858.06 4461.23 1920.47 4492.01 1947.47C4502.03 1956.27 4539.47 1960.94 4542.14 1972.54C4551.78 2014.35 4557.72 2058.93 4571.92 2099.95C4575.33 2109.79 4574.37 2139.76 4587.04 2140.81C4589.17 2140.99 4625.34 2097.33 4627.32 2094.91C4668.62 2044.16 4717.07 2001.91 4755.19 1950.68C4756.79 1948.54 4802.44 1962.68 4814.39 1963.89C4861.98 1968.7 4934.19 1970.97 4967.92 1925.65C4996.86 1886.76 5010.9 1822.29 4992.74 1779.14C4986.54 1764.41 4984.32 1749.39 4971.08 1743.45C4957.61 1737.4 4943.59 1732.59 4929.63 1727.77C4928.2 1727.28 4926.57 1727.21 4925.11 1727.6C4887.03 1737.68 4869.08 1768.3 4836.78 1787.43Z" fill="#d4e8af" fill-rule="nonzero" opacity="1" stroke="none"/>
</g>
<path d="M4479.94 1955.14C4493.73 1960.35 4518.89 1971.96 4528.41 1976.52C4537.58 1980.91 4535.69 2007.64 4536.84 2014.86C4542.39 2049.74 4560.16 2080.21 4565.85 2115.99C4567.63 2127.14 4569.22 2150.71 4576.78 2159.86C4579.08 2162.64 4624.74 2123.44 4626.74 2120.67C4636.73 2106.91 4642.52 2092.95 4654.96 2082.43C4661.08 2077.25 4669.93 2073.16 4674.57 2066.92C4677.42 2063.1 4676.62 2057.25 4679.63 2053.55C4688.69 2042.41 4706.27 2035.68 4715.18 2024.2C4721.77 2015.7 4723.79 2007.43 4730.64 1999.47C4738.99 1989.75 4751.65 1983.23 4760.15 1973.95C4762.81 1971.06 4763.29 1965.88 4766.87 1964.27C4763.81 1957.48 4761.23 1954.24 4758.05 1947.18C4743.34 1953.82 4738.9 1967.63 4729.18 1979.06C4723.96 1985.2 4714.38 1989.71 4709.06 1995.9C4691.92 2015.84 4678.01 2038.51 4658.71 2056.34C4648.85 2065.44 4625.28 2101.16 4614.42 2100.73C4612.99 2104.5 4589.95 2144.1 4584.04 2136.62C4569.17 2117.82 4566.21 2058.54 4560.05 2034.33C4557.46 2024.17 4549.3 2013.72 4549.09 2002.67C4548.92 1993.83 4547.95 1971.22 4541.16 1963C4538.22 1959.44 4524.34 1961.94 4519.59 1959.43C4507.81 1953.21 4495.09 1944.12 4483.84 1936.74C4477.21 1932.4 4466.6 1907.44 4464.35 1903.4C4445.55 1869.56 4435.57 1824.45 4443.58 1788.56C4458.08 1723.53 4491.89 1665.24 4562.53 1663.89C4582.55 1663.51 4601 1675.45 4619.2 1683.78C4625.97 1686.88 4627.13 1696.44 4630.19 1703.22C4632.25 1707.78 4635.9 1773.76 4647.45 1758.65C4658.29 1744.48 4648.07 1708.38 4644.61 1693.39C4642.97 1686.26 4632.64 1676.92 4631.96 1670.26C4631.38 1664.66 4642.21 1658.62 4643.88 1654.9C4657.26 1625.09 4660.73 1610.56 4677.68 1589.74C4709.66 1550.44 4814.73 1512.63 4860.01 1544.04C4864.58 1547.21 4867.6 1554.3 4871.69 1557.63C4881.89 1565.93 4891.32 1567.1 4896.56 1580.78C4907.47 1609.31 4905.11 1634.78 4899.18 1662.77C4898.27 1667.08 4901.96 1678.61 4901.14 1681.85C4897.28 1697.13 4880.65 1712.63 4887.13 1726.99C4892.85 1724.41 4892.51 1715.56 4896.38 1710.62C4898.46 1707.97 4904.07 1709.47 4905.59 1706.46C4914.43 1689.04 4921.05 1670.45 4926.32 1651.64C4928.11 1645.22 4925.12 1627.4 4924.39 1620.34C4917.46 1552.72 4890.6 1535.49 4821.77 1515.83C4817.78 1514.69 4814 1519.32 4809.88 1518.98C4787.07 1517.08 4774.86 1522.36 4751.13 1528.86C4679.18 1548.57 4652.14 1597.99 4623.28 1660.87C4622.72 1662.1 4620.88 1662.93 4619.59 1662.54C4605.93 1658.32 4593.35 1650.83 4579.48 1647.37C4573.63 1645.91 4567.36 1647.64 4561.41 1646.65C4536 1642.45 4486.51 1673.03 4470.11 1690.08C4433.2 1728.43 4414.66 1832.61 4437.97 1884.25C4445.31 1900.53 4451.28 1916.44 4461.43 1931.33C4466.85 1939.27 4480.38 1944.16 4479.94 1955.14Z" fill="#453f38" fill-rule="nonzero" opacity="1" stroke="none"/>
<path d="M4756.21 1948.01C4768.29 1974.77 4793.26 1968.99 4818.37 1977.62C4824.69 1979.8 4831.01 1982.19 4837.6 1983.36C4841.26 1984.01 4844.44 1979.35 4848.15 1979.71C4896.33 1984.31 4949.9 1978.79 4979.45 1931.53C4988.83 1916.54 5017.77 1883.74 5008.41 1863.01C5006.57 1863.84 5006.57 1863.84 5004.73 1864.67C5003.64 1863.5 5003.64 1863.5 5002.56 1862.32C4985.78 1869.9 4981.53 1892.8 4973.99 1909.6C4966.73 1925.78 4936.64 1950.09 4916.98 1955.29C4896.08 1960.83 4877.51 1962.96 4856.56 1961.49C4851.92 1961.17 4843.75 1965.47 4838.82 1963.95C4832.44 1961.99 4826.7 1957.83 4820.1 1956.88C4817.43 1956.49 4815.36 1960.76 4812.73 1960.2C4803.6 1958.27 4767.62 1942.85 4756.21 1948.01Z" fill="#222222" fill-rule="nonzero" opacity="1" stroke="none"/>
<path d="M4834.43 1789.6C4842.37 1786.46 4858.65 1781.15 4866.26 1774.12C4884.14 1757.6 4893.48 1739.79 4919.4 1734.61C4922.71 1733.95 4925.33 1729.7 4928.62 1730.45C4943.02 1733.72 4956.6 1740.07 4970.07 1746.12C4972.82 1747.35 4974.91 1749.74 4977.08 1751.83C4988.75 1763.06 4987.98 1780.87 4993.54 1793.2C5001.86 1789.44 4999.23 1787.3 5011.64 1781.7C5006.97 1736.23 4976.36 1726 4931.68 1710.21C4922.33 1706.91 4909.43 1719.89 4902.92 1705.45C4901.07 1706.28 4901.07 1706.28 4899.23 1707.11C4890.85 1695.4 4909.76 1686.21 4904.17 1673.83C4885.85 1682.1 4885.63 1709.54 4877.59 1727.97C4874.71 1734.58 4871.36 1741.04 4867.34 1747.02C4860.09 1757.79 4825.92 1770.75 4834.43 1789.6Z" fill="#222222" fill-rule="nonzero" opacity="1" stroke="none"/>
<path d="M4992.33 1869.16C4996.94 1867.08 4996.94 1867.08 5001.55 1865C5002.63 1866.17 5002.63 1866.17 5003.72 1867.35C5025.04 1857.72 5021.2 1797.96 5012.65 1779.03C4979.99 1793.77 5002.59 1808.69 4998.61 1836.38C4997.24 1845.95 4987.87 1859.26 4992.33 1869.16Z" fill="#453f38" fill-rule="nonzero" opacity="1" stroke="none"/>
</g>
<g opacity="1">
<path d="M4311.94 1911.3C4299.53 1923.71 4316.07 1940.59 4316.23 1954.19C4316.88 2012.37 4322.72 2076.97 4303.36 2128.6C4289.2 2166.35 4232.78 2199.26 4197.57 2208.65C4178.26 2213.8 4154.09 2210.41 4134.67 2212.94C4116.76 2215.28 4104.98 2219.92 4086.07 2211.51C4065.97 2202.58 4033.22 2214.03 4011.73 2208.65C4007.15 2207.51 4006.08 2200.44 4001.72 2198.65C3989.95 2193.8 3971.42 2198.47 3960.26 2191.5C3957.33 2189.67 3949.56 2182.01 3945.97 2181.49C3917.28 2177.39 3890.7 2175.54 3863.05 2168.63C3860.44 2167.97 3860.01 2163.22 3857.34 2162.91C3841.65 2161.06 3821.33 2169.78 3810.16 2158.62C3797.46 2164.97 3782.98 2150.92 3771.56 2150.04C3760.16 2149.16 3748.57 2151.66 3737.25 2150.04C3734.58 2149.66 3734.2 2144.72 3731.53 2144.32C3720.69 2142.72 3709.5 2145.93 3698.65 2144.32C3695.99 2143.93 3695.58 2139.11 3692.94 2138.61C3670.06 2134.25 3661.49 2137.24 3638.61 2132.89C3635.96 2132.38 3635.36 2128.26 3632.89 2127.17C3623.69 2123.08 3627.7 2131.81 3618.6 2125.74C3598.88 2112.6 3576.67 2102.39 3558.56 2084.28C3545.47 2071.19 3535.13 2047.86 3528.54 2031.39C3525.26 2023.19 3526.46 2009.3 3519.96 2002.8C3524.47 1993.77 3514.7 1986.65 3505.66 1989.93C3500.17 1991.93 3495.44 1999.37 3489.94 2001.37C3477.54 2005.87 3461.05 2010.64 3448.48 2014.23C3438.85 2016.99 3425.68 2013.03 3417.03 2019.95C3407.68 2027.43 3431.44 2034.48 3432.76 2037.11C3438.07 2047.73 3441.49 2056.34 3438.47 2071.42C3433.59 2095.82 3391.61 2099.93 3374.14 2104.3C3369.57 2105.44 3322.24 2166.24 3311.24 2175.77C3290.7 2193.57 3266.3 2213.82 3241.19 2220.09C3236.1 2221.36 3240.38 2225.4 3235.48 2227.24C3228.77 2229.75 3220.72 2226.1 3214.03 2228.67C3198.84 2234.51 3184.55 2246.05 3168.29 2250.11C3147.63 2255.28 3129.32 2253.42 3108.24 2258.69C3105.6 2259.35 3098.54 2268.28 3095.38 2268.7C3067.84 2272.29 3043.93 2270.55 3015.32 2275.84C3012.67 2276.33 3012.2 2280.82 3009.6 2281.56C2996.05 2285.44 2977.45 2277.98 2966.72 2288.71C2968.62 2290.62 2972.31 2291.74 2972.44 2294.43C2974.25 2333.94 2971.51 2373.54 2972.44 2413.08C2972.65 2422.18 2973.59 2431.3 2975.3 2440.24C2975.8 2442.89 2979.68 2443.62 2981.01 2445.96C2984.45 2451.97 2984.19 2463.92 2986.73 2470.26C2993.18 2486.37 3005.11 2502.83 3013.89 2516.01C3018.22 2522.49 3019.11 2533.6 3022.47 2540.31C3025.62 2546.6 3034.69 2551.89 3038.2 2558.9C3052.35 2587.21 3074.26 2614.97 3096.81 2637.52C3137.01 2677.73 3183.95 2702.95 3225.47 2736.16C3250.2 2755.95 3277.88 2770.85 3305.52 2781.91C3310.85 2784.04 3317.44 2781.01 3322.68 2783.34C3328.98 2786.14 3328.92 2791.16 3338.4 2789.06C3349.23 2786.65 3341.26 2738.84 3341.26 2727.59C3341.26 2713.65 3350.81 2699.32 3351.27 2687.56C3352.19 2664.23 3349.12 2640.76 3351.27 2617.51C3351.58 2614.15 3356.04 2612.74 3358.42 2610.36C3367.11 2616.88 3362.71 2617.66 3362.71 2626.09C3362.71 2659.92 3362.71 2693.75 3362.71 2727.59C3362.71 2779.07 3360.96 2828.03 3362.71 2880.55C3362.88 2885.79 3361.2 2891.25 3362.71 2896.27C3363.88 2900.2 3368.56 2902.39 3369.85 2906.28C3391.77 2906.28 3413.8 2904.14 3435.61 2906.28C3438.97 2906.61 3439.48 2912.68 3442.76 2913.43C3465.59 2918.62 3476.36 2915.04 3499.94 2919.15C3502.6 2919.61 3502.99 2924.51 3505.66 2924.87C3517.94 2926.5 3530.55 2923.23 3542.83 2924.87C3545.5 2925.22 3545.89 2930.14 3548.55 2930.58C3579.12 2935.68 3620.1 2927.76 3645.76 2940.59C3669.17 2917.18 3681.34 2885.79 3700.08 2857.68C3703.22 2852.97 3720.3 2832.36 3717.24 2826.23C3737.86 2805.61 3746.52 2771.66 3761.55 2747.6C3767.5 2738.09 3775.56 2733.88 3777.28 2721.87C3778.51 2713.26 3797.1 2687.95 3801.58 2678.98C3803.5 2675.14 3815.28 2670.41 3815.88 2677.55C3817.51 2697.15 3788.85 2741.41 3777.28 2757.61C3770.84 2766.62 3769.39 2781.68 3762.98 2790.49C3751.74 2805.95 3748.41 2812.6 3741.54 2829.08C3738.73 2835.84 3729.59 2840.8 3731.53 2850.53C3731.8 2851.85 3733.05 2853.34 3734.39 2853.39C3762.97 2854.31 3791.63 2855.17 3820.17 2853.39C3822.86 2853.22 3823.21 2848 3825.89 2847.67C3839.12 2846.01 3852.67 2849.32 3865.91 2847.67C3868.59 2847.33 3868.97 2842.38 3871.63 2841.95C3894.17 2838.34 3906.88 2841.4 3928.81 2839.09C3931.81 2838.78 3933.23 2831.03 3934.53 2830.51C3944.28 2826.62 3955.67 2831.02 3965.98 2829.08C3970.3 2828.27 3970.37 2820.39 3974.56 2819.08C3983.34 2816.34 3994.61 2816.21 4003.15 2813.36C4016.98 2808.75 4069.28 2803.21 4076.06 2791.92C4084.18 2778.37 4059.64 2758.7 4053.19 2749.03C4048.46 2741.94 4047.49 2731.23 4044.61 2723.3C4038.42 2706.29 4003.25 2658.67 4008.87 2641.81C4012.97 2643.86 4043.49 2684.82 4044.61 2690.42C4045.26 2693.69 4043.21 2697.4 4044.61 2700.42C4048.41 2708.65 4057.52 2713.39 4061.76 2721.87C4077.48 2753.3 4100.81 2781.35 4124.66 2810.5C4134.91 2823.02 4147.35 2852.37 4163.26 2857.68C4163.26 2875.58 4197.9 2897.87 4211.87 2904.85C4224.61 2892.11 4258.84 2883.2 4276.2 2876.26C4284.68 2872.87 4291.58 2863.51 4300.5 2860.53C4334.21 2849.3 4364.87 2833.15 4397.71 2819.08C4402.91 2816.85 4457.49 2800.63 4457.75 2796.2C4459.12 2772.94 4444.14 2754.81 4442.03 2734.73C4441.18 2726.68 4443.23 2718.44 4442.03 2710.43C4440.65 2701.25 4426.21 2689.04 4424.87 2678.98C4423.6 2669.41 4413.66 2619.17 4409.15 2614.65C4407.72 2616.08 4407.72 2616.08 4406.29 2617.51C4396.44 2607.66 4399.16 2581.22 4394.85 2568.9C4393.29 2564.45 4386.64 2563.26 4384.84 2558.9C4383.03 2554.49 4385.63 2549.3 4384.84 2544.6C4380.81 2520.4 4361.69 2504.24 4364.83 2475.98C4365.97 2465.69 4384 2474.29 4386.27 2478.84C4387.48 2481.26 4402.39 2565.27 4419.15 2531.74C4429.48 2511.09 4437.04 2491.18 4444.89 2470.26C4450.68 2454.81 4447.24 2475.56 4453.46 2463.12C4455.64 2458.76 4454.15 2450 4456.32 2445.96C4460.39 2438.41 4469.97 2431.4 4472.05 2423.09C4473.43 2417.54 4470.66 2411.48 4472.05 2405.93C4472.7 2403.32 4477.47 2402.89 4477.77 2400.22C4483.94 2344.67 4485.42 2280.26 4479.2 2225.81C4478.89 2223.13 4473.9 2222.75 4473.48 2220.09C4471.9 2210.21 4474.34 2200.04 4473.48 2190.07C4473.27 2187.73 4466.57 2181.86 4466.33 2180.06C4465.11 2171.09 4468.68 2161.64 4466.33 2152.9C4465.1 2148.35 4458.03 2147.29 4456.32 2142.89C4450.95 2129.08 4455.73 2102.27 4444.89 2091.43C4443.46 2092.86 4443.46 2092.86 4442.03 2094.29C4436.12 2088.38 4439.39 2079.78 4436.31 2072.85C4431.16 2061.27 4424.59 2047.97 4419.15 2037.11C4415.66 2030.12 4405.42 2021.9 4400.57 2015.66C4372.28 1979.29 4351.6 1941.05 4311.94 1911.3Z" fill="#eff0ef" fill-rule="nonzero" opacity="1" stroke="none"/>
<path d="M4384.84 1622.53C4379.92 1627.45 4343.37 1592.29 4323.37 1595.37C4310.47 1597.36 4314.52 1616.29 4316.23 1623.96C4321.3 1646.82 4329.93 1668.11 4343.39 1688.29C4349.11 1682.57 4349.11 1682.57 4354.82 1676.86C4356.72 1678.76 4379.2 1704.37 4377.7 1706.88C4374.57 1712.09 4371.26 1710.45 4369.12 1716.88C4365.03 1729.15 4400.21 1735.82 4394.85 1748.33C4391.85 1755.35 4373.54 1761.14 4367.69 1764.06C4355.77 1770.02 4343.74 1784 4330.52 1786.93C4316.94 1789.95 4305.28 1791.87 4291.92 1795.51C4285.38 1797.3 4281.91 1804.9 4274.77 1805.52C4262.16 1806.61 4222.71 1804.68 4213.3 1814.09C4217.34 1820.16 4227.51 1817.42 4234.74 1818.38C4239.1 1818.96 4239 1827.6 4243.32 1828.39C4252.45 1830.05 4306.2 1818.4 4310.51 1815.52C4314.49 1812.87 4320.38 1815.94 4324.8 1814.09C4329.5 1812.14 4332.88 1805.88 4337.67 1804.09C4344.71 1801.45 4354.9 1800.87 4361.97 1796.94C4399.55 1776.06 4453.82 1747.61 4474.91 1705.45C4478.6 1698.06 4487.97 1692 4490.63 1684C4495.51 1669.38 4504.87 1653.52 4507.79 1639.69C4512.57 1616.95 4507.62 1599.19 4520.65 1579.65C4530.73 1584.68 4523.91 1592.47 4526.37 1601.09C4532.02 1620.87 4527.83 1652.19 4526.37 1669.71C4525.14 1684.44 4535.39 1703.57 4524.94 1714.03C4523.51 1712.6 4523.51 1712.6 4522.08 1711.17C4519.08 1714.17 4515.38 1759.03 4513.51 1771.21C4512.9 1775.17 4505.69 1780.84 4504.93 1784.07C4503.51 1790.1 4506.07 1796.57 4504.93 1802.66C4504.25 1806.27 4496.57 1815.09 4494.92 1818.38C4478.11 1852.01 4456.02 1887.39 4427.73 1917.02C4421.29 1923.77 4402.69 1947.63 4393.42 1951.33C4381.96 1955.92 4367.3 1926.64 4361.97 1921.31C4328.08 1887.42 4291.25 1861.48 4254.75 1834.11C4245.78 1827.38 4239.18 1854.91 4229.02 1849.83C4218.75 1844.7 4213.35 1831.27 4203.29 1826.96C4191.83 1822.05 4180.88 1819.19 4168.98 1815.52C4159.02 1812.46 4151.99 1799.58 4141.82 1795.51C4121.55 1787.4 4109.59 1793.2 4091.78 1778.36C4088.49 1775.61 4083.03 1779.59 4078.92 1778.36C4072.69 1776.49 4064.06 1767.65 4057.47 1766.92C4043.94 1765.42 4006.1 1759.86 3996 1749.76C4010.07 1732.88 4029.33 1752.17 4043.18 1738.33C4036.41 1731.56 4024.07 1736.82 4014.59 1735.47C4008.3 1734.57 3996.88 1724.86 3990.28 1724.03C3964.52 1720.81 3910.59 1714.95 3887.36 1716.88C3885.11 1717.07 3873.83 1721.83 3871.63 1724.03C3873.06 1725.46 3873.06 1725.46 3874.49 1726.89C3866.88 1738.31 3835.56 1725.46 3821.6 1725.46C3802.98 1725.46 3783.81 1724.03 3765.84 1724.03C3759.94 1724.03 3757.29 1731.19 3751.55 1728.32C3746.32 1733.54 3745.71 1751.43 3741.54 1759.77C3737.15 1768.56 3739.93 1755.04 3732.96 1765.49C3728.59 1772.04 3726.05 1784.92 3722.96 1792.65C3714.78 1813.09 3693.07 1836.48 3678.64 1854.12C3638.16 1903.59 3588.02 1951.2 3534.25 1975.64C3525.92 1979.43 3524.13 1994.34 3517.1 2001.37C3527.23 2016.57 3525.36 2037.47 3532.82 2054.26C3542.11 2075.16 3567.84 2098.44 3585.72 2111.44C3612.84 2131.17 3646.89 2134.41 3678.64 2141.46C3683.22 2142.48 3705 2152.6 3708.66 2152.9C3729.56 2154.64 3750.61 2151.99 3771.56 2152.9C3784.86 2153.48 3797.71 2164.56 3811.59 2165.77C3841.53 2168.37 3847.54 2167.76 3877.35 2171.49C3887.82 2172.79 3907.72 2182.6 3917.38 2184.35C3925.82 2185.89 3934.67 2182.82 3943.11 2184.35C3947.43 2185.14 3947.45 2193.2 3951.69 2194.36C3960.43 2196.74 3970.18 2193.12 3978.85 2195.79C3987.97 2198.59 4000.15 2210.51 4008.87 2211.51C4062.53 2217.7 4114.92 2221.48 4166.12 2212.94C4177.88 2210.98 4190.33 2214.55 4201.86 2211.51C4205.87 2210.46 4213.67 2203.86 4217.59 2201.51C4221.69 2199.04 4227.38 2201.71 4231.88 2200.08C4257.1 2190.91 4305.7 2145.12 4311.94 2118.59C4323.86 2067.93 4321.1 2009.51 4320.51 1955.62C4320.45 1949.73 4312.95 1923.76 4309.08 1919.88C4311.22 1917.02 4311.22 1917.02 4313.37 1914.16C4363.6 1964.4 4423.96 2027.8 4436.31 2095.72C4437.21 2100.65 4446.47 2101.4 4447.75 2107.16C4450.33 2118.78 4449.57 2134.62 4453.46 2145.75C4455.02 2150.21 4462.15 2151.23 4463.47 2155.76C4465.74 2163.54 4462.27 2172.05 4463.47 2180.06C4463.74 2181.85 4470.45 2187.74 4470.62 2190.07C4474.11 2239.01 4480.82 2278.8 4476.34 2325.88C4473.49 2355.81 4474.12 2381.88 4469.19 2410.22C4468.73 2412.88 4464.12 2413.33 4463.47 2415.94C4462.08 2421.49 4465.45 2427.73 4463.47 2433.1C4461.84 2437.52 4455.46 2438.83 4453.46 2443.1C4448.66 2453.4 4456.09 2462.72 4442.03 2467.41C4442.03 2479.21 4415.91 2538.44 4406.29 2534.59C4401 2532.48 4397.15 2492.88 4394.85 2485.99C4392.43 2478.74 4363.65 2456.35 4361.97 2473.12C4358.95 2503.38 4378.34 2519.1 4381.99 2544.6C4382.79 2550.26 4380.01 2556.39 4381.99 2561.76C4383.62 2566.18 4390.28 2567.37 4391.99 2571.76C4395.86 2581.71 4398.88 2607.94 4400.57 2618.94C4400.99 2621.65 4408.47 2623.81 4409.15 2624.66C4413.09 2629.58 4411.37 2647.67 4412.01 2650.39C4412.8 2653.75 4421.22 2659.54 4422.01 2663.26C4424.54 2675.07 4423.95 2692.12 4429.16 2703.28C4431.16 2707.56 4437.74 2708.79 4439.17 2713.29C4443.58 2727.17 4438.38 2739.64 4442.03 2753.32C4445.08 2764.76 4455.94 2779.71 4453.46 2793.35C4452.11 2800.76 4403.07 2812.48 4394.85 2816.22C4365.97 2829.34 4339.23 2842.68 4309.08 2851.96C4296.24 2855.91 4285.74 2868.08 4273.34 2873.4C4265.44 2876.78 4251.84 2878.19 4244.75 2881.98C4239.99 2884.52 4237.99 2890.74 4233.31 2893.41C4227.01 2897.02 4217.78 2896.08 4211.87 2901.99C4185.8 2888.96 4173.42 2866.08 4157.54 2846.24C4140.79 2825.3 4124.61 2803.3 4106.08 2784.77C4094.68 2773.37 4089.26 2754.77 4080.35 2743.31C4069.04 2728.78 4054.54 2713.48 4047.47 2697.56C4040.54 2681.97 4031.87 2668.48 4023.16 2653.25C4020.31 2648.25 4022.03 2642.1 4017.45 2637.52C4013.93 2641.04 4013.23 2641.13 4008.87 2638.95C3995.05 2652.78 4018.72 2666.14 4020.31 2680.41C4021.86 2694.43 4026.24 2693.72 4031.74 2704.71C4039.04 2719.3 4045.86 2736.25 4050.33 2751.89C4051.35 2755.47 4056.27 2756.4 4058.9 2759.04C4065.57 2765.7 4070.09 2778.56 4074.63 2787.63C4055.67 2806.59 3999.69 2810 3971.7 2816.22C3967.83 2817.08 3962.33 2825.06 3958.83 2826.23C3947.31 2830.07 3933.18 2820.43 3923.1 2830.51C3924.53 2831.94 3924.53 2831.94 3925.95 2833.37C3920.86 2838.47 3911.66 2835.28 3904.51 2836.23C3869.67 2840.88 3838.87 2840.83 3803.01 2844.81C3800.33 2845.11 3799.98 2850.29 3797.29 2850.53C3777.36 2852.26 3757.25 2851.44 3737.25 2850.53C3735.91 2850.47 3734.58 2849 3734.39 2847.67C3732.59 2835.05 3759.66 2803.95 3765.84 2793.35C3769.97 2786.26 3774.28 2766.67 3778.71 2760.47C3790.76 2743.6 3798.63 2729.2 3807.3 2711.86C3809.95 2706.56 3825.94 2674.07 3815.88 2671.83C3803.48 2669.08 3788.13 2691.58 3783 2701.85C3769.26 2729.34 3755.4 2759.77 3738.68 2787.63C3734.44 2794.69 3712.95 2823.37 3715.81 2829.08C3699.76 2845.13 3675.17 2910.77 3658.63 2916.29C3658.63 2933.49 3660.18 2934.34 3670.06 2949.17C3688.67 2930.56 3697.48 2908.64 3708.66 2886.27C3709.26 2885.06 3710.17 2883.47 3711.52 2883.41C3732.47 2882.5 3753.47 2884.32 3774.42 2883.41C3788.9 2882.78 3819.15 2878.68 3833.03 2877.69C3834.57 2877.58 3840.08 2872.06 3841.61 2871.97C3874.03 2870.17 3903.62 2871.75 3931.67 2860.53C3941.86 2856.46 3953.88 2861.65 3964.55 2859.11C3967.18 2858.48 3967.68 2854.13 3970.27 2853.39C3996.02 2846.03 4020.44 2841.25 4044.61 2830.51C4050.72 2827.8 4058.28 2831.2 4064.62 2829.08C4073.42 2826.15 4088.25 2816.23 4098.93 2820.51C4107.79 2824.05 4110.7 2836.3 4114.66 2841.95C4129.07 2862.55 4165.14 2885.87 4154.68 2912C4152.77 2916.78 4151.16 2923.85 4146.11 2924.87C4134.89 2927.11 4123.12 2926.48 4111.8 2924.87C4103.29 2923.65 4104.99 2907.84 4103.22 2903.42C4098.39 2891.35 4098.54 2877.79 4097.5 2864.82C4097.39 2863.48 4095.6 2862.92 4094.64 2861.96C4083.94 2872.66 4084.64 2872.15 4084.64 2889.13C4084.64 2920.2 4097.01 2914.81 4104.65 2937.73C4119.16 2937.73 4140.38 2946.65 4153.26 2937.73C4168.6 2927.1 4162.17 2921.12 4174.7 2914.86C4209.18 2949.34 4249.32 2972.55 4300.5 2967.75C4303.18 2967.5 4303.54 2962.37 4306.22 2962.03C4323.25 2959.91 4341.84 2967.2 4357.68 2960.6C4376.79 2952.64 4398.49 2945.89 4416.29 2936.3C4429.72 2929.07 4443.8 2920.34 4456.32 2912C4465.91 2905.61 4473.02 2889.75 4483.48 2886.27C4483.48 2875.82 4486.94 2882.21 4490.63 2874.83C4491.48 2873.13 4490.6 2871.02 4490.63 2869.11C4491.07 2844.33 4492.52 2819.55 4492.06 2794.77C4491.98 2790.44 4490.85 2779.27 4486.34 2774.76C4484.91 2776.19 4484.91 2776.19 4483.48 2777.62C4475.31 2769.45 4480.66 2744.25 4477.77 2734.73C4476.39 2730.22 4469.87 2728.95 4467.76 2724.73C4464.34 2717.89 4469.07 2708.98 4466.33 2701.85C4456.22 2675.58 4448.08 2648.54 4439.17 2621.8C4437.85 2617.85 4431.11 2613.05 4430.59 2608.93C4429.76 2602.31 4432.04 2595.43 4430.59 2588.92C4429.28 2583.03 4422.71 2577.39 4424.87 2571.76C4429.26 2560.36 4441.45 2549.37 4447.75 2538.88C4455.43 2526.08 4463.68 2507.7 4466.33 2493.14C4469.01 2478.41 4485.72 2461.93 4490.63 2448.82C4495.56 2435.67 4494.84 2421.73 4496.35 2407.36C4496.57 2405.24 4501.88 2399.47 4502.07 2397.36C4502.94 2387.39 4500.83 2377.27 4502.07 2367.34C4502.91 2360.61 4508.99 2348.26 4509.22 2341.6C4510.14 2313.98 4510.14 2286.31 4509.22 2258.69C4509 2252.18 4502.65 2239.34 4502.07 2232.96C4499.27 2202.17 4500.8 2175.14 4490.63 2147.18C4485.56 2133.24 4475.34 2116.87 4472.05 2102.87C4470.63 2096.84 4473.47 2090.31 4472.05 2084.28C4469.82 2074.8 4459.34 2064.58 4454.89 2055.69C4452 2049.9 4451.48 2037.91 4447.75 2032.82C4440.36 2022.74 4407.79 1987.66 4406.29 1975.64C4404.45 1960.9 4435.38 1932.58 4447.75 1928.46C4447.75 1919.16 4466.7 1908.28 4472.05 1899.87C4476.67 1892.61 4513.34 1816.44 4520.65 1838.4C4529.19 1838.4 4537.18 1852.44 4544.96 1855.55C4586.53 1872.18 4629.87 1859.07 4622.15 1806.95C4621.51 1802.6 4616.01 1800.6 4613.57 1796.94C4608.45 1802.07 4610.5 1802.87 4603.57 1809.81C4596.4 1804.43 4587.48 1796.04 4580.69 1792.65C4535.27 1769.94 4556.27 1771.19 4590.7 1776.93C4600.59 1778.57 4608.78 1774.07 4617.86 1774.07C4630.01 1774.07 4629.9 1793.84 4643.6 1788.36C4648.54 1786.38 4654.35 1787.42 4659.32 1785.5C4690.21 1773.62 4701.77 1726.45 4677.9 1702.59C4683.98 1696.52 4687.81 1699.81 4693.63 1695.44C4710.99 1682.42 4733.65 1665.65 4749.38 1651.12C4765.92 1635.86 4783.55 1619.67 4796.56 1601.09C4802.07 1593.21 4806.15 1583.53 4815.14 1576.79C4812.94 1572.39 4813.12 1574.81 4816.57 1569.64C4823.72 1575 4820.67 1575.16 4826.58 1581.08C4830.16 1578.69 4837.8 1573.82 4839.45 1571.07C4842.34 1566.25 4841.14 1552.86 4842.3 1548.2C4848.11 1524.97 4863.75 1501.58 4863.75 1475.29C4863.75 1433.83 4863.72 1392.35 4862.32 1350.92C4862.27 1349.57 4859.65 1349.39 4859.46 1348.06C4858.43 1340.86 4855.5 1303.96 4842.3 1302.31C4812.96 1298.64 4804.14 1304.98 4782.26 1306.6C4759.46 1308.29 4736.41 1304.53 4713.64 1308.03C4704.76 1309.4 4693.07 1322.41 4683.62 1323.75C4671.82 1325.44 4658.74 1320.25 4647.88 1325.18C4634.78 1331.14 4619.58 1332.79 4606.43 1338.05C4544.13 1362.97 4463.95 1407.3 4424.87 1472.43C4423.16 1475.28 4423.67 1482.7 4422.01 1485.3C4417.43 1492.49 4403.11 1507.84 4400.57 1516.75C4398.74 1523.16 4401.4 1530.14 4400.57 1536.76C4400.17 1539.99 4392.54 1545.87 4391.99 1548.2C4386.48 1571.62 4387.16 1586.4 4386.27 1613.96C4386.12 1618.64 4382.3 1617.45 4384.84 1622.53Z" fill="#222222" fill-rule="nonzero" opacity="1" stroke="none"/>
<path d="M2958.14 2431.67C2965.25 2424.56 2960.52 2411.69 2961 2401.65C2961.14 2398.6 2966.6 2397.55 2966.72 2394.5C2968.09 2360.22 2965.35 2325.85 2966.72 2291.57C2966.8 2289.55 2969.01 2287.61 2971.01 2287.28C3013.61 2280.18 3055.05 2276.74 3098.24 2271.55C3102.6 2271.03 3109.99 2262.61 3113.96 2261.55C3133.3 2256.39 3151.96 2258.97 3171.15 2252.97C3181.65 2249.69 3193.15 2245.16 3204.03 2241.53C3208.23 2240.13 3212.23 2232.93 3216.89 2231.53C3229.37 2227.78 3240.79 2226.5 3252.63 2222.95C3258.13 2221.3 3260.36 2214.08 3265.5 2211.51C3306.87 2190.83 3344.46 2150.43 3371.28 2112.87C3379.04 2102.01 3387.16 2110.43 3398.45 2105.73C3426.65 2093.97 3441.33 2081.76 3441.33 2047.11C3441.33 2046.05 3440.57 2045.09 3439.9 2044.25C3431.34 2033.55 3421.59 2028.16 3412.74 2017.09C3408.21 2021.62 3411.55 2025.43 3407.02 2029.96C3391.61 2014.54 3347.11 2024.63 3341.26 2007.09C3334.44 2007.09 3297.07 2001.13 3304.09 1987.07C3307.18 1980.9 3319.38 1985.89 3324.11 1987.07C3351.14 1993.83 3368.56 2001.37 3401.3 2001.37C3412.58 2001.37 3419.44 1995.8 3428.47 1992.79C3434.96 1990.63 3440.63 1994.93 3447.05 1991.36C3483.94 1970.87 3520.12 1959.33 3555.7 1935.61C3601.53 1905.05 3643.54 1861.68 3677.21 1818.38C3691.25 1800.33 3697.4 1776.71 3711.52 1759.77C3717.99 1752.01 3727.54 1739.97 3731.53 1731.18C3738.47 1715.91 3753.34 1639.51 3764.41 1633.97C3765.84 1635.4 3765.84 1635.4 3767.27 1636.83C3771.2 1632.9 3768.85 1634.4 3774.42 1632.54C3774.42 1579.97 3765.75 1550.2 3738.68 1509.6C3732.67 1515.61 3736.33 1519.1 3728.67 1526.75C3722.05 1520.12 3709.71 1515.17 3700.08 1518.18C3696.87 1519.18 3696.26 1524.79 3692.94 1525.32C3680.7 1527.3 3668.13 1524.44 3655.77 1525.32C3642.79 1526.25 3622.71 1538.15 3608.59 1535.33C3591.25 1531.86 3616.08 1525.32 3584.29 1525.32C3573.91 1525.32 3553.29 1524.87 3547.12 1531.04C3556.26 1540.18 3568.49 1529.54 3578.57 1539.62C3567.84 1555.72 3541.35 1553.22 3524.25 1559.63C3515.5 1562.91 3508.58 1568.8 3499.94 1572.5C3486.5 1578.26 3468.24 1578.37 3454.2 1586.79C3447.24 1590.97 3441.59 1598.31 3434.18 1601.09C3423.38 1605.14 3430.66 1597.77 3422.75 1602.52C3403.17 1614.26 3377.89 1634.51 3359.85 1652.55C3354.74 1657.66 3331.72 1692.93 3325.54 1688.29C3317.98 1682.62 3324.59 1653.59 3324.11 1645.41C3323.6 1636.75 3314.6 1607.24 3318.39 1599.66C3321.96 1592.52 3323.22 1597.69 3328.4 1592.51C3333.94 1586.97 3328.38 1565.33 3322.68 1559.63C3313.72 1565.6 3323.09 1572.7 3312.67 1579.65C3297.39 1568.18 3278.98 1588.84 3269.79 1601.09C3263.6 1598 3261.48 1595.36 3256.92 1589.65C3247.36 1596.02 3234.32 1606.85 3229.76 1618.24C3228.25 1622.02 3232.31 1633.88 3225.47 1635.4C3212.99 1638.17 3208.96 1627.92 3199.74 1623.96C3194.52 1621.73 3184.09 1623.67 3181.15 1616.81C3177.18 1607.55 3215.57 1543.68 3221.18 1532.47C3226.18 1522.47 3229.22 1499.77 3242.62 1495.3C3242.62 1479.11 3261.19 1459.54 3245.48 1443.84C3239.59 1449.73 3243.5 1458.75 3239.76 1465.28C3231.21 1480.25 3224.6 1495.8 3215.46 1511.03C3195.23 1544.75 3179.44 1578.22 3159.71 1611.1C3153.74 1621.05 3154.57 1637.09 3151.13 1648.27C3149.01 1655.16 3142.36 1652.28 3141.12 1659.7C3137.77 1679.85 3137.37 1698.22 3133.98 1716.88C3128.5 1747.02 3067.73 1737.84 3049.63 1719.74C3025 1695.11 3053.48 1647.82 3031.05 1625.39C3020.43 1636.01 3033.99 1658.24 3016.75 1663.99C3016.75 1675.28 2988.14 1709.19 2979.58 1721.17C2964.71 1741.99 2957.73 1770.4 2943.84 1791.22C2940.93 1795.6 2944.49 1802.11 2942.42 1806.95C2938.64 1815.76 2931.31 1827.94 2930.98 1836.97C2929.6 1875.06 2929.17 1913.25 2930.98 1951.33C2931.11 1954.03 2935.9 1954.47 2936.7 1957.05C2941.21 1971.71 2940.99 1984.24 2945.27 1999.94C2946.1 2002.95 2952.53 2004.34 2953.85 2005.66C2956.87 2008.67 2955.37 2016.61 2956.71 2019.95C2959.29 2026.39 2970.92 2034.92 2973.87 2039.97C2975.88 2043.42 2978.16 2053.55 2981.01 2058.55C2985.13 2065.76 2997.61 2075.14 3002.46 2079.99C3034.9 2112.44 3070.2 2143.28 3111.1 2158.62C3130.43 2165.87 3146.35 2163.54 3168.29 2167.2C3173.47 2168.06 3185.15 2176.8 3189.73 2177.2C3210.16 2179.02 3236.7 2165.56 3251.2 2180.06C3242.33 2197.8 3175.11 2212.77 3155.42 2221.52C3144.14 2226.53 3106.88 2222.88 3098.24 2231.53C3098.95 2232.96 3098.95 2232.96 3099.67 2234.39C3089.18 2244.87 3066.31 2236.65 3052.49 2240.1C3045.3 2241.9 3032.31 2250.7 3025.33 2251.54C3011.61 2253.2 2997.59 2249.88 2983.87 2251.54C2981.2 2251.87 2980.84 2257.08 2978.15 2257.26C2951.04 2259.1 2923.04 2253.53 2896.67 2260.12C2892.86 2261.07 2889.16 2257.43 2885.23 2257.26C2864.29 2256.35 2843.26 2258.59 2822.33 2257.26C2820.31 2257.13 2820.06 2253.15 2818.04 2252.97C2803.81 2251.68 2789.42 2253.86 2775.16 2252.97C2773.81 2252.89 2772.9 2251.32 2772.3 2250.11C2771.71 2248.93 2813.39 2193.5 2815.18 2187.21C2816.49 2182.63 2814.4 2177.62 2815.18 2172.92C2816.95 2162.34 2829.21 2152.86 2829.48 2141.46C2830.41 2101.45 2831.3 2061.37 2829.48 2021.38C2829.39 2019.38 2822.82 2001.86 2820.9 1999.94C2811.78 2007.24 2813.62 2022.57 2813.75 2034.25C2814.12 2065.7 2815.18 2097.14 2815.18 2128.6C2815.18 2133.29 2810.6 2136.91 2809.47 2141.46C2801.58 2173.02 2794.37 2196.05 2775.16 2222.95C2772.23 2227.05 2765.68 2244.33 2759.43 2245.82C2741.08 2250.19 2716.84 2244.02 2700.82 2238.67C2696.65 2237.29 2696.54 2229.59 2692.24 2228.67C2675.92 2225.17 2664.66 2225.89 2649.35 2221.52C2643.03 2219.71 2633.09 2208.62 2627.91 2205.79C2623.64 2203.47 2615.23 2204.93 2610.76 2202.94C2572.79 2186.06 2538.51 2144.21 2520.69 2108.58C2516.59 2100.37 2519.62 2087.06 2517.83 2078.56C2516.66 2072.98 2506.5 2063.38 2506.4 2057.12C2505.94 2028.06 2505.99 1998.98 2506.4 1969.92C2506.62 1954.25 2512.01 1951.54 2517.83 1939.9C2521.24 1933.08 2519.6 1915.03 2520.69 1908.45C2521.79 1901.85 2533.2 1908.81 2534.99 1899.87C2537.03 1889.67 2532.52 1876.31 2537.85 1866.99C2553.81 1839.06 2570.65 1803.43 2596.46 1784.07C2614.59 1770.47 2611.11 1753.94 2636.49 1745.48C2641.29 1743.87 2641.96 1734.2 2646.5 1731.18C2663.38 1719.92 2685.6 1707.27 2700.82 1695.44C2712.94 1686.02 2724.56 1673.56 2737.99 1666.85C2750.42 1660.63 2766.13 1647.61 2779.45 1643.98C2787.58 1641.76 2797.39 1644.62 2803.75 1638.26C2798.04 1632.56 2795.41 1635.64 2788.02 1628.25C2790.22 1623.86 2790.04 1626.28 2786.59 1621.1C2801.35 1606.35 2814.81 1631.92 2835.2 1626.82C2838.47 1626 2839.18 1620.83 2842.35 1619.67C2854.41 1615.29 2877.88 1614.15 2890.95 1613.96C2914.78 1613.61 2938.64 1613.9 2962.43 1612.53C2963.77 1612.45 2964.34 1610.62 2965.29 1609.67C2954.76 1599.14 2937.21 1614.47 2926.69 1603.95C2932.83 1597.81 2926.08 1596.41 2923.83 1589.65C2902.33 1589.65 2904.44 1585.94 2900.96 1566.78C2897.74 1549.1 2921.39 1517.16 2913.82 1509.6C2918.11 1505.31 2918.11 1505.31 2922.4 1501.02C2896.87 1475.49 2873.06 1441.6 2839.49 1426.68C2832.27 1423.47 2822.51 1422.67 2815.18 1419.54C2806.48 1415.81 2788.88 1401.66 2778.02 1408.1C2726.11 1438.86 2719.47 1533.85 2729.41 1581.08C2731.47 1590.88 2755.59 1618.62 2750.85 1629.68C2749.19 1633.57 2717.17 1647.48 2710.83 1652.55C2683.27 1674.6 2651.89 1689.04 2623.62 1712.6C2568.99 1758.12 2523.98 1818.54 2503.54 1879.85C2502.06 1884.28 2494.96 1888.43 2493.53 1892.72C2485.77 1916.01 2485.48 1938.68 2480.67 1962.77C2480.14 1965.41 2475.1 1965.8 2474.95 1968.49C2473.04 2001.37 2469.41 2036.18 2480.67 2067.13C2484.58 2077.88 2479.44 2090.3 2482.1 2101.44C2486.04 2118 2501.81 2135.87 2512.12 2150.04C2526.98 2170.48 2539.81 2197.12 2565.01 2211.51C2574.65 2217.02 2583.58 2224.37 2593.6 2230.1C2596.94 2232 2601.84 2229.4 2605.04 2231.53C2626.23 2245.65 2644.81 2256.09 2670.8 2258.69C2674.45 2259.05 2677.01 2265.11 2679.38 2265.84C2690.74 2269.33 2699.46 2268.06 2710.83 2271.55C2713.4 2272.35 2713.91 2276.69 2716.54 2277.27C2720.63 2278.18 2741.32 2275.92 2747.99 2278.7C2772.03 2288.72 2812.41 2292.34 2838.06 2293C2874.26 2293.93 2910.5 2292.07 2946.7 2293C2948.05 2293.03 2949.53 2294.51 2949.56 2295.86C2950.49 2335.4 2948.63 2374.97 2949.56 2414.51C2949.65 2418.3 2954.91 2428.43 2958.14 2431.67Z" fill="#222222" fill-rule="nonzero" opacity="1" stroke="none"/>
<path d="M4956.67 2207.22C4968.63 2195.26 4992.73 2221.91 5003.85 2224.38C5037.22 2231.8 5082.75 2231.54 5116.78 2224.38C5127.11 2222.21 5138.37 2212.86 5148.23 2207.22C5239.54 2155.05 5182.33 2040.25 5106.77 1997.08C5075.45 1979.18 5052.34 1980.59 5012.42 1977.06C5009.1 1976.77 4997.99 1968.58 4993.84 1971.35C4982.79 1978.71 4933.65 2029.81 4918.07 2014.23C4927.55 2004.75 4977.75 1984.3 4979.54 1969.92C4986.73 1912.38 4969.55 1874.55 4923.79 1848.4C4917.98 1845.08 4907.63 1835.82 4900.92 1835.54C4859.23 1833.8 4825.5 1835.09 4789.41 1844.12C4747.82 1854.51 4699.43 1902.99 4685.05 1941.33C4680.37 1953.81 4689.24 1990.48 4679.33 1997.08C4643.63 2020.88 4604.03 2042.2 4570.69 2069.99C4562.68 2076.66 4534.32 2086.36 4537.81 2098.58C4538.4 2100.63 4592.03 2119.03 4594.99 2120.02C4657.06 2140.71 4713.72 2171.1 4775.12 2188.64C4777.69 2189.38 4780.6 2237.08 4783.69 2248.68C4796.02 2294.9 4819.43 2363.25 4873.75 2378.77C4920.36 2392.09 4985.63 2382.42 5019.57 2350.18C5031.16 2339.17 5044.42 2331.78 5045.3 2317.3C5046.2 2302.56 5045.74 2287.75 5045.3 2272.98C5045.26 2271.48 5044.75 2269.92 5043.87 2268.7C5020.98 2236.64 4985.99 2230.68 4956.67 2207.22Z" fill="#d4e8af" fill-rule="nonzero" opacity="1" stroke="none"/>
<path d="M3254.06 2184.35C3253.35 2182.92 3253.35 2182.92 3252.63 2181.49C3254.77 2179.35 3254.77 2179.35 3256.92 2177.2C3244.43 2164.72 3221.59 2176.15 3204.03 2174.34C3201.34 2174.07 3200.95 2169.15 3198.31 2168.63C3189.32 2166.83 3180.25 2165.43 3171.15 2164.34C3160.74 2163.09 3150.14 2165.21 3139.69 2164.34C3136.81 2164.1 3136.07 2157.71 3133.98 2157.19C3111.9 2151.67 3104.34 2149.14 3085.37 2138.61C3074.28 2132.44 3053.14 2130.54 3048.2 2115.73C3035.71 2115.73 3012.45 2087.13 3005.32 2079.99C2984.24 2058.92 2960.68 2022.17 2948.13 1997.08C2945.57 1991.95 2948.72 1985.3 2946.7 1979.92C2945.91 1977.81 2939.75 1971.52 2939.56 1969.92C2938.31 1959.51 2941.15 1948.83 2939.56 1938.47C2939.15 1935.8 2933.99 1935.44 2933.84 1932.75C2932.04 1900.87 2932.47 1868.87 2933.84 1836.97C2934.13 1830.17 2935.72 1815.85 2945.27 1812.67C2945.27 1764.91 2997.61 1704.23 3025.33 1665.42C3034.57 1652.49 3023.95 1622.48 3033.91 1612.53C3025.17 1603.79 2976 1609.14 2962.43 1609.67C2939.1 1610.58 2915.73 1609.33 2892.38 1609.67C2857.83 1610.16 2859.08 1617.38 2832.34 1626.82C2821.69 1630.58 2820.24 1623.58 2810.9 1628.25C2804.07 1631.66 2798.45 1639.86 2790.88 1641.12C2779.44 1643.02 2773.3 1642.58 2763.72 1646.84C2740.85 1657 2717.97 1677.02 2697.96 1692.58C2681.65 1705.27 2652 1713.85 2640.78 1734.04C2635.64 1743.29 2656.72 1751.09 2662.22 1755.48C2686.13 1774.61 2711.88 1795.69 2730.84 1819.81C2751.69 1846.36 2763.92 1875.56 2779.45 1902.73C2783.63 1910.05 2794.37 1920.29 2796.6 1928.46C2799.5 1939.11 2799.97 1950.95 2803.75 1961.34C2805.63 1966.51 2812.15 1971.71 2813.75 1977.06C2831.32 2035.61 2831.39 2105.71 2818.04 2165.77C2813.31 2187.05 2797.8 2204.83 2788.02 2224.38C2783.9 2232.63 2766.03 2242.76 2769.44 2252.97C2774.27 2267.46 2799.97 2254.45 2815.18 2255.83C2817.2 2256.01 2817.45 2259.99 2819.47 2260.12C2841.35 2261.46 2863.33 2259.21 2885.23 2260.12C2932.93 2262.11 3019.6 2263.94 3066.79 2242.96C3076.38 2238.7 3087.95 2243.59 3098.24 2241.53C3103.2 2240.54 3104.69 2232.43 3109.67 2231.53C3132.39 2227.4 3143.06 2228.42 3162.57 2218.66C3174.1 2212.89 3189.04 2214.54 3201.17 2211.51C3215.41 2207.95 3225.9 2196.98 3238.33 2190.07C3244.1 2186.87 3248.83 2189.59 3254.06 2184.35Z" fill="#eff0ef" fill-rule="nonzero" opacity="1" stroke="none"/>
<path d="M2640.78 1731.18C2630.09 1741.87 2612.27 1771.18 2595.03 1776.93C2595.03 1784.45 2552.85 1828.41 2547.86 1838.4C2541 1852.1 2533.82 1869.97 2530.7 1885.57C2529.9 1889.56 2533.96 1895.28 2532.13 1899.87C2529.78 1905.75 2518.94 1899.82 2517.83 1907.02C2517.27 1910.7 2518.17 1932.24 2514.98 1937.04C2506.97 1949.05 2505.2 1951.9 2504.97 1968.49C2504.56 1998.03 2503.54 2027.57 2503.54 2057.12C2503.54 2060.96 2508.45 2063.37 2509.26 2067.13C2513.58 2087.31 2516.95 2135.93 2542.14 2144.32C2542.14 2157.66 2573.71 2181.24 2582.17 2188.64C2587.91 2193.67 2600.92 2203.26 2607.9 2205.79C2612.67 2207.53 2620.63 2205.71 2625.05 2208.65C2651.4 2226.22 2679.84 2231.68 2709.4 2241.53C2720.12 2245.11 2750.42 2256.16 2762.29 2247.25C2769.97 2241.49 2773.24 2229.63 2778.02 2222.95C2796.39 2197.23 2816.17 2162.3 2816.61 2130.03C2817.04 2098.58 2818.04 2067.13 2818.04 2035.68C2818.04 2024.2 2812.79 2009.48 2820.9 2001.37C2816.49 1992.54 2818.97 1983.65 2816.61 1974.21C2815.6 1970.14 2807.96 1965.07 2806.61 1961.34C2802.89 1951.13 2802.61 1938.97 2799.46 1928.46C2797.1 1920.6 2786.45 1909.98 2782.3 1902.73C2771.29 1883.45 2757.97 1859.76 2749.42 1838.4C2746.02 1829.87 2722 1808.73 2717.97 1804.09C2695.02 1777.61 2663.95 1754.35 2640.78 1731.18Z" fill="#eedfc0" fill-rule="nonzero" opacity="1" stroke="none"/>
<path d="M3614.31 2192.93C3606.95 2200.29 3596.11 2191.31 3587.15 2195.79C3563.34 2207.69 3541.7 2221.22 3521.39 2241.53C3459.62 2303.3 3494.76 2397.88 3555.7 2447.39C3562.37 2452.81 3576.25 2464.89 3584.29 2467.41C3590.8 2469.44 3599.48 2466.87 3604.3 2471.69C3612.94 2467.37 3598.15 2473.7 3612.88 2474.55C3635.72 2475.87 3658.69 2476.31 3681.5 2474.55C3684.19 2474.35 3684.64 2469.63 3687.22 2468.83C3704.22 2463.6 3695.57 2474.05 3711.52 2467.41C3733.06 2458.43 3761.46 2439.15 3777.28 2418.8C3781.69 2413.13 3780.9 2405.78 3783 2398.79C3784.07 2395.22 3791.07 2395.33 3791.58 2391.64C3797.67 2346.92 3786.51 2298.92 3751.55 2270.13C3739.98 2260.6 3720.39 2259.5 3708.66 2250.11C3677.35 2225.06 3666.56 2201.4 3614.31 2192.93Z" fill="#222222" fill-rule="nonzero" opacity="1" stroke="none"/>
<path d="M4519.22 1576.79C4502.87 1593.14 4508.9 1615.65 4504.93 1636.83C4497.45 1676.7 4462.26 1722.69 4430.59 1751.19C4420.55 1760.23 4404.8 1764.71 4393.42 1771.21C4361.99 1789.17 4331.46 1809.57 4296.21 1818.38C4283.34 1821.6 4246.13 1818.48 4240.46 1829.82C4252.92 1842.28 4284.72 1849.66 4290.49 1866.99C4300.32 1866.99 4305.64 1879.5 4313.37 1885.57C4335.76 1903.17 4358.89 1919.59 4376.27 1942.76C4379.44 1946.98 4385.05 1959.21 4393.42 1954.19C4415.53 1940.93 4433.97 1914.59 4449.17 1895.58C4466.67 1873.71 4488.65 1850.62 4494.92 1825.53C4496.51 1819.16 4506.43 1811.64 4507.79 1805.52C4513.96 1777.72 4516.69 1747.68 4529.23 1722.6C4537.12 1706.83 4528.53 1687.33 4529.23 1669.71C4530.11 1647.79 4533.04 1625.87 4532.09 1603.95C4531.61 1592.84 4529.45 1581.9 4519.22 1576.79Z" fill="#eff0ef" fill-rule="nonzero" opacity="1" stroke="none"/>
<path d="M3344.12 2833.37C3337.97 2839.52 3340.85 2850.47 3339.83 2859.11C3339.16 2864.81 3324.29 2867.5 3321.25 2870.54C3324.82 2874.12 3324.82 2874.12 3328.4 2877.69C3326.97 2879.12 3326.97 2879.12 3325.54 2880.55C3347.54 2902.55 3339.19 2917.62 3346.98 2944.88C3351.33 2960.1 3371.13 2978.01 3381.29 2989.2C3420.58 3032.41 3540.47 3015.87 3594.3 3014.93C3605.92 3014.72 3615.12 3011.87 3624.32 3007.78C3649.98 2996.37 3656.07 2966.02 3672.92 2949.17C3666.27 2942.51 3660.46 2934.86 3654.34 2927.72C3649.32 2932.74 3652.32 2929.53 3645.76 2937.73C3630.43 2930.07 3603.02 2934.66 3590.01 2933.44C3582.28 2932.72 3567.07 2922.98 3559.99 2922.01C3522.59 2916.85 3515.02 2920.92 3475.64 2916.29C3472.97 2915.97 3472.57 2911.07 3469.92 2910.57C3461.97 2909.05 3453.52 2912.36 3445.62 2910.57C3442.34 2909.82 3441.82 2903.83 3438.47 2903.42C3421.44 2901.35 3404.08 2905.13 3387.01 2903.42C3384.33 2903.15 3383.87 2898.5 3381.29 2897.7C3377.19 2896.44 3372.64 2898.47 3368.43 2897.7C3361.54 2896.45 3367.57 2887.72 3367 2884.84C3362.29 2861.29 3364.14 2823.95 3364.14 2797.63C3364.14 2788.76 3374.07 2761.14 3364.14 2756.18C3356.56 2752.39 3358.42 2767.5 3358.42 2770.47C3358.42 2799.06 3359.78 2827.69 3358.42 2856.25C3358.31 2858.46 3353.86 2861.83 3351.27 2860.53C3343.33 2856.56 3350.93 2840.18 3344.12 2833.37Z" fill="#000000" fill-rule="nonzero" opacity="1" stroke="none"/>
<path d="M3148.27 1658.27C3149.7 1658.99 3149.7 1658.99 3151.13 1659.7C3163.29 1647.54 3153.13 1620.54 3165.43 1608.24C3166.86 1608.95 3166.86 1608.95 3168.29 1609.67C3174.23 1603.72 3180.75 1577.9 3182.58 1569.64C3183.58 1565.16 3192.92 1556.91 3195.45 1552.48C3207.89 1530.71 3228.81 1501 3236.91 1476.72C3239.4 1469.25 3256.18 1439.54 3241.19 1435.26C3231.51 1432.49 3214.04 1451.7 3205.45 1453.84C3171.49 1462.34 3118.27 1518.16 3093.95 1542.48C3070.79 1565.63 3058.42 1601.82 3049.63 1631.11C3048.58 1634.61 3040.23 1640.8 3039.63 1643.98C3036.44 1660.67 3033.57 1698.46 3039.63 1712.6C3053.54 1745.06 3102.66 1741.54 3126.83 1731.18C3146.32 1722.83 3136.51 1670.03 3148.27 1658.27Z" fill="#eedfc0" fill-rule="nonzero" opacity="1" stroke="none"/>
<path d="M3314.1 2909.14C3305.57 2900.61 3296.09 2884.26 3284.08 2896.27C3266.7 2878.89 3237.71 2866.69 3219.75 2850.53C3188.28 2822.2 3153.86 2800.23 3121.11 2774.76C3106.72 2763.57 3060.33 2743.57 3052.49 2729.02C3047.2 2719.19 3060.45 2714.65 3063.93 2709C3066.94 2704.11 3064.56 2692.34 3066.79 2687.56C3068.3 2684.32 3087.35 2654.34 3086.8 2653.25C3085.58 2650.8 3079.15 2647.49 3078.22 2646.1C3074.64 2640.72 3082.61 2642.58 3075.36 2638.95C3063.43 2632.99 3057.33 2669.3 3055.35 2673.26C3051.81 2680.35 3044.9 2684 3041.06 2690.42C3038.79 2694.19 3039.93 2700.82 3038.2 2704.71C3036.41 2708.73 3030.15 2709.36 3028.19 2713.29C3018.92 2731.83 3016.67 2763.61 3018.18 2784.77C3019.47 2802.74 3057.43 2832.18 3069.65 2843.38C3123.77 2892.99 3247.9 2975.34 3314.1 2909.14Z" fill="#000000" fill-rule="nonzero" opacity="1" stroke="none"/>
<path d="M4673.62 1932.75C4673.62 1947.48 4671.66 1975.13 4670.76 1985.64C4669.89 1995.77 4644.22 2003.46 4637.88 2007.09C4607.21 2024.61 4584.99 2052.01 4553.53 2069.99C4543.73 2075.59 4522.25 2085.42 4516.36 2095.72C4514.58 2098.85 4567.39 2127.7 4570.69 2128.6C4587.09 2133.07 4602.2 2133.56 4616.43 2141.46C4623.44 2145.36 4630.4 2152.19 4637.88 2154.33C4642.46 2155.64 4647.65 2152.82 4652.17 2154.33C4665.8 2158.87 4678.31 2172.93 4692.2 2177.2C4702.48 2180.37 4710.93 2179.33 4720.79 2182.92C4732.84 2187.3 4743.42 2196.83 4755.1 2201.51C4758.75 2202.97 4763.76 2201.59 4766.54 2204.37C4771.8 2199.1 4773.93 2195.55 4779.4 2190.07C4767.99 2178.66 4753.5 2179.39 4739.38 2174.34C4731.78 2171.63 4724.17 2164.27 4716.5 2161.48C4691.79 2152.49 4665.67 2147.5 4642.17 2135.75C4630.16 2129.75 4588.42 2120.33 4584.98 2110.01C4580.95 2110.01 4535.76 2102.47 4540.67 2094.29C4553 2073.74 4607.4 2050.01 4627.87 2035.68C4636.46 2029.66 4643.34 2018.34 4653.6 2014.23C4661.81 2010.95 4682.62 2002.05 4687.91 1992.79C4690.2 1988.78 4682.96 1976.68 4683.62 1971.35C4685.27 1958.13 4689.28 1943.02 4692.2 1929.89C4693.92 1922.15 4713.52 1903.4 4716.5 1899.87C4741.51 1870.32 4780.18 1845.03 4816.57 1839.83C4882.53 1830.4 4949.01 1841.41 4975.25 1907.02C4982.69 1925.6 4978.05 1947.08 4976.68 1967.06C4976.18 1974.48 4967.65 1978.95 4962.39 1984.21C4958.85 1987.75 4898.43 2014.49 4916.64 2019.95C4933.73 2025.08 4963.88 2002.76 4976.68 1994.22C4982.77 1990.16 4987.86 1977.2 4993.84 1974.21C4998.88 1971.69 5008.36 1979.68 5012.42 1979.92C5045.05 1981.9 5059.86 1980.01 5085.33 1988.5C5133.4 2004.52 5205.91 2089.43 5192.55 2142.89C5191.2 2148.29 5185.63 2153.63 5183.97 2158.62C5179.81 2171.1 5182.05 2180.34 5171.1 2190.07C5148.27 2210.36 5123.62 2217.17 5095.34 2221.52C5090.99 2222.19 5081.5 2229.72 5078.18 2230.1C5062.53 2231.89 5042.15 2221.82 5031.01 2232.96C5035.44 2237.39 5043.61 2233.95 5049.59 2235.82C5052.81 2236.82 5053.39 2242.6 5056.74 2242.96C5076.16 2245.07 5095.89 2244.69 5115.35 2242.96C5121.99 2242.37 5137.59 2233.27 5143.94 2230.1C5204.75 2199.7 5211.36 2168.48 5205.41 2097.15C5205.07 2093.02 5199.4 2091.12 5198.27 2087.14C5191.98 2065.13 5182.72 2055.58 5168.24 2035.68C5124.37 1975.35 5068.58 1967.53 4999.56 1962.77C4998.21 1962.68 4996.78 1961.26 4996.7 1959.91C4995.81 1945.64 4998.37 1931.22 4996.7 1917.02C4995.99 1911.04 4992.16 1905.78 4990.98 1899.87C4985.93 1874.62 4939.82 1839.14 4918.07 1829.82C4869.15 1808.85 4765.14 1828.35 4725.08 1868.42C4712.45 1881.04 4699.68 1892.25 4689.34 1907.02C4683.83 1914.89 4684.04 1929.27 4673.62 1932.75Z" fill="#453f38" fill-rule="nonzero" opacity="1" stroke="none"/>
<path d="M3082.51 2657.54C3078.13 2661.92 3047.87 2723.07 3049.63 2731.87C3051.15 2739.44 3094.63 2759.58 3101.1 2764.75C3151.03 2804.7 3203.87 2840.68 3255.49 2881.98C3263.25 2888.18 3276.99 2892.04 3284.08 2899.13C3288.73 2894.48 3291.46 2898.27 3296.95 2894.84C3304.1 2890.38 3309.01 2883.03 3315.53 2877.69C3321.88 2872.49 3336.97 2873.17 3336.97 2861.96C3336.97 2851.95 3335.98 2841.95 3335.55 2831.94C3335.33 2827.04 3338.74 2822.96 3336.97 2817.65C3334.61 2810.54 3278.81 2795.39 3269.79 2791.92C3252.59 2785.3 3242.87 2772.91 3226.9 2763.32C3202.74 2748.83 3173.01 2732.22 3151.13 2714.72C3129.36 2697.3 3107.86 2670.21 3082.51 2657.54Z" fill="#eff0ef" fill-rule="nonzero" opacity="1" stroke="none"/>
<path d="M3950.26 2884.84C3955.72 2888.48 3953.83 2941.3 3970.27 2957.75C3985.97 2973.44 4021.42 2956.97 4023.16 2937.73C4024.03 2928.24 4024.03 2918.63 4023.16 2909.14C4022.33 2899.95 3998.69 2892.15 4008.87 2881.98C4044.36 2899.72 4012.92 2919.36 4060.33 2913.43C4062.7 2913.13 4086.01 2916.47 4088.92 2906.28C4092.58 2893.47 4081.49 2877.98 4091.78 2867.68C4099.75 2875.65 4094.99 2906.8 4103.22 2919.15C4116.9 2939.67 4156.83 2932.4 4160.4 2909.14C4164.3 2883.84 4132.59 2857.52 4117.52 2839.09C4112.76 2833.28 4106.8 2818.36 4098.93 2817.65C4085.03 2816.38 4073.77 2822.22 4061.76 2826.23C4054.97 2828.49 4047.01 2825.08 4040.32 2827.65C4012.75 2838.26 3982.55 2847.63 3954.55 2856.25C3939.51 2860.87 3922.86 2854.91 3907.37 2857.68C3904.72 2858.15 3904.31 2862.93 3901.65 2863.39C3892.73 2864.95 3883.41 2861.84 3874.49 2863.39C3871.83 2863.86 3871.43 2868.65 3868.77 2869.11C3858.35 2870.93 3840.67 2863.36 3837.32 2873.4C3834.19 2882.79 3852.86 2886.89 3857.34 2889.13C3882.81 2901.86 3905.65 2907.24 3934.53 2913.43C3938.42 2914.26 3935.79 2918.2 3940.25 2916.29C3956.16 2909.47 3939.92 2895.18 3950.26 2884.84Z" fill="#eedfc0" fill-rule="nonzero" opacity="1" stroke="none"/>
<path d="M3407.02 2032.82C3424.37 2015.47 3432.01 2022.06 3455.63 2017.09C3465.39 2015.04 3481.58 2007.78 3491.37 2004.23C3497.87 2001.86 3506.19 1990.11 3514.24 1992.79C3517.34 1993.82 3517.7 1999.11 3519.96 2001.37C3522.1 1999.22 3522.1 1999.22 3524.25 1997.08C3525.68 1997.79 3525.68 1997.79 3527.11 1998.51C3533.74 1991.88 3525.02 1983.23 3535.68 1978.49C3547 1973.46 3538.7 1983.22 3548.55 1977.06C3605.25 1941.63 3655.88 1887.22 3697.22 1835.54C3709.93 1819.66 3743.88 1745.65 3757.27 1741.19C3757.27 1729.16 3754.91 1733.54 3761.55 1726.89C3778.61 1735.42 3799.68 1727.79 3818.74 1728.32C3831.17 1728.67 3883.88 1739.95 3877.35 1726.89C3893.13 1711.11 3922.02 1732.26 3937.39 1716.88C3936.44 1715.93 3935.88 1714.07 3934.53 1714.03C3908.82 1713.11 3883.05 1714.94 3857.34 1714.03C3855.99 1713.98 3855.82 1711.21 3854.48 1711.17C3827.81 1710.25 3801.07 1712.52 3774.42 1711.17C3767.61 1710.82 3769.23 1697.92 3770.13 1691.15C3772.17 1675.88 3783.56 1644.54 3770.13 1631.11C3768.7 1632.54 3768.7 1632.54 3767.27 1633.97C3759.94 1626.63 3752.54 1640.19 3750.12 1646.84C3747.02 1655.36 3750.07 1665.04 3748.69 1674C3746.25 1689.87 3735.55 1715.95 3728.67 1728.32C3695.01 1788.92 3655.38 1845.9 3600.01 1897.01C3548.47 1944.59 3482.41 1979.66 3418.46 1995.65C3402.25 1999.7 3385.13 1998.51 3368.43 1998.51C3365.17 1998.51 3289.87 1965.82 3301.24 1994.22C3305.62 2005.18 3325.36 2005.13 3332.69 2008.52C3343.75 2013.62 3355.97 2021.91 3368.43 2024.24C3389.84 2028.26 3389.95 2021.44 3407.02 2032.82Z" fill="#000000" fill-rule="nonzero" opacity="1" stroke="none"/>
<path d="M2981.01 2450.25C2979.84 2451.43 2967.75 2462.88 2966.72 2465.98C2962.32 2479.17 2978.33 2493.95 2981.01 2506C2987.97 2537.31 3017.46 2577.29 3038.2 2603.21C3047.65 2615.04 3056.94 2638.32 3069.65 2644.67C3071.08 2643.24 3071.08 2643.24 3072.51 2641.81C3076.81 2646.11 3085.3 2653.38 3082.51 2658.97C3106.72 2683.18 3135.34 2703.95 3161.14 2723.3C3180.78 2738.02 3197.41 2756.94 3219.75 2763.32C3231.91 2766.8 3240.15 2783.88 3252.63 2787.63C3264.04 2791.05 3270.95 2794.63 3281.22 2800.49C3286.2 2803.34 3293.24 2799.36 3298.38 2801.92C3302.6 2804.03 3304.23 2809.69 3308.38 2811.93C3316.94 2816.54 3327.43 2807.37 3334.12 2819.08C3339.06 2827.73 3323.7 2880.95 3344.12 2860.53C3346.27 2862.68 3346.27 2862.68 3348.41 2864.82C3350.56 2863.39 3350.56 2863.39 3352.7 2861.96C3359.87 2869.14 3351.24 2879.09 3358.42 2886.27C3359.37 2885.31 3361.24 2884.76 3361.28 2883.41C3362.21 2845.77 3361.28 2808.12 3361.28 2770.47C3361.28 2761.24 3362.93 2764.32 3367 2756.18C3370.07 2750.03 3365.57 2732.96 3365.57 2727.59C3365.57 2693.75 3365.57 2659.92 3365.57 2626.09C3365.57 2617.25 3371 2614.47 3359.85 2607.5C3355.58 2604.83 3348.58 2612.78 3348.41 2614.65C3346.25 2638.86 3349.33 2663.27 3348.41 2687.56C3348.25 2691.81 3342.26 2699.29 3341.26 2703.28C3335.25 2727.34 3338.4 2752.82 3338.4 2777.62C3338.4 2779.58 3340.16 2781.4 3339.83 2783.34C3339.25 2786.86 3333.2 2787.17 3331.26 2786.2C3313.76 2777.45 3295.04 2774.23 3276.93 2766.18C3258.67 2758.07 3246.34 2742.31 3228.33 2733.3C3168.22 2703.25 3098.19 2645.92 3058.21 2587.49C3044.14 2566.93 3024.8 2538.71 3016.75 2514.58C3015.01 2509.34 3007.16 2507.24 3005.32 2501.71C3001.42 2490.04 2992.82 2478.7 2989.59 2467.41C2988 2461.83 2990.83 2454.35 2986.73 2450.25C2985.3 2451.68 2985.3 2451.68 2983.87 2453.11C2982.44 2451.68 2982.44 2451.68 2981.01 2450.25Z" fill="#222222" fill-rule="nonzero" opacity="1" stroke="none"/>
<path d="M3538.54 1702.59C3549.01 1723.52 3585.41 1721.98 3598.58 1748.33C3607.13 1765.42 3586.25 1778.24 3572.85 1781.21C3542.82 1787.89 3515.56 1783.69 3488.51 1776.93C3487.7 1776.72 3468.72 1773.38 3467.06 1778.36C3461.93 1793.77 3519.8 1812.55 3502.8 1831.25C3483.33 1852.68 3437.71 1858.57 3409.88 1846.97C3402.76 1844.01 3386.3 1822.31 3377 1826.96C3363.87 1833.53 3379.52 1853.78 3385.58 1859.84C3382.32 1864.19 3382.85 1870.36 3381.29 1875.57C3377.63 1887.76 3344.67 1905 3332.69 1897.01C3325.62 1892.3 3324.49 1886.68 3321.25 1881.28C3319.17 1877.82 3313.49 1876.67 3312.67 1872.71C3309.83 1858.98 3321.12 1842.2 3306.95 1834.11C3294.73 1827.13 3297.68 1855.49 3298.38 1877C3298.96 1895.22 3320.27 1912.47 3335.55 1914.16C3359.91 1916.87 3387.06 1904.51 3397.02 1881.28C3399.41 1875.7 3397.91 1868.35 3401.3 1862.7C3405.5 1855.7 3424.26 1861.35 3428.47 1865.56C3438.48 1860.55 3454.59 1872.51 3465.64 1866.99C3474.96 1862.33 3485.97 1864.68 3495.66 1859.84C3508.69 1853.32 3512.53 1841.54 3521.39 1832.68C3518.05 1826 3516.19 1803.59 3522.82 1799.8C3525.53 1798.25 3539.21 1801.23 3542.83 1801.23C3571.61 1801.23 3602.9 1796.89 3615.74 1766.92C3628.71 1736.66 3554.43 1686.7 3538.54 1702.59Z" fill="#000000" fill-rule="nonzero" opacity="1" stroke="none"/>
<path d="M3021.04 1439.55C2978.11 1440.48 2933.28 1499.28 2915.25 1535.33C2911.79 1542.25 2893.08 1585.95 2905.25 1586.79C2924.26 1588.12 2943.37 1587.25 2962.43 1586.79C2969.28 1586.63 2982.18 1587.29 2988.16 1586.79C2995.51 1586.18 2996.89 1526.3 3001.03 1513.89C3006.06 1498.79 3036.44 1439.21 3021.04 1439.55Z" fill="#eedfc0" fill-rule="nonzero" opacity="1" stroke="none"/>
<path d="M3329.83 1573.93C3327.05 1576.71 3328.72 1581.85 3326.97 1585.36C3324.24 1590.82 3318.73 1594.46 3315.53 1599.66C3313.84 1602.4 3321.25 1653.91 3321.25 1659.7C3321.25 1667.54 3317.97 1678.03 3319.82 1685.43C3322.4 1695.77 3333.36 1691.91 3338.4 1686.86C3337.69 1685.43 3337.69 1685.43 3336.97 1684C3356.72 1664.26 3375.56 1637.79 3398.45 1622.53C3405.66 1617.72 3419.62 1615.65 3425.61 1609.67C3424.89 1608.24 3424.89 1608.24 3424.18 1606.81C3431.09 1599.89 3445.73 1599.08 3455.63 1595.37C3462.78 1592.69 3470.19 1582.42 3478.5 1579.65C3497.22 1573.41 3515.66 1564.95 3534.25 1559.63C3545.18 1556.51 3576.83 1554.53 3582.86 1542.48C3587.47 1533.26 3568.39 1530.24 3549.98 1531.04C3539.44 1531.5 3531.99 1541.16 3522.82 1543.91C3500.58 1550.58 3477.11 1553.9 3457.06 1563.92C3431.52 1576.69 3399.88 1593.22 3378.43 1611.1C3378.41 1611.12 3341.17 1651.84 3339.83 1641.12C3337.22 1620.23 3345.78 1589.88 3329.83 1573.93Z" fill="#000000" fill-rule="nonzero" opacity="1" stroke="none"/>
<path d="M3991.71 1748.33C4003.78 1760.4 4040.56 1768.09 4057.47 1769.78C4063.88 1770.42 4070.39 1779.47 4076.06 1781.21C4081.07 1782.76 4087.1 1778.87 4091.78 1781.21C4097.02 1783.83 4093.87 1789.37 4100.36 1791.22C4114.3 1795.2 4127.69 1795.54 4141.82 1798.37C4149.49 1799.9 4157.49 1815.73 4166.12 1818.38C4181.75 1823.19 4212.53 1828.96 4219.02 1848.4C4237.6 1848.4 4235.67 1855.27 4250.47 1835.54C4238.88 1823.95 4238.06 1819.35 4247.61 1809.81C4239.16 1801.36 4223.69 1808.7 4211.87 1806.95C4209.32 1806.57 4199.98 1796.58 4197.57 1795.51C4187.09 1790.85 4175.42 1785.51 4164.69 1781.21C4146.58 1773.97 4119.96 1757.77 4103.22 1754.05C4084.74 1749.95 4069.85 1750.8 4051.76 1745.48C4047.54 1744.24 4046.14 1736.9 4041.75 1736.9C4028.87 1736.9 4015.86 1736.28 4003.15 1738.33C3998.15 1739.13 3995.77 1745.3 3991.71 1748.33Z" fill="#000000" fill-rule="nonzero" opacity="1" stroke="none"/>
<path d="M3229.76 1429.54C3223.37 1435.93 3191.53 1448.02 3181.15 1450.99C3176.93 1452.19 3175.95 1458.18 3172.57 1460.99C3150.7 1479.22 3122.75 1492.24 3099.67 1515.32C3086.82 1528.17 3064.29 1547.2 3058.21 1563.92C3056.54 1568.52 3051.79 1590.21 3043.91 1591.08C3032.07 1592.4 3019.81 1588.54 3008.18 1591.08C3003.57 1592.09 3002.85 1600.49 2998.17 1601.09C2975.48 1603.98 2952.42 1601.09 2929.55 1601.09C2923.69 1601.09 2919.61 1599.59 2915.25 1603.95C2925.37 1614.06 3005.93 1609.76 3025.33 1612.53C3033.06 1613.63 3034.77 1666.28 3039.63 1671.14C3045.73 1665.04 3040.79 1653.87 3042.48 1645.41C3043.48 1640.44 3051.35 1638.91 3052.49 1633.97C3053.46 1629.79 3051.72 1625.32 3052.49 1621.1C3056.04 1601.59 3095.19 1540.63 3112.53 1526.75C3132.34 1510.91 3164.15 1474.94 3188.3 1465.28C3203.04 1459.38 3231.58 1447.73 3242.62 1436.69C3238.23 1430.09 3234.91 1434.7 3229.76 1429.54Z" fill="#453f38" fill-rule="nonzero" opacity="1" stroke="none"/>
<path d="M4777.97 2188.64C4757.21 2209.4 4771.45 2230.72 4772.26 2257.26C4772.46 2263.94 4772.45 2270.7 4773.69 2277.27C4774.37 2280.93 4779.85 2282.26 4780.83 2285.85C4793.57 2332.55 4817.67 2380.71 4872.33 2391.64C4889.67 2395.11 4930.58 2410.58 4946.66 2394.5C4945.23 2393.07 4945.23 2393.07 4943.8 2391.64C4944.52 2390.21 4944.52 2390.21 4945.23 2388.78C4932.21 2375.76 4909.29 2379.89 4890.91 2378.77C4873.21 2377.7 4839.83 2358.16 4828.01 2341.6C4815.45 2324.01 4806.88 2307.39 4800.85 2287.28C4799.51 2282.83 4792.59 2276.7 4792.27 2271.55C4791.85 2264.9 4793.72 2258.05 4792.27 2251.54C4791.69 2248.91 4786.96 2248.49 4786.55 2245.82C4785.13 2236.6 4786.83 2197.5 4777.97 2188.64Z" fill="#222222" fill-rule="nonzero" opacity="1" stroke="none"/>
<path d="M4953.81 2205.79C4959.55 2212.11 4970.28 2225.46 4979.54 2230.1C5001.32 2240.98 5021.28 2243.42 5035.3 2265.84C5037.08 2268.69 5041.98 2269.65 5042.44 2272.98C5044.48 2287.62 5043.34 2302.56 5042.44 2317.3C5042.26 2320.31 5040.77 2323.11 5039.58 2325.88C5033.2 2340.76 5016.27 2346.34 5006.7 2355.9C5013.16 2362.36 5014.23 2359.14 5023.86 2368.77C5064.75 2348.32 5063.49 2316.06 5062.46 2268.7C5062.24 2258.77 5045.54 2251.31 5056.74 2240.1C5055.31 2238.67 5055.31 2238.67 5053.88 2237.25C5061.87 2225.26 5077.16 2239.7 5086.76 2230.1C5072.54 2215.88 5046.8 2225.38 5026.72 2224.38C5019.52 2224.02 5012.29 2223.17 5005.27 2221.52C4992.64 2218.55 4968.43 2191.17 4953.81 2205.79Z" fill="#222222" fill-rule="nonzero" opacity="1" stroke="none"/>
<path d="M3321.25 2095.72C3325.79 2091.18 3329.57 2087.39 3334.12 2082.85C3329.69 2078.43 3321.92 2074.86 3319.82 2068.56C3314.41 2052.34 3331.84 2033.41 3315.53 2017.09C3300.12 2024.8 3312.94 2040.68 3308.38 2052.83C3300.78 2073.12 3275.45 2093.84 3252.63 2088.57C3247.31 2087.34 3249.86 2081.23 3248.34 2078.56C3234.57 2054.47 3244.83 2040.35 3249.77 2015.66C3251.19 2008.55 3255.28 1986.71 3239.76 1991.36C3230.41 1994.17 3235.56 2002.47 3234.05 2008.52C3226.63 2038.18 3211.43 2078.07 3239.76 2102.87C3248.39 2110.41 3273.94 2112.32 3282.65 2108.58C3296.33 2102.72 3306.47 2073.56 3321.25 2095.72Z" fill="#000000" fill-rule="nonzero" opacity="1" stroke="none"/>
<path d="M3793.01 2877.69C3800.45 2885.13 3813.97 2879.6 3824.46 2880.55C3831.73 2881.21 3848.17 2894.49 3855.91 2899.13C3869.94 2907.55 3853.06 2935.85 3860.19 2947.74C3878.68 2978.55 3931.69 2937.72 3945.97 2923.44C3936.47 2904.43 3930.56 2919.83 3914.52 2909.14C3902.74 2901.29 3889.96 2904.01 3877.35 2897.7C3864.01 2891.03 3843.35 2874.09 3833.03 2874.83C3819.69 2875.78 3802.46 2868.23 3793.01 2877.69Z" fill="#6e685e" fill-rule="nonzero" opacity="1" stroke="none"/>
<path d="M2910.96 1508.17C2919.23 1519.19 2895.08 1547.19 2898.1 1566.78C2899.05 1572.98 2896.53 1580.93 2900.96 1585.36C2909.04 1577.28 2913.5 1546.85 2918.11 1535.33C2928.73 1508.79 2962.6 1478.64 2985.3 1462.42C2995.08 1455.44 3010.94 1440.95 3023.9 1445.27C3017.05 1458.96 3013.93 1472.25 3011.03 1486.72C3007.57 1504.02 2991.95 1522.46 2991.02 1541.05C2990.59 1549.61 2990.61 1558.21 2991.02 1566.78C2991.24 1571.39 2987.6 1598.79 3002.46 1583.94C2991.76 1573.24 3001.38 1559.65 3003.89 1549.63C3006.65 1538.57 3001.48 1538.57 3005.32 1529.61C3007.01 1525.66 3016.17 1518.06 3016.75 1515.32C3017.95 1509.72 3015.94 1503.82 3016.75 1498.16C3018.27 1487.55 3028.4 1475.88 3031.05 1465.28C3033.33 1456.16 3040.38 1434.92 3029.62 1429.54C3015.51 1422.49 2999.73 1440.62 2989.59 1446.7C2977.98 1453.67 2970.12 1459.85 2958.14 1471C2949.51 1479.04 2940.75 1486.96 2932.41 1495.3C2926.03 1501.68 2919.33 1502.59 2910.96 1508.17Z" fill="#6e685e" fill-rule="nonzero" opacity="1" stroke="none"/>
<path d="M3076.79 1825.53C3049.83 1826.88 3023.28 1836.94 2998.17 1844.12C2991.68 1845.97 2986.27 1860.32 2993.88 1864.13C2998.24 1866.31 3043.61 1851.02 3052.49 1849.83C3081.72 1845.94 3103.67 1851.08 3131.12 1852.69C3140.96 1853.27 3128.98 1856.1 3141.12 1859.84C3149.68 1862.47 3167.08 1865.56 3176.86 1865.56C3197.56 1865.56 3175.94 1839.85 3171.15 1836.97C3168.7 1835.5 3163.62 1838.38 3161.14 1836.97C3138.93 1824.28 3103.53 1824.19 3076.79 1825.53Z" fill="#000000" fill-rule="nonzero" opacity="1" stroke="none"/>
<path d="M3954.55 2880.55C3936.56 2889.54 3952.34 2904.2 3940.25 2916.29C3944.56 2920.59 3943.63 2921.23 3940.25 2926.29C3951.62 2937.66 3946.04 2933.88 3948.83 2952.03C3952.17 2973.75 3992.13 2973.47 4003.15 2973.47C4006.05 2973.47 4009.01 2973.06 4011.73 2972.04C4026.38 2966.55 4037.36 2929.89 4040.32 2929.15C4054.26 2925.67 4085.14 2930.08 4094.64 2920.58C4082.55 2896.39 4062.11 2917.78 4038.89 2913.43C4029.47 2911.66 4027.3 2872.5 4007.44 2879.12C3992.55 2884.08 4019.14 2904.1 4020.31 2909.14C4027.79 2941.57 4009.83 2965.88 3974.56 2957.75C3956 2953.46 3955.43 2881.43 3954.55 2880.55Z" fill="#453f38" fill-rule="nonzero" opacity="1" stroke="none"/>
<path d="M4816.57 1558.2C4813.3 1561.47 4810.09 1570.97 4812.28 1575.36C4791.67 1595.97 4778.47 1622.52 4755.1 1642.55C4735.44 1659.4 4712.78 1679.34 4690.77 1694.01C4685.36 1697.62 4676.09 1697.26 4670.76 1702.59C4688.7 1720.53 4706.55 1701.12 4723.65 1689.72C4756.42 1667.88 4791.28 1643.38 4816.57 1609.67C4822.46 1601.81 4821.63 1590.32 4829.44 1582.51C4823.83 1575.03 4822.25 1563.88 4816.57 1558.2Z" fill="#453f38" fill-rule="nonzero" opacity="1" stroke="none"/>
<path d="M3581.43 1525.32C3585.86 1529.75 3593.82 1527.23 3600.01 1528.18C3604.36 1528.85 3605.22 1535.38 3608.59 1538.19C3612.4 1541.36 3627.27 1534.95 3631.46 1533.9C3651.89 1528.79 3671.76 1531.6 3692.94 1528.18C3696.26 1527.65 3696.87 1522.04 3700.08 1521.03C3705.09 1519.47 3710.63 1520.24 3715.81 1521.03C3725.05 1522.46 3724.22 1533.74 3728.67 1538.19C3731.45 1535.41 3729.91 1530.33 3731.53 1526.75C3732.93 1523.68 3737.17 1522.62 3738.68 1519.6C3748.14 1500.7 3706.35 1505.66 3681.5 1506.74C3663.82 1507.51 3595.81 1510.95 3581.43 1525.32Z" fill="#000000" fill-rule="nonzero" opacity="1" stroke="none"/>
<path d="M2966.72 2285.85C2965.29 2287.28 2962.48 2288.12 2962.43 2290.14C2961.51 2323.96 2964.77 2357.81 2963.86 2391.64C2963.52 2404.21 2951.8 2453.92 2963.86 2465.98C2965.29 2464.55 2965.29 2464.55 2966.72 2463.12C2968.15 2464.55 2968.15 2464.55 2969.58 2465.98C2980.98 2454.57 2988.83 2452.56 2983.87 2430.24C2982.92 2425.94 2975.41 2418.2 2975.3 2413.08C2974.36 2373.06 2975.76 2333.02 2975.3 2293C2975.28 2291.49 2974.34 2290.14 2973.87 2288.71C2968.23 2288.71 2970.59 2289.72 2966.72 2285.85Z" fill="#453f38" fill-rule="nonzero" opacity="1" stroke="none"/>
<path d="M3211.17 1665.42C3192.9 1683.7 3211.26 1723.94 3194.02 1741.19C3197.19 1747.54 3196.14 1744.37 3195.45 1756.91C3195.11 1763.06 3191.89 1806.02 3209.74 1798.37C3218.56 1794.59 3212.6 1774.21 3212.6 1766.92C3212.6 1746.17 3234.55 1683.7 3214.03 1676.86C3214.03 1666.93 3216.05 1670.3 3211.17 1665.42Z" fill="#000000" fill-rule="nonzero" opacity="1" stroke="none"/>
<path d="M2966.72 1581.08C2945.17 1591.85 2918.68 1571.93 2900.96 1589.65C2905.72 1594.42 2914.43 1590.88 2920.97 1592.51C2925.59 1593.67 2924.8 1603.57 2929.55 1603.95C2952.35 1605.77 2975.48 1606.84 2998.17 1603.95C3002.85 1603.35 3003.55 1594.89 3008.18 1593.94C3020.78 1591.35 3033.94 1594.83 3046.77 1593.94C3051.39 1593.62 3050.22 1584.25 3046.77 1583.94C3032.06 1582.6 3017.23 1583.94 3002.46 1583.94C2992.58 1583.94 2979.86 1585.46 2966.72 1581.08Z" fill="#131010" fill-rule="nonzero" opacity="1" stroke="none"/>
<path d="M4935.23 2381.63C4938.8 2385.21 4938.8 2385.21 4942.37 2388.78C4941.66 2390.21 4941.66 2390.21 4940.94 2391.64C4957.49 2408.18 5012.03 2383.45 5026.72 2368.77C5001.38 2343.42 4995.42 2369.84 4968.11 2375.91C4958.67 2378.01 4942.9 2373.96 4935.23 2381.63Z" fill="#453f38" fill-rule="nonzero" opacity="1" stroke="none"/>
<path d="M3291.23 1556.77C3279.99 1568.01 3266.27 1575.64 3255.49 1588.22C3252.11 1592.17 3265.86 1605.02 3271.21 1603.95C3282.82 1601.63 3295.06 1566.32 3311.24 1582.51C3320.84 1576.11 3329.71 1568.09 3291.23 1556.77Z" fill="#000000" fill-rule="nonzero" opacity="1" stroke="none"/>
<path d="M4563.54 1791.22C4580.27 1791.22 4591.35 1800.06 4600.71 1814.09C4612.2 1803.88 4616.94 1801.31 4612.14 1786.93C4607.28 1786.93 4606.13 1783.63 4603.57 1779.79C4605 1778.36 4605 1778.36 4606.43 1776.93C4600.75 1771.25 4552.41 1768.59 4550.67 1772.64C4546.97 1781.28 4561.17 1784.12 4563.54 1791.22Z" fill="#000000" fill-rule="nonzero" opacity="1" stroke="none"/>
<path d="M3873.06 2909.14C3864.86 2913.24 3866.65 2927.38 3868.77 2936.3C3875.38 2964.04 3940.12 2927.14 3918.81 2919.15C3910.43 2916.01 3900.65 2918.32 3891.65 2914.86C3885.6 2912.53 3878.86 2906.24 3873.06 2909.14Z" fill="#ddc2c4" fill-rule="nonzero" opacity="1" stroke="none"/>
<path d="M2700.82 1922.74C2692.4 1931.16 2679.86 1927.82 2670.8 1939.9C2651.49 1965.64 2709.84 1945.5 2719.4 1932.75C2715.11 1927.74 2715.11 1927.74 2700.82 1922.74Z" fill="#453f38" fill-rule="nonzero" opacity="1" stroke="none"/>
<path d="M2773.73 1619.67C2778.26 1624.2 2782.06 1620.86 2786.59 1625.39C2785.88 1626.82 2785.88 1626.82 2785.16 1628.25C2788.5 1631.59 2791.19 1635.73 2795.17 1638.26C2802.36 1642.83 2810.57 1634.19 2815.18 1631.11C2821.63 1626.82 2833.92 1633.82 2840.92 1626.82C2834.48 1620.38 2822.76 1625.31 2813.75 1623.96C2809.41 1623.31 2809.44 1615.02 2805.18 1613.96C2799.39 1612.51 2777.85 1615.55 2773.73 1619.67Z" fill="#453f38" fill-rule="nonzero" opacity="1" stroke="none"/>
<path d="M4354.82 1672.57C4336.75 1690.64 4351.71 1704.33 4370.55 1716.88C4391.34 1701.29 4365.76 1687.15 4354.82 1672.57Z" fill="#000000" fill-rule="nonzero" opacity="1" stroke="none"/>
<path d="M3229.76 1432.4C3234.6 1437.25 3240.88 1432.15 3244.05 1439.55C3248.57 1450.08 3243.44 1467.53 3251.2 1475.29C3254.64 1471.85 3253.11 1465.76 3254.06 1460.99C3258.22 1440.22 3267.54 1425.82 3235.48 1428.11C3233.29 1428.27 3231 1431.16 3229.76 1432.4Z" fill="#7f7f7f" fill-rule="nonzero" opacity="1" stroke="none"/>
<path d="M3311.24 2879.12C3306.74 2883.62 3298.5 2885.59 3295.52 2890.56C3289.67 2900.3 3314.24 2917.52 3328.4 2896.27C3319.82 2887.7 3319.82 2887.7 3311.24 2879.12Z" fill="#222222" fill-rule="nonzero" opacity="1" stroke="none"/>
<path d="M4600.71 1779.79C4604.59 1783.66 4606.36 1789.53 4612.14 1789.79C4621.68 1790.23 4631.2 1791.65 4640.74 1791.22C4642.08 1791.16 4642.64 1789.32 4643.6 1788.36C4631.33 1776.1 4615.6 1764.89 4600.71 1779.79Z" fill="#453f38" fill-rule="nonzero" opacity="1" stroke="none"/>
<path d="M3309.81 2880.55C3315.53 2886.27 3320.45 2892.92 3326.97 2897.7C3337.54 2905.46 3338.97 2889.69 3329.83 2880.55C3330.54 2879.12 3330.54 2879.12 3331.26 2877.69C3321.29 2869.72 3318.15 2872.21 3309.81 2880.55Z" fill="#453f38" fill-rule="nonzero" opacity="1" stroke="none"/>
<path d="M2860.93 1593.94C2865 1598.02 2862.67 1596.05 2868.08 1599.66C2867.36 1601.09 2867.36 1601.09 2866.65 1602.52C2870.98 1606.85 2883.19 1611.71 2888.09 1606.81C2886.66 1605.38 2886.66 1605.38 2885.23 1603.95C2886.66 1602.52 2886.66 1602.52 2888.09 1601.09C2885.04 1596.51 2885.49 1594.72 2883.8 1589.65C2875.96 1589.65 2866.86 1588.01 2860.93 1593.94Z" fill="#000000" fill-rule="nonzero" opacity="1" stroke="none"/>
</g>
</g>
</svg>
