<?xml version="1.0" encoding="UTF-8" standalone="no"?>
<!DOCTYPE svg PUBLIC "-//W3C//DTD SVG 1.1//EN" "http://www.w3.org/Graphics/SVG/1.1/DTD/svg11.dtd">
<!-- Created with Vectornator (http://vectornator.io/) -->
<svg height="100%" stroke-miterlimit="10" style="fill-rule:nonzero;clip-rule:evenodd;stroke-linecap:round;stroke-linejoin:round;" version="1.1" viewBox="0 0 7680 4320" width="100%" xml:space="preserve" xmlns="http://www.w3.org/2000/svg" xmlns:xlink="http://www.w3.org/1999/xlink">
<defs/>
<g id="Ebene-1">
<g opacity="1">
<path d="M4311.94 1911.3C4299.53 1923.71 4316.07 1940.59 4316.23 1954.19C4316.88 2012.37 4322.72 2076.97 4303.36 2128.6C4289.2 2166.35 4232.78 2199.26 4197.57 2208.65C4178.26 2213.8 4154.09 2210.41 4134.67 2212.94C4116.76 2215.28 4104.98 2219.92 4086.07 2211.51C4065.97 2202.58 4033.22 2214.03 4011.73 2208.65C4007.15 2207.51 4006.08 2200.44 4001.72 2198.65C3989.95 2193.8 3971.42 2198.47 3960.26 2191.5C3957.33 2189.67 3949.56 2182.01 3945.97 2181.49C3917.28 2177.39 3890.7 2175.54 3863.05 2168.63C3860.44 2167.97 3860.01 2163.22 3857.34 2162.91C3841.65 2161.06 3821.33 2169.78 3810.16 2158.62C3797.46 2164.97 3782.98 2150.92 3771.56 2150.04C3760.16 2149.16 3748.57 2151.66 3737.25 2150.04C3734.58 2149.66 3734.2 2144.72 3731.53 2144.32C3720.69 2142.72 3709.5 2145.93 3698.65 2144.32C3695.99 2143.93 3695.58 2139.11 3692.94 2138.61C3670.06 2134.25 3661.49 2137.24 3638.61 2132.89C3635.96 2132.38 3635.36 2128.26 3632.89 2127.17C3623.69 2123.08 3627.7 2131.81 3618.6 2125.74C3598.88 2112.6 3576.67 2102.39 3558.56 2084.28C3545.47 2071.19 3535.13 2047.86 3528.54 2031.39C3525.26 2023.19 3526.46 2009.3 3519.96 2002.8C3524.47 1993.77 3514.7 1986.65 3505.66 1989.93C3500.17 1991.93 3495.44 1999.37 3489.94 2001.37C3477.54 2005.87 3461.05 2010.64 3448.48 2014.23C3438.85 2016.99 3425.68 2013.03 3417.03 2019.95C3407.68 2027.43 3431.44 2034.48 3432.76 2037.11C3438.07 2047.73 3441.49 2056.34 3438.47 2071.42C3433.59 2095.82 3391.61 2099.93 3374.14 2104.3C3369.57 2105.44 3322.24 2166.24 3311.24 2175.77C3290.7 2193.57 3266.3 2213.82 3241.19 2220.09C3236.1 2221.36 3240.38 2225.4 3235.48 2227.24C3228.77 2229.75 3220.72 2226.1 3214.03 2228.67C3198.84 2234.51 3184.55 2246.05 3168.29 2250.11C3147.63 2255.28 3129.32 2253.42 3108.24 2258.69C3105.6 2259.35 3098.54 2268.28 3095.38 2268.7C3067.84 2272.29 3043.93 2270.55 3015.32 2275.84C3012.67 2276.33 3012.2 2280.82 3009.6 2281.56C2996.05 2285.44 2977.45 2277.98 2966.72 2288.71C2968.62 2290.62 2972.31 2291.74 2972.44 2294.43C2974.25 2333.94 2971.51 2373.54 2972.44 2413.08C2972.65 2422.18 2973.59 2431.3 2975.3 2440.24C2975.8 2442.89 2979.68 2443.62 2981.01 2445.96C2984.45 2451.97 2984.19 2463.92 2986.73 2470.26C2993.18 2486.37 3005.11 2502.83 3013.89 2516.01C3018.22 2522.49 3019.11 2533.6 3022.47 2540.31C3025.62 2546.6 3034.69 2551.89 3038.2 2558.9C3052.35 2587.21 3074.26 2614.97 3096.81 2637.52C3137.01 2677.73 3183.95 2702.95 3225.47 2736.16C3250.2 2755.95 3277.88 2770.85 3305.52 2781.91C3310.85 2784.04 3317.44 2781.01 3322.68 2783.34C3328.98 2786.14 3328.92 2791.16 3338.4 2789.06C3349.23 2786.65 3341.26 2738.84 3341.26 2727.59C3341.26 2713.65 3350.81 2699.32 3351.27 2687.56C3352.19 2664.23 3349.12 2640.76 3351.27 2617.51C3351.58 2614.15 3356.04 2612.74 3358.42 2610.36C3367.11 2616.88 3362.71 2617.66 3362.71 2626.09C3362.71 2659.92 3362.71 2693.75 3362.71 2727.59C3362.71 2779.07 3360.96 2828.03 3362.71 2880.55C3362.88 2885.79 3361.2 2891.25 3362.71 2896.27C3363.88 2900.2 3368.56 2902.39 3369.85 2906.28C3391.77 2906.28 3413.8 2904.14 3435.61 2906.28C3438.97 2906.61 3439.48 2912.68 3442.76 2913.43C3465.59 2918.62 3476.36 2915.04 3499.94 2919.15C3502.6 2919.61 3502.99 2924.51 3505.66 2924.87C3517.94 2926.5 3530.55 2923.23 3542.83 2924.87C3545.5 2925.22 3545.89 2930.14 3548.55 2930.58C3579.12 2935.68 3620.1 2927.76 3645.76 2940.59C3669.17 2917.18 3681.34 2885.79 3700.08 2857.68C3703.22 2852.97 3720.3 2832.36 3717.24 2826.23C3737.86 2805.61 3746.52 2771.66 3761.55 2747.6C3767.5 2738.09 3775.56 2733.88 3777.28 2721.87C3778.51 2713.26 3797.1 2687.95 3801.58 2678.98C3803.5 2675.14 3815.28 2670.41 3815.88 2677.55C3817.51 2697.15 3788.85 2741.41 3777.28 2757.61C3770.84 2766.62 3769.39 2781.68 3762.98 2790.49C3751.74 2805.95 3748.41 2812.6 3741.54 2829.08C3738.73 2835.84 3729.59 2840.8 3731.53 2850.53C3731.8 2851.85 3733.05 2853.34 3734.39 2853.39C3762.97 2854.31 3791.63 2855.17 3820.17 2853.39C3822.86 2853.22 3823.21 2848 3825.89 2847.67C3839.12 2846.01 3852.67 2849.32 3865.91 2847.67C3868.59 2847.33 3868.97 2842.38 3871.63 2841.95C3894.17 2838.34 3906.88 2841.4 3928.81 2839.09C3931.81 2838.78 3933.23 2831.03 3934.53 2830.51C3944.28 2826.62 3955.67 2831.02 3965.98 2829.08C3970.3 2828.27 3970.37 2820.39 3974.56 2819.08C3983.34 2816.34 3994.61 2816.21 4003.15 2813.36C4016.98 2808.75 4069.28 2803.21 4076.06 2791.92C4084.18 2778.37 4059.64 2758.7 4053.19 2749.03C4048.46 2741.94 4047.49 2731.23 4044.61 2723.3C4038.42 2706.29 4003.25 2658.67 4008.87 2641.81C4012.97 2643.86 4043.49 2684.82 4044.61 2690.42C4045.26 2693.69 4043.21 2697.4 4044.61 2700.42C4048.41 2708.65 4057.52 2713.39 4061.76 2721.87C4077.48 2753.3 4100.81 2781.35 4124.66 2810.5C4134.91 2823.02 4147.35 2852.37 4163.26 2857.68C4163.26 2875.58 4197.9 2897.87 4211.87 2904.85C4224.61 2892.11 4258.84 2883.2 4276.2 2876.26C4284.68 2872.87 4291.58 2863.51 4300.5 2860.53C4334.21 2849.3 4364.87 2833.15 4397.71 2819.08C4402.91 2816.85 4457.49 2800.63 4457.75 2796.2C4459.12 2772.94 4444.14 2754.81 4442.03 2734.73C4441.18 2726.68 4443.23 2718.44 4442.03 2710.43C4440.65 2701.25 4426.21 2689.04 4424.87 2678.98C4423.6 2669.41 4413.66 2619.17 4409.15 2614.65C4407.72 2616.08 4407.72 2616.08 4406.29 2617.51C4396.44 2607.66 4399.16 2581.22 4394.85 2568.9C4393.29 2564.45 4386.64 2563.26 4384.84 2558.9C4383.03 2554.49 4385.63 2549.3 4384.84 2544.6C4380.81 2520.4 4361.69 2504.24 4364.83 2475.98C4365.97 2465.69 4384 2474.29 4386.27 2478.84C4387.48 2481.26 4402.39 2565.27 4419.15 2531.74C4429.48 2511.09 4437.04 2491.18 4444.89 2470.26C4450.68 2454.81 4447.24 2475.56 4453.46 2463.12C4455.64 2458.76 4454.15 2450 4456.32 2445.96C4460.39 2438.41 4469.97 2431.4 4472.05 2423.09C4473.43 2417.54 4470.66 2411.48 4472.05 2405.93C4472.7 2403.32 4477.47 2402.89 4477.77 2400.22C4483.94 2344.67 4485.42 2280.26 4479.2 2225.81C4478.89 2223.13 4473.9 2222.75 4473.48 2220.09C4471.9 2210.21 4474.34 2200.04 4473.48 2190.07C4473.27 2187.73 4466.57 2181.86 4466.33 2180.06C4465.11 2171.09 4468.68 2161.64 4466.33 2152.9C4465.1 2148.35 4458.03 2147.29 4456.32 2142.89C4450.95 2129.08 4455.73 2102.27 4444.89 2091.43C4443.46 2092.86 4443.46 2092.86 4442.03 2094.29C4436.12 2088.38 4439.39 2079.78 4436.31 2072.85C4431.16 2061.27 4424.59 2047.97 4419.15 2037.11C4415.66 2030.12 4405.42 2021.9 4400.57 2015.66C4372.28 1979.29 4351.6 1941.05 4311.94 1911.3Z" fill="#eff0ef" fill-rule="nonzero" opacity="1" stroke="none"/>
<path d="M4384.84 1622.53C4379.92 1627.45 4343.37 1592.29 4323.37 1595.37C4310.47 1597.36 4314.52 1616.29 4316.23 1623.96C4321.3 1646.82 4329.93 1668.11 4343.39 1688.29C4349.11 1682.57 4349.11 1682.57 4354.82 1676.86C4356.72 1678.76 4379.2 1704.37 4377.7 1706.88C4374.57 1712.09 4371.26 1710.45 4369.12 1716.88C4365.03 1729.15 4400.21 1735.82 4394.85 1748.33C4391.85 1755.35 4373.54 1761.14 4367.69 1764.06C4355.77 1770.02 4343.74 1784 4330.52 1786.93C4316.94 1789.95 4305.28 1791.87 4291.92 1795.51C4285.38 1797.3 4281.91 1804.9 4274.77 1805.52C4262.16 1806.61 4222.71 1804.68 4213.3 1814.09C4217.34 1820.16 4227.51 1817.42 4234.74 1818.38C4239.1 1818.96 4239 1827.6 4243.32 1828.39C4252.45 1830.05 4306.2 1818.4 4310.51 1815.52C4314.49 1812.87 4320.38 1815.94 4324.8 1814.09C4329.5 1812.14 4332.88 1805.88 4337.67 1804.09C4344.71 1801.45 4354.9 1800.87 4361.97 1796.94C4399.55 1776.06 4453.82 1747.61 4474.91 1705.45C4478.6 1698.06 4487.97 1692 4490.63 1684C4495.51 1669.38 4504.87 1653.52 4507.79 1639.69C4512.57 1616.95 4507.62 1599.19 4520.65 1579.65C4530.73 1584.68 4523.91 1592.47 4526.37 1601.09C4532.02 1620.87 4527.83 1652.19 4526.37 1669.71C4525.14 1684.44 4535.39 1703.57 4524.94 1714.03C4523.51 1712.6 4523.51 1712.6 4522.08 1711.17C4519.08 1714.17 4515.38 1759.03 4513.51 1771.21C4512.9 1775.17 4505.69 1780.84 4504.93 1784.07C4503.51 1790.1 4506.07 1796.57 4504.93 1802.66C4504.25 1806.27 4496.57 1815.09 4494.92 1818.38C4478.11 1852.01 4456.02 1887.39 4427.73 1917.02C4421.29 1923.77 4402.69 1947.63 4393.42 1951.33C4381.96 1955.92 4367.3 1926.64 4361.97 1921.31C4328.08 1887.42 4291.25 1861.48 4254.75 1834.11C4245.78 1827.38 4239.18 1854.91 4229.02 1849.83C4218.75 1844.7 4213.35 1831.27 4203.29 1826.96C4191.83 1822.05 4180.88 1819.19 4168.98 1815.52C4159.02 1812.46 4151.99 1799.58 4141.82 1795.51C4121.55 1787.4 4109.59 1793.2 4091.78 1778.36C4088.49 1775.61 4083.03 1779.59 4078.92 1778.36C4072.69 1776.49 4064.06 1767.65 4057.47 1766.92C4043.94 1765.42 4006.1 1759.86 3996 1749.76C4010.07 1732.88 4029.33 1752.17 4043.18 1738.33C4036.41 1731.56 4024.07 1736.82 4014.59 1735.47C4008.3 1734.57 3996.88 1724.86 3990.28 1724.03C3964.52 1720.81 3910.59 1714.95 3887.36 1716.88C3885.11 1717.07 3873.83 1721.83 3871.63 1724.03C3873.06 1725.46 3873.06 1725.46 3874.49 1726.89C3866.88 1738.31 3835.56 1725.46 3821.6 1725.46C3802.98 1725.46 3783.81 1724.03 3765.84 1724.03C3759.94 1724.03 3757.29 1731.19 3751.55 1728.32C3746.32 1733.54 3745.71 1751.43 3741.54 1759.77C3737.15 1768.56 3739.93 1755.04 3732.96 1765.49C3728.59 1772.04 3726.05 1784.92 3722.96 1792.65C3714.78 1813.09 3693.07 1836.48 3678.64 1854.12C3638.16 1903.59 3588.02 1951.2 3534.25 1975.64C3525.92 1979.43 3524.13 1994.34 3517.1 2001.37C3527.23 2016.57 3525.36 2037.47 3532.82 2054.26C3542.11 2075.16 3567.84 2098.44 3585.72 2111.44C3612.84 2131.17 3646.89 2134.41 3678.64 2141.46C3683.22 2142.48 3705 2152.6 3708.66 2152.9C3729.56 2154.64 3750.61 2151.99 3771.56 2152.9C3784.86 2153.48 3797.71 2164.56 3811.59 2165.77C3841.53 2168.37 3847.54 2167.76 3877.35 2171.49C3887.82 2172.79 3907.72 2182.6 3917.38 2184.35C3925.82 2185.89 3934.67 2182.82 3943.11 2184.35C3947.43 2185.14 3947.45 2193.2 3951.69 2194.36C3960.43 2196.74 3970.18 2193.12 3978.85 2195.79C3987.97 2198.59 4000.15 2210.51 4008.87 2211.51C4062.53 2217.7 4114.92 2221.48 4166.12 2212.94C4177.88 2210.98 4190.33 2214.55 4201.86 2211.51C4205.87 2210.46 4213.67 2203.86 4217.59 2201.51C4221.69 2199.04 4227.38 2201.71 4231.88 2200.08C4257.1 2190.91 4305.7 2145.12 4311.94 2118.59C4323.86 2067.93 4321.1 2009.51 4320.51 1955.62C4320.45 1949.73 4312.95 1923.76 4309.08 1919.88C4311.22 1917.02 4311.22 1917.02 4313.37 1914.16C4363.6 1964.4 4423.96 2027.8 4436.31 2095.72C4437.21 2100.65 4446.47 2101.4 4447.75 2107.16C4450.33 2118.78 4449.57 2134.62 4453.46 2145.75C4455.02 2150.21 4462.15 2151.23 4463.47 2155.76C4465.74 2163.54 4462.27 2172.05 4463.47 2180.06C4463.74 2181.85 4470.45 2187.74 4470.62 2190.07C4474.11 2239.01 4480.82 2278.8 4476.34 2325.88C4473.49 2355.81 4474.12 2381.88 4469.19 2410.22C4468.73 2412.88 4464.12 2413.33 4463.47 2415.94C4462.08 2421.49 4465.45 2427.73 4463.47 2433.1C4461.84 2437.52 4455.46 2438.83 4453.46 2443.1C4448.66 2453.4 4456.09 2462.72 4442.03 2467.41C4442.03 2479.21 4415.91 2538.44 4406.29 2534.59C4401 2532.48 4397.15 2492.88 4394.85 2485.99C4392.43 2478.74 4363.65 2456.35 4361.97 2473.12C4358.95 2503.38 4378.34 2519.1 4381.99 2544.6C4382.79 2550.26 4380.01 2556.39 4381.99 2561.76C4383.62 2566.18 4390.28 2567.37 4391.99 2571.76C4395.86 2581.71 4398.88 2607.94 4400.57 2618.94C4400.99 2621.65 4408.47 2623.81 4409.15 2624.66C4413.09 2629.58 4411.37 2647.67 4412.01 2650.39C4412.8 2653.75 4421.22 2659.54 4422.01 2663.26C4424.54 2675.07 4423.95 2692.12 4429.16 2703.28C4431.16 2707.56 4437.74 2708.79 4439.17 2713.29C4443.58 2727.17 4438.38 2739.64 4442.03 2753.32C4445.08 2764.76 4455.94 2779.71 4453.46 2793.35C4452.11 2800.76 4403.07 2812.48 4394.85 2816.22C4365.97 2829.34 4339.23 2842.68 4309.08 2851.96C4296.24 2855.91 4285.74 2868.08 4273.34 2873.4C4265.44 2876.78 4251.84 2878.19 4244.75 2881.98C4239.99 2884.52 4237.99 2890.74 4233.31 2893.41C4227.01 2897.02 4217.78 2896.08 4211.87 2901.99C4185.8 2888.96 4173.42 2866.08 4157.54 2846.24C4140.79 2825.3 4124.61 2803.3 4106.08 2784.77C4094.68 2773.37 4089.26 2754.77 4080.35 2743.31C4069.04 2728.78 4054.54 2713.48 4047.47 2697.56C4040.54 2681.97 4031.87 2668.48 4023.16 2653.25C4020.31 2648.25 4022.03 2642.1 4017.45 2637.52C4013.93 2641.04 4013.23 2641.13 4008.87 2638.95C3995.05 2652.78 4018.72 2666.14 4020.31 2680.41C4021.86 2694.43 4026.24 2693.72 4031.74 2704.71C4039.04 2719.3 4045.86 2736.25 4050.33 2751.89C4051.35 2755.47 4056.27 2756.4 4058.9 2759.04C4065.57 2765.7 4070.09 2778.56 4074.63 2787.63C4055.67 2806.59 3999.69 2810 3971.7 2816.22C3967.83 2817.08 3962.33 2825.06 3958.83 2826.23C3947.31 2830.07 3933.18 2820.43 3923.1 2830.51C3924.53 2831.94 3924.53 2831.94 3925.95 2833.37C3920.86 2838.47 3911.66 2835.28 3904.51 2836.23C3869.67 2840.88 3838.87 2840.83 3803.01 2844.81C3800.33 2845.11 3799.98 2850.29 3797.29 2850.53C3777.36 2852.26 3757.25 2851.44 3737.25 2850.53C3735.91 2850.47 3734.58 2849 3734.39 2847.67C3732.59 2835.05 3759.66 2803.95 3765.84 2793.35C3769.97 2786.26 3774.28 2766.67 3778.71 2760.47C3790.76 2743.6 3798.63 2729.2 3807.3 2711.86C3809.95 2706.56 3825.94 2674.07 3815.88 2671.83C3803.48 2669.08 3788.13 2691.58 3783 2701.85C3769.26 2729.34 3755.4 2759.77 3738.68 2787.63C3734.44 2794.69 3712.95 2823.37 3715.81 2829.08C3699.76 2845.13 3675.17 2910.77 3658.63 2916.29C3658.63 2933.49 3660.18 2934.34 3670.06 2949.17C3688.67 2930.56 3697.48 2908.64 3708.66 2886.27C3709.26 2885.06 3710.17 2883.47 3711.52 2883.41C3732.47 2882.5 3753.47 2884.32 3774.42 2883.41C3788.9 2882.78 3819.15 2878.68 3833.03 2877.69C3834.57 2877.58 3840.08 2872.06 3841.61 2871.97C3874.03 2870.17 3903.62 2871.75 3931.67 2860.53C3941.86 2856.46 3953.88 2861.65 3964.55 2859.11C3967.18 2858.48 3967.68 2854.13 3970.27 2853.39C3996.02 2846.03 4020.44 2841.25 4044.61 2830.51C4050.72 2827.8 4058.28 2831.2 4064.62 2829.08C4073.42 2826.15 4088.25 2816.23 4098.93 2820.51C4107.79 2824.05 4110.7 2836.3 4114.66 2841.95C4129.07 2862.55 4165.14 2885.87 4154.68 2912C4152.77 2916.78 4151.16 2923.85 4146.11 2924.87C4134.89 2927.11 4123.12 2926.48 4111.8 2924.87C4103.29 2923.65 4104.99 2907.84 4103.22 2903.42C4098.39 2891.35 4098.54 2877.79 4097.5 2864.82C4097.39 2863.48 4095.6 2862.92 4094.64 2861.96C4083.94 2872.66 4084.64 2872.15 4084.64 2889.13C4084.64 2920.2 4097.01 2914.81 4104.65 2937.73C4119.16 2937.73 4140.38 2946.65 4153.26 2937.73C4168.6 2927.1 4162.17 2921.12 4174.7 2914.86C4209.18 2949.34 4249.32 2972.55 4300.5 2967.75C4303.18 2967.5 4303.54 2962.37 4306.22 2962.03C4323.25 2959.91 4341.84 2967.2 4357.68 2960.6C4376.79 2952.64 4398.49 2945.89 4416.29 2936.3C4429.72 2929.07 4443.8 2920.34 4456.32 2912C4465.91 2905.61 4473.02 2889.75 4483.48 2886.27C4483.48 2875.82 4486.94 2882.21 4490.63 2874.83C4491.48 2873.13 4490.6 2871.02 4490.63 2869.11C4491.07 2844.33 4492.52 2819.55 4492.06 2794.77C4491.98 2790.44 4490.85 2779.27 4486.34 2774.76C4484.91 2776.19 4484.91 2776.19 4483.48 2777.62C4475.31 2769.45 4480.66 2744.25 4477.77 2734.73C4476.39 2730.22 4469.87 2728.95 4467.76 2724.73C4464.34 2717.89 4469.07 2708.98 4466.33 2701.85C4456.22 2675.58 4448.08 2648.54 4439.17 2621.8C4437.85 2617.85 4431.11 2613.05 4430.59 2608.93C4429.76 2602.31 4432.04 2595.43 4430.59 2588.92C4429.28 2583.03 4422.71 2577.39 4424.87 2571.76C4429.26 2560.36 4441.45 2549.37 4447.75 2538.88C4455.43 2526.08 4463.68 2507.7 4466.33 2493.14C4469.01 2478.41 4485.72 2461.93 4490.63 2448.82C4495.56 2435.67 4494.84 2421.73 4496.35 2407.36C4496.57 2405.24 4501.88 2399.47 4502.07 2397.36C4502.94 2387.39 4500.83 2377.27 4502.07 2367.34C4502.91 2360.61 4508.99 2348.26 4509.22 2341.6C4510.14 2313.98 4510.14 2286.31 4509.22 2258.69C4509 2252.18 4502.65 2239.34 4502.07 2232.96C4499.27 2202.17 4500.8 2175.14 4490.63 2147.18C4485.56 2133.24 4475.34 2116.87 4472.05 2102.87C4470.63 2096.84 4473.47 2090.31 4472.05 2084.28C4469.82 2074.8 4459.34 2064.58 4454.89 2055.69C4452 2049.9 4451.48 2037.91 4447.75 2032.82C4440.36 2022.74 4407.79 1987.66 4406.29 1975.64C4404.45 1960.9 4435.38 1932.58 4447.75 1928.46C4447.75 1919.16 4466.7 1908.28 4472.05 1899.87C4476.67 1892.61 4513.34 1816.44 4520.65 1838.4C4529.19 1838.4 4537.18 1852.44 4544.96 1855.55C4586.53 1872.18 4629.87 1859.07 4622.15 1806.95C4621.51 1802.6 4616.01 1800.6 4613.57 1796.94C4608.45 1802.07 4610.5 1802.87 4603.57 1809.81C4596.4 1804.43 4587.48 1796.04 4580.69 1792.65C4535.27 1769.94 4556.27 1771.19 4590.7 1776.93C4600.59 1778.57 4608.78 1774.07 4617.86 1774.07C4630.01 1774.07 4629.9 1793.84 4643.6 1788.36C4648.54 1786.38 4654.35 1787.42 4659.32 1785.5C4690.21 1773.62 4701.77 1726.45 4677.9 1702.59C4683.98 1696.52 4687.81 1699.81 4693.63 1695.44C4710.99 1682.42 4733.65 1665.65 4749.38 1651.12C4765.92 1635.86 4783.55 1619.67 4796.56 1601.09C4802.07 1593.21 4806.15 1583.53 4815.14 1576.79C4812.94 1572.39 4813.12 1574.81 4816.57 1569.64C4823.72 1575 4820.67 1575.16 4826.58 1581.08C4830.16 1578.69 4837.8 1573.82 4839.45 1571.07C4842.34 1566.25 4841.14 1552.86 4842.3 1548.2C4848.11 1524.97 4863.75 1501.58 4863.75 1475.29C4863.75 1433.83 4863.72 1392.35 4862.32 1350.92C4862.27 1349.57 4859.65 1349.39 4859.46 1348.06C4858.43 1340.86 4855.5 1303.96 4842.3 1302.31C4812.96 1298.64 4804.14 1304.98 4782.26 1306.6C4759.46 1308.29 4736.41 1304.53 4713.64 1308.03C4704.76 1309.4 4693.07 1322.41 4683.62 1323.75C4671.82 1325.44 4658.74 1320.25 4647.88 1325.18C4634.78 1331.14 4619.58 1332.79 4606.43 1338.05C4544.13 1362.97 4463.95 1407.3 4424.87 1472.43C4423.16 1475.28 4423.67 1482.7 4422.01 1485.3C4417.43 1492.49 4403.11 1507.84 4400.57 1516.75C4398.74 1523.16 4401.4 1530.14 4400.57 1536.76C4400.17 1539.99 4392.54 1545.87 4391.99 1548.2C4386.48 1571.62 4387.16 1586.4 4386.27 1613.96C4386.12 1618.64 4382.3 1617.45 4384.84 1622.53Z" fill="#222222" fill-rule="nonzero" opacity="1" stroke="none"/>
<path d="M2958.14 2431.67C2965.25 2424.56 2960.52 2411.69 2961 2401.65C2961.14 2398.6 2966.6 2397.55 2966.72 2394.5C2968.09 2360.22 2965.35 2325.85 2966.72 2291.57C2966.8 2289.55 2969.01 2287.61 2971.01 2287.28C3013.61 2280.18 3055.05 2276.74 3098.24 2271.55C3102.6 2271.03 3109.99 2262.61 3113.96 2261.55C3133.3 2256.39 3151.96 2258.97 3171.15 2252.97C3181.65 2249.69 3193.15 2245.16 3204.03 2241.53C3208.23 2240.13 3212.23 2232.93 3216.89 2231.53C3229.37 2227.78 3240.79 2226.5 3252.63 2222.95C3258.13 2221.3 3260.36 2214.08 3265.5 2211.51C3306.87 2190.83 3344.46 2150.43 3371.28 2112.87C3379.04 2102.01 3387.16 2110.43 3398.45 2105.73C3426.65 2093.97 3441.33 2081.76 3441.33 2047.11C3441.33 2046.05 3440.57 2045.09 3439.9 2044.25C3431.34 2033.55 3421.59 2028.16 3412.74 2017.09C3408.21 2021.62 3411.55 2025.43 3407.02 2029.96C3391.61 2014.54 3347.11 2024.63 3341.26 2007.09C3334.44 2007.09 3297.07 2001.13 3304.09 1987.07C3307.18 1980.9 3319.38 1985.89 3324.11 1987.07C3351.14 1993.83 3368.56 2001.37 3401.3 2001.37C3412.58 2001.37 3419.44 1995.8 3428.47 1992.79C3434.96 1990.63 3440.63 1994.93 3447.05 1991.36C3483.94 1970.87 3520.12 1959.33 3555.7 1935.61C3601.53 1905.05 3643.54 1861.68 3677.21 1818.38C3691.25 1800.33 3697.4 1776.71 3711.52 1759.77C3717.99 1752.01 3727.54 1739.97 3731.53 1731.18C3738.47 1715.91 3753.34 1639.51 3764.41 1633.97C3765.84 1635.4 3765.84 1635.4 3767.27 1636.83C3771.2 1632.9 3768.85 1634.4 3774.42 1632.54C3774.42 1579.97 3765.75 1550.2 3738.68 1509.6C3732.67 1515.61 3736.33 1519.1 3728.67 1526.75C3722.05 1520.12 3709.71 1515.17 3700.08 1518.18C3696.87 1519.18 3696.26 1524.79 3692.94 1525.32C3680.7 1527.3 3668.13 1524.44 3655.77 1525.32C3642.79 1526.25 3622.71 1538.15 3608.59 1535.33C3591.25 1531.86 3616.08 1525.32 3584.29 1525.32C3573.91 1525.32 3553.29 1524.87 3547.12 1531.04C3556.26 1540.18 3568.49 1529.54 3578.57 1539.62C3567.84 1555.72 3541.35 1553.22 3524.25 1559.63C3515.5 1562.91 3508.58 1568.8 3499.94 1572.5C3486.5 1578.26 3468.24 1578.37 3454.2 1586.79C3447.24 1590.97 3441.59 1598.31 3434.18 1601.09C3423.38 1605.14 3430.66 1597.77 3422.75 1602.52C3403.17 1614.26 3377.89 1634.51 3359.85 1652.55C3354.74 1657.66 3331.72 1692.93 3325.54 1688.29C3317.98 1682.62 3324.59 1653.59 3324.11 1645.41C3323.6 1636.75 3314.6 1607.24 3318.39 1599.66C3321.96 1592.52 3323.22 1597.69 3328.4 1592.51C3333.94 1586.97 3328.38 1565.33 3322.68 1559.63C3313.72 1565.6 3323.09 1572.7 3312.67 1579.65C3297.39 1568.18 3278.98 1588.84 3269.79 1601.09C3263.6 1598 3261.48 1595.36 3256.92 1589.65C3247.36 1596.02 3234.32 1606.85 3229.76 1618.24C3228.25 1622.02 3232.31 1633.88 3225.47 1635.4C3212.99 1638.17 3208.96 1627.92 3199.74 1623.96C3194.52 1621.73 3184.09 1623.67 3181.15 1616.81C3177.18 1607.55 3215.57 1543.68 3221.18 1532.47C3226.18 1522.47 3229.22 1499.77 3242.62 1495.3C3242.62 1479.11 3261.19 1459.54 3245.48 1443.84C3239.59 1449.73 3243.5 1458.75 3239.76 1465.28C3231.21 1480.25 3224.6 1495.8 3215.46 1511.03C3195.23 1544.75 3179.44 1578.22 3159.71 1611.1C3153.74 1621.05 3154.57 1637.09 3151.13 1648.27C3149.01 1655.16 3142.36 1652.28 3141.12 1659.7C3137.77 1679.85 3137.37 1698.22 3133.98 1716.88C3128.5 1747.02 3067.73 1737.84 3049.63 1719.74C3025 1695.11 3053.48 1647.82 3031.05 1625.39C3020.43 1636.01 3033.99 1658.24 3016.75 1663.99C3016.75 1675.28 2988.14 1709.19 2979.58 1721.17C2964.71 1741.99 2957.73 1770.4 2943.84 1791.22C2940.93 1795.6 2944.49 1802.11 2942.42 1806.95C2938.64 1815.76 2931.31 1827.94 2930.98 1836.97C2929.6 1875.06 2929.17 1913.25 2930.98 1951.33C2931.11 1954.03 2935.9 1954.47 2936.7 1957.05C2941.21 1971.71 2940.99 1984.24 2945.27 1999.94C2946.1 2002.95 2952.53 2004.34 2953.85 2005.66C2956.87 2008.67 2955.37 2016.61 2956.71 2019.95C2959.29 2026.39 2970.92 2034.92 2973.87 2039.97C2975.88 2043.42 2978.16 2053.55 2981.01 2058.55C2985.13 2065.76 2997.61 2075.14 3002.46 2079.99C3034.9 2112.44 3070.2 2143.28 3111.1 2158.62C3130.43 2165.87 3146.35 2163.54 3168.29 2167.2C3173.47 2168.06 3185.15 2176.8 3189.73 2177.2C3210.16 2179.02 3236.7 2165.56 3251.2 2180.06C3242.33 2197.8 3175.11 2212.77 3155.42 2221.52C3144.14 2226.53 3106.88 2222.88 3098.24 2231.53C3098.95 2232.96 3098.95 2232.96 3099.67 2234.39C3089.18 2244.87 3066.31 2236.65 3052.49 2240.1C3045.3 2241.9 3032.31 2250.7 3025.33 2251.54C3011.61 2253.2 2997.59 2249.88 2983.87 2251.54C2981.2 2251.87 2980.84 2257.08 2978.15 2257.26C2951.04 2259.1 2923.04 2253.53 2896.67 2260.12C2892.86 2261.07 2889.16 2257.43 2885.23 2257.26C2864.29 2256.35 2843.26 2258.59 2822.33 2257.26C2820.31 2257.13 2820.06 2253.15 2818.04 2252.97C2803.81 2251.68 2789.42 2253.86 2775.16 2252.97C2773.81 2252.89 2772.9 2251.32 2772.3 2250.11C2771.71 2248.93 2813.39 2193.5 2815.18 2187.21C2816.49 2182.63 2814.4 2177.62 2815.18 2172.92C2816.95 2162.34 2829.21 2152.86 2829.48 2141.46C2830.41 2101.45 2831.3 2061.37 2829.48 2021.38C2829.39 2019.38 2822.82 2001.86 2820.9 1999.94C2811.78 2007.24 2813.62 2022.57 2813.75 2034.25C2814.12 2065.7 2815.18 2097.14 2815.18 2128.6C2815.18 2133.29 2810.6 2136.91 2809.47 2141.46C2801.58 2173.02 2794.37 2196.05 2775.16 2222.95C2772.23 2227.05 2765.68 2244.33 2759.43 2245.82C2741.08 2250.19 2716.84 2244.02 2700.82 2238.67C2696.65 2237.29 2696.54 2229.59 2692.24 2228.67C2675.92 2225.17 2664.66 2225.89 2649.35 2221.52C2643.03 2219.71 2633.09 2208.62 2627.91 2205.79C2623.64 2203.47 2615.23 2204.93 2610.76 2202.94C2572.79 2186.06 2538.51 2144.21 2520.69 2108.58C2516.59 2100.37 2519.62 2087.06 2517.83 2078.56C2516.66 2072.98 2506.5 2063.38 2506.4 2057.12C2505.94 2028.06 2505.99 1998.98 2506.4 1969.92C2506.62 1954.25 2512.01 1951.54 2517.83 1939.9C2521.24 1933.08 2519.6 1915.03 2520.69 1908.45C2521.79 1901.85 2533.2 1908.81 2534.99 1899.87C2537.03 1889.67 2532.52 1876.31 2537.85 1866.99C2553.81 1839.06 2570.65 1803.43 2596.46 1784.07C2614.59 1770.47 2611.11 1753.94 2636.49 1745.48C2641.29 1743.87 2641.96 1734.2 2646.5 1731.18C2663.38 1719.92 2685.6 1707.27 2700.82 1695.44C2712.94 1686.02 2724.56 1673.56 2737.99 1666.85C2750.42 1660.63 2766.13 1647.61 2779.45 1643.98C2787.58 1641.76 2797.39 1644.62 2803.75 1638.26C2798.04 1632.56 2795.41 1635.64 2788.02 1628.25C2790.22 1623.86 2790.04 1626.28 2786.59 1621.1C2801.35 1606.35 2814.81 1631.92 2835.2 1626.82C2838.47 1626 2839.18 1620.83 2842.35 1619.67C2854.41 1615.29 2877.88 1614.15 2890.95 1613.96C2914.78 1613.61 2938.64 1613.9 2962.43 1612.53C2963.77 1612.45 2964.34 1610.62 2965.29 1609.67C2954.76 1599.14 2937.21 1614.47 2926.69 1603.95C2932.83 1597.81 2926.08 1596.41 2923.83 1589.65C2902.33 1589.65 2904.44 1585.94 2900.96 1566.78C2897.74 1549.1 2921.39 1517.16 2913.82 1509.6C2918.11 1505.31 2918.11 1505.31 2922.4 1501.02C2896.87 1475.49 2873.06 1441.6 2839.49 1426.68C2832.27 1423.47 2822.51 1422.67 2815.18 1419.54C2806.48 1415.81 2788.88 1401.66 2778.02 1408.1C2726.11 1438.86 2719.47 1533.85 2729.41 1581.08C2731.47 1590.88 2755.59 1618.62 2750.85 1629.68C2749.19 1633.57 2717.17 1647.48 2710.83 1652.55C2683.27 1674.6 2651.89 1689.04 2623.62 1712.6C2568.99 1758.12 2523.98 1818.54 2503.54 1879.85C2502.06 1884.28 2494.96 1888.43 2493.53 1892.72C2485.77 1916.01 2485.48 1938.68 2480.67 1962.77C2480.14 1965.41 2475.1 1965.8 2474.95 1968.49C2473.04 2001.37 2469.41 2036.18 2480.67 2067.13C2484.58 2077.88 2479.44 2090.3 2482.1 2101.44C2486.04 2118 2501.81 2135.87 2512.12 2150.04C2526.98 2170.48 2539.81 2197.12 2565.01 2211.51C2574.65 2217.02 2583.58 2224.37 2593.6 2230.1C2596.94 2232 2601.84 2229.4 2605.04 2231.53C2626.23 2245.65 2644.81 2256.09 2670.8 2258.69C2674.45 2259.05 2677.01 2265.11 2679.38 2265.84C2690.74 2269.33 2699.46 2268.06 2710.83 2271.55C2713.4 2272.35 2713.91 2276.69 2716.54 2277.27C2720.63 2278.18 2741.32 2275.92 2747.99 2278.7C2772.03 2288.72 2812.41 2292.34 2838.06 2293C2874.26 2293.93 2910.5 2292.07 2946.7 2293C2948.05 2293.03 2949.53 2294.51 2949.56 2295.86C2950.49 2335.4 2948.63 2374.97 2949.56 2414.51C2949.65 2418.3 2954.91 2428.43 2958.14 2431.67Z" fill="#222222" fill-rule="nonzero" opacity="1" stroke="none"/>
<path d="M3254.06 2184.35C3253.35 2182.92 3253.35 2182.92 3252.63 2181.49C3254.77 2179.35 3254.77 2179.35 3256.92 2177.2C3244.43 2164.72 3221.59 2176.15 3204.03 2174.34C3201.34 2174.07 3200.95 2169.15 3198.31 2168.63C3189.32 2166.83 3180.25 2165.43 3171.15 2164.34C3160.74 2163.09 3150.14 2165.21 3139.69 2164.34C3136.81 2164.1 3136.07 2157.71 3133.98 2157.19C3111.9 2151.67 3104.34 2149.14 3085.37 2138.61C3074.28 2132.44 3053.14 2130.54 3048.2 2115.73C3035.71 2115.73 3012.45 2087.13 3005.32 2079.99C2984.24 2058.92 2960.68 2022.17 2948.13 1997.08C2945.57 1991.95 2948.72 1985.3 2946.7 1979.92C2945.91 1977.81 2939.75 1971.52 2939.56 1969.92C2938.31 1959.51 2941.15 1948.83 2939.56 1938.47C2939.15 1935.8 2933.99 1935.44 2933.84 1932.75C2932.04 1900.87 2932.47 1868.87 2933.84 1836.97C2934.13 1830.17 2935.72 1815.85 2945.27 1812.67C2945.27 1764.91 2997.61 1704.23 3025.33 1665.42C3034.57 1652.49 3023.95 1622.48 3033.91 1612.53C3025.17 1603.79 2976 1609.14 2962.43 1609.67C2939.1 1610.58 2915.73 1609.33 2892.38 1609.67C2857.83 1610.16 2859.08 1617.38 2832.34 1626.82C2821.69 1630.58 2820.24 1623.58 2810.9 1628.25C2804.07 1631.66 2798.45 1639.86 2790.88 1641.12C2779.44 1643.02 2773.3 1642.58 2763.72 1646.84C2740.85 1657 2717.97 1677.02 2697.96 1692.58C2681.65 1705.27 2652 1713.85 2640.78 1734.04C2635.64 1743.29 2656.72 1751.09 2662.22 1755.48C2686.13 1774.61 2711.88 1795.69 2730.84 1819.81C2751.69 1846.36 2763.92 1875.56 2779.45 1902.73C2783.63 1910.05 2794.37 1920.29 2796.6 1928.46C2799.5 1939.11 2799.97 1950.95 2803.75 1961.34C2805.63 1966.51 2812.15 1971.71 2813.75 1977.06C2831.32 2035.61 2831.39 2105.71 2818.04 2165.77C2813.31 2187.05 2797.8 2204.83 2788.02 2224.38C2783.9 2232.63 2766.03 2242.76 2769.44 2252.97C2774.27 2267.46 2799.97 2254.45 2815.18 2255.83C2817.2 2256.01 2817.45 2259.99 2819.47 2260.12C2841.35 2261.46 2863.33 2259.21 2885.23 2260.12C2932.93 2262.11 3019.6 2263.94 3066.79 2242.96C3076.38 2238.7 3087.95 2243.59 3098.24 2241.53C3103.2 2240.54 3104.69 2232.43 3109.67 2231.53C3132.39 2227.4 3143.06 2228.42 3162.57 2218.66C3174.1 2212.89 3189.04 2214.54 3201.17 2211.51C3215.41 2207.95 3225.9 2196.98 3238.33 2190.07C3244.1 2186.87 3248.83 2189.59 3254.06 2184.35Z" fill="#eff0ef" fill-rule="nonzero" opacity="1" stroke="none"/>
<path d="M2640.78 1731.18C2630.09 1741.87 2612.27 1771.18 2595.03 1776.93C2595.03 1784.45 2552.85 1828.41 2547.86 1838.4C2541 1852.1 2533.82 1869.97 2530.7 1885.57C2529.9 1889.56 2533.96 1895.28 2532.13 1899.87C2529.78 1905.75 2518.94 1899.82 2517.83 1907.02C2517.27 1910.7 2518.17 1932.24 2514.98 1937.04C2506.97 1949.05 2505.2 1951.9 2504.97 1968.49C2504.56 1998.03 2503.54 2027.57 2503.54 2057.12C2503.54 2060.96 2508.45 2063.37 2509.26 2067.13C2513.58 2087.31 2516.95 2135.93 2542.14 2144.32C2542.14 2157.66 2573.71 2181.24 2582.17 2188.64C2587.91 2193.67 2600.92 2203.26 2607.9 2205.79C2612.67 2207.53 2620.63 2205.71 2625.05 2208.65C2651.4 2226.22 2679.84 2231.68 2709.4 2241.53C2720.12 2245.11 2750.42 2256.16 2762.29 2247.25C2769.97 2241.49 2773.24 2229.63 2778.02 2222.95C2796.39 2197.23 2816.17 2162.3 2816.61 2130.03C2817.04 2098.58 2818.04 2067.13 2818.04 2035.68C2818.04 2024.2 2812.79 2009.48 2820.9 2001.37C2816.49 1992.54 2818.97 1983.65 2816.61 1974.21C2815.6 1970.14 2807.96 1965.07 2806.61 1961.34C2802.89 1951.13 2802.61 1938.97 2799.46 1928.46C2797.1 1920.6 2786.45 1909.98 2782.3 1902.73C2771.29 1883.45 2757.97 1859.76 2749.42 1838.4C2746.02 1829.87 2722 1808.73 2717.97 1804.09C2695.02 1777.61 2663.95 1754.35 2640.78 1731.18Z" fill="#eedfc0" fill-rule="nonzero" opacity="1" stroke="none"/>
<path d="M3614.31 2192.93C3606.95 2200.29 3596.11 2191.31 3587.15 2195.79C3563.34 2207.69 3541.7 2221.22 3521.39 2241.53C3459.62 2303.3 3494.76 2397.88 3555.7 2447.39C3562.37 2452.81 3576.25 2464.89 3584.29 2467.41C3590.8 2469.44 3599.48 2466.87 3604.3 2471.69C3612.94 2467.37 3598.15 2473.7 3612.88 2474.55C3635.72 2475.87 3658.69 2476.31 3681.5 2474.55C3684.19 2474.35 3684.64 2469.63 3687.22 2468.83C3704.22 2463.6 3695.57 2474.05 3711.52 2467.41C3733.06 2458.43 3761.46 2439.15 3777.28 2418.8C3781.69 2413.13 3780.9 2405.78 3783 2398.79C3784.07 2395.22 3791.07 2395.33 3791.58 2391.64C3797.67 2346.92 3786.51 2298.92 3751.55 2270.13C3739.98 2260.6 3720.39 2259.5 3708.66 2250.11C3677.35 2225.06 3666.56 2201.4 3614.31 2192.93Z" fill="#222222" fill-rule="nonzero" opacity="1" stroke="none"/>
<path d="M4519.22 1576.79C4502.87 1593.14 4508.9 1615.65 4504.93 1636.83C4497.45 1676.7 4462.26 1722.69 4430.59 1751.19C4420.55 1760.23 4404.8 1764.71 4393.42 1771.21C4361.99 1789.17 4331.46 1809.57 4296.21 1818.38C4283.34 1821.6 4246.13 1818.48 4240.46 1829.82C4252.92 1842.28 4284.72 1849.66 4290.49 1866.99C4300.32 1866.99 4305.64 1879.5 4313.37 1885.57C4335.76 1903.17 4358.89 1919.59 4376.27 1942.76C4379.44 1946.98 4385.05 1959.21 4393.42 1954.19C4415.53 1940.93 4433.97 1914.59 4449.17 1895.58C4466.67 1873.71 4488.65 1850.62 4494.92 1825.53C4496.51 1819.16 4506.43 1811.64 4507.79 1805.52C4513.96 1777.72 4516.69 1747.68 4529.23 1722.6C4537.12 1706.83 4528.53 1687.33 4529.23 1669.71C4530.11 1647.79 4533.04 1625.87 4532.09 1603.95C4531.61 1592.84 4529.45 1581.9 4519.22 1576.79Z" fill="#eff0ef" fill-rule="nonzero" opacity="1" stroke="none"/>
<path d="M3344.12 2833.37C3337.97 2839.52 3340.85 2850.47 3339.83 2859.11C3339.16 2864.81 3324.29 2867.5 3321.25 2870.54C3324.82 2874.12 3324.82 2874.12 3328.4 2877.69C3326.97 2879.12 3326.97 2879.12 3325.54 2880.55C3347.54 2902.55 3339.19 2917.62 3346.98 2944.88C3351.33 2960.1 3371.13 2978.01 3381.29 2989.2C3420.58 3032.41 3540.47 3015.87 3594.3 3014.93C3605.92 3014.72 3615.12 3011.87 3624.32 3007.78C3649.98 2996.37 3656.07 2966.02 3672.92 2949.17C3666.27 2942.51 3660.46 2934.86 3654.34 2927.72C3649.32 2932.74 3652.32 2929.53 3645.76 2937.73C3630.43 2930.07 3603.02 2934.66 3590.01 2933.44C3582.28 2932.72 3567.07 2922.98 3559.99 2922.01C3522.59 2916.85 3515.02 2920.92 3475.64 2916.29C3472.97 2915.97 3472.57 2911.07 3469.92 2910.57C3461.97 2909.05 3453.52 2912.36 3445.62 2910.57C3442.34 2909.82 3441.82 2903.83 3438.47 2903.42C3421.44 2901.35 3404.08 2905.13 3387.01 2903.42C3384.33 2903.15 3383.87 2898.5 3381.29 2897.7C3377.19 2896.44 3372.64 2898.47 3368.43 2897.7C3361.54 2896.45 3367.57 2887.72 3367 2884.84C3362.29 2861.29 3364.14 2823.95 3364.14 2797.63C3364.14 2788.76 3374.07 2761.14 3364.14 2756.18C3356.56 2752.39 3358.42 2767.5 3358.42 2770.47C3358.42 2799.06 3359.78 2827.69 3358.42 2856.25C3358.31 2858.46 3353.86 2861.83 3351.27 2860.53C3343.33 2856.56 3350.93 2840.18 3344.12 2833.37Z" fill="#000000" fill-rule="nonzero" opacity="1" stroke="none"/>
<path d="M3148.27 1658.27C3149.7 1658.99 3149.7 1658.99 3151.13 1659.7C3163.29 1647.54 3153.13 1620.54 3165.43 1608.24C3166.86 1608.95 3166.86 1608.95 3168.29 1609.67C3174.23 1603.72 3180.75 1577.9 3182.58 1569.64C3183.58 1565.16 3192.92 1556.91 3195.45 1552.48C3207.89 1530.71 3228.81 1501 3236.91 1476.72C3239.4 1469.25 3256.18 1439.54 3241.19 1435.26C3231.51 1432.49 3214.04 1451.7 3205.45 1453.84C3171.49 1462.34 3118.27 1518.16 3093.95 1542.48C3070.79 1565.63 3058.42 1601.82 3049.63 1631.11C3048.58 1634.61 3040.23 1640.8 3039.63 1643.98C3036.44 1660.67 3033.57 1698.46 3039.63 1712.6C3053.54 1745.06 3102.66 1741.54 3126.83 1731.18C3146.32 1722.83 3136.51 1670.03 3148.27 1658.27Z" fill="#eedfc0" fill-rule="nonzero" opacity="1" stroke="none"/>
<path d="M3314.1 2909.14C3305.57 2900.61 3296.09 2884.26 3284.08 2896.27C3266.7 2878.89 3237.71 2866.69 3219.75 2850.53C3188.28 2822.2 3153.86 2800.23 3121.11 2774.76C3106.72 2763.57 3060.33 2743.57 3052.49 2729.02C3047.2 2719.19 3060.45 2714.65 3063.93 2709C3066.94 2704.11 3064.56 2692.34 3066.79 2687.56C3068.3 2684.32 3087.35 2654.34 3086.8 2653.25C3085.58 2650.8 3079.15 2647.49 3078.22 2646.1C3074.64 2640.72 3082.61 2642.58 3075.36 2638.95C3063.43 2632.99 3057.33 2669.3 3055.35 2673.26C3051.81 2680.35 3044.9 2684 3041.06 2690.42C3038.79 2694.19 3039.93 2700.82 3038.2 2704.71C3036.41 2708.73 3030.15 2709.36 3028.19 2713.29C3018.92 2731.83 3016.67 2763.61 3018.18 2784.77C3019.47 2802.74 3057.43 2832.18 3069.65 2843.38C3123.77 2892.99 3247.9 2975.34 3314.1 2909.14Z" fill="#000000" fill-rule="nonzero" opacity="1" stroke="none"/>
<path d="M3082.51 2657.54C3078.13 2661.92 3047.87 2723.07 3049.63 2731.87C3051.15 2739.44 3094.63 2759.58 3101.1 2764.75C3151.03 2804.7 3203.87 2840.68 3255.49 2881.98C3263.25 2888.18 3276.99 2892.04 3284.08 2899.13C3288.73 2894.48 3291.46 2898.27 3296.95 2894.84C3304.1 2890.38 3309.01 2883.03 3315.53 2877.69C3321.88 2872.49 3336.97 2873.17 3336.97 2861.96C3336.97 2851.95 3335.98 2841.95 3335.55 2831.94C3335.33 2827.04 3338.74 2822.96 3336.97 2817.65C3334.61 2810.54 3278.81 2795.39 3269.79 2791.92C3252.59 2785.3 3242.87 2772.91 3226.9 2763.32C3202.74 2748.83 3173.01 2732.22 3151.13 2714.72C3129.36 2697.3 3107.86 2670.21 3082.51 2657.54Z" fill="#eff0ef" fill-rule="nonzero" opacity="1" stroke="none"/>
<path d="M3950.26 2884.84C3955.72 2888.48 3953.83 2941.3 3970.27 2957.75C3985.97 2973.44 4021.42 2956.97 4023.16 2937.73C4024.03 2928.24 4024.03 2918.63 4023.16 2909.14C4022.33 2899.95 3998.69 2892.15 4008.87 2881.98C4044.36 2899.72 4012.92 2919.36 4060.33 2913.43C4062.7 2913.13 4086.01 2916.47 4088.92 2906.28C4092.58 2893.47 4081.49 2877.98 4091.78 2867.68C4099.75 2875.65 4094.99 2906.8 4103.22 2919.15C4116.9 2939.67 4156.83 2932.4 4160.4 2909.14C4164.3 2883.84 4132.59 2857.52 4117.52 2839.09C4112.76 2833.28 4106.8 2818.36 4098.93 2817.65C4085.03 2816.38 4073.77 2822.22 4061.76 2826.23C4054.97 2828.49 4047.01 2825.08 4040.32 2827.65C4012.75 2838.26 3982.55 2847.63 3954.55 2856.25C3939.51 2860.87 3922.86 2854.91 3907.37 2857.68C3904.72 2858.15 3904.31 2862.93 3901.65 2863.39C3892.73 2864.95 3883.41 2861.84 3874.49 2863.39C3871.83 2863.86 3871.43 2868.65 3868.77 2869.11C3858.35 2870.93 3840.67 2863.36 3837.32 2873.4C3834.19 2882.79 3852.86 2886.89 3857.34 2889.13C3882.81 2901.86 3905.65 2907.24 3934.53 2913.43C3938.42 2914.26 3935.79 2918.2 3940.25 2916.29C3956.16 2909.47 3939.92 2895.18 3950.26 2884.84Z" fill="#eedfc0" fill-rule="nonzero" opacity="1" stroke="none"/>
<path d="M3407.02 2032.82C3424.37 2015.47 3432.01 2022.06 3455.63 2017.09C3465.39 2015.04 3481.58 2007.78 3491.37 2004.23C3497.87 2001.86 3506.19 1990.11 3514.24 1992.79C3517.34 1993.82 3517.7 1999.11 3519.96 2001.37C3522.1 1999.22 3522.1 1999.22 3524.25 1997.08C3525.68 1997.79 3525.68 1997.79 3527.11 1998.51C3533.74 1991.88 3525.02 1983.23 3535.68 1978.49C3547 1973.46 3538.7 1983.22 3548.55 1977.06C3605.25 1941.63 3655.88 1887.22 3697.22 1835.54C3709.93 1819.66 3743.88 1745.65 3757.27 1741.19C3757.27 1729.16 3754.91 1733.54 3761.55 1726.89C3778.61 1735.42 3799.68 1727.79 3818.74 1728.32C3831.17 1728.67 3883.88 1739.95 3877.35 1726.89C3893.13 1711.11 3922.02 1732.26 3937.39 1716.88C3936.44 1715.93 3935.88 1714.07 3934.53 1714.03C3908.82 1713.11 3883.05 1714.94 3857.34 1714.03C3855.99 1713.98 3855.82 1711.21 3854.48 1711.17C3827.81 1710.25 3801.07 1712.52 3774.42 1711.17C3767.61 1710.82 3769.23 1697.92 3770.13 1691.15C3772.17 1675.88 3783.56 1644.54 3770.13 1631.11C3768.7 1632.54 3768.7 1632.54 3767.27 1633.97C3759.94 1626.63 3752.54 1640.19 3750.12 1646.84C3747.02 1655.36 3750.07 1665.04 3748.69 1674C3746.25 1689.87 3735.55 1715.95 3728.67 1728.32C3695.01 1788.92 3655.38 1845.9 3600.01 1897.01C3548.47 1944.59 3482.41 1979.66 3418.46 1995.65C3402.25 1999.7 3385.13 1998.51 3368.43 1998.51C3365.17 1998.51 3289.87 1965.82 3301.24 1994.22C3305.62 2005.18 3325.36 2005.13 3332.69 2008.52C3343.75 2013.62 3355.97 2021.91 3368.43 2024.24C3389.84 2028.26 3389.95 2021.44 3407.02 2032.82Z" fill="#000000" fill-rule="nonzero" opacity="1" stroke="none"/>
<path d="M2981.01 2450.25C2979.84 2451.43 2967.75 2462.88 2966.72 2465.98C2962.32 2479.17 2978.33 2493.95 2981.01 2506C2987.97 2537.31 3017.46 2577.29 3038.2 2603.21C3047.65 2615.04 3056.94 2638.32 3069.65 2644.67C3071.08 2643.24 3071.08 2643.24 3072.51 2641.81C3076.81 2646.11 3085.3 2653.38 3082.51 2658.97C3106.72 2683.18 3135.34 2703.95 3161.14 2723.3C3180.78 2738.02 3197.41 2756.94 3219.75 2763.32C3231.91 2766.8 3240.15 2783.88 3252.63 2787.63C3264.04 2791.05 3270.95 2794.63 3281.22 2800.49C3286.2 2803.34 3293.24 2799.36 3298.38 2801.92C3302.6 2804.03 3304.23 2809.69 3308.38 2811.93C3316.94 2816.54 3327.43 2807.37 3334.12 2819.08C3339.06 2827.73 3323.7 2880.95 3344.12 2860.53C3346.27 2862.68 3346.27 2862.68 3348.41 2864.82C3350.56 2863.39 3350.56 2863.39 3352.7 2861.96C3359.87 2869.14 3351.24 2879.09 3358.42 2886.27C3359.37 2885.31 3361.24 2884.76 3361.28 2883.41C3362.21 2845.77 3361.28 2808.12 3361.28 2770.47C3361.28 2761.24 3362.93 2764.32 3367 2756.18C3370.07 2750.03 3365.57 2732.96 3365.57 2727.59C3365.57 2693.75 3365.57 2659.92 3365.57 2626.09C3365.57 2617.25 3371 2614.47 3359.85 2607.5C3355.58 2604.83 3348.58 2612.78 3348.41 2614.65C3346.25 2638.86 3349.33 2663.27 3348.41 2687.56C3348.25 2691.81 3342.26 2699.29 3341.26 2703.28C3335.25 2727.34 3338.4 2752.82 3338.4 2777.62C3338.4 2779.58 3340.16 2781.4 3339.83 2783.34C3339.25 2786.86 3333.2 2787.17 3331.26 2786.2C3313.76 2777.45 3295.04 2774.23 3276.93 2766.18C3258.67 2758.07 3246.34 2742.31 3228.33 2733.3C3168.22 2703.25 3098.19 2645.92 3058.21 2587.49C3044.14 2566.93 3024.8 2538.71 3016.75 2514.58C3015.01 2509.34 3007.16 2507.24 3005.32 2501.71C3001.42 2490.04 2992.82 2478.7 2989.59 2467.41C2988 2461.83 2990.83 2454.35 2986.73 2450.25C2985.3 2451.68 2985.3 2451.68 2983.87 2453.11C2982.44 2451.68 2982.44 2451.68 2981.01 2450.25Z" fill="#222222" fill-rule="nonzero" opacity="1" stroke="none"/>
<path d="M3538.54 1702.59C3549.01 1723.52 3585.41 1721.98 3598.58 1748.33C3607.13 1765.42 3586.25 1778.24 3572.85 1781.21C3542.82 1787.89 3515.56 1783.69 3488.51 1776.93C3487.7 1776.72 3468.72 1773.38 3467.06 1778.36C3461.93 1793.77 3519.8 1812.55 3502.8 1831.25C3483.33 1852.68 3437.71 1858.57 3409.88 1846.97C3402.76 1844.01 3386.3 1822.31 3377 1826.96C3363.87 1833.53 3379.52 1853.78 3385.58 1859.84C3382.32 1864.19 3382.85 1870.36 3381.29 1875.57C3377.63 1887.76 3344.67 1905 3332.69 1897.01C3325.62 1892.3 3324.49 1886.68 3321.25 1881.28C3319.17 1877.82 3313.49 1876.67 3312.67 1872.71C3309.83 1858.98 3321.12 1842.2 3306.95 1834.11C3294.73 1827.13 3297.68 1855.49 3298.38 1877C3298.96 1895.22 3320.27 1912.47 3335.55 1914.16C3359.91 1916.87 3387.06 1904.51 3397.02 1881.28C3399.41 1875.7 3397.91 1868.35 3401.3 1862.7C3405.5 1855.7 3424.26 1861.35 3428.47 1865.56C3438.48 1860.55 3454.59 1872.51 3465.64 1866.99C3474.96 1862.33 3485.97 1864.68 3495.66 1859.84C3508.69 1853.32 3512.53 1841.54 3521.39 1832.68C3518.05 1826 3516.19 1803.59 3522.82 1799.8C3525.53 1798.25 3539.21 1801.23 3542.83 1801.23C3571.61 1801.23 3602.9 1796.89 3615.74 1766.92C3628.71 1736.66 3554.43 1686.7 3538.54 1702.59Z" fill="#000000" fill-rule="nonzero" opacity="1" stroke="none"/>
<path d="M3021.04 1439.55C2978.11 1440.48 2933.28 1499.28 2915.25 1535.33C2911.79 1542.25 2893.08 1585.95 2905.25 1586.79C2924.26 1588.12 2943.37 1587.25 2962.43 1586.79C2969.28 1586.63 2982.18 1587.29 2988.16 1586.79C2995.51 1586.18 2996.89 1526.3 3001.03 1513.89C3006.06 1498.79 3036.44 1439.21 3021.04 1439.55Z" fill="#eedfc0" fill-rule="nonzero" opacity="1" stroke="none"/>
<path d="M3329.83 1573.93C3327.05 1576.71 3328.72 1581.85 3326.97 1585.36C3324.24 1590.82 3318.73 1594.46 3315.53 1599.66C3313.84 1602.4 3321.25 1653.91 3321.25 1659.7C3321.25 1667.54 3317.97 1678.03 3319.82 1685.43C3322.4 1695.77 3333.36 1691.91 3338.4 1686.86C3337.69 1685.43 3337.69 1685.43 3336.97 1684C3356.72 1664.26 3375.56 1637.79 3398.45 1622.53C3405.66 1617.72 3419.62 1615.65 3425.61 1609.67C3424.89 1608.24 3424.89 1608.24 3424.18 1606.81C3431.09 1599.89 3445.73 1599.08 3455.63 1595.37C3462.78 1592.69 3470.19 1582.42 3478.5 1579.65C3497.22 1573.41 3515.66 1564.95 3534.25 1559.63C3545.18 1556.51 3576.83 1554.53 3582.86 1542.48C3587.47 1533.26 3568.39 1530.24 3549.98 1531.04C3539.44 1531.5 3531.99 1541.16 3522.82 1543.91C3500.58 1550.58 3477.11 1553.9 3457.06 1563.92C3431.52 1576.69 3399.88 1593.22 3378.43 1611.1C3378.41 1611.12 3341.17 1651.84 3339.83 1641.12C3337.22 1620.23 3345.78 1589.88 3329.83 1573.93Z" fill="#000000" fill-rule="nonzero" opacity="1" stroke="none"/>
<path d="M3991.71 1748.33C4003.78 1760.4 4040.56 1768.09 4057.47 1769.78C4063.88 1770.42 4070.39 1779.47 4076.06 1781.21C4081.07 1782.76 4087.1 1778.87 4091.78 1781.21C4097.02 1783.83 4093.87 1789.37 4100.36 1791.22C4114.3 1795.2 4127.69 1795.54 4141.82 1798.37C4149.49 1799.9 4157.49 1815.73 4166.12 1818.38C4181.75 1823.19 4212.53 1828.96 4219.02 1848.4C4237.6 1848.4 4235.67 1855.27 4250.47 1835.54C4238.88 1823.95 4238.06 1819.35 4247.61 1809.81C4239.16 1801.36 4223.69 1808.7 4211.87 1806.95C4209.32 1806.57 4199.98 1796.58 4197.57 1795.51C4187.09 1790.85 4175.42 1785.51 4164.69 1781.21C4146.58 1773.97 4119.96 1757.77 4103.22 1754.05C4084.74 1749.95 4069.85 1750.8 4051.76 1745.48C4047.54 1744.24 4046.14 1736.9 4041.75 1736.9C4028.87 1736.9 4015.86 1736.28 4003.15 1738.33C3998.15 1739.13 3995.77 1745.3 3991.71 1748.33Z" fill="#000000" fill-rule="nonzero" opacity="1" stroke="none"/>
<path d="M3229.76 1429.54C3223.37 1435.93 3191.53 1448.02 3181.15 1450.99C3176.93 1452.19 3175.95 1458.18 3172.57 1460.99C3150.7 1479.22 3122.75 1492.24 3099.67 1515.32C3086.82 1528.17 3064.29 1547.2 3058.21 1563.92C3056.54 1568.52 3051.79 1590.21 3043.91 1591.08C3032.07 1592.4 3019.81 1588.54 3008.18 1591.08C3003.57 1592.09 3002.85 1600.49 2998.17 1601.09C2975.48 1603.98 2952.42 1601.09 2929.55 1601.09C2923.69 1601.09 2919.61 1599.59 2915.25 1603.95C2925.37 1614.06 3005.93 1609.76 3025.33 1612.53C3033.06 1613.63 3034.77 1666.28 3039.63 1671.14C3045.73 1665.04 3040.79 1653.87 3042.48 1645.41C3043.48 1640.44 3051.35 1638.91 3052.49 1633.97C3053.46 1629.79 3051.72 1625.32 3052.49 1621.1C3056.04 1601.59 3095.19 1540.63 3112.53 1526.75C3132.34 1510.91 3164.15 1474.94 3188.3 1465.28C3203.04 1459.38 3231.58 1447.73 3242.62 1436.69C3238.23 1430.09 3234.91 1434.7 3229.76 1429.54Z" fill="#453f38" fill-rule="nonzero" opacity="1" stroke="none"/>
<path d="M3321.25 2095.72C3325.79 2091.18 3329.57 2087.39 3334.12 2082.85C3329.69 2078.43 3321.92 2074.86 3319.82 2068.56C3314.41 2052.34 3331.84 2033.41 3315.53 2017.09C3300.12 2024.8 3312.94 2040.68 3308.38 2052.83C3300.78 2073.12 3275.45 2093.84 3252.63 2088.57C3247.31 2087.34 3249.86 2081.23 3248.34 2078.56C3234.57 2054.47 3244.83 2040.35 3249.77 2015.66C3251.19 2008.55 3255.28 1986.71 3239.76 1991.36C3230.41 1994.17 3235.56 2002.47 3234.05 2008.52C3226.63 2038.18 3211.43 2078.07 3239.76 2102.87C3248.39 2110.41 3273.94 2112.32 3282.65 2108.58C3296.33 2102.72 3306.47 2073.56 3321.25 2095.72Z" fill="#000000" fill-rule="nonzero" opacity="1" stroke="none"/>
<path d="M3793.01 2877.69C3800.45 2885.13 3813.97 2879.6 3824.46 2880.55C3831.73 2881.21 3848.17 2894.49 3855.91 2899.13C3869.94 2907.55 3853.06 2935.85 3860.19 2947.74C3878.68 2978.55 3931.69 2937.72 3945.97 2923.44C3936.47 2904.43 3930.56 2919.83 3914.52 2909.14C3902.74 2901.29 3889.96 2904.01 3877.35 2897.7C3864.01 2891.03 3843.35 2874.09 3833.03 2874.83C3819.69 2875.78 3802.46 2868.23 3793.01 2877.69Z" fill="#6e685e" fill-rule="nonzero" opacity="1" stroke="none"/>
<path d="M2910.96 1508.17C2919.23 1519.19 2895.08 1547.19 2898.1 1566.78C2899.05 1572.98 2896.53 1580.93 2900.96 1585.36C2909.04 1577.28 2913.5 1546.85 2918.11 1535.33C2928.73 1508.79 2962.6 1478.64 2985.3 1462.42C2995.08 1455.44 3010.94 1440.95 3023.9 1445.27C3017.05 1458.96 3013.93 1472.25 3011.03 1486.72C3007.57 1504.02 2991.95 1522.46 2991.02 1541.05C2990.59 1549.61 2990.61 1558.21 2991.02 1566.78C2991.24 1571.39 2987.6 1598.79 3002.46 1583.94C2991.76 1573.24 3001.38 1559.65 3003.89 1549.63C3006.65 1538.57 3001.48 1538.57 3005.32 1529.61C3007.01 1525.66 3016.17 1518.06 3016.75 1515.32C3017.95 1509.72 3015.94 1503.82 3016.75 1498.16C3018.27 1487.55 3028.4 1475.88 3031.05 1465.28C3033.33 1456.16 3040.38 1434.92 3029.62 1429.54C3015.51 1422.49 2999.73 1440.62 2989.59 1446.7C2977.98 1453.67 2970.12 1459.85 2958.14 1471C2949.51 1479.04 2940.75 1486.96 2932.41 1495.3C2926.03 1501.68 2919.33 1502.59 2910.96 1508.17Z" fill="#6e685e" fill-rule="nonzero" opacity="1" stroke="none"/>
<path d="M3076.79 1825.53C3049.83 1826.88 3023.28 1836.94 2998.17 1844.12C2991.68 1845.97 2986.27 1860.32 2993.88 1864.13C2998.24 1866.31 3043.61 1851.02 3052.49 1849.83C3081.72 1845.94 3103.67 1851.08 3131.12 1852.69C3140.96 1853.27 3128.98 1856.1 3141.12 1859.84C3149.68 1862.47 3167.08 1865.56 3176.86 1865.56C3197.56 1865.56 3175.94 1839.85 3171.15 1836.97C3168.7 1835.5 3163.62 1838.38 3161.14 1836.97C3138.93 1824.28 3103.53 1824.19 3076.79 1825.53Z" fill="#000000" fill-rule="nonzero" opacity="1" stroke="none"/>
<path d="M3954.55 2880.55C3936.56 2889.54 3952.34 2904.2 3940.25 2916.29C3944.56 2920.59 3943.63 2921.23 3940.25 2926.29C3951.62 2937.66 3946.04 2933.88 3948.83 2952.03C3952.17 2973.75 3992.13 2973.47 4003.15 2973.47C4006.05 2973.47 4009.01 2973.06 4011.73 2972.04C4026.38 2966.55 4037.36 2929.89 4040.32 2929.15C4054.26 2925.67 4085.14 2930.08 4094.64 2920.58C4082.55 2896.39 4062.11 2917.78 4038.89 2913.43C4029.47 2911.66 4027.3 2872.5 4007.44 2879.12C3992.55 2884.08 4019.14 2904.1 4020.31 2909.14C4027.79 2941.57 4009.83 2965.88 3974.56 2957.75C3956 2953.46 3955.43 2881.43 3954.55 2880.55Z" fill="#453f38" fill-rule="nonzero" opacity="1" stroke="none"/>
<path d="M4816.57 1558.2C4813.3 1561.47 4810.09 1570.97 4812.28 1575.36C4791.67 1595.97 4778.47 1622.52 4755.1 1642.55C4735.44 1659.4 4712.78 1679.34 4690.77 1694.01C4685.36 1697.62 4676.09 1697.26 4670.76 1702.59C4688.7 1720.53 4706.55 1701.12 4723.65 1689.72C4756.42 1667.88 4791.28 1643.38 4816.57 1609.67C4822.46 1601.81 4821.63 1590.32 4829.44 1582.51C4823.83 1575.03 4822.25 1563.88 4816.57 1558.2Z" fill="#453f38" fill-rule="nonzero" opacity="1" stroke="none"/>
<path d="M3581.43 1525.32C3585.86 1529.75 3593.82 1527.23 3600.01 1528.18C3604.36 1528.85 3605.22 1535.38 3608.59 1538.19C3612.4 1541.36 3627.27 1534.95 3631.46 1533.9C3651.89 1528.79 3671.76 1531.6 3692.94 1528.18C3696.26 1527.65 3696.87 1522.04 3700.08 1521.03C3705.09 1519.47 3710.63 1520.24 3715.81 1521.03C3725.05 1522.46 3724.22 1533.74 3728.67 1538.19C3731.45 1535.41 3729.91 1530.33 3731.53 1526.75C3732.93 1523.68 3737.17 1522.62 3738.68 1519.6C3748.14 1500.7 3706.35 1505.66 3681.5 1506.74C3663.82 1507.51 3595.81 1510.95 3581.43 1525.32Z" fill="#000000" fill-rule="nonzero" opacity="1" stroke="none"/>
<path d="M2966.72 2285.85C2965.29 2287.28 2962.48 2288.12 2962.43 2290.14C2961.51 2323.96 2964.77 2357.81 2963.86 2391.64C2963.52 2404.21 2951.8 2453.92 2963.86 2465.98C2965.29 2464.55 2965.29 2464.55 2966.72 2463.12C2968.15 2464.55 2968.15 2464.55 2969.58 2465.98C2980.98 2454.57 2988.83 2452.56 2983.87 2430.24C2982.92 2425.94 2975.41 2418.2 2975.3 2413.08C2974.36 2373.06 2975.76 2333.02 2975.3 2293C2975.28 2291.49 2974.34 2290.14 2973.87 2288.71C2968.23 2288.71 2970.59 2289.72 2966.72 2285.85Z" fill="#453f38" fill-rule="nonzero" opacity="1" stroke="none"/>
<path d="M3211.17 1665.42C3192.9 1683.7 3211.26 1723.94 3194.02 1741.19C3197.19 1747.54 3196.14 1744.37 3195.45 1756.91C3195.11 1763.06 3191.89 1806.02 3209.74 1798.37C3218.56 1794.59 3212.6 1774.21 3212.6 1766.92C3212.6 1746.17 3234.55 1683.7 3214.03 1676.86C3214.03 1666.93 3216.05 1670.3 3211.17 1665.42Z" fill="#000000" fill-rule="nonzero" opacity="1" stroke="none"/>
<path d="M2966.72 1581.08C2945.17 1591.85 2918.68 1571.93 2900.96 1589.65C2905.72 1594.42 2914.43 1590.88 2920.97 1592.51C2925.59 1593.67 2924.8 1603.57 2929.55 1603.95C2952.35 1605.77 2975.48 1606.84 2998.17 1603.95C3002.85 1603.35 3003.55 1594.89 3008.18 1593.94C3020.78 1591.35 3033.94 1594.83 3046.77 1593.94C3051.39 1593.62 3050.22 1584.25 3046.77 1583.94C3032.06 1582.6 3017.23 1583.94 3002.46 1583.94C2992.58 1583.94 2979.86 1585.46 2966.72 1581.08Z" fill="#131010" fill-rule="nonzero" opacity="1" stroke="none"/>
<path d="M3291.23 1556.77C3279.99 1568.01 3266.27 1575.64 3255.49 1588.22C3252.11 1592.17 3265.86 1605.02 3271.21 1603.95C3282.82 1601.63 3295.06 1566.32 3311.24 1582.51C3320.84 1576.11 3329.71 1568.09 3291.23 1556.77Z" fill="#000000" fill-rule="nonzero" opacity="1" stroke="none"/>
<path d="M4563.54 1791.22C4580.27 1791.22 4591.35 1800.06 4600.71 1814.09C4612.2 1803.88 4616.94 1801.31 4612.14 1786.93C4607.28 1786.93 4606.13 1783.63 4603.57 1779.79C4605 1778.36 4605 1778.36 4606.43 1776.93C4600.75 1771.25 4552.41 1768.59 4550.67 1772.64C4546.97 1781.28 4561.17 1784.12 4563.54 1791.22Z" fill="#000000" fill-rule="nonzero" opacity="1" stroke="none"/>
<path d="M3873.06 2909.14C3864.86 2913.24 3866.65 2927.38 3868.77 2936.3C3875.38 2964.04 3940.12 2927.14 3918.81 2919.15C3910.43 2916.01 3900.65 2918.32 3891.65 2914.86C3885.6 2912.53 3878.86 2906.24 3873.06 2909.14Z" fill="#ddc2c4" fill-rule="nonzero" opacity="1" stroke="none"/>
<path d="M2700.82 1922.74C2692.4 1931.16 2679.86 1927.82 2670.8 1939.9C2651.49 1965.64 2709.84 1945.5 2719.4 1932.75C2715.11 1927.74 2715.11 1927.74 2700.82 1922.74Z" fill="#453f38" fill-rule="nonzero" opacity="1" stroke="none"/>
<path d="M2773.73 1619.67C2778.26 1624.2 2782.06 1620.86 2786.59 1625.39C2785.88 1626.82 2785.88 1626.82 2785.16 1628.25C2788.5 1631.59 2791.19 1635.73 2795.17 1638.26C2802.36 1642.83 2810.57 1634.19 2815.18 1631.11C2821.63 1626.82 2833.92 1633.82 2840.92 1626.82C2834.48 1620.38 2822.76 1625.31 2813.75 1623.96C2809.41 1623.31 2809.44 1615.02 2805.18 1613.96C2799.39 1612.51 2777.85 1615.55 2773.73 1619.67Z" fill="#453f38" fill-rule="nonzero" opacity="1" stroke="none"/>
<path d="M4354.82 1672.57C4336.75 1690.64 4351.71 1704.33 4370.55 1716.88C4391.34 1701.29 4365.76 1687.15 4354.82 1672.57Z" fill="#000000" fill-rule="nonzero" opacity="1" stroke="none"/>
<path d="M3229.76 1432.4C3234.6 1437.25 3240.88 1432.15 3244.05 1439.55C3248.57 1450.08 3243.44 1467.53 3251.2 1475.29C3254.64 1471.85 3253.11 1465.76 3254.06 1460.99C3258.22 1440.22 3267.54 1425.82 3235.48 1428.11C3233.29 1428.27 3231 1431.16 3229.76 1432.4Z" fill="#7f7f7f" fill-rule="nonzero" opacity="1" stroke="none"/>
<path d="M3311.24 2879.12C3306.74 2883.62 3298.5 2885.59 3295.52 2890.56C3289.67 2900.3 3314.24 2917.52 3328.4 2896.27C3319.82 2887.7 3319.82 2887.7 3311.24 2879.12Z" fill="#222222" fill-rule="nonzero" opacity="1" stroke="none"/>
<path d="M4600.71 1779.79C4604.59 1783.66 4606.36 1789.53 4612.14 1789.79C4621.68 1790.23 4631.2 1791.65 4640.74 1791.22C4642.08 1791.16 4642.64 1789.32 4643.6 1788.36C4631.33 1776.1 4615.6 1764.89 4600.71 1779.79Z" fill="#453f38" fill-rule="nonzero" opacity="1" stroke="none"/>
<path d="M3309.81 2880.55C3315.53 2886.27 3320.45 2892.92 3326.97 2897.7C3337.54 2905.46 3338.97 2889.69 3329.83 2880.55C3330.54 2879.12 3330.54 2879.12 3331.26 2877.69C3321.29 2869.72 3318.15 2872.21 3309.81 2880.55Z" fill="#453f38" fill-rule="nonzero" opacity="1" stroke="none"/>
<path d="M2860.93 1593.94C2865 1598.02 2862.67 1596.05 2868.08 1599.66C2867.36 1601.09 2867.36 1601.09 2866.65 1602.52C2870.98 1606.85 2883.19 1611.71 2888.09 1606.81C2886.66 1605.38 2886.66 1605.38 2885.23 1603.95C2886.66 1602.52 2886.66 1602.52 2888.09 1601.09C2885.04 1596.51 2885.49 1594.72 2883.8 1589.65C2875.96 1589.65 2866.86 1588.01 2860.93 1593.94Z" fill="#000000" fill-rule="nonzero" opacity="1" stroke="none"/>
</g>
</g>
</svg>
