<?xml version="1.0" encoding="UTF-8" standalone="no"?>
<!DOCTYPE svg PUBLIC "-//W3C//DTD SVG 1.1//EN" "http://www.w3.org/Graphics/SVG/1.1/DTD/svg11.dtd">
<!-- Created with Vectornator (http://vectornator.io/) -->
<svg height="100%" stroke-miterlimit="10" style="fill-rule:nonzero;clip-rule:evenodd;stroke-linecap:round;stroke-linejoin:round;" version="1.1" viewBox="0 0 7680 4320" width="100%" xml:space="preserve" xmlns="http://www.w3.org/2000/svg" xmlns:xlink="http://www.w3.org/1999/xlink">
<defs/>
<clipPath id="ArtboardFrame">
<rect height="4320" width="7680" x="0" y="0"/>
</clipPath>
<g clip-path="url(#ArtboardFrame)" id="Ebene-1">
<g opacity="1">
<path d="M2984.68 913.782C2978.26 920.197 2983.56 926.252 2978.35 932.766C2919.09 1006.84 2876.79 1083.46 2847.57 1171.13C2840.48 1192.39 2814.01 1208.12 2809.6 1230.19C2805.77 1249.34 2796.47 1252.7 2790.62 1270.27C2781.84 1296.6 2777.86 1323.33 2769.52 1350.42C2766.99 1358.64 2754.18 1358.07 2752.65 1367.3C2748.34 1393.12 2748.24 1434.67 2733.66 1458C2731.55 1461.37 2726.09 1462.56 2725.22 1466.44C2700.91 1575.87 2695.44 1700.53 2708.35 1810.27C2711.43 1836.44 2711.16 1871.98 2718.9 1896.75C2722.76 1909.1 2733.4 1925.49 2737.88 1938.94C2740.78 1947.64 2736.38 1957.93 2739.99 1966.36C2751.86 1994.05 2764.52 2023.9 2782.18 2048.63C2786.16 2054.2 2787.36 2067.43 2790.62 2073.94C2805.98 2104.66 2828.48 2134.27 2849.68 2162.53C2863.12 2180.46 2865.09 2198.49 2883.43 2213.16C2878.32 2223.37 2894.28 2235.16 2900.3 2242.69C2902.41 2241.63 2902.41 2241.63 2904.52 2240.58C2934.85 2270.9 2963.97 2300.37 2997.33 2327.06C2994.17 2330.23 2994.17 2330.23 2991.01 2333.39C2997.05 2339.44 3007.88 2336.2 3016.32 2337.61C3025.65 2339.17 3027.92 2352.79 3035.3 2358.7C3062.32 2380.31 3099.25 2391.73 3130.22 2407.22C3293.58 2488.9 3491.12 2533.1 3684.99 2535.89C3781.31 2537.28 3877.66 2537.28 3973.97 2535.89C4002.01 2535.49 4052.67 2528.26 4081.55 2527.45C4106.24 2526.77 4131.07 2525.47 4155.38 2521.13C4159.3 2520.43 4159.98 2513.71 4163.82 2512.69C4186.38 2506.67 4219.15 2509.95 4241.87 2506.36C4245.1 2505.85 4251.29 2498.64 4254.52 2497.92C4316.31 2484.19 4368.15 2468.08 4425.38 2445.19C4446.26 2436.84 4506.18 2397.31 4524.52 2415.66C4531.26 2408.92 4525.44 2402.69 4532.96 2396.67C4560.92 2374.3 4591.2 2353.57 4619.44 2333.39C4627.36 2327.74 4645.16 2307.22 4655.3 2312.3C4691.71 2275.89 4751.98 2220.07 4777.65 2177.3C4784.04 2166.65 4786.15 2145.59 4794.52 2137.22C4796.63 2138.27 4796.63 2138.27 4798.74 2139.33C4814.82 2123.25 4815.33 2081.07 4836.71 2073.94C4836.71 2049.53 4858.76 2018.34 4866.24 1995.89C4872.2 1978.03 4867.63 1952.51 4872.57 1934.72C4893.86 1858.07 4897.88 1789.25 4897.88 1698.47C4897.88 1598.01 4865.28 1513.62 4830.38 1426.36C4816.41 1391.42 4817.96 1347.49 4807.18 1312.45C4795.62 1274.89 4773.82 1234.93 4758.66 1198.55C4751.75 1181.96 4753.15 1159.13 4743.9 1143.7C4727.64 1116.62 4702.87 1091.19 4689.05 1063.55C4685.74 1056.93 4685.03 1045.15 4682.72 1038.24C4680.67 1032.09 4672.11 1030.56 4667.96 1025.58C4664.76 1021.73 4664.27 1010.22 4661.63 1006.59C4646.01 985.109 4628.8 969.438 4611.01 947.532C4606.2 941.612 4618.8 943.901 4606.79 939.095C4597.62 935.429 4510.28 978.583 4499.21 985.501C4480.58 997.142 4426.15 1022.75 4406.4 1027.69C4391.25 1031.47 4370.25 1032.03 4355.77 1038.24C4346.13 1042.37 4340.01 1052.97 4330.46 1057.22C4322.04 1060.96 4310.03 1058.09 4300.93 1063.55C4285.25 1072.96 4261.89 1089.81 4243.97 1095.19C4223.05 1101.46 4237.26 1089.25 4227.1 1099.41C4229.21 1101.52 4229.21 1101.52 4231.32 1103.63C4228.15 1106.79 4228.15 1106.79 4224.99 1109.95C4230.46 1115.43 4288.89 1115.38 4309.37 1120.5C4380.35 1138.25 4445.58 1162.05 4505.54 1204.88C4518.65 1214.25 4579.49 1255.26 4566.71 1280.81C4629.18 1343.28 4654.05 1408.69 4674.29 1489.64C4679.02 1508.57 4707.54 1523.47 4708.04 1540.27C4710.08 1609.14 4710.08 1678.11 4708.04 1746.99C4707.85 1753.3 4693.06 1771.35 4686.94 1774.41C4677.83 1765.3 4687.62 1753.99 4678.51 1744.88C4668.32 1755.06 4674.59 1783.02 4667.96 1797.61C4643.62 1851.15 4620.44 1914.42 4577.26 1962.14C4411.69 2145.14 4156.84 2130.24 3986.63 1960.03C3962.59 1935.99 3928.18 1898.28 3914.91 1865.11C3909.63 1851.89 3900.42 1829.52 3889.6 1818.7C3888.18 1820.12 3879.23 1828.25 3879.05 1831.36C3877.77 1853.82 3879.64 1876.37 3879.05 1898.86C3878.71 1912.05 3870.98 1918.48 3868.51 1928.39C3860.79 1959.27 3853.15 1988.94 3841.08 2019.09C3833.45 2038.17 3817.41 2054.02 3809.44 2073.94C3803.68 2088.35 3785.88 2126.67 3769.37 2126.67C3748.37 2126.67 3721.73 2075.7 3712.41 2057.06C3687.81 2007.87 3658.03 1959.32 3640.69 1907.3C3634.23 1887.9 3636.67 1842.11 3625.93 1831.36C3614.89 1842.4 3608.78 1863.39 3598.51 1877.77C3568.19 1920.21 3529.11 1967.88 3482.49 1993.78C3322.79 2082.5 3127.01 2047.52 2997.33 1917.84C2980.39 1900.9 2957.99 1873.27 2948.82 1850.34C2926.72 1795.1 2905.25 1745.72 2893.97 1683.7C2889.27 1657.8 2896.7 1604.16 2879.21 1586.67C2867.71 1598.17 2879.46 1611.73 2868.66 1622.53C2855.89 1609.76 2862.33 1516.23 2862.33 1491.75C2862.33 1471.26 2867.83 1442.33 2872.88 1422.14C2874.62 1415.19 2884.02 1410.76 2885.54 1403.16C2907.18 1294.94 2994.79 1200.92 3090.15 1143.7C3105.98 1134.2 3129.53 1123.81 3147.1 1116.28C3170.16 1106.4 3212.01 1118.88 3229.37 1101.52C3211.08 1083.24 3178.03 1103.39 3155.54 1084.64C3117.86 1053.24 3078.67 1022.54 3043.74 987.61C3021.01 964.875 3007.37 936.476 2984.68 913.782Z" fill="#fd9429" fill-rule="nonzero" opacity="1" stroke="none"/>
<path d="M2214.76 681.751C2205.68 690.824 2208.19 706.891 2208.43 719.72C2208.94 747.849 2211.84 775.991 2210.54 804.095C2210.25 810.368 2184.88 818.576 2178.9 820.97C2149.06 832.902 2123.45 848.216 2096.63 867.376C2009.15 929.859 1946.08 1009.88 1887.8 1097.3C1816.99 1203.51 1811.03 1391.92 1813.97 1512.84C1815.65 1581.34 1838.21 1659.38 1860.38 1725.89C1928.62 1930.62 2025.58 2077.42 2199.99 2230.03C2261.53 2283.88 2373.32 2344.58 2451.01 2358.7C2488.5 2365.52 2526.31 2369.25 2564.91 2369.25C2592.52 2369.25 2595.32 2361.69 2611.32 2377.69C2618.58 2372.85 2619.27 2372.5 2615.54 2365.03C2620.61 2359.96 2630.29 2364.17 2636.63 2360.81C2644.54 2356.63 2647.53 2345.66 2655.62 2341.83C2661.97 2338.82 2669.95 2343.76 2676.71 2341.83C2682.94 2340.05 2685.46 2331.58 2691.47 2329.17C2745.08 2307.73 2842.26 2237.01 2858.12 2181.52C2863.91 2161.22 2837.15 2152.48 2832.8 2135.11C2823.61 2098.34 2778.15 2051.31 2765.3 2012.77C2752.63 1974.75 2733.36 1933.51 2723.12 1892.53C2701.7 1806.87 2706.24 1686.03 2706.24 1605.66C2706.24 1576.74 2714.52 1514.4 2729.44 1487.53C2731.37 1484.06 2736.97 1482.97 2737.88 1479.09C2746.31 1443.26 2747.77 1403.7 2756.87 1367.3C2758.47 1360.89 2772.04 1359.78 2773.74 1350.42C2778.66 1323.38 2784.12 1295.99 2794.83 1270.27C2810.01 1233.84 2851.94 1195.09 2843.35 1152.14C2842.41 1147.44 2834.59 1141.54 2832.8 1137.38C2806.52 1076.05 2763.16 1019.22 2712.57 968.626C2695.78 951.839 2658.29 927.567 2647.18 905.345C2635.58 882.151 2602.41 872.766 2590.22 848.391C2592.33 846.282 2592.33 846.282 2594.44 844.173C2613.13 862.859 2612.08 845.824 2632.41 833.626C2637.38 830.643 2645.19 833.507 2649.29 829.407C2635.72 815.842 2585.03 809.239 2567.02 804.095C2503.78 786.026 2441.56 774.563 2368.74 774.563C2335 774.563 2294.42 778.663 2261.16 783.001C2246.1 784.965 2245.22 795.383 2223.19 793.548C2221.21 793.383 2219.05 791.316 2218.97 789.329C2217.62 754.902 2220.32 720.396 2218.97 685.97C2218.9 683.982 2216.16 683.157 2214.76 681.751Z" fill="#fd5fac" fill-rule="nonzero" opacity="1" stroke="none"/>
<path d="M4644.76 2400.89C4676.66 2432.8 4709.94 2456.53 4739.68 2493.7C4746.01 2487.38 4746.01 2487.38 4752.33 2481.05C4761.55 2490.27 4801.61 2542.81 4798.74 2548.55C4796.68 2552.67 4778.35 2567.3 4775.54 2569.64C4827.25 2673.08 4844.89 2801.34 4914.76 2894.49C4923.53 2890.1 4931.94 2895.62 4942.18 2894.49C4953.18 2893.26 4947.37 2879.3 4956.94 2877.61C4962.02 2876.71 5002.96 2875.11 5009.68 2881.83C5011.79 2880.77 5011.79 2880.77 5013.9 2879.72C5022.59 2888.41 5013.76 2881.83 5032.88 2881.83C5072.26 2881.83 5111.62 2883.94 5151.01 2883.94C5234.22 2883.94 5312.8 2837.85 5380.93 2803.78C5445.87 2771.31 5508.15 2712.42 5560.22 2660.34C5726.91 2493.66 5779.6 2254.27 5779.6 2019.09C5779.6 1988.01 5758.75 1856.92 5737.41 1835.58C5731.36 1841.63 5736.45 1852.98 5733.19 1860.89C5729.44 1870 5708.12 1888.86 5699.44 1894.64C5686.27 1881.47 5687.9 1857.59 5686.79 1839.8C5686.38 1833.31 5678.08 1829.94 5676.24 1825.03C5667.34 1801.28 5637.63 1692.79 5650.93 1679.49C5620.23 1638.55 5583.94 1601.95 5545.46 1563.47C5539.51 1557.53 5540.09 1549.85 5545.46 1544.49C5532.83 1525.54 5495.01 1515.07 5475.85 1502.3C5398.91 1451.01 5229.65 1421.18 5140.46 1439.02C5105.39 1446.03 5052.57 1449.8 5024.44 1468.55C5008.99 1478.85 4983.38 1480.81 4967.49 1489.64C4939.54 1505.17 4915.88 1528.09 4889.44 1546.59C4886.74 1548.49 4876.29 1550.19 4874.68 1555.03C4872.63 1561.18 4877.98 1567.6 4878.9 1574.02C4883.39 1605.49 4885.9 1639.15 4889.44 1671.05C4895.73 1727.65 4894.46 1785.13 4891.55 1841.91C4890.23 1867.66 4882.87 1895.02 4876.79 1917.84C4875.76 1921.69 4869.09 1922.37 4868.35 1926.28C4864.27 1947.68 4870.65 1974.33 4862.02 1995.89C4856.17 2010.53 4850.04 2032.85 4840.93 2046.52C4834.43 2056.27 4829.18 2053.96 4824.05 2065.5C4817.57 2080.09 4821.23 2103.48 4811.4 2118.24C4806.4 2125.73 4797.33 2129.49 4790.3 2135.11C4782.8 2141.11 4784.5 2156.73 4779.76 2164.64C4752.04 2210.84 4705.14 2248.63 4670.07 2289.09C4668.49 2290.91 4656.26 2299.36 4655.3 2301.75C4643.53 2331.19 4665.18 2380.47 4644.76 2400.89Z" fill="#afc73b" fill-rule="nonzero" opacity="1" stroke="none"/>
<path d="M3020.54 2373.47C3029.78 2391.95 3041.78 2398.93 3058.51 2415.66C3092.62 2449.77 3102.14 2503.71 3113.35 2548.55C3114.81 2554.38 3125 2561.48 3126.01 2567.53C3131.02 2597.59 3121.06 2644.85 3142.88 2666.67C3165.62 2655.3 3192.89 2714.51 3212.49 2719.41C3220.15 2721.32 3224.12 2709.4 3231.47 2708.86C3248.3 2707.61 3265.27 2707.57 3282.1 2708.86C3343.19 2713.56 3342.58 2811.49 3324.29 2848.08C3300.37 2895.91 3256.41 2911.76 3214.6 2930.34C3202.82 2935.58 3187.72 2925.58 3176.63 2936.67C3131.36 2914.04 3120.57 2946.19 3117.57 2985.19C3116.9 2993.86 3108.03 3001.85 3107.02 3008.39C3100.8 3048.8 3086.4 3084.9 3079.6 3122.3C3067.68 3187.84 3056.68 3255.57 3039.52 3318.47C3036.13 3330.91 3027.16 3340.18 3022.65 3352.22C3018.69 3362.77 3023.07 3374.99 3020.54 3385.97C3019.29 3391.38 3009.26 3396.63 3007.88 3402.84C3003.31 3423.41 3000.2 3445.12 2993.12 3464.02C2991.17 3469.2 2983.69 3475.31 2982.57 3480.89C2975.56 3515.94 3006.68 3569.19 3020.54 3596.91C3083.81 3723.45 3192.22 3835.44 3313.74 3904.88C3363.72 3933.43 3416.96 3950.38 3471.94 3972.38C3486.04 3978.01 3505.52 3976.51 3518.35 3982.92C3531.22 3989.36 3564.37 4007.59 3579.52 4010.34C3596.87 4013.5 3614.63 4013.95 3632.26 4014.56C3669.51 4015.87 3706.84 4014.64 3744.05 4016.67C3791.39 4019.25 3874.96 4028.77 3931.79 4014.56C3944.5 4011.39 3957.13 3988.19 3978.19 3982.92C4090.63 3954.81 4205.8 3921.19 4303.04 3856.36C4325.43 3841.43 4343.1 3820.51 4364.21 3803.63C4444.14 3739.68 4503.24 3649.06 4539.29 3558.94C4551.4 3528.66 4573.75 3499.42 4577.26 3466.13C4582.42 3417.1 4583.58 3374.44 4583.58 3320.58C4583.58 3303.52 4571.19 3228.03 4560.38 3217.22C4497.09 3280.51 4440.38 3183.75 4402.18 3206.67C4432.73 3237.22 4435.17 3280.75 4444.37 3320.58C4466.18 3415.1 4405.28 3605.37 4305.15 3645.42C4238.97 3671.89 4167.6 3654.7 4106.87 3624.33C4089.56 3641.63 4091 3690.15 4077.33 3712.92C4036.28 3781.34 3971.13 3830.65 3887.49 3812.06C3879.42 3810.27 3870.06 3814.34 3862.18 3809.95C3842.35 3798.94 3815.55 3789.31 3798.9 3769.88C3795.01 3765.34 3787.43 3741.25 3782.02 3740.34C3775.01 3739.18 3725.59 3804.23 3708.19 3814.17C3644.64 3850.49 3496.79 3834.1 3463.51 3750.89C3450.41 3718.16 3462.23 3682.08 3452.96 3649.64C3450.02 3639.35 3420.32 3641.08 3410.77 3636.99C3382.93 3625.05 3355.39 3602.69 3332.72 3580.03C3299.53 3546.84 3266.45 3496.94 3256.79 3453.47C3254.15 3441.62 3250.22 3366.87 3246.24 3364.88C3236.39 3359.95 3222.03 3360.69 3212.49 3354.33C3157.66 3317.77 3130.22 3254.11 3130.22 3189.8C3130.22 3176.94 3136.79 3189.98 3140.77 3175.03C3147.84 3148.52 3141.7 3141.53 3159.76 3120.19C3180.3 3095.91 3193.63 3093.76 3216.71 3082.22C3240.17 3070.49 3260.61 3063.24 3290.54 3063.24C3316.03 3063.24 3337.6 3076.29 3358.04 3088.55C3438.46 3136.8 3388 3220.18 3448.74 3265.74C3456.19 3271.33 3466.27 3235.61 3467.72 3231.99C3473.6 3217.3 3493.09 3207.9 3505.69 3200.34C3548.76 3174.5 3587.59 3203.33 3623.82 3221.44C3629.75 3215.5 3634.34 3141.24 3632.26 3137.06C3631.37 3135.28 3630.02 3132.97 3628.04 3132.84C3606.98 3131.53 3585.76 3134.75 3564.76 3132.84C3538.84 3130.49 3498.39 3075.24 3486.71 3054.8C3450.44 2991.32 3413.04 2935.42 3423.43 2852.3C3430.21 2798 3510.59 2749.32 3558.43 2786.91C3569 2795.21 3604.76 2825.37 3606.94 2841.75C3608.35 2852.3 3603.64 2865.87 3611.16 2873.39C3622.98 2861.57 3633.51 2828.82 3651.24 2824.88C3677.81 2818.97 3711.73 2807.88 3739.83 2820.66C3804.6 2850.1 3823.43 2931.91 3792.57 2993.63C3803.57 3004.63 3848.98 3020.73 3868.51 3016.83C3879.77 3014.58 3913.85 2961.24 3931.79 2953.55C3946.23 2947.36 3961.33 2939.74 3978.19 2936.67C3984.61 2935.51 3997.22 2938.7 4001.4 2930.34C4004.74 2923.66 3991.76 2899.94 3990.85 2894.49C3986.92 2870.93 3991.54 2838.27 4001.4 2818.55C4027.59 2766.15 4121.41 2764.42 4153.27 2812.22C4170.26 2803.73 4174.35 2784.87 4178.58 2767.92C4180.45 2760.45 4210.27 2729.91 4216.55 2723.63C4231.86 2708.32 4250.28 2708.23 4269.29 2702.53C4391.97 2665.73 4408.51 2800.6 4408.51 2886.05C4408.51 2905.46 4393.52 2919.57 4408.51 2934.56C4425.56 2923.2 4456.85 2929.68 4473.9 2926.13C4492.87 2922.17 4467.79 2838.83 4467.57 2829.09C4466.19 2768.64 4466.19 2708.14 4467.57 2647.69C4469.05 2582.63 4509.27 2523.66 4513.97 2457.84C4514.52 2450.15 4530.82 2407.21 4518.19 2403C4502.42 2397.74 4466.08 2423.78 4452.8 2430.42C4399.55 2457.05 4335.66 2477.48 4275.62 2489.49C4264.84 2491.64 4250.8 2501.15 4241.87 2502.14C4166.08 2510.56 4097.93 2515.97 4020.38 2523.24C4009.3 2524.27 3984.39 2531.52 3973.97 2531.67C3877.66 2533.06 3781.31 2533.06 3684.99 2531.67C3643.49 2531.08 3601.99 2529.53 3560.54 2527.45C3544.71 2526.66 3518.59 2516.55 3499.37 2514.8C3440.62 2509.46 3381.58 2498.21 3326.4 2483.16C3305.17 2477.37 3281.68 2460.9 3261.01 2455.74C3226.33 2447.07 3193.25 2437.68 3161.87 2421.99C3125.98 2404.04 3057.52 2348.82 3020.54 2373.47Z" fill="#05b6f5" fill-rule="nonzero" opacity="1" stroke="none"/>
<path d="M4828.27 335.813C4836.24 347.763 4860.1 340.674 4857.8 359.016C4855.14 380.355 4789.23 461.303 4800.85 472.923C4821.04 456.098 4843.13 440.094 4857.8 418.079C4890.96 451.235 4812.43 509.815 4830.38 527.766C4842.67 517.933 4846.22 505.596 4855.69 496.126C4870.04 503.297 4875.3 497.613 4885.22 487.688C4894.02 496.486 4885.76 501.574 4885.22 508.782C4883.93 526.312 4885.81 543.948 4885.22 561.516C4884.09 595.486 4867.77 632.575 4855.69 662.766C4849.87 677.324 4881.58 705.035 4889.44 717.61C4905 742.502 4901.89 774.706 4910.54 804.095C4913.23 813.245 4932.96 828.701 4933.74 835.735C4937.07 865.742 4935.71 903.602 4942.18 934.876C4943.19 939.745 4951.98 940.507 4952.72 945.423C4956.46 970.09 4943.31 999.29 4961.16 1017.14C4981.65 996.654 4949.11 959.582 4969.6 939.095C4982.55 952.047 4975.47 981.272 4978.04 996.048C4978.73 1000.04 4989.93 1009.71 4990.69 1015.03C4998.97 1072.95 5004.19 1135.81 5005.46 1194.33C5006.54 1244.24 5007.57 1294.17 5007.57 1344.09C5007.57 1351.56 4996.16 1402.3 5009.68 1415.81C5047.4 1378.09 4983.14 1305.24 5020.22 1268.16C5082.19 1330.12 5172.32 1345.16 5260.69 1348.31C5271.94 1348.71 5283.56 1351.18 5294.44 1348.31C5299.25 1347.05 5300.06 1338.37 5304.99 1337.77C5330.12 1334.7 5355.62 1338.38 5380.93 1337.77C5395.57 1337.41 5403.55 1325.23 5414.68 1323C5470.54 1311.83 5510.63 1301.39 5560.22 1276.59C5573.46 1269.98 5589.92 1252.43 5600.3 1242.84C5618.63 1225.92 5727.22 1110.19 5688.9 1084.64C5692.71 1077.02 5687.37 1069.95 5682.57 1063.55C5701.16 1044.95 5670.98 1019.83 5667.8 1002.38C5664.67 985.156 5668.56 967.06 5663.58 949.641C5661.63 942.787 5651.79 941.151 5655.15 932.766C5658.89 923.413 5667.17 932.641 5674.13 928.548C5682.7 923.506 5687.13 913.234 5695.22 907.454C5698.78 904.915 5720.08 908.003 5724.76 909.563C5723.7 911.673 5723.7 911.673 5722.65 913.782C5727.98 919.113 5725.09 917.111 5731.08 920.11C5739.56 911.637 5745.62 918.231 5756.4 907.454C5773.16 890.687 5756.64 825.694 5758.51 823.079C5761.4 819.033 5767.65 817.302 5769.05 812.532C5775.67 790.039 5759.57 754.52 5777.49 736.595C5797.85 746.773 5788.87 728.199 5792.26 711.282C5795.2 696.543 5824.15 689.419 5828.12 677.532C5834.77 657.572 5838.82 621.043 5832.33 601.595C5793.47 485.01 5711.16 362.343 5612.96 285.188C5541.65 229.163 5413.88 164.376 5321.87 158.626C5306.58 157.671 5247.16 141.826 5237.49 145.97C5231.09 148.711 5229.46 158.988 5222.72 160.735C5209.11 164.264 5194.54 159.462 5180.54 160.735C5125.75 165.716 5070.03 184.212 5020.22 200.813C5011.17 203.832 5009.78 210.832 5001.24 215.579C4940.5 249.322 4884.66 293.52 4828.27 335.813Z" fill="#fd9429" fill-rule="nonzero" opacity="1" stroke="none"/>
<path d="M2902.41 1050.89C2919.12 1036.97 2916.04 1025.46 2925.62 1008.7C2944.3 976.013 2969.94 947.467 2986.79 913.782C2904.65 831.644 2862.52 745.601 2828.58 643.782C2817.25 609.769 2801.69 568.165 2801.16 531.985C2800.54 489.796 2799.05 447.616 2799.05 405.423C2799.05 394.824 2806.34 379.154 2813.82 371.673C2845.52 403.377 2867.56 455.447 2891.87 491.907C2901.57 506.457 2912.17 495.339 2925.62 508.782C2942.46 497.554 2874.87 440.064 2898.19 430.735C2912.16 425.148 2961.16 487.887 2974.13 504.563C3031.25 578.006 3059.95 674.277 3140.77 728.157C3165.58 709.554 3225.86 719.902 3256.79 713.391C3289.45 706.515 3327.44 687.201 3360.15 681.751C3377.11 678.923 3399.01 680.123 3414.99 675.423C3418.81 674.3 3419.51 667.697 3423.43 666.985C3438.9 664.173 3456.18 666.348 3469.83 658.548C3474.91 655.645 3494.73 662.358 3495.15 652.22C3496.26 625.06 3498.51 564.001 3493.04 525.657C3483.1 456.121 3447.24 398.056 3412.88 337.923C3333.04 198.195 3200.63 76.6264 3047.96 25.7351C2874.04-32.2378 2663.06 9.87912 2510.07 101.673C2259.01 252.31 2199.01 520.555 2214.76 793.548C2216.2 818.532 2254.27 787.846 2261.16 787.22C2277.28 785.754 2293.6 787.001 2309.68 785.11C2372.18 777.757 2433.64 777.733 2495.3 787.22C2604.61 804.036 2741.38 866.659 2824.37 949.641C2855.41 980.688 2873.53 1022.01 2902.41 1050.89Z" fill="#fbd144" fill-rule="nonzero" opacity="1" stroke="none"/>
<path d="M4265.07 1154.25C4132.81 1157.58 4049.09 1205.33 3950.77 1291.36C3913.87 1323.65 3870.9 1372.17 3853.74 1417.92C3837.52 1461.18 3825.82 1500.06 3813.66 1548.7C3800.13 1602.82 3794.75 1662.81 3813.66 1719.56C3822.44 1745.9 3868.57 1774.57 3881.16 1806.05C3920.84 1905.25 4032.05 2034.94 4136.4 2069.72C4203.82 2092.19 4275.62 2099.25 4349.44 2099.25C4383.86 2099.25 4420.65 2075.25 4448.58 2061.28C4616.06 1977.55 4703.07 1796 4697.49 1611.99C4692.8 1457.07 4634.44 1299.93 4486.55 1215.42C4458.13 1199.18 4421.33 1194.41 4391.63 1179.56C4382.26 1174.88 4366.91 1165.1 4357.88 1162.69C4330.74 1155.45 4293.44 1153.54 4265.07 1154.25Z" fill="#fdfcf7" fill-rule="nonzero" opacity="1" stroke="none"/>
<path d="M3273.66 1124.72C3245.09 1124.09 3184.34 1133.17 3159.76 1147.92C3146.46 1155.9 3129.2 1169.01 3113.35 1175.34C3066.48 1194.09 3023.01 1238.26 2986.79 1274.49C2872 1389.27 2865.94 1573.04 2896.08 1723.78C2900.75 1747.09 2914.25 1765.63 2921.4 1787.06C2944.85 1857.43 2986.16 1926.14 3054.29 1974.8C3135.11 2032.53 3225.38 2046.52 3326.4 2046.52C3371.01 2046.52 3398.17 2029.62 3436.08 2016.99C3639.1 1949.31 3699.54 1691.78 3693.43 1502.3C3692.51 1473.93 3678.21 1448.19 3670.22 1424.25C3635.81 1321 3563.76 1219.98 3463.51 1162.69C3412.33 1133.44 3334.53 1126.06 3273.66 1124.72Z" fill="#fdfcf7" fill-rule="nonzero" opacity="1" stroke="none"/>
<path d="M4855.69 346.36C4828.55 373.503 4818.11 408.34 4792.41 439.173C4741.97 413.952 4710.4 544.111 4682.72 536.204C4674.74 533.921 4679.98 522.914 4674.29 517.22C4663.43 528.08 4657.63 559.626 4640.54 542.532C4629.67 553.402 4644.51 555.814 4640.54 565.735C4626.56 600.681 4585.04 632.703 4562.49 662.766C4567.76 669.095 4567.76 669.095 4573.04 675.423C4582.69 665.767 4592.07 664.108 4602.57 650.11C4632.48 680.02 4555.63 733.774 4539.29 747.141C4457.03 814.441 4353.64 828.71 4256.63 861.048C4136.65 901.043 4023.98 954.475 3925.46 1053C3881.64 1096.82 3849.85 1159.93 3824.21 1211.2C3817.38 1224.87 3781.02 1271.38 3779.91 1280.81C3777.54 1301 3783.65 1334.16 3777.8 1354.64C3769.95 1382.11 3760.05 1406.94 3794.68 1424.25C3892.74 1326.19 3996.13 1197.19 4125.85 1141.59C4145.22 1133.29 4212.91 1123.1 4227.1 1112.06C4250.82 1093.61 4274.87 1080.79 4300.93 1067.77C4310.65 1062.91 4327.51 1065.41 4336.79 1061.44C4346.43 1057.3 4352.55 1046.7 4362.1 1042.45C4389.77 1030.16 4427.35 1032.05 4448.58 1010.81C4439.84 1002.06 4437.71 1006.27 4425.38 993.938C4445.23 974.084 4477.11 998.559 4499.21 989.72C4519.67 981.537 4586.3 957.468 4600.46 943.313C4608.02 948.357 4612 954.603 4619.44 960.188C4628.77 950.859 4619.94 940.707 4629.99 930.657C4633.61 934.277 4640.08 932.797 4644.76 934.876C4672.94 947.403 4638.98 965.969 4632.1 972.845C4655.59 1019.83 4687.52 1060.19 4716.47 1103.63C4723.75 1114.53 4721.8 1132.16 4731.24 1141.59C4733.35 1140.54 4733.35 1140.54 4735.46 1139.49C4749.65 1153.67 4744.39 1202.23 4764.99 1209.09C4764.99 1245.34 4794.8 1279.81 4802.96 1312.45C4809.18 1337.33 4794.11 1328.58 4805.07 1356.75C4807.23 1362.31 4815.63 1363.82 4817.72 1369.41C4820.58 1377.02 4819.68 1401.39 4821.94 1411.59C4827.67 1437.36 4842.21 1462.49 4849.37 1487.53C4851.85 1496.22 4868.82 1554.21 4870.46 1555.03C4884.91 1562.26 4900.84 1535.71 4910.54 1531.83C4937.1 1521.2 4979.88 1494.59 5003.35 1476.99C4994.64 1459.57 5006.89 1423.62 5007.57 1403.16C5008.2 1384.17 5009.29 1365.2 5009.68 1346.2C5010.7 1296.29 5011.79 1246.37 5011.79 1196.44C5011.79 1132.94 5007.73 1049.36 4990.69 989.72C4989.6 985.895 4983.22 985.141 4982.26 981.282C4977 960.275 4981.59 927.883 4965.38 911.673C4957.25 919.806 4965.08 928.852 4956.94 936.985C4951.15 931.194 4954.61 933.395 4946.4 930.657C4946.4 908.201 4955.37 829.587 4923.19 818.86C4923.19 798.88 4903.7 733.67 4893.66 717.61C4886.73 706.522 4854.94 675.19 4859.91 662.766C4880 612.557 4883.49 564.303 4889.44 508.782C4890.36 500.231 4899.51 489.316 4889.44 479.251C4877.66 491.034 4872.66 500.391 4855.69 491.907C4852.53 495.071 4852.53 495.071 4849.37 498.235C4847.26 496.126 4847.26 496.126 4845.15 494.016C4855.76 472.787 4884.71 436.548 4859.91 411.751C4841.58 430.082 4825.36 450.365 4805.07 466.595C4802.96 464.485 4802.96 464.485 4800.85 462.376C4813.19 437.693 4878.07 368.735 4855.69 346.36Z" fill="#8a3c29" fill-rule="nonzero" opacity="1" stroke="none"/>
<path d="M3697.65 272.532C3707.18 282.066 3678.37 356.21 3676.55 371.673C3668.83 437.309 3655.21 563.278 3697.65 622.688C3700.54 626.734 3703.23 632.956 3708.19 633.235C3767.16 636.548 3826.33 631.862 3885.38 633.235C3977.23 635.371 4096.3 652.637 4189.13 671.204C4247.89 682.956 4308.81 706.957 4364.21 709.173C4391.54 710.266 4492.95 735.942 4509.76 723.938C4530.17 709.359 4546.5 688.286 4562.49 669.095C4544.03 650.638 4556.98 617.136 4556.16 591.048C4555.75 577.727 4559.7 568.427 4556.16 553.079C4550.89 530.213 4523.12 400.034 4501.32 392.766C4501.32 360.486 4453.49 309.765 4438.04 278.86C4398.51 199.809 4310.38 108.338 4227.1 80.5789C4218.53 77.7237 4206.19 63.2236 4199.68 61.5945C4192.86 59.8892 4185.52 62.7504 4178.58 61.5945C4164.14 59.1864 4148.32 38.3914 4132.18 38.3914C4122.84 38.3914 4124.08 44.8901 4111.08 38.3914C4100.1 32.8998 4086.59 34.6033 4075.22 29.9539C4066.94 26.5654 4063.6 16.0635 4056.24 10.9695C4049.52 6.31591 4012.79 14.9077 4005.62 17.2976C3921.74 45.2568 3844.03 75.1079 3782.02 145.97C3747.63 185.273 3729.01 230.712 3697.65 272.532Z" fill="#fd5fac" fill-rule="nonzero" opacity="1" stroke="none"/>
<path d="M2638.74 2761.59C2636.63 2760.54 2636.63 2760.54 2634.52 2759.49C2621.93 2772.08 2610.2 2793.36 2602.88 2808C2617.72 2822.84 2587.39 2829.82 2579.68 2837.53C2573.31 2843.9 2578.44 2855.64 2571.24 2862.84C2569.13 2860.74 2569.13 2860.74 2567.02 2858.63C2554.52 2871.13 2561.8 2876.96 2556.47 2890.27C2551.42 2902.91 2529.48 2903.12 2520.62 2913.47C2516.35 2918.45 2518.79 2927.2 2514.29 2932.45C2500.93 2948.04 2461.73 3006.87 2446.79 3016.83C2400.48 3047.7 2335.36 3130.67 2347.65 3198.24C2360.19 3267.21 2498.52 3278.94 2548.04 3282.61C2736.46 3296.57 2884.65 3260.74 2995.22 3094.88C3009.43 3104.35 2994.49 3119.45 3005.77 3130.74C3015.37 3121.13 3011.83 3093.56 3016.32 3080.11C3042.93 3000.28 3066.3 2914.86 3066.94 2829.09C3067.6 2741.91 3069.05 2654.72 3069.05 2567.53C3069.05 2521.32 3058.2 2452.19 3028.97 2415.66C3021.43 2406.23 3008.37 2379.8 2993.12 2379.8C2973.38 2379.8 2950.7 2373.42 2934.05 2384.02C2863.13 2429.15 2797.05 2489.27 2756.87 2569.64C2741.95 2599.47 2712.45 2624.77 2699.91 2656.13C2686.49 2689.67 2663.66 2736.68 2638.74 2761.59Z" fill="#3f5f87" fill-rule="nonzero" opacity="1" stroke="none"/>
<path d="M3573.19 529.876C3551.4 551.666 3573.62 606.435 3564.76 637.454C3560.95 650.77 3504.26 652.076 3503.58 641.673C3502.27 621.324 3504.9 600.849 3503.58 580.501C3503.1 573.046 3502.54 556.25 3495.15 548.86C3468.77 575.235 3516.58 642.262 3486.71 652.22C3450.67 664.233 3414.22 665.048 3377.02 673.313C3334.66 682.727 3294.65 701.282 3252.57 709.173C3228.81 713.627 3150.85 705.898 3140.77 726.048C3245.19 830.47 3393.54 838.893 3505.69 930.657C3560.19 975.246 3623.77 1036.56 3659.68 1099.41C3671.12 1119.44 3678.56 1147.76 3691.32 1166.91C3709.43 1194.08 3734.19 1217.51 3752.49 1244.95C3769.14 1229.59 3789.08 1205.97 3809.44 1194.33C3819.53 1188.56 3833.34 1193.64 3843.19 1183.78C3853.7 1173.28 3857.79 1150.29 3866.4 1137.38C3882.46 1113.28 3902.91 1088.37 3919.13 1065.66C3993.65 961.333 4135.47 905.652 4243.97 869.485C4312.49 846.647 4422.96 834.937 4480.22 787.22C4506.75 765.115 4593.51 742.614 4530.85 711.282C4527.69 714.446 4527.69 714.446 4524.52 717.61C4521.36 714.446 4521.36 714.446 4518.19 711.282C4490.96 738.516 4425.09 713.634 4391.63 709.173C4305.26 697.656 4218.32 671.456 4127.96 658.548C4050.49 647.481 3961.06 630.776 3885.38 629.016C3826.33 627.643 3767.22 631.052 3708.19 629.016C3700.16 628.739 3702.05 614.439 3697.65 610.032C3694.48 613.196 3694.48 613.196 3691.32 616.36C3693.39 620.498 3697.21 631.901 3689.21 633.235C3660.09 638.088 3610.91 645.333 3581.63 641.673C3579.66 641.426 3577.49 639.441 3577.41 637.454C3576.06 603.027 3578.76 568.521 3577.41 534.095C3577.33 532.107 3574.6 531.282 3573.19 529.876Z" fill="#fd9429" fill-rule="nonzero" opacity="1" stroke="none"/>
<path d="M4566.71 3073.78C4551.08 3085.5 4560.37 3127.85 4564.6 3147.61C4576.98 3205.41 4596.57 3264.61 4615.22 3320.58C4621.02 3337.97 4622.61 3362.07 4634.21 3377.53C4646.56 3394 4695.33 3470.39 4682.72 3483C4692.86 3493.13 4708.68 3494.44 4718.58 3508.31C4744.08 3544.01 4782.65 3576.33 4819.83 3601.13C4808.86 3623.08 4842.24 3610.24 4847.26 3611.67C4867.14 3617.35 4896.61 3635.72 4912.65 3611.67C4940.92 3569.27 4854.93 3463.73 4946.4 3539.95C4954.83 3546.99 4963.27 3554.02 4971.71 3561.05C4968.55 3565.27 4968.55 3565.27 4965.38 3569.49C4996.82 3600.92 5076.73 3599.08 5096.16 3550.5C5098.66 3544.25 5091.07 3487.99 5098.27 3485.11C5118.14 3477.16 5129.47 3495.43 5144.68 3497.77C5185.28 3504.01 5227.51 3496.24 5254.37 3464.02C5268.09 3447.55 5276.89 3415.65 5273.35 3394.41C5271.87 3385.51 5234.95 3351.21 5262.8 3343.78C5271.88 3341.36 5322.39 3348 5326.08 3348C5332.17 3348 5402.3 3335.74 5406.24 3333.24C5443.43 3309.57 5528.97 3257.11 5486.4 3200.34C5477.19 3188.07 5455.71 3168.86 5442.1 3166.59C5427.86 3164.22 5407.22 3169.68 5395.69 3158.16C5419.07 3111.4 5570.21 3044.03 5528.58 2974.64C5516.52 2954.54 5466.24 2959.18 5448.43 2972.53C5422.89 2991.69 5386.66 3008.42 5357.72 3018.94C5347.85 3022.53 5339.28 3034.65 5330.3 3040.03C5307.39 3053.78 5284.75 3054.97 5258.58 3061.13C5252.27 3062.61 5250.15 3072.38 5243.82 3073.78C5229.22 3077.03 5214.94 3081 5201.63 3084.33C5172.57 3091.6 5135.53 3078.56 5106.71 3084.33C5091.85 3087.3 5107.46 3133.82 5102.49 3141.28C5082.47 3171.31 5043.01 3217.85 5003.35 3227.77C4963.74 3237.67 4925.54 3246.75 4883.12 3246.75C4768.4 3246.75 4637.46 3158.68 4566.71 3073.78Z" fill="#203c65" fill-rule="nonzero" opacity="1" stroke="none"/>
<path d="M2204.21 3181.36C2191.56 3206.66 2190.15 3190.9 2159.91 3200.34C2135 3208.13 2055.41 3236.74 2050.22 3267.84C2041.6 3319.58 2123.27 3356.4 2164.13 3358.55C2189.41 3359.88 2214.79 3357.22 2240.07 3358.55C2242.05 3358.65 2243.4 3360.99 2244.29 3362.77C2249.22 3372.63 2245.1 3395.93 2246.4 3402.84C2250.37 3424.06 2259.32 3444.2 2278.04 3459.8C2296.4 3475.1 2368.64 3468.04 2370.85 3472.45C2377.42 3485.6 2366.63 3524.86 2366.63 3535.74C2366.63 3573.53 2422.9 3596.91 2453.12 3596.91C2491.3 3596.91 2523.34 3574.56 2554.37 3556.83C2559.98 3553.62 2572.66 3555.41 2577.57 3552.61C2588.37 3546.44 2594.32 3520.9 2604.99 3527.3C2638.94 3547.67 2570.38 3634.19 2666.16 3622.22C2673.45 3621.31 2687.63 3606.46 2695.69 3603.24C2753.78 3580 2791.89 3503.67 2847.57 3485.11C2847.57 3444.25 2891.56 3407.68 2910.85 3369.09C2942.98 3304.83 2979.05 3239.05 2993.12 3168.7C2998.47 3141.91 3009.87 3129.79 3005.77 3096.99C3002.83 3073.48 2966.16 3127.99 2963.58 3130.74C2944.84 3150.65 2925.97 3170.46 2906.63 3189.8C2865.48 3230.95 2753.01 3280.67 2695.69 3282.61C2655.64 3283.97 2615.54 3282.61 2575.46 3282.61C2506.07 3282.61 2285.95 3256.06 2362.41 3128.63C2372.49 3111.83 2383.97 3095.07 2396.16 3078C2410.16 3058.41 2420.57 3043.04 2436.24 3027.38C2434.83 3025.97 2434.01 3023.24 2432.02 3023.16C2398.3 3021.81 2364.52 3023.79 2330.77 3023.16C2322.91 3023.01 2314.75 3022.13 2307.57 3018.94C2264.31 2999.71 2213.47 2994.04 2170.46 2972.53C2117.57 2946.09 2068.36 2908.24 2010.15 2896.59C1964.79 2887.52 1948.49 2941.73 1953.19 2974.64C1961.49 3032.75 2024.13 3084.38 2071.32 3118.08C2082.52 3126.08 2096.18 3141.13 2109.29 3145.5C2135.46 3154.22 2183.93 3161.08 2204.21 3181.36Z" fill="#203c65" fill-rule="nonzero" opacity="1" stroke="none"/>
<path d="M4562.49 3080.11C4564.6 3079.06 4564.6 3079.06 4566.71 3078C4613.37 3124.66 4661.97 3176.91 4722.8 3204.56C4848.02 3261.48 5024.68 3277.99 5106.71 3141.28C5112.15 3132.22 5109.04 3115.93 5106.71 3105.42C5105.67 3100.73 5110.08 3084.74 5108.82 3082.22C5106.88 3078.34 5044.34 3042.62 5032.88 3033.7C5024.41 3027.12 4985.41 3004.19 4992.8 2989.41C4996.78 2981.46 5009.48 2985.39 5016.01 2978.86C4997.69 2960.54 4978.12 2987.56 4956.94 2968.31C4929.71 2943.56 4922.08 2898.95 4904.21 2869.17C4866.23 2805.87 4844.85 2730.27 4817.72 2662.45C4801.41 2621.67 4773.15 2576.71 4764.99 2535.89C4757.51 2498.51 4676.52 2403.45 4642.65 2396.67C4629.02 2393.95 4605.05 2385.22 4592.02 2392.45C4540.39 2421.14 4544.31 2508.28 4535.07 2559.09C4519.01 2647.41 4509.76 2734.93 4509.76 2829.09C4509.76 2862.8 4520.42 2893.24 4524.52 2924.02C4531.55 2976.72 4532.63 3035.32 4562.49 3080.11Z" fill="#3f5f87" fill-rule="nonzero" opacity="1" stroke="none"/>
<path d="M3288.43 1320.89C3268.09 1322.3 3228.57 1322.1 3206.16 1331.44C3154.19 1353.09 3093.64 1384.2 3054.29 1434.8C3033.99 1460.89 3011.03 1500.26 3003.66 1529.72C3000.76 1541.34 3004.25 1553.91 3001.55 1565.58C2954.31 1770.3 3132.04 1949.1 3334.83 1922.06C3372.23 1917.08 3415.27 1909.73 3446.63 1886.2C3502.77 1844.1 3558.23 1778.26 3577.41 1711.13C3630.05 1526.9 3482.29 1307.5 3288.43 1320.89Z" fill="#f8c115" fill-rule="nonzero" opacity="1" stroke="none"/>
<path d="M4197.57 1377.84C4031.03 1414.14 3971.87 1555.46 3971.87 1713.24C3971.87 1743.75 3993.5 1781.82 4005.62 1806.05C4066.44 1927.7 4142.25 1988.41 4281.94 1983.24C4467.1 1976.38 4565.4 1767.46 4530.85 1611.99C4526.57 1592.72 4535.38 1602.26 4528.74 1584.56C4494.04 1492.04 4408.48 1410.68 4315.69 1384.17C4286.73 1375.9 4221.35 1372.66 4197.57 1377.84Z" fill="#f8c115" fill-rule="nonzero" opacity="1" stroke="none"/>
<path d="M3081.71 2447.3C3073.72 2455.28 3079 2464.47 3075.38 2470.5C3071.8 2476.47 3063.14 2478.78 3060.62 2485.27C3051.89 2507.7 3062.38 2542.63 3062.72 2565.42C3064.05 2652.6 3064.83 2739.79 3064.83 2826.99C3064.83 2836.55 3057.58 2844.92 3056.4 2854.41C3050.94 2898.05 3056.23 2945.66 3043.74 2987.3C3033.78 3020.49 3015.2 3059.83 3007.88 3092.77C2983.22 3203.72 2947.57 3296.64 2887.65 3396.52C2872.81 3421.24 2858.81 3452.77 2839.13 3472.45C2872.94 3540.08 2895.97 3620.49 2944.6 3681.28C2956.7 3696.4 2955.4 3715.2 2974.13 3727.69C2973.08 3729.8 2973.08 3729.8 2972.02 3731.91C3012.64 3772.53 3053.85 3817.37 3094.37 3860.58C3134.95 3903.87 3199.31 3937.31 3248.35 3961.83C3264.11 3969.71 3370.77 4002.11 3374.91 4012.45C3380.45 4026.29 3361.36 4043.74 3360.15 4054.64C3358.74 4067.3 3359.95 4080.53 3355.93 4092.61C3355.04 4095.28 3357.04 4098.46 3355.93 4101.05C3352.07 4110.05 3344.92 4105.72 3339.05 4111.59C3361.13 4133.67 3356.65 4132.49 3355.93 4153.78C3354.62 4192.44 3356.7 4231.14 3358.04 4269.8C3358.11 4272.02 3358.87 4274.3 3360.15 4276.13C3415.96 4355.87 3473.44 4315.32 3507.8 4246.59C3510.16 4241.88 3524.11 4228.36 3524.68 4225.5C3530.3 4197.37 3520.86 4164.8 3533.12 4164.33C3549.99 4163.68 3566.85 4166.44 3583.74 4166.44C3590.99 4166.44 3593.2 4161.67 3598.51 4166.44C3602.53 4170.06 3628.45 4209.91 3636.47 4193.86C3649.49 4167.83 3606.09 4129.32 3628.04 4107.38C3615.22 4081.73 3580.38 4089.28 3558.43 4086.28C3541.72 4084 3554.29 4049.69 3564.76 4046.2C3564.76 4029.99 3574.83 4011.82 3562.65 3995.58C3554.47 3984.68 3537.37 3991.95 3526.79 3987.14C3503.24 3976.44 3476.08 3971.92 3450.85 3961.83C3374.04 3931.11 3289.23 3896.13 3225.15 3843.7C3151.09 3783.11 3098.32 3712.52 3047.96 3636.99C3034.17 3616.3 3015.45 3592.94 3012.1 3569.49C3007.93 3540.31 2983.85 3513.24 2986.79 3480.89C2987.24 3475.93 2995.67 3468.44 2997.33 3464.02C3004.59 3444.67 3005.14 3423.71 3012.1 3402.84C3013.97 3397.24 3023.75 3392.54 3024.76 3385.97C3034.98 3319.49 3061.85 3258.34 3073.27 3189.8C3080.46 3146.68 3092.84 3109.43 3102.8 3069.56C3112.33 3031.45 3109.36 2973.55 3130.22 2938.78C3134.24 2932.09 3139.56 2935.78 3144.99 2930.34C3119.1 2904.46 3154.85 2827.07 3149.21 2793.24C3143.11 2756.62 3147.04 2716.21 3144.99 2679.33C3144.53 2671.11 3137.66 2664.28 3136.55 2656.13C3132.51 2626.49 3137.12 2597.4 3130.22 2567.53C3128.72 2561.01 3118.75 2555.61 3117.57 2548.55C3112.22 2516.44 3104.62 2470.21 3081.71 2447.3Z" fill="#fd9429" fill-rule="nonzero" opacity="1" stroke="none"/>
<path d="M5832.33 610.032C5817.13 625.236 5830.42 655.848 5823.9 675.423C5818.8 690.716 5793.6 697.282 5783.82 707.063C5791.85 715.099 5791.85 726.449 5783.82 734.485C5766.19 725.673 5763.48 761.394 5762.72 768.235C5760.62 787.172 5771.32 790.488 5764.83 812.532C5764.44 813.873 5751.13 820.992 5754.29 827.298C5763.64 846.002 5765.79 887.034 5752.18 907.454C5744.32 919.243 5739.6 907.372 5731.08 915.891C5723.97 908.774 5727.89 913.378 5720.54 901.126C5712.32 903.864 5715.78 901.663 5709.99 907.454C5687.71 896.311 5698.01 911.759 5674.13 924.329C5672.7 925.081 5653.48 919.618 5650.93 928.548C5646.55 943.879 5688.05 1053.85 5678.35 1063.55C5681.51 1066.71 5681.51 1066.71 5684.68 1069.88C5679.82 1079.59 5688.87 1084.6 5693.12 1093.08C5694.89 1096.63 5686.43 1122.81 5684.68 1128.94C5675.81 1159.96 5622.47 1218.57 5602.41 1238.63C5573.24 1267.8 5514.38 1299.34 5475.85 1310.34C5455.24 1316.23 5431 1313.38 5410.46 1318.78C5396.89 1322.35 5399.81 1330.64 5383.04 1331.44C5357.04 1332.68 5330.75 1329.87 5304.99 1333.55C5300.07 1334.25 5299.25 1342.83 5294.44 1344.09C5223.18 1362.85 5063.01 1319.58 5018.12 1259.72C5016.01 1261.83 5011.92 1263.07 5011.79 1266.05C5009.77 1312.41 5014.43 1358.94 5011.79 1405.27C5011.56 1409.24 5004.61 1409.93 5003.35 1413.7C4997.15 1432.31 5006.34 1456.24 4997.02 1474.88C5007.73 1485.58 5046.24 1464.61 5058.19 1462.22C5125.33 1448.79 5188.67 1434.77 5258.58 1441.13C5324.62 1447.13 5404.01 1465.32 5461.08 1493.86C5475.66 1501.15 5531.13 1546.71 5541.24 1542.38C5586.83 1522.84 5659.1 1425.89 5688.9 1384.17C5830.56 1185.85 5871.87 990.352 5866.08 738.704C5865.45 711.263 5854.56 632.256 5832.33 610.032Z" fill="#f36819" fill-rule="nonzero" opacity="1" stroke="none"/>
<path d="M2811.71 365.345C2804.81 372.248 2797.28 392.654 2796.94 403.313C2795.6 445.485 2794.83 487.682 2794.83 529.876C2794.83 537.893 2799.22 545.301 2801.16 553.079C2837.89 699.976 2883.26 828.834 3005.77 939.095C3034.41 964.869 3077.71 965.804 3107.02 983.391C3113.28 987.149 3135.83 986.434 3142.88 987.61C3171.98 992.46 3201.65 999.814 3231.47 998.157C3295.49 994.601 3373.63 979.504 3436.08 1004.49C3498.95 1029.63 3559.52 1055.22 3615.38 1103.63C3629.38 1115.75 3684.78 1186.1 3699.76 1171.13C3683.71 1155.08 3676.77 1118.72 3663.9 1099.41C3624.71 1040.63 3563.67 962.672 3505.69 926.438C3413.62 868.889 3313.76 829.415 3220.93 783.001C3186.33 765.704 3156.1 734.283 3123.9 711.282C3084.92 683.441 3059.71 637.76 3039.52 597.376C3019.61 557.554 2987.31 517.284 2959.37 481.36C2950.15 469.508 2931.49 449.271 2923.51 441.282C2918.11 435.888 2894.07 413.568 2887.65 432.845C2882.7 447.695 2913.86 481.853 2921.4 491.907C2919.29 494.016 2919.29 494.016 2917.18 496.126C2910.41 492.743 2907.04 498.821 2900.3 496.126C2893.58 493.436 2884.16 470.165 2881.32 464.485C2865.9 433.652 2835.68 389.313 2811.71 365.345Z" fill="#8a3c29" fill-rule="nonzero" opacity="1" stroke="none"/>
<path d="M4195.46 3248.86C4104.63 3203.45 4049.76 3206.83 3976.08 3280.5C3979 3283.41 3982.41 3288.73 3982.41 3293.16C3982.41 3344.49 3980.99 3395.81 3980.3 3447.14C3980.1 3462.56 3998 3471.52 4001.4 3485.11C4008.15 3512.12 4011.34 3533.54 4028.82 3552.61C4055.61 3581.84 4102.64 3638.39 4144.83 3645.42C4162.28 3648.33 4184.9 3660.95 4199.68 3662.3C4246.48 3666.55 4282.25 3660.04 4319.91 3641.2C4425.79 3588.26 4478.81 3369.53 4442.26 3272.06C4390.92 3135.18 4279.82 3136.38 4195.46 3248.86Z" fill="#afc73b" fill-rule="nonzero" opacity="1" stroke="none"/>
<path d="M3537.33 3185.58C3519.86 3194.32 3498.94 3200.56 3482.49 3208.78C3460.7 3219.68 3464.65 3247.72 3450.85 3261.52C3381.52 3192.19 3267 3233.08 3252.57 3326.91C3234.81 3442.34 3270.96 3541.6 3366.47 3615.89C3392.66 3636.26 3429.45 3649.64 3461.4 3649.64C3477.22 3649.64 3493.8 3658.08 3509.91 3658.08C3521.52 3658.08 3556.26 3649.92 3568.97 3647.53C3577.65 3645.9 3588.42 3633.87 3596.4 3628.55C3689.93 3566.19 3705.29 3450.95 3699.76 3345.89C3698.98 3331.08 3697.54 3316.29 3695.54 3301.59C3691 3268.35 3619.47 3210.83 3590.07 3196.13C3577.24 3189.71 3557.65 3195.35 3537.33 3185.58Z" fill="#f8c115" fill-rule="nonzero" opacity="1" stroke="none"/>
<path d="M3252.57 1436.91C3194.83 1440.19 3157.8 1463.23 3117.57 1514.95C3095.76 1543 3089.26 1579.32 3083.82 1611.99C3057.64 1769.07 3164.61 1869.33 3317.96 1869.33C3442.14 1869.33 3535.28 1712.66 3486.71 1599.33C3438.24 1486.24 3375.54 1429.92 3252.57 1436.91Z" fill="#0e0924" fill-rule="nonzero" opacity="1" stroke="none"/>
<path d="M4089.99 1593C4085.77 1588.78 4085.77 1588.78 4081.55 1584.56C4073.68 1592.44 4061.03 1633.95 4060.46 1647.84C4059.14 1680.17 4057.68 1712.53 4058.35 1744.88C4059.44 1797.26 4108.19 1875.34 4161.71 1896.75C4272.34 1941 4380.89 1903.46 4435.93 1793.39C4421.67 1779.13 4435.93 1745.37 4435.93 1728C4435.93 1698.71 4428.7 1658.4 4416.94 1630.97C4365.79 1511.62 4171.72 1524.9 4089.99 1593Z" fill="#0e0924" fill-rule="nonzero" opacity="1" stroke="none"/>
<path d="M3495.15 2772.14C3488.05 2779.24 3475.91 2777.23 3467.72 2782.69C3448.42 2795.56 3422.01 2829.93 3419.21 2852.3C3403.59 2977.28 3536.06 3225.36 3689.21 3115.97C3725.49 3090.06 3796 3022.09 3807.33 2976.75C3813.82 2950.82 3809.44 2923.32 3809.44 2896.59C3809.44 2882.26 3793.64 2873.08 3788.35 2860.74C3765.43 2807.26 3697.71 2809.04 3651.24 2820.66C3636.62 2824.31 3624.56 2848.5 3615.38 2860.74C3606.77 2852.12 3608.9 2833.12 3600.62 2822.77C3592.74 2812.92 3571.05 2789 3558.43 2782.69C3550.13 2778.54 3540.14 2779.17 3495.15 2772.14Z" fill="#f51f59" fill-rule="nonzero" opacity="1" stroke="none"/>
<path d="M3007.88 934.876C3005.77 936.985 3005.77 936.985 3003.66 939.095C3017.09 965.957 3044.29 992.377 3064.83 1012.92C3088.33 1036.42 3143.73 1097.15 3180.85 1101.52C3238.97 1108.35 3294.18 1083.9 3353.82 1093.08C3446.92 1107.4 3536.88 1143.25 3606.94 1213.31C3674.98 1281.35 3687.66 1394.31 3716.63 1481.2C3724.97 1506.23 3728.7 1602.96 3739.83 1614.09C3758.02 1601.97 3754.12 1568.05 3756.71 1550.81C3757.4 1546.24 3768.48 1537.13 3769.37 1531.83C3772.79 1511.26 3771.89 1489.49 3775.69 1468.55C3778.26 1454.43 3787.09 1437.74 3794.68 1426.36C3799.36 1419.33 3773.22 1405.92 3771.47 1398.94C3764.49 1370.98 3776.61 1373.58 3782.02 1354.64C3787.86 1334.21 3780.75 1301.12 3784.13 1280.81C3785.35 1273.52 3851.73 1190.66 3832.65 1185.89C3802.87 1178.45 3771.24 1225.38 3754.6 1240.74C3733.79 1219.92 3713.95 1193.48 3697.65 1169.02C3685.52 1181.14 3675.73 1158.26 3668.12 1150.03C3654.26 1135.07 3640.35 1120.15 3625.93 1105.74C3589.13 1068.94 3525.23 1029.12 3478.27 1015.03C3437.15 1002.69 3391.65 990.915 3345.38 987.61C3295.11 984.02 3245.88 993.938 3195.62 993.938C3163.65 993.938 3132.27 980.141 3104.91 972.845C3087.01 968.072 3071.42 971.751 3054.29 964.407C3038.42 957.608 3023.24 942.554 3007.88 934.876Z" fill="#d75827" fill-rule="nonzero" opacity="1" stroke="none"/>
<path d="M4604.68 3293.16C4593.45 3304.39 4603.25 3315.68 4592.02 3326.91C4582.91 3317.8 4592.69 3306.49 4583.58 3297.38C4555.72 3325.24 4579.37 3376.1 4579.37 3415.5C4579.37 3438.89 4573.66 3481.64 4562.49 3506.2C4526.77 3584.79 4487.88 3675.73 4421.16 3742.45C4386.52 3777.09 4348.22 3809.07 4313.58 3843.7C4266.88 3890.41 4164.77 3920.62 4104.76 3938.63C4071.28 3948.67 4037.85 3968.73 4001.4 3972.38C3975.34 3974.98 3905.51 4005.16 3942.33 4041.99C3976.16 4025.07 4083.13 4053.07 4111.08 4025.11C4113.19 4027.22 4113.19 4027.22 4115.3 4029.33C4142.69 4001.94 4222.51 3995.76 4260.85 3976.59C4355.14 3929.45 4442.78 3870.76 4509.76 3784.64C4520.79 3770.45 4592.27 3683.88 4585.69 3670.74C4617.57 3638.86 4631.77 3585.88 4653.19 3548.39C4659.81 3536.82 4669.56 3527.74 4672.18 3514.64C4675.05 3500.28 4697.03 3485.38 4693.27 3470.34C4684.54 3435.4 4645.24 3408.98 4636.32 3373.31C4630.7 3350.83 4621.45 3309.93 4604.68 3293.16Z" fill="#ed7c48" fill-rule="nonzero" opacity="1" stroke="none"/>
<path d="M2813.82 65.8133C2715.19 69.8527 2596.09 115.554 2558.58 215.579C2553.69 228.638 2546.84 255.467 2556.47 268.313C2561.4 274.88 2573.8 283.245 2575.46 291.516C2578.91 308.758 2572.52 318.338 2571.24 333.704C2566.37 392.185 2581.72 418.079 2642.96 418.079C2712.54 418.079 2777.73 342.748 2828.58 302.063C2847.79 286.695 2882.39 271.394 2887.65 245.11C2891.53 225.707 2872.08 207.449 2877.1 192.376C2879.86 184.098 2886.3 190.937 2891.87 188.157C2909.5 179.339 2932.04 162.711 2944.6 145.97C2950.27 138.413 2946.73 129.155 2944.6 122.766C2926.77 69.2888 2863.08 63.7957 2813.82 65.8133Z" fill="#fdf5bf" fill-rule="nonzero" opacity="1" stroke="none"/>
<path d="M3699.76 3314.25C3691 3323.01 3695.54 3334.19 3695.54 3345.89C3695.54 3371.2 3696.87 3396.55 3695.54 3421.83C3693.54 3459.81 3684.56 3491.87 3674.44 3527.3C3656.89 3588.74 3594.29 3637.18 3537.33 3647.53C3516.98 3651.23 3502.51 3655.16 3480.38 3651.75C3472.08 3650.47 3461.45 3644.21 3452.96 3645.42C3450.99 3645.7 3449.48 3647.8 3448.74 3649.64C3439.81 3671.96 3445.98 3704.64 3452.96 3725.58C3483.65 3817.67 3565.04 3840.25 3659.68 3835.27C3669.37 3834.76 3685.55 3824.5 3695.54 3820.5C3789.35 3782.98 3818.57 3672.86 3813.66 3582.14C3810.83 3529.68 3769.37 3544.18 3741.94 3516.75C3748.27 3510.42 3748.27 3510.42 3754.6 3504.09C3744.25 3493.75 3705.15 3450.93 3703.97 3436.59C3700.76 3397.35 3705.33 3357.82 3703.97 3318.47C3703.91 3316.48 3701.16 3315.66 3699.76 3314.25Z" fill="#f36819" fill-rule="nonzero" opacity="1" stroke="none"/>
<path d="M3843.19 3198.24C3798.32 3202.31 3765.75 3214.5 3733.51 3246.75C3728.35 3251.91 3726.94 3260.86 3720.85 3265.74C3706.54 3277.18 3701.4 3278.15 3695.54 3301.59C3694.13 3307.22 3699.56 3312.67 3699.76 3318.47C3701.11 3358.52 3698.4 3398.65 3699.76 3438.7C3699.86 3441.72 3717.49 3464.03 3720.85 3468.24C3767.07 3526.01 3806.15 3548.96 3885.38 3525.19C3908.19 3518.35 3938.59 3508.05 3957.1 3487.22C3961.56 3482.2 3975.9 3456.69 3976.08 3449.25C3977.45 3394.42 3974.71 3339.55 3976.08 3284.72C3976.13 3282.73 3978.9 3281.91 3980.3 3280.5C3953.87 3240.86 3914.65 3216.43 3843.19 3198.24Z" fill="#fd9429" fill-rule="nonzero" opacity="1" stroke="none"/>
<path d="M3754.6 3501.99C3746.84 3507.8 3741.66 3506.49 3735.62 3512.53C3757.07 3555.45 3804.14 3522.38 3809.44 3584.25C3811.36 3606.67 3810.09 3629.26 3809.44 3651.75C3809.01 3666.9 3803.66 3647.47 3798.9 3666.52C3796.85 3674.7 3800.09 3683.48 3798.9 3691.83C3797.27 3703.24 3777.82 3727.79 3779.91 3738.24C3786.9 3773.19 3827.86 3802.13 3857.96 3814.17C3934.89 3844.95 4061.12 3790.44 4081.55 3708.7C4086.22 3690.04 4119.97 3638.21 4102.65 3618C4066.89 3576.29 4065.28 3612.99 4037.26 3588.47C4004.15 3559.5 3984.67 3511.95 3954.99 3487.22C3953.91 3486.32 3951.98 3486.5 3950.77 3487.22C3932.64 3498.1 3915.22 3514.54 3895.93 3520.97C3854.37 3534.82 3789.97 3537.36 3754.6 3501.99Z" fill="#f34844" fill-rule="nonzero" opacity="1" stroke="none"/>
<path d="M4056.24 15.1883C4085.89 44.8342 4152.02 50.1255 4191.24 65.8133C4271.34 97.8526 4352.05 162.097 4406.4 234.563C4433.64 270.894 4452.55 310.562 4478.12 346.36C4486.53 358.135 4488.58 379.989 4497.1 392.766C4515.04 419.676 4533.47 461.219 4539.29 496.126C4548.93 553.966 4550.22 591.862 4551.94 652.22C4552.33 665.601 4552.58 663.398 4560.38 671.204C4586.4 645.189 4632.88 601.372 4644.76 565.735C4649.85 550.467 4631.88 476.791 4629.99 456.048C4620.82 355.17 4520.92 192.604 4444.37 126.985C4412.41 99.5918 4372.8 65.3254 4332.57 55.2664C4315.88 51.0954 4298.51 39.6932 4281.94 34.1726C4219.89 13.4879 4151.83 5.88571 4087.88 8.86013C4077.14 9.35985 4063.85 7.58279 4056.24 15.1883Z" fill="#f2429c" fill-rule="nonzero" opacity="1" stroke="none"/>
<path d="M4001.4 2921.91C3987.27 2936.04 3950.49 2939.98 3931.79 2949.33C3904.19 2963.13 3889.54 3002.8 3864.29 3016.83C3859.81 3019.31 3853.14 3017.43 3849.52 3021.05C3864.15 3035.67 3835.31 3068.46 3828.43 3082.22C3812.02 3115.04 3835.6 3175.45 3845.3 3204.56C3894.03 3204.56 3925.4 3231.12 3961.32 3261.52C3965.86 3265.36 3973.78 3278.29 3978.19 3280.5C3993.05 3287.93 4014.36 3252.77 4020.38 3246.75C4031.75 3235.39 4081.94 3221.83 4071.01 3210.89C4104.29 3177.6 4127.64 3012.42 4108.97 2970.42C4093.18 2934.88 4019.65 2940.16 4001.4 2921.91Z" fill="#2aad5c" fill-rule="nonzero" opacity="1" stroke="none"/>
<path d="M4151.16 2932.45C4149.05 2930.34 4149.05 2930.34 4146.94 2928.24C4136.77 2935.02 4135.83 2949.89 4125.85 2959.88C4119.78 2965.94 4103.71 2959.81 4102.65 2968.31C4099.85 2990.71 4111.08 3023.93 4111.08 3046.36C4111.08 3078.6 4090.04 3120.41 4096.32 3151.83C4097.83 3159.39 4108.59 3171.76 4111.08 3179.25C4116.15 3194.45 4109.64 3194.68 4121.63 3206.67C4109.06 3225.52 4084.04 3202.08 4068.9 3217.22C4085.3 3233.63 4111.59 3215.83 4132.18 3223.55C4143.06 3227.63 4183.22 3257.86 4197.57 3253.08C4206.67 3250.05 4210.9 3230.45 4216.55 3223.55C4229.04 3208.28 4250.26 3187.7 4269.29 3181.36C4280.28 3177.69 4330.64 3171.36 4332.57 3162.38C4338.55 3134.46 4335 3113.82 4349.44 3088.55C4353.73 3081.05 4343.5 3074.23 4343.12 3069.56C4341.83 3054.15 4344.4 3038.57 4343.12 3023.16C4342.29 3013.27 4323.82 2992.31 4317.8 2985.19C4277.32 2937.35 4217.35 2899.36 4151.16 2932.45Z" fill="#40bfa1" fill-rule="nonzero" opacity="1" stroke="none"/>
<path d="M4161.71 2789.02C4161.71 2797.51 4154.02 2804.22 4151.16 2812.22C4146.82 2824.37 4146.53 2932.04 4151.16 2936.67C4161.07 2931.72 4173.81 2934.92 4184.91 2932.45C4245.44 2919 4272.23 2941.73 4313.58 2983.08C4319.98 2989.47 4338.1 3013.6 4338.9 3023.16C4340.3 3040.03 4331.14 3061.81 4343.12 3073.78C4358.64 3058.26 4342.75 3023.88 4353.66 3002.06C4370.15 2969.09 4385.15 2957.92 4410.62 2932.45C4396 2917.84 4412.72 2874.26 4412.72 2856.52C4412.72 2792.19 4400.16 2741.27 4345.22 2704.64C4345.15 2704.59 4336.6 2694.23 4332.57 2694.09C4312.89 2693.44 4293.15 2692.79 4273.51 2694.09C4269.28 2694.38 4251.63 2696.96 4246.08 2700.42C4220.79 2716.23 4198.63 2737.1 4178.58 2761.59C4169.17 2773.1 4179.03 2783.24 4161.71 2789.02Z" fill="#4eb66b" fill-rule="nonzero" opacity="1" stroke="none"/>
<path d="M3144.99 3130.74C3144.99 3146.32 3133.1 3162.57 3128.12 3175.03C3121.84 3190.71 3126.01 3208.77 3126.01 3225.66C3126.01 3271.61 3205.63 3382.63 3252.57 3366.99C3252.57 3325.47 3283.67 3237.23 3336.94 3234.09C3359.42 3232.77 3381.93 3231.99 3404.44 3231.99C3414.29 3231.99 3408.97 3241.87 3421.32 3231.99C3429.56 3225.39 3422.44 3195.83 3421.32 3183.47C3415.66 3121.22 3368.32 3075 3309.52 3063.24C3265.51 3054.43 3228.61 3066.78 3193.51 3084.33C3173.79 3094.19 3164.4 3124.27 3144.99 3130.74Z" fill="#06ac88" fill-rule="nonzero" opacity="1" stroke="none"/>
<path d="M5235.38 200.813C5194.53 205.01 5141.16 223.084 5115.15 257.766C5080.2 304.358 5107.59 370.792 5153.12 403.313C5192.14 431.189 5257.25 430.735 5302.88 430.735C5319.97 430.735 5377.25 408.964 5378.82 388.548C5380.06 372.423 5380.11 356.152 5378.82 340.032C5378.18 332.104 5362.52 321.431 5359.83 314.72C5356.89 307.347 5385.15 280.903 5385.15 264.095C5385.15 226.584 5260.45 198.238 5235.38 200.813Z" fill="#e9c07c" fill-rule="nonzero" opacity="1" stroke="none"/>
<path d="M5195.3 1502.3C5150.46 1502.68 5109.01 1516.87 5077.18 1548.7C5062.62 1563.26 5077.18 1584.29 5077.18 1599.33C5077.18 1611.63 5057.2 1625.97 5056.08 1639.41C5049.95 1713.04 5091.88 1742.77 5163.66 1742.77C5211.65 1742.77 5287.32 1712.98 5307.1 1666.83C5319.17 1638.66 5287.69 1615.9 5292.33 1607.77C5298.27 1597.37 5313.71 1594.26 5317.65 1582.45C5339.22 1517.74 5231.17 1501.99 5195.3 1502.3Z" fill="#ddeab1" fill-rule="nonzero" opacity="1" stroke="none"/>
<path d="M4482.33 2905.03C4478.17 2909.2 4479.96 2921.33 4473.9 2921.91C4455.42 2923.67 4413.08 2918.9 4395.85 2934.56C4375.54 2953.03 4359.63 2978.3 4349.44 3002.06C4337.28 3030.44 4337.86 3099.13 4353.66 3130.74C4359.47 3142.34 4385.11 3177.33 4376.87 3185.58C4385.17 3193.88 4396.74 3197.47 4404.29 3208.78C4416.07 3197 4437.52 3216.96 4450.69 3223.55C4480.04 3238.22 4527.3 3244.49 4554.05 3227.77C4576.32 3213.85 4562.18 3182.85 4554.05 3166.59C4526.37 3111.23 4516.38 3043.32 4501.32 2983.08C4497.4 2967.4 4490.95 2913.65 4482.33 2905.03Z" fill="#cd7da2" fill-rule="nonzero" opacity="1" stroke="none"/>
<path d="M2862.33 1519.17C2872.91 1508.59 2875.03 1521.32 2881.32 1527.61C2893.92 1515.01 2889.7 1468.73 2896.08 1449.56C2913.37 1397.69 2933.55 1348.06 2967.8 1304.02C3095.88 1139.35 3317.07 1067.87 3497.26 1188C3543.58 1218.88 3603.7 1275.86 3625.93 1331.44C3632.44 1347.71 3644.96 1380.01 3657.57 1392.61C3699.65 1350.53 3677.07 1330.37 3655.46 1287.14C3616.27 1208.77 3551.2 1152.2 3471.94 1120.5C3411.49 1096.32 3341.2 1086.75 3273.66 1086.75C3247.85 1086.75 3225.56 1102.87 3204.05 1105.74C3186.56 1108.07 3160.09 1104.24 3142.88 1112.06C3058.18 1150.56 2994.25 1204.77 2934.05 1285.03C2898.27 1332.74 2880.51 1393.71 2866.55 1449.56C2862.62 1465.31 2849.58 1506.42 2862.33 1519.17Z" fill="#e9c07c" fill-rule="nonzero" opacity="1" stroke="none"/>
<path d="M3938.12 4006.13C3937.85 4006.26 3913.52 4063.73 3910.69 4073.63C3905.08 4093.26 3869.01 4105 3853.74 4117.92C3807.25 4157.26 3795.6 4219.5 3830.54 4271.91C3858.95 4243.5 3824.53 4182.99 3857.96 4149.56C3860.07 4151.67 3860.07 4151.67 3862.18 4153.78C3848.6 4174.15 3862.33 4195.97 3885.38 4195.97C3893.85 4195.97 3896.91 4183.11 3904.37 4179.09C3917.15 4172.21 3920.21 4187.17 3931.79 4183.31C3935.56 4182.06 3936.49 4176.24 3940.22 4174.88C3958.78 4168.13 3957.33 4181.9 3967.65 4189.64C3984.22 4202.07 4008.3 4173.5 4016.16 4164.33C4029.8 4173.42 4034.42 4190.82 4047.8 4200.19C4064 4211.53 4065.35 4166.82 4079.44 4174.88C4091.63 4181.84 4091.41 4204.8 4104.76 4210.74C4118.33 4216.77 4124.19 4188.79 4134.29 4185.42C4134.29 4131.15 4163.5 4195.36 4182.8 4200.19C4195.51 4203.37 4202.63 4176.56 4210.22 4179.09C4211.63 4179.56 4227.65 4193.64 4229.21 4181.2C4230.43 4171.44 4233.72 4160.42 4229.21 4151.67C4220.33 4134.43 4207.95 4114.19 4189.13 4109.49C4169.48 4104.57 4136.36 4126.28 4125.85 4105.27C4113.22 4080.01 4133.77 4039.36 4111.08 4016.67C4079.99 4047.76 3982.94 4018.52 3944.44 4037.77C3934.01 4027.33 3947.07 4015.08 3938.12 4006.13Z" fill="#fd9429" fill-rule="nonzero" opacity="1" stroke="none"/>
<path d="M3828.43 4269.8C3852.56 4318.07 3908.68 4316.4 3940.22 4280.34C3946.95 4272.66 3949.36 4257.38 3959.21 4250.81C3962.48 4248.63 3966.58 4252.91 3967.65 4255.03C3976.53 4272.8 3990.14 4308 4014.05 4311.99C4071.23 4321.51 4074.95 4279.1 4102.65 4244.49C4127.59 4269.42 4146.2 4307.77 4187.02 4307.77C4255.09 4307.77 4267.04 4185.28 4229.21 4147.45C4219.12 4157.55 4230.86 4171.11 4220.77 4181.2C4199.56 4165.29 4200.93 4200.5 4182.8 4195.97C4168.77 4192.46 4154.43 4152.9 4136.4 4160.11C4121.27 4166.16 4136.72 4183.2 4117.41 4189.64C4117.41 4233.73 4087.75 4174.2 4081.55 4170.66C4064.21 4160.75 4062.12 4204.15 4047.8 4195.97C4034.18 4188.19 4031.8 4168.67 4020.38 4160.11C4010.95 4153.04 3999.07 4182.93 3986.63 4185.42C3964.96 4189.76 3960.95 4163.12 3940.22 4170.66C3936.49 4172.02 3935.34 4177.32 3931.79 4179.09C3922.1 4183.94 3915.13 4170.26 3904.37 4174.88C3891.34 4180.46 3893.24 4194.11 3879.05 4191.75C3845.46 4186.15 3877.96 4146.81 3860.07 4143.24C3849.43 4141.11 3842.08 4173.13 3841.08 4179.09C3837.33 4201.65 3832.65 4215.41 3832.65 4242.38C3832.65 4252.29 3841.05 4247.41 3836.87 4261.36C3835.72 4265.17 3831.24 4266.99 3828.43 4269.8Z" fill="#d75827" fill-rule="nonzero" opacity="1" stroke="none"/>
<path d="M3961.32 1255.5C3908.82 1308 3851.01 1352.88 3803.12 1409.49C3796.02 1417.87 3785.77 1424.48 3782.02 1434.8C3771.46 1463.84 3772.56 1499.71 3765.15 1531.83C3764.05 1536.59 3753.13 1545.18 3752.49 1548.7C3749.68 1564.17 3755.17 1583.99 3744.05 1595.11C3732.25 1583.31 3733.58 1540.76 3731.4 1525.5C3727.6 1498.95 3700.35 1372.11 3682.88 1354.64C3679.74 1357.79 3681.29 1363.71 3678.66 1367.3C3672.19 1376.12 3663.19 1382.77 3655.46 1390.5C3693.5 1466.59 3697.46 1564.58 3682.88 1652.06C3679.63 1671.54 3644.73 1780.55 3653.35 1789.17C3719.07 1756.31 3722.4 1713.5 3807.33 1719.56C3809.32 1719.71 3810.15 1722.38 3811.55 1723.78C3824.58 1715.09 3813.99 1692.91 3811.55 1679.49C3804.36 1639.93 3800.64 1600.98 3809.44 1561.36C3830.99 1464.4 3879 1338.5 3971.87 1276.59C3963.83 1268.56 3971.58 1262.34 3961.32 1255.5Z" fill="#f99f5c" fill-rule="nonzero" opacity="1" stroke="none"/>
<path d="M3147.1 2660.34C3138.18 2664.81 3138.36 2666.49 3138.66 2677.22C3139.26 2698.32 3139.91 2719.41 3140.77 2740.5C3142.67 2786.96 3144.49 2828.91 3138.66 2875.5C3136.81 2890.32 3126.52 2918.2 3138.66 2930.34C3149.4 2941.09 3164.04 2934.59 3176.63 2940.89C3188.64 2928.88 3228.7 2932.79 3246.24 2924.02C3312.97 2890.65 3365.58 2818.87 3328.51 2744.72C3322.43 2732.56 3311.52 2716.83 3296.87 2710.97C3274.5 2702.02 3264.49 2702.1 3231.47 2704.64C3227.3 2704.96 3218.21 2720.2 3212.49 2715.19C3203.28 2707.13 3169.61 2662.45 3147.1 2660.34Z" fill="#f8c115" fill-rule="nonzero" opacity="1" stroke="none"/>
<path d="M3687.1 1765.97C3699.14 1784.03 3687.1 1840.51 3687.1 1854.56C3687.1 1901.45 3705.33 1940.98 3729.29 1976.91C3732.69 1982.02 3750.22 2012.77 3758.82 2012.77C3772.7 2012.77 3813.33 1968.91 3819.99 1960.03C3828.14 1949.17 3847.79 1919.58 3851.63 1905.19C3857.63 1882.7 3847.12 1776.81 3857.96 1765.97C3848.86 1747.77 3828.09 1733.88 3815.77 1717.45C3813.66 1718.51 3813.66 1718.51 3811.55 1719.56C3797.6 1705.61 3772.12 1713.31 3752.49 1715.34C3731.77 1717.49 3701.03 1753.3 3687.1 1765.97Z" fill="#fd9429" fill-rule="nonzero" opacity="1" stroke="none"/>
<path d="M2119.83 1050.89C2084.07 1054.22 1984.2 1110.35 1982.72 1145.81C1980.25 1205.18 1999.25 1226.83 2052.33 1238.63C2068.38 1242.19 2066.65 1264.91 2088.19 1261.83C2154.38 1252.37 2296.34 1120.51 2197.88 1061.44C2176.77 1048.77 2139.33 1049.08 2119.83 1050.89Z" fill="#fcabc9" fill-rule="nonzero" opacity="1" stroke="none"/>
<path d="M3794.68 2991.52C3763.32 3022.87 3746.83 3062.37 3712.41 3094.88C3689.32 3116.69 3646.95 3118.15 3625.93 3139.17C3630.98 3149.28 3629.65 3211.39 3621.71 3219.33C3640.8 3238.42 3658.34 3258.5 3678.66 3276.28C3687.91 3267.03 3683.98 3256.74 3693.43 3248.86C3700.82 3242.7 3722.45 3226.19 3733.51 3229.88C3740.51 3232.21 3737 3238.55 3744.05 3236.2C3760.49 3230.73 3772.91 3218.15 3788.35 3213C3805.27 3207.36 3834.03 3211.62 3847.41 3198.24C3838.79 3189.61 3844.93 3176.04 3841.08 3164.49C3822.17 3107.74 3834.64 3064.79 3870.62 3016.83C3860.61 3006.82 3807.08 3003.92 3794.68 2991.52Z" fill="#099458" fill-rule="nonzero" opacity="1" stroke="none"/>
<path d="M2583.9 846.282C2657.17 919.552 2735.81 988.503 2796.94 1074.09C2812.9 1096.44 2818 1115.66 2828.58 1139.49C2830.74 1144.34 2838.33 1146.11 2839.13 1152.14C2840.45 1162 2836.32 1174.64 2843.35 1181.67C2850.37 1174.65 2905.17 1053.93 2904.52 1048.78C2902.65 1033.83 2884.27 1023.36 2877.1 1010.81C2848.71 961.138 2796.64 916.134 2750.54 888.47C2732.67 877.749 2651.32 819.955 2632.41 829.407C2624.41 833.409 2620.35 842.724 2613.43 848.391C2602.73 857.142 2598.96 831.217 2583.9 846.282Z" fill="#f2429c" fill-rule="nonzero" opacity="1" stroke="none"/>
<path d="M3853.74 186.048C3828.4 186.87 3818.44 229.642 3813.66 253.548C3809.17 275.994 3801.72 293.667 3807.33 318.938C3832.39 431.681 3967.11 367.995 4020.38 314.72C4041.84 293.265 4048.97 238.333 4022.49 219.798C3972.24 184.62 3924.42 258.562 3887.49 249.329C3851.56 240.346 3877.49 185.277 3853.74 186.048Z" fill="#fcabc9" fill-rule="nonzero" opacity="1" stroke="none"/>
<path d="M3699.76 270.423C3586.34 363.963 3564.79 490.438 3573.19 641.673C3573.55 648.145 3585.7 645.891 3592.18 645.891C3606.21 645.891 3695.31 637.367 3697.65 631.126C3703.05 616.705 3688.05 595.957 3684.99 584.72C3680.22 567.22 3677.22 533.167 3676.55 515.11C3675.2 478.566 3674.44 441.992 3674.44 405.423C3674.44 384.867 3710.65 261.438 3699.76 270.423Z" fill="#f36819" fill-rule="nonzero" opacity="1" stroke="none"/>
<path d="M4054.13 2776.36C4000.14 2789.68 3974.57 2841.72 3990.85 2898.7C3993.74 2908.82 3992.9 2930.61 4007.72 2934.56C4028.24 2940.03 4050.08 2935.7 4068.9 2945.11C4086.46 2953.89 4096.21 2976.08 4119.52 2968.31C4164.26 2953.4 4150.63 2869 4153.27 2833.31C4153.64 2828.34 4159.24 2813.05 4153.27 2805.89C4126.51 2773.78 4097.26 2765.72 4054.13 2776.36Z" fill="#f34844" fill-rule="nonzero" opacity="1" stroke="none"/>
<path d="M4231.32 1483.31C4178.73 1492.08 4141.46 1512 4102.65 1550.81C4096.19 1557.27 4068.2 1590.54 4085.77 1599.33C4087.03 1599.96 4088.78 1600.05 4089.99 1599.33C4118.3 1582.34 4137.69 1567.02 4172.26 1557.14C4240.75 1537.57 4308.52 1545.67 4366.32 1580.34C4417.46 1611.03 4431.71 1686.28 4431.71 1742.77C4431.71 1762.03 4418.35 1780.03 4433.82 1795.5C4439.95 1789.37 4456.73 1756.98 4457.02 1749.09C4458.37 1712.56 4458.37 1675.94 4457.02 1639.41C4455.11 1587.89 4366.56 1503.35 4322.02 1489.64C4311.98 1486.55 4301.03 1488.97 4231.32 1483.31Z" fill="#3a1946" fill-rule="nonzero" opacity="1" stroke="none"/>
<path d="M3961.32 1255.5C3966.22 1265.3 3961.21 1270.16 3969.76 1278.7C4052.1 1196.36 4149.02 1167.93 4262.96 1160.58C4290.59 1158.8 4328.78 1157.91 4355.77 1166.91C4432.82 1192.59 4501.16 1225.56 4566.71 1282.92C4585.33 1264.3 4538.53 1227.33 4528.74 1217.53C4487.48 1176.28 4424.3 1147.91 4372.65 1133.16C4325.29 1119.63 4273.67 1107.84 4222.88 1107.84C4194.01 1107.84 4171.85 1126.04 4146.94 1133.16C4078.52 1152.71 4020.92 1210.8 3961.32 1255.5Z" fill="#e9c07c" fill-rule="nonzero" opacity="1" stroke="none"/>
<path d="M4505.54 2474.72C4492.38 2487.88 4504.65 2513.58 4490.77 2527.45C4507.8 2544.49 4532.94 2546.56 4526.63 2578.08C4525.06 2585.94 4515.22 2578.95 4509.76 2584.41C4500.7 2578.37 4500.82 2579.38 4490.77 2584.41C4487.61 2581.24 4487.61 2581.24 4484.44 2578.08C4467.94 2594.59 4470.35 2621.25 4467.57 2643.47C4459.89 2704.88 4461.94 2767.22 4463.35 2829.09C4463.47 2834.54 4471.15 2848.66 4471.79 2854.41C4475.24 2885.45 4473.71 2934.38 4497.1 2957.77C4492.57 2966.83 4494.35 2976.11 4501.32 2983.08C4504.25 2980.15 4523.67 2972.3 4524.52 2968.31C4529.8 2943.68 4525.08 2907.81 4520.3 2883.94C4507.11 2817.97 4510.83 2745.62 4520.3 2679.33C4523.39 2657.69 4515.81 2590.83 4535.07 2584.41C4535.07 2565.18 4551.85 2528.67 4543.51 2510.58C4538.72 2500.2 4513.07 2483.51 4505.54 2474.72Z" fill="#f36819" fill-rule="nonzero" opacity="1" stroke="none"/>
<path d="M3661.79 1900.97C3658.33 1904.42 3649.98 1948.5 3655.46 1955.81C3692.41 2005.09 3704.57 2092.24 3763.04 2128.78C3777.68 2137.93 3810.18 2092.07 3813.66 2078.16C3824.09 2036.43 3862.96 2009.83 3855.85 1960.03C3854.55 1950.93 3835.43 1942.06 3830.54 1934.72C3807.16 1958.09 3792.29 1987.64 3760.93 2008.55C3743.68 1993.77 3732.71 1977.49 3718.74 1960.03C3679.05 1999.72 3678.5 1917.69 3661.79 1900.97Z" fill="#f04c15" fill-rule="nonzero" opacity="1" stroke="none"/>
<path d="M3957.1 114.329C3926.59 120.286 3857.72 155.585 3851.63 186.048C3847.02 209.117 3870.69 260.912 3900.15 253.548C3915.29 249.762 3931.27 232.056 3946.55 228.235C3983.48 219.004 4030.06 216.447 4058.35 188.157C4067.41 179.097 4063.39 166.792 4062.57 154.407C4059.93 114.896 3977.57 110.331 3957.1 114.329Z" fill="#fdd9e1" fill-rule="nonzero" opacity="1" stroke="none"/>
<path d="M4752.33 411.751C4803.46 360.622 4855.41 311.308 4912.65 270.423C4935.59 254.037 4964.08 243.167 4986.47 228.235C4996.47 221.575 5007.55 207.567 5020.22 205.032C5071.73 194.732 5124.27 170.069 5180.54 164.954C5200.07 163.178 5223.62 164.056 5237.49 150.188C5224.64 137.34 5135.45 145.398 5119.37 148.079C4971.23 172.768 4902.41 215.268 4792.41 325.266C4777.24 340.436 4729.58 388.993 4752.33 411.751Z" fill="#f36819" fill-rule="nonzero" opacity="1" stroke="none"/>
<path d="M1955.3 1238.63C1933.33 1243.39 1926.25 1301.18 1925.77 1320.89C1924.4 1377.83 1925.09 1434.8 1925.77 1491.75C1926.13 1521.68 1981.05 1578.6 1982.72 1531.83C1983.9 1498.8 1983.18 1465.7 1984.83 1432.69C1985.5 1419.33 1986.16 1405.96 1986.94 1392.61C1988.39 1367.93 2011.41 1226.46 1955.3 1238.63Z" fill="#fdfcf7" fill-rule="nonzero" opacity="1" stroke="none"/>
<path d="M3227.26 4271.91C3250.5 4300.97 3286.11 4306.34 3317.96 4282.45C3328.42 4274.61 3337.9 4253.4 3349.6 4259.25C3356.2 4262.55 3352.92 4268.9 3358.04 4274.02C3359.44 4272.61 3362.18 4271.79 3362.26 4269.8C3363.61 4231.85 3363.61 4193.84 3362.26 4155.89C3362.18 4153.9 3359.44 4153.08 3358.04 4151.67C3349.34 4158.63 3336.79 4179.49 3324.29 4176.99C3291.63 4170.45 3276.59 4125.54 3242.02 4160.11C3212.99 4189.14 3241.1 4258.06 3227.26 4271.91Z" fill="#f04c15" fill-rule="nonzero" opacity="1" stroke="none"/>
<path d="M3180.85 1521.28C3093.06 1532.13 3112.28 1672.74 3204.05 1660.5C3243.5 1655.24 3286.93 1602.67 3265.22 1559.25C3247.08 1522.95 3214.71 1517.1 3180.85 1521.28Z" fill="#fdfcf7" fill-rule="nonzero" opacity="1" stroke="none"/>
<path d="M2567.02 2362.92C2564.91 2365.03 2564.91 2365.03 2562.8 2367.14C2566.49 2370.83 2573.49 2370.65 2575.46 2375.58C2576.35 2377.81 2541.32 2463.06 2539.6 2476.83C2538.33 2487.02 2523.68 2511.29 2541.71 2519.02C2562.4 2527.88 2683.64 2496.99 2685.15 2478.94C2688.74 2435.87 2631.64 2380.47 2567.02 2362.92Z" fill="#dd2486" fill-rule="nonzero" opacity="1" stroke="none"/>
<path d="M3531.01 4160.11C3515.72 4175.39 3525.69 4204.22 3520.46 4223.39C3518.49 4230.6 3509.04 4233.58 3505.69 4240.27C3522.88 4257.45 3546.38 4298.43 3575.3 4305.66C3584.01 4307.83 3595.84 4311.99 3604.83 4311.99C3611.65 4311.99 3655.46 4287.87 3655.46 4280.34C3655.46 4272.33 3643.51 4268.87 3640.69 4261.36C3635.75 4248.18 3640.44 4233.13 3638.58 4219.17C3636.1 4200.55 3610.17 4173.89 3598.51 4162.22C3584.22 4147.93 3549.05 4169.13 3531.01 4160.11Z" fill="#f04c15" fill-rule="nonzero" opacity="1" stroke="none"/>
<path d="M4524.52 2919.8C4514.84 2929.48 4522.4 2953.64 4520.3 2966.2C4518.73 2975.64 4504.88 2977.52 4497.1 2983.08C4512.54 3013.96 4508.2 3052.06 4520.3 3084.33C4540.72 3138.77 4558.05 3186.92 4562.49 3244.64C4564 3264.33 4582.53 3286.22 4583.58 3305.81C4585.58 3343.03 4582.23 3380.37 4583.58 3417.61C4583.66 3419.6 4586.4 3420.42 4587.8 3421.83C4609.2 3400.43 4588.75 3361.22 4592.02 3331.13C4592.4 3327.68 4610.39 3297.63 4606.79 3286.83C4592.64 3244.38 4575.59 3191.59 4568.82 3147.61C4565.93 3128.83 4569.83 3109.4 4566.71 3090.66C4562.23 3063.81 4545.26 3035.27 4539.29 3008.39C4535.05 2989.34 4537.95 2933.23 4524.52 2919.8Z" fill="#d75827" fill-rule="nonzero" opacity="1" stroke="none"/>
<path d="M3282.1 4092.61C3279.99 4091.56 3279.99 4091.56 3277.88 4090.5C3271.97 4096.41 3265.7 4105.5 3256.79 4101.05C3212.01 4145.83 3193.79 4176.3 3206.16 4238.16C3208.69 4250.81 3216.12 4267.39 3229.37 4274.02C3251.53 4251.85 3213.91 4192.44 3250.46 4155.89C3275.54 4130.81 3301.69 4176.68 3324.29 4181.2C3337.77 4183.9 3356.16 4155.71 3366.47 4147.45C3362.1 4138.7 3360.62 4134.86 3353.82 4126.36C3355.93 4124.25 3355.93 4124.25 3358.04 4122.14C3344.88 4108.99 3300.84 4073.87 3282.1 4092.61Z" fill="#ec8104" fill-rule="nonzero" opacity="1" stroke="none"/>
<path d="M3655.46 1949.49C3662.62 1942.32 3656.73 1935.55 3663.9 1928.39C3676.75 1941.25 3681.3 1962.85 3693.43 1979.02C3701.61 1974.93 3716.07 1969.3 3720.85 1962.14C3723.11 1958.75 3703.47 1922.16 3701.87 1915.74C3693.14 1880.81 3691.32 1839.83 3691.32 1803.94C3691.32 1792.94 3702.36 1771.06 3687.1 1765.97C3679.08 1763.3 3643.69 1797.94 3640.69 1803.94C3637.26 1810.81 3624.51 1826.22 3623.82 1833.47C3621.09 1862.09 3634.12 1928.15 3655.46 1949.49Z" fill="#f36819" fill-rule="nonzero" opacity="1" stroke="none"/>
<path d="M4178.58 1593C4091.96 1595.72 4109.57 1714.28 4199.68 1704.8C4207.11 1704.02 4210.77 1694.77 4216.55 1690.03C4259.89 1654.58 4227.09 1591.48 4178.58 1593Z" fill="#fdfcf7" fill-rule="nonzero" opacity="1" stroke="none"/>
<path d="M5648.82 1677.38C5630.91 1695.29 5659.85 1797.64 5672.02 1825.03C5674.12 1829.75 5682.21 1833.42 5682.57 1839.8C5683.28 1852.62 5683.79 1904.3 5693.12 1913.63C5697.15 1909.59 5735.88 1864.83 5737.41 1860.89C5751.65 1824.29 5671.16 1707.17 5648.82 1677.38Z" fill="#90ad2a" fill-rule="nonzero" opacity="1" stroke="none"/>
<path d="M4651.08 2305.97C4623.4 2333.65 4588.5 2356.13 4556.16 2377.69C4548.27 2382.95 4529.09 2392.67 4524.52 2400.89C4519.85 2409.3 4524.88 2440.2 4524.52 2445.19C4524.2 2449.62 4518.9 2453.63 4520.3 2457.84C4525.37 2473.04 4584.8 2399.88 4592.02 2396.67C4602.88 2391.85 4654.87 2409.8 4657.41 2394.56C4662.12 2366.33 4648.63 2336.54 4657.41 2310.19C4654.25 2308.08 4654.25 2308.08 4651.08 2305.97Z" fill="#e9c07c" fill-rule="nonzero" opacity="1" stroke="none"/>
<path d="M3978.19 3278.39C3976.08 3280.5 3971.98 3281.74 3971.87 3284.72C3969.84 3339.53 3973.24 3394.42 3971.87 3449.25C3971.58 3460.47 3950.77 3474.7 3950.77 3485.11C3950.77 3492.17 3971.61 3516.81 3976.08 3523.08C3993.37 3547.28 4040.65 3627.27 4073.12 3594.8C4062.19 3572.96 4036.06 3553.38 4020.38 3535.74C4009.18 3523.14 4008.28 3496.88 4005.62 3480.89C4004.91 3476.65 3987.72 3457.76 3984.52 3451.36C3963.58 3409.47 4016.51 3316.71 3978.19 3278.39Z" fill="#f99f5c" fill-rule="nonzero" opacity="1" stroke="none"/>
<path d="M4830.38 335.813C4807.28 358.918 4778.34 380.672 4754.44 403.313C4748.43 397.302 4751.33 400.749 4746.01 392.766C4718.7 420.07 4714.9 443.184 4739.68 472.923C4751.08 461.523 4761.05 444.852 4773.43 434.954C4775.07 433.636 4777.87 434.011 4779.76 434.954C4794.16 442.155 4786.43 442.571 4802.96 437.063C4802.96 422.012 4858.85 346.338 4857.8 344.251C4853.72 336.077 4838.44 341.183 4830.38 335.813Z" fill="#ed7c48" fill-rule="nonzero" opacity="1" stroke="none"/>
<path d="M4950.62 2877.61C4933.36 2894.86 4928.42 2881.86 4912.65 2892.38C4928.48 2924.04 4937.57 2955.27 4965.38 2983.08C4973.45 2991.15 4978.85 2978.41 4984.37 2976.75C4991.15 2974.72 5008.91 2983.11 5013.9 2980.97C5035.67 2971.64 5018.89 2928.64 5016.01 2911.36C5013.07 2893.72 4983.09 2913.93 4982.26 2913.47C4963.41 2903 4962.3 2889.29 4950.62 2877.61Z" fill="#6b981a" fill-rule="nonzero" opacity="1" stroke="none"/>
<path d="M4691.16 1512.84C4678.11 1525.89 4693.04 1608.35 4693.27 1611.99C4694.59 1633.04 4693.91 1654.18 4693.27 1675.27C4692.56 1698.62 4663.43 1763.55 4682.72 1782.84C4689.19 1776.38 4711.95 1762.16 4712.26 1751.2C4714.28 1679.51 4714.3 1607.74 4712.26 1536.05C4712.16 1532.59 4699.97 1518.67 4691.16 1512.84Z" fill="#f99f5c" fill-rule="nonzero" opacity="1" stroke="none"/>
<path d="M4573.04 671.204C4568.82 666.985 4568.82 666.985 4564.6 662.766C4558.97 668.391 4553.22 673.887 4547.72 679.641C4538.45 689.358 4529.15 699.063 4520.3 709.173C4505.25 726.373 4541.61 716.798 4543.51 717.61C4552.68 721.541 4547.96 732.614 4554.05 738.704C4570.13 722.623 4590.6 712.241 4602.57 692.298C4607.98 683.272 4620.09 635.93 4600.46 643.782C4594.3 646.244 4577.68 666.565 4573.04 671.204Z" fill="#d75827" fill-rule="nonzero" opacity="1" stroke="none"/>
<path d="M3855.85 1812.38C3842.88 1825.34 3852.24 1848.89 3851.63 1867.22C3851 1886.28 3843.69 1921.56 3828.43 1936.83C3832.66 1945.3 3849.31 1952.59 3851.63 1960.03C3854.6 1969.52 3848.82 1982.53 3855.85 1989.56C3865.58 1979.84 3876.64 1934.25 3876.94 1924.17C3877.6 1902.37 3876.81 1880.5 3874.83 1858.78C3874.26 1852.47 3861.01 1853.57 3860.07 1848.24C3857.98 1836.38 3864.36 1820.89 3855.85 1812.38Z" fill="#d75827" fill-rule="nonzero" opacity="1" stroke="none"/>
<path d="M3661.79 4155.89C3643.45 4174.22 3635.86 4183.93 3621.71 4198.08C3640.49 4216.86 3626.42 4238.39 3636.47 4261.36C3639.87 4269.12 3648.65 4273.3 3653.35 4280.34C3679.22 4260.94 3682.95 4177.05 3661.79 4155.89Z" fill="#d75827" fill-rule="nonzero" opacity="1" stroke="none"/>
<path d="M3018.43 2386.13C3004.07 2400.48 3035.03 2425.1 3039.52 2443.08C3044.12 2461.47 3048.47 2500.54 3060.62 2512.69C3066.66 2506.64 3062.13 2495.49 3064.83 2487.38C3067.2 2480.29 3076.82 2477.44 3079.6 2470.5C3090.48 2443.3 3055.99 2398.58 3018.43 2386.13Z" fill="#f36819" fill-rule="nonzero" opacity="1" stroke="none"/>
<path d="M3855.85 1763.86C3839.67 1780.04 3853.72 1832.23 3855.85 1852.45C3856.81 1861.58 3869.74 1851.81 3870.62 1860.89C3872.72 1882.63 3859.39 1910.84 3874.83 1926.28C3897.3 1903.82 3880.56 1863.01 3883.27 1831.36C3883.66 1826.87 3890.97 1825.25 3891.71 1820.81C3893.88 1807.8 3863.04 1773.45 3855.85 1763.86Z" fill="#f36819" fill-rule="nonzero" opacity="1" stroke="none"/>
<path d="M4522.41 2409.33C4511.95 2419.79 4508.76 2468.19 4509.76 2483.16C4510.57 2495.36 4535.03 2501.22 4539.29 2510.58C4541.97 2516.48 4538.92 2524.98 4543.51 2529.56C4553.99 2519.08 4546.32 2500.03 4547.72 2485.27C4548.87 2473.23 4581.11 2394.5 4539.29 2440.97C4535.13 2445.59 4532.18 2452.68 4528.74 2457.84C4517.89 2447 4537.41 2424.33 4522.41 2409.33Z" fill="#d77132" fill-rule="nonzero" opacity="1" stroke="none"/>
<path d="M3676.55 3274.17C3685.37 3291.8 3694.13 3344.48 3695.54 3345.89C3707.6 3333.83 3696.07 3316.34 3699.76 3301.59C3706.74 3273.67 3727.59 3261.02 3748.27 3236.2C3727.49 3215.43 3703.73 3234.33 3684.99 3253.08C3679.28 3258.79 3683.43 3267.3 3676.55 3274.17Z" fill="#ed7c48" fill-rule="nonzero" opacity="1" stroke="none"/>
<path d="M4720.69 441.282C4694.37 456.188 4694.44 494.959 4674.29 515.11C4668.83 520.57 4670.16 538.569 4678.51 540.423C4692.13 543.45 4744.28 478.745 4741.79 472.923C4738.25 464.67 4727.98 437.155 4720.69 441.282Z" fill="#d75827" fill-rule="nonzero" opacity="1" stroke="none"/>
<path d="M2860.22 1527.61C2853.47 1534.36 2856.01 1557.56 2856.01 1567.69C2856.01 1583.88 2855.65 1600.21 2858.12 1616.2C2858.57 1619.15 2864.16 1619.56 2864.44 1622.53C2866.34 1642.13 2863.13 1661.95 2864.44 1681.59C2864.58 1683.58 2867.26 1684.41 2868.66 1685.81C2870.89 1683.58 2876.98 1673.47 2877.1 1671.05C2878.43 1645.07 2875.15 1618.94 2877.1 1593C2878.42 1575.35 2885.54 1557.84 2883.43 1540.27C2882.47 1532.25 2871.32 1531.56 2866.55 1533.94C2863.39 1530.77 2863.39 1530.77 2860.22 1527.61Z" fill="#f99f5c" fill-rule="nonzero" opacity="1" stroke="none"/>
<path d="M4494.99 2527.45C4481.07 2541.37 4474.19 2588.92 4488.66 2603.39C4494.48 2597.58 4497.63 2591.78 4501.32 2584.41C4506.2 2587.66 4519.44 2582.6 4520.3 2588.63C4522.4 2603.31 4514.03 2622.43 4524.52 2632.92C4537.76 2619.68 4531.81 2561.02 4524.52 2546.44C4518.9 2535.19 4504.41 2536.87 4494.99 2527.45Z" fill="#d75827" fill-rule="nonzero" opacity="1" stroke="none"/>
<path d="M4752.33 2472.61C4742.63 2482.31 4745.16 2484 4735.46 2493.7C4744.54 2511.87 4764.67 2558.77 4777.65 2571.75C4785.74 2563.66 4796.61 2558.07 4802.96 2548.55C4806.89 2542.66 4760.17 2484.37 4752.33 2472.61Z" fill="#90ad2a" fill-rule="nonzero" opacity="1" stroke="none"/>
<path d="M4345.22 3088.55C4334.24 3099.53 4320.72 3164.04 4332.57 3170.81C4345.49 3178.2 4363.96 3180.18 4378.97 3187.69C4381.73 3184.93 4388.88 3180.76 4385.3 3175.03C4375.48 3159.31 4365.07 3147.52 4357.88 3130.74C4351.94 3116.87 4357.34 3100.67 4345.22 3088.55Z" fill="#44b7dc" fill-rule="nonzero" opacity="1" stroke="none"/>
<path d="M4098.43 3149.72C4088.63 3147.27 4060.39 3215.18 4073.12 3217.22C4089.08 3219.77 4105.51 3218.51 4121.63 3217.22C4135.71 3216.09 4115.86 3196.36 4115.3 3191.91C4113.37 3176.41 4114.76 3153.81 4098.43 3149.72Z" fill="#0aa2b6" fill-rule="nonzero" opacity="1" stroke="none"/>
<path d="M3625.93 4105.27C3610.8 4120.39 3620.87 4182.48 3636.47 4198.08C3647.13 4187.43 3633.37 4203.17 3640.69 4181.2C3642.99 4174.32 3659.32 4166.01 3663.9 4158C3669.84 4147.6 3631.8 4113.09 3625.93 4105.27Z" fill="#f36819" fill-rule="nonzero" opacity="1" stroke="none"/>
<path d="M4378.97 993.938C4394.17 1009.14 4406.56 992.621 4425.38 998.157C4431.1 999.841 4433.07 1007.5 4438.04 1010.81C4447.19 1016.91 4486.61 995.994 4492.88 989.72C4489.17 986.005 4391.44 981.47 4378.97 993.938Z" fill="#d75827" fill-rule="nonzero" opacity="1" stroke="none"/>
<path d="M4956.94 2873.39C4927.75 2902.58 5016.56 2939.89 4990.69 2888.16C4997.78 2881.07 4994.75 2877.53 4956.94 2873.39Z" fill="#175f54" fill-rule="nonzero" opacity="1" stroke="none"/>
<path d="M4629.99 926.438C4610.83 945.598 4618.81 955.151 4634.21 974.954C4645.68 963.483 4673.09 952.057 4648.97 932.766C4642.46 927.555 4636.41 932.854 4629.99 926.438Z" fill="#331910" fill-rule="nonzero" opacity="1" stroke="none"/>
<path d="M4984.37 2888.16C4996.09 2899.88 4988.91 2915.47 5013.9 2907.14C5013.9 2885.17 5009.42 2892.63 5020.22 2881.83C5017.06 2878.66 5017.06 2878.66 5013.9 2875.5C5011.79 2876.56 5011.79 2876.56 5009.68 2877.61C4998.39 2866.32 4991.31 2878.9 4984.37 2888.16Z" fill="#1f5023" fill-rule="nonzero" opacity="1" stroke="none"/>
<path d="M2866.55 1538.16C2868.66 1537.1 2868.66 1537.1 2870.77 1536.05C2890.14 1555.42 2887.02 1517.95 2874.99 1510.74C2858.03 1500.56 2857.18 1528.79 2866.55 1538.16Z" fill="#f8a78e" fill-rule="nonzero" opacity="1" stroke="none"/>
</g>
</g>
</svg>
