<?xml version="1.0" encoding="UTF-8" standalone="no"?>
<!DOCTYPE svg PUBLIC "-//W3C//DTD SVG 1.1//EN" "http://www.w3.org/Graphics/SVG/1.1/DTD/svg11.dtd">
<!-- Created with Vectornator (http://vectornator.io/) -->
<svg height="100%" stroke-miterlimit="10" style="fill-rule:nonzero;clip-rule:evenodd;stroke-linecap:round;stroke-linejoin:round;" version="1.1" viewBox="0 0 7680 4320" width="100%" xml:space="preserve" xmlns="http://www.w3.org/2000/svg" xmlns:xlink="http://www.w3.org/1999/xlink">
<defs/>
<clipPath id="ArtboardFrame">
<rect height="4320" width="7680" x="0" y="0"/>
</clipPath>
<g clip-path="url(#ArtboardFrame)" id="Ebene-1">
<g opacity="1">
<path d="M3869.29 1771.56C3780.51 1793.75 3701.79 1817.73 3609.5 1828.59C3605.02 1829.11 3603.39 1836.29 3598.94 1837.04C3452.52 1861.44 3297.23 1862.49 3149.06 1856.05C3056.24 1852.01 2963.05 1836.64 2874.48 1828.59C2845.32 1825.94 2797.61 1808.51 2770.99 1830.7C2602.4 1971.2 2715.06 2260.6 2705.51 2451.71C2698.92 2583.52 2649.59 2723.29 2690.73 2846.7C2702.99 2883.5 2726.32 2912.16 2745.64 2945.98C2782.86 3011.12 2820.41 3073.56 2876.59 3129.74C2925.78 3178.93 2988.58 3208.62 3049.79 3229.02C3066.44 3234.57 3086.08 3250.98 3102.59 3256.48C3232.18 3299.68 3387.49 3302.15 3520.79 3275.49C3646.44 3250.36 3766.4 3204.68 3869.29 3136.08C3909.48 3109.29 3949.64 3083.92 3991.8 3055.81C4006.1 3046.28 4016.47 3027.17 4031.93 3022.02C4031.93 2976.08 4058.89 2944.03 4074.17 2905.84C4085.33 2877.94 4091.94 2846.2 4101.63 2817.13C4104.1 2809.7 4118.32 2790.56 4118.52 2787.56C4125.01 2690.31 4115.57 2583.93 4139.65 2487.61C4174.33 2348.86 4189.62 2160.18 4143.87 2022.92C4121.89 1956.96 4104.72 1899.27 4055.16 1849.71C4036.45 1830.99 4036.6 1797.57 4006.58 1784.23C3984.71 1774.51 3965.38 1845.06 3924.21 1828.59C3892.52 1815.91 3911.9 1773.67 3869.29 1771.56Z" fill="#fab681" fill-rule="nonzero" opacity="1" stroke="none"/>
<path d="M2564 265.508C2552.96 271.027 2523.07 251.579 2511.19 248.61C2445.66 232.226 2370.84 195.507 2314.77 151.446C2300.66 140.364 2240.86 82.6394 2228.17 88.0778C2213.75 94.2589 2224.53 141.74 2228.17 153.558C2241.18 195.854 2262.04 242.032 2293.64 276.07C2302.02 285.095 2336.59 310.807 2329.55 322.54C2307.22 359.766 2178.66 280.049 2164.8 307.754C2175.75 318.701 2174.78 333.725 2183.81 345.774C2194.89 360.539 2211.18 377.37 2223.94 390.132C2241.04 407.226 2269.03 407.196 2287.31 421.816C2271.48 445.555 2225.65 411.579 2204.94 428.153C2182.13 446.402 2252.73 484.988 2270.41 489.409C2288.35 493.893 2306.28 504.512 2323.21 508.419C2341.92 512.737 2367.07 510.59 2386.58 512.644C2396.13 513.649 2418.91 511.825 2424.6 523.205C2425.54 525.094 2425.99 527.952 2424.6 529.542C2410.83 545.278 2394.69 558.789 2380.24 573.899C2354.75 600.554 2335.07 630.045 2314.77 660.502C2257.09 747.025 2214.97 857.172 2202.82 960.444C2195.52 1022.54 2189.92 1088.17 2196.49 1150.55C2211.94 1297.33 2288.76 1501.65 2392.91 1611.02C2417.98 1637.34 2442.91 1663.82 2468.95 1689.18C2475.41 1695.47 2483.37 1700.04 2490.07 1706.08C2519.41 1732.48 2554.38 1747.15 2580.89 1773.67C2591.68 1762.88 2626.74 1776.68 2640.03 1780C2655.4 1783.85 2676.94 1780.17 2690.73 1784.23C2695.5 1785.63 2696.75 1792.73 2701.29 1794.79C2708.37 1798.01 2717.37 1793.84 2724.52 1796.9C2739.41 1803.29 2767.49 1820.58 2783.66 1822.25C2827.97 1826.83 2869.23 1824.94 2912.5 1832.81C2922.57 1834.64 2941.38 1844.3 2952.63 1845.48C3123.82 1863.51 3299.1 1866.54 3472.21 1856.05C3513.25 1853.56 3559 1851.24 3598.94 1841.26C3612.38 1837.9 3592.05 1834.75 3609.5 1832.81C3727.52 1819.7 3846.11 1796.45 3947.44 1735.65C3969.55 1722.38 3992.78 1716.05 4012.92 1703.96C4023.6 1697.55 4031.51 1684.6 4042.49 1678.62C4047.33 1675.98 4058.92 1681.31 4061.5 1672.28C4067.33 1651.85 4055.27 1638.93 4050.94 1621.58C4045.18 1598.54 4040.25 1569.42 4038.26 1545.54C4036.31 1522.11 4030.74 1426.07 4027.7 1423.03C4024.08 1426.66 4025.56 1433.13 4023.48 1437.82C4016.59 1453.32 3996.17 1469.8 3983.35 1480.06C3851.51 1585.54 3641.28 1609.82 3495.45 1522.31C3457.79 1499.71 3429.17 1465.76 3402.51 1431.48C3395.64 1422.65 3396.62 1410.81 3389.84 1404.02C3376.33 1417.53 3383.06 1414.89 3379.28 1435.7C3377.36 1446.26 3367.36 1463.77 3362.38 1473.73C3343.48 1511.53 3341.02 1573.24 3309.58 1604.69C3275.71 1570.81 3257.55 1519.63 3237.77 1480.06C3228.78 1462.08 3225.01 1433.5 3210.31 1418.81C3186.21 1436.88 3171.52 1477.76 3153.28 1503.3C3126.58 1540.68 3089.44 1570.07 3049.79 1589.9C3014.77 1607.41 2962.81 1624.98 2923.06 1625.81C2893.42 1626.43 2855.31 1611.18 2834.35 1632.15C2824.02 1621.81 2790.49 1626.24 2775.21 1623.7C2728.59 1615.93 2658.51 1598.48 2618.91 1568.78C2576.8 1537.19 2530.31 1516.08 2492.18 1477.95C2416.8 1402.56 2384.98 1316.34 2340.11 1226.59C2320.46 1187.28 2313.98 1123.24 2312.65 1080.84C2311.51 1044.24 2310.54 1007.63 2310.54 971.006C2310.54 672.602 2570.19 387.05 2878.7 455.612C3000.98 482.786 3140.79 574.196 3210.31 690.074C3230.04 722.965 3244.38 757.292 3258.89 793.575C3264.34 807.214 3263.84 830.212 3273.67 840.045C3289.39 832.186 3285.37 811.138 3288.46 795.688C3296.38 756.097 3314.45 693.442 3339.15 660.502C3363.3 628.299 3381.83 592.467 3410.96 563.338C3522.03 452.259 3680.54 424.119 3827.05 445.051C3888.42 453.818 3951.64 500.791 3996.02 542.215C4078.88 619.559 4154.31 708.735 4190.34 816.81C4209.15 873.249 4211.46 921.224 4211.46 983.679C4211.46 990.035 4205.32 990.115 4213.57 994.241C4214.83 994.871 4216.65 995.059 4217.79 994.241C4236.48 980.892 4253.3 964.936 4272.71 951.995C4287.94 941.843 4307.73 927.424 4325.51 920.311C4336.01 916.112 4348.36 918.588 4357.19 909.75C4336.04 888.595 4342.65 856.632 4327.62 831.596C4299.58 784.851 4284.81 734.635 4253.7 687.962C4212.47 626.112 4156.39 570.866 4099.51 521.093C4071.84 496.873 4035.54 487.893 4006.58 466.174C4022.76 449.998 4064.72 454.154 4086.84 451.388C4149.72 443.528 4215.96 380.495 4262.15 339.438C4273.48 329.366 4298.23 309.186 4302.28 292.968C4311.25 257.08 4210.38 304.316 4238.92 267.621C4268.69 229.337 4308.94 183.957 4321.29 134.548C4325.95 115.898 4325.54 88.0215 4333.96 71.1797C4344.16 50.7753 4345.31 21.2765 4327.62 3.58708C4312.57-11.4646 4290.22 24.7979 4274.82 39.4956C4250.5 62.7106 4220.52 81.7969 4192.45 98.6391C4143.37 128.091 4097.67 160.343 4046.71 189.467C4005.09 213.25 3957.28 223.623 3915.76 244.386C3910.44 247.046 3894.57 242.818 3888.3 244.386C3883.93 245.479 3882.23 252.371 3877.74 252.835C3850.84 255.618 3810.81 249.836 3782.7 254.947C3703.14 269.412 3632.38 250.395 3548.25 244.386C3411.88 234.644 3274.53 226.247 3138.5 244.386C3091.41 250.665 3048.63 254.18 3003.32 265.508C2964.83 275.13 2930.66 292.968 2891.38 292.968C2834.5 292.968 2761.18 285.701 2709.73 284.519C2692.12 284.114 2674.53 283.265 2656.93 282.406C2637.96 281.481 2577.31 278.818 2564 265.508Z" fill="#8b2f62" fill-rule="nonzero" opacity="1" stroke="none"/>
<path d="M4034.04 1682.84C3991.72 1725.16 3920.35 1741.03 3871.41 1773.67C3881.02 1783.29 3883.9 1773.41 3894.64 1788.45C3909.51 1809.28 3905 1835.69 3945.33 1832.81C3967.34 1831.24 3989.06 1780.67 4006.58 1788.45C4033.45 1800.4 4035.22 1830.85 4050.94 1849.71C4115.9 1927.67 4138.66 2011.23 4154.43 2113.74C4162.76 2167.88 4169.22 2218.82 4169.22 2272.16C4169.22 2303.34 4158.55 2336.32 4154.43 2367.21C4143.2 2451.43 4129.99 2534.37 4120.64 2618.57C4114.63 2672.6 4119.3 2725.31 4114.3 2779.11C4113.93 2783.07 4107.83 2784.1 4105.85 2787.56C4095.8 2805.14 4092.67 2838.99 4086.84 2859.37C4078 2890.33 4061.89 2917.73 4048.82 2943.86C4035.49 2970.53 4032.46 3004.94 4017.14 3030.47C4000.91 3057.52 3962.86 3065.15 3941.11 3083.27C3901.89 3115.95 3854.25 3142.55 3808.04 3165.65C3770.88 3184.23 3730.27 3212.64 3689.76 3224.8C3548.99 3267.03 3405.58 3290.59 3252.55 3283.94C3207.91 3282 3147.11 3267.68 3104.7 3252.26C3087.47 3245.99 3067.55 3230.72 3049.79 3224.8C2987.09 3203.9 2923.08 3172.01 2872.37 3121.29C2817.51 3066.44 2789.93 3006.08 2749.86 2945.98C2728.98 2914.65 2708.76 2883.91 2697.06 2848.81C2688.24 2822.35 2691.83 2801.52 2686.5 2774.88C2685.72 2770.98 2679.53 2770.13 2678.05 2766.43C2674.17 2756.72 2673.83 2717.85 2673.83 2711.51C2673.83 2684.61 2684.52 2655.72 2688.61 2629.14C2697.58 2570.84 2704.68 2512.74 2707.62 2453.82C2708.74 2431.43 2713.21 2391.7 2707.62 2369.33C2697.59 2329.2 2700.44 2276.35 2697.06 2234.14C2690.93 2157.44 2682.28 2088.79 2682.28 2010.24C2682.28 1957.06 2725.78 1910.13 2737.19 1864.5C2738.54 1859.09 2748.19 1856.88 2751.98 1853.93C2764.93 1843.86 2775.61 1827.85 2792.11 1826.47C2809 1825.07 2830.81 1834.24 2842.8 1822.25C2829.82 1809.27 2806.13 1820.05 2787.88 1818.03C2776.34 1816.74 2696.7 1785.25 2694.95 1780C2667.73 1780 2641.12 1779.77 2614.69 1773.67C2608.43 1772.22 2595.27 1758.28 2587.23 1763.11C2552.89 1783.71 2525 1884.89 2511.19 1919.41C2504.61 1935.86 2493.46 1961.69 2498.52 1978.56C2503.77 1996.06 2526.37 2013.99 2536.54 2029.25C2550.11 2049.61 2558.96 2077.91 2568.22 2101.07C2575.32 2118.83 2573.62 2142.15 2578.78 2160.21C2615.83 2289.89 2621.59 2430.52 2599.9 2567.88C2599.25 2572.03 2589.93 2577.7 2589.34 2582.67C2581.95 2645.53 2574.35 2711.57 2557.66 2772.77C2547.97 2808.32 2521.51 2844.69 2517.53 2880.5C2513.23 2919.21 2518.34 2964.33 2523.87 3003.01C2525.16 3012.06 2536.18 3021.45 2538.65 3032.58C2554.97 3106.01 2584.83 3167.34 2627.36 3231.13C2664.89 3287.43 2706.43 3346.12 2754.09 3393.78C2811 3450.7 2903.97 3534.58 2984.31 3547.97C3018.66 3553.7 3047.9 3582.76 3081.47 3590.22C3117.52 3598.23 3158.33 3604.76 3193.41 3619.79C3218.12 3630.38 3267.61 3627.9 3292.68 3628.24C3390.54 3629.56 3488.4 3630.35 3586.27 3630.35C3608.61 3630.35 3634.55 3618.32 3653.86 3615.57C3702.92 3608.56 3757.09 3609.06 3801.7 3592.33C3858.63 3570.98 3905.7 3540.49 3960.11 3507.84C3980.56 3495.57 4005.03 3490.56 4023.48 3478.27C4116.23 3416.43 4194.02 3331.3 4251.59 3235.36C4280.64 3186.93 4309.05 3139.22 4329.74 3087.5C4335.2 3073.85 4347.37 3056.81 4348.75 3041.03C4354.86 2970.77 4329.48 2903.67 4321.29 2834.03C4311.32 2749.31 4312.84 2663.47 4312.84 2578.44C4312.84 2534.48 4324.28 2494.67 4333.96 2455.93C4339.83 2432.46 4327.7 2424.82 4325.51 2407.35C4321.95 2378.81 4319.84 2355.08 4312.84 2327.08C4277.23 2184.63 4212.59 2060.11 4167.1 1923.64C4162.11 1908.67 4113.66 1805.99 4122.75 1796.9C4106.58 1772.65 4104.42 1732.1 4082.62 1710.3C4057.23 1731.45 4049.09 1697.89 4034.04 1682.84Z" fill="#cf7161" fill-rule="nonzero" opacity="1" stroke="none"/>
<path d="M4207.23 992.128C4207.23 1007.52 4149.62 1064.14 4143.87 1066.06C4143.87 1078.9 4135.14 1085.53 4129.08 1095.63C4107.17 1132.15 4087 1171.36 4067.83 1209.69C4064.69 1215.99 4054.08 1223.61 4053.05 1230.81C4048 1266.18 4046.74 1307.15 4040.38 1342.76C4039.68 1346.69 4034.14 1347.9 4031.93 1351.21C4028.56 1356.27 4027.7 1403.66 4027.7 1408.25C4027.7 1659.7 4110.88 1851.37 4308.62 2018.69C4350.4 2054.05 4396.63 2088.05 4443.79 2111.63C4459.07 2119.27 4474.72 2135.56 4492.37 2139.09C4506.5 2141.92 4519.18 2153.94 4532.5 2155.99C4556.46 2159.67 4579.98 2160.2 4602.2 2166.55C4615.81 2170.44 4605.78 2194.66 4606.43 2208.79C4607.1 2223.65 4621.1 2232.48 4631.77 2240.48C4647.4 2224.85 4646.57 2161.27 4650.78 2160.21C4658.32 2158.33 4666.42 2159.79 4674.01 2158.1C4689.68 2154.62 4685.71 2152.9 4693.02 2160.21C4711.34 2144.51 4732.44 2137.45 4752.16 2124.3C4794.25 2096.24 4836.12 2053.12 4868.33 2014.47C4903.38 1972.41 4935.86 1916.39 4954.93 1868.72C4960.35 1855.16 4961.18 1835.04 4969.71 1822.25C4976.57 1811.96 4983.14 1819.38 4990.83 1811.69C4986.61 1807.46 4986.61 1807.46 4982.38 1803.24C4999.46 1769.09 5002.67 1726.34 5011.95 1689.18C5019.72 1658.13 5032.43 1624.22 5033.08 1592.01C5034.41 1525.84 5035.19 1459.65 5035.19 1393.46C5035.19 1381.06 5027.68 1376.6 5026.74 1368.11C5022.69 1331.66 5018 1300.56 5007.73 1264.61C5005.49 1256.78 4996.18 1246.01 4995.06 1239.26C4990.24 1210.37 4980.79 1200.17 4967.6 1173.78C4935.15 1108.89 4901.71 1052.98 4847.21 998.465C4787.26 938.515 4640.1 873.787 4555.73 871.729C4520.7 870.875 4439.97 870.47 4403.66 888.627C4390.08 895.419 4372.89 905.827 4357.19 909.75C4346.86 912.333 4335.38 910.164 4325.51 916.087C4288.87 938.073 4248.32 978.433 4207.23 992.128Z" fill="#fdb926" fill-rule="nonzero" opacity="1" stroke="none"/>
<path d="M4756.39 939.322C4763.16 946.1 4773.55 943.339 4781.73 949.883C4810.29 972.727 4840.15 995.633 4866.22 1021.7C4913.74 1069.23 4928.88 1122.04 4963.38 1173.78C4973.63 1189.17 4986.53 1205.16 4990.83 1222.37C4997.05 1247.24 5001.13 1276.51 5009.84 1302.63C5012.5 1310.59 5021.61 1326.2 5022.52 1334.32C5033.47 1432.96 5039.41 1539.22 5022.52 1640.59C5016.67 1675.65 5007.36 1716.47 4997.17 1750.43C4993.86 1761.47 4972.84 1791.27 4978.16 1803.24C4995.52 1842.3 5044.36 1830.16 5075.32 1837.04C5079.57 1837.98 5087.03 1855.08 5090.1 1858.16C5115.6 1832.66 5147.34 1842.08 5185.15 1837.04C5226.04 1831.58 5291.63 1811.03 5324.55 1786.34C5393.33 1734.75 5465.32 1692.03 5529.43 1627.92C5604.56 1552.78 5664.95 1446.04 5700.51 1351.21C5739.34 1247.67 5741.29 1128.19 5738.53 1017.48C5737.91 992.936 5727.06 959.523 5721.63 935.097C5680.19 748.622 5517.51 618.031 5328.77 586.573C5268.16 576.469 5189.45 574.579 5128.12 595.022C5027.19 628.668 4932.29 686.484 4857.77 774.565C4836.35 799.877 4818.62 828.009 4800.74 854.831C4784.79 878.765 4778.69 917.015 4756.39 939.322Z" fill="#f8305a" fill-rule="nonzero" opacity="1" stroke="none"/>
<path d="M2809 561.226C2684.77 568.733 2552.2 635.21 2485.85 751.33C2374.12 946.861 2391.1 1251.43 2597.79 1389.23C2673.23 1439.53 2765.51 1465.9 2863.92 1463.16C2969.18 1460.24 3116.35 1364.3 3174.4 1273.06C3183.19 1259.24 3186.57 1235.24 3193.41 1218.14C3199.39 1203.18 3225.09 1176.58 3225.09 1161.11C3225.09 1141.1 3240.75 1110.35 3248.33 1091.41C3255.67 1073.05 3251.45 1052 3252.55 1032.26C3255.78 974.099 3251.96 912.193 3233.54 856.943C3188.91 723.031 3065.7 600.436 2927.28 569.675C2890.12 561.416 2846.59 558.954 2809 561.226Z" fill="#fdfbf7" fill-rule="nonzero" opacity="1" stroke="none"/>
<path d="M2418.26 1959.55C2316.16 1968.75 2251.73 2035.1 2196.49 2117.97C2188.66 2129.72 2178.95 2141.64 2175.37 2155.99C2172.44 2167.68 2158.15 2178.06 2154.24 2189.78C2149.06 2205.33 2145.56 2224.05 2137.35 2240.48C2114.06 2287.05 2113.25 2345.83 2105.67 2398.9C2064.3 2688.44 2168.85 2923.35 2268.3 3171.99C2308.75 3273.13 2376.83 3392.74 2462.62 3461.37C2475.92 3472.02 2513.59 3471.93 2523.87 3471.93C2565.71 3471.93 2616.16 3413.14 2623.14 3374.77C2628.96 3342.72 2604.74 3313.23 2595.68 3286.05C2581.34 3243.03 2565.16 3194.49 2551.32 3152.98C2546.31 3137.93 2549.96 3111.66 2547.1 3098.06C2532.79 3030.08 2517.92 2953.28 2521.75 2880.5C2523.6 2845.44 2553.17 2809.73 2561.89 2774.88C2577.21 2713.57 2582.5 2645.37 2593.57 2582.67C2594.32 2578.37 2603.59 2573.02 2604.13 2567.88C2611.34 2499.38 2618.91 2427.83 2618.91 2358.77C2618.91 2331.55 2608.95 2302.89 2606.24 2278.5C2601.3 2234.04 2594.17 2196.91 2583.01 2155.99C2578.25 2138.54 2581.1 2118.38 2572.45 2101.07C2568.99 2094.16 2560.05 2082.89 2557.66 2075.72C2547.27 2044.56 2531.34 1999.66 2498.52 1978.56C2488.09 1971.85 2433.55 1958.17 2418.26 1959.55Z" fill="#02aac5" fill-rule="nonzero" opacity="1" stroke="none"/>
<path d="M3715.11 544.328C3489 557.208 3313.8 766.127 3313.8 994.241C3313.8 1043.53 3329.6 1099.77 3351.82 1144.21C3360.48 1161.53 3378.79 1178.17 3383.5 1197.02C3393.51 1237.03 3408.69 1279.24 3438.42 1308.97C3519.76 1390.32 3628.39 1414.58 3742.57 1414.58C3867.64 1414.58 3977.15 1310.94 4061.5 1226.59C4077.33 1210.76 4085.01 1181.76 4097.4 1161.11C4112.07 1136.67 4138.9 1104.94 4145.98 1076.62C4147.72 1069.68 4147.91 1062.74 4148.09 1055.5C4148.74 1030.15 4149.54 1004.8 4150.21 979.455C4151.58 927.175 4143.12 851.491 4120.64 802.024C4073.01 697.25 3958.23 589.957 3850.28 559.114C3806.64 546.642 3763.02 541.598 3715.11 544.328Z" fill="#fdfbf7" fill-rule="nonzero" opacity="1" stroke="none"/>
<path d="M4840.87 2037.7C4829.99 2048.58 4821.24 2061.3 4809.19 2071.5C4790.95 2086.93 4773.15 2108.08 4752.16 2120.08C4739.54 2127.29 4700.81 2140.42 4695.14 2151.76C4693.85 2154.34 4696.73 2160.77 4697.25 2162.32C4708.05 2162.32 4748.56 2190.65 4741.6 2204.57C4735.09 2217.6 4648.22 2242.46 4633.88 2238.37C4603.66 2229.73 4614.01 2187.99 4610.65 2168.66C4609.46 2161.83 4521.09 2145.64 4513.49 2147.54C4493.76 2152.47 4473.62 2182.95 4460.69 2198.23C4413.54 2253.96 4383.65 2316.41 4352.97 2377.78C4341.68 2400.35 4339.96 2425.71 4333.96 2451.71C4332.51 2457.98 4322.68 2466.55 4321.29 2472.83C4314.42 2503.76 4311.41 2542.72 4310.73 2576.33C4309.48 2638.28 4308.62 2700.25 4308.62 2762.21C4308.62 2823.72 4318.41 2903.54 4338.19 2962.87C4351.9 3004.03 4370.55 3052.16 4376.2 3091.72C4379.3 3113.42 4424.31 3192.65 4420.56 3205.79C4417.71 3215.74 4397.78 3215 4397.33 3226.91C4395.74 3268.02 4401.08 3294.73 4410 3330.41C4428.46 3404.26 4420.14 3488.67 4473.36 3550.08C4529.2 3614.52 4640.11 3579 4663.45 3497.28C4673.65 3461.58 4682.53 3423.14 4684.57 3385.33C4685.56 3367.03 4686.69 3348.73 4686.69 3330.41C4686.69 3330.32 4681.87 3306.34 4686.69 3300.84C4707.86 3276.64 4724.95 3265.01 4741.6 3241.69C4791.53 3171.8 4823.02 3084.04 4849.32 3005.12C4860.81 2970.65 4885.02 2916.2 4857.77 2888.95C4855.66 2891.06 4855.66 2891.06 4853.54 2893.17C4836.19 2881.6 4846.08 2831.35 4821.86 2819.24C4808.61 2812.61 4777.05 2840.92 4764.84 2844.59C4753.35 2848.03 4740.92 2846.7 4728.93 2846.7C4708.54 2846.7 4674.42 2851.13 4652.89 2840.36C4589.08 2808.45 4604.7 2732.25 4646.56 2690.39C4631.09 2671.83 4617.69 2680.36 4600.09 2667.16C4571.44 2645.67 4559.96 2602.57 4559.96 2567.88C4559.96 2500.59 4629.69 2469.01 4678.24 2449.59C4715.69 2434.61 4737.55 2383.94 4764.84 2356.65C4801.85 2319.64 4864.04 2339.72 4902.12 2358.77C4920.93 2339.95 4910.76 2305.72 4908.46 2282.72C4903.13 2229.38 4889.55 2183.75 4872.55 2132.75C4870.09 2125.38 4873.33 2116.74 4870.44 2109.52C4868 2103.41 4859.61 2099.97 4857.77 2092.62C4853.66 2076.17 4852.77 2049.6 4840.87 2037.7Z" fill="#02aac5" fill-rule="nonzero" opacity="1" stroke="none"/>
<path d="M3275.78 827.372C3267.66 819.248 3265.8 797.132 3261 785.126C3246 747.614 3229.34 712.066 3206.08 679.513C3123.52 563.915 3015.89 495.712 2895.6 455.612C2822.3 431.177 2735.37 444.063 2665.38 464.061C2353.36 553.216 2248.57 925.184 2331.66 1216.03C2376.61 1373.35 2500.83 1513.96 2644.26 1585.68C2684.59 1605.84 2731.88 1620.7 2775.21 1627.92C2790.49 1630.47 2824.02 1626.04 2834.35 1636.37C2854.79 1615.93 2892.05 1632.75 2920.95 1632.15C2940.81 1631.73 2969.78 1625.4 2988.54 1617.36C3075.04 1580.28 3176.33 1522.86 3210.31 1420.92C3214.02 1409.77 3199.87 1402.4 3197.64 1393.46C3193.64 1377.48 3192.96 1365.21 3184.96 1351.21C3172.53 1329.46 3186.27 1289.16 3168.07 1270.95C3144.3 1294.71 3118.75 1328.71 3094.14 1353.33C3034.41 1413.07 2942.44 1454.45 2863.92 1458.94C2723.22 1466.98 2595.47 1407.38 2509.08 1296.3C2493.42 1276.15 2468.99 1243.64 2462.62 1218.14C2457.63 1198.2 2448.24 1172.48 2439.38 1154.77C2426.53 1129.07 2430.51 1088.41 2426.71 1061.83C2412.32 961.105 2432.04 838.391 2490.07 751.33C2579.51 617.162 2745.85 540.525 2906.16 569.675C2946.38 576.988 2985.95 600.184 3024.44 609.808C3066.38 620.294 3123.9 687.186 3146.94 713.309C3246.8 826.49 3287.54 1021.41 3218.76 1159C3222.98 1163.22 3222.98 1163.22 3227.21 1167.45C3251.49 1151.25 3291.66 1144.71 3322.25 1146.32C3333.27 1146.9 3349.67 1156.92 3358.16 1148.44C3256.76 945.623 3370.02 662.093 3579.93 578.124C3612.24 565.199 3648.91 559.82 3683.43 554.889C3739.42 546.889 3824.99 547.524 3877.74 573.899C3965.43 617.745 4080.58 703.491 4116.41 802.024C4123.18 820.627 4125.54 845.608 4131.2 865.392C4148.42 925.685 4147.57 991.386 4145.98 1053.38C4145.63 1067.21 4139.26 1057.23 4150.21 1068.17C4170.52 1047.85 4204.36 1024.76 4211.46 996.353C4233.13 909.649 4204.7 820.338 4160.77 747.105C4061.15 581.069 3935.24 430.265 3729.89 430.265C3569.04 430.265 3420.36 518.094 3334.92 660.502C3313.01 697.036 3294.7 751.794 3286.35 793.575C3283.69 806.845 3285.55 817.606 3275.78 827.372Z" fill="#fab681" fill-rule="nonzero" opacity="1" stroke="none"/>
<path d="M3309.58 4025.35C3367.26 4083.03 3327.76 4247.13 3231.43 4247.13C3196.32 4247.13 3202.38 4209.63 3187.08 4194.33C3181.44 4197.14 3184.26 4197.14 3178.63 4194.33C3163.94 4209.01 3170.15 4244.36 3155.39 4264.03C3106.43 4329.32 3018.46 4296.26 2980.09 4238.68C2965.96 4251.8 2947.76 4271.47 2929.4 4278.82C2903.94 4289 2881.38 4280.36 2859.7 4302.05C2876.7 4319.06 2909.92 4311.8 2933.62 4312.61C2995.01 4314.73 3052.15 4314.73 3113.15 4314.73C3129.5 4314.73 3147.42 4306.75 3159.62 4318.95C3172.73 4305.84 3193.42 4318.88 3203.97 4318.95C3428.56 4320.35 3653.16 4320.35 3877.74 4318.95C3930.56 4318.62 3983.37 4316.81 4036.15 4314.73C4061.58 4313.72 4100.51 4304.16 4129.08 4304.16C4307.2 4304.16 4491.66 4296.49 4669.79 4283.04C4765.94 4275.78 4875.06 4251.31 4969.71 4240.8C5042.6 4232.7 5114.23 4221.68 5185.15 4213.34C5226.73 4208.45 5283.31 4203.86 5320.33 4181.65C5370.02 4151.83 5267.72 4131.32 5244.29 4124.62C5164.27 4101.76 5069.18 4083.94 4982.38 4078.15C4957.31 4076.48 4913.02 4065.14 4893.68 4084.49C4894.73 4086.6 4894.73 4086.6 4895.79 4088.71C4891.56 4092.94 4891.56 4092.94 4887.34 4097.16C4876.7 4091.84 4854.71 4104.57 4849.32 4086.6C4847.24 4079.68 4862.59 4064.97 4851.43 4061.25C4822.64 4051.65 4783.98 4057.35 4752.16 4052.8C4621.06 4034.07 4479.47 4033.22 4344.52 4029.57C4298.72 4028.33 4252.51 4027.46 4207.23 4027.46C4193.21 4027.46 4172.53 4019.92 4160.77 4031.68C4166.74 4037.66 4167.68 4052.14 4171.33 4061.25C4184.56 4094.34 4198.78 4116.22 4198.78 4156.31C4198.78 4188.25 4160.53 4232.05 4129.08 4228.12C4119.28 4226.9 4109.59 4216.53 4101.63 4211.22C4078.76 4234.09 4089.56 4270.37 4042.49 4270.37C4014.11 4270.37 3975.15 4227.01 3968.56 4200.66C3966.92 4194.11 3957.16 4150.39 3945.33 4156.31C3938.28 4159.83 3938.86 4187.51 3936.88 4196.44C3929.41 4230.08 3900.25 4259.81 3865.07 4259.81C3841.01 4259.81 3805.41 4215.5 3799.59 4192.21C3796.55 4180.05 3802.66 4135.76 3786.92 4143.63C3777.64 4148.27 3781.33 4176.27 3780.58 4183.77C3778.16 4207.96 3740.02 4248.15 3721.44 4255.58C3679.09 4272.53 3647.39 4222.12 3641.18 4187.99C3632.2 4138.56 3638.57 4091.42 3670.75 4052.8C3678.1 4043.99 3697.46 4033.18 3702.43 4023.23C3692.88 4013.67 3545.01 4014.92 3535.58 4014.78C3489.11 4014.11 3442.65 4012.67 3396.18 4012.67C3374.66 4012.67 3319.68 4005.14 3309.58 4025.35Z" fill="#836d90" fill-rule="nonzero" opacity="1" stroke="none"/>
<path d="M3723.56 738.656C3579.59 739.71 3466.59 780.875 3417.3 928.76C3373.25 1060.9 3444.73 1222.35 3571.48 1285.73C3593.33 1296.66 3609.85 1309.97 3636.96 1311.08C3670.03 1312.43 3703.14 1313.87 3736.23 1313.19C3740.21 1313.11 3765.31 1308.27 3770.02 1306.86C3846.49 1283.91 3923.67 1215 3960.11 1142.1C4012.95 1036.42 3988.46 911.186 3915.76 825.259C3902.58 809.676 3882.87 786.756 3862.96 778.789C3842.41 770.569 3812.79 749.811 3791.14 747.105C3765.22 743.865 3750.11 738.462 3723.56 738.656Z" fill="#f98d3b" fill-rule="nonzero" opacity="1" stroke="none"/>
<path d="M4350.86 2992.45C4339.86 3003.44 4347.34 3023.38 4346.63 3038.92C4345.92 3054.64 4331.14 3085.16 4323.4 3098.06C4274.17 3180.12 4236.87 3272.52 4169.22 3345.19C4090.87 3429.35 4006.88 3485.51 3907.31 3535.3C3871.75 3553.08 3840.6 3576.99 3801.7 3588.11C3646.34 3632.5 3455.3 3626.13 3294.79 3626.13C3257.53 3626.13 3223.56 3615.68 3191.3 3609.23C3062.13 3583.39 2950.05 3541 2838.57 3461.37C2737.86 3389.43 2642.75 3272.48 2587.23 3161.43C2574.39 3135.74 2564.08 3104.63 2555.55 3079.05C2548.32 3057.37 2549.54 3022.35 2532.32 3005.12C2510.91 3026.53 2538.6 3079.48 2542.88 3102.28C2545.87 3118.24 2540.29 3137.08 2547.1 3152.98C2564.2 3192.89 2577.02 3242.73 2591.45 3286.05C2597.66 3304.67 2632.66 3361.02 2614.69 3378.99C2624.94 3389.25 2628.61 3383.2 2640.03 3395.89C2652.28 3409.49 2655.7 3424.23 2669.6 3438.13C2709.79 3478.33 2749.19 3515.75 2792.11 3550.08C2837.16 3586.13 2895.74 3609.74 2944.18 3638.8C2955.77 3645.75 2973.29 3647.83 2984.31 3655.7C3010.86 3674.67 2984.12 3706.2 3005.43 3727.52C3007.54 3725.4 3007.54 3725.4 3009.66 3723.29C3002.59 3709.15 2997.16 3669.18 3011.77 3666.26C3023.26 3663.96 3063.9 3683.88 3070.91 3687.38C3086.88 3695.37 3116.93 3691.82 3132.16 3695.83C3136.01 3696.85 3136.83 3703.02 3140.61 3704.28C3172.11 3714.78 3211.86 3707.28 3244.1 3716.95C3261.6 3722.2 3239.54 3752.53 3252.55 3765.54C3262.71 3755.38 3254.41 3719.81 3269.45 3719.07C3377 3713.78 3480.82 3732.57 3588.38 3725.4C3625.49 3722.93 3695.37 3702.9 3727.78 3710.62C3743.14 3714.28 3738.98 3736.6 3746.79 3744.41C3754.29 3736.92 3744.63 3718.59 3755.24 3716.95C3802.52 3709.68 3838.96 3707.02 3879.85 3689.49C3886.03 3686.85 3894.54 3689.87 3900.97 3685.27C3912.53 3677.02 3941.84 3658.06 3953.78 3662.04C3953.78 3685.15 3948.8 3678.18 3958 3687.38C3972.09 3673.3 3955.79 3655.8 3970.68 3640.91C3987.2 3624.38 4051.99 3604.47 4076.28 3592.33C4172 3544.47 4260.03 3461.38 4336.07 3385.33C4353.16 3368.24 4372.87 3353.37 4386.76 3332.52C4399.39 3338.84 4396.41 3321.05 4410 3334.63C4412.11 3332.52 4412.11 3332.52 4414.22 3330.41C4401.17 3304.3 4401.55 3254.39 4401.55 3226.91C4401.55 3216.67 4420.72 3215 4424.78 3207.9C4429.16 3200.25 4413.57 3172.79 4410 3165.65C4392.13 3129.92 4375.84 3085.18 4365.64 3049.48C4361.02 3033.29 4363.47 3005.06 4350.86 2992.45Z" fill="#8b2f62" fill-rule="nonzero" opacity="1" stroke="none"/>
<path d="M2821.68 766.116C2823.79 768.228 2823.79 768.228 2825.9 770.34C2775.63 820.613 2716.47 832.059 2671.72 899.189C2661.95 889.419 2650.4 880.803 2640.03 871.729C2574.9 915.156 2576.17 1062.94 2604.13 1118.86C2661.78 1234.17 2756.57 1309.22 2891.38 1289.96C2934.07 1283.86 2980.73 1278.39 3015.99 1251.94C3132.21 1164.77 3190.66 1008.67 3111.04 875.954C3058.94 789.113 2975.52 753.165 2882.93 759.779C2862.45 761.242 2836.19 751.601 2821.68 766.116Z" fill="#f98d3b" fill-rule="nonzero" opacity="1" stroke="none"/>
<path d="M2737.19 4042.24C2744.85 4049.9 2752.77 4043.03 2760.43 4050.69C2732.71 4078.41 2734.54 4121.42 2751.98 4156.31C2756.47 4165.28 2775.44 4196.32 2783.66 4192.21C2791.41 4188.34 2845.74 4095.92 2853.36 4084.49C2855.47 4086.6 2855.47 4086.6 2857.58 4088.71C2834.36 4135.17 2814.71 4166.22 2819.56 4219.67C2820.67 4231.81 2843.08 4253.75 2849.13 4259.81C2890.99 4301.66 2978.34 4220.18 2996.98 4192.21C3008.91 4204.15 3009.43 4223.09 3020.22 4236.57C3062.25 4289.12 3097.9 4283.51 3142.72 4238.68C3158.34 4223.06 3151.14 4196.47 3165.95 4181.65C3171.86 4187.56 3170.17 4194.32 3176.51 4200.66C3181.98 4197.93 3183.72 4197.93 3189.19 4200.66C3192.36 4197.5 3192.36 4197.5 3195.52 4194.33C3206.82 4202.8 3213.93 4219.47 3227.21 4223.9C3265.35 4236.61 3276.37 4215.25 3307.47 4204.89C3307.47 4196.22 3317.98 4192.41 3320.14 4183.77C3332.55 4134.11 3363.45 4070.77 3320.14 4027.46C3323.31 4024.29 3323.31 4024.29 3326.48 4021.12C3302.48 3997.12 3253.93 3993.33 3220.87 3989.44C3218.91 3989.21 3212.64 3984.93 3212.42 3983.1C3207.03 3937.28 3225.25 3879.06 3237.77 3835.24C3240.64 3825.2 3247.53 3799.07 3235.65 3795.11C3216.24 3788.64 3194.87 3799.33 3174.4 3799.33C3148.35 3799.33 3121.51 3792.27 3096.25 3786.66C3078.52 3782.72 3014.87 3746.34 3007.54 3763.42C3001.74 3776.97 3010.5 3797.43 3011.77 3812.01C3016.07 3861.43 3021.87 3910.66 3026.55 3959.86C3026.86 3963.03 3037.78 4006.24 3022.33 4008.45C2967.91 4016.22 2906.1 3993.66 2851.25 3993.66C2825.61 3993.66 2794.93 4021.96 2775.21 4033.79C2763.56 4040.78 2747.95 4031.49 2737.19 4042.24Z" fill="#f57420" fill-rule="nonzero" opacity="1" stroke="none"/>
<path d="M2868.14 4306.28C2867.09 4304.16 2867.09 4304.16 2866.03 4302.05C2873.48 4294.6 2871.03 4298.39 2874.48 4291.49C2868.22 4285.23 2861.37 4287.05 2853.36 4283.04C2839.78 4276.25 2831.26 4259.71 2819.56 4251.36C2812.65 4246.42 2787.27 4261.61 2775.21 4255.58C2699.15 4217.55 2728.86 4094.49 2768.87 4046.47C2757.46 4035.05 2709.51 4041.41 2694.95 4042.24C2637.67 4045.52 2578.69 4044.59 2521.75 4050.69C2365.93 4067.39 2212.88 4091.48 2063.42 4128.85C2046.93 4132.97 1934.13 4164.69 1940.92 4181.65C1946.8 4196.35 1999.69 4209.01 2014.84 4213.34C2097.25 4236.88 2183.61 4241.47 2268.3 4255.58C2346.63 4268.64 2435.44 4280.75 2513.31 4283.04C2597.96 4285.53 2682.47 4305.53 2766.76 4308.39C2799.14 4309.49 2831.53 4311.18 2863.92 4310.5C2865.91 4310.46 2866.74 4307.69 2868.14 4306.28Z" fill="#a08ab5" fill-rule="nonzero" opacity="1" stroke="none"/>
<path d="M4707.81 2415.8C4707.81 2441.97 4628.22 2462.29 4608.54 2477.05C4547.24 2523.03 4540.34 2613.74 4593.75 2667.16C4608.2 2681.6 4628.88 2674.83 4642.33 2688.28C4610.97 2735.32 4571.62 2812.08 4652.89 2844.59C4675.59 2853.67 4703.51 2848.81 4726.82 2848.81C4743.25 2848.81 4750.84 2854.18 4766.95 2848.81C4796.58 2838.93 4891.75 2787.09 4904.24 2755.87C4916.85 2724.33 4893.19 2698.66 4900.01 2671.38C4902.97 2659.56 4924.4 2650.64 4931.69 2639.7C4957.98 2600.26 4941.55 2565.07 4910.57 2534.08C4901.34 2524.85 4886.94 2529.46 4878.89 2521.41C4895.02 2501.25 4921.4 2485.88 4931.69 2460.15C4963.07 2381.71 4865.41 2311.86 4794.41 2335.53C4774.87 2342.04 4750.42 2362.5 4737.38 2379.89C4728.62 2391.56 4722.37 2410.94 4707.81 2415.8Z" fill="#ee5d32" fill-rule="nonzero" opacity="1" stroke="none"/>
<path d="M3968.56 3759.2C3936.89 3790.87 3809.19 3813.16 3778.47 3782.43C3765.9 3790.82 3776.14 3801.87 3770.02 3814.12C3773.19 3817.29 3773.19 3817.29 3776.36 3820.46C3769.93 3833.32 3784.54 3851.46 3789.03 3862.7C3796.46 3881.27 3831.3 3968.1 3829.16 3985.21C3827.14 4001.42 3796.9 3990.92 3780.58 3991.55C3757.93 3992.42 3707.08 4003.8 3691.87 4019.01C3693.99 4021.12 3693.99 4021.12 3696.1 4023.23C3645.33 4074 3622.21 4120.48 3658.08 4192.21C3667.04 4210.13 3684.59 4243.15 3710.88 4236.57C3752.89 4226.07 3763.17 4161.85 3795.37 4145.74C3808.29 4158.67 3811.75 4185.36 3827.05 4200.66C3859.07 4232.68 3906.18 4210.9 3922.1 4171.09C3927.51 4157.57 3930.78 4134.94 3941.11 4124.62C3970.98 4154.5 3983.01 4283.37 4059.38 4207C4063.6 4202.78 4070.88 4187.52 4072.06 4181.65C4075.11 4166.39 4075.16 4148.1 4078.39 4135.18C4084.08 4112.42 4061.15 4087.64 4067.83 4067.59C4092.58 4092.34 4084.7 4133.73 4105.85 4158.42C4158.01 4219.28 4181.89 4146.3 4181.89 4099.27C4181.89 4078.54 4161.33 4039.76 4179.78 4027.46C4173.23 4020.91 4169.74 4027 4162.88 4021.12C4113.03 3978.39 4127.84 3976.76 4059.38 3976.76C4046.16 3976.76 4016.5 3993.38 4006.58 3980.99C3998.13 3970.43 4002 3954.02 4000.24 3940.85C3996.02 3909.14 3988.09 3778.73 3968.56 3759.2Z" fill="#f57420" fill-rule="nonzero" opacity="1" stroke="none"/>
<path d="M4055.16 1228.7C4032.89 1239.84 4005.3 1278.57 3989.68 1294.18C3963.13 1320.74 3913.41 1360.45 3877.74 1372.34C3849.82 1381.64 3818.86 1396.1 3791.14 1404.02C3668 1439.21 3516.47 1382.8 3429.97 1296.3C3414.14 1280.47 3417.7 1256.56 3404.62 1243.49C3396.6 1251.52 3401.81 1266.02 3400.4 1277.28C3396.21 1310.85 3396.87 1344.85 3396.18 1378.67C3396.02 1386.39 3387.73 1394.9 3387.73 1401.91C3387.73 1440.39 3448.35 1492.6 3474.32 1513.86C3576.34 1597.33 3822.67 1603.54 3924.21 1522.31C3954.08 1498.41 4011.67 1478.42 4027.7 1439.93C4034.99 1422.45 4032.42 1398.07 4034.04 1378.67C4035.61 1359.82 4043.31 1356.46 4044.6 1344.88C4048.11 1313.29 4043.98 1294.53 4050.94 1266.72C4053.68 1255.74 4063.67 1237.21 4055.16 1228.7Z" fill="#fab681" fill-rule="nonzero" opacity="1" stroke="none"/>
<path d="M3641.18 823.147C3449.97 840.531 3450.47 1120.73 3609.5 1184.34C3721.85 1229.29 3846.21 1158.34 3871.41 1044.94C3879.74 1007.4 3882.05 980.631 3862.96 951.995C3812.59 1002.36 3736.23 990.335 3736.23 909.75C3736.23 880.845 3758.87 868.591 3774.25 846.382C3775.14 845.088 3773.08 843.417 3772.13 842.157C3759.77 825.665 3719.83 827.033 3641.18 823.147Z" fill="#300926" fill-rule="nonzero" opacity="1" stroke="none"/>
<path d="M2694.95 949.883C2701.55 963.089 2690.73 1004.91 2690.73 1017.48C2690.73 1069.27 2723.33 1117.68 2758.31 1152.66C2776.67 1171.02 2818.25 1178.52 2840.69 1180.12C2875.62 1182.62 2919.97 1185.78 2950.52 1167.45C3043.77 1111.49 3090.23 949.389 2986.42 880.178C2958.54 908.065 2991.26 947.462 2950.52 983.679C2922.5 1008.58 2880.76 998.41 2855.47 973.118C2841.88 959.529 2847.02 935.305 2847.02 916.087C2847.02 892.553 2892.75 865.668 2889.27 856.943C2882.33 839.595 2824.76 845.821 2821.68 846.382C2770.8 855.634 2761.1 860.497 2720.29 901.301C2707.09 914.509 2708.2 936.63 2694.95 949.883Z" fill="#300926" fill-rule="nonzero" opacity="1" stroke="none"/>
<path d="M3229.32 1163.22C3226.15 1161.11 3226.15 1161.11 3222.98 1159C3198.01 1183.97 3168.07 1251.77 3168.07 1285.73C3168.07 1316.06 3182.23 1338.39 3189.19 1363.89C3211.49 1445.66 3250.78 1542.76 3309.58 1608.91C3331.21 1594.49 3341.42 1545.07 3349.71 1520.2C3361.76 1484.05 3376.82 1453.45 3383.5 1416.69C3384.73 1409.95 3394.52 1401.73 3396.18 1393.46C3403.14 1358.65 3398.88 1306.39 3400.4 1281.51C3401 1271.79 3407.4 1253.14 3404.62 1239.26C3402.23 1227.28 3362.98 1148.06 3356.05 1146.32C3322.72 1137.99 3256.49 1136.05 3229.32 1163.22Z" fill="#fdb926" fill-rule="nonzero" opacity="1" stroke="none"/>
<path d="M4120.64 1794.79C4099.71 1815.72 4149.96 1878.54 4156.54 1898.29C4161.5 1913.17 4163.93 1931.01 4169.22 1946.87C4208.55 2064.88 4267.16 2173.91 4298.06 2297.51C4307.74 2336.25 4313.94 2376.86 4325.51 2411.57C4330.27 2425.84 4321.99 2443.96 4333.96 2455.93C4342.77 2447.12 4336.53 2435.54 4340.3 2424.25C4351.86 2389.57 4365.61 2350.37 4384.65 2318.63C4416.47 2265.59 4451.25 2209.79 4496.6 2164.44C4506.09 2154.94 4514.3 2155.18 4521.94 2147.54C4507.43 2133.02 4480.38 2133.26 4462.8 2120.08C4430.89 2096.14 4391.52 2078.23 4357.19 2052.49C4295.93 2006.54 4239.97 1952.24 4188.22 1896.18C4160.37 1866 4144.83 1827.05 4120.64 1794.79Z" fill="#8b2f62" fill-rule="nonzero" opacity="1" stroke="none"/>
<path d="M3184.96 480.96C3191.68 474.246 3187.59 477.93 3197.64 470.398C3196.58 468.286 3196.58 468.286 3195.52 466.174C3220.66 441.033 3241.9 412.511 3280.01 417.592C3299.85 420.237 3304.98 456.38 3322.25 453.5C3338.22 450.838 3392.24 405.636 3406.74 394.357C3417.7 385.826 3506.11 341.763 3501.78 333.101C3493.04 315.621 3480.53 314.558 3463.76 311.978C3414.79 304.443 3401.66 367.886 3360.27 381.683C3347.78 385.847 3315.24 330.312 3307.47 322.54C3300.75 315.821 3280.17 316.203 3273.67 316.203C3253.55 316.203 3254.75 338.257 3248.33 347.887C3229.15 376.659 3208.73 394.091 3178.63 409.143C3168.99 413.96 3156.09 383.082 3151.17 377.459C3130.66 354.021 3084.69 314.356 3058.24 358.448C3050.31 371.66 3075.79 384.564 3083.58 390.132C3117.49 414.351 3162.25 446.888 3184.96 480.96Z" fill="#cf7161" fill-rule="nonzero" opacity="1" stroke="none"/>
<path d="M4063.61 4059.14C4050.19 4072.56 4076.34 4115.6 4074.17 4135.18C4068.66 4184.76 4045.53 4267.07 3981.24 4202.78C3958.25 4179.79 3964.29 4139.36 3941.11 4116.17C3913.39 4143.89 3923.46 4206.71 3869.29 4211.22C3847.71 4213.02 3838.8 4208.19 3822.83 4192.21C3808.17 4177.56 3809.44 4155.6 3795.37 4141.52C3759.55 4177.34 3842.37 4264.03 3879.85 4264.03C3887.12 4264.03 3897.98 4256 3903.09 4251.36C3914.96 4240.56 3932.54 4226.49 3936.88 4209.11C3940.24 4195.69 3939.37 4174.94 3949.55 4164.75C3963.48 4178.68 3962.45 4205.18 3974.9 4221.79C3991.74 4244.24 4034.42 4290.42 4067.83 4270.37C4094.21 4254.54 4086.45 4234.86 4103.74 4217.56C4116.7 4224.04 4124.96 4234.21 4141.76 4232.35C4207.41 4225.05 4218.7 4106.52 4177.66 4065.48C4171.98 4071.16 4174.85 4139.39 4169.22 4156.31C4159.3 4186.07 4126.97 4175.32 4110.08 4158.42C4101.84 4150.18 4101.38 4123.87 4097.4 4111.95C4090.98 4092.69 4078.2 4073.74 4063.61 4059.14Z" fill="#5a163b" fill-rule="nonzero" opacity="1" stroke="none"/>
<path d="M3009.66 3765.54C3017.39 3757.8 3089.85 3788.76 3111.04 3793C3145.46 3799.88 3181.6 3803.56 3216.65 3803.56C3221.77 3803.56 3226.4 3798.33 3231.43 3799.33C3242.24 3801.5 3232.22 3819.13 3239.88 3826.79C3249.96 3816.71 3258.82 3714.64 3248.33 3712.73C3216.77 3706.99 3175.17 3713.85 3144.83 3700.06C3141.21 3698.41 3140.29 3692.39 3136.38 3691.61C3122.56 3688.84 3107.7 3693.37 3094.14 3689.49C3080.47 3685.59 3019.76 3659.59 3007.54 3662.04C2988.85 3665.77 3002.61 3700.02 3003.32 3719.07C3003.82 3732.54 2998.86 3754.74 3009.66 3765.54Z" fill="#ca4a1e" fill-rule="nonzero" opacity="1" stroke="none"/>
<path d="M3772.13 3814.12C3779.26 3806.99 3770.49 3790.79 3780.58 3788.77C3787.75 3787.34 3800.57 3796.39 3808.04 3797.22C3826.78 3799.3 3854.49 3800.28 3873.52 3799.33C3915.21 3797.25 3939.71 3773.04 3974.9 3761.31C3974.9 3745.04 3962.93 3657.41 3949.55 3653.59C3944.08 3652.02 3934.08 3664.49 3930.54 3666.26C3902.88 3680.09 3868.39 3685.87 3843.95 3702.17C3831.31 3710.59 3748.26 3707.41 3746.79 3716.95C3743.23 3740.12 3756.12 3798.1 3772.13 3814.12Z" fill="#ca4a1e" fill-rule="nonzero" opacity="1" stroke="none"/>
<path d="M2853.36 4080.26C2820.84 4112.79 2807.7 4153.12 2781.55 4187.99C2760.1 4170.12 2748.42 4146.06 2745.64 4118.29C2744.5 4106.88 2747.41 4092.59 2739.3 4084.49C2711.58 4112.21 2723.53 4212.35 2754.09 4242.91C2771.15 4259.97 2784.7 4265.42 2809 4259.81C2816.72 4258.03 2809.12 4251.41 2819.56 4255.58C2832.9 4260.92 2838.17 4282.2 2853.36 4287.27C2897.17 4301.87 2952.32 4281.39 2977.97 4242.91C3004.2 4269.14 3016.25 4286.65 3049.79 4297.83C3057.12 4300.27 3105.34 4312.41 3098.37 4291.49C3096.27 4285.2 3041.64 4255.89 3030.78 4245.02C3014.29 4228.53 3014.63 4201.41 2999.1 4185.88C2966.29 4207.75 2947.02 4245.15 2910.39 4259.81C2862.83 4278.83 2813.56 4238.12 2819.56 4190.1C2824.6 4149.8 2844.52 4123.29 2861.81 4088.71C2857.58 4084.49 2857.58 4084.49 2853.36 4080.26Z" fill="#7a1627" fill-rule="nonzero" opacity="1" stroke="none"/>
<path d="M4724.71 1011.14C4683.01 1025.26 4674.01 1042.56 4674.01 1095.63C4674.01 1152.4 4764.49 1198.07 4807.08 1163.22C4826.66 1147.2 4827.7 1138.11 4830.31 1114.64C4837.71 1048.06 4782.25 991.644 4724.71 1011.14Z" fill="#faebb7" fill-rule="nonzero" opacity="1" stroke="none"/>
<path d="M2906.16 850.607C2817.63 864.598 2822.41 1002.69 2918.83 1002.69C2930.15 1002.69 2937.84 992.978 2946.29 987.904C2988.29 962.705 2973.77 934.981 2980.09 890.74C2981.15 883.311 2990.24 890.227 2982.2 880.178C2958.66 850.759 2942.05 844.935 2906.16 850.607Z" fill="#fdfbf7" fill-rule="nonzero" opacity="1" stroke="none"/>
<path d="M3789.03 837.933C3695.51 854.165 3719.6 1007.16 3829.16 983.679C3915.35 965.209 3870.71 823.756 3789.03 837.933Z" fill="#fdfbf7" fill-rule="nonzero" opacity="1" stroke="none"/>
<path d="M3565.15 861.168C3523.79 881.805 3520.79 902.607 3520.79 951.995C3520.79 996.748 3594.76 1008.58 3622.17 992.128C3661.92 968.281 3677.2 890.783 3624.29 869.617C3602.49 860.897 3594.52 846.513 3565.15 861.168Z" fill="#fdfbf7" fill-rule="nonzero" opacity="1" stroke="none"/>
<path d="M5559 802.024C5464.34 828.1 5512 969.071 5601.24 939.322C5676.77 914.144 5628.01 783.013 5559 802.024Z" fill="#f9b9c7" fill-rule="nonzero" opacity="1" stroke="none"/>
<path d="M4876.78 1203.36C4867.05 1204.35 4855.6 1213.19 4853.54 1224.48C4849.44 1247.07 4864.14 1328.04 4872.55 1344.88C4882.07 1363.91 4902.35 1391.16 4927.47 1370.22C4969.46 1335.23 4937.03 1197.18 4876.78 1203.36Z" fill="#faebb7" fill-rule="nonzero" opacity="1" stroke="none"/>
<path d="M3182.85 478.847C3206.83 502.833 3213.65 542.353 3239.88 563.338C3247.5 569.439 3267.17 523.537 3269.45 518.98C3282.34 493.187 3310.54 481.14 3324.36 453.5C3312.55 441.687 3301.5 416.054 3280.01 413.367C3234.79 407.714 3209.5 452.193 3182.85 478.847Z" fill="#b0395c" fill-rule="nonzero" opacity="1" stroke="none"/>
<path d="M5632.92 966.781C5614.21 985.494 5623.08 1003.84 5618.14 1032.26C5613.06 1061.47 5612.49 1091.34 5611.8 1120.98C5611.61 1129.18 5602.46 1145.15 5605.46 1152.66C5608.98 1161.44 5635.38 1176.07 5643.48 1180.12C5676.03 1147.57 5674.69 993.763 5632.92 966.781Z" fill="#f37e8c" fill-rule="nonzero" opacity="1" stroke="none"/>
<path d="M5037.3 1837.04C5055.33 1855.07 5023.95 1865.76 5020.4 1883.51C5017.72 1896.94 5020.09 1927.06 5018.29 1938.42C5016.66 1948.74 5005.17 1960.67 5001.39 1970.11C4984.32 2012.79 4972.31 2063.81 4944.37 2101.07C4933.22 2115.94 4906.7 2190.13 4889.45 2172.89C4879.8 2182.54 4886.29 2222.53 4895.79 2232.03C4902.9 2224.92 4904.54 2189.38 4916.91 2172.89C4975.47 2094.8 5001.24 2003.6 5035.19 1913.08C5048.74 1876.92 5079.99 1902.56 5107 1898.29C5123.66 1895.66 5110.79 1870.39 5104.89 1864.5C5108.1 1858.07 5105.51 1856.67 5100.66 1851.82C5102.07 1849.01 5103.48 1846.19 5104.89 1843.37C5097.91 1836.39 5097.13 1838.46 5090.1 1845.48C5079.22 1834.6 5050.14 1824.2 5037.3 1837.04Z" fill="#7a1627" fill-rule="nonzero" opacity="1" stroke="none"/>
<path d="M2671.72 903.413C2698.72 885.411 2711.37 847.515 2741.42 829.484C2768.57 813.19 2809.75 797.508 2830.13 770.34C2801.06 741.274 2704.84 808.648 2678.05 829.484C2663.35 840.922 2652 852.54 2640.03 867.505C2639.05 868.734 2636.99 870.46 2637.92 871.729C2645.29 881.774 2654.14 890.713 2663.27 899.189C2665.57 901.331 2669.49 901.187 2671.72 903.413Z" fill="#fab681" fill-rule="nonzero" opacity="1" stroke="none"/>
<path d="M2792.11 2041.93C2745.32 2047.75 2712.34 2173.77 2777.32 2166.55C2808.72 2163.06 2866.49 2032.66 2792.11 2041.93Z" fill="#da8752" fill-rule="nonzero" opacity="1" stroke="none"/>
<path d="M2671.72 930.873C2644.27 958.323 2673.85 1088.79 2701.29 1123.09C2719.31 1145.62 2736.62 1187.7 2764.65 1152.66C2719.79 1107.79 2667.54 1019.49 2701.29 951.995C2689.15 939.855 2683.77 938.912 2671.72 930.873Z" fill="#ca4a1e" fill-rule="nonzero" opacity="1" stroke="none"/>
<path d="M4676.13 2151.76C4664.9 2157.38 4647.16 2150.56 4640.22 2164.44C4632.12 2180.63 4650.41 2217.62 4629.66 2238.37C4641.84 2250.55 4735.08 2222.48 4745.83 2204.57C4756.65 2186.53 4697.34 2160.31 4676.13 2151.76Z" fill="#da3a3f" fill-rule="nonzero" opacity="1" stroke="none"/>
<path d="M3199.75 299.305C3124.76 324.301 3183.93 382.72 3163.84 402.806C3194.98 433.944 3293.3 338.689 3199.75 299.305Z" fill="#b0395c" fill-rule="nonzero" opacity="1" stroke="none"/>
<path d="M3641.18 4105.61C3628.46 4118.33 3630.22 4158.09 3632.73 4173.2C3640.05 4217.12 3664.67 4261.92 3715.11 4261.92C3742.45 4261.92 3793.27 4192.26 3782.7 4160.53C3764.92 4174.75 3756.26 4195.42 3740.45 4211.22C3691.7 4259.98 3652.26 4197.61 3647.52 4147.86C3646.17 4133.68 3651.25 4115.68 3641.18 4105.61Z" fill="#713044" fill-rule="nonzero" opacity="1" stroke="none"/>
<path d="M3577.82 1161.11C3552.65 1186.28 3608.06 1221.72 3628.51 1230.81C3651.68 1241.11 3679.59 1237.41 3704.55 1232.93C3713.09 1231.39 3725.15 1207.22 3734.12 1201.24C3715.67 1182.8 3681.92 1199.68 3655.97 1197.02C3653.54 1196.77 3643.19 1185.17 3639.07 1184.34C3612 1178.93 3601.55 1172.98 3577.82 1161.11Z" fill="#ee5d32" fill-rule="nonzero" opacity="1" stroke="none"/>
<path d="M2762.54 1150.55C2741.99 1171.1 2773.07 1194.43 2794.22 1199.13C2844.42 1210.29 2919.59 1211.05 2958.97 1171.67C2941.98 1154.69 2912.49 1175.8 2889.27 1178.01C2845.77 1182.15 2804.18 1176.2 2762.54 1150.55Z" fill="#ee5d32" fill-rule="nonzero" opacity="1" stroke="none"/>
<path d="M3161.73 4166.87C3149.24 4179.36 3157.61 4210.01 3146.94 4226.01C3136.43 4241.79 3117.93 4264.78 3098.37 4270.37C3087.87 4273.37 3076.39 4271.22 3068.8 4278.82C3113.37 4323.39 3154.39 4289.72 3170.18 4234.46C3175.48 4215.92 3184.77 4178.39 3161.73 4166.87Z" fill="#713044" fill-rule="nonzero" opacity="1" stroke="none"/>
<path d="M4859.88 2793.89C4844.05 2801.81 4834.07 2810.61 4819.75 2821.35C4834.08 2850.01 4857.62 2889.24 4840.87 2922.74C4845.1 2926.97 4845.1 2926.97 4849.32 2931.19C4860.41 2920.1 4846.68 2904.26 4857.77 2893.17C4864.11 2899.51 4864.11 2899.51 4870.44 2905.84C4884.69 2891.59 4876.34 2810.35 4859.88 2793.89Z" fill="#259ebd" fill-rule="nonzero" opacity="1" stroke="none"/>
<path d="M3193.41 4185.88C3176.06 4203.23 3197.15 4242.81 3218.76 4247.13C3257.54 4254.89 3280.58 4240.04 3305.35 4207C3303.31 4204.96 3253.95 4223.9 3239.88 4223.9C3217.82 4223.9 3209.64 4193.99 3193.41 4185.88Z" fill="#713044" fill-rule="nonzero" opacity="1" stroke="none"/>
<path d="M4847.21 4095.05C4884.85 4095.05 4868.03 4108.63 4904.24 4084.49C4910.07 4080.6 4917.37 4081.92 4923.25 4076.04C4913.11 4060.83 4830.87 4046.05 4847.21 4095.05Z" fill="#524a6b" fill-rule="nonzero" opacity="1" stroke="none"/>
<path d="M5607.57 1150.55C5594.15 1149.69 5608.24 1147.89 5603.35 1167.45C5600.87 1177.36 5592.79 1184.29 5592.79 1197.02C5592.79 1229.11 5658.33 1200.3 5645.59 1178.01C5636.89 1162.78 5622.84 1151.52 5607.57 1150.55Z" fill="#f5647b" fill-rule="nonzero" opacity="1" stroke="none"/>
<path d="M4061.5 1657.49C4051.06 1667.93 4043.59 1673.29 4031.93 1684.95C4046.71 1699.74 4049.77 1715 4069.95 1725.09C4077.34 1717.69 4077.34 1717.69 4084.73 1710.3C4073.49 1695.31 4072.63 1674.2 4061.5 1657.49Z" fill="#da8752" fill-rule="nonzero" opacity="1" stroke="none"/>
<path d="M2635.81 901.301C2615.32 921.79 2638.68 930.619 2656.93 924.536C2656.93 913.038 2644.48 907.083 2635.81 901.301Z" fill="#fab681" fill-rule="nonzero" opacity="1" stroke="none"/>
</g>
</g>
</svg>
