<?xml version="1.0" encoding="UTF-8" standalone="no"?>
<!DOCTYPE svg PUBLIC "-//W3C//DTD SVG 1.1//EN" "http://www.w3.org/Graphics/SVG/1.1/DTD/svg11.dtd">
<!-- Created with Vectornator (http://vectornator.io/) -->
<svg height="100%" stroke-miterlimit="10" style="fill-rule:nonzero;clip-rule:evenodd;stroke-linecap:round;stroke-linejoin:round;" version="1.1" viewBox="0 0 7680 4320" width="100%" xml:space="preserve" xmlns="http://www.w3.org/2000/svg" xmlns:xlink="http://www.w3.org/1999/xlink">
<defs/>
<g id="Ebene-1">
<g opacity="1">
<path d="M3734.25 2189.89C3723.33 2195.35 3708.33 2198.73 3700.1 2206.96C3707.38 2214.24 3708.91 2227.16 3715.75 2233.99C3711.12 2238.63 3707.25 2235.89 3701.52 2236.84C3680.88 2240.28 3665.52 2246.58 3643.19 2243.95C3634 2242.87 3631.96 2236.81 3619 2239.69C3550.22 2254.97 3486.88 2258.3 3412.68 2259.61C3411.73 2259.62 3410.76 2259.84 3409.84 2259.61C3395.84 2256.11 3379.58 2252.7 3365.73 2251.07C3333.87 2247.32 3306.76 2241.31 3277.51 2233.99C3264.04 2230.63 3242.17 2231.38 3231.98 2221.19C3210.62 2242.55 3200.88 2292.92 3193.56 2322.21C3169.3 2419.27 3155.14 2504.9 3155.14 2608.21C3155.14 2629.59 3164.23 2718.32 3177.91 2732C3180.04 2729.86 3180.04 2729.86 3182.18 2727.73C3186.37 2729.82 3184.02 2728.82 3189.29 2730.57C3189.29 2753.62 3208.14 2768.44 3216.33 2788.91C3232.42 2829.14 3266.73 2870.98 3296.01 2904.16C3424.27 3049.53 3599.88 3154.56 3796.85 3136.09C3810.55 3134.81 3824.37 3136.51 3838.12 3136.09C3891.96 3134.46 3944.31 3114.3 3988.94 3091.98C4004.31 3084.3 4032.86 3082.59 4040.16 3060.68C4062.17 3060.68 4130.79 3009.38 4145.46 2993.8C4152 2986.85 4163.82 2973.61 4158.26 2962.5C4196.22 2924.55 4228.11 2887.73 4260.71 2845.83C4282.19 2818.2 4296.57 2785.64 4316.2 2756.19C4319.05 2759.03 4319.05 2759.03 4321.89 2761.88C4330.1 2753.67 4325.53 2737.98 4327.58 2727.73C4328.11 2725.1 4332.85 2724.69 4333.27 2722.04C4337.36 2696.49 4335.6 2671.56 4340.39 2645.2C4340.96 2642.07 4344.63 2639.85 4344.66 2636.66C4345.12 2590.66 4346.08 2544.66 4346.08 2498.65C4346.08 2432.9 4331.49 2370.96 4344.66 2305.14C4348.29 2286.96 4347.48 2256.78 4361.73 2242.53C4353.41 2234.21 4318.22 2247.93 4306.24 2253.91C4260.19 2276.94 4203.85 2290.55 4148.3 2295.18C4075.86 2301.21 4006.85 2293.49 3944.83 2265.3C3932.66 2259.76 3924.83 2244.4 3910.68 2239.69C3886.99 2231.79 3858.46 2219.17 3838.12 2206.96C3828.84 2201.39 3812.9 2185.62 3802.55 2185.62C3791.47 2185.62 3777.25 2205.06 3766.97 2211.23C3766.07 2211.77 3764.98 2213.29 3764.13 2212.65C3756.88 2207.21 3751.24 2199.87 3744.21 2194.15C3741.81 2192.21 3737.37 2193.01 3734.25 2189.89Z" fill="#fa5e1d" fill-rule="nonzero" opacity="1" stroke="none"/>
<path d="M3051.27 1099.97C3039.74 1111.51 3059.74 1136.68 3062.66 1148.35C3073.47 1191.59 3111.1 1239.78 3138.07 1272.14C3145.13 1280.61 3170.14 1301.15 3166.53 1311.98C3164.49 1318.1 3153.84 1327.6 3150.88 1330.48C3139.56 1341.45 3127.87 1352.05 3116.73 1363.2C3092.91 1387.01 3074.28 1417.42 3054.12 1444.31C2986.24 1534.81 2967.96 1671.01 2970.17 1781.52C2973.13 1929.6 3025.5 2059.25 3138.07 2155.74C3163.25 2177.32 3191.36 2193.06 3219.17 2206.96C3229.74 2212.25 3238.49 2228.09 3240.52 2226.88C3252.79 2219.51 3297.83 2157.94 3301.7 2158.58C3321.01 2161.8 3360.28 2168.69 3374.26 2177.08C3379.93 2180.48 3397.26 2178.2 3404.14 2179.93C3415.2 2182.69 3431.42 2179.93 3442.56 2179.93C3499.5 2179.93 3544.06 2168.54 3596.23 2154.31C3601.74 2152.81 3604.14 2145.87 3609.04 2142.93C3617.61 2137.79 3631.93 2134.36 3641.76 2131.55C3648.14 2129.73 3651.38 2119.45 3658.84 2117.32C3664.21 2115.78 3670.54 2117.16 3675.91 2114.47C3688.89 2107.99 3711.09 2089.25 3721.44 2078.9C3725.82 2074.52 3720.8 2068.16 3725.71 2063.25C3705.28 2042.81 3688.52 2010.22 3675.91 1984.99C3671.52 1976.21 3656.65 1961.78 3658.84 1950.84C3660.22 1943.93 3671.84 1934.59 3675.91 1929.5C3697.11 1903 3721.07 1878.13 3739.94 1849.82C3742.07 1851.24 3742.07 1851.24 3744.21 1852.67C3726.22 1888.65 3728.11 1934.37 3735.67 1972.19C3739.03 1988.96 3750.81 2008.06 3754.17 2024.83C3755.84 2033.18 3778.12 2075.51 3785.47 2070.37C3818.83 2047.02 3810.61 2001.49 3833.85 1973.61C3842.14 1963.66 3866.09 1938.77 3866.58 1925.23C3867.05 1911.93 3860.01 1894.81 3869.42 1885.39C3889.24 1905.21 3906.54 1927.71 3927.76 1946.58C3908.86 1984.36 3880.8 2017.73 3862.31 2054.71C3874.27 2066.68 3887.45 2090.29 3906.42 2095.98C3925.6 2101.73 3939.89 2091.03 3956.22 2107.36C3960.34 2105.3 4045.4 2122.9 4057.24 2125.86C4113.8 2140 4180.08 2127.75 4232.25 2117.32C4249.69 2113.83 4310.97 2105.99 4316.2 2090.29C4331.99 2090.29 4371.8 2052 4383.07 2041.91C4420.14 2008.74 4470.6 1955.02 4482.67 1906.74C4484.39 1899.86 4493.95 1892.72 4496.9 1886.82C4503.8 1873.03 4512.03 1855.66 4516.82 1841.28C4520.47 1830.33 4521.19 1799.92 4504.02 1817.1C4499.27 1812.83 4492.01 1810.27 4489.79 1804.29C4486.49 1795.38 4500.69 1741.06 4505.44 1733.15C4514.18 1718.57 4503.79 1690.91 4512.55 1673.39C4520.11 1658.28 4514.34 1632.9 4512.55 1615.05C4508.19 1571.38 4490.64 1527.96 4464.18 1492.68C4398.39 1404.96 4289.09 1348.97 4182.45 1341.86C4159.72 1340.34 4136.94 1339.01 4114.15 1339.01C4099.58 1339.01 4069.22 1335.79 4064.35 1350.4C4049.51 1350.4 4035.8 1356.85 4023.09 1363.2C3965.65 1391.92 3912.57 1433.57 3877.96 1491.26C3868.39 1507.21 3862.22 1524.84 3853.77 1539.64C3848.66 1548.57 3840.04 1559.5 3836.7 1569.52C3830.63 1587.72 3819.36 1661.62 3809.66 1664.85C3809.66 1677.58 3810.62 1699.85 3809.66 1710.38C3808.98 1717.89 3776.64 1718.32 3772.67 1700.42C3768.33 1680.89 3768.78 1596.94 3752.75 1580.9C3743.27 1590.37 3756.53 1605.58 3747.05 1615.05C3743 1610.99 3744.95 1613.32 3741.36 1607.93C3737.09 1612.2 3729.08 1614.73 3728.56 1620.74C3726.36 1645.78 3729.47 1671.03 3728.56 1696.15C3726.04 1765.36 3698.43 1835.9 3644.61 1882.55C3610.48 1912.13 3569.18 1933.3 3526.51 1938.04C3446.32 1946.95 3390.61 1937.68 3325.89 1905.31C3225.44 1855.09 3186.79 1737.12 3207.79 1632.12C3212.88 1606.69 3215.48 1577.29 3231.98 1555.29C3285.02 1484.56 3339.51 1446.87 3424.06 1431.5C3463.81 1424.27 3509.03 1421.66 3547.85 1437.19C3596.14 1456.51 3633.17 1475.54 3671.64 1518.29C3675.2 1514.74 3675.2 1514.74 3678.76 1511.18C3680.89 1513.31 3680.89 1513.31 3683.03 1515.45C3687.47 1511.01 3694.12 1498.94 3701.52 1502.64C3705.79 1498.37 3705.79 1498.37 3710.06 1494.11C3678.28 1446.44 3621.18 1380.47 3563.51 1366.05C3539.05 1359.93 3511.39 1351.18 3488.09 1341.86C3456.38 1329.17 3419.81 1339.01 3385.65 1339.01C3367.4 1339.01 3345.08 1350.76 3328.73 1358.93C3272.39 1387.1 3223.44 1410.16 3173.64 1459.96C3149.57 1484.02 3139.08 1513.56 3126.69 1542.48C3123.78 1549.26 3115.45 1559.89 3113.88 1566.67C3109.7 1584.79 3109.8 1639.05 3098.23 1650.62C3086.87 1639.26 3068.66 1652.35 3058.39 1642.08C3065.56 1627.73 3059.21 1602.18 3064.08 1586.59C3065.58 1581.78 3072.27 1579.93 3074.04 1575.21C3082.35 1553.06 3088.12 1531.39 3098.23 1511.18C3114.19 1479.25 3147.59 1449.38 3173.64 1425.81C3187.98 1412.83 3209.46 1400.11 3219.17 1383.12C3226.27 1370.7 3218.34 1355.75 3220.6 1348.97C3220.73 1348.58 3286.14 1326.12 3293.16 1319.09C3290.09 1316.02 3273.67 1296.64 3270.4 1296.33C3251.98 1294.57 3233.14 1299.43 3214.9 1296.33C3209.61 1295.43 3207.71 1288.3 3203.52 1284.94C3200.99 1282.92 3193.11 1282.35 3190.72 1280.68C3177 1271.08 3179.98 1258.55 3170.8 1249.37C3164.03 1242.61 3150.02 1237.14 3142.34 1229.45C3122.87 1209.99 3100.04 1188.37 3085.42 1164C3078.4 1152.3 3058.6 1104.86 3051.27 1099.97Z" fill="#f9831f" fill-rule="nonzero" opacity="1" stroke="none"/>
<path d="M3742.79 2352.09C3704.05 2356.4 3676.27 2368.99 3644.61 2384.82C3635.89 2389.18 3624.06 2388.95 3614.73 2390.51C3611.07 2391.12 3610.51 2396.73 3607.61 2399.05C3601.66 2403.81 3585.25 2408.91 3579.16 2410.43C3575.56 2411.33 3574.94 2416.65 3572.04 2418.97C3557.99 2430.21 3544.46 2439.44 3529.36 2454.54C3492.31 2491.59 3462.45 2570.95 3461.06 2621.01C3459.78 2667.17 3447.35 2751.79 3496.63 2784.64C3491.13 2792.89 3493.58 2807.28 3495.21 2815.95C3495.66 2818.37 3503.34 2824.89 3505.17 2827.33C3516.6 2842.58 3518.34 2865.85 3530.78 2881.4C3547.67 2902.51 3555.04 2915.62 3577.73 2938.31C3624.63 2985.2 3757.74 3008.17 3815.35 2996.65C3825.43 2994.63 3831.18 2986.63 3839.54 2983.84C3847.74 2981.11 3861.05 2983.09 3869.42 2981C3872.92 2980.12 3873.01 2973.86 3875.11 2972.46C3882.54 2967.51 3899.29 2966.16 3907.84 2962.5C3913.99 2959.87 3930.25 2941.02 3933.45 2938.31C3951.4 2923.13 3963.91 2907.85 3980.4 2891.36C4055.87 2815.89 4057.24 2713.04 4057.24 2608.21C4057.24 2604.38 4056.57 2600.57 4055.82 2596.82C4035.5 2495.24 3942.2 2394.98 3843.81 2359.21C3817.43 2349.62 3770.7 2350.73 3742.79 2352.09Z" fill="#f9831f" fill-rule="nonzero" opacity="1" stroke="none"/>
<path d="M4496.9 2117.32C4493.94 2120.28 4488.97 2131.04 4486.94 2131.55C4477.3 2133.96 4435.75 2158.64 4439.99 2167.12C4431.14 2175.97 4411.38 2189.96 4400.15 2195.58C4383.24 2204.03 4367.06 2231.6 4356.04 2245.38C4345.62 2258.4 4346.33 2288.21 4343.23 2303.71C4330.1 2369.37 4340.62 2431.46 4341.81 2497.22C4342.65 2543.22 4343.23 2589.23 4343.23 2635.24C4343.23 2639.71 4338.15 2637.67 4337.54 2642.36C4334.1 2668.74 4334.86 2693.73 4330.43 2719.19C4329.97 2721.83 4325.22 2722.24 4324.74 2724.88C4323.21 2733.28 4325.59 2742 4324.74 2750.49C4322.07 2777.14 4311.8 2807.38 4310.51 2834.44C4309.87 2847.81 4298.77 2864.31 4297.7 2872.86C4296.06 2886.04 4299.35 2899.52 4297.7 2912.7C4297.38 2915.26 4288.57 2922.49 4287.74 2925.51C4277.96 2961.39 4269.53 2996.36 4259.29 3032.22C4257.36 3038.97 4253.53 3038.76 4250.75 3045.03C4247.92 3051.4 4248.66 3062.68 4246.48 3069.22C4244.68 3074.63 4237.43 3078.51 4236.52 3084.87C4235.51 3091.93 4239.03 3099.16 4237.94 3106.21C4236.72 3114.16 4222.3 3127.54 4218.02 3134.67C4214.27 3140.92 4191.81 3161.92 4195.26 3168.82C4199.35 3177 4220.47 3170.69 4227.98 3168.82C4255.95 3161.82 4286.87 3140.6 4313.35 3124.71C4318.15 3121.83 4334.84 3105.05 4337.54 3106.21C4351.26 3112.09 4346.42 3155.51 4347.5 3167.39C4347.62 3168.73 4349.15 3169.64 4350.35 3170.24C4354.91 3172.52 4397.16 3140.96 4407.26 3138.94C4428.51 3134.69 4443.63 3113.94 4465.6 3109.06C4469.06 3108.29 4475.28 3088.67 4476.98 3086.29C4480.69 3081.1 4485.8 3077.04 4489.79 3072.06C4520.9 3033.18 4545.63 2993.65 4563.78 2948.27C4575.29 2919.5 4597.61 2892.64 4605.04 2862.9C4619.29 2805.89 4643.48 2750.43 4661.96 2695C4676.64 2650.95 4678.86 2605.29 4684.72 2558.41C4685.03 2555.92 4690.27 2549.46 4690.41 2547.02C4695.24 2467.43 4695.45 2385.71 4670.49 2310.83C4653.66 2260.32 4634.65 2221.77 4602.2 2178.5C4596.44 2170.83 4606.81 2160.35 4599.35 2152.89C4596.8 2155.44 4597.3 2171.01 4590.81 2167.12C4574.1 2157.09 4559.58 2139.16 4541.01 2132.97C4529.75 2129.22 4515.6 2129.76 4504.02 2127.28C4500.46 2126.52 4500.62 2119.79 4496.9 2117.32Z" fill="#911c2c" fill-rule="nonzero" opacity="1" stroke="none"/>
<path d="M4287.74 1243.68C4289.88 1245.82 4289.88 1245.82 4292.01 1247.95C4287.6 1252.36 4279.61 1249.49 4273.51 1250.8C4270.54 1251.43 4269.38 1255.89 4266.4 1256.49C4252.72 1259.22 4238.44 1254.73 4225.14 1263.6C4226.56 1265.02 4226.56 1265.02 4227.98 1266.45C4212.35 1282.08 4184.3 1257.49 4168.22 1273.56C4169.65 1274.98 4169.65 1274.98 4171.07 1276.41C4193.56 1265.16 4221.34 1274.51 4246.48 1274.98C4252.77 1275.1 4256.76 1282.75 4262.13 1283.52C4290.68 1287.6 4313.23 1298.07 4340.39 1304.86C4375.24 1313.58 4404.5 1330.02 4441.41 1336.17C4444.97 1336.76 4450.85 1343.09 4452.79 1343.28C4465.54 1344.56 4478.44 1342.4 4491.21 1343.28C4505.25 1344.25 4504.56 1392.18 4515.4 1404.47C4543.4 1436.19 4562.53 1466.17 4575.16 1504.07C4578.62 1514.45 4590.46 1524.73 4592.24 1535.37C4593.4 1542.39 4590.77 1549.75 4592.24 1556.71C4593.57 1563.07 4602.45 1571.03 4603.62 1578.05C4609.4 1612.74 4613.58 1645.69 4613.58 1680.5C4613.58 1696.5 4605.24 1703.12 4603.62 1716.07C4598.14 1759.93 4577.37 1798.31 4566.62 1841.28C4562.73 1856.86 4540.55 1889.2 4553.82 1902.47C4557.38 1898.9 4555.95 1897.49 4559.51 1893.93C4560.93 1895.35 4560.93 1895.35 4562.36 1896.78C4546.78 1927.94 4536.46 1951.41 4512.55 1979.3C4505.15 1974.36 4512.54 1972.17 4506.86 1966.5C4478.97 1987.41 4453.89 2028.77 4422.91 1997.8C4401.02 2008.75 4389 2033.13 4371.69 2050.45C4357.46 2064.68 4312.52 2096.37 4294.86 2101.67C4201.15 2129.78 4105.99 2133.56 4008.86 2115.9C4000.6 2114.39 3993.71 2107.24 3987.52 2105.94C3966.22 2101.45 3950.41 2104.16 3932.03 2093.13C3926.21 2089.64 3912.81 2095.26 3906.42 2093.13C3889.59 2087.52 3874.54 2064.1 3863.73 2053.29C3841.22 2075.8 3822.5 2107.32 3801.12 2131.55C3798.83 2134.15 3795.75 2140.36 3791.16 2141.51C3782.76 2143.61 3773.9 2128.11 3769.82 2123.01C3753.98 2103.2 3738.36 2082.94 3724.29 2061.83C3717.04 2069.07 3717.49 2078.59 3708.64 2087.44C3691.93 2104.14 3667.03 2113.17 3646.03 2120.17C3642.52 2121.34 3642 2126.65 3638.92 2128.7C3630.12 2134.57 3615.87 2134.58 3607.61 2140.09C3603.15 2143.06 3601.03 2149.07 3596.23 2151.47C3587.38 2155.89 3569.32 2154.55 3559.24 2158.58C3519.9 2174.32 3466.46 2182.27 3421.22 2178.5C3390.77 2175.97 3362.67 2171.63 3333 2165.7C3320.96 2163.29 3303.56 2153.22 3291.74 2157.16C3291.74 2180.19 3255.92 2207.26 3241.94 2224.03C3236.97 2221.55 3239.94 2223.25 3233.4 2218.34C3231.98 2219.77 3231.98 2219.77 3230.56 2221.19C3249.1 2243.44 3335.94 2248.95 3365.73 2253.91C3453.18 2268.49 3540.05 2256.87 3626.11 2242.53C3638.3 2240.5 3634.63 2245.79 3643.19 2246.8C3658.32 2248.58 3725.54 2242.7 3735.67 2232.57C3729.69 2226.59 3726.56 2232.14 3718.6 2231.15C3712.57 2230.4 3710.16 2222.23 3707.21 2216.92C3699.58 2203.17 3725.42 2197.15 3734.25 2192.73C3742.48 2200.96 3753.81 2203.05 3758.44 2216.92C3772.27 2210.01 3783.05 2197.56 3796.85 2189.89C3803.99 2185.92 3817.92 2197.69 3823.89 2201.27C3844.9 2213.88 3865.25 2220.62 3886.5 2229.73C3898.64 2234.93 3929.42 2265.89 3941.99 2259.61C3949.16 2256.02 3955.95 2245.56 3964.75 2243.95C3989.76 2239.41 4025.66 2252.68 4050.12 2256.76C4081 2261.91 4123.83 2258.18 4153.99 2258.18C4237.31 2258.18 4317.28 2219.54 4388.77 2192.73C4404.05 2187 4419.86 2172.2 4435.72 2164.27C4437.14 2165.7 4437.14 2165.7 4438.57 2167.12C4453.24 2152.45 4469.26 2138.5 4489.79 2134.39C4494.78 2133.4 4491.8 2126.66 4492.63 2124.43C4495.24 2117.5 4504.42 2115.39 4509.71 2110.21C4529.12 2091.2 4548.84 2072.5 4568.05 2053.29C4695.41 1925.93 4714.88 1729.12 4686.14 1556.71C4675.53 1493.03 4636.07 1439.49 4607.89 1383.12C4600.42 1368.19 4558.74 1326.44 4560.93 1317.67C4565.1 1300.98 4600.18 1273.53 4610.73 1255.06C4645.42 1194.35 4669.89 1132.65 4680.45 1058.71C4682.84 1042.02 4691.37 984.113 4676.18 977.606C4673.92 976.638 4646.01 1009.99 4643.46 1013.18C4619.65 1042.94 4593.64 1073.36 4562.36 1095.7C4536.36 1114.27 4496.89 1137.25 4467.02 1141.24C4460.91 1142.05 4454.29 1139.04 4448.53 1141.24C4438.05 1145.23 4424.79 1169.24 4417.22 1176.81C4398.18 1195.85 4370.17 1210.2 4348.93 1222.34C4343.68 1225.34 4311.59 1240.27 4307.66 1240.84C4301.02 1241.78 4292.49 1238.94 4287.74 1243.68Z" fill="#e73727" fill-rule="nonzero" opacity="1" stroke="none"/>
<path d="M4950.8 2033.37C4927.02 2057.15 4892.1 2076.95 4859.73 2093.13C4843.19 2101.4 4817.27 2111.79 4809.93 2130.13C4803.72 2145.66 4807.09 2161.4 4807.09 2178.5C4807.09 2201.22 4801.92 2223.52 4802.82 2246.8C4803.04 2252.51 4812.74 2258.4 4818.47 2256.76C4850.49 2247.61 4879.85 2196.8 4901 2175.66C4910.37 2185.03 4895.61 2204.44 4893.88 2212.65C4892.42 2219.61 4894.3 2226.89 4893.88 2233.99C4892.54 2256.86 4873.37 2278.04 4866.85 2300.87C4862.41 2316.4 4867.11 2335.92 4859.73 2350.67C4850.4 2369.33 4840.64 2387.43 4831.28 2406.16C4835.22 2410.1 4831.31 2419.45 4836.97 2420.39C4872.18 2426.26 4872.45 2430 4881.08 2464.5C4882.35 2469.6 4896.07 2467.52 4898.15 2474.46C4903.79 2493.24 4886.93 2517.28 4882.5 2532.8C4870.73 2573.99 4833.29 2607.03 4814.2 2645.2C4808.36 2656.89 4795.12 2674.79 4812.78 2683.62C4813.73 2682.67 4814.31 2681.04 4815.62 2680.77C4823.28 2679.24 4834.11 2680.78 4841.24 2676.5C4850.13 2671.17 4876.4 2644.79 4885.35 2653.74C4867.42 2671.66 4867.67 2704.29 4851.2 2724.88C4825.49 2757.01 4797.46 2787.27 4762.98 2810.25C4751.41 2817.96 4700.72 2850.43 4703.22 2862.9C4709.8 2895.79 4752.6 2872.44 4765.82 2885.67C4730.2 2939.1 4674.05 2968.98 4613.58 2982.42C4592.86 2987.03 4563.45 3000.43 4549.55 2979.57C4538.54 2990.59 4534.32 3004.52 4526.78 3016.57C4507.72 3047.08 4480.13 3072.87 4464.18 3104.79C4481.5 3122.11 4563.79 3117.59 4593.66 3117.59C4688.04 3117.59 4789.33 3088.98 4869.69 3040.76C4891.94 3027.41 4930.65 3005.15 4935.15 2978.15C4938.11 2960.34 4865.35 2974.81 4841.24 2966.77C4834.38 2964.48 4812.16 2962.73 4817.05 2949.69C4819.91 2942.05 4879.85 2926.39 4891.04 2922.66C4949.97 2903.02 5010.87 2868.61 5051.82 2820.21C5061.26 2809.06 5091.5 2766.6 5088.81 2750.49C5087.56 2742.99 5052.87 2764.2 5048.97 2766.15C5012.92 2784.17 4943.98 2826.35 4912.38 2778.95C4910.03 2775.42 4907.03 2771.8 4906.69 2767.57C4905.82 2756.69 4905.82 2745.72 4906.69 2734.84C4907.63 2723.12 4968.68 2682.68 4982.1 2672.24C5003.19 2655.83 5023.04 2638.55 5043.28 2621.01C5064.58 2602.55 5083.99 2585.05 5103.04 2564.1C5137.98 2525.67 5165.29 2479.43 5174.19 2426.08C5175.68 2417.14 5181.51 2411.83 5178.45 2401.89C5172.17 2381.46 5133.07 2430.56 5128.65 2434.62C5100.22 2460.78 5066.41 2482.4 5030.48 2494.38C5018.85 2498.25 4998.09 2506.81 4990.64 2494.38C4988.5 2490.81 5013.5 2475.1 5016.25 2473.04C5042.47 2453.37 5070.76 2436.56 5091.66 2410.43C5141.89 2347.64 5172.23 2245.01 5158.53 2162.85C5158.13 2160.44 5155.28 2144.6 5148.57 2148.62C5136.77 2155.71 5125.95 2183.91 5120.12 2195.58C5105.56 2224.7 5079.43 2260.95 5054.67 2279.53C5045.43 2286.45 5021.29 2302.87 5009.13 2293.75C4986.19 2276.55 4992.9 2221.78 4994.91 2202.69C5000.9 2145.77 5023.92 2095.62 5036.17 2040.49C5044.74 2001.93 5046.5 1962.15 5056.09 1923.81C5045.5 1916.75 5034.69 1937.69 5029.05 1943.73C5007.48 1966.84 4986.55 1990.33 4965.03 2013.45C4959.47 2019.42 4947.15 2026.07 4950.8 2033.37Z" fill="#e73727" fill-rule="nonzero" opacity="1" stroke="none"/>
<path d="M3227.71 3103.36C3193.09 3068.75 3156.75 3026.4 3123.84 2985.27C3108.81 3000.3 3029.53 3002.56 3021.39 2978.15C3015.32 2978.15 3014.64 2973.88 3010.01 2973.88C2993.91 2973.88 2983.4 2978.58 2973.02 2968.19C2978.68 2959.69 2992.13 2956.33 2998.63 2941.16C3014.97 2903.02 2977.91 2857.56 2947.41 2840.13C2935.95 2833.59 2917.54 2828.19 2904.72 2823.06C2886.93 2815.94 2865.78 2792.91 2853.5 2781.8C2818.53 2750.16 2780.47 2732.76 2769.55 2683.62C2764.73 2661.96 2778.19 2677.79 2785.2 2679.35C2791.68 2680.79 2798.58 2678.2 2805.12 2679.35C2821.09 2682.17 2835.8 2711.02 2842.11 2712.08C2854.28 2714.1 2866.84 2713.35 2879.11 2712.08C2883.42 2711.63 2892.88 2701.62 2894.76 2697.85C2903.9 2679.56 2872.94 2662.66 2862.03 2653.74C2825.84 2624.12 2807.58 2590.16 2779.51 2556.98C2776.96 2553.97 2757.71 2541.28 2761.01 2531.37C2765.37 2518.3 2794.31 2556.41 2806.54 2544.18C2787.96 2525.59 2783.3 2510.02 2775.24 2485.84C2774.07 2482.33 2768.48 2480.99 2768.12 2477.3C2766.1 2456.51 2773.76 2433.79 2765.28 2414.7C2759.91 2402.61 2738.43 2392.12 2729.71 2383.4C2716.56 2370.25 2712.38 2351.87 2699.83 2340.71C2691.8 2333.58 2669.25 2323.97 2677.06 2312.25C2670.9 2306.09 2663.94 2308.54 2657.14 2305.14C2629.63 2291.38 2607.2 2255.63 2588.84 2231.15C2566.72 2201.65 2554.37 2169.31 2539.04 2138.66C2535.83 2132.24 2535.54 2116.99 2527.66 2113.05C2506.97 2102.71 2487.39 2135.91 2479.28 2144.35C2457.9 2166.63 2460.04 2213.52 2465.06 2241.11C2480.47 2325.88 2555.47 2405.27 2617.3 2460.23C2643.92 2483.89 2663.13 2502.73 2667.1 2538.49C2667.23 2539.64 2670.34 2555.2 2667.1 2559.83C2649.67 2584.73 2614.2 2568.95 2593.11 2558.41C2554.3 2539 2522.11 2515.32 2487.82 2487.26C2483.28 2483.55 2443.83 2440.96 2442.29 2441.73C2435.3 2445.23 2437.94 2456.61 2435.17 2463.08C2430.12 2474.88 2431.38 2488.69 2432.33 2501.49C2434.11 2525.49 2447.46 2551.42 2456.52 2574.06C2488.75 2654.65 2559.52 2711.64 2634.38 2749.07C2662.75 2763.26 2756.23 2784.91 2763.86 2823.06C2783.68 2922.17 2649.96 2846.6 2610.19 2842.98C2602.39 2842.27 2557.3 2821.43 2556.12 2827.33C2554.64 2834.7 2570 2844.16 2574.62 2850.09C2584.1 2862.28 2595 2873.32 2605.92 2884.24C2635.3 2913.62 2683.78 2931.9 2721.17 2942.58C2743.72 2949.02 2765.06 2962.03 2786.62 2968.19C2796.79 2971.1 2852.75 2986.09 2847.81 3000.92C2846.16 3005.85 2830.83 3005.01 2826.46 3005.19C2805.13 3006.02 2783.78 3006.61 2762.43 3006.61C2750.29 3006.61 2729.38 2993.04 2722.59 3006.61C2721.17 3009.45 2751.76 3028.57 2755.32 3030.8C2767.08 3038.15 2785.61 3056.49 2799.43 3059.26C2811.41 3061.65 2829.56 3069.65 2840.69 3076.33C2857.3 3086.29 2877.3 3091.53 2896.18 3096.25C2918 3101.7 2943.82 3116.52 2967.33 3120.44C2993.77 3124.85 3022.92 3128.94 3049.85 3130.4C3082.36 3132.16 3093.64 3126.11 3122.42 3127.55C3143.14 3128.59 3213.19 3117.89 3227.71 3103.36Z" fill="#e73727" fill-rule="nonzero" opacity="1" stroke="none"/>
<path d="M3449.68 1422.96C3274.44 1432.66 3176.46 1570.79 3207.79 1743.11C3212.6 1769.57 3216.22 1802.72 3233.4 1825.63C3300.42 1914.99 3394.42 1946.58 3503.75 1946.58C3523.1 1946.58 3545.49 1937.15 3562.08 1930.92C3664.39 1892.56 3716.17 1821.48 3727.13 1711.8C3731.5 1668.19 3731.94 1625.65 3715.75 1585.17C3669.84 1470.39 3563.24 1416.68 3449.68 1422.96Z" fill="#fcfbf6" fill-rule="nonzero" opacity="1" stroke="none"/>
<path d="M4101.35 1405.89C4036.72 1416.66 3984.17 1448.13 3940.56 1502.64C3908.87 1542.26 3875.5 1602 3869.42 1650.62C3863.76 1695.89 3850.14 1761.24 3875.11 1802.87C3904.37 1851.62 3945.91 1893.79 3996.06 1913.85C4002.47 1916.41 4009.43 1923.78 4015.98 1925.23C4059.08 1934.81 4103.71 1938.04 4148.3 1938.04C4175.9 1938.04 4204.49 1923.41 4227.98 1916.7C4240.86 1913.02 4255.98 1898.98 4267.82 1891.08C4348.68 1837.18 4400.47 1728.17 4378.81 1630.7C4366.48 1575.23 4332.32 1524.45 4292.01 1484.15C4279.1 1471.24 4217.16 1441.73 4213.75 1431.5C4194.8 1431.5 4195.54 1412.55 4189.57 1410.16C4176.41 1404.9 4156.95 1417.38 4101.35 1405.89Z" fill="#fcfbf6" fill-rule="nonzero" opacity="1" stroke="none"/>
<path d="M3794.01 1447.15C3781.54 1434.68 3773.54 1389.8 3762.71 1371.74C3742.75 1338.48 3716.89 1307.42 3688.72 1279.25C3677.01 1267.54 3657.9 1258.77 3644.61 1250.8C3627.35 1240.44 3612.85 1222.82 3596.23 1210.96C3556.67 1182.7 3516.63 1157.51 3475.29 1132.7C3445.78 1114.99 3394.74 1110.2 3374.26 1082.9C3352.61 1093.73 3331.66 1069.98 3313.08 1064.4C3241.45 1042.91 3184.32 990.183 3145.18 924.961C3128.97 897.94 3131.17 854.037 3108.19 831.052C3090.57 839.862 3076.97 856.489 3068.35 873.737C3060.84 888.764 3044.57 906.914 3047.01 926.383C3056.85 1005.1 3125.97 1081.07 3196.41 1121.32C3217.1 1133.14 3240.53 1141.85 3261.86 1154.04C3280.67 1164.79 3304.78 1165.17 3325.89 1173.96C3328.36 1174.99 3328.96 1179.07 3331.58 1179.65C3346.81 1183.04 3352.43 1173.9 3357.19 1188.19C3368.54 1188.19 3394.97 1184.85 3399.88 1199.57C3416.54 1199.57 3436.67 1193.43 3449.68 1203.84C3464.11 1215.39 3518.57 1206.87 3492.36 1236.57C3486.37 1243.36 3480.27 1250.08 3473.86 1256.49C3469.77 1260.58 3464.45 1263.24 3459.64 1266.45C3450.69 1272.41 3435.53 1267.79 3428.33 1274.98C3434.07 1280.73 3444.42 1277.35 3452.52 1277.83C3457.45 1278.12 3460.27 1285.25 3463.9 1286.37C3483.54 1292.41 3503.52 1291.09 3520.82 1303.44C3544.81 1320.58 3574.88 1332.18 3600.5 1347.55C3633.85 1367.56 3667.5 1406.54 3692.99 1434.35C3733.12 1478.12 3766.01 1527.21 3774.09 1583.75C3774.98 1590 3801.27 1588.66 3805.39 1586.59C3813.17 1582.7 3833.09 1520.03 3840.96 1506.91C3879.89 1442.04 3925.33 1376.9 3993.21 1336.17C4019.68 1320.29 4050.3 1311.45 4078.58 1302.02C4090.39 1298.08 4104.94 1287.63 4117 1284.94C4126.26 1282.89 4137.75 1284.73 4146.88 1280.68C4153.84 1277.58 4166.13 1272.53 4172.49 1272.14C4194.27 1270.81 4216.14 1273.05 4237.94 1272.14C4239.28 1272.08 4239.84 1270.24 4240.79 1269.29C4236.6 1265.11 4233.59 1267.79 4229.41 1263.6C4239.54 1253.47 4290.49 1262.28 4304.82 1247.95C4296.71 1239.85 4285.67 1245.1 4274.94 1245.1C4270.18 1245.1 4256.99 1235.03 4260.71 1229.45C4269.58 1216.15 4292.88 1216.88 4296.28 1206.69C4327.38 1206.69 4354.34 1165.07 4373.11 1144.08C4418.92 1092.89 4475.71 991.159 4482.67 924.961C4484.8 904.808 4480.16 845.693 4468.45 831.052C4464.53 826.159 4464.99 811.131 4455.64 811.131C4446.83 811.131 4429.59 885.063 4422.91 895.08C4415.83 905.709 4414.56 918.909 4408.69 930.652C4385.52 976.986 4354.31 1019.17 4316.2 1057.29C4305 1068.49 4282.43 1091.79 4264.98 1094.28C4261.69 1094.75 4257.99 1092.8 4255.02 1094.28C4245.68 1098.95 4253.14 1102.24 4245.06 1107.09C4230.13 1116.04 4212.18 1122.81 4195.26 1131.28C4173.26 1142.27 4148.11 1148.89 4124.11 1156.89C4071.19 1174.53 4009.84 1203.19 3961.91 1235.14C3911.18 1268.96 3862.38 1315.17 3831 1367.47C3820.87 1384.36 3807.18 1404.79 3801.12 1422.96C3798.78 1429.99 3799.23 1441.93 3794.01 1447.15Z" fill="#cf2028" fill-rule="nonzero" opacity="1" stroke="none"/>
<path d="M3175.06 2732C3188.06 2757.99 3186.46 2797.48 3194.98 2825.91C3219.54 2907.75 3263.28 2993.14 3321.62 3059.26C3361.1 3104 3405.52 3147.44 3455.37 3183.04C3471.75 3194.75 3489.61 3205.48 3508.01 3210.08C3511.3 3210.9 3525.97 3226.03 3533.63 3228.58C3548.42 3233.51 3564.58 3234.91 3577.73 3242.8C3585.72 3247.6 3576.98 3257.7 3583.43 3264.15C3589.04 3258.53 3582.64 3252.64 3591.96 3248.5C3598.66 3245.52 3604.52 3251.92 3610.46 3252.76C3618.57 3253.92 3633.3 3248.96 3634.65 3257.03C3636.06 3265.51 3631.42 3276.57 3637.49 3282.64C3645.3 3274.84 3635.38 3263.42 3643.19 3255.61C3656.18 3262.11 3673.83 3257.8 3684.45 3268.42C3713.68 3248.93 3696.55 3289.05 3707.21 3299.72C3715.61 3291.32 3706.12 3265.76 3718.6 3264.15C3782.4 3255.91 3869.16 3268.92 3933.45 3271.26C3934.95 3271.32 3936.47 3271.85 3937.72 3272.68C3948.82 3280.08 3936.3 3292.61 3944.83 3301.14C3951.8 3294.17 3940.75 3276.4 3953.37 3274.11C3957.29 3273.39 3990.67 3272.93 3998.9 3274.11C4007.42 3275.32 4010.73 3299.25 4020.24 3296.87C4031.28 3294.11 4040.75 3276.66 4051.55 3271.26C4054.39 3274.11 4054.39 3274.11 4057.24 3276.95C4062.92 3271.27 4059.58 3264.55 4067.2 3258.46C4077.78 3249.99 4098.22 3251.1 4109.88 3241.38C4138.34 3217.67 4175.48 3196.25 4199.53 3167.39C4210.66 3154.03 4218.92 3134.97 4229.41 3121.86C4232.26 3118.29 4239.74 3110.74 4240.79 3106.21C4243.93 3092.59 4239.37 3096.22 4239.37 3084.87C4239.37 3079.45 4249.89 3065.23 4252.17 3060.68C4260.32 3044.38 4259.18 3023.24 4266.4 3005.19C4271.01 2993.66 4277.24 2984.59 4280.63 2971.04C4284.45 2955.75 4286.01 2923.24 4300.55 2918.39C4300.55 2904.16 4298.89 2889.84 4300.55 2875.71C4300.86 2873.04 4305.04 2872.41 4306.24 2870.01C4315.02 2852.45 4309.09 2825.89 4317.62 2808.83C4324.14 2795.8 4317.92 2775.5 4324.74 2761.88C4317.49 2754.63 4323.45 2747.78 4316.2 2740.53C4312.78 2743.95 4315.09 2750.25 4313.35 2754.76C4311.3 2760.09 4304.53 2762.46 4301.97 2767.57C4294.22 2783.07 4285.83 2802.21 4276.36 2817.37C4244.06 2869.05 4201.06 2915.43 4158.26 2958.23C4153.74 2962.75 4157.55 2970.31 4155.42 2976.73C4152.98 2984.03 4144.64 2991.42 4139.76 2996.65C4115.24 3022.93 4070.13 3049.63 4037.32 3057.83C4031.95 3059.17 4032.42 3067.9 4028.78 3072.06C4026.54 3074.63 4017.28 3078.78 4014.55 3080.6C3994.23 3094.15 3965.84 3098.96 3941.99 3107.63C3932.97 3110.91 3920.12 3119.68 3910.68 3121.86C3809.09 3145.31 3702.81 3139.41 3601.92 3111.9C3478.35 3078.2 3363.6 2984.24 3281.78 2884.24C3246.68 2841.34 3221.75 2793.67 3194.98 2749.07C3192.54 2745 3194.36 2735.02 3192.14 2730.57C3186.47 2719.23 3180.67 2726.39 3175.06 2732Z" fill="#cf2028" fill-rule="nonzero" opacity="1" stroke="none"/>
<path d="M3936.3 2796.03C3941.51 2801.24 3938.33 2802.53 3941.99 2807.41C3943.99 2810.08 3949.92 2809.78 3950.52 2813.1C3951.47 2818.32 3949.62 2825 3953.37 2828.75C3978.69 2803.43 3984.49 2757.73 3991.79 2724.88C4011.98 2634.01 3961.18 2491.73 3860.88 2463.08C3844.66 2458.44 3825.2 2449.35 3808.24 2448.85C3778.84 2447.97 3749.43 2447.42 3720.02 2447.42C3680.37 2447.42 3629.13 2478.55 3601.92 2505.76C3538.68 2569.01 3494.2 2684.45 3536.47 2768.99C3542.08 2780.22 3543.08 2794.57 3552.12 2804.56C3580.94 2836.41 3607.33 2854.25 3643.19 2868.59C3650.29 2871.43 3659.88 2880.52 3667.37 2881.4C3674.44 2882.23 3681.82 2879.67 3688.72 2881.4C3691.97 2882.21 3693.1 2886.56 3695.83 2888.51C3709.91 2898.57 3799.33 2899.5 3803.97 2898.47C3860.32 2885.95 3904.44 2843.81 3936.3 2796.03Z" fill="#fdde2c" fill-rule="nonzero" opacity="1" stroke="none"/>
<path d="M3372.84 1084.32C3391.69 1103.17 3416.3 1106.05 3441.14 1118.47C3483.3 1139.55 3524.48 1164.58 3563.51 1192.46C3589.24 1210.84 3613.86 1229.88 3638.92 1249.37C3642.19 1251.92 3662.99 1272.55 3665.95 1262.18C3671.73 1241.94 3632.09 1218.36 3623.27 1209.53C3612.03 1198.3 3604.35 1184.51 3597.65 1171.12C3585.64 1147.08 3637.63 1095.5 3651.72 1074.36C3658.55 1079.48 3656.87 1078.9 3663.11 1075.78C3681.87 1094.55 3666.66 1107.79 3680.18 1121.32C3690.52 1114.42 3695.51 1094.34 3701.52 1084.32C3713.66 1064.09 3731.41 1043.36 3747.05 1025.98C3758.82 1012.92 3781.83 997.703 3789.74 981.875C3795.62 970.112 3793.06 951.521 3802.55 942.035C3810.03 949.515 3800.18 975.186 3798.28 984.721C3792.99 1011.16 3785.24 1057.82 3811.08 1077.21C3817.45 1081.98 3834.44 1069.55 3838.12 1064.4C3852.82 1043.82 3851.72 1011.61 3848.08 986.144C3847.04 978.912 3852.15 972.947 3848.08 964.801C3856.88 955.999 3867.32 976.941 3872.27 983.298C3888.86 1004.64 3906.59 1030.68 3909.26 1058.71C3911.67 1084.03 3916.31 1103.46 3913.53 1129.85C3912.22 1142.3 3897.08 1167.14 3899.3 1178.23C3899.46 1179.04 3913.62 1188.01 3914.95 1188.19C3936.14 1191.02 3945.89 1195.03 3969.02 1192.46C4000.54 1188.96 4049.02 1131.07 4064.35 1104.24C4074.94 1085.71 4074.07 1046.07 4091.39 1034.52C4079.97 1023.11 4087.95 1007.72 4088.54 993.258C4089.3 974.77 4089.96 956.27 4089.96 937.766C4089.96 923.396 4089.69 879.153 4078.58 868.046C4070.26 876.373 4076.89 893.528 4075.74 905.04C4073.84 924.035 4064.39 992.773 4041.59 1000.37C4041.59 1011.4 4033.62 1014.79 4027.36 1023.14C4017.03 1016.25 4020.86 996.661 4014.55 986.144C3995.84 954.963 3973.88 929.92 3947.68 899.349C3960.25 886.773 3953.21 893.486 3969.02 879.429C3933.81 832.484 3944.98 765.001 3957.64 714.377C3961.69 698.18 3980.37 644.277 3967.6 634.696C3947.71 619.778 3930.05 643.372 3913.53 647.502C3870.56 658.245 3814.23 740.655 3806.81 782.674C3799.5 824.122 3799.38 867.684 3796.85 909.309C3796.64 912.813 3793.92 920.975 3789.74 922.115C3749.96 932.964 3749.81 846.163 3748.48 828.206C3747.74 818.228 3746.46 808.296 3745.63 798.326C3744.71 787.252 3743.26 767.552 3742.79 757.063C3742.14 742.778 3751.79 719.688 3738.52 714.377C3715.96 705.356 3693.93 794.16 3692.99 805.44C3692.32 813.489 3692.41 821.596 3691.56 829.629C3689.63 848.037 3646.53 862.808 3634.65 873.737C3623.54 883.958 3612.6 894.366 3601.92 905.04C3585.95 921.014 3565.57 955.528 3560.66 977.606C3557.99 989.607 3561.82 1010.02 3554.97 1020.29C3545.34 1034.74 3509.82 1032.29 3495.21 1035.94C3465 1043.49 3393.69 1063.48 3372.84 1084.32Z" fill="#f9831f" fill-rule="nonzero" opacity="1" stroke="none"/>
<path d="M4896.73 1925.23C4880.55 1941.41 4878.49 1967.53 4852.62 1977.88C4848.76 1979.42 4805.71 1997.56 4805.66 1997.8C4804.08 2005.71 4806.51 2013.97 4805.66 2021.99C4804.11 2036.74 4792.14 2046.06 4787.17 2058.98C4785.81 2062.52 4787.91 2066.64 4787.17 2070.37C4785.11 2080.65 4768.43 2091.95 4761.56 2098.82C4748.14 2112.24 4724.7 2157.68 4701.8 2150.05C4701.8 2144.81 4702.19 2139.53 4703.22 2134.39C4707.37 2113.64 4670.16 2145.08 4657.69 2134.39C4640.76 2119.89 4640.7 2097.54 4629.23 2080.33C4604.21 2105.35 4597.93 2142.97 4597.93 2175.66C4597.93 2180.58 4607.74 2187.12 4610.73 2191.31C4623.43 2209.08 4642.57 2233.3 4647.73 2253.91C4652.61 2273.45 4663.15 2295.32 4670.49 2313.67C4682.2 2342.93 4683.86 2381.01 4686.14 2411.85C4689.45 2456.48 4691.51 2502.35 4687.57 2547.02C4687.35 2549.47 4682.09 2555.96 4681.88 2558.41C4679.81 2582.11 4681.22 2606.06 4676.18 2629.55C4664.23 2685.33 4636.38 2741.76 4624.96 2798.87C4618.35 2831.93 4600.94 2875.42 4583.7 2904.16C4577.8 2913.99 4569.51 2926.77 4566.62 2938.31C4562.63 2954.28 4539.89 2975.61 4555.24 2990.96C4562.84 2998.56 4589.4 2989.25 4595.08 2988.11C4646.94 2977.74 4691.03 2963.88 4731.68 2926.93C4740.07 2919.29 4771.95 2893.54 4770.09 2884.24C4769.11 2879.34 4675.19 2886.66 4716.02 2845.83C4763.19 2798.66 4846.12 2773.64 4864 2702.12C4867.24 2689.18 4894.4 2654.26 4885.35 2645.2C4875.77 2654.77 4854.63 2668.3 4841.24 2673.66C4832.8 2677.03 4819.01 2674.54 4812.78 2680.77C4802.75 2675.76 4803.78 2662.9 4814.2 2659.43C4814.2 2636.62 4838.32 2616.27 4851.2 2598.25C4870.28 2571.52 4903.47 2503.82 4901 2471.61C4900.11 2460.09 4878.37 2480.07 4878.23 2480.15C4864.09 2488.01 4816.88 2496.37 4804.24 2485.84C4770.68 2457.88 4859.52 2402.82 4846.93 2373.44C4841.66 2361.14 4830.83 2382.91 4827.01 2384.82C4813.49 2391.58 4758.94 2426.02 4748.75 2413.28C4733.6 2394.34 4762.45 2317.22 4775.78 2299.45C4782.5 2290.49 4776.31 2275.18 4782.9 2265.3C4789.84 2254.89 4793.16 2262.52 4798.55 2255.34C4799.19 2254.49 4799.94 2253.55 4799.97 2252.49C4800.42 2238.27 4799.09 2224.01 4799.97 2209.81C4800.13 2207.38 4806.64 2201.77 4807.09 2199.85C4811.34 2181.4 4800.53 2151.49 4809.93 2135.82C4827.14 2107.14 4857.87 2098.64 4885.35 2080.33C4878.54 2071.82 4885.9 2068.76 4882.5 2064.67C4865.79 2044.62 4844.62 2044.12 4856.89 2013.45C4863.23 1997.6 4911.27 1934.93 4896.73 1925.23Z" fill="#fdde2c" fill-rule="nonzero" opacity="1" stroke="none"/>
<path d="M2792.31 2013.45C2785.97 2019.8 2787.83 2022.81 2778.08 2027.68C2775.95 2025.55 2775.95 2025.55 2773.82 2023.41C2771 2026.23 2759.94 2041.35 2759.59 2041.91C2757.94 2044.5 2770.95 2068.19 2772.39 2071.79C2780.94 2093.16 2812.6 2141.83 2805.12 2164.27C2789.86 2149.02 2762.53 2132.11 2739.67 2134.39C2725.29 2135.83 2750 2176.55 2719.75 2161.43C2702.66 2178.52 2739.72 2230.32 2746.78 2246.8C2761.07 2280.15 2784.25 2312.25 2795.16 2344.98C2798.99 2356.48 2813.62 2366.17 2816.5 2379.13C2818.95 2390.13 2822.53 2407.17 2826.46 2418.97C2827.63 2422.48 2832.68 2423.91 2833.58 2427.5C2835.45 2435.01 2835.22 2446.3 2837.85 2453.12C2845.35 2472.62 2873.42 2504.44 2873.42 2525.68C2873.42 2542.64 2808.49 2545.93 2798.01 2544.18C2792.56 2543.27 2761.01 2517.15 2758.16 2528.53C2755.93 2537.45 2790.57 2577.31 2799.43 2589.71C2826.67 2627.85 2862.15 2655.28 2894.76 2687.89C2911.6 2704.72 2938.06 2712.69 2955.94 2730.57C2979.38 2754.01 2956.71 2758.02 2937.45 2761.88C2933.37 2762.69 2925.86 2769.74 2921.79 2770.41C2913.62 2771.78 2895.6 2768.07 2897.61 2776.11C2904.3 2802.88 2936.14 2812.12 2954.52 2825.91C2970.31 2837.75 2989.89 2856.2 3002.9 2870.01C3015.25 2883.14 3018.55 2911.22 3018.55 2929.77C3018.55 2940.68 2998.69 2952.75 3001.47 2962.5C3012.02 2999.42 3068.4 2999.49 3098.23 2999.49C3107.82 2999.49 3125.26 2997.06 3125.26 2985.27C3125.26 2981.46 3099.73 2945.55 3095.38 2938.31C3076.62 2907.04 3067.43 2869.59 3051.27 2837.29C3040.29 2815.33 3036.35 2786.84 3028.51 2763.3C2996.34 2666.81 2992.94 2567.78 2992.94 2465.92C2992.94 2415.14 3014.6 2355.56 3034.2 2306.56C3038.88 2294.87 3064.08 2248.75 3064.08 2241.11C3064.08 2236.6 3060.45 2234.59 3058.39 2231.15C3049.93 2217.04 3062.97 2186.41 3037.05 2179.93C3018.59 2175.31 2999.51 2188.59 2994.36 2162.85C2990.59 2144 3000.33 2111.9 2985.82 2097.4C2984.87 2098.35 2983.03 2098.9 2982.98 2100.25C2982.07 2123.94 2983.89 2147.69 2982.98 2171.39C2982.17 2192.32 2959.8 2218.55 2943.14 2226.88C2937.71 2229.59 2937.04 2238.25 2930.33 2239.69C2903.3 2245.48 2901.81 2210.99 2897.61 2194.15C2892.6 2174.12 2881.32 2151.38 2874.84 2128.7C2870.66 2114.08 2856.62 2101.93 2852.07 2086.02C2851.27 2083.2 2844.83 2081.36 2843.54 2080.33C2825.79 2066.13 2806.69 2032.62 2792.31 2013.45Z" fill="#fdde2c" fill-rule="nonzero" opacity="1" stroke="none"/>
<path d="M2669.95 2315.1C2688.68 2333.83 2704.34 2358.63 2721.17 2377.7C2727.48 2384.86 2755.89 2404.42 2762.43 2414.7C2774.43 2433.55 2749.53 2467.25 2768.12 2485.84C2778.98 2474.99 2770.76 2438.32 2770.97 2431.77C2772.07 2397.61 2790.9 2342.15 2779.51 2307.98C2765.09 2264.73 2732.86 2231.83 2722.59 2185.62C2721.91 2182.53 2717.7 2171.68 2718.32 2168.54C2720.24 2158.97 2739.85 2172.55 2741.09 2161.43C2741.88 2154.34 2739.25 2147.2 2739.67 2140.09C2740.67 2123.1 2795.99 2159.42 2800.85 2164.27C2806.41 2169.83 2801.15 2180.23 2807.97 2187.04C2822.39 2176.22 2798.09 2116.07 2789.47 2098.82C2758.25 2036.39 2719.38 1975.23 2715.48 1901.04C2715.02 1892.32 2708.31 1858.42 2719.75 1846.98C2739.64 1866.87 2754.19 1905.23 2772.39 1929.5C2806.2 1974.58 2842.42 2016.34 2870.57 2063.25C2875.66 2071.73 2883.81 2080.63 2886.22 2090.29C2894.2 2122.18 2909.44 2150.88 2916.1 2184.19C2918.36 2195.5 2917.44 2213.01 2924.64 2222.61C2931.75 2232.09 2931.64 2226.77 2937.45 2232.57C2992.36 2205.12 2984.72 2157.7 2985.82 2100.25C2986.97 2040.75 2883.41 1950.45 2850.65 1915.27C2836.72 1900.31 2823.65 1884.39 2809.39 1869.74C2777.8 1837.31 2745.63 1805.44 2714.06 1772.99C2679.03 1736.99 2638.67 1677.8 2628.68 1627.85C2626.72 1618.05 2606.29 1542.3 2597.38 1546.75C2591.77 1549.56 2589.5 1568.97 2587.42 1575.21C2575.1 1612.18 2569.87 1648.52 2567.5 1687.62C2566.81 1698.99 2566.52 1710.38 2566.08 1721.76C2564.21 1769.5 2564.87 1823.44 2580.31 1869.74C2588.22 1893.47 2599.98 1915.69 2605.92 1939.46C2608.68 1950.52 2595.96 1975.13 2595.96 1990.68C2595.96 2034.63 2624.43 2070.47 2630.11 2110.21C2632.63 2127.85 2626.53 2143.57 2630.11 2161.43C2637.95 2200.66 2658.79 2234.91 2668.52 2273.83C2672.11 2288.18 2683.29 2301.75 2669.95 2315.1Z" fill="#fa5e1d" fill-rule="nonzero" opacity="1" stroke="none"/>
<path d="M3781.2 1585.17C3775.28 1579.25 3767.39 1537.17 3759.86 1523.99C3739.19 1487.82 3710.62 1452.03 3681.6 1420.12C3673.4 1428.32 3673.72 1433.69 3665.95 1441.46C3716.89 1492.4 3742.09 1552.51 3758.44 1617.89C3762.12 1632.64 3767.75 1651.74 3769.82 1664.85C3771.6 1676.12 3763.5 1716.17 3785.47 1718.92C3834.73 1725.08 3794.16 1683.29 3819.62 1674.81C3819.62 1576.45 3881.01 1465.49 3959.06 1403.04C3986.65 1380.97 4014.36 1370.11 4045.86 1357.51C4056.82 1353.12 4071.43 1359.03 4075.74 1346.13C4108.48 1346.13 4138.96 1341.86 4172.49 1341.86C4181.09 1341.86 4190.54 1348.21 4196.68 1348.97C4206.56 1350.21 4216.61 1348.61 4226.56 1348.97C4249.4 1349.82 4275.89 1365.01 4296.28 1373.16C4378.38 1406 4438.2 1453.66 4485.52 1532.52C4506.38 1567.29 4516.02 1625.93 4511.13 1666.27C4510.73 1669.6 4504.4 1670.05 4504.02 1673.39C4501.93 1691.77 4505.73 1710.46 4504.02 1728.88C4503.77 1731.55 4498.91 1731.95 4498.33 1734.57C4496.47 1742.92 4499.25 1751.96 4496.9 1760.18C4494.94 1767.04 4487.6 1772.08 4486.94 1778.68C4485.35 1794.58 4489.08 1829.9 4512.55 1814.25C4513.98 1815.67 4513.98 1815.67 4515.4 1817.1C4512.05 1823.8 4517.67 1829.63 4513.98 1837.02C4505.91 1853.14 4499.76 1869.72 4494.06 1886.82C4492.69 1890.91 4484.49 1899.57 4481.25 1903.89C4469.87 1919.06 4466 1941.39 4454.22 1956.54C4443.95 1969.73 4429.33 1983.54 4421.49 1999.22C4453.9 2031.63 4475.56 1995.67 4504.02 1970.76C4505.44 1972.19 4505.44 1972.19 4506.86 1973.61C4504.93 1977.48 4503.58 1978.06 4509.71 1982.15C4515.78 1986.19 4527.11 1966.89 4529.63 1963.65C4536.79 1954.44 4578.13 1896.13 4559.51 1886.82C4555.95 1890.38 4557.38 1891.79 4553.82 1895.35C4545.17 1886.71 4560 1871.61 4563.78 1864.05C4574.53 1842.54 4573.63 1817.29 4585.12 1797.18C4591.53 1785.95 4590.97 1771.09 4595.08 1758.76C4597.17 1752.48 4605.48 1745.09 4606.46 1738.84C4616.35 1676.22 4616.43 1616.5 4600.77 1553.87C4597.36 1540.2 4590.58 1525.31 4586.54 1511.18C4585.53 1507.62 4579.51 1507.45 4578.01 1504.07C4566.67 1478.55 4557.79 1448.24 4538.17 1425.81C4536.77 1424.22 4514.97 1404.56 4511.13 1395.93C4507.25 1387.19 4507.87 1342.01 4492.63 1340.44C4480.37 1339.17 4467.91 1341.71 4455.64 1340.44C4439.22 1338.74 4417.45 1328.46 4401.57 1320.52C4397.73 1318.6 4392.96 1320.03 4388.77 1319.09C4383.66 1317.96 4380.67 1311.6 4375.96 1310.56C4355.72 1306.06 4336.08 1297.74 4314.78 1293.48C4297.29 1289.98 4279.94 1285.13 4262.13 1280.68C4256.86 1279.36 4253.91 1273.78 4247.9 1273.56C4214.73 1272.33 4180.71 1266.36 4148.3 1273.56C4087.7 1287.03 4014.16 1315.92 3961.91 1353.24C3910.92 1389.66 3865.5 1452.15 3838.12 1506.91C3830.43 1522.29 3822.77 1537.62 3815.35 1552.44C3810.85 1561.44 3814.88 1577.2 3803.97 1583.75C3797.13 1587.85 3787.27 1582.13 3781.2 1585.17Z" fill="#fa5e1d" fill-rule="nonzero" opacity="1" stroke="none"/>
<path d="M4085.7 1528.25C4036.63 1532.14 4002.02 1550.66 3967.6 1596.55C3951.19 1618.43 3947.58 1644.83 3940.56 1670.54C3917.39 1755.5 3973.77 1828.72 4044.43 1864.05C4067.66 1875.67 4107 1876.86 4131.23 1876.86C4136.68 1876.86 4142.76 1871.99 4146.88 1871.16C4240.01 1852.54 4337.48 1729.25 4279.21 1632.12C4228.72 1547.98 4179.13 1520.86 4085.7 1528.25Z" fill="#f9831f" fill-rule="nonzero" opacity="1" stroke="none"/>
<path d="M4627.81 2081.75C4630.37 2086.87 4639.04 2124.41 4647.73 2125.86C4663.22 2128.44 4697.57 2078.83 4706.06 2064.67C4712.45 2054.03 4739.53 2058.8 4750.17 2056.14C4767.84 2051.72 4795.82 2010.49 4809.93 1996.38C4830.79 2006.8 4888.83 1943.49 4895.31 1933.77C4901.26 1939.73 4888.58 1954.33 4885.35 1960.8C4874.52 1982.46 4857.22 1999.31 4851.2 2023.41C4845.7 2045.39 4859.89 2057.48 4879.65 2047.6C4886.52 2044.17 4892.56 2038.05 4899.57 2033.37C4910.73 2025.93 4915.53 2017.41 4925.19 2007.76C4926.61 2008.47 4926.61 2008.47 4928.03 2009.18C4951.23 1985.98 4960.63 1951.49 4979.25 1926.66C4990.35 1911.86 5005.85 1882.31 5009.13 1862.63C5013.16 1838.48 5030 1810 5037.59 1787.22C5049.37 1751.87 5055.03 1706.08 5056.09 1669.12C5056.97 1638.3 5057.51 1607.46 5057.51 1576.63C5057.51 1568.51 5055.56 1560.51 5054.67 1552.44C5053.87 1545.24 5053.54 1495 5039.01 1501.22C5028.24 1505.84 5022 1532.41 5017.67 1541.06C4998.16 1580.07 4975.68 1622.19 4947.95 1659.16C4916.48 1701.12 4884.22 1741.38 4846.93 1778.68C4798.76 1826.84 4744.59 1867.88 4704.64 1923.81C4684.42 1952.13 4660.26 1985.82 4649.15 2019.14C4643.47 2036.18 4640.82 2068.73 4627.81 2081.75Z" fill="#fa5e1d" fill-rule="nonzero" opacity="1" stroke="none"/>
<path d="M3478.13 1539.64C3469.38 1540.75 3448.69 1545.61 3439.72 1548.17C3403.78 1558.44 3357.17 1600.89 3347.23 1640.66C3336.01 1685.55 3319.12 1735.86 3338.69 1781.52C3374.39 1864.81 3481.64 1908.54 3564.93 1866.9C3682.7 1808.01 3698.34 1650.47 3597.65 1568.09C3563.92 1540.5 3520.64 1534.24 3478.13 1539.64Z" fill="#f9831f" fill-rule="nonzero" opacity="1" stroke="none"/>
<path d="M3132.38 2147.2C3129.29 2150.29 3131.21 2155.97 3129.53 2160.01C3125.62 2169.39 3106.89 2178.38 3099.65 2185.62C3086.06 2199.21 3080.55 2216.38 3066.93 2228.3C3063.11 2231.65 3062.37 2228.44 3058.39 2225.46C3051.55 2232.3 3061.23 2233.66 3061.23 2241.11C3061.23 2245.76 3050.6 2259.53 3048.43 2263.87C3039.48 2281.77 3036.16 2304.06 3027.09 2322.21C3033.88 2329.01 3031.11 2337.21 3032.78 2346.4C3039.03 2380.81 3059.9 2383.35 3085.42 2370.59C3092.98 2378.14 3081.46 2436.69 3081.15 2448.85C3079.63 2509.69 3079.49 2571.49 3084 2632.4C3086.42 2665.1 3094.95 2708.4 3106.77 2739.11C3109.77 2746.93 3116.43 2754.71 3118.15 2763.3C3120.4 2774.55 3136.74 2800.2 3128.11 2808.83C3122.18 2802.9 3117.83 2799.97 3112.46 2794.6C3109.61 2797.45 3109.61 2797.45 3106.77 2800.29C3116.17 2819.1 3129.86 2833.77 3138.07 2852.94C3158.64 2900.95 3173.98 2959.44 3203.52 3003.76C3221.29 3030.42 3244.64 3055.54 3266.13 3079.18C3261.91 3084.8 3259.49 3086.77 3264.7 3091.98C3275.98 3080.71 3288.48 3093.08 3301.7 3091.98C3313.96 3090.96 3326.92 3075.3 3334.42 3067.79C3196.14 2929.51 3157.99 2704.19 3157.99 2515.72C3157.99 2444.68 3182.32 2358.79 3204.94 2290.91C3211.92 2269.99 3219.71 2251.14 3227.71 2231.15C3229.3 2227.18 3237.84 2220.77 3234.82 2215.5C3229.12 2205.51 3208.78 2200.34 3199.25 2195.58C3175.42 2183.66 3152.84 2165.61 3132.38 2147.2Z" fill="#6d0b2a" fill-rule="nonzero" opacity="1" stroke="none"/>
<path d="M3028.51 2320.79C3022.97 2326.33 3021.19 2339.9 3018.55 2347.82C3005.42 2387.2 2992.74 2423.91 2991.51 2464.5C2990.61 2494.37 2990.09 2524.25 2990.09 2554.14C2990.09 2644.66 3009.67 2756.93 3051.27 2840.13C3066.49 2870.57 3071.45 2910.2 3092.54 2938.31C3124.55 2980.99 3149.31 3027.81 3187.87 3066.37C3193.59 3072.09 3215.57 3087.22 3222.02 3096.25C3225.18 3100.68 3216.54 3102.13 3226.29 3104.79C3234.19 3106.94 3263.26 3098.21 3266.13 3090.56C3267.34 3087.33 3266.53 3083.04 3268.97 3080.6C3231.44 3039.31 3202.61 2997.67 3179.33 2951.12C3167.82 2928.09 3162.4 2902.13 3152.3 2878.55C3150.16 2873.57 3144.02 2869.36 3142.34 2864.32C3139.06 2854.49 3147.63 2862.41 3140.92 2850.09C3134.66 2838.63 3104.2 2809.83 3112.46 2797.45C3113.12 2798.11 3131.25 2820.3 3133.8 2808.83C3137.57 2791.87 3122.29 2771.02 3116.73 2756.19C3103.74 2721.54 3091.17 2672.94 3088.27 2633.82C3083.75 2572.85 3082.58 2511.35 3082.58 2450.27C3082.58 2439.55 3094.26 2373.73 3088.27 2367.74C3087.07 2366.54 3083.25 2368.66 3082.58 2369.17C3072.86 2376.45 3061.05 2380.41 3049.85 2372.01C3031.86 2358.52 3042.92 2335.2 3028.51 2320.79Z" fill="#911c2c" fill-rule="nonzero" opacity="1" stroke="none"/>
<path d="M3047.01 916.423C3043.26 920.173 3045.11 926.858 3044.16 932.075C3035.87 977.661 3033.08 1020.96 3039.89 1068.67C3041.32 1078.64 3041.36 1102.86 3048.43 1109.93C3049.85 1108.51 3049.85 1108.51 3051.27 1107.09C3062.63 1114.66 3074.56 1149.21 3082.58 1162.58C3097.4 1187.28 3120.28 1207.39 3139.49 1228.03C3149 1238.24 3176.88 1250.55 3180.76 1262.18C3206.93 1262.18 3201.09 1269.95 3219.17 1273.56C3239.55 1277.64 3256.72 1277.07 3276.09 1283.52C3276.83 1283.77 3315.92 1275.07 3317.35 1274.98C3354.74 1272.65 3393.18 1280.05 3431.18 1274.98C3437.29 1274.17 3443.67 1276.4 3449.68 1274.98C3459.71 1272.62 3508.53 1231.46 3503.75 1219.49C3503.44 1218.72 3452.91 1197.28 3448.25 1196.73C3434.12 1195.06 3419.7 1198.39 3405.57 1196.73C3402.9 1196.41 3402.11 1192.52 3399.88 1191.04C3390.46 1184.76 3369.59 1188.87 3360.04 1185.34C3356.26 1183.95 3355.35 1177.96 3351.5 1176.81C3345.14 1174.9 3338.06 1178.25 3331.58 1176.81C3328.96 1176.23 3328.41 1172.03 3325.89 1171.12C3304.66 1163.4 3280.5 1161.85 3261.86 1151.2C3201.01 1116.42 3146.91 1091.14 3095.38 1030.25C3080.91 1013.15 3059.36 980.67 3056.97 959.109C3055.68 947.554 3055.21 924.63 3047.01 916.423Z" fill="#6d0b2a" fill-rule="nonzero" opacity="1" stroke="none"/>
<path d="M3802.55 934.921C3787.9 941.714 3795.31 968.413 3786.89 981.875C3772.05 1005.63 3745.13 1025.24 3728.56 1047.33C3710.62 1071.24 3685.94 1095.44 3678.76 1124.16C3673.4 1145.59 3667.37 1163.63 3667.37 1186.77C3667.37 1251.18 3719.88 1295.76 3782.63 1277.83C3827.82 1264.92 3868.73 1229.06 3895.03 1189.61C3923.7 1146.61 3919.44 1086.62 3907.84 1040.21C3900.86 1012.32 3875.52 976.023 3853.77 959.109C3843.57 951.177 3845.77 981.151 3845.23 983.298C3840.42 1002.55 3852.83 1025.49 3845.23 1044.48C3841.79 1053.1 3825.08 1084.36 3811.08 1074.36C3788.15 1057.98 3798.28 993.949 3802.55 970.492C3804.04 962.251 3814.51 929.369 3802.55 934.921Z" fill="#fdde2c" fill-rule="nonzero" opacity="1" stroke="none"/>
<path d="M3663.11 1250.8C3665.01 1254.61 3661.98 1259.48 3663.11 1263.6C3664.81 1269.84 3682.73 1277.9 3687.29 1282.1C3709.89 1302.89 3735.61 1328.59 3751.32 1356.09C3768.3 1385.8 3775.03 1425.64 3795.43 1452.84C3800.23 1448.04 3798.28 1439.56 3799.7 1432.92C3801.97 1422.32 3811.82 1403.72 3818.2 1393.08C3847.93 1343.54 3885.35 1293.98 3933.45 1257.91C3978.66 1224.01 4041.65 1188.64 4094.23 1171.12C4118.95 1162.88 4144.41 1154.56 4168.22 1142.66C4196.98 1128.28 4239.27 1124.36 4253.59 1095.7C4228.22 1070.33 4160.02 1052.03 4124.11 1043.06C4116.4 1041.13 4091.57 1031 4085.7 1034.52C4077.26 1039.58 4074.96 1069.58 4071.47 1080.05C4061.18 1110.91 4035.1 1144.37 4011.71 1165.42C3992 1183.16 3964.91 1191.04 3939.14 1191.04C3932.96 1191.04 3907 1177.02 3902.15 1178.23C3890.8 1181.07 3882.63 1202.72 3875.11 1210.96C3858.89 1228.72 3836.12 1254.16 3812.51 1263.6C3788.06 1273.38 3745.44 1290.51 3720.02 1273.56C3709.77 1266.73 3669.97 1243.94 3663.11 1250.8Z" fill="#fa5e1d" fill-rule="nonzero" opacity="1" stroke="none"/>
<path d="M3583.43 3251.34C3583.43 3266.02 3562.98 3289.87 3562.08 3306.83C3561.19 3323.88 3562.98 3341.01 3562.08 3358.06C3561.88 3361.83 3554.48 3361.14 3552.12 3362.32C3519.18 3329.38 3463.34 3371.71 3453.94 3409.28C3449.49 3427.11 3448.25 3441.9 3448.25 3461.93C3448.25 3483.2 3478.16 3504.23 3496.63 3490.38C3503.99 3484.87 3511.29 3477.9 3517.97 3471.89C3546.5 3500.41 3552.58 3517.34 3594.81 3510.3C3602.47 3509.03 3612.79 3497.5 3620.42 3497.5C3637.91 3497.5 3642.45 3523.48 3668.8 3510.3C3716.64 3486.38 3707.88 3414.88 3688.72 3376.55C3690.31 3374.96 3705.01 3309.6 3705.79 3298.3C3706.54 3287.4 3708.05 3276.46 3707.21 3265.57C3707.06 3263.56 3704.89 3261.83 3702.95 3261.3C3679.13 3254.81 3670.5 3291.23 3644.61 3286.91C3633.26 3285.02 3637.5 3255.66 3637.49 3255.61C3637.35 3254.28 3635.72 3253.57 3634.65 3252.76C3633.8 3252.13 3632.86 3251.34 3631.8 3251.34C3624.84 3251.34 3599.99 3243.87 3591.96 3245.65C3588.62 3246.39 3586.67 3250.26 3583.43 3251.34Z" fill="#fa5e1d" fill-rule="nonzero" opacity="1" stroke="none"/>
<path d="M3950.52 3274.11C3949.1 3272.68 3949.1 3272.68 3947.68 3271.26C3941.27 3277.67 3946.18 3289.34 3944.83 3298.3C3943.39 3307.89 3928.26 3370.45 3932.03 3377.98C3920.9 3389.1 3898.39 3397.26 3893.61 3416.39C3872.72 3499.97 3930.38 3506.39 3980.4 3461.93C3989.11 3470.63 3988.5 3485.73 4000.32 3496.07C4017.02 3510.68 4053.32 3480.43 4062.93 3467.62C4071.14 3475.83 4074.17 3496.87 4088.54 3498.92C4139.6 3506.21 4156.43 3443.69 4134.07 3406.43C4121.26 3385.08 4100.18 3371.98 4081.43 3356.63C4076.98 3353 4062.1 3354.72 4061.51 3346.67C4059.76 3323.02 4062.42 3299.23 4061.51 3275.53C4061.46 3274.19 4059.8 3273.4 4058.66 3272.68C4035.69 3258.33 4025.37 3298.81 4017.4 3294.03C4010.23 3289.73 4009.24 3274.07 4001.75 3271.26C3996.77 3269.4 3989.48 3272.68 3984.67 3272.68C3982.72 3272.68 3980.94 3271.26 3978.98 3271.26C3970.44 3271.26 3961.86 3270.41 3953.37 3271.26C3952.03 3271.4 3951.47 3273.16 3950.52 3274.11Z" fill="#fa5e1d" fill-rule="nonzero" opacity="1" stroke="none"/>
<path d="M3611.88 3027.95C3635.44 3027.95 3658.6 3043.2 3683.03 3040.76C3685.68 3040.49 3750.75 3033.36 3754.17 3035.07C3767.95 3021.28 3790.9 3032.48 3805.39 3017.99C3802.67 3012.54 3803.25 3005.87 3801.12 2999.49C3697.31 2999.49 3576.86 2969.29 3526.51 2868.59C3514.74 2845.06 3489.81 2805.41 3500.9 2783.22C3492.85 2775.17 3483.43 2770.53 3476.71 2760.45C3469.68 2749.9 3471.46 2731.65 3465.33 2720.61C3461.8 2714.27 3455.74 2704.24 3455.37 2697.85C3454.03 2674.65 3456.71 2651.33 3455.37 2628.13C3455.22 2625.54 3450.33 2623.48 3448.25 2622.44C3446.12 2624.57 3446.12 2624.57 3443.98 2626.7C3425.7 2608.42 3418.23 2649.75 3414.1 2658.01C3411.33 2663.55 3400.35 2670.1 3399.88 2675.08C3395.89 2717.19 3399.06 2779.76 3416.95 2824.48C3437.81 2876.62 3478.66 2924.61 3519.4 2965.35C3528.77 2974.72 3544.49 2978.64 3553.55 2986.69C3567.72 2999.28 3580.35 3007.87 3594.81 3017.99C3601.7 3022.82 3608.09 3016.59 3611.88 3027.95Z" fill="#e73727" fill-rule="nonzero" opacity="1" stroke="none"/>
<path d="M3866.58 1876.86C3864.44 1878.99 3864.44 1878.99 3862.31 1881.12C3880.35 1917.21 3848.95 1948.49 3831 1973.61C3820.92 1987.72 3819.07 2011.7 3811.08 2027.68C3807.15 2035.55 3789.93 2071.88 3781.2 2067.52C3765.52 2059.68 3764.8 2034.97 3757.01 2021.99C3736.59 1987.95 3731.57 1937.02 3734.25 1898.2C3734.91 1888.65 3735.91 1873.54 3741.36 1862.63C3742.7 1859.95 3751.48 1840.38 3739.94 1846.98C3725.27 1855.36 3712.2 1881.11 3701.52 1893.93C3690.09 1907.65 3659.65 1932.56 3655.99 1950.84C3653.67 1962.47 3669.15 1975.2 3673.07 1984.99C3685.27 2015.5 3711.31 2047.85 3731.4 2074.63C3741.12 2087.6 3776.83 2141.48 3788.32 2144.35C3800.28 2147.34 3821.36 2113.71 3828.16 2105.94C3860.54 2068.93 3883.03 2026.35 3907.84 1984.99C3913.01 1976.37 3930.6 1956.07 3930.6 1946.58C3930.6 1941.89 3918.12 1933.97 3916.38 1932.35C3894.08 1911.59 3882.84 1898.54 3866.58 1876.86Z" fill="#6d0b2a" fill-rule="nonzero" opacity="1" stroke="none"/>
<path d="M4095.66 1609.36C4088.36 1610.39 4082.08 1612.51 4075.74 1615.05C4059.25 1621.65 4040.04 1638.07 4031.63 1654.89C4020.95 1676.24 4020.24 1698.97 4020.24 1723.19C4020.24 1774.16 4075.06 1800.02 4118.42 1800.02C4170.41 1800.02 4208.06 1747.89 4208.06 1700.42C4208.06 1685.31 4201.91 1665.34 4192.41 1653.47C4182.19 1640.69 4173.32 1626.85 4158.26 1619.32C4135.72 1608.05 4126.99 1604.93 4095.66 1609.36Z" fill="#0d0a1d" fill-rule="nonzero" opacity="1" stroke="none"/>
<path d="M4092.81 3372.28C4097.14 3376.61 4101.36 3372.87 4105.62 3376.55C4121.02 3389.9 4138.76 3413.04 4141.19 3434.89C4144.81 3467.51 4124.8 3501.25 4088.54 3496.07C4073.86 3493.98 4072.92 3471.92 4064.35 3463.35C4049.22 3474.7 4023.32 3508.56 4000.32 3493.23C3986.87 3484.26 3991.54 3468.79 3981.83 3459.08C3963.68 3475.21 3902.05 3507.06 3892.19 3467.62C3888.39 3452.44 3888.83 3422.73 3900.72 3407.86C3907.42 3399.49 3937.92 3382.55 3932.03 3373.71C3918.8 3377.02 3916.95 3360.48 3904.99 3359.48C3885.2 3357.83 3875.89 3365.82 3862.31 3379.4C3845.9 3395.8 3840.49 3472.68 3859.46 3479C3859.46 3487.04 3879.56 3506.21 3882.23 3508.88C3901.53 3528.18 3928.54 3518.84 3951.95 3518.84C3959.68 3518.84 3963.68 3530.36 3970.44 3533.07C3980.53 3537.1 3992.25 3540.3 4003.17 3543.03C4019.58 3547.13 4052.19 3536.43 4065.78 3527.38C4070.27 3524.38 4075.31 3516.87 4081.43 3515.99C4089.45 3514.85 4091.22 3518.76 4097.08 3521.69C4125.64 3535.96 4148.72 3531.23 4171.07 3508.88C4174.14 3505.8 4181.52 3496.01 4182.45 3491.81C4189.05 3462.1 4198.38 3432.03 4185.3 3399.32C4175.51 3374.84 4151.21 3353.14 4122.69 3359.48C4115.37 3361.11 4110.28 3367.41 4104.19 3369.44C4089.38 3374.38 4100 3365.1 4092.81 3372.28Z" fill="#39031c" fill-rule="nonzero" opacity="1" stroke="none"/>
<path d="M3488.09 1617.89C3461.89 1622.74 3428.03 1639.02 3419.8 1671.96C3401.02 1747.05 3429.31 1819.46 3519.4 1801.44C3569.7 1791.38 3607.43 1712.45 3580.58 1667.7C3557.28 1628.87 3528.09 1610.51 3488.09 1617.89Z" fill="#0d0a1d" fill-rule="nonzero" opacity="1" stroke="none"/>
<path d="M3937.72 2784.64C3933.07 2789.3 3934.48 2795.64 3930.6 2800.29C3914.59 2819.51 3900.76 2842.96 3879.38 2857.21C3873.82 2860.92 3869.25 2869.7 3862.31 2871.44C3839.94 2877.03 3822.18 2894.22 3796.85 2895.63C3763.14 2897.5 3737.61 2894.87 3705.79 2888.51C3698.77 2887.11 3694.64 2879.25 3688.72 2878.55C3646.33 2873.56 3582.83 2844.94 3557.81 2807.41C3521.24 2843.98 3597.24 2898.99 3620.42 2915.55C3695.46 2969.15 3798.78 2961.35 3875.11 2915.55C3902.15 2899.33 3962.54 2851.41 3953.37 2811.68C3952.46 2807.74 3945.24 2807.61 3943.41 2804.56C3939.78 2798.51 3943.27 2790.2 3937.72 2784.64Z" fill="#fda121" fill-rule="nonzero" opacity="1" stroke="none"/>
<path d="M3162.26 1434.35C3168.46 1441.78 3174.56 1446.83 3180.76 1454.27C3228.61 1409.6 3275.67 1388.31 3328.73 1361.78C3344.87 1353.71 3365.7 1343.83 3384.22 1343.28C3414.57 1342.39 3444.93 1341.86 3475.29 1341.86C3479.3 1341.86 3489.72 1347.42 3493.79 1344.71C3498.45 1341.59 3507.17 1318.78 3509.44 1311.98C3517.08 1311.98 3522.7 1310.1 3527.93 1304.86C3512.39 1289.32 3486.84 1290.83 3466.75 1283.52C3437.34 1272.83 3403.39 1270.65 3370 1276.41C3363.61 1277.51 3363.76 1287.75 3357.19 1289.21C3327.01 1295.92 3302.79 1312.37 3276.09 1327.63C3260.47 1336.55 3236.83 1333.54 3220.6 1343.28C3213.08 1347.79 3223.89 1372.54 3216.33 1383.12C3202.4 1402.63 3180.06 1418.52 3162.26 1434.35Z" fill="#fa5e1d" fill-rule="nonzero" opacity="1" stroke="none"/>
<path d="M2718.32 1841.28C2712.58 1847.03 2713.13 1854.35 2712.63 1862.63C2711.89 1874.95 2711.21 1887.28 2711.21 1899.62C2711.21 1948.64 2731.85 2004.45 2761.01 2043.33C2765.2 2039.14 2771.32 2029.99 2778.08 2033.37C2784.03 2027.42 2787.33 2025.37 2793.74 2020.57C2821.83 2048.66 2840.44 2079.89 2857.77 2110.21C2861.32 2116.43 2870.45 2121.74 2871.99 2128.7C2874.39 2139.47 2883.21 2182.6 2889.07 2188.46C2890.49 2187.04 2890.49 2187.04 2891.91 2185.62C2909.55 2203.25 2889.61 2248.76 2933.18 2242.53C2934.47 2242.35 2944.68 2233.87 2945.98 2232.57C2943.85 2230.44 2943.85 2230.44 2941.71 2228.3C2927.52 2235.4 2924.57 2209.39 2923.22 2201.27C2917.2 2165.17 2905.1 2130.38 2891.91 2097.4C2864.22 2028.16 2805.75 1978.12 2763.86 1915.27C2756.3 1903.93 2725.34 1844.79 2718.32 1841.28Z" fill="#fda121" fill-rule="nonzero" opacity="1" stroke="none"/>
<path d="M4804.24 2199.85C4790.13 2213.96 4798.62 2228.58 4797.13 2252.49C4796.68 2259.59 4784.13 2259.47 4780.05 2265.3C4775.46 2271.86 4777.52 2287.85 4775.78 2293.75C4774.52 2298.06 4766.14 2303.35 4764.4 2307.98C4755.23 2332.43 4735.32 2394.96 4745.9 2416.12C4750.17 2424.66 4770.47 2419.01 4777.21 2416.12C4783 2413.64 4786.48 2406.05 4792.86 2403.32C4811.01 2395.54 4827.17 2392.4 4839.81 2373.44C4845.47 2377.21 4842.56 2377.61 4846.93 2381.97C4864.74 2364.16 4864.15 2332.37 4866.85 2309.41C4869.24 2289.04 4887.12 2271.26 4892.46 2253.91C4895.88 2242.8 4893.61 2226.72 4896.73 2215.5C4898.47 2209.23 4912.76 2179.02 4902.42 2172.81C4898.13 2170.24 4883.55 2195.62 4881.08 2198.42C4872.83 2207.77 4827.54 2258.54 4811.36 2253.91C4791.49 2248.24 4814.79 2210.39 4804.24 2199.85Z" fill="#fda121" fill-rule="nonzero" opacity="1" stroke="none"/>
<path d="M3953.37 2245.38C3946.02 2252.73 3943.1 2254.97 3933.45 2258.18C3938.53 2265.8 3944.83 2266.01 3953.37 2268.14C3959.07 2269.57 3965.7 2278.71 3971.87 2280.95C3984.68 2285.61 4002.84 2283.37 4015.98 2288.06C4088.82 2314.08 4187.78 2301.42 4263.55 2278.1C4279.41 2273.22 4349.76 2233.4 4360.31 2243.95C4372.18 2232.09 4384.72 2215.28 4397.3 2202.69C4404.52 2195.47 4426.57 2184.6 4430.03 2174.23C4436.48 2174.23 4439.19 2170.5 4444.26 2167.12C4432.36 2155.22 4415.84 2173.07 4404.42 2179.93C4379.35 2194.97 4352.59 2202.01 4323.31 2212.65C4317 2214.95 4321.53 2217.45 4316.2 2218.34C4291.22 2222.51 4263.09 2235.51 4235.1 2241.11C4162.27 2255.67 4090.08 2260.03 4017.4 2249.65C4001.32 2247.35 3981.1 2239.62 3964.75 2241.11C3959.64 2241.57 3959.92 2248.65 3953.37 2245.38Z" fill="#cf2028" fill-rule="nonzero" opacity="1" stroke="none"/>
<path d="M3692.99 3345.25C3683.23 3355 3695.49 3366.94 3685.87 3376.55C3702 3408.82 3714.1 3489.34 3668.8 3507.46C3659.99 3510.98 3649.77 3508.5 3640.34 3507.46C3633.85 3506.74 3627.76 3494.65 3620.42 3494.65C3612.79 3494.65 3602.47 3506.18 3594.81 3507.46C3556.16 3513.9 3542.37 3499.67 3519.4 3469.04C3499.11 3487.29 3481.04 3501.83 3458.21 3479C3451.26 3472.04 3455.74 3462.52 3445.41 3459.08C3445.41 3426.85 3446.09 3442.19 3428.33 3432.05C3427.83 3431.76 3421.44 3426.24 3418.37 3427.78C3407.66 3433.13 3410.6 3489.61 3419.8 3500.34C3444.09 3528.68 3456.61 3533.07 3492.36 3533.07C3504.93 3533.07 3522.52 3508.21 3533.63 3513.15C3545.38 3518.37 3551.1 3541.3 3564.93 3543.03C3598.16 3547.18 3604.82 3536.96 3627.53 3515.99C3635.65 3521.4 3642.26 3529.05 3650.3 3533.07C3668.68 3542.26 3686.23 3530.16 3698.68 3518.84C3737.68 3483.39 3742.8 3455.23 3741.36 3400.74C3740.99 3386.72 3728.65 3366.69 3718.6 3356.63C3712.84 3350.88 3704.45 3356.37 3698.68 3355.21C3695.02 3354.48 3695.54 3347.81 3692.99 3345.25Z" fill="#39031c" fill-rule="nonzero" opacity="1" stroke="none"/>
<path d="M3480.98 2413.28C3492.41 2436.14 3517.46 2413.28 3533.63 2413.28C3543.21 2413.28 3552.95 2407.58 3562.08 2407.58C3570.71 2407.58 3578.58 2411.64 3587.69 2410.43C3598.69 2408.96 3607.89 2395.78 3617.57 2393.36C3651.97 2384.76 3680.37 2366.16 3718.6 2359.21C3754.78 2352.63 3805.96 2346.49 3840.96 2362.05C3850.31 2366.2 3911.27 2401.13 3914.95 2391.93C3917.09 2386.58 3894.61 2371.26 3890.76 2369.17C3880.91 2363.79 3816.86 2329.57 3815.35 2325.06C3787.07 2325.06 3758.82 2310.67 3727.13 2312.25C3694.95 2313.86 3644.45 2321.74 3617.57 2337.86C3613.49 2340.32 3603.13 2338.87 3599.08 2340.71C3591.68 2344.07 3582.9 2351.93 3574.89 2354.94C3561.07 2360.12 3545.6 2363.97 3532.2 2372.01C3513.63 2383.15 3499.11 2401.19 3480.98 2413.28Z" fill="#e73727" fill-rule="nonzero" opacity="1" stroke="none"/>
<path d="M4482.67 897.926C4474.73 905.87 4479.35 933.068 4476.98 944.881C4471.96 969.981 4458.64 1000.06 4447.1 1023.14C4418.08 1081.18 4379.95 1140.09 4333.27 1186.77C4322.46 1197.58 4299.45 1197.82 4290.59 1206.69C4294.34 1210.44 4301.25 1207.75 4306.24 1209.53C4318.64 1213.96 4311.3 1228.37 4320.47 1232.3C4339.27 1240.36 4399.84 1189.05 4418.65 1179.65C4430.98 1173.49 4436.01 1148.69 4448.53 1144.08C4455.26 1141.6 4464.79 1146.31 4469.87 1141.24C4465.04 1136.4 4460.47 1140.38 4455.64 1135.54C4487.05 1072.73 4497.06 1011.53 4492.63 936.343C4492.06 926.611 4488.91 904.157 4482.67 897.926Z" fill="#6d0b2a" fill-rule="nonzero" opacity="1" stroke="none"/>
<path d="M3969.02 878.006C3953.34 891.727 3961.41 884.617 3944.83 899.349C3962.95 926.526 3988.92 944.848 4003.17 973.338C4007.67 982.344 4021.64 1025.4 4023.09 1025.98C4028.46 1028.13 4062.08 983.187 4065.78 973.338C4083.37 926.413 4091.58 840.599 4045.86 804.017C4039.17 798.667 4029.72 813.543 4028.78 818.246C4024.67 838.818 3998.15 907.134 3969.02 878.006Z" fill="#fa5e1d" fill-rule="nonzero" opacity="1" stroke="none"/>
<path d="M2782.35 2310.83C2771.72 2310.03 2778.08 2331.27 2778.08 2340.71C2778.08 2353.52 2777.39 2366.33 2776.66 2379.13C2773.62 2432.4 2751.88 2508.44 2806.54 2547.02C2815.19 2553.13 2876.26 2544.33 2876.26 2522.84C2876.26 2504.9 2855.22 2487.02 2849.23 2473.04C2842.12 2456.45 2834.02 2433.41 2829.31 2416.12C2826.9 2407.28 2829.23 2397.51 2823.62 2389.09C2817.4 2379.75 2800.48 2356.11 2798.01 2344.98C2795.45 2333.47 2794.71 2311.75 2782.35 2310.83Z" fill="#f9831f" fill-rule="nonzero" opacity="1" stroke="none"/>
<path d="M3651.72 1068.67C3645.11 1075.29 3594.89 1142.09 3594.81 1142.66C3593.31 1153.62 3593.49 1173.4 3600.5 1183.92C3610.55 1198.99 3674.85 1273.2 3692.99 1255.06C3678.65 1226.39 3670.22 1201.48 3670.22 1166.85C3670.22 1138.13 3689.19 1110.88 3675.91 1084.32C3669.79 1072.08 3659.66 1076.61 3651.72 1068.67Z" fill="#fda121" fill-rule="nonzero" opacity="1" stroke="none"/>
<path d="M2770.97 2669.39C2756.79 2683.57 2781.95 2733.54 2799.43 2740.53C2800.31 2740.89 2801.43 2740.96 2802.27 2740.53C2805.84 2738.75 2803.97 2732.33 2807.97 2732C2818.62 2731.11 2823.08 2735.13 2832.15 2736.27C2839.18 2737.14 2838.87 2742.77 2844.96 2744.8C2857.56 2749 2874.83 2749.78 2887.65 2750.49C2897.38 2751.03 2892.87 2765.92 2903.3 2767.57C2919.23 2770.08 2946.86 2768.55 2960.21 2761.88C2994.79 2744.59 2912.57 2693.23 2896.18 2685.04C2890.18 2691.05 2890.13 2707.9 2877.69 2709.23C2865.9 2710.49 2853.94 2710.11 2842.11 2709.23C2835.2 2708.72 2823.5 2684.67 2817.93 2680.77C2812.25 2676.8 2784.14 2670.81 2770.97 2669.39Z" fill="#f9831f" fill-rule="nonzero" opacity="1" stroke="none"/>
<path d="M2805.12 2727.73C2790.86 2741.98 2828.82 2767.2 2840.69 2776.11C2864.5 2793.96 2885.67 2817.09 2911.83 2830.17C2935.37 2841.94 2955.26 2845.15 2975.86 2865.75C2990.72 2880.61 3008.65 2920.44 2995.78 2939.73C2992.74 2944.31 2986.11 2959.56 2981.55 2961.08C2977.29 2962.5 2972.38 2958.4 2970.17 2963.92C2963.25 2981.23 3008.75 2977.99 3011.43 2975.31C2992.96 2956.83 3020.14 2947.37 3021.39 2929.77C3022.47 2914.75 3020.2 2891.67 3011.43 2879.97C2996.18 2859.64 2976.78 2837.9 2954.52 2823.06C2934.77 2809.89 2912.3 2799.81 2900.45 2776.11C2908.14 2768.42 2922.53 2780.32 2927.49 2770.41C2931.19 2763.01 2911.4 2766.43 2903.3 2764.72C2894.83 2762.94 2898.91 2748.27 2887.65 2747.65C2861.73 2746.21 2846.13 2734.93 2822.19 2730.57C2816.52 2729.54 2809.92 2730.93 2805.12 2727.73Z" fill="#fda121" fill-rule="nonzero" opacity="1" stroke="none"/>
<path d="M3162.26 1434.35C3137.4 1459.2 3100.29 1490.38 3086.85 1523.99C3080.36 1540.2 3079.26 1559.07 3071.19 1575.21C3069.24 1579.12 3062.3 1579.5 3061.23 1583.75C3058.18 1595.97 3053.6 1632.77 3055.54 1646.35C3055.73 1647.68 3057.06 1649.03 3058.39 1649.2C3074.17 1651.17 3087.64 1642.88 3101.07 1656.31C3109.09 1648.3 3111.1 1586.4 3116.73 1569.52C3130.66 1527.71 3153.12 1490.58 3182.18 1454.27C3174.04 1444.09 3173.9 1442.11 3162.26 1434.35Z" fill="#e73727" fill-rule="nonzero" opacity="1" stroke="none"/>
<path d="M4804.24 1994.95C4788.01 2011.19 4774.14 2047.76 4750.17 2053.29C4743.89 2054.74 4737.72 2056.72 4731.68 2058.98C4726.15 2061.06 4715.94 2054.92 4708.91 2057.56C4702.05 2060.13 4678.64 2099.21 4670.49 2107.36C4662.96 2114.89 4652.61 2118.12 4646.3 2124.43C4664.91 2161.65 4683.8 2124.6 4700.37 2130.13C4690.57 2149.74 4709.99 2163.2 4724.56 2148.62C4723.85 2147.2 4723.85 2147.2 4723.14 2145.78C4732.17 2136.75 4744.49 2118.27 4755.86 2114.47C4755.86 2103.8 4770.12 2095.95 4777.21 2088.86C4789.77 2076.3 4818.64 2009.35 4804.24 1994.95Z" fill="#fda121" fill-rule="nonzero" opacity="1" stroke="none"/>
<path d="M4192.41 1410.16C4176.85 1425.71 4244.69 1454.8 4257.86 1461.38C4290.34 1477.62 4319.05 1511.66 4337.54 1542.48C4342.29 1550.4 4345.06 1561.39 4351.77 1568.09C4357.19 1562.67 4366.9 1552.53 4373.11 1548.17C4378.28 1544.56 4384.76 1554.23 4387.34 1543.91C4389.94 1533.52 4368.67 1514.26 4363.15 1508.33C4353.78 1498.27 4344.42 1488.18 4334.7 1478.45C4304.15 1447.91 4244.15 1411.58 4192.41 1410.16Z" fill="#fccf75" fill-rule="nonzero" opacity="1" stroke="none"/>
<path d="M3488.09 1344.71C3494.72 1351.33 3549.56 1363.31 3563.51 1368.89C3600.93 1383.86 3636.44 1414.01 3667.37 1442.88C3675.15 1435.11 3675.02 1429.54 3683.03 1421.54C3679 1417.52 3653.74 1390.83 3651.72 1388.81C3619.29 1356.38 3584.57 1341.87 3550.7 1317.67C3539.84 1309.91 3522.04 1300.73 3509.44 1309.13C3495.54 1318.4 3498.04 1334.76 3488.09 1344.71Z" fill="#e73727" fill-rule="nonzero" opacity="1" stroke="none"/>
<path d="M4832.7 2404.74C4816.98 2420.46 4792.43 2453.27 4794.28 2477.3C4796.61 2507.61 4884.17 2489.61 4895.31 2467.34C4891.79 2463.83 4885.54 2466.51 4883.92 2461.65C4880.47 2451.3 4882.82 2430.28 4869.69 2424.66C4848.31 2415.49 4849.45 2421.49 4832.7 2404.74Z" fill="#f9831f" fill-rule="nonzero" opacity="1" stroke="none"/>
<path d="M3175.06 1250.8C3156.13 1263.8 3199.97 1285.66 3209.21 1294.9C3223.33 1309.03 3249.08 1297.37 3268.97 1299.17C3276 1299.81 3280.45 1315.59 3287.47 1319.09C3293.4 1322.06 3331.41 1299.97 3338.69 1296.33C3344.12 1293.62 3372.28 1290.65 3370 1279.25C3368.93 1273.93 3341.58 1273.57 3341.54 1273.56C3327.21 1272.46 3313.66 1272.14 3298.85 1272.14C3291.05 1272.14 3285.58 1282.03 3276.09 1280.68C3261.67 1278.62 3243.93 1268 3230.56 1265.02C3213.49 1261.23 3200.23 1262.11 3183.6 1259.33C3179.48 1258.65 3179.39 1247.82 3175.06 1250.8Z" fill="#cf2028" fill-rule="nonzero" opacity="1" stroke="none"/>
<path d="M3708.64 1492.68C3705.08 1496.24 3705.08 1496.24 3701.52 1499.8C3700.1 1499.09 3700.1 1499.09 3698.68 1498.37C3693.29 1503.76 3687.67 1506.41 3683.03 1512.6C3680.18 1509.76 3680.18 1509.76 3677.33 1506.91C3671.42 1510.85 3674.81 1512.28 3670.22 1516.87C3694.94 1547.77 3722.71 1589.56 3724.29 1630.7C3725.13 1652.51 3724.35 1674.37 3725.71 1696.15C3725.8 1697.49 3727.61 1698.05 3728.56 1699C3752.03 1675.52 3713.7 1634.33 3741.36 1612.2C3744.21 1615.05 3744.21 1615.05 3747.05 1617.89C3760.28 1611.28 3752.75 1602.11 3752.75 1583.75C3752.75 1559.77 3722.76 1513.87 3708.64 1492.68Z" fill="#fda121" fill-rule="nonzero" opacity="1" stroke="none"/>
<path d="M4485.52 2569.79C4479.03 2576.29 4480.42 2578.65 4472.71 2586.86C4437.53 2624.39 4450.51 2585.01 4425.76 2572.64C4415.67 2582.73 4420.28 2605.45 4421.49 2618.17C4425.32 2658.41 4490.4 2666.54 4491.21 2630.97C4491.65 2611.53 4493.09 2592.08 4492.63 2572.64C4492.6 2571.29 4490.74 2570.74 4485.52 2569.79Z" fill="#6d0b2a" fill-rule="nonzero" opacity="1" stroke="none"/>
<path d="M2835 2342.13C2846.32 2353.45 2842.76 2364.64 2849.23 2376.28C2865.03 2404.73 2876.88 2423.85 2903.3 2450.27C2907.56 2454.53 2909.63 2453.9 2913.26 2450.27C2907.52 2438.79 2908.37 2421.8 2904.72 2409.01C2900.41 2393.92 2890.11 2378.49 2886.22 2364.9C2883.06 2353.81 2888.3 2336.06 2874.84 2329.33C2865.94 2324.88 2862.99 2337.86 2856.34 2337.86C2847.75 2337.86 2842.46 2334.67 2835 2342.13Z" fill="#fda121" fill-rule="nonzero" opacity="1" stroke="none"/>
<path d="M3426.91 3436.31C3449.29 3425.12 3439.4 3461.61 3445.41 3467.62C3458.18 3454.84 3447.91 3438.24 3452.52 3422.09C3460.23 3395.09 3481.42 3383.09 3498.05 3360.9C3499.66 3358.76 3496.45 3355.83 3495.21 3355.21C3484.95 3350.08 3465.71 3357.87 3456.79 3362.32C3433.25 3374.1 3402.97 3412.38 3426.91 3436.31Z" fill="#6d0b2a" fill-rule="nonzero" opacity="1" stroke="none"/>
<path d="M4925.19 2004.91C4911.75 2018.35 4902.45 2032.13 4885.35 2041.91C4878.54 2045.8 4866.43 2045.17 4861.16 2050.45C4869.29 2058.58 4883.16 2060.5 4876.81 2073.21C4881.08 2077.48 4881.08 2077.48 4885.35 2081.75C4905.22 2061.87 4936.25 2056.56 4953.64 2033.37C4947.82 2027.55 4921.38 2023.9 4929.45 2007.76C4927.32 2006.34 4927.32 2006.34 4925.19 2004.91Z" fill="#c3922b" fill-rule="nonzero" opacity="1" stroke="none"/>
<path d="M4077.16 2492.96C4075.74 2494.38 4075.74 2494.38 4074.31 2495.8C4075.02 2497.22 4075.02 2497.22 4075.74 2498.65C4069.85 2504.53 4062.82 2510.14 4057.24 2515.72C4062.48 2526.2 4048.35 2519.26 4047.28 2525.68C4045.18 2538.26 4053.03 2558.47 4061.51 2566.94C4074.91 2553.54 4080.59 2548.53 4095.66 2559.83C4111.7 2543.79 4090.94 2521.34 4082.85 2507.18C4079.65 2501.59 4084.14 2497.61 4077.16 2492.96Z" fill="#e73727" fill-rule="nonzero" opacity="1" stroke="none"/>
<path d="M4465.6 2454.54C4455.09 2455.11 4455.49 2474.27 4445.68 2480.15C4435.22 2486.43 4425.04 2455.97 4418.65 2468.77C4414.85 2476.36 4453.39 2526.31 4471.29 2512.88C4486.21 2501.69 4484.72 2453.5 4465.6 2454.54Z" fill="#6d0b2a" fill-rule="nonzero" opacity="1" stroke="none"/>
<path d="M4293.43 1206.69C4286.54 1213.58 4261.06 1213.83 4257.86 1226.61C4249.7 1259.26 4316.4 1244.91 4329.01 1232.3C4321.98 1225.27 4315.37 1212.78 4293.43 1206.69Z" fill="#911c2c" fill-rule="nonzero" opacity="1" stroke="none"/>
<path d="M3640.34 3252.76C3633.6 3259.51 3637.02 3271.7 3637.49 3281.22C3638.02 3291.7 3653.09 3290.72 3658.84 3289.76C3667.73 3288.28 3678.65 3272.77 3685.87 3266.99C3676.34 3257.46 3659.03 3257.44 3640.34 3252.76Z" fill="#652530" fill-rule="nonzero" opacity="1" stroke="none"/>
<path d="M2863.46 2316.52C2854.61 2312.1 2845.79 2320.39 2837.85 2315.1C2835.71 2317.23 2835.71 2317.23 2833.58 2319.37C2836.72 2325.65 2833.14 2327.24 2827.89 2330.75C2830.22 2335.43 2833.28 2339.37 2836.42 2343.55C2836.88 2343.1 2871.45 2331.95 2871.99 2332.17C2874.43 2333.15 2877.21 2340.23 2879.11 2342.13C2885.7 2335.54 2878.4 2332.88 2886.22 2325.06C2877.34 2316.17 2872.29 2303.27 2863.46 2316.52Z" fill="#fabf2c" fill-rule="nonzero" opacity="1" stroke="none"/>
</g>
</g>
</svg>
