<?xml version="1.0" encoding="UTF-8" standalone="no"?>
<!DOCTYPE svg PUBLIC "-//W3C//DTD SVG 1.1//EN" "http://www.w3.org/Graphics/SVG/1.1/DTD/svg11.dtd">
<!-- Created with Vectornator (http://vectornator.io/) -->
<svg height="100%" stroke-miterlimit="10" style="fill-rule:nonzero;clip-rule:evenodd;stroke-linecap:round;stroke-linejoin:round;" version="1.1" viewBox="0 0 7680 4320" width="100%" xml:space="preserve" xmlns="http://www.w3.org/2000/svg" xmlns:xlink="http://www.w3.org/1999/xlink">
<defs/>
<g id="Ebene-1">
<g opacity="1">
<path d="M3680.68 2223.23C3687.42 2219.86 3696.64 2209.26 3700.14 2206.19C3723.64 2185.64 3749.81 2170.91 3770.72 2145.35C3776.15 2138.72 3790.74 2126.75 3792.62 2117.37C3795.19 2104.52 3780.74 2074.99 3778.02 2061.39C3770.18 2022.2 3764.12 1977.51 3779.24 1939.71C3781.33 1934.47 3785.54 1934.63 3788.97 1931.2C3793.27 1926.9 3789.93 1917.11 3793.84 1911.73C3812.47 1886.11 3835.98 1866.02 3869.28 1871.57C3875.57 1872.62 3886.05 1873.22 3888.75 1881.31C3907.89 1881.31 3924.11 1936.49 3926.47 1950.67C3933.48 1992.73 3931.96 2035.8 3921.6 2077.21C3920.83 2080.29 3916.17 2081.41 3915.52 2084.51C3911.28 2104.63 3911.69 2121.38 3902.13 2140.49C3918.53 2156.88 3931.93 2175.24 3949.59 2191.59C3979.69 2219.47 4017.95 2236.72 4051.8 2253.65C4075.36 2265.43 4155.52 2281.34 4178.35 2276.77C4180.6 2276.32 4180.93 2272.08 4183.22 2271.9C4202.63 2270.41 4222.16 2272.29 4241.62 2271.9C4256.99 2271.59 4273.03 2263.87 4286.64 2260.95C4383.64 2240.17 4462.98 2196.8 4531.22 2116.15C4558.05 2084.45 4575.41 2050.21 4595.71 2016.37C4610.33 1992.01 4616.19 1940.84 4621.27 1912.94C4636.89 1827.01 4628.57 1738.95 4611.53 1653.76C4608.73 1639.76 4601.35 1622.88 4599.36 1609.96C4595.22 1583.01 4585.65 1554.98 4575.03 1528.43C4571.98 1520.81 4565.61 1515.09 4562.86 1507.75C4550.1 1473.73 4539.66 1437.09 4512.97 1410.4C4504.42 1401.86 4474.07 1412.15 4463.08 1412.84C4454.17 1413.39 4445.24 1413.68 4436.31 1414.05C4423.83 1414.57 4411.03 1408.64 4401.02 1407.97C4359.71 1405.22 4318.31 1403.59 4276.91 1399.45C4228.07 1394.57 4182.75 1410.54 4140.63 1422.57C4118.6 1428.87 4096.87 1431.67 4076.14 1442.04C4014.44 1472.89 3932.63 1536.76 3905.78 1603.88C3896.25 1627.71 3874.38 1652.62 3869.28 1678.1C3867.92 1684.92 3861.98 1703.65 3857.11 1708.52C3846.21 1697.62 3858.41 1669.69 3847.38 1654.98C3810.55 1605.88 3789.05 1544.52 3739.08 1502.88C3667.82 1443.5 3580.28 1427.64 3495.72 1399.45C3483.79 1395.47 3470.47 1399.9 3458 1398.24C3419.53 1393.11 3377.52 1410.44 3341.19 1417.7C3302.56 1425.43 3259.75 1426.64 3220.72 1420.14C3212.17 1418.71 3179.34 1407.46 3174.48 1411.62C3171.17 1414.46 3171.71 1419.95 3169.62 1423.79C3151.14 1457.67 3126.06 1485.11 3113.64 1522.35C3112.29 1526.4 3109.46 1523.41 3107.56 1527.22C3098.93 1544.47 3092.45 1566.11 3086.87 1585.62C3077.65 1617.92 3074.92 1648.75 3069.84 1681.75C3069.44 1684.32 3065.23 1685.25 3064.97 1687.83C3054.54 1792.17 3053.33 1894.29 3094.17 1989.6C3102.97 2010.12 3109.83 2036.21 3123.38 2056.53C3192.92 2160.84 3309.25 2271.9 3440.96 2271.9C3486.19 2271.9 3533.58 2268.21 3576.03 2256.08C3592.42 2251.4 3608.66 2241.72 3624.7 2240.26C3637.88 2239.07 3669.14 2211.7 3680.68 2223.23Z" fill="#fbb15c" fill-rule="nonzero" opacity="1" stroke="none"/>
<path d="M3405.68 2326.66C3404.8 2327.53 3389.93 2336.05 3389.86 2336.39C3385.81 2356.64 3362.52 2370.06 3354.57 2389.93C3348.19 2405.88 3344.04 2413.84 3332.67 2425.22C3334.49 2427.04 3334.49 2427.04 3336.32 2428.87C3319.94 2445.25 3322.28 2468.11 3315.63 2489.71C3295.87 2553.93 3291.79 2622.5 3302.25 2690.48C3303.77 2700.36 3309.31 2711.44 3310.77 2719.69C3320.62 2775.51 3329.66 2835.1 3359.44 2882.74C3385.83 2924.97 3415.64 2965.71 3451.92 3001.99C3568.63 3118.7 3757.82 3136.69 3916.74 3126.1C4047.86 3117.36 4162.38 3066.62 4255.01 2974C4278.15 2950.86 4300.91 2917.42 4315.85 2890.04C4320.56 2881.4 4324.93 2852.54 4336.53 2848.67C4336.53 2838.7 4343.56 2825.61 4348.7 2817.03C4357.68 2802.07 4366.33 2759.93 4369.39 2741.59C4384.55 2650.61 4373.41 2563.18 4337.75 2479.98C4331.47 2465.31 4325.8 2446.78 4321.93 2431.3C4320.69 2426.34 4314.71 2423.1 4313.41 2417.92C4312.58 2414.59 4308.82 2399.76 4304.9 2398.45C4303.92 2398.13 4263.23 2427.19 4257.44 2430.09C4215.98 2450.82 4175.27 2462.94 4124.81 2462.94C4110.34 2462.94 4093.44 2452.02 4082.22 2445.91C4071.55 2440.09 4055.46 2438.61 4045.72 2432.52C4031.43 2423.59 4018.66 2415.34 4004.35 2408.18C3999.11 2405.56 3981.62 2418 3978.79 2419.14C3962.54 2425.64 3930.56 2430.64 3913.09 2431.3C3831.26 2434.39 3743.11 2442.79 3664.86 2416.7C3635.48 2406.91 3602.89 2389.4 3577.25 2368.03C3574.23 2365.52 3543.97 2331.58 3543.18 2331.53C3507.55 2329.07 3468.98 2333.96 3433.66 2333.96C3424.95 2333.96 3410.92 2334.53 3405.68 2326.66Z" fill="#fa894b" fill-rule="nonzero" opacity="1" stroke="none"/>
<path d="M4458.21 2307.19C4427.1 2338.3 4351.01 2396.54 4302.46 2391.15C4296.38 2390.47 4288.06 2369.51 4284.21 2364.38C4277.09 2371.5 4280.51 2368.87 4274.48 2372.9C4275.29 2374.52 4276.1 2376.14 4276.91 2377.76C4272.22 2382.45 4275.71 2389.31 4269.61 2392.37C4256.17 2399.08 4227.2 2393.15 4211.2 2391.15C4202.61 2390.07 4193.72 2385.06 4186.87 2383.85C4151.91 2377.68 4117.1 2373.7 4090.74 2347.34C4075.56 2360.35 4057.08 2383.2 4037.2 2391.15C4029.2 2394.35 4009.51 2403.02 4003.13 2409.4C4010.85 2417.12 4026.47 2417.96 4034.77 2425.22C4046.1 2435.13 4050.77 2435.86 4063.97 2439.82C4072.45 2442.36 4079.98 2452.86 4088.31 2455.64C4120.2 2466.27 4160.51 2470.24 4192.95 2460.51C4198.66 2458.79 4203.12 2452.39 4208.77 2450.77C4231.77 2444.2 4248.35 2433.72 4269.61 2425.22C4276.45 2422.48 4301.42 2395.15 4306.11 2404.53C4316.58 2425.46 4321.74 2447.26 4330.45 2469.02C4346.37 2508.83 4363.39 2550.57 4369.39 2595.57C4375.91 2644.51 4376.04 2693.14 4368.17 2740.37C4359.91 2789.92 4339.49 2839.32 4314.63 2879.09C4312.9 2881.86 4314.88 2885.9 4313.41 2888.82C4313.35 2888.96 4306.18 2894.77 4306.11 2894.91C4290.61 2925.91 4267.3 2959.27 4240.41 2986.17C4120.03 3106.54 3959.15 3123.16 3791.4 3126.1C3747.82 3126.86 3701.34 3116.09 3658.77 3106.63C3646.7 3103.95 3630.79 3103.17 3619.84 3098.11C3583.38 3081.29 3543.28 3064.97 3505.46 3043.36C3485.09 3031.72 3465.41 3010.03 3448.27 2994.68C3391.26 2943.68 3344.78 2865.46 3326.58 2792.69C3320.26 2767.39 3318.27 2742.6 3313.2 2717.25C3310.72 2704.87 3309.36 2719.41 3308.33 2711.17C3303.37 2671.5 3299.51 2635.44 3302.25 2598.01C3303.43 2581.83 3300.46 2565.46 3302.25 2549.33C3304.59 2528.29 3313.33 2508.65 3318.07 2489.71C3324.23 2465.06 3325.06 2444.99 3342.4 2427.65C3331.51 2416.76 3310.35 2414.38 3297.38 2406.97C3264.43 2388.14 3238.77 2358.09 3212.21 2331.53C3202.02 2341.72 3197.33 2365.66 3191.52 2380.2C3183.83 2399.43 3171.05 2420.47 3167.18 2439.82C3160.71 2472.16 3157.02 2505.78 3153.8 2539.6C3134.4 2743.25 3185.06 2901.07 3315.63 3047.01C3345.23 3080.08 3397.96 3135.91 3443.4 3154.09C3465.59 3162.96 3486.34 3177.32 3507.89 3184.51C3510.63 3185.42 3526.46 3190.84 3524.92 3195.46C3522.58 3202.48 3479.27 3218.47 3468.95 3224.66C3438.86 3242.71 3414.29 3269.78 3408.11 3303.75C3403.63 3328.43 3405.92 3363.7 3420.28 3382.85C3437.43 3405.71 3477.85 3400.33 3490.85 3374.33C3502.26 3351.52 3494.07 3315.14 3512.76 3296.45C3518.88 3302.58 3504.53 3340.74 3515.19 3358.51C3520.67 3367.65 3529.45 3374.76 3538.31 3379.2C3551.14 3385.61 3561.88 3391.54 3574.81 3379.2C3592.58 3362.24 3605.72 3349.28 3611.32 3326.87C3614.66 3313.52 3610.49 3291.2 3619.84 3281.85C3623.85 3285.06 3644.68 3291.7 3645.39 3295.24C3650.49 3320.74 3656.73 3351.07 3672.16 3373.11C3679.16 3383.12 3695.91 3383.53 3698.93 3392.58C3752.03 3392.58 3759.29 3350.87 3748.82 3303.75C3745.66 3289.56 3736.08 3279.91 3733 3266.03C3731.34 3258.59 3706.14 3246.16 3709.88 3236.83C3712.16 3231.13 3721.99 3234.36 3728.13 3234.4C3801.54 3234.77 3874.97 3234.41 3948.37 3235.61C3950.88 3235.65 3951.53 3242.42 3953.24 3244.13C3957.87 3241.82 3996.41 3221.7 3997.05 3219.79C4006.88 3219.79 4004.91 3216.6 4012.86 3213.71C4039.53 3204.01 4075.68 3206.28 4104.12 3201.54C4117.46 3199.32 4135.08 3193.79 4146.71 3201.54C4150.05 3198.2 4147.26 3193.97 4151.58 3191.81C4173.96 3180.61 4198.94 3172.38 4220.94 3161.39C4258.62 3142.54 4297.19 3113.38 4329.23 3087.16C4383.74 3042.57 4440.35 2987.82 4471.6 2925.33C4530.47 2807.58 4546.41 2657.12 4534.87 2522.56C4533.6 2507.71 4522.59 2487.76 4520.27 2472.67C4514.35 2434.19 4501.15 2401.15 4487.42 2366.81C4479.89 2347.99 4473.58 2322.56 4458.21 2307.19Z" fill="#f56d38" fill-rule="nonzero" opacity="1" stroke="none"/>
<path d="M4512.97 2236.61C4513.58 2235.4 4513.58 2235.4 4514.19 2234.18C4512.36 2232.36 4512.36 2232.36 4510.54 2230.53C4502.96 2238.11 4498.44 2246.78 4489.85 2253.65C4475 2265.53 4458.41 2272.96 4443.61 2285.29C4465.02 2306.69 4472.24 2341.33 4484.98 2366.81C4513.71 2424.27 4530.09 2499.33 4534.87 2563.94C4537.03 2593.07 4533.58 2630.73 4532.44 2656.41C4531.67 2673.84 4533.21 2691.31 4532.44 2708.74C4531.9 2720.77 4522.91 2735.63 4521.49 2747.67C4520.13 2759.19 4522.15 2770.39 4519.05 2781.74C4511.17 2810.64 4504.59 2842.88 4492.29 2870.57C4485.99 2884.74 4475.4 2900.1 4472.82 2915.59C4471.53 2923.31 4451.48 2943.35 4455.78 2950.88C4465.94 2968.66 4524.93 2975.22 4542.17 2975.22C4587.3 2975.22 4640.44 2945.55 4657.77 2902.21C4665.27 2883.45 4665.79 2864.73 4669.94 2845.02C4671.55 2837.38 4675.12 2829.55 4673.59 2821.9C4671.64 2812.15 4611.24 2794.83 4603.01 2786.61C4612.41 2777.22 4624.67 2769.82 4634.65 2759.84C4644.92 2749.57 4644.24 2733.22 4655.34 2722.12C4668.31 2728.6 4692.58 2722.12 4706.44 2722.12C4713.47 2722.12 4718.8 2728.58 4725.91 2729.42C4765.19 2734.04 4810.87 2733.18 4845.16 2716.04C4932.7 2672.27 4964.71 2564.84 4935.2 2476.33C4928.03 2454.81 4924.73 2424.48 4908.43 2408.18C4947.89 2368.73 4987.1 2332.58 5006.99 2282.85C5017.32 2257.05 5016.62 2221.69 5017.95 2195.24C5018.15 2191.12 5017.08 2179.08 5020.38 2175.77C5016.44 2171.84 5008.55 2171.59 5005.78 2166.04C5003.57 2161.62 5011.51 2155.41 5013.08 2152.65C5020.95 2138.89 5022.81 2113.75 5022.81 2099.12C5022.81 2077.94 5012.92 2059.56 5008.21 2040.71C5001.87 2015.36 4972.8 1984.61 4955.89 1967.7C4950.08 1961.89 4942.33 1950.24 4935.2 1954.32C4919.99 1963.01 4922.43 1987.16 4915.73 2000.55C4903.26 2025.5 4894.23 2051 4879.23 2076C4819.72 2175.19 4713.92 2211.03 4610.32 2231.75C4580.9 2237.63 4546.45 2239.84 4515.4 2239.05C4514.26 2239.02 4513.78 2237.43 4512.97 2236.61Z" fill="#41c2bd" fill-rule="nonzero" opacity="1" stroke="none"/>
<path d="M2662.21 2172.12C2670.84 2185.07 2663.32 2211.61 2665.86 2228.1C2671.12 2262.28 2682.51 2294.24 2697.5 2324.22C2709.26 2347.75 2733.82 2370.21 2753.47 2386.28C2760.49 2392.02 2784.03 2401.17 2787.54 2408.18C2788.53 2410.17 2764.31 2440.24 2761.99 2449.56C2752 2489.52 2738.87 2521.54 2738.87 2565.15C2738.87 2680.2 2825.29 2740.16 2934.77 2730.64C2973.36 2727.28 2997.29 2707.29 3030.9 2690.48C3039.52 2699.11 3033.33 2714.79 3033.33 2726.99C3033.33 2745.52 3034.33 2769.13 3035.77 2787.83C3040.88 2854.25 3070.52 2913.19 3134.33 2938.71C3157.81 2948.1 3185.28 2947.62 3209.77 2949.66C3216.45 2950.22 3234.99 2954.68 3240.19 2946.01C3241.61 2943.64 3213.66 2901.15 3210.99 2894.91C3190.44 2846.96 3169.21 2797.94 3163.53 2744.02C3154.99 2662.86 3148.59 2578.34 3161.1 2497.01C3163.22 2483.25 3161.87 2468.09 3165.97 2454.42C3177.46 2416.12 3193.38 2371.61 3212.21 2333.96C3214.26 2329.86 3230.03 2310.27 3226.81 2305.97C3213.11 2287.71 3199.97 2270.54 3190.3 2251.22C3191.52 2250 3191.52 2250 3192.74 2248.78C3172.01 2228.06 3159.05 2237.83 3130.68 2237.83C3127.96 2237.83 3126.09 2234.4 3123.38 2234.18C3106.83 2232.86 3092.09 2234.69 3075.92 2231.75C3006.67 2219.16 2936.72 2195.84 2882.45 2151.44C2844.83 2120.66 2799.88 2071.64 2783.89 2023.67C2779.61 2010.82 2756.66 1944.66 2742.52 1947.01C2730.32 1949.05 2713.47 1974.3 2706.01 1984.74C2676.38 2026.22 2653.69 2071.79 2653.69 2124.67C2653.69 2141.41 2674.23 2160.11 2662.21 2172.12Z" fill="#41c2bd" fill-rule="nonzero" opacity="1" stroke="none"/>
<path d="M3472.6 1500.45C3460.24 1502.9 3447.48 1502.53 3434.88 1502.88C3413.11 1503.49 3390.21 1511.31 3370.39 1516.27C3318.97 1529.12 3266.22 1572.86 3231.67 1616.04C3207.35 1646.45 3182.96 1688.15 3178.13 1726.77C3170.25 1789.88 3164.55 1855.29 3190.3 1915.38C3223.56 1992.99 3283.89 2042.48 3355.79 2078.43C3364.85 2082.96 3378.3 2090.75 3387.43 2093.03C3421.06 2101.44 3470.88 2100.55 3501.8 2096.68C3530.62 2093.08 3561.98 2092.76 3588.2 2079.65C3657.97 2044.76 3718.7 1990.22 3754.9 1917.81C3764.27 1899.07 3766.31 1867.99 3767.07 1846.02C3767.68 1828.18 3768.67 1810.33 3768.29 1792.48C3768.26 1791.33 3765.99 1791.19 3765.85 1790.05C3763.8 1772.65 3764.87 1754.73 3759.77 1737.72C3730.09 1638.81 3655.92 1540.48 3554.13 1511.4C3529.61 1504.39 3498.65 1495.28 3472.6 1500.45Z" fill="#fdfaf7" fill-rule="nonzero" opacity="1" stroke="none"/>
<path d="M4192.95 1500.45C4183.5 1500.62 4173.71 1502.4 4164.96 1505.31C4102.85 1526.02 4038.41 1563.73 3994.61 1622.13C3969.8 1655.21 3960.18 1690.99 3942.29 1726.77C3926.65 1758.04 3931.78 1809.47 3934.99 1839.94C3951.29 1994.83 4112.27 2121.69 4269.61 2095.46C4504.52 2056.31 4581.06 1732.8 4416.84 1568.59C4353.85 1505.59 4279.88 1498.9 4192.95 1500.45Z" fill="#fdfaf7" fill-rule="nonzero" opacity="1" stroke="none"/>
<path d="M3247.49 1201.11C3259.71 1225.55 3326.51 1246.62 3350.92 1257.09C3423.9 1288.36 3511.24 1285.38 3579.68 1326.44C3589.85 1332.55 3602.26 1334.55 3612.53 1342.26C3670.36 1385.63 3730.74 1430.74 3770.72 1490.71C3775.57 1497.98 3784.42 1504.27 3787.75 1512.61C3799.76 1542.64 3819.83 1570.02 3832.78 1600.22C3838.09 1612.62 3838.1 1643.04 3852.25 1650.11C3856.8 1645.56 3854.26 1647.01 3859.55 1645.25C3859.55 1628.96 3855.22 1603.34 3866.85 1591.71C3868.67 1593.53 3868.67 1593.53 3870.5 1595.36C3880.82 1585.04 3872.85 1557.26 3889.97 1551.55C3889.97 1528.78 3940.94 1475.97 3954.46 1459.08C3988.98 1415.92 4054.62 1356.22 4107.77 1334.96C4112.77 1332.96 4117.03 1326.56 4122.38 1325.23C4141.75 1320.38 4160.95 1309.55 4179.57 1302.11C4201.58 1293.3 4226.06 1289.2 4246.49 1278.99C4258.14 1273.16 4275.99 1271.01 4287.86 1268.04C4303.1 1264.23 4316.41 1253.65 4331.67 1248.57C4346.76 1243.54 4364.81 1239.51 4380.34 1236.4C4386.14 1235.24 4425.75 1222.39 4422.93 1218.15C4418.8 1211.96 4364.45 1214.3 4349.92 1212.06C4325.39 1208.29 4304.23 1192.37 4282.99 1185.29C4255.33 1176.07 4221.71 1170.33 4194.17 1158.52C4170.91 1148.56 4141.64 1149.05 4117.51 1140.27C4082.05 1127.38 4035.97 1124.3 3998.26 1119.59C3953.36 1113.97 3907.64 1108.48 3861.98 1107.42C3823.86 1106.53 3785.69 1105.76 3747.6 1107.42C3626.41 1112.69 3510.83 1137.15 3399.59 1181.64C3381.72 1188.79 3358.92 1196.94 3343.62 1208.41C3324.71 1222.6 3297 1211.12 3277.91 1204.76C3268.47 1201.61 3255.86 1192.74 3247.49 1201.11Z" fill="#f56d38" fill-rule="nonzero" opacity="1" stroke="none"/>
<path d="M3298.6 3028.76C3300.42 3027.54 3300.42 3027.54 3302.25 3026.32C3296.52 3017.73 3286.8 3012.71 3280.35 3004.42C3265.47 2985.29 3252.41 2964.95 3238.97 2944.8C3231.25 2952.52 3176.75 2947.19 3162.32 2943.58C3143.11 2938.78 3125.2 2932.32 3108.78 2924.11C3024.71 2882.08 3042.47 2764.15 3035.77 2690.48C3034.98 2681.77 3006.3 2704.27 3002.91 2706.3C2984.27 2717.49 2964.11 2721.85 2944.51 2725.77C2882.85 2738.1 2805.04 2722.49 2770.5 2664.93C2748.89 2628.91 2741.3 2584.31 2741.3 2542.03C2741.3 2524.62 2747.35 2508.45 2748.6 2492.14C2750.19 2471.46 2766.06 2444.1 2777.81 2427.65C2781.76 2422.11 2793.72 2415.68 2789.97 2408.18C2785.5 2399.23 2763.01 2390.66 2754.69 2383.85C2729.43 2363.19 2694.73 2330.19 2686.54 2297.45C2678.59 2265.65 2669.22 2237.03 2667.08 2203.76C2666.39 2193.17 2672.92 2176.87 2663.43 2172.12C2658.69 2169.76 2645.95 2180.35 2642.74 2183.08C2620.31 2202.05 2618.7 2235.38 2625.7 2263.38C2629.66 2279.2 2639.01 2299.1 2650.04 2313.27C2653.17 2317.3 2674.83 2336.84 2670.73 2342.48C2666.09 2348.85 2646.64 2364.13 2642.74 2368.03C2613.9 2396.87 2607.45 2453.31 2607.45 2490.93C2607.45 2506.03 2615.03 2531.85 2624.49 2544.47C2628.97 2550.44 2639.2 2559.6 2637.87 2567.59C2636.11 2578.14 2622.43 2586.73 2618.4 2596.79C2613.08 2610.11 2606.63 2624.02 2602.59 2638.16C2586.75 2693.58 2601.03 2756.25 2639.09 2798.78C2666.88 2829.84 2709.33 2854.23 2752.25 2857.19C2767.96 2858.27 2775.4 2859.61 2788.76 2857.19C2793.17 2856.38 2802.35 2851.45 2805.79 2857.19C2807.28 2859.67 2803.43 2874.17 2803.36 2875.44C2802.72 2887.19 2802.14 2898.96 2802.14 2910.73C2802.14 2927 2811.34 2950.69 2820.39 2964.26C2846.99 3004.16 2905.96 3022.14 2951.81 3006.85C2963.3 3003.02 2983.55 2985.37 2995.61 2987.38C3001.24 2988.32 3015.01 3018.46 3018.73 3022.67C3034.12 3040.11 3050.55 3050.97 3071.06 3059.18C3123.52 3080.16 3186.71 3071.73 3238.97 3054.31C3252.57 3049.78 3289.36 3019.52 3298.6 3028.76Z" fill="#119c9c" fill-rule="nonzero" opacity="1" stroke="none"/>
<path d="M3430.01 1571.02C3418.82 1571.37 3408.45 1573.37 3398.38 1575.89C3349.09 1588.21 3295.76 1625.77 3265.74 1670.8C3190.03 1784.38 3205.21 1920.55 3301.03 2016.37C3310.97 2026.32 3327.84 2039.02 3341.19 2044.36C3384.67 2061.75 3414.23 2067.48 3467.73 2067.48C3472.4 2067.48 3477.6 2063.32 3481.12 2062.61C3510.73 2056.69 3532.69 2048.9 3557.78 2030.97C3654.61 1961.81 3672.16 1893.9 3672.16 1779.1C3672.16 1773.76 3670.77 1768.51 3669.72 1763.28C3656.88 1699.08 3611.52 1619.04 3549.26 1594.14C3509.85 1578.38 3474.2 1569.65 3430.01 1571.02Z" fill="#f56d38" fill-rule="nonzero" opacity="1" stroke="none"/>
<path d="M5019.16 2174.56C5012.47 2181.25 5016.73 2183.5 5016.73 2194.03C5016.73 2206.2 5016.19 2218.37 5015.51 2230.53C5014.66 2245.94 5011.64 2268.69 5004.56 2282.85C4975.52 2340.94 4930.87 2389.83 4875.58 2431.3C4877.4 2433.13 4877.4 2433.13 4879.23 2434.95C4888.73 2427.35 4898.7 2420.35 4908.43 2413.05C4919.49 2420.43 4926.67 2462.09 4932.77 2476.33C4966.96 2556.09 4928.78 2677.76 4845.16 2713.6C4782.73 2740.36 4720.53 2719.69 4655.34 2719.69C4647.8 2719.69 4644.73 2735.75 4641.95 2740.37C4630.93 2758.74 4619.27 2773.34 4599.36 2786.61C4600.94 2791.35 4599.67 2789.35 4603.01 2792.69C4606.65 2790.88 4607.29 2789.96 4612.75 2792.69C4615.89 2794.27 4671.07 2821.36 4671.16 2821.9C4672.22 2828.3 4672.17 2834.96 4671.16 2841.37C4665.38 2877.93 4655.49 2911.79 4627.35 2939.93C4585.68 2981.59 4495.35 2984.36 4455.78 2944.8C4433.83 2966.75 4422.75 2999.71 4397.37 3021.45C4400.58 3024.66 4406.66 3021.96 4410.76 3023.89C4426.82 3031.45 4436.46 3048.77 4453.35 3055.53C4494.19 3071.86 4534.13 3076.36 4579.9 3077.43C4600.13 3077.9 4630.55 3073.4 4646.82 3060.39C4661.32 3048.79 4677.11 3037.9 4686.97 3021.45C4690.42 3015.72 4691.19 2995.31 4696.71 2993.47C4704.02 2991.03 4723.18 3004.17 4732 3005.64C4764.37 3011.03 4804.06 3015.32 4830.56 2991.03C4857.23 2966.59 4873 2948.09 4875.58 2911.94C4876.13 2904.19 4869.97 2861.43 4876.8 2855.97C4883.82 2850.35 4925.99 2855.99 4942.5 2852.32C4984.46 2843 5013.98 2824.65 5044.72 2793.91C5056.1 2782.53 5087.84 2723.47 5082.44 2709.95C5074.15 2689.23 5079.51 2665.35 5080 2643.03C5080.03 2641.88 5081.62 2641.41 5082.44 2640.59C5076.21 2634.36 5074.33 2609.37 5070.27 2599.22C5063.67 2582.72 5039.85 2568.23 5039.85 2549.33C5039.85 2542.72 5053.81 2525.07 5056.88 2518.91C5066.85 2498.99 5067.83 2467.93 5067.83 2447.12C5067.83 2420.25 5052.44 2391.98 5036.2 2371.68C5031.19 2365.42 5003.69 2342.97 5008.21 2336.39C5016.05 2324.98 5027.68 2316.93 5034.98 2304.76C5060.98 2261.43 5053.99 2209.39 5019.16 2174.56Z" fill="#119c9c" fill-rule="nonzero" opacity="1" stroke="none"/>
<path d="M4218.5 1567.37C4070.19 1581.71 3985.27 1763.66 4039.63 1899.56C4066.18 1965.91 4138.77 2019.47 4201.47 2033.41C4222.44 2038.07 4254.93 2037.06 4273.26 2037.06C4292.35 2037.06 4309.22 2027.3 4324.37 2021.24C4428.39 1979.63 4481.14 1850.22 4449.7 1740.16C4427.61 1662.87 4361.75 1587.98 4285.43 1571.02C4265.54 1566.6 4235.72 1565.71 4218.5 1567.37Z" fill="#f56d38" fill-rule="nonzero" opacity="1" stroke="none"/>
<path d="M3788.97 2118.58C3773.93 2133.62 3762.84 2153.24 3747.6 2168.47C3737.3 2178.77 3725.28 2186.98 3713.53 2194.03C3700.72 2201.71 3690.47 2214.5 3678.24 2223.23C3646.53 2245.88 3616.12 2262.71 3579.68 2273.12C3571.88 2275.35 3564.86 2280.75 3557.78 2281.64C3532.02 2284.86 3505.86 2282.85 3479.9 2282.85C3469.08 2282.85 3457.93 2276.77 3447.05 2276.77C3440.8 2276.77 3401.79 2327.64 3409.33 2335.18C3416.3 2331.69 3425.13 2334.91 3432.45 2335.18C3451.5 2335.86 3470.57 2336.39 3489.64 2336.39C3507.5 2336.39 3525.32 2333.34 3543.18 2333.96C3548.79 2334.15 3570.5 2364.93 3576.03 2370.46C3607.29 2401.72 3651.76 2410.25 3689.19 2425.22C3707.2 2432.42 3730.71 2429.62 3750.03 2432.52C3777.08 2436.58 3809.02 2439.82 3837.64 2439.82C3843.94 2439.82 3849.61 2435.34 3855.9 2434.95C3912.85 2431.47 3973.69 2432.66 4022.6 2403.32C4047.04 2388.65 4071.54 2367.76 4091.96 2347.34C4097.44 2341.86 4101.14 2329.59 4107.77 2325.44C4115.77 2320.44 4140.07 2336.24 4146.71 2336.39C4181.99 2337.19 4217.3 2337.19 4252.57 2336.39C4253.46 2336.37 4256.22 2332.57 4256.22 2331.53C4256.22 2326.6 4232.57 2281.78 4229.45 2275.55C4228.69 2274.01 4227.5 2272.22 4225.8 2271.9C4199.58 2266.99 4162.3 2274.8 4133.33 2271.9C4069.07 2265.48 4018.27 2236.98 3966.62 2202.54C3943.72 2187.27 3927.6 2156.01 3905.78 2142.92C3901.58 2140.4 3893.95 2158.51 3892.4 2162.39C3888.38 2172.44 3860.19 2233.79 3847.38 2228.1C3811.11 2211.98 3811.44 2141.06 3788.97 2118.58Z" fill="#119c9c" fill-rule="nonzero" opacity="1" stroke="none"/>
<path d="M4418.06 1215.71C4419.28 1216.93 4419.28 1216.93 4420.49 1218.15C4413.01 1229.37 4344.49 1241.97 4329.23 1246.13C4322.82 1247.88 4314.38 1255.39 4308.55 1258.3C4297.29 1263.93 4277.81 1269.94 4265.96 1272.9C4239.11 1279.62 4187.73 1291.37 4163.75 1305.76C4150.92 1313.46 4136.09 1318.87 4122.38 1322.79C4117.22 1324.27 4113.05 1330.77 4107.77 1332.53C4088.35 1339 4057.57 1358.77 4044.5 1375.12C4041.95 1378.3 4045.72 1383.21 4045.72 1387.28C4045.72 1392.99 4041.26 1401.87 4039.63 1406.75C4037.53 1413.07 4022.7 1419.92 4017.73 1423.79C4005.38 1433.39 3954.02 1481.46 3965.41 1500.45C3976.27 1493.21 3981.36 1480.89 3992.18 1473.68C3994.9 1471.86 3998.94 1473.81 4001.91 1472.46C4012.68 1467.57 4022.55 1454.23 4032.33 1449.34C4083.67 1423.67 4144.31 1389.31 4205.12 1381.2C4236.51 1377.01 4277.68 1378.38 4306.11 1378.77C4341.88 1379.26 4376.48 1390.53 4411.98 1393.37C4451.14 1396.5 4490.61 1398.11 4530.01 1397.02C4542.55 1396.67 4559.29 1385.58 4567.73 1398.24C4571.61 1394.35 4568.26 1390.75 4572.59 1387.28C4593.53 1370.54 4621.23 1365.41 4641.95 1344.7C4669.18 1317.47 4686.75 1291.61 4702.79 1259.52C4706.21 1252.69 4728.38 1203.15 4714.96 1198.68C4707.09 1196.06 4694.36 1209.55 4689.41 1214.5C4686.53 1217.37 4681.96 1214.83 4678.46 1216.93C4675.95 1218.44 4676.13 1222.78 4673.59 1224.23C4662.38 1230.64 4648.63 1237.5 4638.3 1243.7C4636.73 1244.65 4615.9 1265.68 4612.75 1254.65C4610.3 1246.08 4628.49 1227.27 4633.43 1219.36C4651.97 1189.71 4652.01 1143.39 4652.9 1108.64C4653.17 1098.28 4656.05 1077.71 4648.04 1069.7C4653.72 1058.32 4622.65 998.179 4611.53 988.171C4606.49 983.634 4600.23 970.847 4592.06 973.57C4585.21 975.855 4583.45 1006.32 4582.33 1012.51C4579.67 1027.15 4572.49 1037.24 4568.94 1050.23C4564.25 1067.44 4561.8 1085.28 4551.91 1100.12C4531.23 1131.14 4506.51 1173.34 4472.82 1192.59C4463.76 1197.77 4453.93 1205.08 4444.83 1209.63C4436.67 1213.71 4424.74 1209.03 4418.06 1215.71Z" fill="#ab3e29" fill-rule="nonzero" opacity="1" stroke="none"/>
<path d="M4068.84 1431.09C4073.25 1435.51 4071.52 1440.98 4077.35 1444.47C4081.5 1446.96 4095.74 1437.13 4099.26 1435.96C4120.05 1429.03 4143.54 1423.82 4164.96 1417.7C4170.36 1416.16 4176.41 1411.26 4182 1410.4C4259.94 1398.41 4329.73 1405.59 4405.89 1414.05C4427.54 1416.46 4452.61 1417.79 4474.03 1415.27C4484.53 1414.04 4498.9 1409.1 4509.32 1410.4C4523.93 1412.23 4534.4 1448.96 4539.74 1457.86C4549.37 1473.9 4552.93 1490.88 4560.43 1507.75C4581.7 1555.61 4600.05 1605.57 4609.1 1659.85C4643.64 1867.12 4633.84 2035.03 4470.38 2173.34C4443.66 2195.96 4412.66 2215.59 4382.77 2230.53C4353.75 2245.04 4317.63 2251.37 4286.64 2258.52C4273.9 2261.46 4257.36 2267.68 4242.84 2268.25C4221.26 2269.1 4193.62 2259.07 4178.35 2274.34C4187.79 2283.78 4212.1 2273.5 4224.59 2274.34C4227.27 2274.51 4227.62 2281.02 4229.45 2282.85C4234.85 2277.46 4231.22 2272.05 4244.06 2275.55C4249.13 2276.94 4250.3 2291.58 4253.79 2296.24C4261.08 2305.96 4277.61 2330.31 4289.08 2337.61C4289.46 2337.85 4339.78 2330.81 4341.4 2330.31C4527.01 2273.2 4645.12 2105.64 4676.02 1920.24C4682.94 1878.77 4685.57 1837.12 4686.97 1794.91C4690.7 1683.12 4657.61 1555.75 4601.8 1462.73C4593.87 1449.52 4573.31 1392.7 4562.86 1389.72C4558.5 1388.47 4553.96 1391.51 4549.47 1392.15C4529.78 1394.96 4509.73 1394.03 4489.85 1394.58C4442.91 1395.89 4397.46 1387.22 4352.35 1384.85C4337.49 1384.07 4322.31 1377.95 4307.33 1377.55C4279.35 1376.79 4251.36 1375.94 4223.37 1376.33C4182.87 1376.9 4137.34 1397.44 4101.69 1415.27C4091.5 1420.37 4076.83 1423.1 4068.84 1431.09Z" fill="#f56d38" fill-rule="nonzero" opacity="1" stroke="none"/>
<path d="M3159.88 2236.61C3165.43 2242.17 3169.29 2236.61 3175.7 2236.61C3179.56 2236.61 3195.23 2252.48 3200.04 2256.08C3211.58 2264.74 3222.4 2281.12 3235.32 2286.5C3257.5 2295.74 3284.46 2304.38 3307.12 2315.71C3313.81 2319.05 3322.67 2316.61 3330.24 2319.36C3349.93 2326.52 3374.75 2336.68 3398.38 2333.96C3412.34 2332.35 3437.58 2288.6 3447.05 2276.77C3432.62 2262.34 3409.46 2268.99 3389.86 2263.38C3362.79 2255.65 3317.82 2243.71 3296.16 2225.66C3259.86 2195.41 3222.03 2169.78 3187.87 2135.62C3080.45 2028.2 3048.14 1868.99 3063.75 1720.69C3064.67 1711.98 3063.98 1697.28 3067.41 1689.05C3068.29 1686.93 3071.95 1686.46 3072.27 1684.18C3073.65 1674.55 3071.94 1664.71 3072.27 1654.98C3073.41 1621.98 3089.19 1588.36 3100.26 1558.85C3103.58 1550 3105.45 1528.33 3116.08 1524.78C3116.08 1509.67 3126.97 1503.84 3131.9 1490.71C3138.34 1473.53 3149.15 1456.68 3158.67 1440.82C3164.52 1431.07 3179.78 1420.2 3175.7 1407.97C3168.47 1407.97 3124.37 1382.89 3123.38 1383.63C3102.24 1399.48 3090.14 1431.86 3079.57 1452.99C3034.45 1543.25 3010.31 1633.2 3001.7 1736.51C2999.01 1768.77 2997.28 1803.02 3000.48 1835.07C3004.73 1877.58 3006.24 1925.36 3019.95 1966.48C3042.28 2033.47 3062.63 2089.52 3101.48 2147.79C3115.48 2168.79 3133.4 2187.48 3150.15 2206.19C3159.8 2216.98 3175.13 2226.45 3159.88 2236.61Z" fill="#f56d38" fill-rule="nonzero" opacity="1" stroke="none"/>
<path d="M3464.08 1659.85C3404.89 1655.82 3360.88 1689.82 3333.89 1743.81C3327.14 1757.3 3318.6 1770.67 3316.85 1786.4C3307.4 1871.44 3351.13 1972.04 3447.05 1978.65C3477.02 1980.72 3515.98 1977.75 3540.74 1959.18C3593.39 1919.7 3632.77 1843.22 3613.75 1776.66C3593.02 1704.11 3532.98 1664.53 3464.08 1659.85Z" fill="#160821" fill-rule="nonzero" opacity="1" stroke="none"/>
<path d="M3700.14 1443.26C3711.2 1434.05 3705.34 1439.54 3717.18 1426.22C3702.6 1404.35 3675.2 1388.2 3655.12 1371.47C3606.6 1331.03 3547.37 1300.76 3487.2 1288.72C3444.56 1280.19 3400.32 1273.15 3359.44 1259.52C3321.25 1246.79 3285.68 1226.57 3251.14 1203.55C3255 1199.69 3258.24 1202.53 3262.09 1198.68C3257.91 1194.49 3254.16 1197.36 3248.71 1195.03C3238.02 1190.45 3222.07 1181.19 3214.64 1171.91C3192.31 1144 3175.13 1109.1 3167.18 1073.35C3160 1041.04 3158.38 1010.32 3156.23 976.003C3156.03 972.799 3153.61 959.137 3150.15 957.751C3136.16 952.154 3122.83 974.116 3116.08 980.871C3096.16 1000.79 3088.9 1027.8 3079.57 1052.66C3070.39 1077.16 3064.55 1119.41 3072.27 1145.14C3073.71 1149.92 3082.31 1154.96 3084.44 1159.74C3087.48 1166.59 3087.7 1176.8 3091.74 1184.08C3107.95 1213.25 3138.59 1239.9 3164.75 1259.52C3215.12 1297.3 3281.62 1316.23 3344.84 1328.88C3376.04 1335.12 3408.49 1334.79 3439.75 1341.05C3475.29 1348.15 3507.43 1357.52 3541.96 1369.03C3556.64 1373.93 3573.53 1381 3588.2 1387.28C3591.64 1388.76 3593.14 1393.48 3596.72 1394.58C3632.79 1405.69 3667.35 1421.39 3700.14 1443.26Z" fill="#ab3e29" fill-rule="nonzero" opacity="1" stroke="none"/>
<path d="M3072.27 1134.19C3061.05 1145.41 3075.83 1187.44 3079.57 1198.68C3080.53 1201.55 3087.23 1216.99 3082.01 1218.15C3068.43 1221.16 3016.4 1175.14 3007.78 1164.61C3004.49 1160.58 2995.18 1146.91 2989.53 1148.79C2983.45 1150.82 2988.46 1172.66 2989.53 1177.99C2994.14 1201.03 3003.85 1240.44 3018.73 1258.3C3024.33 1265.02 3020.92 1275.66 3030.9 1278.99C3030.9 1291.27 3047.39 1303.67 3054.02 1314.28C3065.74 1333.02 3084.34 1352.69 3101.48 1367.81C3105.06 1370.98 3115.34 1378.27 3117.29 1381.2C3118.93 1383.66 3117.64 1387.63 3119.73 1389.72C3122.19 1387.26 3122.49 1385.24 3125.81 1386.07C3133.25 1387.93 3139.9 1397.22 3147.71 1399.45C3164.44 1404.23 3179.52 1414.64 3196.39 1417.7C3258.66 1429.03 3319.92 1424.54 3376.47 1410.4C3389.91 1407.04 3416.07 1408.53 3426.36 1398.24C3420.99 1387.49 3407.61 1389.21 3399.59 1381.2C3412.41 1368.39 3479.84 1387.89 3498.15 1389.72C3517.75 1391.68 3536.87 1396.92 3554.13 1404.32C3561.62 1407.53 3573.04 1406.22 3580.9 1407.97C3601.99 1412.66 3628.44 1428.48 3646.6 1438.39C3672.23 1452.37 3703.98 1459.26 3726.91 1482.19C3735.81 1491.09 3738.6 1504.11 3746.38 1513.83C3750.67 1509.54 3749.26 1511.72 3751.25 1507.75C3734.65 1491.14 3725.46 1464.92 3707.45 1446.91C3680.14 1419.6 3632.23 1402.44 3597.93 1392.15C3594.92 1391.25 3591.77 1385.87 3588.2 1384.85C3558.27 1376.3 3528.15 1356.16 3496.94 1352C3471.01 1348.54 3444.95 1339.57 3417.85 1336.18C3341.96 1326.69 3262.36 1315.89 3198.82 1277.77C3161.52 1255.39 3124.6 1228.5 3099.04 1190.16C3087.83 1173.35 3085.63 1147.54 3072.27 1134.19Z" fill="#852320" fill-rule="nonzero" opacity="1" stroke="none"/>
<path d="M4346.27 1730.42C4341.01 1733.93 4340.35 1743.39 4337.75 1749.89C4332.14 1763.91 4320.23 1777.59 4307.33 1782.75C4251.88 1804.92 4211.03 1745.2 4253.79 1702.44C4270.67 1685.56 4312.19 1701.23 4315.85 1697.57C4292.97 1651.81 4206.48 1635.6 4168.61 1667.15C4107.53 1718.05 4043.86 1823.15 4110.21 1898.34C4146.79 1939.8 4189.95 1947.69 4244.06 1940.93C4276.03 1936.93 4299.04 1930.87 4323.15 1909.29C4364.14 1872.62 4365.74 1837.32 4365.74 1781.53C4365.74 1777.57 4363.43 1772.17 4362.09 1768.14C4358.22 1756.55 4355.18 1739.34 4346.27 1730.42Z" fill="#160821" fill-rule="nonzero" opacity="1" stroke="none"/>
<path d="M3987.31 3357.29C4006.34 3371.56 4008.33 3386.65 4037.2 3381.63C4057.07 3378.17 4070.63 3343.1 4074.92 3328.09C4077.94 3317.51 4057.66 3298.71 4051.8 3294.02C4054.25 3289.12 4058.11 3274.11 4066.4 3275.77C4070.13 3276.51 4074.72 3300.32 4076.14 3307.4C4077.74 3315.44 4107.3 3310.32 4090.74 3326.87C4111.68 3347.82 4125.75 3418.41 4172.27 3371.89C4178.87 3365.29 4181.65 3352.94 4186.87 3345.12C4196.52 3354.78 4194.45 3374.06 4212.42 3379.2C4263.11 3393.68 4279.17 3352.86 4269.61 3309.84C4266.94 3297.84 4258.32 3288.57 4255.01 3276.98C4253.55 3271.9 4256.36 3265.66 4253.79 3261.17C4231.95 3222.95 4181.16 3210.21 4144.28 3195.46C4128.16 3189.01 4088.83 3199.57 4071.27 3202.76C4050.41 3206.55 4028.45 3206.89 4008 3211.28C4005.46 3211.82 4005.65 3216.73 4003.13 3217.36C3999.19 3218.34 3994.96 3216.69 3990.96 3217.36C3988.72 3217.73 3986.7 3224.05 3986.09 3224.66C3978.74 3232.01 3956.71 3235.29 3949.59 3241.7C3933.38 3256.28 3920.34 3266.08 3907 3279.42C3904.97 3281.45 3908.62 3285.1 3908.22 3287.93C3905.12 3309.63 3904.59 3331.76 3905.78 3353.64C3907.1 3377.71 3939.01 3389.54 3959.32 3386.5C3969.47 3384.97 3981.24 3365.38 3987.31 3357.29Z" fill="#f97c0c" fill-rule="nonzero" opacity="1" stroke="none"/>
<path d="M4044.5 1373.9C4000.74 1395.78 3964.53 1442.85 3933.77 1479.76C3922.98 1492.71 3906.51 1508.9 3899.7 1524.78C3895.23 1535.22 3887.62 1543.52 3881.45 1552.77C3875.91 1561.07 3876.99 1577.92 3870.5 1584.41C3857.39 1571.3 3858.5 1641.42 3852.25 1647.68C3836.47 1631.91 3840.54 1600.5 3826.69 1583.19C3813.12 1566.23 3805.8 1542.62 3796.27 1523.57C3779.57 1490.16 3746.05 1449.06 3717.18 1425C3711.21 1430.38 3705.16 1435.77 3700.14 1442.04C3712.83 1457.27 3727.63 1469.03 3736.65 1487.06C3735.43 1488.28 3735.43 1488.28 3734.21 1489.5C3707.51 1462.79 3678.93 1451.51 3647.82 1435.96C3635.74 1429.91 3629.33 1422.79 3614.97 1421.35C3605.99 1420.46 3596.67 1411.19 3589.41 1407.97C3581.21 1404.32 3569.4 1403.94 3560.21 1403.1C3553.6 1402.5 3545.85 1395.85 3539.53 1394.58C3520.91 1390.86 3501.1 1384.88 3482.34 1383.63C3464.47 1382.44 3404.66 1368.83 3394.73 1378.77C3409.36 1408.03 3473.44 1392.34 3495.72 1401.89C3513.38 1409.45 3532.68 1410.56 3550.48 1416.49C3616.29 1438.43 3682.19 1456.91 3736.65 1505.31C3738.47 1504.1 3738.47 1504.1 3740.3 1502.88C3739.69 1501.66 3739.69 1501.66 3739.08 1500.45C3740.3 1499.23 3740.3 1499.23 3741.52 1498.01C3745.83 1502.33 3744.5 1503.43 3748.82 1507.75C3747.09 1511.21 3748.24 1509.54 3745.17 1512.61C3774.75 1542.19 3798.36 1576.12 3819.39 1611.18C3827.38 1624.49 3843.63 1642.22 3846.16 1657.41C3847.02 1662.59 3852.04 1671.65 3852.25 1675.67C3853.01 1690.65 3851.48 1705.7 3852.25 1720.69C3852.33 1722.27 3856.02 1723.79 3857.11 1724.34C3861.61 1719.84 3860.26 1708.08 3861.98 1701.22C3864.05 1692.92 3870.09 1686.2 3871.71 1678.1C3873.47 1669.31 3881.91 1653.96 3887.53 1646.46C3904.9 1623.31 3913.8 1593.14 3931.34 1568.59C3955.77 1534.38 3983.73 1502.02 4018.95 1478.54C4037.2 1466.37 4063.35 1457.26 4077.35 1443.26C4075.02 1438.59 4075.66 1432.28 4070.05 1429.87C4065.43 1427.89 4046.82 1443.31 4042.07 1445.69C4014.21 1459.62 3988.8 1472.14 3966.62 1498.01C3964.8 1496.8 3964.8 1496.8 3962.97 1495.58C3974.06 1473.42 3989.15 1452.37 4008 1433.52C4015.82 1425.7 4039.15 1416.39 4043.28 1406.75C4045.92 1400.61 4050.19 1379.59 4044.5 1373.9Z" fill="#e65530" fill-rule="nonzero" opacity="1" stroke="none"/>
<path d="M3921.6 1921.46C3909.81 1933.25 3926.63 1958.6 3917.95 1973.78C3890.74 2021.41 3845.16 2060.24 3799.92 1996.9C3789.28 1982.01 3789.27 1961.59 3782.89 1944.58C3780.57 1938.39 3786.48 1936.01 3781.67 1931.2C3777.64 1935.23 3770.95 1952.52 3770.72 1959.18C3769.95 1981.08 3769.5 2002.98 3769.5 2024.89C3769.5 2044.84 3777.02 2070.45 3784.1 2088.16C3787.84 2097.5 3784.45 2112.09 3787.75 2119.8C3789.53 2123.95 3795.15 2127.47 3796.27 2131.97C3800.18 2147.62 3802.7 2163.37 3810.87 2176.99C3817.68 2188.33 3837.13 2235.2 3853.46 2230.53C3873.84 2224.71 3891.63 2158.29 3907 2142.92C3905.78 2141.7 3905.78 2141.7 3904.57 2140.49C3913.07 2123.48 3913 2104.79 3917.95 2086.95C3927.97 2050.89 3933.77 2018.16 3933.77 1977.43C3933.77 1964.05 3930.89 1930.75 3921.6 1921.46Z" fill="#f97c0c" fill-rule="nonzero" opacity="1" stroke="none"/>
<path d="M4084.66 1838.72C4094.14 1829.24 4086.72 1811.97 4087.09 1798.56C4087.41 1787.16 4093.25 1769.63 4099.26 1759.63C4115.07 1733.28 4128.07 1705.26 4151.58 1681.75C4195.33 1638 4275.97 1646.83 4312.2 1695.14C4310.98 1696.35 4310.98 1696.35 4309.76 1697.57C4292.2 1680.01 4248.48 1692.6 4239.19 1715.82C4227.3 1745.55 4234.71 1770.77 4263.53 1785.18C4270.4 1788.62 4279.71 1789.92 4287.86 1788.83C4299.28 1787.31 4307.9 1784.89 4317.07 1780.31C4335.24 1771.22 4334.22 1749.77 4346.27 1737.72C4355 1746.46 4361.57 1768.45 4362.09 1780.31C4362.86 1798.15 4363.3 1816 4363.3 1833.85C4363.3 1847.62 4355.75 1861.13 4349.92 1872.79C4312.42 1947.79 4195.2 1963.91 4132.11 1916.59C4130.29 1918.42 4130.29 1918.42 4128.46 1920.24C4143.29 1935.08 4161.46 1952.6 4182 1955.53C4192.19 1956.99 4203.91 1963.66 4212.42 1964.05C4250.88 1965.8 4276.58 1963.61 4307.33 1948.23C4408.35 1897.72 4418.79 1753.06 4342.62 1676.88C4322.58 1656.85 4297.03 1653.5 4270.83 1647.68C4209.07 1633.96 4146.53 1655.63 4107.77 1707.3C4085.85 1736.54 4081 1772.04 4081 1808.3C4081 1818.51 4077.43 1831.5 4084.66 1838.72Z" fill="#fdfaf7" fill-rule="nonzero" opacity="1" stroke="none"/>
<path d="M3842.51 1869.14C3810.92 1879.67 3778.97 1919.16 3784.1 1948.23C3785.85 1958.12 3781.94 1984.01 3795.06 1988.39C3795.06 1997.5 3804.01 2004.01 3809.66 2010.29C3826.27 2028.74 3846.17 2038.27 3870.5 2028.54C3888.01 2021.53 3897.8 2003.49 3908.22 1989.6C3910.31 1986.81 3914.89 1986.48 3916.74 1983.52C3931.94 1959.19 3922.18 1921.89 3908.22 1899.56C3904.05 1892.89 3894.39 1876.11 3885.1 1872.79C3874.37 1868.96 3860.37 1869.14 3842.51 1869.14Z" fill="#fdac1b" fill-rule="nonzero" opacity="1" stroke="none"/>
<path d="M3367.96 2380.2C3367.35 2378.98 3367.35 2378.98 3366.74 2377.76C3379.53 2364.98 3388.42 2346.35 3400.81 2333.96C3394.76 2327.91 3383.8 2331.93 3375.26 2331.53C3355.91 2330.6 3340.46 2318.17 3321.72 2316.92C3307.34 2315.97 3245.21 2279.14 3236.54 2282.85C3231.01 2285.22 3226.96 2303.22 3224.37 2308.41C3221.45 2314.26 3212.06 2326.31 3210.99 2332.74C3210.07 2338.24 3223.23 2348.43 3225.59 2350.99C3246.49 2373.72 3273.45 2398.37 3301.03 2409.4C3309.38 2412.74 3328.2 2428.74 3338.75 2425.22C3345.09 2423.11 3361.46 2386.7 3367.96 2380.2Z" fill="#ab3e29" fill-rule="nonzero" opacity="1" stroke="none"/>
<path d="M4251.36 2333.96C4216.48 2333.96 4181.58 2334.75 4146.71 2333.96C4139.71 2333.8 4116.2 2319.18 4107.77 2323.01C4101.68 2325.78 4100.35 2331.7 4096.82 2336.39C4083.64 2353.97 4103.92 2360.85 4119.94 2370.46C4139.57 2382.24 4163.44 2381.06 4185.65 2386.28C4199.24 2389.48 4216.3 2394.8 4231.89 2394.8C4240.81 2394.8 4249.74 2394.8 4258.66 2394.8C4265.33 2394.8 4273.09 2396.19 4278.13 2391.15C4272.74 2385.76 4274.24 2382.87 4279.34 2377.76C4277.32 2373.71 4282.71 2369.22 4285.43 2365.6C4280.76 2358.6 4278.21 2351.16 4274.48 2343.69C4278.14 2340.03 4284.07 2339.73 4289.08 2336.39C4278.91 2323.69 4264.21 2309.55 4256.22 2296.24C4252.69 2290.35 4252.63 2281.7 4248.92 2276.77C4244.77 2271.23 4232.67 2269.27 4229.45 2276.77C4221.66 2294.97 4257.13 2316.64 4251.36 2333.96Z" fill="#e65530" fill-rule="nonzero" opacity="1" stroke="none"/>
<path d="M4442.4 2281.64C4430.28 2285.68 4418.92 2295.2 4407.11 2301.11C4385.5 2311.91 4360.72 2321.35 4338.97 2327.87C4325.23 2331.99 4280.82 2331.26 4270.83 2341.26C4274.45 2348.51 4294.98 2391.22 4302.46 2393.58C4319.65 2399.01 4341.55 2386.21 4356 2378.98C4393.55 2360.21 4429.26 2340.26 4459.43 2308.41C4462.31 2305.36 4451.87 2293.28 4442.4 2281.64Z" fill="#ab3e29" fill-rule="nonzero" opacity="1" stroke="none"/>
<path d="M3503.02 1697.57C3488.93 1703.65 3469.29 1712.91 3465.3 1732.86C3455.95 1779.63 3489.04 1818.27 3538.31 1798.56C3581.86 1781.14 3576.08 1735.34 3548.04 1707.3C3536.71 1695.97 3516.16 1691.9 3503.02 1697.57Z" fill="#fdfaf7" fill-rule="nonzero" opacity="1" stroke="none"/>
<path d="M3467.73 3392.58C3478.14 3402.99 3501.25 3393.03 3511.54 3392.58C3530.18 3391.77 3548.85 3392.58 3567.51 3392.58C3599.56 3392.58 3631.6 3392.98 3663.64 3392.58C3672.1 3392.48 3693.19 3395.89 3700.14 3388.93C3690.9 3379.69 3684.37 3384.11 3674.59 3371.89C3666.59 3361.89 3666.45 3345.5 3657.56 3336.61C3656.34 3337.82 3656.34 3337.82 3655.12 3339.04C3645.02 3333.99 3626.42 3345.1 3613.75 3341.47C3607.6 3339.72 3611.41 3333.05 3607.67 3329.31C3603.01 3333.96 3606.95 3339.93 3602.8 3345.12C3594.04 3356.07 3586.23 3366.56 3576.03 3376.76C3555.81 3396.98 3524.74 3372.73 3515.19 3353.64C3512.7 3348.66 3515.87 3291.96 3513.97 3291.59C3510.58 3290.91 3500.21 3314.61 3499.37 3317.14C3493.8 3333.85 3498.47 3359.26 3488.42 3374.33C3482.83 3382.71 3473.88 3386.43 3467.73 3392.58Z" fill="#ab3e29" fill-rule="nonzero" opacity="1" stroke="none"/>
<path d="M4302.46 2638.16C4287.57 2638.26 4285.57 2665.06 4272.04 2675.88C4264.78 2681.69 4251.18 2679.64 4242.84 2680.75C4214.96 2684.47 4196.48 2677.89 4174.7 2660.06C4170.7 2656.79 4168.36 2651.42 4163.75 2649.11C4154.37 2644.42 4143.08 2673.19 4145.5 2678.32C4149.67 2687.19 4157.47 2687.94 4163.75 2691.7C4199.25 2713 4245.17 2722.04 4280.56 2691.7C4289.22 2684.27 4325.53 2638 4302.46 2638.16Z" fill="#f56d38" fill-rule="nonzero" opacity="1" stroke="none"/>
<path d="M3439.75 2270.69C3449.43 2280.37 3463.9 2283.52 3478.69 2284.07C3498.96 2284.82 3519.24 2285.29 3539.53 2285.29C3590.85 2285.29 3641.38 2252.39 3681.89 2222.01C3671.18 2211.3 3659.72 2224.21 3649.04 2228.1C3626.37 2236.34 3602.26 2245.29 3577.25 2252.43C3540.04 2263.06 3504.79 2265.06 3465.3 2267.03C3456.71 2267.46 3445.83 2264.6 3439.75 2270.69Z" fill="#d17a44" fill-rule="nonzero" opacity="1" stroke="none"/>
<path d="M3416.63 1803.43C3366.7 1820.24 3392.32 1870.36 3437.31 1870.36C3458.39 1870.36 3468.52 1839.07 3460.43 1822.9C3450.62 1803.27 3435.24 1797.16 3416.63 1803.43Z" fill="#fdfaf7" fill-rule="nonzero" opacity="1" stroke="none"/>
<path d="M3984.88 3381.63C3992.72 3389.47 4023.64 3385.04 4033.55 3385.28C4061.94 3385.96 4090.33 3386.5 4118.73 3386.5C4124.78 3386.5 4131.17 3387.44 4135.76 3382.85C4124.14 3371.23 4113.11 3362.54 4104.12 3347.56C4100.41 3341.36 4103.26 3330.25 4095.61 3325.66C4091.68 3323.3 4070.79 3327.44 4068.84 3331.74C4067.49 3334.69 4069.16 3338.25 4068.84 3341.47C4067.85 3351.33 4047.17 3377.46 4037.2 3379.2C4027.14 3380.94 3991.87 3374.63 3984.88 3381.63Z" fill="#b84a52" fill-rule="nonzero" opacity="1" stroke="none"/>
<path d="M4199.03 1782.75C4192.87 1783.81 4187.29 1789 4184.43 1796.13C4173.01 1824.68 4196.66 1851.82 4224.59 1849.67C4242.38 1848.3 4254.45 1824.23 4246.49 1808.3C4236.45 1788.22 4219.86 1779.14 4199.03 1782.75Z" fill="#fdfaf7" fill-rule="nonzero" opacity="1" stroke="none"/>
<path d="M3774.37 2980.08C3747.26 2987.93 3736.23 3007.03 3702.58 2999.55C3690.55 2996.88 3682.43 2983.6 3670.94 2981.3C3664.99 2980.11 3641.86 2988.15 3642.95 2994.68C3644.14 3001.82 3657.76 3004.85 3662.42 3006.85C3690.5 3018.89 3725.27 3029.01 3756.12 3010.5C3761.98 3006.98 3791.99 2974.98 3774.37 2980.08Z" fill="#f56d38" fill-rule="nonzero" opacity="1" stroke="none"/>
<path d="M4269.61 2842.58C4264.22 2837.2 4265.7 2831.37 4258.66 2824.33C4257.44 2824.94 4257.44 2824.94 4256.22 2825.55C4254.4 2823.72 4254.4 2823.72 4252.57 2821.9C4230.77 2841.28 4207.66 2854.53 4178.35 2848.67C4176.62 2848.32 4139.72 2812.62 4138.19 2819.46C4135.29 2832.55 4154.06 2845.06 4162.53 2852.32C4195.71 2880.76 4239.29 2869.11 4269.61 2842.58Z" fill="#f56d38" fill-rule="nonzero" opacity="1" stroke="none"/>
<path d="M4050.58 2942.36C4043.93 2949.01 4041.92 2955.97 4037.2 2963.05C4015.98 2994.88 3993.22 3000.59 3956.89 3001.99C3950.77 3002.22 3940.53 2999.01 3936.2 2994.68C3932.55 2997.73 3932.55 2997.73 3928.9 3000.77C3949.2 3027.82 4010.52 3021.36 4032.33 2999.55C4043.72 2988.17 4045.89 2958.01 4055.45 2948.45C4053.02 2945.4 4053.02 2945.4 4050.58 2942.36Z" fill="#f56d38" fill-rule="nonzero" opacity="1" stroke="none"/>
<path d="M3617.4 3278.2C3612.23 3283.38 3614.12 3300.94 3613.75 3304.97C3612.71 3316.39 3605.1 3328.69 3607.67 3340.26C3609.59 3348.93 3652.33 3342.65 3658.77 3337.82C3651.76 3323.8 3652.52 3309.33 3647.82 3295.24C3645.41 3288 3626.96 3285.33 3617.4 3278.2Z" fill="#d1401a" fill-rule="nonzero" opacity="1" stroke="none"/>
<path d="M3191.52 2247.57C3189.69 2249.39 3189.69 2249.39 3187.87 2251.22C3197.27 2270.03 3210.77 2290.25 3225.59 2307.19C3249.08 2283.7 3212.3 2260.04 3191.52 2247.57Z" fill="#119c9c" fill-rule="nonzero" opacity="1" stroke="none"/>
<path d="M3959.32 3384.06C3968.33 3393.07 3979.53 3382.64 3987.31 3381.63C3995.35 3380.58 4003.57 3382.36 4011.65 3381.63C4012.79 3381.53 4013.27 3380.01 4014.08 3379.2C4007.89 3373.01 4000.75 3368.3 3994.61 3362.16C3991.28 3358.83 3994.39 3350.92 3989.74 3349.99C3988.49 3349.74 3987.19 3350.55 3986.09 3351.21C3981.2 3354.14 3968.96 3376.84 3959.32 3384.06Z" fill="#ab3e29" fill-rule="nonzero" opacity="1" stroke="none"/>
<path d="M3698.93 2646.68C3703.7 2653.84 3710.86 2659.09 3717.18 2664.93C3727.22 2654.89 3736.23 2637.78 3742.73 2624.78C3740.7 2623.15 3739.04 2620.93 3736.65 2619.91C3729.53 2616.86 3725.29 2630.45 3719.61 2635.73C3713.8 2641.13 3704.28 2641.32 3698.93 2646.68Z" fill="#f56d38" fill-rule="nonzero" opacity="1" stroke="none"/>
<path d="M4049.37 3286.72C4051.26 3290.5 4048.24 3293.53 4050.58 3296.45C4055.41 3302.48 4061.23 3302.72 4066.4 3309.84C4069.15 3313.62 4067.31 3319.26 4071.27 3323.22C4074.57 3319.92 4077.89 3273.93 4068.84 3272.12C4063.72 3271.09 4052.71 3284.21 4049.37 3286.72Z" fill="#f56d38" fill-rule="nonzero" opacity="1" stroke="none"/>
<path d="M4073.7 3297.67C4066.65 3294.46 4071.27 3313.04 4071.27 3320.79C4071.27 3352.98 4114.66 3312.4 4091.96 3308.62C4066.52 3304.38 4092.56 3306.26 4073.7 3297.67Z" fill="#e65530" fill-rule="nonzero" opacity="1" stroke="none"/>
</g>
</g>
</svg>
