<?xml version="1.0" encoding="UTF-8" standalone="no"?>
<!DOCTYPE svg PUBLIC "-//W3C//DTD SVG 1.1//EN" "http://www.w3.org/Graphics/SVG/1.1/DTD/svg11.dtd">
<!-- Created with Vectornator (http://vectornator.io/) -->
<svg height="100%" stroke-miterlimit="10" style="fill-rule:nonzero;clip-rule:evenodd;stroke-linecap:round;stroke-linejoin:round;" version="1.1" viewBox="0 0 7680 4320" width="100%" xml:space="preserve" xmlns="http://www.w3.org/2000/svg" xmlns:xlink="http://www.w3.org/1999/xlink">
<defs/>
<g id="Ebene-1">
<g opacity="1">
<path d="M3133.55 2779.08C3124.81 2787.83 3124.62 2816.83 3123.75 2829.52C3120.89 2870.96 3121.86 2911.42 3123.75 2952.82C3130.24 3095.67 3215.34 3213.19 3339.52 3287.7C3367.53 3304.5 3396.81 3320.15 3427.8 3332.54C3443.37 3338.77 3469.18 3341.7 3481.04 3353.56C3491.56 3343.03 3534.65 3343.75 3545.49 3343.75C3579.2 3343.75 3602.55 3359.66 3629.56 3373.17C3650.74 3383.76 3691.41 3385.45 3712.23 3387.18C3814.48 3395.7 3919.7 3395.38 4020.49 3385.78C4040.11 3383.91 4060.21 3381.34 4080.74 3378.78C4101.31 3376.21 4119.29 3361.77 4140.99 3360.56C4166.99 3359.12 4176.6 3357.42 4197.03 3361.96C4205.7 3363.89 4216.28 3370.37 4225.06 3370.37C4242.48 3370.37 4267.29 3357.7 4283.91 3352.16C4352.49 3329.3 4414.66 3289.55 4468.86 3240.06C4480.98 3228.99 4532.67 3185.86 4524.91 3174.21C4509.08 3182.12 4482.27 3193.5 4463.25 3195.23C4448.34 3196.58 4433.39 3198.03 4418.42 3198.03C4406.52 3198.03 4393.47 3191.86 4383.39 3186.82C4296.34 3143.29 4311.93 3064.2 4311.93 2969.64C4311.93 2951.5 4322.58 2901.6 4310.53 2896.78C4302.78 2893.68 4227.31 2910.99 4215.25 2912.19C4169.48 2916.77 4122.54 2922 4076.53 2922C4055.03 2922 4033.5 2917.33 4012.08 2919.2C4003.11 2919.98 4008.96 2937.32 4009.28 2941.62C4010.76 2961.62 4012.61 2992.28 3985.46 2999.06C3946.53 3008.8 3898.4 3006.07 3860.76 3006.07C3800.03 3006.07 3736.3 2998.99 3674.4 2994.86C3640.84 2992.62 3600.65 2991.54 3577.72 2964.03C3561.98 2945.14 3569.67 2906.26 3562.31 2884.17C3521.48 2884.17 3475.46 2870.81 3434.8 2864.55C3342.23 2850.31 3252.86 2829.13 3165.78 2800.1C3154.84 2796.45 3144.35 2784.48 3133.55 2779.08Z" fill="#eba486" fill-rule="nonzero" opacity="1" stroke="none"/>
<path d="M3702.42 2423.19C3709.61 2430.38 3712.49 2435.56 3723.44 2435.8C3765 2436.69 3806.58 2437.2 3848.15 2437.2C3849.62 2437.2 3850.89 2436.02 3852.35 2435.8C3970.32 2417.65 4080.34 2404.21 4195.63 2381.15C4230.24 2374.23 4262.79 2366.11 4297.92 2357.33C4302.91 2356.08 4298.71 2352.13 4303.52 2350.33C4307.67 2348.77 4313 2349.26 4316.13 2346.12C4314.73 2344.72 4314.73 2344.72 4313.33 2343.32C4325.23 2331.43 4347.98 2330.47 4363.77 2323.7C4382.31 2315.76 4406.35 2309.33 4422.62 2298.48C4425.58 2296.51 4435.71 2287.54 4439.43 2287.27C4451.08 2286.44 4462.9 2288.87 4474.46 2287.27C4476.61 2286.98 4486.46 2277.07 4488.48 2276.06C4500.45 2270.08 4516.33 2261.17 4530.51 2256.45C4575.31 2241.52 4617.92 2212.04 4660.82 2190.59C4677.23 2182.39 4693.13 2173.17 4708.46 2163.97C4714.65 2160.25 4725.7 2159.95 4732.28 2155.57C4741.35 2149.52 4756.99 2135.44 4767.31 2145.76C4802.81 2122.09 4806.67 2088.14 4802.33 2049.08C4800.65 2033.87 4777.21 2011.05 4784.12 1997.23C4762.72 1975.84 4745.19 1929.7 4712.66 1921.57C4707.77 1920.35 4695.39 1911.56 4691.64 1913.16C4671.86 1921.64 4649.07 1933.95 4632.79 1948.19C4626.09 1954.06 4619.09 1962.92 4610.38 1966.41C4547.61 1991.51 4489.07 2021.66 4424.02 2047.68C4353.47 2075.9 4268.16 2093.27 4188.63 2106.52C4176.96 2108.47 4157.74 2119.79 4147.99 2120.54C4086.1 2125.3 4014.93 2132.08 3954.63 2147.16C3951.46 2147.95 3948.09 2147.14 3944.83 2147.16C3880.37 2147.61 3815.92 2148.56 3751.47 2148.56C3705.54 2148.56 3649.48 2134.64 3607.15 2121.94C3578.48 2113.34 3545.38 2114.9 3516.07 2106.52C3458.36 2090.04 3393.98 2074.9 3339.52 2047.68C3326.74 2041.28 3308.49 2038.72 3297.49 2030.86C3294.72 2028.88 3289.89 2023.36 3286.28 2022.46C3266.45 2017.5 3243.13 2007.49 3226.03 1997.23C3202.6 1983.18 3151.74 1948.79 3144.76 1924.37C3142.67 1917.06 3132.77 1867.62 3127.95 1866.93C3116.48 1865.29 3104.97 1878.16 3095.72 1880.94C3086.62 1883.67 3077.47 1882.35 3067.7 1885.14C3036.83 1893.96 3012.49 1915.13 2989.23 1938.39C2950.79 1976.83 2939.66 2053.09 2955.61 2100.92C2958.25 2108.86 2969.9 2120.56 2975.22 2126.14C2990.03 2141.69 3004.88 2157.2 3020.06 2172.38C3028.18 2180.5 3037.72 2187.63 3046.68 2194.8C3150.3 2277.69 3271.32 2318.72 3395.57 2360.13C3437.38 2374.07 3482.37 2378.07 3524.48 2389.56C3569.31 2401.79 3613.16 2409.92 3661.79 2414.78C3673.01 2415.9 3691.54 2428.63 3702.42 2423.19Z" fill="#f0743c" fill-rule="nonzero" opacity="1" stroke="none"/>
<path d="M3116.74 1662.36C3090.24 1635.86 3119.32 1595.18 3148.97 1585.29C3154.73 1583.37 3162.73 1584.44 3168.58 1582.49C3179.24 1578.94 3191.09 1567.74 3200.81 1562.87C3296.66 1514.95 3419.38 1482.37 3531.48 1461.99C3544.09 1459.7 3557.97 1461.92 3570.72 1459.19C3588.88 1455.3 3611.49 1447.03 3630.97 1445.18C3808.48 1428.27 3991.14 1434.18 4166.21 1459.19C4248.67 1470.97 4332.35 1496.62 4411.41 1512.43C4469.12 1523.98 4528.56 1546.63 4578.15 1579.69C4609.94 1600.88 4607.08 1623.54 4621.59 1652.55C4623.91 1657.19 4629.96 1657.36 4634.2 1656.75C4650.95 1654.36 4679.21 1616.8 4683.24 1600.71C4685.05 1593.45 4676.68 1590.12 4677.63 1582.49C4680.39 1560.44 4689.01 1537.98 4686.04 1515.24C4685.7 1512.62 4680.76 1512.25 4680.43 1509.63C4678.81 1496.65 4681.69 1483.41 4680.43 1470.4C4678.88 1454.37 4669.95 1433.59 4665.02 1417.15C4659.98 1400.35 4660.53 1382.95 4652.41 1366.71C4654.51 1364.61 4654.51 1364.61 4656.61 1362.51C4603.87 1309.77 4522.59 1272.26 4457.65 1256.02C4443.31 1252.44 4428.23 1239.91 4414.21 1236.4C4398.53 1232.48 4380.74 1230.39 4365.17 1225.2C4361.53 1223.98 4356.26 1217.58 4352.56 1216.79C4333.54 1212.71 4312.29 1214.48 4292.31 1209.78C4284.97 1208.05 4273.6 1201.73 4265.69 1199.97C4253.56 1197.28 4236.59 1200.14 4225.06 1194.37C4222.69 1193.19 4222.07 1189.13 4219.45 1188.77C4201.11 1186.24 4178.45 1188.1 4159.2 1185.96C4146.81 1184.59 4130.39 1178.39 4119.97 1177.56C3964.86 1165.15 3804.34 1151.16 3649.18 1170.55C3581.31 1179.03 3517.53 1188.13 3451.62 1202.78C3418.9 1210.05 3383.17 1226.92 3352.13 1230.8C3330.55 1233.5 3306.56 1254.32 3286.28 1258.82C3262.49 1264.11 3243.27 1283.12 3220.43 1289.65C3143.12 1311.74 3086.65 1394.29 3057.89 1466.19C3040.38 1509.97 3038.86 1582.85 3053.69 1627.33C3060.53 1647.85 3095.59 1683.5 3116.74 1662.36Z" fill="#f0743c" fill-rule="nonzero" opacity="1" stroke="none"/>
<path d="M4436.63 2316.7C4431.47 2316.7 4417.28 2315.87 4412.81 2318.1C4405.93 2321.54 4411.65 2323.77 4403 2325.11C4389.12 2327.24 4370.61 2328.62 4356.77 2334.91C4352.23 2336.97 4352.81 2341.03 4348.36 2341.92C4334.06 2344.78 4310.7 2340.35 4300.72 2350.33C4304.42 2354.02 4314.2 2350.6 4314.73 2355.93C4318.63 2394.92 4309.54 2434.6 4309.13 2473.63C4308.26 2555.83 4307.73 2638.03 4307.73 2720.23C4307.73 2755.15 4315.07 2791.86 4313.33 2826.72C4313.13 2830.68 4308.04 2829.35 4306.32 2829.52C4283.62 2831.79 4266.68 2837.91 4244.67 2839.33C4161.4 2844.7 4075.46 2860.28 3989.66 2854.74C3988.34 2854.66 3986.9 2853.26 3986.86 2851.94C3985.95 2819.73 3987.21 2787.49 3986.86 2755.26C3986.74 2744.51 3985.71 2733.78 3985.46 2723.03C3984.75 2692.19 3981.66 2661.41 3981.26 2630.56C3980.33 2559.57 3982.18 2488.57 3981.26 2417.58C3981.24 2416.26 3979.39 2415.71 3978.45 2414.78C3963.25 2429.99 3976.13 2457.73 3975.65 2479.23C3975.62 2480.55 3974.16 2481.87 3972.85 2482.04C3940.88 2486.03 3907.1 2487.02 3874.77 2489.04C3869.25 2489.39 3848.77 2483.42 3848.15 2491.84C3847.08 2506.18 3848.15 2522.95 3848.15 2538.08C3848.15 2574.51 3848.52 2610.94 3848.15 2647.37C3847.81 2679.78 3838.78 2717.62 3845.34 2748.26C3849.43 2767.31 3912.05 2742.11 3926.61 2756.66C3919.09 2764.18 3845.23 2758.52 3843.94 2767.87C3840.85 2790.26 3842.54 2818.15 3842.54 2840.73C3842.54 2854.49 3836.56 2867.34 3835.53 2878.56C3834.27 2892.52 3836.41 2906.61 3835.53 2920.6C3834.88 2931.15 3776.26 2909.79 3772.48 2900.98C3772.1 2900.08 3768.28 2859.52 3768.28 2858.95C3768.28 2847.27 3769.52 2835.53 3768.28 2823.92C3760.9 2755.04 3755.95 2680.16 3759.87 2609.54C3760.89 2591.19 3764.61 2512.27 3752.87 2494.65C3744.59 2482.22 3722.26 2487.38 3708.03 2486.24C3678.12 2483.85 3614.41 2485.09 3593.13 2463.82C3582.81 2474.14 3587.12 2489.19 3581.93 2503.05C3568 2540.19 3570.3 2592.87 3567.91 2633.36C3566.72 2653.58 3565.11 2687 3565.11 2704.82C3565.11 2717.62 3566.85 2757.01 3567.91 2773.48C3570.66 2816.02 3585.75 2854.92 3591.73 2896.78C3592.91 2905.01 3593.35 2918.22 3597.34 2926.2C3600.46 2932.44 3624.54 2950.08 3630.97 2951.42C3646.98 2954.76 3663.73 2951.27 3680.01 2952.82C3733.34 2957.9 3784.36 2963.89 3838.34 2965.44C3857.02 2965.97 3875.7 2966.84 3894.38 2966.84C3906.82 2966.84 3932.38 2967.46 3944.83 2961.23C3947.82 2959.74 3951.31 2955.06 3954.63 2954.23C3961.66 2952.47 3961.89 2956.04 3967.24 2952.82C3974.98 2948.19 3976.22 2941.05 3981.26 2936.01C3982.66 2937.41 3982.66 2937.41 3984.06 2938.81C3990.2 2932.67 3981.41 2921.1 3989.66 2917.8C4005.77 2911.35 4027.84 2922.09 4040.1 2923.4C4081.02 2927.78 4125.43 2923.86 4166.21 2920.6C4204.3 2917.55 4242.09 2913.42 4279.7 2906.59C4287.52 2905.17 4306.55 2897 4311.93 2902.38C4303.57 2919.1 4310.98 2939.75 4310.53 2958.43C4309.62 2995.52 4309.13 3035.73 4309.13 3074.73C4309.13 3161.13 4377.46 3200.83 4454.85 3200.83C4471.71 3200.83 4517.89 3173.5 4527.71 3178.41C4589.88 3116.24 4622.08 3016.21 4638.4 2934.61C4643.54 2908.92 4657.93 2872.54 4652.41 2844.94C4651.44 2840.1 4638.9 2828.32 4635.6 2823.92C4618.18 2800.69 4596.05 2772.69 4585.16 2745.45C4569.04 2705.16 4548.89 2662.47 4537.52 2620.75C4531.7 2599.41 4530.93 2575.35 4520.7 2554.9C4511.76 2537.02 4517.38 2494.32 4515.1 2479.23C4514.7 2476.62 4510.17 2476.18 4509.49 2473.63C4503.55 2451.33 4515.1 2434.66 4515.1 2413.38C4515.1 2394.22 4510.8 2373.5 4508.09 2354.53C4505.76 2338.2 4512.66 2311.11 4503.89 2297.08C4500.26 2291.28 4439.96 2306.73 4436.63 2316.7Z" fill="#cd754f" fill-rule="nonzero" opacity="1" stroke="none"/>
<path d="M3736.05 1833.3C3737.45 1834.7 3737.45 1834.7 3738.85 1836.1C3774.71 1800.24 3770.08 1792.64 3827.13 1796.87C3843.53 1798.08 3867.63 1828.91 3883.17 1809.48C3883.51 1809.06 3872.21 1748.23 3871.97 1743.62C3869.24 1693.13 3879.18 1646.53 3899.99 1604.91C3941.12 1522.64 4042.59 1500.03 4124.17 1509.63C4157.64 1513.57 4184.49 1530.67 4213.85 1540.46C4222.39 1543.3 4234.36 1557.24 4241.87 1562.87C4291.71 1600.26 4307.86 1643.17 4324.54 1698.79C4331.92 1723.38 4331.84 1751.06 4328.74 1775.85C4327.59 1785.07 4330.67 1798.63 4325.94 1808.08C4306.44 1847.08 4289.3 1882.73 4251.68 1914.57C4220.64 1940.83 4191.02 1956.7 4152.2 1966.41C4106.33 1977.88 4050.1 1974.21 4006.48 1952.4C3955.53 1926.93 3922.1 1883.28 3891.58 1837.5C3878.6 1850.49 3890 1876.69 3887.38 1896.35C3885.6 1909.65 3886.11 1927.05 3883.17 1939.79C3882.06 1944.6 3877.57 1944.89 3877.57 1951C3877.57 1964.17 3914.54 1991.41 3921.01 1997.23C3956.54 2029.22 3999.51 2051.54 4045.71 2063.09C4083.17 2072.45 4122.2 2075.7 4162.01 2075.7C4172.4 2075.7 4190.09 2069.68 4198.44 2067.29C4291.4 2040.73 4390.42 1994.38 4438.03 1899.15C4450.95 1873.33 4470.22 1844.76 4474.46 1815.08C4485.3 1739.24 4473.9 1657.03 4440.84 1590.9C4434.45 1578.13 4367.77 1562.77 4351.16 1554.47C4315.07 1536.42 4273.49 1524.87 4234.87 1513.83C4214.85 1508.12 4197.35 1498.99 4178.82 1495.62C4144.34 1489.35 4108.73 1494.48 4073.73 1492.82C4072.41 1492.75 4072.25 1490.11 4070.93 1490.01C4024.23 1486.79 3985.29 1495.71 3946.23 1515.24C3907.34 1534.68 3874.53 1576.35 3852.35 1613.32C3840.76 1632.63 3830.56 1664.22 3810.31 1676.37C3794.68 1685.75 3774.49 1649.82 3766.88 1637.14C3739.91 1592.19 3693.01 1559.57 3649.18 1537.65C3605.98 1516.05 3547.14 1503.75 3495.05 1512.43C3449.96 1519.95 3403.3 1539.75 3359.14 1554.47C3328.5 1564.68 3276.36 1578.38 3251.25 1599.3C3238.37 1610.04 3227.75 1699.56 3226.03 1714.2C3223.02 1739.78 3222.86 1782.14 3226.03 1812.28C3228.27 1833.52 3241.76 1856.34 3251.25 1875.33C3310.33 1993.48 3455.73 2059.79 3581.93 2056.08C3634.52 2054.54 3688.96 2015.75 3713.63 1966.41C3716.74 1960.19 3722.33 1955.45 3723.44 1948.19C3729.71 1907.46 3705.23 1864.12 3736.05 1833.3Z" fill="#f7bd81" fill-rule="nonzero" opacity="1" stroke="none"/>
<path d="M4765.9 2176.58C4754.75 2187.73 4756.24 2195.74 4742.09 2208.81C4729.17 2220.73 4706.58 2226.56 4691.64 2234.03C4651.25 2254.23 4611.11 2280.77 4572.54 2309.69C4563.54 2316.45 4507.74 2348.82 4505.29 2354.53C4500.55 2365.59 4507.71 2390.6 4509.49 2402.17C4516.33 2446.61 4524.7 2487.23 4544.52 2526.87C4632.73 2703.29 4762.97 2797.3 4956.46 2797.3C4975.05 2797.3 5051.9 2788.42 5064.35 2773.48C5074.84 2760.89 5063.38 2723.71 5061.55 2709.02C5054.89 2655.76 5036.03 2605.86 5019.51 2556.3C5017.25 2549.52 5018.23 2543.8 5012.51 2538.08C4995.67 2554.92 4975.24 2565.26 4952.26 2542.29C4948.06 2545.79 4948.06 2545.79 4943.85 2549.29C4952.47 2566.54 4915.01 2615.15 4893.41 2615.15C4873.19 2615.15 4843.43 2587.8 4830.36 2575.91C4831.76 2573.81 4831.76 2573.81 4833.16 2571.71C4844.37 2580.68 4863.45 2594.13 4878 2594.13C4884.79 2594.13 4930.61 2550.62 4936.85 2543.69C4940.67 2539.44 4940.6 2526.4 4945.25 2524.07C4947.4 2523 4957.31 2527.79 4960.67 2528.27C4973.58 2530.12 4994.73 2527.84 5004.1 2518.47C4954.96 2420.18 4917.74 2327.39 4838.77 2239.63C4817.75 2216.29 4794.61 2190.94 4765.9 2176.58Z" fill="#43bcdc" fill-rule="nonzero" opacity="1" stroke="none"/>
<path d="M4446.44 1590.9C4443.64 1593.7 4443.64 1593.7 4440.84 1596.5C4471.12 1657.06 4484.99 1748.46 4471.66 1815.08C4465.62 1845.31 4448.69 1875.04 4435.23 1901.96C4418.13 1936.15 4382.7 1968.64 4353.96 1991.63C4240.01 2082.79 4076.34 2099.86 3951.83 2016.85C3926.26 1999.8 3898.84 1979.4 3881.77 1953.8C3872.85 1962.73 3874.71 1977 3867.76 1987.43C3850.36 2013.53 3841.31 2048.59 3818.72 2075.7C3782.68 2057.68 3763.25 2004.4 3741.66 1972.01C3736.78 1964.69 3734.14 1950.13 3726.24 1945.39C3723.64 1943.83 3700.71 1982.89 3696.82 1987.43C3673.05 2015.15 3648.2 2037.26 3616.95 2047.68C3609.18 2050.27 3588.94 2049.78 3584.73 2050.48C3500.31 2064.55 3392.67 2021.57 3328.32 1966.41C3244.54 1894.6 3221.8 1824.76 3226.03 1717C3227.16 1688.23 3236.88 1658.2 3244.25 1628.73C3245.61 1623.27 3254.47 1603.71 3248.45 1600.71C3242.56 1597.76 3226.3 1610.63 3221.83 1613.32C3204.63 1623.63 3184.01 1632.23 3165.78 1641.34C3159.02 1644.72 3151.8 1642.26 3144.76 1646.94C3148.26 1653.95 3130.49 1721.03 3129.35 1732.42C3121.66 1809.36 3112.84 1900.86 3169.98 1958C3229.47 2017.48 3308.37 2035.22 3381.56 2064.49C3463.13 2097.12 3547.31 2114.37 3635.17 2130.34C3662.17 2135.25 3689.17 2144.56 3716.44 2147.16C3792.09 2154.36 3866.01 2151.36 3943.42 2151.36C3980.9 2151.36 4019.19 2141.41 4056.92 2134.55C4088.09 2128.88 4117.33 2125.79 4147.99 2123.34C4155.43 2122.74 4175.25 2113.46 4181.62 2110.73C4201.21 2102.33 4231.56 2102.9 4253.08 2098.12C4287.84 2090.39 4324.56 2084.1 4358.17 2072.9C4373.6 2067.75 4391.96 2057.64 4407.21 2053.28C4412.75 2051.7 4418.42 2053.28 4424.02 2050.48C4458.34 2033.32 4496.78 2014.55 4531.91 2002.84C4557.57 1994.29 4617.08 1972.42 4634.2 1949.59C4632.84 1948.24 4628.77 1944.53 4628.59 1942.59C4627.27 1928.04 4639.8 1919.05 4639.8 1906.16C4639.8 1889.24 4640.12 1873.01 4641.2 1855.72C4644.39 1804.71 4644.11 1753.98 4634.2 1704.39C4631.5 1690.9 4631.84 1667.94 4624.39 1656.75C4617.64 1646.63 4590.67 1646.35 4578.15 1641.34C4533.89 1623.64 4487.21 1611.28 4446.44 1590.9Z" fill="#9b4a3c" fill-rule="nonzero" opacity="1" stroke="none"/>
<path d="M3137.76 2361.54C3122.85 2376.45 3109.59 2400.55 3098.53 2418.98C3082.34 2445.95 3056.75 2476.76 3036.87 2500.25C2975.28 2573.04 2889.78 2643.85 2807.08 2685.2C2768.6 2704.45 2707.59 2727.41 2666.97 2702.02C2648 2690.17 2668.11 2669.53 2654.36 2655.78C2646.4 2663.73 2651.79 2678.16 2651.56 2689.41C2651.31 2701.09 2650.96 2712.78 2650.15 2724.44C2648.54 2747.86 2647.57 2768.42 2650.15 2791.69C2655.33 2838.3 2676.88 2980.85 2745.43 2980.85C2775.62 2980.85 2789.08 2948.82 2814.09 2938.81C2842.18 2927.58 2865.51 2895.68 2886.95 2871.56C2909.35 2846.36 2928.31 2818.73 2950 2793.09C2954.71 2787.52 2961.71 2783.2 2964.01 2776.28C2964.45 2774.97 2961 2766.36 2961.21 2765.07C2964.07 2747.94 3009.31 2697.2 3021.46 2681C3024.8 2684.34 3024.35 2682.57 3024.26 2686.6C3023.82 2707.16 3023.68 2727.72 3022.86 2748.26C3022.15 2765.99 3021.98 2783.77 3022.86 2801.5C3023.66 2817.42 3025.67 2833.73 3031.27 2847.74C3034.29 2855.29 3032.52 2868.61 3034.07 2877.16C3040.59 2913 3046.41 2953.4 3057.89 2987.85C3078.85 3050.73 3104.64 3112.63 3141.96 3168.6C3150.29 3181.1 3155.82 3196.46 3165.78 3207.84C3209.54 3257.85 3257.26 3298.25 3308.7 3332.54C3356.8 3364.61 3414.92 3371.64 3468.43 3398.39C3471.68 3395.14 3484.27 3358.25 3482.44 3352.16C3480.32 3345.08 3455 3340.62 3448.81 3338.14C3414.4 3324.38 3384.88 3306.88 3352.13 3290.5C3322.2 3275.54 3292.6 3251.09 3266.66 3228.85C3160.92 3138.22 3133.15 3054.54 3126.55 2919.2C3125.57 2899.19 3116.39 2801.85 3134.96 2783.28C3166.29 2809.4 3204.26 2807.43 3240.04 2825.32C3256.4 2833.5 3280.14 2830.66 3297.49 2839.33C3309.04 2845.1 3327.24 2845.72 3340.93 2849.14C3383.4 2859.76 3427.7 2865.75 3471.23 2871.56C3496.45 2874.92 3521.89 2878.22 3546.9 2882.77C3560.07 2885.16 3575.49 2895.32 3588.93 2893.98C3593.67 2893.5 3592.16 2884.71 3591.73 2879.96C3590.52 2866.61 3585.68 2827.67 3576.32 2818.31C3559.81 2834.82 3530.05 2825.58 3507.66 2823.92C3461.37 2820.49 3417.53 2815.51 3371.75 2805.7C3363.42 2803.92 3352.28 2797.12 3343.73 2795.9C3289.26 2788.11 3238.61 2766.11 3184 2752.46C3178.88 2751.18 3136.98 2738.21 3136.36 2732.84C3131.92 2694.38 3146.54 2658.51 3150.37 2622.15C3152.62 2600.76 3152.13 2576.17 3158.77 2554.9C3161.56 2546 3170.73 2532.26 3172.79 2522.67C3176.96 2503.2 3176.97 2484.19 3184 2466.62C3191.32 2448.31 3195.04 2400.93 3206.41 2389.56C3190.2 2373.35 3158.54 2371.93 3137.76 2361.54Z" fill="#9b4a3c" fill-rule="nonzero" opacity="1" stroke="none"/>
<path d="M4059.72 1504.03C4002.8 1508.56 3966.03 1527.65 3922.41 1571.28C3858.91 1634.78 3854.95 1753.64 3887.38 1834.7C3902.39 1872.22 3943.87 1917.08 3975.65 1939.79C4018.59 1970.46 4080.4 1976.03 4132.58 1974.82C4164.22 1974.08 4201.44 1954.34 4226.46 1935.58C4312.62 1870.96 4351.03 1805.39 4327.34 1698.79C4322.81 1678.39 4319.69 1652.15 4306.32 1634.33C4290.25 1612.9 4276.63 1590.62 4257.28 1571.28C4203.62 1517.61 4133.69 1498.13 4059.72 1504.03Z" fill="#e9f6f9" fill-rule="nonzero" opacity="1" stroke="none"/>
<path d="M3207.82 2385.36C3197.18 2395.99 3198.57 2406.92 3195.21 2420.38C3190.48 2439.28 3179.5 2459.69 3175.59 2479.23C3172.82 2493.05 3173.68 2508.81 3169.98 2522.67C3167.43 2532.24 3158.45 2545.62 3155.97 2554.9C3150.23 2576.43 3149.84 2600.54 3147.57 2622.15C3143.81 2657.81 3129.67 2695.25 3133.55 2732.84C3134.42 2741.24 3155.11 2745.17 3160.18 2746.85C3178.62 2753 3212.41 2758.58 3230.23 2769.27C3249.96 2781.11 3278.64 2779.8 3301.69 2787.49C3383.79 2814.85 3481.72 2830.82 3573.52 2828.12C3580.26 2827.92 3572.4 2779.22 3572.12 2774.88C3570.53 2750.3 3570.14 2731.83 3569.31 2706.22C3567.94 2663.69 3572.82 2621.83 3576.32 2581.52C3579.24 2547.95 3574.89 2504.52 3590.33 2473.63C3572.12 2455.41 3503.49 2459.23 3478.24 2448.41C3445.17 2434.23 3382.41 2425.54 3343.73 2420.38C3320.17 2417.24 3295.57 2405 3272.27 2400.77C3250.54 2396.82 3228.52 2395.71 3207.82 2385.36Z" fill="#43bcdc" fill-rule="nonzero" opacity="1" stroke="none"/>
<path d="M3531.48 1527.85C3455.04 1525.03 3377.48 1556.81 3331.12 1621.72C3311.51 1649.17 3306.8 1675.54 3298.89 1707.19C3262.92 1851.07 3393.21 1963.61 3527.28 1963.61C3606.61 1963.61 3691.66 1892.49 3719.24 1826.29C3736.36 1785.2 3729.46 1724.17 3722.04 1683.37C3718.83 1665.7 3717.82 1647.85 3708.03 1631.53C3660 1551.49 3618.14 1531.04 3531.48 1527.85Z" fill="#e9f6f9" fill-rule="nonzero" opacity="1" stroke="none"/>
<path d="M2973.82 2121.94C2956.7 2130.5 2939.07 2154.07 2924.78 2166.77C2885.68 2201.53 2851.32 2242.75 2814.09 2281.67C2820.4 2287.98 2812.33 2281.23 2825.3 2284.47C2833.05 2286.41 2841.18 2288.21 2849.12 2287.27C2855.8 2286.49 2862.95 2276.06 2870.14 2276.06C2875.68 2276.06 2889.13 2292.94 2892.55 2295.68C2905.23 2305.82 2924.7 2306.81 2935.99 2318.1C2923.38 2330.71 2887.3 2344.43 2874.34 2329.31C2866.1 2319.69 2868.86 2304.21 2860.33 2295.68C2856.05 2298.53 2852.66 2306.54 2847.72 2306.89C2840.77 2307.39 2815.76 2307.43 2811.29 2298.48C2804.36 2284.63 2817.51 2299.1 2808.49 2290.08C2759.68 2338.88 2732.42 2395.98 2703.4 2454.01C2720.56 2471.18 2764.79 2414.11 2773.46 2417.58C2783.01 2421.4 2773.58 2438.2 2774.86 2448.41C2775.55 2453.99 2783.49 2455.64 2787.47 2459.62C2796.6 2468.75 2819.39 2480.88 2830.9 2482.04C2840.24 2482.97 2852.29 2478.2 2858.93 2484.84C2844.12 2499.65 2814.75 2504.55 2794.47 2501.65C2779.97 2499.58 2779.62 2465.78 2772.05 2458.22C2759.14 2464.67 2721.59 2513.55 2702 2498.85C2694.75 2493.42 2699.57 2483.81 2693.59 2477.83C2684.28 2487.14 2682.55 2512.34 2678.18 2525.47C2661.75 2574.76 2652.21 2637.8 2654.36 2689.41C2654.94 2703.5 2683.14 2712.56 2692.19 2713.23C2824.07 2723 2978.97 2574.03 3053.69 2480.63C3082.8 2444.24 3117.3 2405.25 3137.76 2364.34C3123.69 2350.27 3096.79 2344.06 3080.31 2329.31C3025.83 2280.56 3013.28 2246.1 2996.24 2182.19C2994.16 2174.37 2983.7 2149.89 2992.04 2141.55C2985.73 2135.24 2979.18 2129.08 2973.82 2121.94Z" fill="#43bcdc" fill-rule="nonzero" opacity="1" stroke="none"/>
<path d="M4513.7 2418.98C4507.25 2425.43 4503.73 2464.15 4506.69 2473.63C4507.48 2476.15 4511.97 2476.61 4512.29 2479.23C4514.89 2499.99 4511.69 2519.06 4515.1 2539.48C4518.09 2557.42 4526.34 2573.25 4530.51 2589.92C4549.42 2665.56 4572.05 2739.66 4621.59 2805.7C4628.69 2815.17 4647.65 2834.15 4649.61 2844.94C4652.39 2860.25 4645.98 2852.52 4652.41 2858.95C4655.21 2856.14 4655.21 2856.14 4658.02 2853.34C4672.6 2867.92 4689.48 2882.21 4701.45 2898.18C4710.67 2910.47 4709.19 2924.21 4718.27 2936.01C4754.04 2982.51 4797.22 3040.58 4847.17 3069.12C4856.91 3074.68 4878.07 3063.06 4886.4 3069.12C4903.56 3081.6 4913.1 3098.41 4932.64 3102.75C4962.22 3109.32 5020.88 3085.85 5001.3 3046.7C5010.99 3037.01 5028.92 3047 5040.53 3038.3C5067.55 3018.03 5072.17 2967.15 5072.76 2937.41C5073.67 2891.18 5073.67 2844.93 5072.76 2798.7C5072.73 2797.38 5070.89 2796.83 5069.96 2795.9C5071.36 2794.49 5071.36 2794.49 5072.76 2793.09C5049.03 2769.36 5020.41 2786.68 4991.49 2790.29C4970.87 2792.87 4949.14 2794.49 4928.44 2794.49C4865.93 2794.49 4801.76 2776.69 4747.69 2749.66C4668.83 2710.23 4609.49 2636.09 4564.14 2560.5C4557.21 2548.95 4546.23 2533.7 4543.12 2521.27C4538.86 2504.24 4531.2 2485.16 4524.91 2469.42C4519.19 2455.15 4525.06 2430.35 4513.7 2418.98Z" fill="#752d32" fill-rule="nonzero" opacity="1" stroke="none"/>
<path d="M4300.72 2440C4280.16 2442.53 4259.39 2441.58 4239.07 2444.2C4187.31 2450.88 4129.32 2458.62 4076.53 2465.22C4055.4 2467.86 4030.98 2466.25 4010.68 2473.63C4002.41 2476.64 4006.48 2554.01 4006.48 2561.9C4006.48 2588.56 4005.18 2608.61 4006.48 2638.97C4007.97 2674.1 4019.45 2710.92 4023.29 2745.45C4027.18 2780.47 4020.98 2820.58 4030.3 2854.74C4032.64 2863.35 4048 2857.74 4056.92 2857.55C4070 2857.26 4083.08 2856.73 4096.15 2856.14C4110.87 2855.49 4130.72 2850.01 4143.79 2849.14C4199.45 2845.43 4251.83 2842.58 4304.92 2833.73C4328.79 2829.75 4314.09 2782.55 4313.33 2765.07C4312.7 2750.6 4312.07 2736.12 4311.93 2721.63C4311.13 2639.43 4310.53 2557.23 4310.53 2475.03C4310.53 2459.69 4321.34 2437.47 4300.72 2440Z" fill="#43bcdc" fill-rule="nonzero" opacity="1" stroke="none"/>
<path d="M3792.1 1072.47C3789.64 1070.83 3786 1071.51 3783.69 1069.67C3777.5 1064.72 3772.9 1058.01 3766.88 1052.85C3760.26 1047.18 3750.54 1071.74 3745.86 1073.87C3737.17 1077.82 3728.79 1066.31 3720.64 1071.07C3717.58 1072.85 3707.64 1086.32 3701.02 1083.68C3690.66 1079.53 3686.36 1045.83 3675.8 1050.05C3663.57 1054.94 3651.16 1078.28 3637.97 1079.47C3617.63 1081.32 3608.14 1066.66 3588.93 1068.27C3575.59 1069.38 3573.73 1103.46 3566.51 1097.69C3560.32 1092.74 3555.3 1086.48 3549.7 1080.88C3539.48 1089.39 3527.36 1114.62 3513.27 1115.9C3498.44 1117.25 3486.52 1098.24 3472.63 1107.5C3462.33 1114.37 3447.91 1140.47 3437.61 1142.53C3427.47 1144.55 3427.14 1127.8 3416.59 1131.32C3409.69 1133.62 3387.9 1164.68 3374.55 1159.34C3357.01 1152.32 3377.93 1117.88 3368.95 1108.9C3330.14 1142.16 3299.81 1188.63 3273.67 1232.2C3270.1 1238.15 3247.88 1269.13 3254.05 1272.83C3259.79 1276.28 3288.64 1257.57 3293.29 1256.02C3338.75 1240.87 3384.56 1223.74 3434.8 1211.18C3602.94 1169.15 3781.81 1159.45 3956.03 1167.75C4012.52 1170.44 4071.17 1179.12 4125.57 1184.56C4155.49 1187.55 4186.99 1187.17 4216.65 1191.57C4240.61 1195.12 4268.96 1208.21 4292.31 1212.58C4312.26 1216.33 4333.41 1215.49 4352.56 1219.59C4362.13 1221.64 4364.11 1226.88 4376.38 1228C4394.29 1229.63 4411.29 1243.17 4426.82 1247.61C4439.66 1251.28 4452.64 1254.32 4464.66 1258.82C4472.7 1261.84 4491.67 1275.25 4498.28 1268.63C4481.62 1235.3 4454.74 1203.21 4431.03 1174.75C4407.98 1186.28 4380.42 1150.22 4363.77 1138.32C4341.85 1122.67 4331.17 1153.55 4317.53 1146.73C4294.22 1135.08 4308.31 1087.74 4275.5 1127.11C4256.58 1117.66 4244.63 1098.2 4229.26 1083.68C4206.47 1062.15 4197.18 1081.61 4183.02 1100.49C4170.65 1088.12 4170.63 1062.77 4153.6 1054.25C4143.95 1063.9 4151.53 1081.54 4143.79 1089.28C4135.78 1081.27 4127.23 1052.58 4111.56 1058.46C4101.6 1062.2 4100.48 1079.39 4091.95 1085.08C4084.8 1089.85 4073.67 1065.5 4065.33 1069.67C4052.47 1076.09 4072.23 1090.21 4051.31 1087.88C4033.61 1085.91 4018.16 1059.91 3999.47 1064.06C3985.85 1067.09 3993.86 1092.28 3972.85 1089.28C3948.21 1085.76 3951.96 1053.29 3930.81 1047.25C3929.07 1046.75 3917.39 1043.59 3915.4 1044.45C3908.15 1047.55 3912.84 1049.91 3911.2 1055.66C3908.14 1066.35 3876.7 1068.27 3869.16 1068.27C3853.08 1068.27 3830.1 1041.22 3807.51 1044.45C3805.09 1044.79 3795.9 1068.67 3792.1 1072.47Z" fill="#57aa6c" fill-rule="nonzero" opacity="1" stroke="none"/>
<path d="M3517.47 985.597C3503.82 999.247 3485.97 1006.6 3471.23 1016.42C3442.19 1035.79 3415.75 1063.16 3389.97 1086.48C3385.56 1090.46 3371.27 1102.21 3367.55 1108.9C3364.29 1114.77 3365.17 1158.72 3373.15 1162.14C3387.55 1168.31 3408.11 1136.54 3416.59 1134.12C3427.48 1131.01 3426.87 1147.48 3437.61 1145.33C3452.64 1142.32 3458.69 1117.27 3472.63 1110.3C3491.19 1101.02 3487.73 1117.53 3500.66 1118.71C3523.46 1120.78 3536.01 1100.06 3548.3 1083.68C3555.46 1090.29 3561.86 1103.82 3573.52 1100.49C3581.4 1098.24 3573.75 1072.33 3588.93 1071.07C3607.21 1069.54 3618.52 1082.28 3637.97 1082.28C3650.27 1082.28 3662.36 1052.85 3675.8 1052.85C3688.78 1052.85 3687.83 1093.44 3705.23 1086.48C3711.68 1083.9 3713.74 1077.89 3720.64 1073.87C3726.93 1070.2 3739.07 1078.18 3745.86 1076.67C3754.89 1074.67 3757.07 1059.16 3764.08 1055.66C3770.74 1052.32 3783.97 1080.99 3793.5 1075.27C3799.49 1071.68 3805.92 1045.45 3813.12 1047.25C3834.57 1052.61 3856.64 1071.07 3877.57 1071.07C3891.25 1071.07 3906.11 1067.5 3914 1055.66C3917.12 1050.98 3910.48 1049.78 3916.8 1047.25C3918.1 1046.73 3919.7 1046.73 3921.01 1047.25C3928.5 1050.25 3936.16 1051.43 3942.02 1058.46C3950.04 1068.08 3949.79 1084.4 3964.44 1089.28C3991.14 1098.18 3985.06 1074.77 4000.87 1066.86C4010.67 1061.97 4043 1093.98 4061.12 1090.68C4069.57 1089.15 4063.12 1077.48 4068.13 1072.47C4108 1112.34 4097.34 1054.18 4118.57 1061.26C4126.69 1063.97 4143.26 1098.29 4146.59 1096.29C4156.28 1090.47 4143.75 1068.31 4153.6 1058.46C4169.19 1070.15 4166.93 1092.27 4181.62 1103.29C4189.16 1108.95 4195.33 1066.71 4218.05 1078.07C4239.92 1089.01 4253.48 1111.78 4271.3 1128.52C4277.73 1134.56 4288.17 1116.53 4290.91 1113.1C4302.27 1121.62 4304.31 1137.71 4314.73 1148.13C4326.36 1159.76 4343.47 1128.94 4356.77 1136.92C4364.78 1141.73 4420.89 1196.43 4431.03 1176.15C4432.08 1174.05 4420.73 1158.37 4418.42 1155.14C4400.94 1130.67 4381.51 1107.03 4360.97 1085.08C4347.07 1070.22 4319.04 1034.21 4295.12 1026.23C4216.8 1000.13 4126.74 964.242 4041.51 954.772C3909.97 940.156 3770.67 940.608 3642.17 960.376C3610.02 965.324 3579.23 971.004 3548.3 977.19C3540.17 978.815 3524.41 992.535 3517.47 985.597Z" fill="#99c66a" fill-rule="nonzero" opacity="1" stroke="none"/>
<path d="M4442.24 1597.9C4452.64 1587.5 4473.81 1604.93 4484.27 1609.11C4505.15 1617.47 4607.8 1659.48 4624.39 1653.95C4624.39 1591.68 4556.34 1565.28 4512.29 1543.26C4468.98 1521.6 4421.46 1515.64 4374.98 1504.03C4277.93 1479.76 4168.96 1453.47 4065.33 1445.18C4011.57 1440.88 3961.1 1434.39 3908.4 1433.97C3839.28 1433.41 3751.53 1427.65 3678.61 1436.77C3599.62 1446.64 3520.13 1461.68 3440.41 1481.61C3354.93 1502.98 3271.37 1524.79 3195.21 1562.87C3188.22 1566.37 3172.09 1574.96 3167.18 1581.09C3160.36 1589.62 3143.64 1628.7 3146.16 1641.34C3148.76 1654.32 3165.84 1641.71 3169.98 1639.94C3184.15 1633.87 3199.72 1628.57 3213.42 1621.72C3222.64 1617.11 3230.83 1607.56 3241.44 1604.91C3259.24 1600.46 3270.1 1579.03 3287.68 1568.48C3324.44 1546.42 3368.25 1530.82 3408.18 1520.84C3422.82 1517.18 3441.87 1504.42 3457.22 1504.03C3647.24 1499.15 3839.71 1482.23 4030.3 1492.82C4082.37 1495.71 4164.43 1481.94 4208.24 1508.23C4215.09 1512.34 4226.4 1506.83 4233.46 1506.83C4244.93 1506.83 4261.21 1512.36 4272.7 1515.24C4315.72 1525.99 4389.09 1536.35 4418.42 1565.68C4427.16 1574.42 4434.86 1588.07 4442.24 1597.9Z" fill="#752d32" fill-rule="nonzero" opacity="1" stroke="none"/>
<path d="M3751.47 2496.05C3749.16 2500.66 3752.84 2526.62 3752.87 2526.87C3755.33 2553.94 3756.96 2580.98 3758.47 2608.14C3760.12 2637.79 3753.49 2670.11 3754.27 2700.62C3755.65 2754.61 3761.64 2807.09 3765.48 2858.95C3765.8 2863.31 3789.55 2859.87 3796.3 2860.35C3803.16 2860.84 3840.05 2868.45 3843.94 2857.55C3850.52 2839.12 3846.23 2781.42 3848.15 2762.27C3851.02 2733.51 3849.55 2699.75 3849.55 2672.59C3849.55 2615.08 3844.26 2552.61 3850.95 2494.65C3851.78 2487.44 3889.24 2491.99 3892.98 2491.84C3917.78 2490.89 3948.91 2491.14 3972.85 2484.84C3975.4 2484.17 3978.22 2481.87 3978.45 2479.23C3980.15 2459.69 3979.34 2439.98 3978.45 2420.38C3978.15 2413.62 3963.21 2418.61 3960.24 2418.98C3939.21 2421.61 3918.22 2425.39 3897.19 2427.39C3837.39 2433.09 3790.9 2434.4 3724.84 2434.4C3714.41 2434.4 3707.79 2427.02 3702.42 2418.98C3701.02 2420.38 3701.02 2420.38 3699.62 2421.79C3689.13 2416.54 3613.47 2402.51 3605.74 2406.37C3601.99 2408.25 3590.32 2466.15 3597.34 2470.83C3624.95 2489.24 3681.18 2486.33 3715.04 2489.04C3729.93 2490.23 3741.48 2486.06 3751.47 2496.05Z" fill="#ec5126" fill-rule="nonzero" opacity="1" stroke="none"/>
<path d="M3516.07 986.998C3526.53 997.453 3568.87 973.326 3581.93 971.586C3648.71 962.68 3715.34 951.848 3785.09 950.568C3828.06 949.78 3871.03 949.624 3914 949.167C3926.15 949.038 3938.29 949.99 3950.43 950.568C3997.69 952.818 4047.22 954.798 4091.95 965.981C4133.41 976.346 4178.5 996.56 4219.45 1002.41C4232.39 1004.26 4289.53 1033.22 4295.12 1027.63C4253.3 985.815 4205.23 954.085 4155 923.946C4139.49 914.642 4121.96 901.675 4104.56 897.324C4088.4 893.285 4078.38 882.775 4062.52 880.51C4056.61 879.666 4046.05 869.469 4040.1 866.499C4017.78 855.336 3988.43 843.771 3967.24 838.475C3960.95 836.903 3946.66 834.398 3940.62 834.272C3896.73 833.357 3852.8 831.527 3808.91 832.871C3806.27 832.952 3805.6 837.165 3803.31 838.475C3785.21 848.817 3765 845.955 3750.06 860.894C3747.85 863.104 3736.83 865.067 3733.25 866.499C3711.6 875.161 3691.19 884.026 3670.2 894.522C3616.56 921.342 3567.01 953.038 3516.07 986.998Z" fill="#15aad8" fill-rule="nonzero" opacity="1" stroke="none"/>
<path d="M4080.74 1610.51C4071.35 1611.62 4055.41 1616.44 4045.71 1620.32C4021.95 1629.83 4001.74 1652.33 3986.86 1672.17C3907.98 1777.34 4030.13 1903.41 4147.99 1864.12C4210.58 1843.26 4244.09 1764.57 4226.46 1705.79C4219.67 1683.17 4201.44 1659.75 4184.42 1642.74C4156.15 1614.47 4118.25 1606.09 4080.74 1610.51Z" fill="#f18d2a" fill-rule="nonzero" opacity="1" stroke="none"/>
<path d="M3476.84 1625.93C3483.16 1632.25 3479.8 1628.58 3486.65 1637.14C3479.64 1644.14 3469.37 1642.67 3461.43 1648.35C3439.77 1663.81 3421.27 1673.53 3412.38 1700.19C3405.58 1720.59 3409.58 1743.14 3409.58 1764.64C3409.58 1773.67 3414.51 1781.49 3417.99 1788.46C3444.46 1841.4 3489.89 1870.37 3551.1 1862.72C3581.61 1858.91 3605.92 1837.33 3626.76 1816.48C3652.36 1790.89 3649.18 1742.7 3649.18 1712.8C3649.18 1669.67 3593.35 1634.94 3558.11 1621.72C3539.11 1614.6 3495.35 1607.42 3476.84 1625.93Z" fill="#e98c52" fill-rule="nonzero" opacity="1" stroke="none"/>
<path d="M4655.21 2849.14C4645.18 2859.17 4646.94 2886.29 4644 2900.98C4636.2 2940 4626.93 2977.57 4615.98 3015.88C4591.91 3100.13 4530.96 3176.56 4470.26 3237.26C4435.54 3271.98 4359.94 3327.19 4310.53 3339.54C4292.87 3343.96 4239.1 3356.69 4226.46 3366.17C4222.44 3369.18 4234.34 3416.08 4234.87 3416.61C4243.97 3407.5 4258.98 3407.08 4271.3 3404C4296.23 3397.76 4319.7 3386.93 4344.16 3378.78C4363.52 3372.32 4379.99 3355.62 4398.8 3349.35C4447.19 3333.22 4499.22 3283.96 4536.11 3247.07C4593.05 3190.13 4626.14 3128.67 4659.42 3062.12C4680.26 3020.42 4683.95 2961.92 4716.86 2929.01C4714.15 2923.57 4717.09 2917.64 4714.06 2912.19C4705.57 2896.91 4667.17 2855.12 4655.21 2849.14Z" fill="#4d292f" fill-rule="nonzero" opacity="1" stroke="none"/>
<path d="M3986.86 2858.95C3999.77 2852.49 4030.67 2866.91 4033.1 2854.74C4036.43 2838.08 4031.59 2818.36 4030.3 2801.5C4026.66 2754.27 4020.42 2707.24 4012.08 2661.38C4007.33 2635.25 4012.95 2605.81 4009.28 2580.12C4007.59 2568.31 4003.07 2489.58 4009.28 2479.23C4013.42 2472.32 4074.89 2469.34 4082.14 2468.02C4125.65 2460.11 4171.43 2458.77 4216.65 2454.01C4225.05 2453.13 4235.89 2447.65 4241.87 2447.01C4265.76 2444.45 4290.06 2449.16 4313.33 2441.4C4313.33 2412.09 4318.81 2382.4 4317.53 2353.13C4317.48 2351.81 4316.01 2350.67 4314.73 2350.33C4308.72 2348.69 4302.43 2352.56 4296.52 2354.53C4287.16 2357.65 4275.49 2355.93 4265.69 2360.13C4252.81 2365.65 4233.78 2374.6 4220.85 2376.95C4169.26 2386.33 4115.3 2394.7 4063.92 2404.97C4056.15 2406.53 3987.87 2404.09 3979.85 2414.78C3979.23 2415.62 3978.46 2416.54 3978.45 2417.58C3977.99 2488.57 3977.53 2559.57 3978.45 2630.56C3978.85 2660.93 3980.9 2691.26 3981.26 2721.63C3981.78 2766.48 3982.27 2811.33 3984.06 2856.14C3984.11 2857.46 3985.93 2858.01 3986.86 2858.95Z" fill="#057eb4" fill-rule="nonzero" opacity="1" stroke="none"/>
<path d="M3454.42 1504.03C3469.35 1518.95 3496.94 1494.7 3511.87 1509.63C3510.47 1511.03 3510.47 1511.03 3509.06 1512.43C3510 1513.37 3510.55 1515.18 3511.87 1515.24C3532.87 1516.13 3553.92 1514.34 3574.92 1515.24C3584.78 1515.65 3600.22 1523.2 3609.95 1526.44C3619.43 1529.61 3622.27 1521.16 3630.97 1523.64C3643.86 1527.33 3657.4 1535.66 3668.8 1543.26C3661.82 1553.73 3710.59 1577.47 3719.24 1585.29C3727.81 1593.05 3736.28 1600.94 3744.46 1609.11C3755.05 1619.7 3793.81 1684.15 3804.71 1681.97C3819.51 1679.01 3829.82 1658.81 3836.94 1646.94C3861.47 1606.06 3884.33 1567.49 3922.41 1534.85C3939.92 1519.84 3968.48 1503.13 3989.66 1498.42C4002.45 1495.58 4023.6 1502.32 4033.1 1492.82C4027.45 1487.16 4017.26 1490.48 4009.28 1490.01C3973.03 1487.88 3930.89 1489.32 3892.98 1487.21C3811.37 1482.68 3726.18 1485.29 3643.58 1490.01C3617.43 1491.51 3588.13 1500.6 3563.71 1501.22C3528.23 1502.13 3492.71 1500.31 3457.22 1501.22C3455.9 1501.26 3455.35 1503.09 3454.42 1504.03Z" fill="#9b4a3c" fill-rule="nonzero" opacity="1" stroke="none"/>
<path d="M4142.39 3356.36C4136.6 3357.32 4079.94 3371.96 4079.34 3377.38C4077.61 3392.93 4090.21 3432.87 4084.94 3446.03C4080.26 3457.73 4059.79 3448.35 4049.91 3451.64C4027.75 3459.02 3995.31 3502.83 4014.88 3527.3C4038.58 3556.92 4062.63 3544.84 4083.54 3516.09C4085.42 3513.5 4095.97 3492.92 4100.35 3492.27C4114.22 3490.23 4128.38 3491.85 4142.39 3492.27C4143.87 3492.32 4145.33 3492.91 4146.59 3493.67C4153.5 3497.82 4149.61 3505.37 4150.8 3511.89C4154.87 3534.27 4178.94 3556.95 4204.04 3552.52C4211.53 3551.2 4215.77 3542.76 4220.85 3537.11C4230.75 3526.11 4220.27 3501.27 4230.66 3490.87C4251.14 3509.3 4267.97 3538.73 4295.12 3545.52C4328.63 3553.89 4330.77 3498.72 4317.53 3481.06C4293.8 3449.41 4273.21 3458.95 4234.87 3454.44C4232.9 3454.21 4231.68 3451.94 4230.66 3450.24C4222.88 3437.27 4235.62 3424.94 4236.27 3415.21C4239.24 3370.63 4221.85 3365.25 4142.39 3356.36Z" fill="#e6750b" fill-rule="nonzero" opacity="1" stroke="none"/>
<path d="M4107.36 1631.53C3960.86 1638.01 3968.28 1845.91 4111.56 1845.91C4124.65 1845.91 4139.2 1839.54 4149.39 1831.9C4196.82 1796.33 4209.67 1759.32 4204.04 1702.99C4199.58 1658.43 4147.9 1629.74 4107.36 1631.53Z" fill="#160c2a" fill-rule="nonzero" opacity="1" stroke="none"/>
<path d="M3462.83 3448.84C3470.44 3460.25 3464.48 3473.81 3455.82 3482.46C3470.03 3496.67 3442.04 3546.94 3479.64 3551.12C3519.61 3555.56 3524.73 3481.85 3549.7 3476.86C3557.83 3475.23 3567.49 3473.21 3572.12 3482.46C3583.47 3505.17 3578.35 3519.52 3598.74 3539.91C3605.89 3547.06 3615.9 3543.06 3622.56 3549.72C3650.9 3535.55 3643.35 3540.58 3653.38 3510.49C3659.37 3510.49 3662.95 3517.69 3667.4 3521.7C3671.27 3525.18 3693.62 3525.9 3694.02 3525.9C3700.13 3525.9 3710.88 3514.65 3713.63 3511.89C3731.26 3494.26 3711.37 3476.45 3698.22 3464.25C3688.55 3455.27 3629.99 3444.51 3629.56 3443.23C3626.73 3434.73 3633.77 3429.16 3633.77 3422.21C3633.77 3408.52 3633.3 3386.24 3626.76 3373.17C3628.16 3371.77 3628.16 3371.77 3629.56 3370.37C3603.38 3344.19 3547.75 3340.95 3513.27 3340.95C3507.35 3340.95 3481.64 3345.49 3479.64 3352.16C3476.45 3362.8 3471.19 3376.16 3468.43 3387.18C3463.58 3406.58 3478.37 3433.29 3462.83 3448.84Z" fill="#e6750b" fill-rule="nonzero" opacity="1" stroke="none"/>
<path d="M3022.86 2672.59C3010.07 2685.39 2953.96 2761.77 2961.21 2776.28C2930.26 2807.23 2906.59 2846.02 2877.14 2878.56C2859.41 2898.16 2843.26 2919.66 2822.5 2936.01C2818.76 2938.96 2811.85 2935.45 2808.49 2938.81C2809.49 2939.82 2818.17 2945.19 2818.29 2945.82C2819.78 2953.27 2815.22 2960.72 2814.09 2968.24C2811.45 2985.82 2816.25 3006.47 2830.9 3018.68C2856.61 3040.1 2884.52 3024.31 2907.97 3006.07C2943.04 2978.79 2967.25 2943.77 2992.04 2906.59C3004.6 2887.75 3012.7 2859.07 3034.07 2851.94C3034.07 2820.64 3024.26 2782.59 3024.26 2749.66C3024.26 2729.1 3024.83 2708.54 3025.66 2688.01C3026.06 2678.31 3027.23 2681.32 3022.86 2672.59Z" fill="#752d32" fill-rule="nonzero" opacity="1" stroke="none"/>
<path d="M3810.31 2071.5C3847.48 2034.33 3862.19 1966.58 3885.98 1922.97C3889.74 1916.08 3889.8 1895.8 3890.18 1887.94C3890.95 1872.08 3891.14 1856.18 3891.58 1840.3C3891.83 1831.18 3888.32 1814.62 3881.77 1808.08C3868.07 1821.78 3855.55 1804.88 3842.54 1799.67C3821.01 1791.06 3786.54 1786.67 3765.48 1802.47C3757.81 1808.22 3751.24 1815.31 3744.46 1822.09C3732.78 1833.77 3741.01 1848.4 3738.85 1861.32C3738.28 1864.76 3732.79 1864.1 3731.85 1866.93C3726.63 1882.59 3734.66 1912.5 3738.85 1927.18C3739.86 1930.68 3744.98 1932.04 3745.86 1935.58C3749.85 1951.52 3763 1975.79 3761.27 1993.03C3760.25 2003.24 3757.07 1989.38 3757.07 1998.64C3757.07 2011.7 3779.71 2038.67 3787.9 2047.68C3795.23 2055.74 3802.84 2063.56 3810.31 2071.5Z" fill="#f9b508" fill-rule="nonzero" opacity="1" stroke="none"/>
<path d="M3885.98 745.999C3884.58 747.4 3884.58 747.4 3883.17 748.801C3872.76 738.389 3865.35 720.388 3852.35 733.388C3855.68 740.049 3860.28 751.613 3856.55 757.208C3853.09 753.749 3835.48 727.256 3829.93 730.586C3828.22 731.612 3824.24 734.617 3825.73 737.592C3830.24 746.609 3840.6 753.332 3845.34 762.813C3843.94 764.214 3843.94 764.214 3842.54 765.615C3833.08 756.151 3820.36 745.222 3808.91 737.592C3796.85 746.638 3809.4 758.188 3814.52 768.417C3806.54 776.395 3747.15 756.667 3783.69 781.028C3785.96 782.538 3788.43 783.721 3790.7 785.231C3786.25 789.681 3744.51 779.704 3752.87 793.638C3755.75 798.447 3760.06 802.421 3762.67 807.65C3758.42 811.901 3728.26 819.867 3743.06 827.266C3747.46 829.465 3750.03 827.235 3754.27 831.47C3750.16 837.631 3741.62 836.632 3734.65 841.278C3750.17 858.517 3760.46 859.571 3779.49 846.882C3768.97 836.361 3774.18 840.951 3764.08 832.871C3774.95 821.996 3790.42 849.123 3806.11 841.278C3808.47 840.096 3809.08 835.784 3811.72 835.673C3854.18 833.885 3896.72 835.216 3939.22 835.673C3952.7 835.818 3974.13 842.025 3985.46 846.882C3994.27 850.66 4068.48 885.412 4070.93 880.51C4073.24 875.889 4062.05 871.632 4059.72 869.301C4061.12 867.9 4061.12 867.9 4062.52 866.499C4069.97 870.22 4092.43 870.779 4075.13 860.894C4070.49 858.239 4065.78 859.951 4061.12 855.289C4068.76 847.648 4078.71 855.067 4087.74 852.487C4097.44 849.718 4087.03 837.302 4082.14 835.673C4072.86 832.581 4083.3 841.037 4073.73 831.47C4080.08 825.118 4086.01 830.405 4093.35 823.063C4087.33 811.031 4078.5 815.215 4070.93 807.65C4090.63 783.022 4064.1 783.48 4045.71 790.836C4035.22 795.032 4030.94 781.785 4037.3 775.423C4029.54 767.659 4044.35 765.689 4040.1 758.609C4030.86 743.203 4006.6 765.431 4000.87 774.022C3999.47 772.621 3999.47 772.621 3998.07 771.22C4017.79 731.771 3983.53 760.432 3970.05 771.22C3968.65 769.819 3968.65 769.819 3967.24 768.417C3986.74 739.169 3975.25 719.984 3950.43 757.208C3949.03 755.807 3949.03 755.807 3947.63 754.406C3961.72 726.225 3940.59 726.416 3926.61 743.197C3925.03 741.618 3913.51 702.137 3905.59 717.976C3900.9 727.366 3910.58 732.604 3902.79 740.394C3893.91 731.514 3897.87 719.431 3884.58 710.97C3864.35 698.098 3885.59 745.233 3885.98 745.999Z" fill="#f0743c" fill-rule="nonzero" opacity="1" stroke="none"/>
<path d="M3248.45 2304.09C3231.93 2320.61 3222.75 2350.12 3214.82 2369.94C3213.31 2373.71 3203.88 2381.69 3206.41 2386.76C3210.12 2394.17 3262.6 2401.15 3272.27 2403.57C3346.97 2422.25 3428.04 2444.24 3503.46 2456.81C3519.62 2459.51 3576.84 2462.94 3587.53 2473.63C3595.42 2465.74 3610.28 2410.04 3602.94 2406.37C3591.42 2400.61 3572.34 2400.11 3559.51 2397.97C3532.36 2393.44 3503.88 2380.38 3475.44 2378.35C3456.33 2376.98 3437.86 2365.8 3420.79 2361.54C3364.24 2347.4 3302 2330.87 3248.45 2304.09Z" fill="#057eb4" fill-rule="nonzero" opacity="1" stroke="none"/>
<path d="M3483.84 1655.35C3491.91 1667.46 3510.47 1668.63 3510.47 1688.98C3510.47 1697.03 3497.7 1709.15 3493.65 1712.8C3478.91 1726.06 3456.49 1702.77 3448.81 1693.18C3433.58 1708.42 3437.16 1746.39 3437.61 1761.84C3437.8 1768.76 3445.35 1780.13 3448.81 1787.06C3471.9 1833.22 3539.73 1855.54 3580.52 1819.29C3615.61 1788.1 3634.53 1743.1 3618.36 1694.58C3599.95 1639.37 3528.5 1621.86 3483.84 1655.35Z" fill="#160c2a" fill-rule="nonzero" opacity="1" stroke="none"/>
<path d="M3563.71 2885.57C3553.72 2895.56 3560.83 2916.05 3563.71 2929.01C3579.2 2998.71 3630.28 2993.83 3695.42 2997.66C3778.08 3002.52 3855.27 3008.87 3937.82 3008.87C3952.04 3008.87 3978.1 3008.78 3991.06 2999.06C4025.1 2973.53 4006.47 2962.66 4010.68 2924.8C4011.86 2914.17 4033.57 2927.13 4041.51 2919.2C4030.59 2908.28 4010.7 2916.82 3995.27 2916.39C3992.89 2916.33 3990.57 2914.42 3988.26 2914.99C3977 2917.81 3978.87 2941.03 3971.45 2947.22C3957.55 2958.8 3913.45 2961.93 3895.78 2962.63C3828.93 2965.31 3756.03 2964.67 3689.81 2951.42C3666.56 2946.77 3640.1 2953.24 3619.76 2941.62C3598.94 2929.72 3601.15 2916.62 3594.54 2896.78C3591.81 2888.61 3576.74 2890.68 3563.71 2885.57Z" fill="#e98c52" fill-rule="nonzero" opacity="1" stroke="none"/>
<path d="M2990.64 2140.15C2980.54 2150.24 2991.08 2173.38 2993.44 2183.59C3007.51 2244.57 3033.45 2297.22 3087.32 2339.12C3101.34 2350.02 3124.87 2354.25 3136.36 2365.74C3154.27 2347.82 3165 2322.46 3175.59 2301.29C3177.57 2297.33 3189.03 2284.74 3186.8 2280.27C3183.93 2274.52 3134.72 2252.13 3126.55 2248.04C3077.4 2223.47 3029.31 2177.07 2990.64 2140.15Z" fill="#057eb4" fill-rule="nonzero" opacity="1" stroke="none"/>
<path d="M3628.16 3368.97C3626.06 3371.07 3626.06 3371.07 3623.96 3373.17C3630.95 3387.14 3621.65 3412.9 3632.37 3423.61C3634.46 3422.57 3635.64 3419.45 3637.97 3419.41C3690.27 3418.49 3742.59 3419.41 3794.9 3419.41C3859.76 3419.41 3924.31 3422.95 3989.66 3422.21C3993.3 3422.17 3996.92 3420.74 4000.87 3420.81C4026.56 3421.26 4052.34 3420.04 4077.94 3422.21C4080.57 3422.44 4081.67 3425.95 4083.54 3427.82C4091.75 3419.61 4082.14 3399.28 4082.14 3388.59C4082.14 3388.39 4086.51 3376.74 4080.74 3375.98C4066.08 3374.02 4044.04 3378.84 4031.7 3381.58C4011.64 3386.04 3983.69 3382.46 3964.44 3384.38C3882.52 3392.57 3791.57 3393.31 3709.43 3381.58C3683.45 3377.87 3653.29 3381.53 3628.16 3368.97Z" fill="#4d292f" fill-rule="nonzero" opacity="1" stroke="none"/>
<path d="M4304.92 2341.92C4324.53 2361.52 4391.37 2326.26 4412.81 2320.9C4424.15 2318.07 4440.07 2324.47 4449.24 2315.3C4448.54 2313.9 4448.54 2313.9 4447.84 2312.5C4459.38 2300.95 4483.72 2303.67 4499.68 2295.68C4501.09 2297.08 4501.09 2297.08 4502.49 2298.48C4520.34 2280.63 4550.09 2276.64 4572.54 2267.66C4613.52 2251.27 4658.04 2230.28 4694.45 2206.01C4711.44 2194.68 4726.48 2178.21 4744.89 2168.18C4750.65 2165.03 4754.73 2172.41 4757.5 2175.18C4758.9 2173.78 4758.9 2173.78 4760.3 2172.38C4751.08 2158.55 4755.25 2159.22 4768.71 2145.76C4756.33 2129.25 4678.08 2179.16 4658.02 2189.19C4616.04 2210.18 4573.99 2236.25 4530.51 2253.65C4516.33 2259.32 4501.14 2266.93 4488.48 2273.26C4485.52 2274.74 4475.33 2284.05 4471.66 2284.47C4460.99 2285.7 4450.14 2283.62 4439.43 2284.47C4434.68 2284.85 4422.34 2295.34 4418.42 2297.08C4401.82 2304.46 4381.97 2314.84 4363.77 2320.9C4350.34 2325.38 4313.83 2333.01 4304.92 2341.92Z" fill="#c24929" fill-rule="nonzero" opacity="1" stroke="none"/>
<path d="M4508.09 2354.53C4553.16 2332 4589.97 2286.47 4637 2267.66C4671.32 2253.93 4704.74 2230.98 4737.88 2214.41C4759.73 2203.49 4755.2 2190.09 4767.31 2177.98C4744.51 2155.19 4726.25 2181.07 4705.65 2194.8C4677.34 2213.67 4647.73 2223.9 4620.18 2239.63C4609.61 2245.68 4598.61 2255.23 4586.56 2259.25C4567.1 2265.74 4550.99 2274.73 4531.91 2281.67C4523.98 2284.55 4512.96 2284.32 4505.29 2290.08C4494.2 2298.39 4499.48 2345.92 4508.09 2354.53Z" fill="#057eb4" fill-rule="nonzero" opacity="1" stroke="none"/>
<path d="M3136.36 2361.54C3152.52 2377.7 3188.13 2374.07 3205.01 2390.96C3216.17 2379.8 3220.78 2359.24 3226.03 2346.12C3231.78 2331.76 3243.19 2318.8 3249.85 2305.49C3247.92 2303.56 3189.93 2278.35 3186.8 2278.87C3182.01 2279.67 3178.25 2293.76 3175.59 2297.08C3161.39 2314.84 3149.88 2341.25 3136.36 2361.54Z" fill="#752d32" fill-rule="nonzero" opacity="1" stroke="none"/>
<path d="M2702 2455.41C2702 2460.82 2696.44 2473.58 2692.19 2477.83C2695.18 2483.8 2692.9 2490.81 2696.39 2496.05C2713.41 2521.58 2757.54 2473.06 2769.25 2462.42C2776.34 2469.51 2781.14 2503.9 2794.47 2504.45C2813.71 2505.26 2828.4 2505.71 2844.92 2497.45C2848.38 2495.72 2864.05 2488.04 2863.13 2483.44C2861.01 2472.81 2841.7 2480.17 2830.9 2479.23C2817.36 2478.06 2784.12 2458.52 2777.66 2445.61C2774.76 2439.8 2783.57 2418.52 2774.86 2414.78C2764.91 2410.52 2754.21 2429.9 2746.83 2435.8C2731.91 2447.74 2719.22 2449.67 2702 2455.41Z" fill="#e9f6f9" fill-rule="nonzero" opacity="1" stroke="none"/>
<path d="M3422.19 3446.03C3400.47 3449.76 3377.51 3459.12 3364.75 3478.26C3349.97 3500.42 3357.62 3531.5 3387.16 3531.5C3404.68 3531.5 3453.94 3490.11 3462.83 3478.26C3468.73 3470.39 3474.67 3452.51 3462.83 3447.43C3458.45 3445.56 3424.77 3445.59 3422.19 3446.03Z" fill="#c14600" fill-rule="nonzero" opacity="1" stroke="none"/>
<path d="M4826.15 2571.71C4832.39 2590.42 4875.11 2617.95 4896.21 2617.95C4915.89 2617.95 4955.06 2566.11 4946.65 2549.29C4948.76 2547.19 4948.76 2547.19 4950.86 2545.09C4966.31 2557.96 4996.34 2564.21 5011.11 2546.49C5015.27 2541.5 5010.49 2518.18 5002.7 2517.06C4998.42 2516.45 4970.35 2526.87 4962.07 2526.87C4956.89 2526.87 4948.05 2519.17 4943.85 2521.27C4937.2 2524.59 4938.47 2537.79 4934.04 2543.69C4928.54 2551.03 4886.9 2591.33 4878 2591.33C4862.2 2591.33 4837.42 2563.26 4826.15 2571.71Z" fill="#a1dce6" fill-rule="nonzero" opacity="1" stroke="none"/>
<path d="M3256.86 1599.3C3290.66 1582.4 3325.91 1566.48 3361.94 1554.47C3373.01 1550.78 3385.31 1551.06 3396.97 1546.06C3418.6 1536.79 3445.92 1524.59 3468.43 1520.84C3501.23 1515.37 3526.63 1515.21 3563.71 1512.43C3565.69 1512.28 3566.51 1509.63 3567.91 1508.23C3563.57 1503.89 3555.84 1505.58 3549.7 1505.43C3518.4 1504.62 3487.12 1503.08 3455.82 1502.62C3438.12 1502.37 3423.36 1514.24 3408.18 1518.04C3376.16 1526.04 3347.16 1539.08 3315.7 1551.67C3304.82 1556.02 3243.79 1586.24 3256.86 1599.3Z" fill="#cd754f" fill-rule="nonzero" opacity="1" stroke="none"/>
<path d="M4655.21 1361.11C4652.41 1363.91 4652.41 1363.91 4649.61 1366.71C4658.03 1383.56 4656.72 1402.07 4662.22 1419.96C4666.84 1434.99 4676.28 1455.56 4677.63 1470.4C4678.9 1484.35 4675.99 1498.52 4677.63 1512.43C4677.94 1515.06 4682.72 1515.45 4683.24 1518.04C4688.63 1545 4667.25 1576.59 4683.24 1597.9C4695.39 1585.75 4694.41 1560.18 4700.05 1543.26C4706.61 1523.58 4704.64 1497.03 4702.85 1477.4C4698.38 1428.2 4686.73 1400.5 4655.21 1361.11Z" fill="#e98c52" fill-rule="nonzero" opacity="1" stroke="none"/>
<path d="M4723.87 2410.58C4709.4 2425.04 4689.33 2434.23 4672.03 2440C4666.21 2441.94 4655.25 2437.08 4652.41 2445.61C4647.98 2458.91 4665.83 2475.1 4677.63 2473.63C4699.53 2470.89 4714.43 2442.44 4728.07 2428.79C4742.8 2443.52 4771.28 2465.08 4792.53 2462.42C4807.05 2460.6 4831.12 2423.94 4819.15 2411.98C4796.19 2427.28 4772.5 2428.11 4744.89 2425.99C4736.26 2425.33 4729.91 2414.6 4723.87 2410.58Z" fill="#a1dce6" fill-rule="nonzero" opacity="1" stroke="none"/>
<path d="M3773.88 2856.14C3771.5 2858.53 3767.15 2858.83 3765.48 2861.75C3761.37 2868.94 3771.08 2872.15 3771.08 2878.56C3771.08 2884.02 3767.02 2896.19 3769.68 2900.98C3774.07 2908.88 3794.78 2919.05 3803.31 2920.6C3807.49 2921.36 3837.64 2929.87 3838.34 2922C3839.61 2907.58 3837.06 2892.99 3838.34 2878.56C3838.85 2872.7 3847.92 2864.33 3841.14 2857.55C3833.55 2865.13 3800.09 2858.95 3773.88 2856.14Z" fill="#c24929" fill-rule="nonzero" opacity="1" stroke="none"/>
<path d="M2858.93 2299.88C2867.52 2308.47 2866.63 2325.81 2877.14 2336.31C2890.56 2349.73 2926.79 2328.5 2938.79 2319.5C2931.1 2309.89 2915.87 2306.64 2905.17 2301.29C2892.61 2295.01 2884.09 2273.26 2870.14 2273.26C2862.95 2273.26 2855.8 2283.69 2849.12 2284.47C2842.94 2285.2 2807.08 2274.85 2807.08 2291.48C2807.08 2316.41 2847.64 2311.17 2858.93 2299.88Z" fill="#ccecf0" fill-rule="nonzero" opacity="1" stroke="none"/>
<path d="M4215.25 1508.23C4228.28 1521.26 4258.97 1519.36 4275.5 1526.44C4324.19 1547.31 4378.47 1561.12 4426.82 1585.29C4438.65 1573.47 4404.83 1551.42 4394.6 1548.86C4382.67 1545.88 4372.51 1537.3 4360.97 1533.45C4331.28 1523.55 4292.97 1516.28 4261.49 1511.03C4249.84 1509.09 4224.49 1498.99 4215.25 1508.23Z" fill="#cd754f" fill-rule="nonzero" opacity="1" stroke="none"/>
<path d="M3116.74 1665.16C3122.55 1659.35 3140.1 1655.5 3148.97 1652.55C3148.97 1647.66 3148.55 1650.58 3151.77 1644.14C3143.19 1635.56 3162.83 1591.04 3169.98 1583.89C3159.75 1568.54 3129.95 1596.14 3120.94 1603.51C3098.86 1621.58 3100.26 1644.55 3116.74 1665.16Z" fill="#c24929" fill-rule="nonzero" opacity="1" stroke="none"/>
<path d="M3727.65 1845.91C3725.53 1848.02 3716.73 1848.46 3716.44 1851.51C3715.6 1860.35 3715.6 1869.3 3716.44 1878.14C3716.56 1879.45 3719.17 1879.62 3719.24 1880.94C3720.4 1902.41 3715.72 1924.84 3722.04 1945.39C3726.19 1958.87 3749.46 1986.51 3758.47 2000.04C3776.02 1982.49 3746.58 1941.59 3741.66 1924.37C3737.55 1910.02 3732.68 1885.5 3734.65 1869.73C3735.46 1863.29 3748.32 1863.78 3738.85 1854.32C3737.45 1855.72 3737.45 1855.72 3736.05 1857.12C3730.19 1853.21 3732.01 1850.28 3727.65 1845.91Z" fill="#f18d2a" fill-rule="nonzero" opacity="1" stroke="none"/>
<path d="M3193.8 2526.87C3156.13 2535.59 3181.64 2582.92 3213.42 2582.92C3220.54 2582.92 3273.49 2565.74 3268.07 2554.9C3265.29 2549.35 3238.56 2552.06 3231.64 2549.29C3217.21 2543.52 3209.57 2523.23 3193.8 2526.87Z" fill="#e9f6f9" fill-rule="nonzero" opacity="1" stroke="none"/>
<path d="M3479.64 1655.35C3439.52 1664.94 3435.48 1718.4 3486.65 1718.4C3494.19 1718.4 3506.65 1702.68 3507.66 1701.59C3527.37 1680.24 3496.9 1651.23 3479.64 1655.35Z" fill="#e9f6f9" fill-rule="nonzero" opacity="1" stroke="none"/>
<path d="M4827.56 2400.77C4812.56 2410.76 4854.27 2442.8 4869.59 2442.8C4886.13 2442.8 4918.6 2432.38 4925.64 2414.78C4927.81 2409.36 4926.79 2402.41 4931.24 2397.97C4929.24 2393.97 4931.74 2389.11 4927.04 2386.76C4920.47 2383.47 4903.51 2401.21 4897.61 2403.57C4876.12 2412.17 4848.22 2421.44 4827.56 2400.77Z" fill="#a1dce6" fill-rule="nonzero" opacity="1" stroke="none"/>
<path d="M4052.71 1659.55C4016.74 1670.62 4027.22 1719.8 4066.73 1719.8C4083.89 1719.8 4093.84 1690.26 4086.34 1677.77C4077.44 1662.93 4067.58 1654.98 4052.71 1659.55Z" fill="#e9f6f9" fill-rule="nonzero" opacity="1" stroke="none"/>
<path d="M4774.31 2580.12C4757.98 2578.5 4748.74 2599.73 4732.28 2599.73C4726.47 2599.73 4715.94 2586.89 4709.86 2589.92C4701.31 2594.2 4701.24 2606.24 4702.85 2613.74C4706.18 2629.26 4730.91 2629.73 4740.68 2629.16C4757.46 2628.17 4822.61 2584.89 4774.31 2580.12Z" fill="#ccecf0" fill-rule="nonzero" opacity="1" stroke="none"/>
<path d="M3364.75 2568.91C3350.63 2573.76 3378.38 2596.95 3384.36 2602.54C3389.15 2607.01 3397.46 2603.21 3403.98 2603.94C3435.1 2607.39 3493.98 2558.32 3434.8 2573.11C3424.07 2575.79 3418.04 2574.01 3406.78 2573.11C3391.23 2571.87 3378.83 2564.07 3364.75 2568.91Z" fill="#e9f6f9" fill-rule="nonzero" opacity="1" stroke="none"/>
<path d="M2955.61 2371.34C2946.31 2376.33 2951.65 2406.4 2965.41 2407.77C2974.45 2408.68 2981.63 2402.17 2990.64 2402.17C3003.96 2402.17 3013.7 2415.08 3028.47 2409.18C3045.8 2402.24 3021.04 2376.54 3011.65 2375.55C3003.76 2374.72 2995.76 2375.17 2987.83 2375.55C2981.71 2375.84 2975.85 2379.75 2969.62 2379.75C2964.13 2379.75 2961.29 2368.3 2955.61 2371.34Z" fill="#e9f6f9" fill-rule="nonzero" opacity="1" stroke="none"/>
<path d="M3874.77 1941.19C3860.42 1940.26 3857.92 1976.3 3852.35 1990.23C3840.86 2018.95 3822.59 2042.73 3808.91 2070.09C3806.53 2074.85 3815.41 2078.5 3818.72 2078.5C3827.36 2078.5 3837.36 2052.57 3841.14 2046.27C3851.91 2028.32 3896.34 1942.59 3874.77 1941.19Z" fill="#4d292f" fill-rule="nonzero" opacity="1" stroke="none"/>
<path d="M4348.36 1302.26C4325.44 1306.73 4329.75 1337.72 4332.95 1356.9C4333.7 1361.41 4340.4 1379.8 4346.96 1376.52C4369.18 1365.41 4380.46 1296 4348.36 1302.26Z" fill="#e9f6f9" fill-rule="nonzero" opacity="1" stroke="none"/>
<path d="M3619.76 2902.38C3607.08 2915.06 3631.66 2917.29 3639.37 2920.6C3658.24 2928.68 3734 2932.46 3747.26 2919.2C3734.48 2902.16 3714.88 2921.51 3701.02 2913.59C3679.94 2901.54 3650.64 2908 3619.76 2902.38Z" fill="#f0743c" fill-rule="nonzero" opacity="1" stroke="none"/>
<path d="M4481.47 1352.7C4447.2 1360.04 4465.2 1422.39 4499.68 1418.56C4507.5 1417.69 4499.59 1348.82 4481.47 1352.7Z" fill="#e9f6f9" fill-rule="nonzero" opacity="1" stroke="none"/>
<path d="M3269.47 2068.69C3266.66 2071.5 3266.66 2071.5 3263.86 2074.3C3266.45 2079.47 3275.49 2088.11 3280.68 2089.71C3288.83 2092.22 3297.63 2089.78 3305.9 2093.91C3316.95 2099.44 3367.1 2125.18 3377.36 2114.93C3368.5 2103.13 3349.94 2101.22 3338.12 2095.32C3323.47 2087.99 3310.26 2076.79 3296.09 2068.69C3286.3 2063.1 3277.52 2072.72 3269.47 2068.69Z" fill="#ec5126" fill-rule="nonzero" opacity="1" stroke="none"/>
<path d="M4142.39 2603.94C4169.42 2658.01 4206.19 2623.52 4237.67 2598.33C4232.39 2590.42 4176.98 2606.74 4163.41 2606.74C4156.02 2606.74 4148.1 2598.22 4142.39 2603.94Z" fill="#e9f6f9" fill-rule="nonzero" opacity="1" stroke="none"/>
<path d="M2886.95 2482.04C2875.81 2493.18 2898.83 2530.81 2912.17 2532.48C2926.3 2534.24 2936.73 2519.84 2947.2 2511.46C2934.88 2496.06 2907.57 2497.05 2886.95 2482.04Z" fill="#e9f6f9" fill-rule="nonzero" opacity="1" stroke="none"/>
<path d="M3831.33 1237.81C3820.21 1245.84 3804.71 1263.17 3804.71 1278.44C3804.71 1287.34 3813.45 1308.22 3825.73 1300.86C3843.15 1290.41 3842.93 1260.1 3841.14 1243.41C3840.43 1236.82 3834.35 1235.63 3831.33 1237.81Z" fill="#eba486" fill-rule="nonzero" opacity="1" stroke="none"/>
<path d="M3635.17 1244.81C3611.57 1250.41 3614.68 1282.28 3615.55 1302.26C3615.83 1308.75 3625.78 1320.31 3632.37 1317.67C3635.99 1316.22 3658.52 1239.27 3635.17 1244.81Z" fill="#e98c52" fill-rule="nonzero" opacity="1" stroke="none"/>
<path d="M4632.79 1951C4644.62 1945.08 4680.66 1924.15 4690.24 1914.57C4681.85 1906.17 4649.31 1903.7 4639.8 1904.76C4629.53 1905.9 4626.62 1942.77 4632.79 1951Z" fill="#ec5126" fill-rule="nonzero" opacity="1" stroke="none"/>
<path d="M3151.77 1404.54C3128.85 1414.48 3125.15 1429.51 3125.15 1456.39C3125.15 1462.25 3129.77 1473.82 3137.76 1470.4C3149.64 1465.31 3172.95 1395.36 3151.77 1404.54Z" fill="#f9dfc3" fill-rule="nonzero" opacity="1" stroke="none"/>
<path d="M4103.16 2588.52C4091.61 2589.33 4081.44 2599.73 4069.53 2599.73C4064.81 2599.73 4056.4 2590.52 4052.71 2592.73C4036.47 2602.48 4062.86 2627.76 4075.13 2627.76C4087.59 2627.76 4132.22 2586.5 4103.16 2588.52Z" fill="#ccecf0" fill-rule="nonzero" opacity="1" stroke="none"/>
<path d="M3974.25 2204.61C3960.85 2218.01 3985.64 2274.39 3986.86 2291.48C3987.95 2306.67 3988.26 2326.86 3988.26 2341.92C3988.26 2346.07 3985.01 2370.39 3996.67 2358.73C3989.36 2344.11 3996.67 2326.04 3996.67 2309.69C3996.67 2293.53 3988.24 2218.59 3974.25 2204.61Z" fill="#ec5126" fill-rule="nonzero" opacity="1" stroke="none"/>
<path d="M3228.83 1372.32C3200.31 1369.87 3205.35 1421.43 3233.04 1426.96C3249.56 1430.27 3253.91 1374.47 3228.83 1372.32Z" fill="#e9f6f9" fill-rule="nonzero" opacity="1" stroke="none"/>
<path d="M3286.28 2554.9C3279.74 2561.44 3282 2562.66 3287.68 2568.91C3306.04 2589.1 3310.26 2587.12 3340.93 2587.12C3351.13 2587.12 3373.76 2583.53 3360.54 2570.31C3351.74 2574.71 3354.16 2568.6 3346.53 2567.51C3326.91 2564.7 3301.64 2570.26 3286.28 2554.9Z" fill="#ccecf0" fill-rule="nonzero" opacity="1" stroke="none"/>
<path d="M3291.89 1333.08C3274.91 1346.02 3283.16 1393.68 3311.5 1390.53C3340.68 1387.29 3295.63 1330.23 3291.89 1333.08Z" fill="#f9dfc3" fill-rule="nonzero" opacity="1" stroke="none"/>
<path d="M4218.05 1351.3C4235.03 1334.32 4238.89 1316.63 4248.88 1296.65C4221.73 1269.51 4195.64 1328.89 4218.05 1351.3Z" fill="#f9dfc3" fill-rule="nonzero" opacity="1" stroke="none"/>
<path d="M4005.08 1230.8C3989.78 1226.71 3960.37 1275.72 3982.66 1289.65C3990.89 1294.79 4032.25 1238.07 4005.08 1230.8Z" fill="#eba486" fill-rule="nonzero" opacity="1" stroke="none"/>
<path d="M3698.22 3203.63C3685.2 3216.65 3659.53 3235.86 3639.37 3235.86C3626.38 3235.86 3605.74 3207.85 3593.13 3220.45C3600.98 3236.14 3635.84 3247.07 3651.98 3247.07C3660.66 3247.07 3670.62 3236.59 3677.2 3231.66C3683.56 3226.89 3710.73 3211.94 3698.22 3203.63Z" fill="#e98c52" fill-rule="nonzero" opacity="1" stroke="none"/>
<path d="M3443.21 1274.24C3415.79 1283.52 3452.41 1328.08 3474.04 1323.28C3492.31 1319.22 3454.88 1270.28 3443.21 1274.24Z" fill="#f9dfc3" fill-rule="nonzero" opacity="1" stroke="none"/>
<path d="M3628.16 3087.34C3645.81 3113.81 3725.56 3115.33 3741.66 3083.13C3732.41 3076.97 3709.54 3099.63 3695.42 3098.55C3675.49 3097.01 3646.87 3077.98 3628.16 3087.34Z" fill="#cd754f" fill-rule="nonzero" opacity="1" stroke="none"/>
<path d="M4061.12 1251.82C4043.63 1254.32 4037.3 1273.06 4037.3 1289.65C4037.3 1292.86 4040.93 1313.05 4048.51 1309.26C4056.11 1305.47 4083.14 1248.66 4061.12 1251.82Z" fill="#f9dfc3" fill-rule="nonzero" opacity="1" stroke="none"/>
<path d="M3848.15 2748.26C3843.05 2753.35 3846.97 2759 3843.94 2765.07C3845.34 2766.47 3845.34 2766.47 3846.74 2767.87C3850.5 2764.12 3909.19 2763.67 3915.4 2763.67C3919.52 2763.67 3932.53 2761.66 3929.41 2753.86C3923.81 2739.84 3862.85 2762.96 3848.15 2748.26Z" fill="#f0743c" fill-rule="nonzero" opacity="1" stroke="none"/>
<path d="M3789.3 873.504C3776.53 877.054 3762.02 921.237 3792.1 916.94C3814.46 913.746 3812.75 866.985 3789.3 873.504Z" fill="#ccecf0" fill-rule="nonzero" opacity="1" stroke="none"/>
<path d="M3304.5 3031.29C3295.47 3040.31 3328.25 3064.9 3339.52 3067.72C3360.04 3072.85 3378.05 3060.25 3394.17 3049.5C3385.72 3041.05 3362.09 3056.51 3349.33 3056.51C3338.78 3056.51 3316.42 3037.46 3304.5 3031.29Z" fill="#cd754f" fill-rule="nonzero" opacity="1" stroke="none"/>
<path d="M3399.77 3192.42C3398.37 3193.82 3398.37 3193.82 3396.97 3195.23C3411.84 3213.07 3433.22 3221.78 3455.82 3220.45C3459.87 3220.21 3482.52 3213.59 3479.64 3207.84C3477.31 3203.17 3423.07 3205.15 3399.77 3192.42Z" fill="#cd754f" fill-rule="nonzero" opacity="1" stroke="none"/>
<path d="M3998.07 3046.7C3993.46 3051.31 3980.26 3067.72 3971.45 3067.72C3968.53 3067.72 3966.25 3062.72 3964.44 3062.12C3951.76 3057.89 3957.57 3065.59 3949.03 3067.72C3931 3072.23 3932.6 3067.48 3937.82 3083.13C3966.19 3083.13 3970.02 3081.32 3991.06 3063.52C3996.88 3058.6 4008.49 3054.32 3998.07 3046.7Z" fill="#cd754f" fill-rule="nonzero" opacity="1" stroke="none"/>
<path d="M3476.84 1624.53C3465.64 1635.73 3423.32 1650.74 3434.8 1667.96C3445.79 1656.97 3484.64 1648.15 3490.85 1635.74C3480.97 1625.85 3485.99 1629.1 3476.84 1624.53Z" fill="#f7bd81" fill-rule="nonzero" opacity="1" stroke="none"/>
<path d="M3545.49 3203.63C3532.93 3206.96 3522.68 3210.77 3510.47 3214.84C3500.69 3218.1 3518.8 3240.65 3527.28 3237.26C3537.23 3233.28 3570.13 3197.1 3545.49 3203.63Z" fill="#f9dfc3" fill-rule="nonzero" opacity="1" stroke="none"/>
<path d="M4237.67 2151.36C4241.43 2155.13 4242.91 2161.23 4247.48 2163.97C4249.74 2165.33 4290.18 2157.7 4295.12 2152.76C4284.5 2139.5 4251.19 2137.83 4237.67 2151.36Z" fill="#ec5126" fill-rule="nonzero" opacity="1" stroke="none"/>
<path d="M3974.25 3234.46C3963.8 3244.91 3944.58 3227.86 3936.42 3241.46C3933.32 3246.62 3947.26 3254.33 3951.83 3255.48C3967.49 3259.39 3979.42 3247.98 3991.06 3238.66C3989.66 3236.56 3989.66 3236.56 3974.25 3234.46Z" fill="#f9dfc3" fill-rule="nonzero" opacity="1" stroke="none"/>
<path d="M3885.98 2861.75C3884.58 2863.15 3884.58 2863.15 3883.17 2864.55C3897.19 2878.56 3922.21 2873.45 3942.02 2872.96C3962.96 2872.44 3951.66 2861.75 3885.98 2861.75Z" fill="#f0743c" fill-rule="nonzero" opacity="1" stroke="none"/>
<path d="M3748.66 776.824C3756.03 784.192 3785.29 797.647 3794.9 788.034C3780.52 770.779 3764.92 752.44 3748.66 776.824Z" fill="#c4cac0" fill-rule="nonzero" opacity="1" stroke="none"/>
<path d="M3689.81 3046.7C3691.88 3050.83 3690.89 3048.51 3692.62 3053.71C3705.54 3053.71 3739.46 3055.91 3751.47 3043.9C3744.62 3033.62 3697.44 3039.08 3689.81 3046.7Z" fill="#e98c52" fill-rule="nonzero" opacity="1" stroke="none"/>
<path d="M3616.95 1526.44C3624.77 1534.26 3666.13 1551.53 3674.4 1543.26C3662.21 1531.07 3631.52 1516.74 3616.95 1526.44Z" fill="#cd754f" fill-rule="nonzero" opacity="1" stroke="none"/>
<path d="M3640.77 3035.49C3649.21 3046.75 3683.96 3059.57 3694.02 3049.5C3693.32 3048.1 3693.32 3048.1 3692.62 3046.7C3694.02 3045.3 3694.02 3045.3 3695.42 3043.9C3694 3042.48 3643.83 3032.44 3640.77 3035.49Z" fill="#cd754f" fill-rule="nonzero" opacity="1" stroke="none"/>
<path d="M3822.92 730.586C3817.66 735.852 3813.47 735.839 3808.91 740.394C3814.61 746.09 3839.2 775.957 3849.55 765.615C3843.18 752.89 3831.86 741.758 3822.92 730.586Z" fill="#cdb696" fill-rule="nonzero" opacity="1" stroke="none"/>
<path d="M3499.26 2585.72C3489.3 2587.19 3499.4 2595.03 3507.66 2602.54C3514.12 2608.41 3543.26 2599.76 3541.29 2589.92C3539.53 2581.13 3509.61 2584.19 3499.26 2585.72Z" fill="#a1dce6" fill-rule="nonzero" opacity="1" stroke="none"/>
<path d="M3869.16 712.371C3864.14 717.394 3866.15 718.185 3859.35 724.981C3868.04 733.666 3876.44 744.239 3884.58 753.005C3895.32 742.263 3878.85 720.121 3869.16 712.371Z" fill="#c4cac0" fill-rule="nonzero" opacity="1" stroke="none"/>
<path d="M3740.26 3234.46C3715.94 3237.77 3709.65 3256.98 3741.66 3254.07C3758.95 3252.5 3759.94 3231.78 3740.26 3234.46Z" fill="#f9dfc3" fill-rule="nonzero" opacity="1" stroke="none"/>
<path d="M4086.34 921.144C4069.85 922.688 4075.18 957.55 4090.55 949.167C4107.02 940.179 4101.14 919.758 4086.34 921.144Z" fill="#a1dce6" fill-rule="nonzero" opacity="1" stroke="none"/>
<path d="M4184.42 1289.65C4176.1 1297.97 4161.39 1311.45 4173.21 1323.28C4182.78 1316.9 4201.2 1300.82 4184.42 1289.65Z" fill="#f9dfc3" fill-rule="nonzero" opacity="1" stroke="none"/>
<path d="M3736.05 817.458C3711.49 829.897 3757.15 845.398 3769.68 832.871C3772.75 829.805 3744.1 813.382 3736.05 817.458Z" fill="#c4cac0" fill-rule="nonzero" opacity="1" stroke="none"/>
<path d="M3906.99 3057.91C3904.19 3060.71 3904.19 3060.71 3901.39 3063.52C3909.05 3071.18 3930.31 3087.84 3939.22 3078.93C3935.72 3075.43 3937.6 3070.9 3933.62 3067.72C3928.75 3063.83 3913.69 3061.26 3906.99 3057.91Z" fill="#b96151" fill-rule="nonzero" opacity="1" stroke="none"/>
<path d="M3897.19 888.917C3878.7 894.526 3886.94 922.158 3899.99 916.94C3910.07 912.908 3907.9 885.667 3897.19 888.917Z" fill="#ccecf0" fill-rule="nonzero" opacity="1" stroke="none"/>
<path d="M3850.95 729.185C3845.64 731.837 3842.79 731.735 3838.34 736.191C3843.24 745.998 3851.14 754.301 3857.95 762.813C3865.93 754.836 3858.63 736.864 3850.95 729.185Z" fill="#c4cac0" fill-rule="nonzero" opacity="1" stroke="none"/>
<path d="M4618.78 2487.64C4575.75 2492.67 4659.07 2525.13 4627.19 2493.24C4623.97 2490.02 4622.62 2487.19 4618.78 2487.64Z" fill="#64c4df" fill-rule="nonzero" opacity="1" stroke="none"/>
<path d="M4199.84 2158.37C4203.01 2164.71 4200.5 2160.43 4209.64 2169.58C4217.4 2165.7 4226.63 2170.81 4233.46 2163.97C4223.02 2153.53 4211.38 2146.82 4199.84 2158.37Z" fill="#ec5126" fill-rule="nonzero" opacity="1" stroke="none"/>
<path d="M4286.71 2138.75C4290.69 2142.73 4331.8 2149.71 4339.95 2141.55C4330.85 2132.46 4296.48 2128.98 4286.71 2138.75Z" fill="#ec5126" fill-rule="nonzero" opacity="1" stroke="none"/>
<path d="M4052.71 767.016C4046.49 765.98 4042.18 768.439 4037.3 772.621C4002.54 802.413 4085.14 772.414 4052.71 767.016Z" fill="#e98c52" fill-rule="nonzero" opacity="1" stroke="none"/>
<path d="M3769.68 828.667C3756.61 841.741 3781.39 853.388 3793.5 841.278C3788.61 836.389 3782.9 831.775 3769.68 828.667Z" fill="#cd754f" fill-rule="nonzero" opacity="1" stroke="none"/>
<path d="M5067.15 2763.67C5061.13 2769.69 5055.32 2774.1 5048.94 2780.48C5054.47 2786.01 5062.22 2785.35 5068.56 2791.69C5074.25 2785.99 5072.91 2769.43 5067.15 2763.67Z" fill="#160c2a" fill-rule="nonzero" opacity="1" stroke="none"/>
<path d="M3734.65 1827.69C3725.59 1836.76 3725.75 1853.82 3734.65 1862.72C3745.6 1855.42 3740.62 1836.65 3734.65 1827.69Z" fill="#f9e783" fill-rule="nonzero" opacity="1" stroke="none"/>
<path d="M3892.98 724.981C3896.55 732.125 3898.34 737.921 3902.79 744.598C3913.23 736.767 3907.56 710.4 3892.98 724.981Z" fill="#c4cac0" fill-rule="nonzero" opacity="1" stroke="none"/>
<path d="M4041.51 755.807C4035.09 762.222 4028.57 769.49 4035.9 776.824C4042.78 773.385 4048.44 774.097 4054.12 768.417C4049.71 764.015 4044.97 761.001 4041.51 755.807Z" fill="#c4cac0" fill-rule="nonzero" opacity="1" stroke="none"/>
<path d="M3883.17 1922.97C3876.86 1929.29 3877.2 1934.56 3871.97 1939.79C3877.18 1946.74 3874.87 1943.45 3878.97 1949.59C3886.08 1942.48 3892.09 1931.88 3883.17 1922.97Z" fill="#cd754f" fill-rule="nonzero" opacity="1" stroke="none"/>
<path d="M4002.27 902.929C3980.55 920.321 4024.57 923.313 4013.48 908.533C4010.42 904.45 4006.1 899.865 4002.27 902.929Z" fill="#ccecf0" fill-rule="nonzero" opacity="1" stroke="none"/>
<path d="M3482.44 2577.31C3476.66 2575.06 3478.76 2580.92 3476.84 2585.72C3468.09 2607.58 3502.42 2585.1 3482.44 2577.31Z" fill="#64c4df" fill-rule="nonzero" opacity="1" stroke="none"/>
<path d="M4686.04 2626.35C4680.15 2632.25 4682.19 2637.92 4687.44 2643.17C4694.53 2639.62 4696.3 2632.41 4686.04 2626.35Z" fill="#64c4df" fill-rule="nonzero" opacity="1" stroke="none"/>
</g>
</g>
</svg>
